/* XPM */
static char * b_xpm[] = {
"64 64 203 2",
"  	c #444945",
". 	c #4C7B44",
"+ 	c #5C8552",
"@ 	c #73A466",
"# 	c #335C2D",
"$ 	c #84BB75",
"% 	c #79AC6B",
"& 	c #88BD7A",
"* 	c #437A3B",
"= 	c #528D4B",
"- 	c #659359",
"; 	c #6A945D",
"> 	c #426C3B",
", 	c #7BB36E",
"' 	c #8AC17A",
") 	c #A1DD91",
"! 	c #598C4F",
"~ 	c #64A25C",
"{ 	c #75A469",
"] 	c #3A6236",
"^ 	c #A0DB8F",
"/ 	c #8DC57D",
"( 	c #54844B",
"_ 	c #9CD78B",
": 	c #69A45E",
"< 	c #649C5A",
"[ 	c #233B1B",
"} 	c #8FC780",
"| 	c #A6E395",
"1 	c #6E9B62",
"2 	c #54924D",
"3 	c #5B9954",
"4 	c #437E44",
"5 	c #648E59",
"6 	c #4C8946",
"7 	c #93CC83",
"8 	c #5D8B52",
"9 	c #81B572",
"0 	c #417936",
"a 	c #3B6C33",
"b 	c #7FB871",
"c 	c #629556",
"d 	c #508546",
"e 	c #58924C",
"f 	c #72AB65",
"g 	c #4B8544",
"h 	c #75B069",
"i 	c #699A5C",
"j 	c #59834E",
"k 	c #46813E",
"l 	c #3D7334",
"m 	c #396C2D",
"n 	c #3B702E",
"o 	c #6DA963",
"p 	c #619B57",
"q 	c #547C4B",
"r 	c #5C9453",
"s 	c #43633A",
"t 	c #39662F",
"u 	c #35542C",
"v 	c #7FB670",
"w 	c #346425",
"x 	c #2D5423",
"y 	c #2C541B",
"z 	c #48833F",
"A 	c #468143",
"B 	c #274519",
"C 	c #6AA661",
"D 	c #43743C",
"E 	c #36652B",
"F 	c #315C23",
"G 	c #264B14",
"H 	c #295215",
"I 	c #2E5A1D",
"J 	c #5D9D59",
"K 	c #1A3407",
"L 	c #1E3A0B",
"M 	c #234313",
"N 	c #2F5824",
"O 	c #24440D",
"P 	c #37692B",
"Q 	c #264A1A",
"R 	c #4D8B4A",
"S 	c #549553",
"T 	c #3A6B3C",
"U 	c #173005",
"V 	c #172D06",
"W 	c #1C3311",
"X 	c #2A4B16",
"Y 	c #366234",
"Z 	c #2C4C1C",
"` 	c #223D13",
" .	c #4F904E",
"..	c #121B06",
"+.	c #152506",
"@.	c #376933",
"#.	c #223B0C",
"$.	c #3F783C",
"%.	c #152B0A",
"&.	c #0F1C04",
"*.	c #1B2B0A",
"=.	c #1E3C12",
"-.	c #2A4314",
";.	c #3E743D",
">.	c #5FA160",
",.	c #1C330A",
"'.	c #2E582C",
").	c #0D1206",
"!.	c #192A07",
"~.	c #52995A",
"{.	c #14220B",
"].	c #4D955A",
"^.	c #3B7444",
"/.	c #2D522C",
"(.	c #325425",
"_.	c #23340D",
":.	c #060903",
"<.	c #396539",
"[.	c #243213",
"}.	c #33643B",
"|.	c #498C56",
"1.	c #42834B",
"2.	c #1C2B12",
"3.	c #3E7944",
"4.	c #254424",
"5.	c #30511F",
"6.	c #2D4B24",
"7.	c #1C230B",
"8.	c #010100",
"9.	c #151B09",
"0.	c #478A4E",
"a.	c #254D2C",
"b.	c #0F1908",
"c.	c #1E3419",
"d.	c #2C421D",
"e.	c #2C3A15",
"f.	c #191E0A",
"g.	c #0A0C04",
"h.	c #428E59",
"i.	c #356A3E",
"j.	c #1F391A",
"k.	c #2D5A34",
"l.	c #428A55",
"m.	c #437A48",
"n.	c #385D33",
"o.	c #334B25",
"p.	c #31421E",
"q.	c #2B3414",
"r.	c #334F29",
"s.	c #3C7C4C",
"t.	c #232B0E",
"u.	c #2C3C1B",
"v.	c #20270D",
"w.	c #43925D",
"x.	c #49935E",
"y.	c #2A5633",
"z.	c #3A7649",
"A.	c #315630",
"B.	c #324622",
"C.	c #121508",
"D.	c #2C4422",
"E.	c #356D42",
"F.	c #377549",
"G.	c #377145",
"H.	c #418553",
"I.	c #3E8352",
"J.	c #111506",
"K.	c #22361A",
"L.	c #305F39",
"M.	c #3B6F41",
"N.	c #282F11",
"O.	c #293618",
"P.	c #1D3C21",
"Q.	c #355C33",
"R.	c #1D2711",
"S.	c #2A5935",
"T.	c #232D12",
"U.	c #313C1A",
"V.	c #2B4D2A",
"W.	c #3D804F",
"X.	c #479660",
"Y.	c #2E633B",
"Z.	c #264927",
"`.	c #3F8956",
" +	c #4C7343",
".+	c #49693F",
"++	c #425F3A",
"@+	c #273E21",
"#+	c #5A7E50",
"$+	c #426A40",
"%+	c #55794B",
"&+	c #3F8B58",
"*+	c #628A56",
"=+	c #499760",
"-+	c #6C9661",
";+	c #4A6E41",
">+	c #56A36B",
",+	c #4C9B64",
"'+	c #385330",
")+	c #519E67",
"!+	c #5AA56D",
"~+	c #16331C",
"{+	c #3F7E51",
"                                                                                                                                ",
"                                                  .                       + @             #                                     ",
"                      $ $           % &         * = - ;                 > , ' ,   + ) @ ! ~ #               {                   ",
"                    @ ) ) @       ] ) ^ /       * ( _ _ %               ( : < , [ } | 1 2 3 4             _ | {                 ",
"            5 +     , / / %   # 6 . 7 / / 8 7 9 0 a $ $ b c             d e 3 f ] ' / - g 6 *     9 +   1 _ 7 $                 ",
"          $ 7 / , 8 f f h i j a k l $ f f c ' 9 m n . o p ~ >   - q     * * g r s % % t 0 0 a   $ 7 $   - $ , , u i 9 7 ,       ",
"          j v , o ~ r 3 2 i ' v . w : = 4 = : , x y j ( g z A 8 7 9   B w w m > 9 ' $ w w m w   ' f i 9 @ r p C r , b v v       ",
"            > C 3 = D k * D , f : E g - % D = C > . 9 i n w F f , f   G G H x p o f 8 I I I y . < r o , i * g = g J o i         ",
"              D 2 k F l w w ( ~ 3 4 l r C < D = g r o p I H F ~ ~ r K L L M > 6 2 p N G O ! - D * J : C w m l a * 2 r           ",
"      w m P w Q R 0 y w y H x S g E w . 3 J T a a S J J G O # 6 6 g U V V W a m * D O O > ~ 8 E k R 3 4 y I w y l R # G X H M   ",
"    M P w I I y Y * F M G O K A l Z H a R 6 g ` y g R  .Y L N l m l ..+.+.` I I w y L K R J @.x m l 6 x O G y H l A O H H I y G ",
"        Q F y G #.l F M O L U # x M #.# A $.* x M l * * * %.Q F y w %.&.&.M O O y L U *.6 Y y Q F w * U L O L I l x O O X H M   ",
"          =.y -.#.T x X V V +.;.>.# ,.'.$.m m N ` x w w E x ` X O X U ).&.#.L L M +.!.W @.G #.G y y w +.U #.` y # !.#.O -.      ",
"            W X Y ~.4 #.!.+.{.].~.^.+./.a F F x B *.(.y y F ` -._._.*.:...*.!.*.,...{.%.` #.!.-.-.X x ..+.+.-.'.S <.#.`         ",
"              [.}.|.1./.+.).2.|.|.3...4.E 5.Z 6.` {.` Z -.-.Z *.*.7.*.8...9...........).,.*.*.#._.-.B ).....` 4 0.T _.          ",
"      3.        a.1.;.T 2.:.W 4 ^.^.b.c.# Z d.d.*.7.).-._._.e.W f.....:.).).).).).).).).{...*.*.*._.[.:.g.).# 3.1.}.&.          ",
"    }.].h.3.i.}./.^.@.# (...{.T Y Y j.{.(.-.e.d.9.7.:._._.*.*.e.).).).g.:.:.:.:.:.:.:.g.).).....7.[.+.8.8.[ Y a 3.'.Y <.k.      ",
"      |.l.m.^.T n./.n.o.p.d...# o.o.d.:.o.e.q.e.f...8...*.f.f._.7.:.:.:.8.8.8.8.:.8.8.:.8.:.:.).f.q.g.8.2.o.r.# T 6.T 1.|.s.    ",
"      k.l.s.T Y u d.u p.q.q.t.6.u.e.u...d.[.t.t.f.g.8.:.9.).).f.7.8.8.8.8.8.8.8.8.8.8.8.8.8.8.:.9.v.8.7.e.e.p.u 6.# T 1.w.x.    ",
"        y.z.^.<.6.A.4.B.q.v.7.[ e._._.*.[.t.7.7.f.8.8.8.g.:.:.g.C.8.8.8.8.8.8.8.8.8.8.8.8.8.8.:.C.)...v.t.q.u.6.D.# Y i.z.E.    ",
"      F.z.G.i.A.H.w.I.D.e.7.9.f.e.v.7.7.f.v.f.C.).:.8.8.8.8.8.8.:.8.8.8.8.8.8.8.8.8.8.8.8.8.8.8.8.:.J.9.7.[.p.K.L.s.y.          ",
"    I.w.l.s.M.] z.h.l.i.q.v.C.g.N.7.9.C.).J.).g.:.8.8.8.8.8.8.8.8.8.8.8.8.8.8.8.8.8.8.8.8.8.8.8.8.:.g.C.7.O.D.^.I.h.P.          ",
"    }.h.l.s.T n.6.}.s.z.Q.R.C.:...7.J.g.g.:.:.8.8.8.8.8.8.8.8.8.8.8.8.8.8.8.8.8.8.8.8.8.8.8.8.8.8.8.:.).7.[.Q.T s.E.G.s.F.      ",
"        S.E.T ] u B.O.O.u.T.).:.8.C.g.:.8.8.8.8.8.8.8.8.8.8.8.8.8.8.8.8.8.8.8.8.8.8.8.8.8.8.8.8.8.8.:.).7.p.u T i.Y s.l.w.l.    ",
"          }.l.E.u o.p.U.q.v.f.g.8.8.:.8.8.8.8.8.8.8.8.8.8.8.8.8.8.8.8.8.8.8.8.8.8.8.8.8.8.8.8.8.8.8.:.7.q.p.Q.V.r.T W.l.h.I.    ",
"          z.X.h.z.u u.q.N.v.f.).:.8.8.8.8.8.8.8.8.8.8.8.8.8.8.8.8.8.8.8.8.8.8.8.8.8.8.8.8.8.8.8.8.g.7.q.u.D.O.B.u ^.i.V.        ",
"          y.h.z.^.<.u p.N.7.C.g.8.8.8.8.8.8.8.8.8.8.8.8.8.8.8.8.8.8.8.8.8.8.8.8.8.8.8.8.8.8.8.8.g.f.v.T.f.K./.}.G.E.y.          ",
"            L.s.T u B.e.t.7.9.).).:.8.8.8.8.8.8.8.8.8.8.8.8.8.8.8.8.8.8.8.8.8.8.8.8.8.8.8.8.8.8.:.:.g.2.V.n.T ^.I.I.s.}.        ",
"              V.Q.u p.q.v.f.{.2.9.g.8.8.8.8.8.8.8.8.8.8.8.8.8.8.8.8.8.8.8.8.8.8.8.8.8.8.8.8.8.:.g.b.2.d.r.Q.E.s.W.I.I.E.        ",
"                4.V.u.O.t.2.[ 2.f.).:.8.8.8.8.8.8.8.8.8.8.8.8.8.8.8.8.8.8.8.8.8.8.8.8.8.8.8.8.g.C.7.[.u.6.k.Y.E.Y.              ",
"                /.<.Q.6.c.D.O.t.7.9.g.8.8.8.8.8.8.8.8.8.8.8.8.8.8.8.8.8.8.8.8.8.8.8.8.8.8.8.8.g.C.7.[.O.4.V.E.w.z.              ",
"                A.<.] V.V.D.e.N.v.f.8.8.8.8.8.8.8.8.8.8.8.8.8.8.8.8.8.8.8.8.8.8.8.8.8.:.8.8.8.8.g.7.R.[.D.n.<.W.s.              ",
"                A.T <.V.u p.U.e.T.:.8.8.8.8.8.8.8.8.8.8.8.8.8.8.8.8.8.8.8.8.8.8.8.8.8.:.C.).8.8.8.g.d.o.o.u ^.}.Y.              ",
"                z.I./.Q.r.B.p.O.9.g.8.8.:.:.8.8.8.8.8.8.8.8.8.8.8.8.8.8.8.8.8.8.8.8.:.g.C.v.C.8.8.g.7.u u Q.T s.a.              ",
"                  G.i.Q.r.o.o.N.7.).:.J.J.:.8.8.8.8.8.8.8.8.8.8.8.8.8.8.8.8.8.8.8.8.:.).9.7.q.:.:.:.7.T.Y <.T s.I.a.            ",
"                  k.^.Q.u u V.n.T.J.f.v.C.g.:.8.8.8.8.8.8.8.8.8.8.8.8.8.8.8.8.:.:.:.g.C.f.7.O.R.C.g.9.v.[.i.s.I.h.h.            ",
"                a.s.M.] ] u s.^.u 7.e.v.9.).g.8.).f.).:.8.8.8.8.8.8.8.8.8.8.:.9.u.Z.2.7.7.v.q.u.v.7.).7./.u ] s.w.w.            ",
"              Y.`.I.z.^.}.s.I.^.u d.e.v.7.f.C.O.p.O.t.9.J.:.8.8.8.:.g.g.g.:.g.T./.E.z.4.N.N.q.o.[ q.K.@.>  +.++ ++              ",
"            L.X.w.l.l.E.] [ a./.Z.o.e.q.N.R.B.u u u o.q.v.C.8.:.g.).C.C.C.).f.@+}.z.I.`.u.e.U.B.Y u.4.<. +. .+; #+              ",
"              E.s.E.$+%+n.L U +.Q.o.U.U.O.Q.] ] n.Q.Q.u B.T.g.C.9.f.7.7.f.f.T./.i.s.&+w.F.U.B.o.Y z.Z.[ . q .+#+                ",
"                    q q Q M L Z.T u u D.s.^.<.<.<.Q.] T ^.c.9.7.v.t.t.t.v.v.O.}.z.I.w.w.l.V.u u ] s.`.S.n.*+u                   ",
"                  .+ +# x Q M }.^.<.Q.G.h.I.T T T Q.<.s.i.9.7.v.q.e.e.e.N.q.B.T s.`.=+w.h.W./.T M.s.l.w.Z.]  +                  ",
"                %+; j > # x =.z.s.^.L.h.l.H.T T T <.^.s.j.R.v.q.U.U.U.U.e.O.u ^.H.h.=+w.h.W.h.}.s.H.h.X.Y . 5 ;                 ",
"                1 -++ . > 6.[ I.l.E.k.h.l.I.^.^.s.l.H.Z.4.K.[.p.p.U.p.p.p.O.r.n.^.h.x.X.w.w.w.w.k.E.s.G.> q 5 { %+              ",
"                #+1 + ;+n.Y # G.h.}.T L.h.h.h.>+,+=+}./.Z.D.d.B.B.B.B.B.B.B.D.D.6.V.G.h.w.w.w.s./.# # n.] q - -+                ",
"                        j D T /.4.I.s.s.V.h.,+>+x.k.Q.Y k.6.o.o.o.o.o.o.o.n.H.H.z.D.O.D.a.Y.Y.W j.T > . ;+                      ",
"                        + %+ +{.Y.h.l.E.z.}.I.s.V.E.T T i.Z.r.o.o.r.'+m.x.x.,+w.H.u.o.r.  ,.K L %.n.. j  +                      ",
"                        5 j s   z.X.I.y.l.H.}.H.z.I.^.^.i.Z.Q.o.<.|.)+!+!+=+=+l./.r.u V.  %.=.` %.  q *+;+                      ",
"                        #+*+    4.}.a.I.z.w.z.)+F.l.s.s.}.y.k.H.)+>+>+!+)+=+I.y.n.# u V.  *.` =.    %+5 '+                      ",
"                           +      =.=.~+G.z.|.{+s.w.h.s.G.S.  {+)+)+,+)+=+E./.G.Y n.Q.V.  ,.M %.    s .+                        ",
"                                    %.    F.z.  E.X.I.E.I.      E.s.=+x.S.  k.I.<.Y Q./.    +.                                  ",
"                                                    s.w.z.                    w.G.T M.k.                                        ",
"                                                    I.l.                      E.I.^.s.}.                                        ",
"                                                                                    G.E.                                        ",
"                                                                                                                                ",
"                                                                                                                                ",
"                                                                                                                                ",
"                                                                                                                                ",
"                                                                                                                                ",
"                                                                                                                                ",
"                                                                                                                                ",
"                                                                                                                                ",
"                                                                                                                                ",
"                                                                                                                                "};
