/* XPM */
static char *ffd5fe9e7b9044a7a6634ce95440ff1c[] = {
/* columns rows colors chars-per-pixel */
"64 64 137 2 ",
"   c None",
".  c #030202",
"X  c #080706",
"o  c #0A0807",
"O  c #0D0B09",
"+  c #110E0C",
"@  c #14110E",
"#  c #18120F",
"$  c #161210",
"%  c #1A1513",
"&  c #1E1916",
"*  c #1F1B18",
"=  c #201A17",
"-  c #241D1A",
";  c #27201C",
":  c #2A221E",
">  c #2E2521",
",  c #302723",
"<  c #332925",
"1  c #362C28",
"2  c #392E2A",
"3  c #3D322D",
"4  c #3F3430",
"5  c #40342F",
"6  c #423631",
"7  c #463934",
"8  c #483C36",
"9  c #4B3E39",
"0  c #4E413B",
"q  c #4D403B",
"w  c #4E413C",
"e  c #4F413C",
"r  c #4E423C",
"t  c #4F423C",
"y  c #4F423D",
"u  c #50423C",
"i  c #50423D",
"p  c #51423D",
"a  c #50433D",
"s  c #51433D",
"d  c #51423E",
"f  c #50433E",
"g  c #51423F",
"h  c #51433F",
"j  c #52433E",
"k  c #51443E",
"l  c #52443E",
"z  c #52443F",
"x  c #53443F",
"c  c #53453F",
"v  c #524340",
"b  c #534440",
"n  c #544540",
"m  c #544541",
"M  c #544640",
"N  c #544641",
"B  c #554641",
"V  c #554741",
"C  c #564741",
"Z  c #564742",
"A  c #574742",
"S  c #564643",
"D  c #574743",
"F  c #564842",
"G  c #574842",
"H  c #574843",
"J  c #574943",
"K  c #584843",
"L  c #584943",
"P  c #584A43",
"I  c #584844",
"U  c #594944",
"Y  c #594845",
"T  c #594945",
"R  c #594A44",
"E  c #594A45",
"W  c #594B45",
"Q  c #5A4A44",
"!  c #5A4A45",
"~  c #5B4A45",
"^  c #5A4B45",
"/  c #5A4B46",
"(  c #5B4B46",
")  c #5A4A47",
"_  c #5B4B47",
"`  c #5C4B47",
"'  c #5B4C46",
"]  c #5B4D46",
"[  c #5B4C47",
"{  c #5C4C46",
"}  c #5C4C47",
"|  c #5C4B48",
" . c #5D4C48",
".. c #5D4D48",
"X. c #5E4D48",
"o. c #5F4D49",
"O. c #5F4E49",
"+. c #5F4F49",
"@. c #5F4E4A",
"#. c #604E4A",
"$. c #604F4A",
"%. c #614F4A",
"&. c #604E4B",
"*. c #614F4B",
"=. c #614F4C",
"-. c #61504B",
";. c #62504B",
":. c #62514B",
">. c #61504C",
",. c #62514C",
"<. c #63514C",
"1. c #63514D",
"2. c #63524D",
"3. c #64524D",
"4. c #64524E",
"5. c #64534E",
"6. c #65534E",
"7. c #64524F",
"8. c #66544F",
"9. c #665450",
"0. c #675450",
"q. c #665550",
"w. c #675550",
"e. c #675551",
"r. c #685550",
"t. c #685651",
"y. c #685652",
"u. c #695652",
"i. c #695752",
"p. c #6A5753",
"a. c #6A5754",
"s. c #6B5854",
"d. c #6D5956",
"f. c #6F5B57",
"g. c #705C59",
"h. c #715D59",
"j. c #725D5A",
/* pixels */
"                                                . X X                                                                           ",
"                  . o + + o .       . o % > 3 g | $.=.$.Q 9 7 < > > : - - $ O .       . O $ - 3 8 g l e 6 > % @ + @ + .         ",
"        % 7 g S Q O.{ ` Q S g 8 4 3 6 7 g S Q Q O.$.:.1.3.9.r.d.h.h.h.d.a.3.O.Q S v g g l H Q Q Q [ [ [ Q Q L l e q q 6 $       ",
"    . > S $.:.3.8.r.3.1.1.:.$.$.O.Q S g q 9 9 g S Q O.$.1.3.9.r.r.s.r.r.8.1.1.O.O.[ Q Q L L H S l e q q e g l S l g g g 8 $     ",
"  . , l S L Q { O.:.:.:.:.$.$.O.O.O.{ Q L S g 9 8 8 9 e S { 1.9.r.r.r.r.r.9.9.9.3.O.L S g 9 7 6 6 6 6 6 6 6 6 6 7 9 q q q 3 .   ",
"  % g l S S S Q { O.$.O.{ Q Q L S S S H S S l g q 9 7 7 7 7 8 q g l S S S S l e 9 7 7 6 6 6 3 3 3 3 3 3 5 6 6 6 6 7 9 q q 9 $   ",
"  3 l l l S S S H S b q 8 7 7 6 6 3 6 6 7 8 9 9 9 7 7 7 6 6 6 6 6 6 6 6 6 6 6 4 3 3 3 3 3 3 3 3 3 3 3 3 5 5 6 6 6 6 7 9 9 9 :   ",
". 7 g g g 8 6 3 3 3 3 2 3 3 3 3 3 3 2 2 2 2 3 3 3 3 3 3 3 3 3 3 3 3 3 3 3 3 2 2 2 2 1 1 1 < < < 1 2 3 3 3 5 6 6 6 6 6 8 9 9 >   ",
"o 8 e q 7 3 3 3 3 3 2 2 2 3 3 3 3 3 2 2 2 2 2 2 2 2 2 2 2 2 2 2 2 2 2 1 1 < < < , , , , , , , , , , < 2 3 6 6 6 6 6 6 7 8 9 >   ",
"o 8 9 7 5 3 3 3 3 2 2 2 2 2 2 2 2 2 2 2 2 2 2 2 2 1 1 1 1 1 1 1 1 1 1 1 < < < < < < < , , , , , , , , , < 2 3 6 7 7 7 7 8 9 :   ",
"o 7 7 6 6 3 2 1 2 2 1 1 2 2 1 1 1 1 1 1 1 1 1 1 1 1 1 < < < , , < < < < 1 1 2 2 2 2 2 1 < , , , , > > , , , 1 3 6 6 6 7 8 9 -   ",
". 3 7 7 7 7 2 1 < 1 1 1 1 1 1 < < 1 , , , , , , , , , , , , , , , , < 1 2 2 2 3 3 3 3 2 2 2 < , , , > > > > , < 2 3 5 6 7 8 =   ",
"  3 7 8 8 7 3 < < < < 1 1 < < , , , , , > > > > > > > > , , , , , < < < 1 1 2 2 3 3 3 3 2 2 2 1 , , , > > > > , , 1 3 5 6 7 %   ",
"  3 7 8 8 7 2 < < < < , < < , , , , , , > > > > > > > > > , , , , , , , < 1 2 2 2 2 2 2 2 2 2 < , , , , > > > > , , < 3 3 5 %   ",
"  3 8 8 8 3 1 < , , , , , , < , , , > > > > > > > : : : : : > > > > , , , < < < < < 1 1 1 < < , , , > > > > > > , , < < 3 3 @   ",
"  3 8 8 7 1 < , , , > > , , , , > > > > > > > : > : ; - - - - - - - - : > > , , , , , > > > > : : : ; : : : > > , , 2 2 2 3 @   ",
"  3 8 8 3 < , , > > > > > > > > : : : : > > > > > > > : ; - - - - * * * * * * = - - - - - - - - - - - ; : : > > > , 1 3 3 3 $   ",
"  3 8 7 1 , , > > > > > : : : : : : : > > > , < 1 1 < , > > > - - = * % % % % % % * * * * = = = - - - - : : : > > , , 2 3 3 $   ",
"  3 7 5 , , , > > > : : : : : ; - - ; : > > , < 1 1 < < , , > : - - - * % % % % % % % * * * = = - - - - ; : : > > < < 1 3 3 $   ",
"  2 7 2 , , > : : : : : : - - - - - - - - - - : > > , , , > > - - - - * * % % % % % % % % * * = - - - - - ; : : > 3 3 1 2 2 $   ",
"  2 6 < > > > : : : : - - - - - - - - - * * * * * * * = = * * * % % % % % % % % % % % % % % * * * - - - - - ; : < 3 3 2 2 2 @   ",
"  < 3 , > > > : : : - - - - - - = * * * * % % % % % % % % % % % % $ $ $ $ $ $ $ $ % % % % % % * * * = - - - - : 1 3 5 3 2 2 $   ",
"  , 1 , , > : : : ; - - - - - = * * % % % % % % % % % % $ $ $ $ $ $ $ $ $ $ $ $ $ $ $ % % % % % % * * = - - - : 1 3 3 3 2 2 %   ",
"  , < , , > : : : > : : ; - - = * % % % % % % % $ $ $ $ $ $ $ $ @ @ @ @ @ @ @ @ @ $ $ $ $ % % % % % * * = - - : 1 3 3 3 3 2 %   ",
"  > , , > : : > > > > : : : - - - * % % % $ $ $ $ $ $ $ @ @ @ @ @ @ @ @ @ @ @ @ @ @ @ @ $ $ $ % % % % * * - - : , 2 2 3 2 2 %   ",
"  : , , > : : > > : : : ; - - - - - * % $ $ $ @ @ @ @ @ @ @ @ @ + + + + + + + + + + + @ @ @ $ $ % % % % * = - - > < 2 2 2 2 %   ",
"  : , , : - - : : : : : ; - - - = * % % $ @ @ @ @ @ + + + + + + + + O O O O O O + + + + @ @ @ $ $ % % % * * = - : , 1 2 2 2 %   ",
"  : > , : - - - - : : - - - = * % % % $ $ @ @ @ + + + + + + O O O O O O O O O O O O + + + @ @ @ $ $ % % % * = - - > , 1 1 1 %   ",
"  : > , : - - - = = - - = * % % $ $ $ $ @ @ @ + + + + + O O O O O O O O O O O O O O O + + + @ @ $ $ $ % % % * = - - , < < < $   ",
". : > > : - - = * * % % % % % $ $ @ @ @ + + + + + + O O O O O O O O O O O O O O O O O O + + + @ @ @ $ % % % * * = - : , , , @   ",
". : > : - - = * * % % % % % $ $ @ @ @ @ + + + O O O O O O O O O O O O O O O O O O O O O O O + + @ @ @ $ % % % * = - - > , , +   ",
". : : : - = * % % % % % % $ $ @ @ @ + + + + O O O O O O O O O O o o o o o o o o o O O O O O O + + @ @ $ % % % % * = - : > > o   ",
". > : - - = * % % % % $ $ $ $ @ + + + + + O O O O O o o o o o o o o o o o o o o o o o o O O O O + + @ $ $ $ % % % * - - : : o   ",
". > > - * % % % % % $ $ $ $ @ @ + + + + O O O O O o o o o o o o o X o o o o X X o o o o o O O O + + @ @ $ $ % % % % * - - : O   ",
". > , - * % % % $ $ $ @ @ @ + + + + O O O O O o o o o o o o X X o o o o o X X X X X o o o o O O O + + + @ $ $ $ % % % - - - +   ",
"  > , : = % % $ $ $ $ @ @ + + + O O O O O O O o o o o o o o X X X X X X X X X X X X X o o o O O O O + + @ @ $ $ % % % * - - +   ",
"  : , > = % # @ @ @ + + + + + O O O O o o o o o o o X X X X X X X X X X X X X X X X X X o o o o O O O + + + @ @ $ % % % - : @   ",
"  : , , - % @ @ @ @ + + + + O O O O o o o o o o o o X X X X X X X X X X X X . . X o o O O O O o o O O O + + @ @ $ $ % % - : @   ",
"  : , , - $ + + + @ + + + O O O O O o o o X X X X X X X X X . . . . . . X X . X O O O O + + + O o O O O + + + @ @ @ $ $ - > @   ",
"  : , , : $ + + + + O O O O O O O o o o o X X X X X X X . . . . . . . . . . . . X o o O O O o o o o O O O O + + + + @ @ : > @   ",
"  - , , > $ O O + O O O O O o o o o o o X X X X X X X X . . . . . . . . . . . . . . . X X X X X X o o o o O O + + + @ @ - > @   ",
"  = , , : + O O O O O O O o o o o o o X X X X X X X X X . . . . . . . . . . . . . . . X X X X X o o o o o O O + + + + @ = > @   ",
"  * , > * O o o O O O O o o o o o X X X X . . . . . . . . . . . . . . X o o X X X X . . . . . X X X o o o O O O O O + + $ : +   ",
"  % , : + o o o O O o o o o o o X X X X X . . . . . . . . . . . . X o o o o X X o o o o X X . X X X o o o o O O O O O + + * O   ",
"  % > % o o o o o o o o o o o X X X X . . . . . . . . . . X o X X X X X X X X X o o o o o o X X . X X o o o o O O O O O + + X   ",
"  % * O o o o o o o o X o o X X X X . . . . . . . . . . . . X X o o o o X X X X o o o o X X X . . X X o o o o o o O O O + + .   ",
"  o O o o o o o o o X X X X X X X . . . . . . . . . . . . . . . . X X X X X X X X X . . . . . . . X X X X o o o o o o O O O .   ",
"  . O o o o o o X X X X X X X . . . . . . . . . . . . . . . . . . . . . . . . . . . . . . . . . . . . X X X o o o o o o O O .   ",
"  . o o o o o X o X X X X X X . . . . . . . . . . . . . . . . . . . . . . . . . . . . . . . . . . . . X X X X o X o o o o o .   ",
"  . o o o o X X X X X X . . X . . . . . . . . . . . . . . . . . . . . . . . . . . . . . . . . . . . . . X X X X X X X o o o .   ",
"  . o o X X X X X X X . . X . . . . . . . . . . . . . . . . . . . . . . . . . . . . . . . . . . . . . . . X X X X X o o o o .   ",
"  . X X X X X X X X X . . . . . . . . . . . . . . . . . . . . . . . . . . . . . . . . . . . . . . . . . . . . X X X X X X X     ",
"    . X X X X X . . . . . . . . . . . . . . . . . . . . . . . . . . . . . . . . . . . . . . . . . . . . . . . . X X X X X .     ",
"    . X . . . . . . . . . . . . . . . . . . . . . . . . . . . . . . . . . . . . . . . . . . . . . . . . . . . . . X X X X .     ",
"    . . . . . . . . . . . . . . . . . . . . . . . . . . . . . . . . . . . . . . . . . . . . . . . . . . . . . . . . . . . .     ",
"    . . . . . . . . . . . . . . . . . . . . . . . . . . . . . . . . . . . . . . . . . . . . . . . . . . . . . . . . . . . .     ",
"      . . . . . . . . . . . . . . . . . . . . . . . . . . . . . . . . . . . . . . . . . . . . . . . . . . . . . . . . . . .     ",
"        . . . . . . . . . . . . . . . . . . . . . . . . . . . . . . . . . . . . . . . . . . . .     . . . . . . . . . . .       ",
"          . . . . . . . . . . . . . . . . . . . . . . . . . . . . . . . . . .   . . . . . .             . . . . . . . .         ",
"                        . . . . . . . . . . . . . . . . . . . . . . . . .                                   . . . .             ",
"                                          . . . . . . . . . . . . . .                                                           ",
"                                              . . . . . . . . .                                                                 ",
"                                                                                                                                ",
"                                                                                                                                "
};
