/* XPM */
static char * be_xpm[] = {
"64 64 207 2",
"  	c #444945",
". 	c #35532C",
"+ 	c #395E34",
"@ 	c #5C8451",
"# 	c #7AAE6D",
"$ 	c #649358",
"% 	c #43743C",
"& 	c #658D59",
"* 	c #64A25C",
"= 	c #649D59",
"- 	c #94CC84",
"; 	c #9BD58A",
"> 	c #527648",
", 	c #446C3C",
"' 	c #90C87F",
") 	c #88C479",
"! 	c #7BB86F",
"~ 	c #53844A",
"{ 	c #3C6C33",
"] 	c #4E8449",
"^ 	c #8EC67E",
"/ 	c #7FB370",
"( 	c #A8E797",
"_ 	c #A1DD90",
": 	c #4A7A43",
"< 	c #5B9A54",
"[ 	c #97D087",
"} 	c #77B16A",
"| 	c #6CA963",
"1 	c #406137",
"2 	c #84B975",
"3 	c #9EDA8E",
"4 	c #4B8543",
"5 	c #4C8946",
"6 	c #4C7343",
"7 	c #447C41",
"8 	c #548C4B",
"9 	c #437B3B",
"0 	c #6AA45F",
"a 	c #639A57",
"b 	c #3A6336",
"c 	c #85BC75",
"d 	c #4D8B49",
"e 	c #2C4B25",
"f 	c #537C4A",
"g 	c #628D56",
"h 	c #6A9A5D",
"i 	c #58824E",
"j 	c #69965C",
"k 	c #84BB75",
"l 	c #8BC27C",
"m 	c #48833F",
"n 	c #395E2F",
"o 	c #6CA561",
"p 	c #7AB46D",
"q 	c #376934",
"r 	c #52924D",
"s 	c #5E8C52",
"t 	c #74AE69",
"u 	c #72AB66",
"v 	c #6E9962",
"w 	c #3E7433",
"x 	c #3C722E",
"y 	c #528847",
"z 	c #407534",
"A 	c #335B2C",
"B 	c #5F9E59",
"C 	c #325D24",
"D 	c #2D5523",
"E 	c #71A465",
"F 	c #7FB971",
"G 	c #35632A",
"H 	c #386729",
"I 	c #346325",
"J 	c #142306",
"K 	c #45803E",
"L 	c #2E5A1C",
"M 	c #2D531B",
"N 	c #396B2D",
"O 	c #2F5924",
"P 	c #264A14",
"Q 	c #234313",
"R 	c #5C9454",
"S 	c #37682A",
"T 	c #65A460",
"U 	c #305D1F",
"V 	c #254B0F",
"W 	c #2A5116",
"X 	c #1E3B0B",
"Y 	c #23430D",
"Z 	c #162A06",
"` 	c #559652",
" .	c #1C340B",
"..	c #1C3412",
"+.	c #193206",
"@.	c #26491B",
"#.	c #578C50",
"$.	c #1D3A07",
"%.	c #233D13",
"&.	c #244319",
"*.	c #233B0C",
"=.	c #2A4C15",
"-.	c #2C562B",
";.	c #468242",
">.	c #0F1B05",
",.	c #121B06",
"'.	c #3D733D",
").	c #325423",
"!.	c #1E3B13",
"~.	c #162B0B",
"{.	c #294414",
"].	c #2C4D1A",
"^.	c #192A07",
"/.	c #182707",
"(.	c #0D1205",
"_.	c #30561F",
":.	c #539959",
"<.	c #4A8D51",
"[.	c #22330C",
"}.	c #1C2B0A",
"|.	c #070903",
"1.	c #0A0D04",
"2.	c #3A6A3C",
"3.	c #41824B",
"4.	c #152309",
"5.	c #151A09",
"6.	c #010100",
"7.	c #2B3B14",
"8.	c #356236",
"9.	c #417D4A",
"0.	c #1B230B",
"a.	c #2C4C29",
"b.	c #244827",
"c.	c #111507",
"d.	c #222A0E",
"e.	c #244424",
"f.	c #3B7344",
"g.	c #2B3414",
"h.	c #418A56",
"i.	c #49955E",
"j.	c #3C7C4C",
"k.	c #334522",
"l.	c #32421E",
"m.	c #2C431C",
"n.	c #428E59",
"o.	c #2B5532",
"p.	c #346D43",
"q.	c #34693F",
"r.	c #33633B",
"s.	c #355B32",
"t.	c #243519",
"u.	c #2C3C1C",
"v.	c #254B2B",
"w.	c #3E814F",
"x.	c #2B4323",
"y.	c #243215",
"z.	c #111408",
"A.	c #43925C",
"B.	c #396439",
"C.	c #20270D",
"D.	c #191E0A",
"E.	c #1D3E23",
"F.	c #2D623C",
"G.	c #2D5A35",
"H.	c #397649",
"I.	c #408653",
"J.	c #282F11",
"K.	c #3E8352",
"L.	c #344A25",
"M.	c #293619",
"N.	c #243B1C",
"O.	c #2D5E38",
"P.	c #344E28",
"Q.	c #252D11",
"R.	c #313D1B",
"S.	c #1D2B13",
"T.	c #367146",
"U.	c #3F8A56",
"V.	c #397949",
"W.	c #3F8D58",
"X.	c #265936",
"Y.	c #253F21",
"Z.	c #3A6E42",
"`.	c #479760",
" +	c #3D7F50",
".+	c #0E1A09",
"++	c #365731",
"@+	c #618656",
"#+	c #406238",
"$+	c #457343",
"%+	c #2E532D",
"&+	c #499661",
"*+	c #4B9B64",
"=+	c #519E67",
"-+	c #54A16A",
";+	c #303817",
">+	c #5EA86F",
",+	c #64AB72",
"'+	c #5BA66E",
")+	c #719C65",
"!+	c #5A7F51",
"~+	c #0F2009",
"{+	c #539F68",
"]+	c #265131",
"^+	c #4C6D42",
"/+	c #1F381E",
"(+	c #1E4126",
"                                                                                                                                ",
"                                                                                                                                ",
"                                                . +             @ # $                             %                             ",
"                          &                   . * = + - ; >   , ' ) ! ~                         { * ]                         ^ ",
"                        / ( _ >               : < < % - ( [   $ } | | =                   1 2 3 ^ 4 5             ~ :       / ( ",
"                      6 [ ; 3 2               7 8 5 9 ^ ; ; @ $ 0 = < a                 b c - - - 9 d e / f     { < < %     ^ ; ",
"            g h i     j k l ^ c     c 3 l     9 m 9 9 @ j g 6 ~ = 8 5 8 n             e o } p c $ 9 m g ; - 1   q r d 5     c ) ",
"          / - ' ^ k $ s t t } u 6 , # ^ - v   { w x w { [ - # , y 9 z z A     s c @   ~ B < * 0 C w z h ^ l j   A m 9 9 D   h 0 ",
"          f / p p t } ] * < < g ^ c E s F o   G H I I { c c c u n H I I I J   p ^ l { 5 K 4 7 s , I L o p p =   M w N N O , # t ",
"              o | B < % r 4 m % F t o * ~ |   M L L L L $ u | 0 8 e M P P Q   o / p R I S w % c F n D | | T R   Q C L U A p F c ",
"              . * r 4 G K w N N 8 | 0 B 8 ] A h s Q V W C * < 8 8 b Q X X Y Z R 0 * < Q L I : } t R 7 < ` r , R o , V V 8 | | t ",
"      X Q Q Q  ., r 9 G G S U U M B < r 5 N { o o ~ X Y V 7 4 z w z ..+.+.+.+.5 r d r @.V L ] 0 * R % K 9 q * T | #.$. .< < < * ",
"    P C U L L W Q d 9 S Q C W P Y 7 d K z w O : T * %.$.Y D w I C I &.J Z J J 9 9 w 9 @.*.Y ` < ` r C N D r r ` < A +.Q d 4 5 ` ",
"    P M L W P V Y G K I =.P P Y *.-.;.{ G I @.O ] ` A $.$. .I L P =.Q >.J ,.J N I I N Q +.A d 5 5 ;.=.P 9 9 9 5 % J Z @.9 w w 4 ",
"        Q =.P Y *.+.'.G M  .Y $.$.%.w I L L %.M @.7 q +.+.Z M P *.Y P J ,.>. .).M W C !.~.9 9 '.9 { Q D { N { 9 !.,.J &.{ C G '.",
"          ~.{.*.*.~.-.O ].Q  . .^./.N M ].].%.*.=.&.G /.Z /.*.*. . .*.Z >.(.X {.*.Y M ~.A N G G N D  .G _.).G A (.>.>...D M M G ",
"            Z {.*.-.:.<.&.{.J /./.>.C ].{.{.Q ^.[.%...,.J J /.}./.^.~./.|.|.[.[.$.*.=.%.C _.M ).C }.&.{.Q =.).!.1.1.>.J M =.{.M ",
"              /.*.2.3.<.2.*.J ,.>.(.].{.*.*.{././. ./.,.,.,.,.4.5.,.5./.6.1.}././. .}.D ].{.].].%.,.=.*.*.7.].(.|.|.(.(.{.7.*.7.",
"                J 8.9.3.7 e ,.(.1.|.%.7.}.}.[.}.,.4.0.1.(.(.(.,.>.>.>.,.6.>.5.,.4.4.%.{.*.7.{.{.>./.7.[.[.*.7.6.6.6.|.6.[.*.[.[.",
"              a.a.b.3.'.2.q ..6.6.6.}.7.0.4.5.0.>.>.,.|.|.1.|.(.1.1.|.1.6.(.>.>.c.4.7.d.}.[.7.0.1.}.}.0.0.d.0.6.6.6.6.6.0.[.}.}.",
"        e.f.3.9.'.e '.2.n A ).0.6.6.,.7.0.,.(.1.1.6.1.6.6.6.6.|.6.6.6.6.6.1.1.1.1.g.[.0.0.d.7.6.6.0.5.5.5.0.>.6.6.6.6.6.5.}.0.0.",
"        h.i.h.j.2.A a.q . k.l.m.0.6.6.g.0.(.1.6.6.6.6.6.6.6.6.6.6.6.6.6.6.6.6.6.(.g.0.,.5.0.}.6.6.,.(.(.(.,.6.6.6.6.6.6.c.5.5.5.",
"        i.i.n.3.'.+ m.A ).l.7.g.g.0.6.0.0.1.6.6.6.6.6.6.6.6.6.6.6.6.6.6.6.6.6.6.5.0.>.(.(.,.c.6.6.1.|.|.1.1.6.6.6.6.6.6.(.(.(.c.",
"        o.p.q.r.s.A . t.. u.g.d.d.}.,.|.5.1.6.6.6.6.6.6.6.6.6.6.6.6.6.6.6.6.6.6.(.(.|.|.|.1.1.6.6.6.6.6.6.6.6.6.6.6.6.6.|.|.1.1.",
"                v.w.r.x.y.l.g.d.0.5.z.1.6.6.6.6.6.6.6.6.6.6.6.6.6.6.6.6.6.6.6.6.|.6.6.6.6.6.6.6.6.6.6.6.6.6.6.6.6.6.6.6.6.6.6.6.",
"                b.A.h.j.B.t.g.C.D.z.1.6.6.6.6.6.6.6.6.6.6.6.6.6.6.6.6.6.6.6.6.6.6.6.6.6.6.6.6.6.6.6.6.6.6.6.6.6.6.6.6.6.6.6.6.6.",
"          E.F.r.G.H.I.f.2.. J.d.5.(.|.6.6.6.6.6.6.6.6.6.6.6.6.6.6.6.6.6.6.6.6.6.6.6.6.6.6.6.6.6.6.6.6.6.6.6.6.6.6.6.6.6.6.6.6.6.",
"        G.n.n.I.j.G.H.f.B.. k.0.D.1.6.6.6.6.6.6.6.6.6.6.6.6.6.6.6.6.6.6.6.6.6.6.6.6.6.6.6.6.6.6.6.6.6.6.6.6.6.6.6.6.6.6.6.6.6.6.",
"        n.A.n.I.j.f.a.r.2.. k.g.0.1.6.6.6.6.6.6.6.6.6.6.6.6.6.6.6.6.6.6.6.6.6.6.6.6.6.6.6.6.6.6.6.6.6.6.6.6.6.6.6.6.6.6.6.6.6.6.",
"        F.j.K.h.w.f.+ x.e s.L.g.g.0.1.6.6.6.6.6.6.6.6.6.6.6.6.6.6.6.6.6.6.6.6.6.6.6.6.6.6.6.6.6.6.6.6.6.6.6.6.6.6.6.6.6.6.6.6.6.",
"  4.t.M.u.u.J.N.O.f.8.P.l.Q.u.k.u.J.0.(.6.6.6.6.6.6.6.6.6.6.6.6.6.6.6.6.6.6.6.6.6.6.6.6.6.6.6.6.6.6.6.6.6.6.6.6.6.6.6.6.6.6.6.6.",
"  u.k.u.R.R.g.d.e.q.p.q.s.a.y.5.Q.J.d.D.(.|.6.6.6.6.6.6.6.6.6.6.6.6.6.6.6.6.6.6.6.6.6.6.6.6.6.6.6.6.6.6.6.6.6.6.6.6.6.6.6.6.6.6.",
"  S.x.j.T.N.g.O.U.K.I.j.f.2.8.-.t.(.1.1.1.6.6.6.6.6.6.6.6.6.6.6.6.6.6.6.6.6.6.6.6.6.6.6.6.6.6.6.6.6.6.6.6.6.6.6.6.6.6.6.6.6.6.6.",
"    F.A.U.j.o.h.j.h.U.w.V.q.8.. e N.4.(.|.6.6.6.6.6.6.6.6.6.6.6.6.6.6.6.6.6.6.6.6.6.6.6.6.6.6.6.6.6.6.6.6.6.6.6.6.6.6.6.6.6.6.6.",
"    v.W.W.U.K.p.p.p.F.F.p.p.8.. x.u.y.0.,.(.|.6.6.6.6.6.6.6.6.6.6.6.6.6.6.6.6.6.6.6.6.6.6.6.6.6.6.6.6.6.6.6.6.6.6.6.6.6.6.6.6.6.",
"      F.U.W.W.A.A.A.p.A.K.F.o.a.x.M.y.}.5.(.1.6.6.6.6.6.6.6.6.6.6.6.6.6.6.6.6.6.6.6.6.6.6.6.6.6.6.6.6.6.6.6.6.6.6.6.6.6.6.6.6.6.",
"        X.K.W.A.A.A.p.A.n.O.s.Y.N.t.y.}.5.(.6.6.6.6.6.6.6.6.6.6.6.6.6.6.6.6.6.6.6.6.6.6.6.6.6.6.6.6.6.6.6.6.6.6.6.6.6.6.6.6.6.6.",
"            O.j.W.A.p.A.p.Z.8.L.M.S.S.0.(.6.6.6.6.6.|.6.6.6.6.6.6.6.6.6.6.6.6.6.6.6.6.6.6.6.6.6.6.6.6.6.6.6.6.6.6.6.6.6.6.6.6.6.",
"                    b.T.r.f.s.P.L.k.m.1.6.6.6.6.|.5.1.6.6.6.6.6.6.6.6.6.6.6.6.6.6.6.6.6.6.6.6.6.6.6.6.6.6.6.6.6.6.6.6.6.6.|.6.6.",
"                      o.j.B.+ . . . 0.c.6.6.6.1.d.D.(.|.6.6.6.6.6.6.6.6.6.6.6.6.6.6.6.6.6.6.6.6.6.6.6.6.6.6.6.6.|.|.1.1.1.1.1.1.",
"                    O.K.f.2.8.+ + S.0.1.6.6.6.g.d.D.z.1.6.6.6.6.6.6.6.6.6.6.6.6.6.6.6.6.6.6.6.6.6.6.6.6.6.6.|.1.1.(.z.z.z.5.0.z.",
"                  p.n.K.j.f.f.B.y.d.D.|.1.1.}.g.}.D.5.(.1.6.6.6.6.6.6.6.6.6.6.6.6.6.6.6.6.6.6.6.6.6.6.6.6.6.6.(.z.5.D.D.0.J.g.J.",
"                v.`.A.h.I.j.G.N.d.C.5.(.D.5.u.g.C.0.D.5.(.|.c.c.1.6.6.6.6.6.6.6.6.6.6.6.6.6.6.6.6.6.6.6.6.6.6.z.D.0.d.M.k.L.L.k.",
"                  h.n. +Z.+ A 2.b.S..+0.J.y.k.J.d.C.C.D.e.++a.y.c.|.6.6.6.6.6.6.6.6.6.6.6.6.6.6.6.6.6.6.6.6.6.c.J.m.. . + + s.s.",
"                    S.@+g #+6 % 2.B.S.g.J.. R.g.J.g.d.r.j.Z.s.x.0.1.|.1.1.1.1.6.6.6.6.6.6.6.6.6.6.6.6.6.6.|.1.c.. + 2.Z.Z.2.2.K.",
"                    + v & b : : $++ x.M.s.. l.M.g.g.r.n.K.V.r.%+Q.5.(.c.z.z.z.(.1.1.6.6.6.6.6.6.6.6.|.|.1.1.z.0.a.f.j.j.f.j.A.A.",
"                      @ & , f f ,  .Y.q.2.. k.l.k.e A.A.U.j.q.r.Y.C.5.5.D.D.D.D.5.z.1.|.6.6.6.6.6.|.c.c.z.z.5.d.x.I.h.h.n.`.`.A.",
"                          1 g i &.e.j.j.2.s.. . u.H.A.i.n.K.V.p.a.M.C.0.C.d.d.d.}.0.5.z.1.1.1.1.1.1.0.0.D.D.0.d.g.i.&+&+&+*+*+A.",
"                          e 6 . v.n.h.j.2.8.+ . r.n.A.A.&+U.j.f.+ u.J.d.J.g.g.g.J.d.C.0.5.(.D.z.z.5.J.C.d.d.d.g.u.K.&+*+*+=+-+-+",
"                        f g 6 + j.A.n.w.f.f.8.r.K.U.A.A.&+n.K.f.B.k.g.g.g.;+;+;+M.g.d.d.}.5.d.D.D.0.g.0.g.g.g.g.k.T.&+&+&+=+>+,+",
"                      @ v g f 2. +`.A.h.K.B.V.A.K.n.A.`.&+i.h.3.B.P.R.g.R.R.R.R.R.R.g.g.g.0.g.d.}.d.R.y.M.R.g.R.P.o.&+&+*+=+'+>+",
"                      )+)+& i : + H.j.p.b.I.A.A.A.A.A.`.i.n.j.B.. L.u.l.l.l.l.R.l.l.R.M.g.d.R.J.d.g.u.L.u.P.k.k.s.%+q.j.&+*+-+-+",
"                      !+E & @ 6 A + A A s.G.A.A.A.A.A.A.H.%+e x.x.x.k.k.k.k.k.k.k.k.k.k.;+J.R.M.g.l.M.s.e s.. . B.r.I.h.T.Z.p.H.",
"                        e ++  N.i $+2.2.s.~.v.j.j.p.o.e Q.k.s.Z.f.Z.. L.L.L.L.L.L.L.L.L.u.u.l.R.l.. x.+ %+B.8.B.f.r.A.A.n.v.g.Q.",
"                              . @ f 6 , ~+!. .+. .4.N.. k.t.j.A.&+*+h.9.2.. P.P.P.P.P.P.u.P.L.L.. . s.2.s.r.f.f.j.q.A.A.p.J.R.u.",
"                              x.& @ f .   !.X  . .    s.P.L.a.n.i.&+*+{+'+{+$+s.. P.P.. x.. . . 8.%+h.H.+ Z.j.K.f.H.n.U.t.R.k.P.",
"                                & @ f      .%.!. .    s.. . . o.h.&+&+*+,+'+'+'+i.B.. f.a.B.8.B.f.G.*+*+h.H.h.n.r.n.U.v.P.L.P.s.",
"                                6 j 6     J Q !. .    s.. s.+ s.r.H.&+&+-+-+-+-+-+*+I.]+a.f.f.H.f.  F.*+=+H.A.K.H.H.    s.s.s.B.",
"                                  ^+.        .Q  .    . s.+ 8.r.w./+G.A.*+=+*+=+=+*+o.  e j.j.K.p.    ]+&+I.p.V.]+      b.Z.2.Z.",
"                                              J J     s.+ 8.2.p.h.    (+h.*+*+ +p.]+      j.I.h.p.        I.j.b.          r.j.j.",
"                                                      r.2.2.f.j.U.                        p.n.A.H.                          p.h.",
"                                                      Z.f.f.p.A.p.                          h.A.K.                            r.",
"                                                      j.j.q.F.p.                            /+T.O.                              ",
"                                                      p.G.                                                                      "};
