/* XPM */
static char * Be_xpm[] = {
"64 64 50 1",
" 	c #444945",
".	c #020202",
"+	c #110E0D",
"@	c #1E1916",
"#	c #241D1A",
"$	c #1B1613",
"%	c #14110E",
"&	c #080706",
"*	c #3C312D",
"=	c #463934",
"-	c #4C3F39",
";	c #53453F",
">	c #544540",
",	c #50423C",
"'	c #4F413C",
")	c #4B3D38",
"!	c #362C28",
"~	c #161210",
"{	c #0D0B09",
"]	c #302723",
"^	c #493C36",
"/	c #584844",
"(	c #423631",
"_	c #4E413B",
":	c #534440",
"<	c #584843",
"[	c #3F3430",
"}	c #524340",
"|	c #574844",
"1	c #5C4B47",
"2	c #5F4E49",
"3	c #63524D",
"4	c #65534E",
"5	c #685451",
"6	c #675450",
"7	c #574843",
"8	c #5B4C47",
"9	c #5C4C47",
"0	c #604F4A",
"a	c #66544F",
"b	c #2A221E",
"c	c #61504B",
"d	c #40342F",
"e	c #665450",
"f	c #201A17",
"g	c #392E2A",
"h	c #2E2521",
"i	c #27201C",
"j	c #0A0807",
"k	c #18120F",
"                                                                ",
"                       .....                                    ",
"                  ....+@###$%&...                         .....&",
"        ....&&&&&&+#*=-;>>>;,')!~..................&&{++~$#]^>//",
"      ..+](=(****(=)-_',;:>>>>>><<')=([[*[[((==-}|12344556644433",
"     ..#^_--^^^=====^)_',;:>>>>>>7<///889222000333344a6664444330",
"    ..b_,_--)^^===(((=)_',;>>>>>>77///9882922000cc334444444443c0",
"    .$-,___--^^===(((((^-',:>>>>>7<///9222222000c333444aa4443300",
"   ..(____-_-)^^==((((d(=)',:>>>>7<//92220c33444444444e664443300",
"   .f-_-----))-^^==(((d*((=)';;>>>|///9220c3334444444433ccc022//",
"   .!_----------)^^=((d**[((=)',;>>7////922222000229/7;,,_-',;:>",
"   .=----)))--)))))^=((d******(=^-',:>>>///////>>,')==(((((((^-,",
"   .^----)^^^^^^^^^^^^=(***********((===)^))))===(((((((((((((==",
"   &----)^^^^^^^^^^=====(d****gggggggggggg*********[(********[**",
"   {---)^^^^^^^^^^^=====(d****gggggggg!!!!!!!!!!ggg*************",
"   &--)^^^^^^^^^^^====(((***g!!!gg!!!!!!!!!!]!!!!!!!!gggggggg***",
"   .--^^======^=====((***g!!]]]]!!!!!!!!!!!!!!!!!!!!!!!!!!!!gg!g",
"   .))^==========((**g!]]]]]]]]]]]]]!!!!!]!!!!!!!!!]!!!!!!!!!!!!",
"   .^)^======(((**g!]]]]hhhhh]h]]]]]!!!!!gggg!!!!!]]!!!!!!!!!!!!",
"   .())===(((d(**g]]]]]]hhh]]]]]]]]!!!!!ggg**gggg!!!!]!]]]]]]]]]",
"   .*-^=(((dd**g!]]]]]]hhh]]]]]]]!!!!gggg*****ggggg!!]]]]]]]]]]]",
"   .*^=(((d***g!]]]hhhhhh]h]]]]!!ggg****g****ggggg!!!!!!]]]]]]]]",
"   .g^=(dd***!]]]]hhhhhhh]]]]!!ggggggg**g***gg!!!!!!!!!!!]]]]]]]",
"   .!=(d***g!]]]]hhhhhhhh]]]]!!!ggggg***g**gggg!!!!!!]]!!!!!]]]]",
"   .!(d***!!]]]]hhhhhhh]]]]]]]!!ggg*ggggggggggggg!!!]!]]]]]]]]]]",
"   .]***g!!]]]]hhhhhhhh]]]]]]]]!!gg*gggg!!!!!!!!!!!]]]]]]]]]hhhh",
"   .h***!!]]]]]]hhhhhhhhh]]]]]]]!!!!g!!!!!!!!!!!]]]]]]]]]hhhhbbb",
"   .h**g!!!!!]]hhhhhhbbbbbhhh]]]]]]]]!!!!!!]]]!!]]]]]hhhbb####ii",
"   .h*gggggg]]]hhhhbbbbb####ibbhhhhhhhh]]]]]]]]]]hhhb###########",
"   .]*****g!]]hhhhhbbbbbi##########################f@@##f#######",
"   .]*****!]]]hhhhbbbbbb##########fff@##@@$$$$$$$$@$@@@@@ff####i",
"   .]****g!]]]hhhhbbbbb#########f#ff@@@@@@$$$$$$$$$$$@@@@f##ibhh",
"   .]***g!]!]hhhhhbbbii########ff@@@@@@@$$$$$$$$$$$$$@@####bbhh]",
"   .h**g!!g**!hbbbbii########f@@@@@@$$$$$$$$$$$$$$@@@#######bbhh",
"   .hgggg**d**!hb#########ff@@@@$$$$$$$$$$$$$$$$$$$$$$$$$$$$$$$$",
"   .]ggg******!hb#####ff@@@@@$$$$$$$$~~~~~~~~~~~~~~~~~~%%%~~~$~~",
"   .!gg*****g!!h####ff@@$$$$$$$$~~~~%~~%%%%%%%%%%%%%%%%%%%%%%%%%",
"   .!gggggg!!]h###ff@@$$$$$$$~~~%%%%%+++++++++{+++++++++++++%+++",
"   .!!!!!!!]hb###f@@$$$$$$~~~~%%%%%++++++{{{{{{{{{{{{{{{{{{{{{++",
"   .h!!]]]]b####f@@$$$$$$~~~%%%%%++++{{{{{{{{{{{{{{{{{{{{{{{{{{{",
"   .i]]]hhi###f@@@$$$$$$~%%%%++++++{{{{{{{{{{{{{jjj{{{{{{{{{{{{{",
"   .@hhhbi#ff@$$$$$$$~~~%%%++++{{{{{{jjjjjjjjjjjjjjjjjjjjjjjjjjj",
"   .@bb###@$$$$$$$$~~~~~%+++++{{{{{jjjj&jjj&&&&&&&&&&&&&&&jjjjjj",
"   .#####@$$$$$$$$~%%%+++++{{{{{{{jjjjj&&&&&&&&&&&&&&&&&&&&&&&&&",
"   .bb##@$$$$$~%%%%+++++{{{{jjjjjj&&&&&&&&&&&&&&&&&&&&&&&&&&&&&&",
"   .bbb#$$~~~~%%%%%+++{{{{{{jjj{{{++{{{{jjjj&&&&&.&&&&&.&&&&&&&&",
"   .bhh#k%%%+++++++{{{{{{{jj&&&j{{{{{{jjjj&.....................",
"   .bhb$%%+++++++{{{{{jjjjjj&&&&&&&&&&&.........................",
"   .#b@%++++{{{{{{{{jj&j&&&&&&&&......&.&&&&&&&&&&&&&&..........",
"   .$%+++{{{{{{{{jjjj&&&&&&&&&&&&&&&&&&&&&&&&&&&&&&&&&&&&&&&&...",
"   .&+++{{jj{jjjjjjj&&&&&&&.....&&&&&&&&&&&&&&&&&&&&&&&&&&&&&&..",
"   ..{{{{&&jjj&&&&&&&&&&........................................",
"   ..{{jj&&&&&&&&&&&&&&&........................................",
"    .jj&&&&&&&&&&&&&&&&.........................................",
"    .&&&&&&&&&&&................................................",
"    .&&&&&&.&&&&................................................",
"    ............................................................",
"     ...........................................................",
"      ..........................................................",
"       ................          ...............................",
"                                                   .............",
"                                                          ......",
"                                                                ",
"                                                                "};
