/* XPM */
static char *_5ea637446084007941f4f2c8d9f07c3[] = {
/* columns rows colors chars-per-pixel */
"64 64 162 2 ",
"   c None",
".  c #040202",
"X  c #090605",
"o  c #0C0807",
"O  c #0E0A09",
"+  c #120E0B",
"@  c #16110E",
"#  c #18120F",
"$  c #171210",
"%  c #1C1512",
"&  c #1F1815",
"*  c #201714",
"=  c #221916",
"-  c #251C19",
";  c #291F1B",
":  c #2C221D",
">  c #30241F",
",  c #2F2420",
"<  c #342722",
"1  c #342723",
"2  c #312621",
"3  c #322822",
"4  c #332822",
"5  c #332823",
"6  c #342823",
"7  c #352823",
"8  c #342923",
"9  c #352923",
"0  c #332924",
"q  c #342824",
"w  c #352824",
"e  c #342924",
"r  c #352924",
"t  c #342825",
"y  c #352925",
"u  c #362824",
"i  c #362924",
"p  c #362925",
"a  c #372925",
"s  c #352A24",
"d  c #352A25",
"f  c #362A24",
"g  c #372A24",
"h  c #362A25",
"j  c #372A25",
"k  c #362B25",
"l  c #362926",
"z  c #352A26",
"x  c #362A26",
"c  c #372A26",
"v  c #362B26",
"b  c #372B26",
"n  c #372A27",
"m  c #372B27",
"M  c #372C26",
"N  c #372C27",
"B  c #382A25",
"V  c #382B25",
"C  c #382A26",
"Z  c #382B26",
"A  c #392B26",
"S  c #382A27",
"D  c #382B27",
"F  c #392B27",
"G  c #382C25",
"H  c #392C26",
"J  c #382C27",
"K  c #392C27",
"L  c #382D27",
"P  c #392D27",
"I  c #3A2C27",
"U  c #392B28",
"Y  c #382C28",
"T  c #392C28",
"R  c #382D28",
"E  c #392D28",
"W  c #392C29",
"Q  c #392D29",
"!  c #3A2D28",
"~  c #3B2D28",
"^  c #3A2D29",
"/  c #3B2D29",
"(  c #392E28",
")  c #392E29",
"_  c #3A2E28",
"`  c #3B2E28",
"'  c #3A2E29",
"]  c #3B2E29",
"[  c #3B2F29",
"{  c #3B2E2A",
"}  c #3B2F2A",
"|  c #3C2E28",
" . c #3C2E29",
".. c #3D2E29",
"X. c #3C2F29",
"o. c #3C2E2A",
"O. c #3C2F2A",
"+. c #3D2F2A",
"@. c #3C2F2B",
"#. c #3D2F2B",
"$. c #3C302A",
"%. c #3D302A",
"&. c #3C302B",
"*. c #3D302B",
"=. c #3D312B",
"-. c #3E302B",
";. c #3F302B",
":. c #3E312B",
">. c #3F312B",
",. c #3D312C",
"<. c #3E302C",
"1. c #3E312C",
"2. c #3F312C",
"3. c #3E322C",
"4. c #3F322C",
"5. c #3F322D",
"6. c #3F332D",
"7. c #3F322E",
"8. c #40312C",
"9. c #40322C",
"0. c #40322D",
"q. c #41322D",
"w. c #40332D",
"e. c #41332D",
"r. c #42332D",
"t. c #40322E",
"y. c #41322E",
"u. c #40332E",
"i. c #41332E",
"p. c #41332F",
"a. c #42332E",
"s. c #42332F",
"d. c #40342E",
"f. c #41342E",
"g. c #41342F",
"h. c #42342E",
"j. c #43342E",
"k. c #42342F",
"l. c #43342F",
"z. c #42352F",
"x. c #43352F",
"c. c #423530",
"v. c #433530",
"b. c #433630",
"n. c #433631",
"m. c #443530",
"M. c #443630",
"N. c #443730",
"B. c #443631",
"V. c #453631",
"C. c #443731",
"Z. c #453731",
"A. c #463731",
"S. c #443732",
"D. c #453732",
"F. c #463732",
"G. c #453832",
"H. c #463832",
"J. c #463833",
"K. c #473833",
"L. c #463933",
"P. c #473933",
/* pixels */
"                                                                                                                                ",
"                                                                                                                                ",
"                                                                                                                                ",
"                                                        . . . . . . . . . . . . . . . . . . . . . . . . . . . . . . . . . . . . ",
".                                         . . . . . . . . . . . . . . . . . . . . . . . . . . . . . . . . . . . . . . . . . . . ",
". . . . . . . . . . . .     . . . . . . . . . X o + + & : z *.w.k.k.k.k.k.k.n.n.n.n.n.V.V.V.V.V.V.V.V.V.V.V.V.V.V.V.V.V.n.n.w.w.",
"- = & % $ @ + + O o X . . . . X X O + @ $ & ; z <.w.k.k.V.V.V.V.V.V.V.V.V.V.V.V.J.J.J.J.J.J.J.J.J.J.J.J.J.J.J.J.J.J.J.V.V.n.k.w.",
"Q Q Q Q Q Q Q z 3 , : ; - - : : , 3 z Q <.<.<.w.k.n.n.V.V.V.V.V.V.V.V.V.V.V.V.V.J.J.J.J.J.J.J.J.J.J.J.J.J.J.J.J.V.V.k.k.w.w.k.k.",
"Q Q Q Q Q Q Q Q Q Q Q Q Q @.*.*.*.*.*.*.<.<.w.k.n.n.V.V.V.V.V.V.V.V.V.V.V.V.V.V.V.V.V.V.J.J.J.J.J.J.J.J.J.V.V.n.k.w.w.w.w.k.k.V.",
"Q Q Q Q Q Q Q Q Q Q Q Q Q Q Q Q Q @.*.<.w.k.k.k.k.n.V.V.V.V.V.V.V.V.V.V.V.V.V.V.V.V.V.V.V.V.V.V.V.V.V.V.n.k.w.<.<.<.<.w.w.k.n.V.",
"Q Q Q Q Q Q Q Q Q Q Q Q Q Q Q Q Q *.<.w.k.k.k.V.n.n.V.V.V.V.V.V.V.V.V.V.V.V.V.V.V.V.V.V.V.V.V.V.V.V.k.w.<.*.*.*.<.w.w.k.k.V.V.V.",
"Q Q Q Q Q Q Q Q Q Q Q Q Q Q Q @.*.<.w.k.k.k.k.k.n.n.V.V.V.V.V.V.V.V.V.V.V.V.V.V.V.V.V.V.V.V.V.k.<.*.*.@.@.@.@.<.w.w.k.k.n.V.V.V.",
"Q Q Q Q Q Q Q Q Q Q Q Q Q Q *.*.<.w.k.k.k.k.k.k.k.k.V.k.V.k.V.V.k.V.k.V.n.V.V.V.V.V.V.k.w.w.*.@.Q Q Q Q @.@.w.w.k.k.k.k.k.V.n.V.",
"Q Q Q L Q Q Q Q Q Q Q Q @.*.<.w.w.k.k.k.k.k.k.k.k.k.k.k.k.k.k.k.k.k.k.n.n.n.V.n.k.w.<.@.Q Q Q Q Q Q Q @.*.<.w.w.k.k.k.k.k.k.n.n.",
"z z M z M M z M L Q Q *.<.<.w.w.w.w.w.w.w.w.w.w.w.w.k.k.k.k.k.k.k.k.k.k.k.w.<.@.Q Q z z z M z L L Q @.*.<.<.w.w.w.w.k.k.k.k.k.n.",
"z z z z z z z L Q Q @.<.<.<.<.<.<.<.<.<.w.w.w.w.w.w.w.w.w.w.w.w.w.w.<.*.Q L z z z z z z z z z L Q @.*.<.<.w.w.w.w.w.w.w.w.w.w.k.",
"z z z z z L Q Q @.*.*.*.*.*.*.*.*.*.*.*.<.<.<.<.w.w.w.w.w.w.<.*.Q L z z z 8 8 4 z z z z z z L Q @.*.*.<.<.w.w.w.w.w.w.w.w.w.w.k.",
"z z z L L L Q Q @.Q @.@.@.*.@.*.*.*.*.*.<.*.<.*.<.<.*.@.Q L z 8 4 3 3 3 3 3 3 4 3 4 3 z Z L Q Q @.*.*.<.*.<.<.<.<.<.w.<.w.w.k.k.",
"0 z z Z Z Q Q Q Q Q Q Q Q @.Q Q Q @.@.@.@.@.@.Q Q z z 3 3 , : : : , , , , , 3 3 3 3 z z Z U Q Q Q @.@.@.@.*.*.*.*.*.*.*.*.<.w.<.",
"z z z z Z L L L L Q L Q Q @.Q Q Q @.Q Q L z z 3 3 : : : : : : : : : : : : : 3 3 3 8 z Z L Q Q @.@.@.@.@.@.@.*.@.*.*.*.*.*.<.<.<.",
"z z z z z z Z L Z L Z L L L L L L Z z 1 3 : : : : : : : : : : : : : : : : : 3 3 1 z z Z L L Q Q Q Q Q Q @.@.@.@.@.@.*.@.*.*.*.*.",
"z z 8 8 z z z z z Z Z Z Z z z 1 3 : : : ; ; ; ; ; ; : ; : : : : : : : : : 3 3 4 z z z Z Z Z Z L L L Q Q Q Q Q Q Q Q Q Q Q @.@.*.",
"3 4 4 8 8 8 z z z 8 z 3 3 : : : ; ; ; ; ; ; ; ; ; ; ; ; ; : : : ; : : : 3 3 3 8 8 z z z z z Z z L L L Q Q Q Q Q Q Q Q Q Q Q Q Q ",
"3 3 3 3 3 3 3 3 , : : ; - - - - - - - - - - - - - - - - - - ; ; ; : : : 3 3 3 3 3 z w w z z z z z z z z z z z z z z z z z z z z ",
"2 2 , , : : : - - - - = = = = = - - - - - - - - - - - - - - ; : : : : , 3 3 3 3 3 3 3 1 8 8 8 8 z z z z z z z z z 8 z w z z z z ",
": : ; - - - = = = = = = = = = = = - - - - - - - - - - - - ; ; : : : : : > 3 3 3 3 3 3 3 3 4 4 4 8 1 4 4 8 8 8 8 4 4 1 1 8 8 z z ",
"- = = = = = = = * * = = = = = = = = = = = = = = = - - - - ; ; : : : : : : : , , , 3 3 3 3 3 3 3 3 3 3 3 3 3 3 3 3 3 3 3 3 3 3 3 ",
"& & & & & & & & & & & = & = = = = = = = = = = = = - - - ; ; ; : : : : : : : : : : : : : : : : : : : : > > > 2 2 3 3 3 : > : 2 3 ",
"& & & & & & & & & & & & & & & & & & & * * = = = - - - - - ; ; ; ; : : : : : : : : : : : : : : : : : : : : : : : : : : : : : : : ",
"& & & & & & % % & & & & % & & & & & & * = = = = - - - - - - - ; ; ; ; ; ; ; ; ; ; ; ; ; ; ; : : : : : : : : : : : : : : : : : : ",
"$ $ $ $ $ $ $ $ $ $ $ $ $ $ % & & & & = = = = - - - - - - - - - - - - - - - - - - ; ; ; ; ; ; ; : : : : : : ; ; : : : : : : : : ",
"$ $ # # # $ $ $ # # # # $ $ & & & & & = = = = = = = = = = - - - - - - - - - - - - - - - - - ; ; ; ; ; ; ; ; ; ; ; ; ; - ; ; ; ; ",
"$ # # # $ $ $ $ $ $ $ % % % & & & & & & * & * * = * = = = = = = = = = = = - - - - - - - - - - - - - - - - - - - - - - - - - - - ",
"@ @ @ @ @ @ @ # # # $ $ $ % % % % & & & & & & & & & & & * * * * * * = = = = = = = - - - - - - - - - - - - - = - - - - - - - - - ",
"# # @ @ @ @ @ @ # $ $ $ $ $ $ $ $ $ $ & & & % & & & & & & & & & & & & = = = = = = = = = = = = = = = = = = = = = = = = = = = = = ",
"+ + + + + + @ @ # # # # # # # # $ $ $ $ $ $ $ # $ $ # $ % & & & & & & & & * = = = = = = = = = = = = = = = = = = = = = = = & & % ",
"+ + + + + @ @ @ @ @ @ @ @ @ @ @ @ @ @ @ @ @ @ @ @ # # $ % % % % & & & & & & & & & & & & & & & & & & & & & & & & & & & & % $ @ + ",
"+ @ @ @ @ @ @ @ @ @ @ @ @ @ @ @ @ @ @ @ @ @ @ @ @ @ @ # $ $ $ % % & & & & % % % & & & % & & & & & & & & & & & & & $ $ @ + + + O ",
"+ + + + + + + + + + + + + + + + + + + + @ @ @ @ @ + + @ # # # # $ $ $ $ $ $ $ # $ $ $ $ $ % % % $ $ % % $ $ $ @ + + + + O O O o ",
"+ + + + + + + + + + + + + + + + + + + + + + + + + + + + @ @ @ @ @ @ @ @ @ @ @ $ $ $ @ $ $ $ $ $ $ # @ @ + + + + O O O O o o o o ",
"+ + + + + + + + + + + + + + + + + + + + + + + + + + + + + + + + + + @ @ @ @ @ @ @ @ @ @ @ @ @ @ + + + + O O o o o o o o o o o o ",
"+ + + + + + + + + + + + + + + + + + + + + + + + + + + + + + + + + + + + @ @ @ @ @ @ @ + + + + O O o o o o o o o o o o X X X X X ",
"+ + + + + + + + + + + + + + + + + + + + + + + + + + + + + + + + + + + + + + + + + O O O O o o o o X X X X X X X o o X X X X X X ",
"O O O O O O + + + + + + + + + + + + + + + + + + + + + + + + + + + O O O O O o o o X o X X X X X X X X X X X X X X X X X X X X X ",
"O O O O O O O O O O O + + + + + + + + + + + O O O O O O O O o o o o X X X X X X X X X X X X X X X X X X X X X X X X X X X X X X ",
"O O o o o o o o o o o o o o o o o o o o o o o o o o o o o X X X X X X X X X X X X X X X X X X X X X X X X X X X X X X X X X X X ",
"o o o o o o o o o o o o o X X X X X X X X X X X X X X X X X X X X X X X X X X X X X X X X X X X X X X X X X X X X X X X X X X X ",
"o o X X X X X X X X X X X X X X X X X X X X X X X X X X X X X X X X X X X X X X X X X X X X X X X X X X X X X X X X X X X X X X ",
"X X X X X X X X X X X X X X X X X X X X X X X X X X X X X X X X X X X X X X X X X X X X X X X X X X X X X X X X X X X X X . X X ",
"X X X X X X X X X X X X X X X X X X X X X X X X X X X X X X X X X X X X X X X X X X X X X X X X X X X X X X X X X X X X . . X X ",
"X X X X X X X X X X X X X X X X X X X X X X X X X X X X X X X X X X X X X X X X X X X X X X X X X X X X X X X . X X X X . X X X ",
"X X X X X X X X X X X X X X X X X X X X X X X X X X X X X X X X X X X X X X X X X X X X X X X X X X X X . X X . X X X X . . . . ",
"X X X X X X X X X X X X X X X X X X X X X X X X X X X X X X X X X X X X X X X X . . . . . . . . . . . . . . . . . . . . . . . . ",
"X X X X X X X X X X X X X X X X X X X X X X X X X X X X X X X X X X X X X X . . . . . . . . . . . . . . . . . . . . . . . . . . ",
"X X X X X X X X X X X X X X . . . . . . . . . . X X X X X X X . . . . . . . . . . . . . . . . . . . . . . . . . . . . . . . . . ",
"X X X X X X X . . . . . . . . . . . . . . . . . . . . . . . . . . . . . . . . . . . .                 . . . . . . . . . . . . . ",
". . . . . . . . . . . . . . . .         . . . . . . . . . . . . . . . . .                                     . . . . . . . . . ",
". . . . . . . . . .                                 . . . . . . .                                                               ",
"                                                                                                                                ",
"                                                                                                                                ",
"                                                                                                                                ",
"                                                                                                                                ",
"                                                                                                                                ",
"                                                                                                                                "
};
