/* XPM */
static char * bew_xpm[] = {
"64 64 198 2",
"  	c #444945",
". 	c #396336",
"+ 	c #65985A",
"@ 	c #639C5A",
"# 	c #6E9A62",
"$ 	c #547C4A",
"% 	c #53844A",
"& 	c #5A9352",
"* 	c #19360B",
"= 	c #64A25C",
"- 	c #2D5324",
"; 	c #7AAC6C",
"> 	c #7DAE71",
", 	c #74A466",
"' 	c #A6E395",
") 	c #719E65",
"! 	c #43733B",
"~ 	c #638D58",
"{ 	c #94CC84",
"] 	c #83BC75",
"^ 	c #4B6E41",
"/ 	c #B2F0A1",
"( 	c #A9E598",
"_ 	c #416D39",
": 	c #5D8A52",
"< 	c #92CA82",
"[ 	c #9BD58B",
"} 	c #5B9A54",
"| 	c #3B6C33",
"1 	c #5C8652",
"2 	c #A8E797",
"3 	c #8DC37D",
"4 	c #5A834F",
"5 	c #579854",
"6 	c #528D4B",
"7 	c #447C3C",
"8 	c #54934D",
"9 	c #628D56",
"0 	c #9BD58A",
"a 	c #82B673",
"b 	c #A2DE92",
"c 	c #468242",
"d 	c #4A8543",
"e 	c #90C87F",
"f 	c #9AD389",
"g 	c #66925A",
"h 	c #76A569",
"i 	c #7EB570",
"j 	c #325D2B",
"k 	c #407736",
"l 	c #4C8945",
"m 	c #87BC78",
"n 	c #385E34",
"o 	c #46813E",
"p 	c #77B16A",
"q 	c #7AB46D",
"r 	c #48833E",
"s 	c #4D8B49",
"t 	c #35632B",
"u 	c #8AC27A",
"v 	c #88BD78",
"w 	c #376929",
"x 	c #243A1C",
"y 	c #7FB871",
"z 	c #2D4523",
"A 	c #3F733A",
"B 	c #3E7333",
"C 	c #69A45F",
"D 	c #396C2D",
"E 	c #6DA963",
"F 	c #234224",
"G 	c #74AF68",
"H 	c #35542D",
"I 	c #38672D",
"J 	c #346325",
"K 	c #2D541C",
"L 	c #6AA561",
"M 	c #497C42",
"N 	c #315C23",
"O 	c #507D46",
"P 	c #71AC67",
"Q 	c #3C702F",
"R 	c #416C35",
"S 	c #395F2F",
"T 	c #2A5216",
"U 	c #24440D",
"V 	c #54854B",
"W 	c #0E1A04",
"X 	c #2E5A1D",
"Y 	c #0C1D08",
"Z 	c #5F9E59",
"` 	c #1F410D",
" .	c #25490E",
"..	c #264B13",
"+.	c #264B1A",
"@.	c #559551",
"#.	c #254413",
"$.	c #1E3A09",
"%.	c #457D41",
"&.	c #2C4C23",
"*.	c #356430",
"=.	c #152906",
"-.	c #305B1F",
";.	c #1A3207",
">.	c #264419",
",.	c #66A561",
"'.	c #192F07",
").	c #1D3213",
"!.	c #152306",
"~.	c #305520",
"{.	c #2B4C1B",
"].	c #1E3A13",
"^.	c #4F904F",
"/.	c #2A4B15",
"(.	c #2C5729",
"_.	c #253C12",
":.	c #121B06",
"<.	c #172909",
"[.	c #243A0D",
"}.	c #1C2B0A",
"|.	c #0D1206",
"1.	c #1D320B",
"2.	c #070903",
"3.	c #0A0D05",
"4.	c #2A4515",
"5.	c #23330D",
"6.	c #233413",
"7.	c #293C12",
"8.	c #1C230B",
"9.	c #191E0A",
"0.	c #2E431C",
"a.	c #010100",
"b.	c #232B0E",
"c.	c #172309",
"d.	c #111607",
"e.	c #151A09",
"f.	c #121508",
"g.	c #20270D",
"h.	c #2B3314",
"i.	c #313D1B",
"j.	c #32411E",
"k.	c #282F12",
"l.	c #2D3B1A",
"m.	c #334521",
"n.	c #344A26",
"o.	c #355B32",
"p.	c #2B3719",
"q.	c #344E29",
"r.	c #39653A",
"s.	c #3A6A3D",
"t.	c #418654",
"u.	c #3F814F",
"v.	c #252E12",
"w.	c #3C7344",
"x.	c #3B7749",
"y.	c #3D7B4B",
"z.	c #44925D",
"A.	c #3F8351",
"B.	c #479660",
"C.	c #49935E",
"D.	c #418A56",
"E.	c #3B6E40",
"F.	c #367045",
"G.	c #4B9A63",
"H.	c #25361A",
"I.	c #33643C",
"J.	c #1C2B14",
"K.	c #2C4D2A",
"L.	c #5AA56D",
"M.	c #61AA71",
"N.	c #5FA870",
"O.	c #54A26A",
"P.	c #2E532D",
"Q.	c #315630",
"R.	c #519F68",
"S.	c #499661",
"T.	c #2D5A35",
"U.	c #4A8456",
"V.	c #6CB076",
"W.	c #3F8956",
"X.	c #3F7F51",
"Y.	c #428D59",
"Z.	c #356C42",
"`.	c #1E2710",
" +	c #2C5632",
".+	c #293F20",
"++	c #407F51",
"@+	c #315E38",
"#+	c #2D5E39",
"$+	c #1B341B",
"%+	c #1E4227",
"&+	c #264C2D",
"*+	c #509D66",
"=+	c #1D3B21",
"-+	c #275231",
";+	c #377548",
">+	c #2E613B",
",+	c #346641",
"                                                                                                                                ",
"                                                                                                                                ",
"          .                                                                 + @                             # $             % & ",
"      * & = -                       ; >             , ' )                 ! = @ !             ~ { ] ^     ~ / (           _ = = ",
"  : < [ + } |           _ % -     1 2 2 ~   ) 3     ; ' ' 4     5 6       7 8 8 |             9 ' ' 0 $   a ' b #         c d 8 ",
": e { f , 6 | g ,       8 } 6     ; [ f h   [ b ;   , f 0 i   j 8 8 !     k l 7 3 { ^           m f { 3 n a < e ;         c o d ",
"p p q ] _ r | 3 f )     l 6 s t   , u v a 4 < < a   , v u u   t l l 7     | k w 3 f m x ; a ^   g v y v + ; y q ] z g :   A k B ",
"} } C % D B t u u v     7 7 7 D   4 + E p : q y q F q E G ] H I o 7 7     J D K v u 3 9 < < v   $ p C E L @ L = E : f { q J w J ",
"7 l M 9 N J ! q q q _   D D w w z , ] O } + 6 L L % = } @ P * B B B Q     - R S q G q & ] ] v ^ ! L 5 8 5 6 5 6 8 % 3 v q @ K T ",
"w B + ] L U V E L C . W X X X K C y ] ; B } ! 5 M @ s d s & K w J w J Y : q q 6 = Z L & E E P % _ } d o d | 7 7 7 d + G C @ M U ",
"X N @ G P . 5 5 5 7 V E + `  .| E E E P N 7 l | 7 l k k o k K T T T ..% C L d } l s } d 5 8 5 % . 6 A B t G L j D B | Z 8 d l +.",
"..+.= = = M c 7 t @.= L E #.$.%.5 5 Z @ K w 7 &.d D w w k K  .U U U | 8 8 6 %.7 A 7 l A d 7 o s j c w w ! E @ & X J J 7 7 Q D J ",
"U *.5 5 5 A w - %.8 8 5 M =.=.%.d c s l K -.J j D N N J I ;.$.$.$.>.7 7 7 *.l B D D o j k D w k j B N N | ,.= Z K X X N D N X J ",
"'.c l d l t K j 7 7 c d ).!.!.A B B 7 A T K #.I X K K ~.{.'.;.;.;.J t w I I B J J t I ].D N X ~.t +.K K t @.^.^.t T /.#.N /. .T ",
"(.7 B B k &._.| t I A j W :.W I J J | *.../.#.N /././.K <.!.!.'.].N K K +.| ~.K -.J +.!.K K /.../.{.#./.j c 7 %.*.#.U $./.U [.[.",
"I J N J I }.&.~.K ~.I <.|.|.|.K +.K ~.j [.U >./.U #.#./.|.:.!.=.+./.U ..{.N {.{.K N !.!.<.{.#.[.[.#._.[.- B I | j [.[.1.[.1.}.1.",
"~.K K ~.>.<.{._.#.{.{.2.3.|.|.>.{.#.4.N '.1.>.[.5.[.[.1.|.|.:.!.4.[.5.[.&.{.4././.>.W :.:.1.[.5.1.1.#.<.- N ~.N - }.1.}.<.<.!.!.",
"4.4.{.{.:.6._.[.[.4.).2.2.3.|.}.4.[.[.{.).!._.1.}.}.5.:.3.3.|.<.5.}.}.<.K 7.7.7.4.}.|.|.|.|.5.}.}.<.}.}.{.4.4.{.{.<.8.<.:.9.:.:.",
"5.7.0.<.|._.5.}.5.7.W a.a.2.2.:.[.5.5._._.:.b.8.8.8.}.2.2.2.2.<.8.c.8.}.4.5.5.5.7.3.2.2.3.2.!.}.8.c.c.c.7.5.5.4.>.d.d.d.|.|.|.|.",
"}.5.7.2.|.5.8.8.}.5.a.a.a.a.a.|.5.}.}.b.7.|.9.:.:.:.9.a.a.a.a.9.d.d.d.}.5.}.}.}.b.a.a.a.a.a.3.9.d.d.|.!.5.}.b.7.6.3.3.3.2.3.2.2.",
"8.5.}.2.|.8.e.e.9.9.a.a.a.a.a.3.8.8.8.8.5.:.|.3.3.3.|.a.a.a.a.|.3.3.3.8.8.8.8.8.9.a.a.a.a.a.a.|.3.3.2.8.8.8.8.6.c.2.2.a.a.2.a.a.",
"e.}.|.a.3.|.3.|.|.3.a.a.a.a.a.2.e.e.e.9.}.:.2.2.2.2.2.a.a.a.a.2.2.2.2.:.e.f.f.e.|.a.a.a.a.a.a.2.2.2.2.e.e.e.8.b.3.a.a.a.a.a.a.a.",
"3.e.a.a.2.2.2.2.2.2.a.a.a.a.a.2.3.3.|.d.9.|.a.a.a.a.a.a.a.a.a.a.a.a.a.3.3.3.3.3.2.a.a.a.a.a.a.a.a.a.2.|.|.|.e.8.a.a.a.a.a.a.a.a.",
"2.3.a.a.a.a.a.a.a.a.a.a.a.a.a.2.2.2.2.3.|.2.a.a.a.a.a.a.a.a.a.a.a.a.a.a.2.2.2.2.a.a.a.a.a.a.a.a.a.a.2.2.2.3.|.|.a.a.a.a.a.a.a.a.",
"a.a.a.a.a.a.a.a.a.a.a.a.a.a.a.a.a.a.a.2.2.a.a.a.a.a.a.a.a.a.a.a.a.a.a.a.a.a.a.a.a.a.a.a.a.a.a.a.a.a.a.a.a.2.3.a.a.a.a.a.a.a.a.a.",
"a.a.a.a.a.a.a.a.a.a.a.a.a.a.a.a.a.a.a.a.a.a.a.a.a.a.a.a.a.a.a.a.a.a.a.a.a.a.a.a.a.a.a.a.a.a.a.a.a.a.a.a.a.a.a.a.a.a.a.a.a.a.a.a.",
"a.a.a.a.a.a.a.a.a.a.a.a.a.a.a.a.a.a.a.a.a.a.a.a.a.a.a.a.a.a.a.a.a.a.a.a.a.a.a.a.a.a.a.a.a.a.a.a.a.a.a.a.a.a.a.a.a.a.a.a.a.a.a.a.",
"a.a.a.a.a.a.a.a.a.a.a.a.a.a.a.a.a.a.a.a.a.a.a.a.a.a.a.a.a.a.a.a.a.a.a.a.a.a.a.a.a.a.a.a.a.a.a.a.a.a.a.a.a.a.a.a.a.a.a.a.a.a.a.a.",
"a.a.a.a.a.a.a.a.a.a.a.a.a.a.a.a.a.a.a.a.a.a.a.a.a.a.a.a.a.a.a.a.a.a.a.a.a.a.a.a.a.a.a.a.a.a.a.a.a.a.a.a.a.a.a.a.a.a.a.a.a.a.a.a.",
"a.a.a.a.a.a.a.a.a.a.a.a.a.a.a.a.a.a.a.a.a.a.a.a.a.a.a.a.a.a.a.a.a.a.a.a.a.a.a.a.a.a.a.a.a.a.a.a.a.a.a.a.a.a.a.a.a.a.a.a.a.a.a.a.",
"a.a.a.a.a.a.a.a.a.a.a.a.a.a.a.a.a.a.a.a.a.a.a.a.a.a.a.a.a.a.a.a.a.a.a.a.a.a.a.a.a.a.a.a.a.a.a.a.a.a.a.a.a.a.a.a.a.a.a.a.a.a.a.a.",
"a.a.a.a.a.a.a.a.a.a.a.a.a.a.a.a.a.a.a.a.a.a.a.a.a.a.a.a.a.a.a.a.a.a.a.a.a.a.a.a.a.a.a.a.a.a.a.a.a.a.a.a.a.a.a.a.a.a.a.a.a.a.a.a.",
"a.a.a.a.a.a.a.a.a.a.a.a.a.a.a.a.a.a.a.a.a.a.a.a.a.a.a.a.a.a.a.a.a.a.a.a.a.a.a.a.a.a.a.a.a.a.a.a.a.a.a.a.a.a.a.a.a.a.a.a.a.a.a.a.",
"a.a.a.a.a.a.a.a.a.a.a.a.a.a.a.a.a.a.a.a.a.a.a.a.a.a.a.a.a.a.a.a.a.a.a.a.a.a.a.a.a.a.a.a.a.a.a.a.a.a.a.a.a.a.a.a.a.a.a.a.a.a.a.a.",
"a.a.a.a.a.a.a.a.a.a.a.a.a.a.a.a.a.a.a.a.a.a.a.a.a.a.a.a.a.a.a.a.a.a.a.a.a.a.a.a.a.a.a.a.a.a.a.a.a.a.a.a.a.a.a.a.a.a.a.a.a.a.a.a.",
"a.a.a.a.a.a.a.a.a.a.a.a.a.a.a.a.a.a.a.a.a.a.a.a.a.a.a.a.a.a.a.a.a.a.a.a.a.a.a.a.a.a.a.a.a.a.a.a.a.a.a.a.a.a.a.a.a.a.a.a.a.a.a.a.",
"a.a.a.a.a.a.a.a.a.a.a.a.a.a.a.a.a.a.a.a.a.a.a.a.a.a.a.a.a.a.a.a.a.a.a.a.a.a.a.a.a.a.a.a.a.a.a.a.a.a.a.a.a.a.a.a.a.a.a.a.a.a.a.a.",
"a.a.a.a.a.a.a.a.a.a.a.a.a.a.a.a.a.a.a.a.a.a.a.a.a.a.a.a.a.a.a.a.a.a.a.a.a.a.a.a.a.a.a.a.a.a.a.a.a.a.a.a.a.a.a.a.a.a.a.a.a.a.a.a.",
"a.a.a.a.a.a.a.a.a.a.a.2.2.2.2.2.2.2.2.2.2.a.a.a.a.a.a.a.a.a.2.2.a.a.a.a.a.a.a.a.a.a.a.a.a.a.a.a.a.a.a.a.a.a.a.a.a.a.a.a.a.a.a.a.",
"a.a.a.a.a.a.a.a.a.2.2.2.3.3.|.d.f.e.d.|.3.3.2.2.a.a.2.2.2.2.|.e.a.a.a.a.a.a.a.a.a.a.a.a.2.3.|.|.3.2.2.a.a.a.a.a.a.a.a.a.a.a.a.a.",
"a.a.a.a.a.a.a.a.a.a.2.|.f.f.e.9.8.b.b.9.e.f.|.3.2.2.|.3.2.3.9.g.a.a.a.a.a.a.a.a.a.a.2.2.d.8.b.b.g.9.|.2.a.a.a.a.a.a.a.a.a.a.a.a.",
"a.a.a.a.a.a.a.a.a.a.3.e.9.8.8.h.i.j.j.h.g.8.e.f.3.2.9.f.f.f.b.k.a.a.a.a.a.a.a.a.2.2.3.f.k.l.j.m.m.h.8.|.2.a.a.a.a.a.a.a.a.a.a.a.",
"a.a.a.a.a.a.a.a.a.a.2.8.b.l.n.H H H H o.n.k.8.9.f.|.b.8.9.8.h.k.a.a.a.a.a.a.a.2.3.f.9.p.q.H o.o.o.q.l.g.d.2.a.a.a.a.a.a.a.a.a.a.",
"a.a.a.a.a.a.a.a.2.2.|.6.H n r.s.r.. s.t.u.r.h.b.8.f.h.k.g.b.p.8.2.a.a.a.a.a.3.f.e.8.z o.r.s.s.r.. n H l.b.2.a.a.a.a.a.a.a.a.2.2.",
"a.a.a.a.a.a.2.2.2.3.e.v.s.w.x.w.w.y.z.z.z.t.w.H h.9.l.h.h.h.j.e.f.3.2.a.a.a.e.8.b.h.. s.w.w.w.w.s.. r.H i.d.a.a.a.a.a.a.2.2.3.3.",
"a.a.a.a.2.2.f.3.|.f.9.g.x.A.A.A.z.B.C.z.z.z.D.y.o.6.j.i.i.j.z b.b.9.d.2.a.2.8.b.h.n.s.w.w.w.w.w.w.w.E.s.q.d.a.a.a.a.a.a.3.|.f.e.",
"2.3.2.2.2.|.8.d.e.9.8.h.F.G.B.C.G.G.z.C.t.z.C.D.s.H.m.j.m.q.x i.h.b.8.e.2.2.b.h.i.n s.w.w.w.x.y.y.w.w.E.r.9.2.2.2.2.2.2.e.9.8.g.",
"|.d.d.|.|.9.h.9.g.g.b.l.I.G.G.G.G.G.G.G.G.z.G.D.o.z q.n.H o.p.m.j.l.h.g.d.|.l.l.q.o.r.w.E.E.w.y.y.y.w.w.r.J.|.3.3.3.|.|.8.b.b.b.",
"9.9.8.e.e.g.h.8.h.k.h.i.K.G.G.G.G.L.M.N.O.G.G.t.P.o.H o.. Q.F.H m.m.i.h.g.a.H o.s.w.x.y.w.E.w.w.y.y.y.s.H v.9.e.f.f.9.e.k.h.h.h.",
"b.b.k.8.8.k.h.v.i.h.h.m.z C.G.G.G.O.M.L.O.R.G.D.P.r.r.s.w.s.C.u.q.m.m.i.h.2.F r.s.w.y.y.w.r.w.y.y.y.E.K.J.3.b.8.8.8.8.8.h.i.i.i.",
"h.v.h.b.b.l.h.K.m.m.j.q.z I.y.S.G.O.O.O.R.G.G.F.T.E.w.y.y.U.V.C.y.n m.m.j.d.|.r.r.w.y.y.w.w.w.y.y.s.H.b.b.8.b.k.g.g.b.h.v.j.m.m.",
"h.p.i.h.h.m.p.n z H q.o.K.A.W.F.x.X.t.X.A.y.o.t.Y.Z.u.A.A.U.M.L.D.y.H m.m.`.f.J. +r.w.y.w.w.w.w.I.x j.i.i.h.g.l.k.b.b.h.k.0.m.m.",
"k.m.i.i.m.z n.r.K.. n r. +Y.z.Y.x.k.k.    F w.B.G.Z.D.D.D.t.O.O.G.A.y.H n.v.k.i.m..+P.F.w.w.w.K.z H H q.q.q.q.H.j.h.h.h.m.H.F.. ",
"p.n.m.n.H z r.s.K.w.E.w.o.Y.z.D.x h.j.      F.G.G.y.W.z.z.++R.G.C.D.Y.y.F h.n.H o.n o.K.P.o.z q.H o.o.n . H r.n l.m.i.i.n.z A.G.",
"z H H H . I.y.E.P.y.y.A.@+Y.z.#+h.i.q.).    T.G.G.G.I.Y.z.x.G.G.D.I.$+d.l.H o.r.s.s.r.s.s.r.r.. . r.s.s.. r.E.w.Q.H q.n.q.o.Z.G.",
"Q.. . s.@+t.G.G.I.D.D.A.Z.z.Z.z m.n.H K.      Z.G.G.S.y.y.S.D.#+8.h.8.x H . s.w.w.w.s.s.s.s.s.s.w.w.w.s.r.w.y.x.w.P.. H o.r.o.G.",
"n E.w.y. +%+D.O.y.z.z.I.D.#+  K.o.H n r.          Z.t.Y.y.I.      m.h.o.s.w.w.w.w.w.E.s.s.s.w.x.w.w.w.s.w.u.u.y.y. +w.r.r.E.o.t.",
"I.y.y.A.&+    ++*+Z.F.F.      J.s.s.s.w.T.                        n.n.I.t.t.w.w.w.w.w.E.E.w.w.w.x.y.w.w.u.t.A.A.y.=+y.y.w.y.Z.$+",
"T.A.t.D.&+      Z.z.Z.          &+y.y.y.A.F                       H n K.x.G.G.G.B.C.C.C.t.y.w.x.w.w.F.w.A.t.t.A.-+  ;+D.A.t.F.  ",
"  A.Y.z.T.                        T.D.Y.Y.F.                      @+w.s.r. +A.G.G.G.G.O.G.C.t.y.w.w.y.y.t.t.t.T.    F.z.Y.z.Z.  ",
"  >+z.B.I.                           +A.Y.>+                      I.u.y.y.P.    I.Z.,+U.U.S.G.C.Y.z.G.S.t.t.F.      &+C.B.z.    ",
"    T.x.                                                          Z.z.D.A.              $+Z.I.Z.F.x.A.A.F.T.           +y.-+    ",
"                                                                  x.S.C.x.                x.D.t.x.                              ",
"                                                                  >+G.Y.F                 Z.z.Y.;+                              "};
