/* XPM */
static char *d29ce5c1b1cd4a0797ae922732e13bac[] = {
/* columns rows colors chars-per-pixel */
"64 64 151 2 ",
"   c None",
".  c #000100",
"X  c #060903",
"o  c #0A0C04",
"O  c #0E1106",
"+  c #0F1208",
"@  c #0B190C",
"#  c #111406",
"$  c #151A07",
"%  c #181D07",
"&  c #121508",
"*  c #151A09",
"=  c #191E0A",
"-  c #15210E",
";  c #1D230C",
":  c #1F290F",
">  c #0F2111",
",  c #1C2610",
"<  c #152915",
"1  c #1D2B13",
"2  c #1E3017",
"3  c #1E371D",
"4  c #1F391E",
"5  c #20270D",
"6  c #232A0E",
"7  c #252D11",
"8  c #282F12",
"9  c #253215",
"0  c #2B3414",
"q  c #2F3817",
"w  c #24351A",
"e  c #293619",
"r  c #253B1D",
"t  c #2C3B1B",
"y  c #303817",
"u  c #313C1B",
"i  c #233E21",
"p  c #293F20",
"a  c #2E401F",
"s  c #32411E",
"d  c #254324",
"f  c #2B4423",
"g  c #2C4927",
"h  c #244729",
"j  c #264B2B",
"k  c #2B4D2B",
"l  c #334521",
"z  c #334A25",
"x  c #344E29",
"c  c #2D512E",
"v  c #35532C",
"b  c #37582F",
"n  c #275432",
"m  c #2C5531",
"M  c #2D5A35",
"N  c #2D5E39",
"B  c #315630",
"V  c #355B33",
"C  c #385E34",
"Z  c #315E38",
"A  c #2F623C",
"S  c #366137",
"D  c #386136",
"F  c #33633B",
"G  c #39653A",
"H  c #35693E",
"J  c #3A693D",
"K  c #3A6A3E",
"L  c #2E6941",
"P  c #336840",
"I  c #336940",
"U  c #356C41",
"Y  c #346C42",
"T  c #336E44",
"R  c #346C42",
"E  c #3B6F41",
"W  c #3B6E41",
"Q  c #367246",
"!  c #3B7042",
"~  c #3C7143",
"^  c #3B7244",
"/  c #397347",
"(  c #3C7344",
")  c #3C7545",
"_  c #3C7546",
"`  c #3D7647",
"'  c #3D7747",
"]  c #3C7345",
"[  c #377649",
"{  c #377549",
"}  c #387449",
"|  c #3A7649",
" . c #377B4B",
".. c #3A7A4B",
"X. c #3D7848",
"o. c #3D7948",
"O. c #3D7949",
"+. c #3E7C4B",
"@. c #3A7B4C",
"#. c #3B7B4C",
"$. c #3A7E4F",
"%. c #3C7D4D",
"&. c #3E7D4C",
"*. c #3E7E4D",
"=. c #3C7B4B",
"-. c #3D7F50",
";. c #3F814F",
":. c #3E814F",
">. c #3B8050",
",. c #3F8150",
"<. c #3F8351",
"1. c #3F8452",
"2. c #3F8552",
"3. c #3F8553",
"4. c #3E8352",
"5. c #3F8855",
"6. c #3F8955",
"7. c #408653",
"8. c #408554",
"9. c #408754",
"0. c #408654",
"q. c #408856",
"w. c #408A56",
"e. c #408A57",
"r. c #418B57",
"t. c #408A56",
"y. c #418C58",
"u. c #418D58",
"i. c #418D59",
"p. c #418E59",
"a. c #428F5A",
"s. c #428D59",
"d. c #43935D",
"f. c #47935D",
"g. c #44935E",
"h. c #46935E",
"j. c #44945E",
"k. c #45955F",
"l. c #46955F",
"z. c #47955F",
"x. c #46965F",
"c. c #44935D",
"v. c #48945F",
"b. c #48925E",
"n. c #479760",
"m. c #469660",
"M. c #4E9762",
"N. c #489861",
"B. c #4B9A63",
"V. c #4A9A63",
"C. c #55A26A",
/* pixels */
"              f.k.q.O.G v s 0 7 5 = & ; 6 ; o X . . . . . . . . . . . . . . . . . . . . X O * : 0 u f d g k m I m               ",
"              v.N.p.;.E V z q 6 ; * # o X . . . . . . . . . . . . . . . . . . . . X X X o # * ; 6 0 l V J &.p.n.N.M             ",
"                  i f p p t t 0 5 * O X . . . . . . . . . . . . . . . . . . . . . o = 6 7 * = 5 7 0 s x G _ 8.k.f.              ",
"                  f u 6 5 ; # O $ * O X . . . . . . . . . . . . . . . . . . . . . X o = 8 t 9 5 t s z b J O.7.@.h               ",
"            j M C l 0 6 5 ; * O X . X X . . . . . . . . . . . . . . . . . . . . . X X & ; 6 t l w w r d k g e x V 3             ",
"      T $.3.+.G v s 0 0 6 : 6 5 ; & o X . . . . . . . . . . . . . . . . . . . . . X X & = 5 0 u v g % 5 7 0 u x D / j           ",
"    } k.p.;.E C v l e t l u 0 : * O X . . . . . . . . . . . . . . . . . . . . . . X O = 5 6 0 u z V H g 0 s z v D ( >.n         ",
"    8.k.&.&.! G x k V v u 0 6 ; * O X . . . . . . . . . . . . . . . . . . . . . . X o = 7 u u s l b J &.@.U F B J _ 7.6.        ",
"    n q.p.3.+.V H ~ C z u 0 6 ; * O X . . . . . . . . . . . . . . . . . . . . . . . . . . O 9 l z b G O.3.p.k.k.c &.q.f.n       ",
"          M d ..3._ G b z u 0 6 = # X . . . . . . . . . . . . . . . . . . . . . . . . X o X O , z C J O.>.q.d./ t d { >.f       ",
"            I k.p.;._ S f e 6 ; $ o . . . . . . . . . . . . . . . . . . . . . . . . X O = 6 7 7 * r c F U U n 0 s z z x V f     ",
"            #.N.k.} v f u y 0 6 = O X . . . . . . . . . . . . . . . . . . . . . . . X o & ; 7 t l t e z V ! U k e f f f r       ",
"            h / S V v l u y 0 5 % O X . . . . . . . . . . . . . . . . . . . . . . . X o & ; 6 0 0 v V d v J &.8.p.q.T           ",
"        M Y &._ G b z t f k k d 2 = o . . . . . . . . . . . . . . . . . . . . . . . X O * : 6 0 y z V ! Z C O.3.p.k.7.          ",
"      p.d.7.O.K D v m >.3._ S g 9 - O X . . . . . . . . . . . . . . . . . . . . . . . o * 6 0 u l v C K &.F / 3.q.$.d           ",
"    F N.d.q.&.! J V a.p.7.( V t : # X . . . . . . . . . . . . . . . . . . . . . . . . . . . O 1 f V J ( >.p.j                   ",
"      N ....} U F F v.k.q.O.Z f - O X . . . . . . . . . . . . . . . . . . . . . . . . . . . . X O - j O.8.d.U                   ",
"          : e 0 0 6 d j h d i 2 = o X . . . . . . . . . . . . . . . . . . . . . . . . . . . X o & * ; 1 Y 3.M / >.d.N.q.        ",
"        7 s u 0 7 6 5 : ; = $ O o X . . . . . . . . . . . . . . . . . . . . . . . . . . X @ > - * * ; 6 8 e g Z / p.n.a.        ",
"      1 l s y 0 9 6 : ; ; % # O X X . . . . . . . . . . . . . . . . . . . . . . . . . . X @ < 3 d c M S H [ :.>. .L >.j         ",
"      t l s s t t 9 : ; = % 7 - O X . . . . . . . . . . . . . . . . . . . . . . . . . . . O * 1 r f v S ! &.6.c.d.q.            ",
"      t l 9 -     1 7 % O 9 9 : & X . . . . . . . . . . . . . . . . . . . . . . . . . . . o # ; 7 e s v C E &.q.k.I             ",
"                k z e 6 : % : : & X . . . . . . . . . . . . . . . . . . . . . . . . . . . o ; 9 : a z v C K / U m A p.3.M       ",
"        N Y U K b y 0 6 6 ; O o o . . . . . . . . . . . . . . . . . . . . . . . . . . . . X & 7 z r * : 7 7 7 s b F N d.8.      ",
"    N f.c.3.~ C z s 0 7 9 e 0 ; # X . . . . . . . . . . . . . . . . . . . . . . . . . . . X & : t b v 1 6 0 y l v G O.A n       ",
"    a.k.q.&.K C v t f x l 0 6 = O X . . . . . . . . . . . . . . . . . . . . . . . . . . . o = 6 0 z C ! M t a x V J O.8.n       ",
"    >.k.} &.( S f k f e 7 5 = % * O . . . . . . . . . . . . . . . . . . . . . . . . . . . X % 0 u z V E ;.q.>.@.Z ~ &.r.$.      ",
"      I ..} F d S G V x l s u 0 5 # . . . . . . . . . . . . . . . . . . . . . . . . . . X o * ; 7 f V E &.8.p.k.@.m &.p.q.<     ",
"            U >.O.K V x l u 0 6 ; # X . . . . . . . . . . . . . . . . . . . . . . . . . X # = 5 0 t e g Z ' p.>.c _ F Q U r.    ",
"          Q p.8.;._ G b z u 0 6 ; * o X . X o X . . . . . . . . . . . . . . . . . . . X O * ; 6 0 0 u z v v c r C O.3.p.k.a.    ",
"          f.d.p.7.O.! G V z s 0 6 r t e 7 ; # X . . . . . . . . . . . . . . . . . . . o * ; 6 6 0 y u l z v D ! F c U N         ",
"          &.@.A       - Z c t f J D v a e 5 * o X X . . . . . . . . . . . . . . . . . . O 6 t t q u s l z b C J O.;.M           ",
"                      N d.3.F &._ J b z t 7 ; * # O o . . . . . . . . . . . . . . . . . . . & w z v v b V C G E O.7.p.N         ",
"                      { n.T q.7.;.O.J C x f 9 - & X . . . . . . . . . . . . . . . . . . X . . . . - p c S ! O.&.>.q.f.p.        ",
"                      -.B./ d.p.&.Z d 1 * o X . . . . . . . . . . . . . . . . . . . . X o & X . X O * ; : 5 #   M Q r.>.        ",
"                      >.k./ r.Z w l e 6 ; & o X . . . . . . . . . . . . . . . . . . . X O * 6 $ O * : 6 0 t :                   ",
"                      >.d.a.v d v y 0 6 5 = # X . . . . . . . . X o O o X X . . . . X o & = 6 t , 6 0 s v C d                   ",
"                      3.d._ k C l u 0 0 7 ; X . . . . . . . X o = 5 6 6 = O X . . . X + * : 6 e z 7 z b C G k                   ",
"                      q.3.c J v l s y y 6 . . . . . . . X o O : 0 s l l t : # X . . . * ; 6 7 0 u v f V C J c                   ",
"                      >.Z ! D x z l l 7 X . . . . . X o O * 7 z b V V V v s 6 & X . . . ; 0 0 y u z B B J G V                   ",
"                      3 H ! V v z v w o . . . o = X O & ; 7 b G J J J G C V s 7 X . . X o 7 y u s l C c J K H                   ",
"                      H &.K D V V r = o . . X 7 ; X = 5 6 z J ~ _ _ ! E G J V s * . . X # = t l l z b ! Z c.{                   ",
"                    Q q.+.~ K J d 5 = X X X 7 7 ; O 6 7 0 D E _ _ _ _ _ ! E K b = = X o & 6 9 z z x b J U F                     ",
"                  I k.p.7.;.E r 7 5 & O * * u 6 : $ 7 0 z D K ! ! _ O.&._ ~ ! K , : 7 O = t J c V b V G O.m                     ",
"                  T n.c...M     O * o : 6 r t 6 5 , x z C G ~ ! E ! _ &.&.O._ B * : 0 e e C _ 3.c G D J _ ;.h                   ",
"                                    $ 0 9 v 0 0 7 6 B C ( _ O.O.K E _ +.&.&.B % ; 6 0 s e G O.7.3.V _ _ O.3.q.F                 ",
"                                    f e S x u 0 q d m G J _ O.O.J ! _ O.O.m w : 7 7 0 u v d M M j   M 3.q.p.d.n.U               ",
"                                    d / G x l l e >.$.m G E O.O._ _ _ _ B k C x e y y s b k             I $.q.@.                ",
"                                  M 3.O.G b v x m c.k.3.F B ( _ _ _ E k v G G E Q f z z V J                                     ",
"                                N d.q.O.J G D k q.p.k.B.k.>.F Z H Z d D J J J >.p.U v C G _ m                                   ",
"                                $.k.q.;.O.E Z 3.;.p.k.B.N.d.p.>.F m G G J J E q.p.p.Z K ~ +.U                                   ",
"                                Q n.d.q.E / k.p.p.d.n.N.B.k.q./ c X._ J J J _ 8.q.p.3.m ;.8.$.                                  ",
"                                  j M   h p.d.c.d.k.n.k.q.! S c w 8.N.k.b.0.;.7.p.q.m c >.c.@.                                  ",
"                                          c 6.c.c.3.Q j e t a g x f } B.C.C.k.k.-.Z ! O.F $.n                                   ",
"                                              n     v s w x b V b V S M M.C.N.@.1 O.;.>.>.                                      ",
"                                                    C x z r v S S J ' d   -.F     m q.p.d.m                                     ",
"                                                    S V v v i S K _ ;.H             A f.N.A                                     ",
"                                                    F G V C h M O.;.q.p.              h I                                       ",
"                                                    N ( G E M   } q.c.n.j                                                       ",
"                                                    N +._ &.c     @.f.q.                                                        ",
"                                                    A 7.>.3.        j                                                           ",
"                                                    { d.c.F                                                                     ",
"                                                    8.k.Q                                                                       ",
"                                                    M j                                                                         "
};
