/* XPM */
static char *d10aae59cebd485a9a80dffb27863da5[] = {
/* columns rows colors chars-per-pixel */
"64 64 202 2 ",
"   c None",
".  c black",
"X  c #010000",
"o  c #010100",
"O  c #010101",
"+  c #020101",
"@  c #020201",
"#  c #030201",
"$  c #020202",
"%  c #030202",
"&  c #030302",
"*  c gray1",
"=  c #040202",
"-  c #040302",
";  c #040303",
":  c #050303",
">  c #040403",
",  c #050403",
"<  c #050503",
"1  c #040404",
"2  c #050404",
"3  c #050504",
"4  c gray2",
"5  c #060404",
"6  c #060504",
"7  c #070504",
"8  c #060505",
"9  c #070505",
"0  c #060604",
"q  c #060605",
"w  c #070605",
"e  c #070705",
"r  c #070606",
"t  c #070706",
"y  c #080605",
"u  c #080705",
"i  c #080606",
"p  c #090606",
"a  c #080706",
"s  c #090706",
"d  c #080707",
"f  c #090707",
"g  c #0A0706",
"h  c #0A0707",
"j  c #090806",
"k  c #090807",
"l  c #0A0806",
"z  c #0A0807",
"x  c #0B0807",
"c  c #0A0907",
"v  c #0B0907",
"b  c #090808",
"n  c #0A0808",
"m  c #0B0808",
"M  c #0A0908",
"N  c #0B0908",
"B  c #0B0909",
"V  c #0B0A08",
"C  c #0B0A09",
"Z  c #0C0908",
"A  c #0C0909",
"S  c #0C0A08",
"D  c #0D0A08",
"F  c #0C0A09",
"G  c #0D0A09",
"H  c #0D0B09",
"J  c #0E0A09",
"K  c #0E0B09",
"L  c #0F0B09",
"P  c #0C0B0A",
"I  c #0D0B0A",
"U  c #0E0B0A",
"Y  c #0F0B0A",
"T  c #0E0C0A",
"R  c #0F0C0A",
"E  c #0E0C0B",
"W  c #0F0C0B",
"Q  c #0F0D0B",
"!  c #0F0D0C",
"~  c #100C0A",
"^  c #100D0A",
"/  c #100C0B",
"(  c #100D0B",
")  c #110D0B",
"_  c #120D0B",
"`  c #100E0B",
"'  c #110E0B",
"]  c #100D0C",
"[  c #110D0C",
"{  c #100D0D",
"}  c #120D0C",
"|  c #100E0C",
" . c #110E0C",
".. c #110E0D",
"X. c #120E0C",
"o. c #130E0C",
"O. c #130F0C",
"+. c #120E0D",
"@. c #130E0D",
"#. c #120F0D",
"$. c #130F0D",
"%. c #130F0E",
"&. c #140F0C",
"*. c #140F0D",
"=. c #140F0E",
"-. c #13100D",
";. c #13100E",
":. c #14100D",
">. c #14100E",
",. c #15100E",
"<. c #15110E",
"1. c #14100F",
"2. c #15110F",
"3. c #16110F",
"4. c #16120F",
"5. c #17120F",
"6. c #161210",
"7. c #171210",
"8. c #171310",
"9. c #181310",
"0. c #181311",
"q. c #191311",
"w. c #191411",
"e. c #191412",
"r. c #1A1412",
"t. c #1A1512",
"y. c #1B1512",
"u. c #1B1513",
"i. c #1B1612",
"p. c #1B1613",
"a. c #1C1613",
"s. c #1D1713",
"d. c #1C1614",
"f. c #1D1614",
"g. c #1C1714",
"h. c #1D1714",
"j. c #1E1714",
"k. c #1E1814",
"l. c #1E1815",
"z. c #1F1815",
"x. c #1F1915",
"c. c #1F1916",
"v. c #201915",
"b. c #201916",
"n. c #211916",
"m. c #201A16",
"M. c #211A16",
"N. c #211A17",
"B. c #221A17",
"V. c #221B17",
"C. c #221B18",
"Z. c #221C18",
"A. c #231C18",
"S. c #231C19",
"D. c #231D19",
"F. c #241C18",
"G. c #241C19",
"H. c #241D19",
"J. c #251D19",
"K. c #251D1A",
"L. c #251E1A",
"P. c #251F1A",
"I. c #261E1A",
"U. c #271E1A",
"Y. c #261F1A",
"T. c #261F1B",
"R. c #271F1B",
"E. c #281F1B",
"W. c #281F1C",
"Q. c #27201B",
"!. c #28201B",
"~. c #28201C",
"^. c #29201C",
"/. c #28211C",
"(. c #29211C",
"). c #29211D",
"_. c #2A211C",
"`. c #2A211D",
"'. c #2B211D",
"]. c #2A221D",
"[. c #2A221E",
"{. c #2B221E",
"}. c #2B231E",
"|. c #2B231F",
" X c #2C221E",
".X c #2C231E",
"XX c #2C221F",
"oX c #2C231F",
"OX c #2D231F",
"+X c #2D241F",
"@X c #2E241F",
"#X c #2C2420",
"$X c #2D2420",
"%X c #2D2520",
"&X c #2E2420",
"*X c #2E2520",
"=X c #2F2520",
"-X c #2F2521",
";X c #2E2621",
":X c #2F2621",
">X c #302622",
",X c #302722",
/* pixels */
"  : B.x.5.$.$.$.Q L L N N k k s 7 7 7 7 7 , , * * * * * * * * * * * * * * * * , 7 7 7 7 7 s k N L L Q ! $.;.5.7.y.y.y.J.^.*XL   ",
"  L ^.B.q.$.$.Q Q L L N N k s s 7 7 7 7 7 : * * * * * * * * * * * * * * * * * * 7 7 7 7 7 s k N N L Q $.$.;.5.7.q.y.y.J.^..XL   ",
"  x.+XJ.a.$.$.Q Q L N N N k 7 s 7 7 7 7 7 : * * * * * * * * * * * * * * * * * * > 7 7 7 7 s k N N L Q $.$.;.5.7.q.y.a.J.^.^.L   ",
"  A.*XE.B.5.) Q Q L N N N k s s 7 7 7 7 7 : * * * * * * * * * * * * * * * * * * > , 7 7 7 s k N N L Q $.$.;.5.7.q.y.f.J.^.^.L   ",
"  B.*X^.A.7.) Q Q L L N N k s s 7 7 7 7 7 * * * * * * * * * * * * * * * * * * * > , 7 7 7 s k k N L Q $.$.;.5.7.q.y.f.A.^.^.)   ",
"  a.*X.XJ.y.$.Q L L L N N k s s 7 7 7 7 1 * * * * * * * * * * * * * * * * * * * > > 7 7 7 s k k N L Q ! $.;.5.7.q.y.a.A.J.^.)   ",
"  q.,X*X^.B.$.L L L L N N k s s 7 7 7 7 1 * * * * * * * * * * * * * * * * * * * , > 7 7 7 7 k k N L Q $.$.;.5.7.q.y.a.B.J.^.$.  ",
"  *.,X*X^.J.5.L L L L N N k s s 7 7 7 7 1 * * * * * * * * * * * * * * * * * * * > > 7 7 7 s k k N L Q $.$.;.5.7.q.y.y.B.J.^.$.  ",
"  ) ,X,X^.^.y.L L L L N N k s s 7 7 7 7 7 : * * * * * * * * * * * * * * * * * * , , 7 7 7 s k k N L Q ! $.;.5.7.7.y.y.x.J.Q.$.  ",
"  L *X,X.X^.B.Q L L L N N N s s 7 7 7 7 7 : * * * * * * * * * * * * * * * * * * * : 7 7 7 s k k N L Q ! $.;.5.7.7.y.y.x.J.Q.$.  ",
"  s *X,X+X^.J.) N N N N k s s 7 7 7 7 , 7 * * * * * * * * * * * * * * * * * * * * : 7 7 7 7 s k N L L Q $.$.5.7.q.y.y.x.J.J.$.  ",
"  7 .X,X+X.X^.$.N N N N k s 7 7 7 7 7 : * * * * * * * * * * * * * * * * * * * * * : 7 7 7 7 s k N L L Q $.$.;.5.q.y.y.x.J.J.*.  ",
"  , ^.,X*X.XW.Q N N N N k s 7 7 7 7 1 * * * * * * * * * * * * * * * * * * * * * * * 7 7 s s s k N L L Q $.$.;.5.q.y.y.f.A.J.*.  ",
"  * ^.,X+X^.J.L N N N N k s 7 7 7 7 1 * * * * * * * * * * * * * * * * * * * * * * 7 s L $.$.L k N N L Q $.$.;.5.q.y.y.f.A.Q.*.  ",
"    J.*X^.^.y.L N L N N k s 7 7 7 7 1 : * * * * * * * * * * * * * * * * * * * * k L ) $.$.$.$.L N L L Q $.$.5.5.q.y.y.a.A.^.)   ",
"    A.*X^.J.$.L L L N N k 7 7 7 7 7 1 : * * * * * * * * * * * * * * * * * * * 7 $.$.$.$.$.$.$.Q N L L Q $.$.5.5.q.y.y.f.A.^.L   ",
"    B..X^.B.) L L N N N N s 7 7 7 7 7 : * * * * * * * * * * * * * * * * * * * * L Q $.$.$.$.$.L N N L Q $.$.5.5.q.y.y.a.J.^.s   ",
"    B..X^.y.Q L L L N N N s 7 7 7 7 7 : * * * * * * * * * * * * * * * * * * * * 7 L ) $.$.$.Q N N N L Q $.$.5.5.q.y.y.f.^.Q.,   ",
"    B.^.J.5.) Q L L N N N s 7 7 7 7 1 * * * * * * * * * * * * * * * * * * * * * * 7 k N L L k k N L L Q $.$.;.5.q.y.y.B.*XJ.*   ",
"    x.^.f.*.) Q L L N N N s 7 7 7 7 1 * * * * * * * * * * * * * * * * * * * * * * : 7 7 7 7 s k N L L Q $.$.;.5.q.y.y.J.*XB.    ",
"    x.J.q.$.) Q L L N N k s 7 7 7 7 1 * * * * * * * * * * * * * * * * * * * * * * : 7 7 7 7 7 k N L L Q $.$.5.5.q.y.y.^.*Xa.    ",
"    x.B.5.$.) Q L L N N N s 7 7 7 7 1 * * * * * * * * * * * * * * * * * * * * * * : 7 7 7 7 7 k N L L Q ) $.;.5.q.y.B..X*X5.    ",
"  * x.f.5.) Q Q L N N N N s 7 7 7 7 7 * * * * * * * * * * * * * * * * * * * * * * : 7 7 7 7 7 k N N L Q ) $.5.5.q.y.J..X*X$.    ",
"  : x.f.$.) ) Q L L N N N s 7 7 7 7 7 * * * * * * * * * * * * * * * * * * * * * * : 7 7 7 7 7 k N N L Q ) $.$.5.q.y.^..X+X)     ",
"  7 B.f.$.) ) Q L L N N k 7 7 7 7 7 7 : * * * * * * * * * * * * * * 7 N L L s 7 7 : 7 7 7 7 s k N L L Q ) $.$.5.q.x.^..X+X$.    ",
"  7 B.B.$.Q Q Q L L N N k 7 7 7 7 7 7 : * * * * * * * * * * * * * * L $.$.$.! Q L N s 7 7 7 s k N N L Q $.$.$.;.7.B.!..X+X$.    ",
"  s B.B.q.Q L L L L N N k 7 7 7 7 7 7 : * * * * * * * * * * * * * k Q $.$.$.! ! $.$.) L s 7 7 k N L L Q $.$.$.$.5.B.J.^..X*.    ",
"  k A.B.B.$.L L L N N N k 7 7 7 7 7 7 : * * * * * * * * * * * : k Q Q ) ) ) Q Q ) $.$.$.Q N s k N L L Q $.$.$.$.5.x.J.^.^.q.    ",
"  L J.C.B.y.L L L L N N k s 7 7 7 7 1 * * * * * * * * * : k L L Q Q Q Q ) ) ) Q ) $.$.$.$.$.L k N L L Q $.$.5.$.5.y.J.E.^.f.    ",
"  Q J.A.A.B.Q L L L N N k s 7 7 7 7 1 * * * * * * * * * 7 $.) Q Q Q Q Q ) ) ) Q ) $.$.$.$.$.) k N L L Q $.$.5.5.5.7.B.J.^.B.    ",
"  ) J.A.J.J.$.N L L N k k s 7 7 7 7 > * * * * * * * * * : Q $.) Q Q Q Q ) ) Q Q Q $.$.$.$.$.$.L N L L Q ! $.;.5.5.5.a.J.J.B.    ",
"  $.J.J.J.A.$.N L L N k s s 7 7 7 > * * * * * * * * * * * s Q ! Q Q Q Q Q Q Q Q Q ! ! ! ! $.Q k k N N Q Q ! $.$.5.5.q.B.J.B.:   ",
"  5.J.J.J.x.L N N N N k s 7 7 7 7 , * * * * * * * * * * * * k L L L L L L L Q Q Q Q ) ) Q L k s k N L N Q ) $.$.5.5.7.y.J.A.:   ",
"  5.J.J.A.$.L N N N N k s s 7 7 7 , * * * * * * * * * * * * * s N L L L L L L L Q L L L k s s s k N N N L ) $.$.5.5.5.y.B.A.:   ",
"  5.J.C.5.L L N N k k s 7 7 7 7 7 , * * * * * * * * * * * * * * s N Z L L L L L L k 7 7 7 7 7 s s k N L L ) $.$.5.5.5.q.f.B.*   ",
"  ) B.a.) L L L k s s 7 7 7 7 7 7 , * * * * * * * * * * * * * * * 7 s s s s s s 7 * * , 7 7 7 7 s s k L L ) $.$.5.5.5.7.y.x.*   ",
"  s f.5.Q L L L k s s 7 7 7 7 7 : : * * * * * * * * * * * * * * * * * * * * * * * * * , 7 7 7 7 7 s k L L Q ! $.$.;.5.7.y.a.*   ",
"  * 5.$.Q L L L k s s 7 7 7 7 7 * * * * * * * * * * * * * * * * * * * * * * * * * * * , 7 7 7 7 s s k L L Q $.$.$.5.5.7.y.y.*   ",
"    L $.L L N N k s s 7 7 7 7 7 * * * * * * * * * * * * * * * * * * * * * * * * * * * : 1 7 7 7 s s k N L L Q $.$.$.5.5.y.y.*   ",
"    7 ) L L L N k s s 7 7 7 7 , * * * * * * * * * * * * * * * * * * * * * * * * * * * * * 1 7 7 s s k N L L Q ! $.$.$.5.y.q.*   ",
"    7 Q L L N N k k k k s s 7 , : * * * * * * * * * * * * * * * * * * * * * * * * * * * : 7 7 7 s s k N L L Q Q $.$.$.5.y.q.*   ",
"    s Q L L N k N N k s s s 7 , * * * * * * * * * * * * * * * * * * * * * * * * * * * * * : , 7 7 s s k N L L ) ) $.$.5.q.5.*   ",
"    k L L L N k N N k s s 7 7 7 : * * * * * * * * * * * * * * * * * * * * * * * * * * * * : , 7 7 s s k N L L Q ) $.$.5.7.5.*   ",
"  * L L L L N k k N k s s 7 7 7 , * * * * * * * * * * * * * * * * * * * * * * * * * * * * : , 7 7 s s k N L L Q Q $.$.$.5.5.*   ",
"  * Q L L k k s s s s 7 7 7 7 7 , * * * * * * * * * * * * * * * * * * * * * * * * * * * * : , 7 7 7 s s k N L L Q Q $.$.5.$.*   ",
"  * ) L N k s s s s s 7 7 7 7 7 : * * * * * * * * * * * * * * * * * * * * * * * * * * * * : , 7 7 7 s s k k L L L Q ) $.$.$.    ",
"  * Q L k k s s s s s 7 7 7 7 7 : * * * * * * * * * * * * * * * * * * * * * * * * * * * * : , 7 7 7 7 s k k L L L L Q ) $.)     ",
"  * L L k k s s s 7 7 7 7 , , : * * * * * * * * * * * * * * * * * * * * * * * * * * * * * * : , 7 7 7 7 s k N L L L Q ) $.L     ",
"  * L L k s s s 7 7 7 7 , , : * * * * * * * * * * * * * * * * * * * * * * * * * * * * * * * : : , 7 7 s s k N L L L L Q Q L     ",
"  * k N s s s 7 7 7 7 7 , * : * * * * * * * * * * * * * * * * * * * * * * * * * * * * * * * : * , , 7 7 s s k N L L L L Q N     ",
"    s k s s 7 7 7 7 7 7 , : * * * * * * * * * * * * * * * * * * * * * * * * * * * * * * * * * * , 7 7 7 s s s k L L L L L k     ",
"    7 k s s 7 7 7 7 7 7 , : * * * * * * * * * * * * * * * * * * * * * * * * * * * * * * * * * * , 7 7 7 7 s s k k L L L L 7     ",
"    : k s s 7 7 7 , , : : * * * * * * * * * * * * * * * * * * * * * * * * * * * * * * * * * * : : , 7 7 7 s s k k N N L L 7     ",
"    * s s 7 7 7 7 , : : * * * * * * * * * * * * * * * * * * * * * * * * * * * * * * * * * * * : : , 7 7 7 s s s k k k L L :     ",
"    * s 7 7 7 7 , : : * * * * * * * * * * * * * * * * * * * * * * * * * * * * * * * * * * * * * * : : , 7 7 s s s s k k s *     ",
"    * 7 7 7 7 7 , : : * * * * * * * * * * * * * * * * * * * * * * * * * * * * * * * * * * * * * * *   * * 7 7 s s s k 7 *       ",
"      : 7 7 7 7 > : : * * * * * * * * * * * * * * * * * * * * * * * * * * * * * * * * * * * *             * * 7 s 7 * *         ",
"      * 7 7 7 , : * : * * * * * * * * * * * * * * * * * * * * * * * * * *     * * * * * * *                   * * *             ",
"      * : 7 7 * * : : * * * * * * * * * * * * * * * * * * * * * * * *                                                           ",
"        * : * * * * * * * * * * * * * * * * * * * * * * * * * * *                                                               ",
"          *       * * * * * * * * * * * * * * * * * * * * * * *                                                                 ",
"                      * * * *               * * * * * * * *                                                                     ",
"                                                * * * *                                                                         ",
"                                                                                                                                "
};
