/* XPM */
static char * Bne_xpm[] = {
"64 64 24 1",
" 	c #1F1815",
".	c #1D1714",
"+	c #201816",
"@	c #1D1513",
"#	c #1B1513",
"$	c #181211",
"%	c #171110",
"&	c #16100F",
"*	c #140F0E",
"=	c #0D0A09",
"-	c #060504",
";	c #0C0907",
">	c #120D0C",
",	c #0B0808",
"'	c #0A0806",
")	c #0A0707",
"!	c #100C0A",
"~	c #050403",
"{	c #040302",
"]	c #0F0C0A",
"^	c #030202",
"/	c #100B0B",
"(	c #030303",
"_	c #444945",
"  ...++++++.....@@@@###$$$$$$%&&&&&&&*=-======================;;",
"..........@@@##$$$$$$$%%&&&&&&&******>,-==============;,''''')')",
".....@###$$$$$$%%%%&&&&&&&&***>>>>>>>>)-========,'''''''')))))))",
".@@@$$$$%%$%%%&&&&&&*&*******>>>>>>>>>-)=,==''''''''''')))))))))",
"@@#$$$%%%&&&&&&&&******>>>*>>>>>>>>!!>~)'''''''')))))))))))))))-",
"##$$$$&&&&&&&&&&**&&&*****>>>>>>>>>>>!{)'''')))))))))))))))))---",
"#$$$$%&&&%%$$$$$$$$$$$$%&&&&&**>>>>>>]^-))))))))))))))----------",
"$$$$$$###@.@@####$$$$$%%&&&&&****>>>!=^-))))))))-))-------------",
"$$$$##@###$$$$$$$%%%&&*****>*>>>>>>!>={-----------------------~~",
"$$$$$$$$$$$%%&&&&&&**>>>>>>>!!!///====^----~~----------~---~~~~~",
"&$$%%%&&&*&**>*>>>>>>>>>>!!!]========,^~~~{~~~~----~~~~~~~{{{{{{",
"&****>>>>>>!!!!!!!!================,')^~~{{{{{{{{~~~~~~~{{{{{{{^",
">>>!!!!!]]]]================,,,,,''''-^~~{{{{{{{^{^^^{~{{{{{{^^^",
"!!]==============,,''',,''''')))))))){^{{{{{{{{^^^^^^^^^^{^^^^^^",
"========='''''''')))))))))))))))))---^^^{{{{{^^^^^^^^^^^^^^^^^^^",
"'''))))))))))))))-)------------------^^^^^^^^^^^^^^^^^^^^^^^^^^^",
")))--)---------------~~~~~-~~~~~~~{{{^^^^^^^^^^^^^^^^^^^^^^^^^^^",
")-------------~-~~~~~~~~~{{{{{{{^^^^{^^^^^^^^^^^^^^^^^^^^^^^^^^^",
"------~~~---{{^^{{{{^^^^{^^^^^^^^^^^^^^^^^^^^^^^^^^^^^^^^^^^^^^^",
"--~~~~((~{{^^^^^^^^^^^^^^^^^^^^^^^^^^^^^^^^^^^^^^^^^^^^^^^^^^^^^",
"-~~{^^^^{^^^^^^^^^^^^^^^^^^^^^^^^^^^^^^^^^^^^^^^^^^^^^^^^^^^^^^^",
"~{{{^^^^^^^^^^^^^^^^^^^^^^^^^^^^^^^^^^^^^^^^^^^^^^^^^^^^^^^^^^^^",
"^^^^^^^^^^^^^^^^^^^^^^^^^^^^^^^^^^^^^^^^^^^^^^^^^^^^^^^^^^^^^^^^",
"^^^^^^^^^^^^^^^^^^^^^^^^^^^^^^^^^^^^^^^^^^^^^^^^^^^^^^^^^^^^^^^^",
"^^^^^^^^^^^^^^^^^^^^^^^^^^^^^^^^^^^^^^^^^^^^^^^^^^^^^^^^^^^^^^^^",
"^^^^^^^^^^^^^^^^^^^^^^^^^^^^^^^^^^^^^^^^^^^^^^^^^^^^^^^^^^^^^^^^",
"^^^^^^^^^^^^^^^^^^^^^^^^^^^^^^^^^^^^^^^^^^^^^^^^^^^^^^^^^^^^^^^^",
"^^^^^^^^^^^^^^^^^^^^^^^^^^^^^^^^^^^^^^^^^^^^^^^^^^^^^^^^^^^^^^^^",
"^^^^^^^^^^^^^^^^^^^^^^^^^^^^^^^^^^^^^^^^^^^^^^^^^^^^^^^^^^^^^^^^",
"^^^^^^^^^^^^^^^^^^^^^^^^^^^^^^^^^^^^^^^^^^^^^^^^^^^^^^^^^^^^^^^^",
"^^^^^^^^^^^^^^^^^^^^^^^^^^^^^^^^^^^^^^^^^^^^^^^^^^^^^^^^^^^^^^^^",
"^^^^^^^^^^^^^^^^^^^^^^^^^^^^^^^^^^^^^^^^^^^^^^^^^^^^^^^^^^^^^^^^",
"^^^^^^^^^^^^^^^^^^^^^^^^^^^^^^^^^^^^^^^^^^^^^^^^^^^^^^^^^^^^^^^^",
"^^^^^^^^^^^^^^^^^^^^^^^^^^^^^^^^^^^^^^^^^^^^^^^^^^^^^^^^^^^^^^^^",
"^^^^^^^^^^^^^^^^^^^^^^^^^^^^^^^^^^^^^^^^^^^^^^^^^^^^^^^^^^^^^^^^",
"^^^^^^^^^^^^^^^^^^^^^^^^^^^^^^^^^^^^^^^^^^^^^^^^^^^^^^^^^^^^^^^^",
"^^^^^^^^^^^^^^^^^^^^^^^^^^^^^^^^^^^^^^^^^^^^^^^^^^^^^^^^^^^^^^^^",
"_^^^^^^^^^^^^^^^^^^^^^^^^^^^^^^^^^^^^^^^^^^^^^^^^^^^^^^^^^^^^^^^",
"__^^^^^^^^^^^^^^^^^^^^^^^^^^^^^^^^^^^^^^^^^^^^^^^^^^^^^^^^^^^^^^",
"____^^^^^^^^^^^^^^^^^^^^^^^^^^^^^^^^^^^^^^^^^^^^^^^^^^^^^^^^^^^^",
"_____^^^^^^^^^^^^^^^^^^^^^^^^^^^^^^^^^^^^^^^^^^^^^^^^^^^^^^^^^^^",
"______^^^^^^^^^^^^^^^^^^^^^^^^^^^^^^^^^^^^^^^^^^^^^^^^^^^^^^^^^^",
"_______^^^^^^^^^^^^^^^^^^^^^^^^^^^^^^^^^^^^^^^^^^^^^^^^^^^^^^^^^",
"_______^^^^^^^^^^^^^^^^^^^^^^^^^^^^^^^^^^^^^^^^^^^^^^^^^^^^^^^^^",
"________^^^^^^^^^^^^^^^^^^^^^^^^^^^^^^^^^^^^^^^^^^^^^^^^^^^^^^^^",
"________^^^^^^^^^^^^^^^^^^^^^^^^^^^^^^^^^^^^^^^^^^^^^^^^^^^^^^^^",
"_________^^^^^^^^^^^^^^^^^^^^^^^^^^^^^^^^^^^^^^^^^^^^^^^^^^^^^^^",
"__________^^^^^^^^^^^^^^^^^^^^^^^^^^^^^^^^^^^^^^^^^^^^^^^^^^^^^^",
"___________^^^^^^^^^^^^^^^^^^^^^^^^^^^^^^^^^^^^^^^^^^^^^^^^^^^^^",
"____________^^^^^^^^^^^^^^^^^^^^^^^^^^^^^^^^^^^^^^^^^^^^^^^^^^^^",
"____________^^^^^^^^^^^^^^^^^^^^^^^^^^^^^^^^^^^^^^^^^^^^^^^^^^^^",
"_____________^^^^^^^^^^^^^^^^^^^^^^^^^^^^^^^^^^^^^^^^^^^^^^^^^^^",
"_______________^^^^^^^^^^^^^^^^^^^^^^^^^^^^^^^^^^^^^^^^^^^^^^^^^",
"________________^^^^^^^^^^^^^^^^^^^^^^^^^^^^^^^^^^^^^^^^^^^^^^^^",
"___________________^^^^^^^^^^^^^^^^^^^^^^^^^^^^^^^^^^^^^^^^^^^^^",
"_____________________^^^^^^^^^^^^^^^^^^^^^^^^^^^^^^^^^^^^^^^^^^^",
"_____________________^^^^^^^^^^^^^^^^^^^^^^^^^^^^^^^^^^^^^^^^^^^",
"______________________^^^^^^^^^^^^^^^^^^^^^^^^^^^^^^^^^^^^^^^^^^",
"_______________________^^^^^^^^^^^^^^^^^^^^^^^^^^^^^^^^^^^^^^^^^",
"________________________^^^^^^^^^^^^^^^^^^^^^^^^^^^^^^^^^^^^^^^^",
"_________________________^^^^^^^^^^^^^^^^^^^^^^^^^^^^^^^^^^^^^^^",
"___________________________^^^^^^^^^^^^^^^^^^^^^^^^^^^^^^^^^^^^^",
"___________________________^^^^^^^^^^^^^^^^^^^^^^^^^^^^^^^^^^^^^",
"____________________________^^^^^^^^^^^^^^^^^^^^^^^^^^^^^^^^^^^^"};
