/* XPM */
static char * bne_xpm[] = {
"64 64 142 2",
"  	c #060904",
". 	c #010201",
"+ 	c #0A0C04",
"@ 	c #0E1106",
"# 	c #121508",
"$ 	c #111507",
"% 	c #141907",
"& 	c #191E0A",
"* 	c #1F250C",
"= 	c #1D220B",
"- 	c #1B200B",
"; 	c #060E08",
"> 	c #232A0E",
", 	c #20270D",
"' 	c #272F10",
") 	c #252C0F",
"! 	c #1E230C",
"~ 	c #242A10",
"{ 	c #2B3313",
"] 	c #282F10",
"^ 	c #212711",
"/ 	c #181D09",
"( 	c #2D3514",
"_ 	c #2C3413",
": 	c #242B0E",
"< 	c #1E240B",
"[ 	c #2A3316",
"} 	c #071109",
"| 	c #303918",
"1 	c #303817",
"2 	c #2B3718",
"3 	c #222810",
"4 	c #2C3719",
"5 	c #181E0C",
"6 	c #0B140B",
"7 	c #323E1B",
"8 	c #2A3517",
"9 	c #283E20",
"0 	c #242F15",
"a 	c #0F1807",
"b 	c #323F1D",
"c 	c #2E3A1A",
"d 	c #253115",
"e 	c #1B210E",
"f 	c #2D4E2B",
"g 	c #1A2E17",
"h 	c #253419",
"i 	c #1F2611",
"j 	c #151A0A",
"k 	c #0D1A0D",
"l 	c #32411E",
"m 	c #2F3716",
"n 	c #2B3C1A",
"o 	c #2D522E",
"p 	c #254325",
"q 	c #253A1D",
"r 	c #1B2511",
"s 	c #334522",
"t 	c #315630",
"u 	c #1C2B15",
"v 	c #142413",
"w 	c #121D10",
"x 	c #2B4523",
"y 	c #355B33",
"z 	c #224529",
"A 	c #0D1D12",
"B 	c #344B26",
"C 	c #344E28",
"D 	c #346137",
"E 	c #1D391F",
"F 	c #2B4C2A",
"G 	c #22341A",
"H 	c #1D3015",
"I 	c #1B2F1A",
"J 	c #162917",
"K 	c #34532C",
"L 	c #254A2B",
"M 	c #1D3A21",
"N 	c #233E22",
"O 	c #1C331C",
"P 	c #142B1A",
"Q 	c #386137",
"R 	c #2E5A34",
"S 	c #2C5532",
"T 	c #34643A",
"U 	c #1B3720",
"V 	c #0F2315",
"W 	c #1F280F",
"X 	c #39663A",
"Y 	c #366A3E",
"Z 	c #27502E",
"` 	c #2C4A25",
" .	c #3A6A3E",
"..	c #315F38",
"+.	c #284F30",
"@.	c #3A6E40",
"#.	c #2E643D",
"$.	c #275333",
"%.	c #16321D",
"&.	c #35582F",
"*.	c #385E35",
"=.	c #418A56",
"-.	c #44935D",
";.	c #428D59",
">.	c #3B7344",
",.	c #1D4026",
"'.	c #254F32",
").	c #479760",
"!.	c #3E8955",
"~.	c #407D4D",
"{.	c #3B7847",
"].	c #377245",
"^.	c #0F2816",
"/.	c #2C5D39",
"(.	c #519E67",
"_.	c #3C7B4B",
":.	c #3A7649",
"<.	c #4D9C65",
"[.	c #4B9661",
"}.	c #275836",
"|.	c #356D43",
"1.	c #367449",
"2.	c #59A56D",
"3.	c #529F68",
"4.	c #418553",
"5.	c #49935E",
"6.	c #36784B",
"7.	c #53A169",
"8.	c #316641",
"9.	c #3E8351",
"0.	c #444945",
"a.	c #1C230C",
"b.	c #3F804F",
"c.	c #407D51",
"d.	c #16220D",
"e.	c #2C421D",
"f.	c #2B3917",
"g.	c #293011",
"h.	c #242C0F",
"i.	c #2B3414",
"j.	c #242D11",
"k.	c #253214",
"        . . . . . . . . . . . . . . . . . . . . . . . . . .     .     . . .     . . . . . . . . . . . . . . . . . . . . . . . . ",
"+ +         . . . . . . . . . . . . . . . . . .     . . .                 . .   . . . . . . . . . . . . . . . . . . . . . . . . ",
"@ @ + +       . . . . . . . . . . . . . . . .         .                     .   . . . . . . . . . . . . . . . . . . . . . . . . ",
"# # $ @ + +       . . . . . . . . . . . . .       + + .                     .     . . . . . . . . . . . . . . . . . . . . . . . ",
"% % # # $ @ + +     . .       . . . . .         @ # $   +                   .     . . . . . . . . . . . . . . . . . . . . . . . ",
"& & & % % # @ @ +     .                       + $ % %   + + +                 .     . . . . . . . . . . . . . . . . . . . . . . ",
"* = = - & % % # @ + +     @ +             + + $ % - -   $ $ + + + +           . ;   . . . . . . . . . . . . . . . . . . . . . . ",
"> , * * = - & % # $ @ +   $ # @ + + + + + + @ $ - , *   % # $ @ @ + +         .       . . . . . . . . . . . . . . . . . . . . . ",
"' ) > > > * ! - & % # @   $ & # @ @ @ @ @ @ # & * ~ ,   & % # $ @ @ + + +     .   ;   . . . . . . . . . . . . . . . . . . . . . ",
"{ { ) , > > > * = & % # @ @ * & # # $ $ # # % - > ] ^   - - / $ $ @ @ + + + +     ;   . . . . . . . . . . . . . . . . . . . . . ",
"( ( _ ' * , ) : > * = & # @ > * & % # % % % & < ' [ *   ! * - % $ $ @ @ + + +   . } ;   . . . . . . . . . . . . . . . . . . . . ",
"| 1 ( ( ) = : ] ) > , ! % @ { ) = & / / & & - , { 2 & + & 3 ! & % # $ @ @ @ + + . } ;   . . . . . . . . . . . . . . . . . . . . ",
"| | | 1 ( > > { { ' > > - $ ( { , = & - = = = > [ 4 # - $ ' 3 ! 5 % # $ $ @ @ + . 6 } ;     . . . . . . . . . . . . . . . . . . ",
"7 7 7 7 | ( ) ( ( { ] ) ! % | ( ) , * < < ! , ' ( 8 % 9 # 0 0 ^ ! 5 % # # a a 6 . 6 6 ;     . . . . . . . . . . . . . . . . . . ",
"b b b b 7 | ] ( ( ( { { * & b ( ' > , , , , : { c d e f g 0 h 0 i e 5 j % # k a . .   ; ;   . . . . . . . . . . . . . . . . . . ",
"l l l l l b m ( ( 1 ( _ , ! l 1 { ) > > > : { ( n * 0 o p e q h 0 i r 5 5 j j k   6   .       . . . . . . . . . . . . . . . . . ",
"s s s s s s l b ( ( | ( = 3 l | _ { { ) ) ] ( b s % n t o 5 p q h 0 u r v w w w   6 6 6   . .   . . . . . . . . . . . . . . . . ",
"s s s s s s s l b ( m | % 2 l | ( ( { { { ( | s n % x y y v z p q h g u r v v v   k A 6 6 ; . .   . . . . . . . . . . . . . . . ",
"s s s s s s s s s | ( ( + b l 7 | 1 ( ( ( | s B d i C y D E p F x q G H I u J J + A A k 6 6   .     . . . . . . . . . . . . . . ",
"B s B B B B B B s l | ' - s l 7 7 | | | | l B C & n K y D L M f F p N G O H I P + v v A A 6 } .     . . . . . . . . . . . . . . ",
"B B B B B B B B B s l & 2 s s l b b b b l s K B % K C Q D R J S o F p N N M E O + v P v A 6 6 ; . ;   . . . . . . . . . . . . . ",
"B B B B B B B B B B l $ s B s l s l l s s C K h q y K D T D v S S o F p p N M U 6 P P P V A 6 6 .   ;   . . . . . . . . . . . . ",
"B B B B B B B B B C n W B B s s s s s B B K y $ y X Q D T Y E Z R R o f L L z M ; P v A k 6 ;     .       . . . . . . . . . . . ",
"B B B B B B B B C K u n K B B B B B B K ` K ` g  .X X T T  .S U R ..R S S +.z J . .   ; } } ; ;     . . . . . . . . . . . . . . ",
"C C B B B B B C K y % B K K C B C C K K y X G o  .X X X T  .@.U L #.T #.$.P ; V %.U U P v v k k 6 ; +       . . . . . . . . . . ",
"K K C B B B B K y K & &.y K K K K K y *.X Q / =.-.;.>. .X  .>.@.E ,.$.,.6 U '.$.L N U I J v j k @ + +         . . . . . . . . . ",
"*.K K C B B K y y y 0 *.y y y y y y Q X  .&.p ).).).-.!.=.~.{.>.].$.  ^./.#./.S L p M H u v 5 k @ @ +           . . . . . . . . ",
"(.;.*.K B B K y _.X h X Q Q *.*.Q X  .@.>.N :.<.<.<.).).).[.[.;._.}.U |.1.|.#.S f p N O u J 5 j # @ +           . . . . . . . . ",
"2.3.;.{.@.C &._._.E h  .X X X X  . .>.{.>.% 4.<.<.<.<.<.<.(.(.5.1.P 6._.6.|.T R Z z N G I u v j # $ @ +           . . . . . . . ",
"7.7.<.<.<.=.>._.M . d  .@. . .@.>.>.{._.X . 8.<.<.<.<.<.(.3.(.[.$.#.!.9._.].Y ..S f p N G g r 5 % # $ + +           . . . . . . ",
"7.7.(.<.<.4._.p . 0.a.>.{.>.{.{._._._.b.S . A ).<.<.<.<.3.7.3.[.L 6.!.9._.].|.Y R S F p q h u r 5 % $ @ + +         . . . . . . ",
"7.(.3.(.<.{.N . 0.0.% @.{._._._._.b.9.9.x 0.0.1.<.<.<.<.<.7.7.(.}.6.!.9._.:.].Y T R o F p q h u r 5 % $ $ + +         . . . . . ",
"(.(.(.(.5.p . 0.0.0.+  ._._._.b.b.9.9.9.q 0.0.%.).<.<.<.<.(.3.(.c.%.#.|.X T ..y S S o F x N q h u r 5 % $ @ + +         . . . . ",
"<.<.<.).S . 0.0.0.0.0...b.b.b.9.9.9.=.4.H 0.0.0.|.<.<.<.<.<.(.7.3.=.S p q u r d.5 % % j e g d h 0 u i 5 % $ @ + +       . . . . ",
"Y L ,.k . 0.0.0.0.0.0.` 9.9.9.9.!.!.=.=.H 0.0.0.V ;.<.<.<.<.<.(.7.7.(.[.-.@.D y y y &.` p h d.@ @ 5 e e 5 % $ @ +       . . . . ",
"0.0.0.0.0.0.0.0.0.0.0.e _._.|.=.=.;.;.;.H 0.0.0.0.$.<.<.<.<.<.<.(.(.(.<.-.9.X X D D ..y t o f ` q u @   @ $ $ @ +         . . . ",
"0.0.0.0.0.0.0.0.0.0.0.  Y =.=.;.;.;.-.-.N 0.0.0.0.. 1.<.<.<.<.<.<.<.<.<.-.b.X X T Q y y t o f ` 9 h i $                 . . . . ",
"0.0.0.0.0.0.0.0.0.0.0.0.N =.;.;.-.-.-.-.F 0.0.0.0.0.A ;.<.<.<.<.<.<.<.<.).-.@.X X y B C B e.d * % $ % e * * * e % $ @ +     . . ",
"0.0.0.0.0.0.0.0.0.0.0.0.  >.-.-.-.-.-.-.R 0.0.0.0.0.0.6 '.|.4.).<.<.<.<.).).4. . .X y n - $ & 3 d 2 2 d ' 3 * - % $ @ +     . . ",
"0.0.0.0.0.0.0.0.0.0.0.0.0.u 9.-.-.).).).T 0.0.0.0.0.0.0.0.0.. V /.4.<.<.<.).=. .y q $ e n e.s n c [ ' ~ , ! & % $ + +       . . ",
"0.0.0.0.0.0.0.0.0.0.0.0.0.0.H _.).).).).S 0.0.0.0.0.0.0.0.0.0.0.0.. z ;.).4.T r % q B C B l n ( { ) , * - & % $ @ +       . . . ",
"0.0.0.0.0.0.0.0.0.0.0.0.0.0.0.d...=.;.>.5 0.0.0.0.0.0.0.0.0.0.0.0.0.0.k G r N &.y &.B e.n c 8 { ) , = - & % $ @ +     . . . . . ",
"0.0.0.0.0.0.0.0.0.0.0.0.0.0.0.0.. a a 0.0.0.0.0.0.0.0.0.0.. 0.0.  6 v M S Y Y T &.x n n f.8 { ' > * = & % # @ + +     . . . . . ",
"0.0.0.0.0.0.0.0.0.0.0.0.0.0.0.0.0.0.0.0.0.0.0.0.0.0.0.. p _.4.:.|.Y Y Y T y &.` x n 8 f.8 { g.) > < = & % # @ +       . . . . . ",
"0.0.0.0.0.0.0.0.0.0.0.0.0.0.0.0.0.0.0.0.0.0.0.0.0.0.0.  4.).-.;._.@.Q y K ` ` e.n n 8 8 { g.) > , < = - % $ @ +       . . . . . ",
"0.0.0.0.0.0.0.0.0.0.0.0.0.0.0.0.0.0.0.0.0.0.0.0.0.0.0.5 -.).-.=.{.T &.C ` x e.n f.8 8 g.g.' h.> > < < - / # @ +     . . . . . . ",
"0.0.0.0.0.0.0.0.0.0.0.0.0.0.0.0.0.0.0.0.0.0.0.0.0.0.0.  4.).-.=.{.T &.` e.n n 8 i.g.g.g.' h.h.> > > < = & % $ +     . . . . . . ",
"0.0.0.0.0.0.0.0.0.0.0.0.0.0.0.0.0.0.0.0.0.0.0.0.0.0.0.0.y -.-.!.{.T &.` e.n f.i.g.g.g.' j.h.h.h.= , ) > = & $ @ +     . . . . . ",
"0.0.0.0.0.0.0.0.0.0.0.0.0.0.0.0.0.0.0.0.0.0.0.0.0.0.0.0.j _.-.=._.Y &.` e.n f.i.i.i.g.g.k.j.h.j.) ' g.' > ! & $ +     . . . . . ",
"0.0.0.0.0.0.0.0.0.0.0.0.0.0.0.0.0.0.0.0.0.0.0.0.0.0.0.0.0.g 9.;.b.].D o ` x e.n q q q i.k.3 W > j.' ' ' > * - % $ +   . . . . . ",
"0.0.0.0.0.0.0.0.0.0.0.0.0.0.0.0.0.0.0.0.0.0.0.0.0.0.0.0.0.0.O :.9.{.Y ..o f ` ` ` x q h u - % @ +       .       + +   . . . . . ",
"0.0.0.0.0.0.0.0.0.0.0.0.0.0.0.0.0.0.0.0.0.0.0.0.0.0.0.0.0.0.0.v }.:.{.].T D ..R o p H j @ % * > : > * = & # @   . . . . . . . . ",
"0.0.0.0.0.0.0.0.0.0.0.0.0.0.0.0.0.0.0.0.0.0.0.0.0.0.0.0.0.0.0.0.0.u z S S S L E j a a.k.8 i.{ { { ) > < - % $ @     . . . . . . ",
"0.0.0.0.0.0.0.0.0.0.0.0.0.0.0.0.0.0.0.0.0.0.0.0.0.0.0.0.0.0.0.0.0.0.  @ j d.u d n e.e.e.c 8 i.{ { ) , = & % $ @ +     . . . . . ",
"0.0.0.0.0.0.0.0.0.0.0.0.0.0.0.0.0.0.0.0.0.0.0.0.0.0.0.0.0.0.0.0.0.0.@ q e.e.e.e.e.e.e.e.n f.8 i.{ ' > * - & % $ @ +     . . . . ",
"0.0.0.0.0.0.0.0.0.0.0.0.0.0.0.0.0.0.0.0.0.0.0.0.0.0.0.0.0.0.0.0.0.  u d d H H k.i.n n n n n n f.8 i.{ ) , = & % $ @ +     . . . ",
"0.0.0.0.0.0.0.0.0.0.0.0.0.0.0.0.0.0.0.0.0.0.0.0.0.0.0.0.0.0.@ 5 u q F f o o o F p E d.a.k.f.n n m ( 8 { ' , = & % # @ +     . . ",
"0.0.0.0.0.0.0.0.0.0.0.0.0.0.0.0.0.0.0.0.0.0.0.0.0.0.0.0./ p D >._.{.>.@. .X *.y &.K K ` q v e g.n n c m { ) > = & % # @       . ",
"0.0.0.0.0.0.0.0.0.0.0.0.0.0.0.0.0.0.0.0.0.0.0.0.0.0.g T b.=.4.b._.{.>. .Q y K K B s s l s x h / % 3 c 7 c ( { ) * - % $ +     . ",
"0.0.0.0.0.0.0.0.0.0.0.0.0.0.0.0.0.0.0.0.0.0.0.0.0.o =.-.-.=.4.b._.>. .X *.K K B s b | 1 ( ( { ' < $ @ > c 7 | ( { > = % @ +     ",
"0.0.0.0.0.0.0.0.0.0.0.0.0.0.0.0.0.0.0.0.0.0.0.0.y -.).-.-.;.4.b._.>. .Q y K C s l | ( _ { { ) > > * / @ + > m 7 ( { > = % @ +   ",
"0.0.0.0.0.0.0.0.0.0.0.0.0.0.0.0.0.0.0.0.0.0.0.h -.).).-.-.;.4.b._.>. .Q y K B s b | ( { { ' > > * ! & % # +   ! [ ( { , & # @   ",
"0.0.0.0.0.0.0.0.0.0.0.0.0.0.0.0.0.0.0.0.0.0.0.T <.).).).-.-.=.9._.{. .X *.K C s l | ( { ] ) > , ! = & % # $ +     + / & % # @ + ",
"0.0.0.0.0.0.0.0.0.0.0.0.0.0.0.0.0.0.0.0.0.0.0.|.<.<.).).-.-.;.4._._.>. .Q y K B l | ( { ' > > * = & % # # $ @ +     . . . . . . "};
