/* XPM */
static char * Bnew_xpm[] = {
"64 64 37 1",
" 	c #332925",
".	c #342A26",
"+	c #352C27",
"@	c #362C28",
"#	c #382E2A",
"$	c #3A302B",
"%	c #312823",
"&	c #352B28",
"*	c #3A302C",
"=	c #3A2F2C",
"-	c #3C302C",
";	c #302723",
">	c #2D2522",
",	c #302724",
"'	c #2B2421",
")	c #2B2320",
"!	c #28211E",
"~	c #2C2320",
"{	c #2F2724",
"]	c #27201C",
"^	c #2C231F",
"/	c #241E1B",
"(	c #261F1C",
"_	c #221B19",
":	c #201A17",
"<	c #1E1916",
"[	c #2B241F",
"}	c #1A1513",
"|	c #161310",
"1	c #1F1918",
"2	c #14110E",
"3	c #110E0D",
"4	c #0D0B0A",
"5	c #0A0807",
"6	c #080706",
"7	c #020202",
"8	c #444945",
"  ..+...................@..@++@@@@@@@@@@@@@@@@@#####@@####$$$$$$",
"%   ........................@++@@@@@@@@@@@@@@@@@####@@####$$$$##",
"     ...@@@@@#@@@&&...................+@@@@@@@@@@@@@@@@@###$*$##",
"    ...@@######*###@@@@.....  .      ...&@&&@@@@@@@@@@@@####$###",
" ....+@@####=*-***####@@..                  .....&+++.@@@@@#####",
"..@@@####****---===####@@. .                       ....+@@@@@###",
"####=#*=****-***==#####@@@.. .          ;  ; >;          ..+@@@@",
"#######=****-**=######@@@@.....        ;,;;;;;;;;;%   ,     ...@",
"#####=****---*####@@@@@@@..   ....   ,,,,;>>>>>>>>>>>>>>;,     .",
"###**=**=*==*#######@#@@&.       . .    ; >>>>>>>>>>>>>>>>>;,   ",
"##====###############@@&.              %>>>>>>>>>>>>>>>>>>>>>;;%",
"#########@@@@#@@@@&&.&..          ,%>>>>>>>>>>'>>>>>>>>>>>>>>>>>",
"@#######@@@.@.........         ,>>>>>'))!!!!!!!)))~))>'>>>>>>>>>",
" ..&@@@@@...              ,,{>>>~!!!!!]!!!!!!!!!!!)!!~)>))>~>>^>",
";;,    ..........        {>>'!!]////(((((]](!!]!!!!!!!)'''>>>>>>",
">>>>>>>>;          ,,>>>)!//________/_/(/(((]]]]!!!!!!!)''>>>>^>",
"]]!!!!!!!!!!!!!!!!](/____:<<::::______/////((]]!!!!!!))'))>)~'))",
"_____________:<<<<<<<<<<<<<<<<<:_:____//(]]!!!))))'''>>>'[!!!!!!",
"__:::<<<<<<<<<<<<<<<<<<<<<<<<<<<:___/(]!!))'>>>>    {>>>>>>>))^!",
"::::<<<<<<<<<<<<<<<<<<<<<<<<<<<:__/(]!)'>>>   &@@##@.  ,>>>>>>)!",
"::<<<<<<<<<<<<<<<<<<<<<<<<<<<___/(!!))>{,  .&&@@@@@@@&    ;>>>>)",
"<<<<<<<<<<}}}}}}}}}}}}<<<<______/(!!)>>    ..&&&&&.  >>>)!!!](//",
"<<<<<}}}}}}}}}}}}}|}}}}<<<<<111_______/((]]((//_____<<<<<<::<:__",
"}}}}}}}}}}}}}||||||||}}}}}}}}||||}}}}}}}}}}}}}}}}}}}}<<<<<<<<<<<",
"}}}}}}|||||||||||||||||||||||222|||||||||||}}}}}}}}}}}}}}}}<<<<<",
"}}}|||||222222222222222222222222222222222|||||||||||}|||||}}}}}}",
"||22222223333333333333333333333332222222222222222|222|||||||}}}}",
"2222223333333344434444433333333333333333333333222222222222||||}}",
"222333333334444444444444444444444444443333333322333222222222||||",
"3333333344444444444444444444444444444434444333333333333322222222",
"3333444444444444444444444444444444444444444444444443333333333222",
"3444444444444444444444444444444444444444444444444444444333333333",
"4444444444444444444444454444444444444444444444444444444444433333",
"4444444455555666666666666666666665444444445544444444444444444433",
"4455555556666666666666666666666666666666556665554444444444444444",
"4455656666666666666666666666666666666666666666554444444444444444",
"5444566666666766666666666666666666666666666666666666666555444444",
"4433444444444446676666667766667777666666776666666666666666655554",
"4444444444446677777777777777777777777777776666666666666666666666",
"6666666677777777777777777777777777777777777666666666666666666666",
"6676676677777777777777777777777777777777776766766766666666666666",
"7777777676666666666666666666777777777777777777777777777777666666",
"6666666666666666666666666666666666667777777777777777777777766666",
"6666666666666666666666666666666666666667777777777777777777777777",
"7777777777666666666666666666677777777777777777777777777777777777",
"7777777777777777777777777777777777777777777777777777777777777777",
"7777777777777777777777777777777777777777777777777777777777777777",
"7777777777777777777777777777777777777777777777777777777777777777",
"7777777777777777777777777777777777777777777777777777777777777777",
"7777777777777777777777777777777777777777777777777777777777777777",
"7777777777777777777777777777777777777777777777777777777777777777",
"7777777777777777777777777777777777777777777777777777777777777777",
"7777777777777777777777777777777777777777777777777777777777777777",
"7777777777777777777777777777777777777777777777777777777777777777",
"7777777777777777777777777777777777777777777777777777777777777777",
"8777777777777777777777777777777777777777777777777777777777777777",
"8888888888888888888888877777777777777777777777777777777777777778",
"8888888888888888888888888888777777777777777777777777777778888888",
"8888888888888888888888888888888888887777777777777777888888888888",
"8888888888888888888888888888888888888888888888888888888888888888",
"8888888888888888888888888888888888888888888888888888888888888888",
"8888888888888888888888888888888888888888888888888888888888888888",
"8888888888888888888888888888888888888888888888888888888888888888",
"8888888888888888888888888888888888888888888888888888888888888888"};
