/* XPM */
static char * bnew_xpm[] = {
"64 64 126 2",
"  	c #010100",
". 	c #070903",
"+ 	c #0A0C05",
"@ 	c #0E1107",
"# 	c #121509",
"$ 	c #111506",
"% 	c #161A0A",
"& 	c #191E0A",
"* 	c #1D230C",
"= 	c #232A0E",
"- 	c #20270D",
"; 	c #252D11",
"> 	c #2B3313",
", 	c #313C1A",
"' 	c #32411E",
") 	c #334622",
"! 	c #2C3C1B",
"~ 	c #2F3817",
"{ 	c #2A3718",
"] 	c #344A25",
"^ 	c #354E28",
"/ 	c #35512A",
"( 	c #36532C",
"_ 	c #36542C",
": 	c #375B32",
"< 	c #385D33",
"[ 	c #385E34",
"} 	c #375C32",
"| 	c #3B6F41",
"1 	c #3C7546",
"2 	c #396439",
"3 	c #36582F",
"4 	c #386036",
"5 	c #396338",
"6 	c #39683B",
"7 	c #3B7344",
"8 	c #408653",
"9 	c #3F8350",
"0 	c #3E7F4D",
"a 	c #355730",
"b 	c #1A2711",
"c 	c #3A693C",
"d 	c #3A6D3F",
"e 	c #3B7041",
"f 	c #428D59",
"g 	c #408754",
"h 	c #3D7949",
"i 	c #408956",
"j 	c #41915B",
"k 	c #282F11",
"l 	c #2B4C2A",
"m 	c #3E7C4B",
"n 	c #43935E",
"o 	c #3F814F",
"p 	c #22351A",
"q 	c #44945E",
"r 	c #43945E",
"s 	c #303817",
"t 	c #3F8351",
"u 	c #43935D",
"v 	c #479760",
"w 	c #408552",
"x 	c #377145",
"y 	c #479861",
"z 	c #4B9A63",
"A 	c #2E4926",
"B 	c #2F5E38",
"C 	c #254325",
"D 	c #4A9661",
"E 	c #519F68",
"F 	c #54A16A",
"G 	c #335730",
"H 	c #5AA66D",
"I 	c #63AB72",
"J 	c #5EA86F",
"K 	c #2C502E",
"L 	c #2A4423",
"M 	c #35542D",
"N 	c #3A7649",
"O 	c #6AAF75",
"P 	c #223E21",
"Q 	c #356D43",
"R 	c #5FA970",
"S 	c #3B7345",
"T 	c #233A1E",
"U 	c #49935E",
"V 	c #1B341C",
"W 	c #1C2B14",
"X 	c #3B7042",
"Y 	c #36693E",
"Z 	c #396741",
"` 	c #6BB177",
" .	c #263115",
"..	c #32643C",
"+.	c #2D5935",
"@.	c #51895A",
"#.	c #70B379",
"$.	c #34512B",
"%.	c #305F39",
"&.	c #418B57",
"*.	c #559762",
"=.	c #6FB278",
"-.	c #39673B",
";.	c #3D7B4B",
">.	c #3D7848",
",.	c #43915B",
"'.	c #254729",
").	c #16210C",
"!.	c #142512",
"~.	c #1F3016",
"{.	c #2C5431",
"].	c #444945",
"^.	c #498F5B",
"/.	c #1D3C22",
"(.	c #0C1608",
"_.	c #418C58",
":.	c #356740",
"<.	c #26492A",
"[.	c #3F7F50",
"}.	c #151A07",
"|.	c #2F401E",
"1.	c #071005",
"2.	c #1F4025",
"3.	c #275231",
"4.	c #132B16",
"5.	c #16301A",
"                                                                                                                                ",
"                                                                                                                                ",
"                                                                                                                                ",
"                                                                                                                                ",
"                                                                                                                                ",
"                                                                                                                                ",
"                                        . . . . . . . . .                                                   .                   ",
"                                . . . . . . . . . . . . . . . . . .                                       . + .                 ",
"                          . . . . . . . + + + + + + + + + + + + . . . . .                               . + @ @                 ",
"                      . . . . . + + + + + + @ @ @ @ @ # $ @ @ + + + + + . . .           . .         . . . @ # %                 ",
"                        . . . + + + @ @ @ $ # # # # # & & # # $ @ @ @ + + + . . .       . . . . . . . . + # & *                 ",
"                        . + + @ @ $ # # # # % % % & & = = * % % # # # $ @ + + + . . .   + @ + + . . + + @ % - =                 ",
"                        . + + # # # % % & & & & * - ; > > > * * & & % % # $ @ + + + . . + # @ + + @ @ @ # * ; ;                 ",
"                          + $ % % % & & * * * - ; > , , , , > = * * * & % % # $ @ + + . + & % # @ @ $ # % = > >                 ",
"                          . % & & * * * - = > , ' ) ) ) ) ) ) ! = = - * * & % # # @ + + . - * % # # % % * = ~ ;                 ",
"                            $ * * * - = { ' ] ^ / ( _ / / / ^ ^ ) > = = - * & % # # @ + . ; = * & & & * * > , -                 ",
"                        . . . * = ; ! ^ / ( _ : < [ } : : _ _ | 1 2 ] > = = * * & % # $ + > > - * * * * = > , & .               ",
"                    . . + + + ; ) / 3 : [ 4 5 2 6 2 4 [ < [ 7 8 9 0 1 a > ; = - * & % # @ , > = - - * - = > , @ . .             ",
"                  . . + + $ # b : < [ 2 c d | e | d c 5 2 0 f f f g 9 h ^ > > = = * * % $ , > = = = = = > , ! + + + . .         ",
"        . .   . . . + + @ # & $ : 5 2 | 1 1 1 1 7 e c e i j j j j f i 8 h 2 / ~ k = * & & ' ~ > > ; = > ~ ) ; $ # $ + + . .     ",
"        . + . . + + + @ $ % * & l 1 h h m m h 1 1 1 9 j n n n n n n n f g o h d ( ' > & ; ' , > > > > > ' ] & & & % # + + + .   ",
"      . + @ + + + @ @ # # & * = p 0 o o o o m h g n q q q q n n r q q n f i 9 h | / ] * { ' , , s > ~ , ] ) # = = * & # @ @ + . ",
". . . + @ % % + $ # # % % * = > * h t 8 i f f g u v v v v q q f i f q q n f i w h < / % ) ' , , , , , ) / p - > > = - * & # @ + ",
". . . + # * * + % % % & * * = > = x q y y v v q v z z y y u v q i o i v v q f i o 2 A ; ] ) ' ' ' ' ) ^ _ & ~ , > > ; = * & % # ",
"+ + + $ & = - @ * & & * * - = > { B y y z z y y y z z z z u i y v i 0 8 v v n f o 2 p ! ] ) ) ) ) ) ^ _ ^ * ) ) , s > > = - * % ",
"+ @ @ % * > = % = * * * - = ; ~ , C D y z z z z y y z z E z D z z y u i u y q f 1 4 & ^ ^ ] ] ] ] ^ _ [ p ! ) ) ) , , > > = = * ",
"$ # # & = > ; & ; = = = = = > , ) b u y y z y z F F z z F F E z z z z y y y v i | G ; _ / ^ ^ ^ / _ [ 4 b ( ) ) ) ) ' , ~ > ; = ",
"% % & * k , - % > > ; = = > > , ] ; g z z y y y z E H H H I I J F z z z y y y 9 | K L : _ _ _ _ : 4 c M l h _ ) ) ) ) ) , , > > ",
"& & * - > , * $ > > > > > > > , ] p N v y y y y y z z H I O O O I H F E z y v 8 e l A 4 [ } } [ 4 c e P | o h : ) ) ) ) ) ' , > ",
"* * * = > , & * { , , > > > ~ , ^ ! Q y v y y z z z z F R I I J F F F F E z v i 1 l K 2 2 2 2 6 d S e T U i t o ( ) ) ) ) ) ' , ",
"- - = ; , ~ ; L ; ) , , s , , ) / L V g z y y z z E F F J J H F F E z z z y v i | W K | d d | X 1 h Y Z ` E f g 1 ] ) ) ) ) ) ' ",
"= = = > '  .! _ * ] ] ' , , ' ] _ A T C ..U z y z E F F F H F F F E E z z y v o p G l 1 1 1 1 h 0 o +.@.#.` z f t h c ] ) ) ) ) ",
"; ; > , ) * ] 4 ; ] ^ ] ) ) ] ^ : $.K 8 Y C %.&.z z z E F F F F F F E z z u Q V N f L h h h 0 0 9 8 l *.#.=.O y i 9 0 -.) ) ) ) ",
"> > s ) ) * / 4 L A _ / ^ ^ ^ _ 4 G K i 0 f ;.K l >.f D y z z D ,.U y ,.Q V +.f y u L h 0 0 9 t 8 g C *.I R I I u 8 o 0 [ ) ) ) ",
"s , ' ^ ! ; 3 2 $.! } : _ _ _ } 2 } K f 8 j j f t 7 '.).P C P !.$ b V ~.l d g y y D %.1 9 9 8 g i i C *.H R H H F f t 0 0 : ] ) ",
", ' ] / b ) : 2 : p 2 4 < } [ 2 | [ {.j j n j f f i V ; > >   ].].].].T e 1 8 y y y 0 ..8 g i i f f L z F H H F F y t 9 o m : ] ",
"' ) / / * } : c 5 ; c c 2 2 2 d 1 %.+.j n n j f f B * > , , + ].].].].  5 1 i y y y U L i i f f j n l D F F F F E y i 9 h 1 1 e ",
"] ^ : L l 2 2 c 2 b d | d c | 1 h {...f j n j f ;.% > > , ) * ].].].].].C 1 ,.y y y z ..7 f j n n q %.^.F F F z z u 8 8 f n j i ",
"/ : [ b 2 c c c 2 b e 1 1 1 1 h 0 C 1 f f n j i /.; > ~ ' ] { ].].].].].(.| q y y y z f C _.n q q v Y w z z z y q u q q q t :.V ",
": 4 : C h X c c c W S m m m 0 o o p 9 f j n j ..* ~ , , ) ^ ] . ].].].].].<.q y y y z z N l i v v y ..[.z y v v z y g ../.+   $ ",
"4 c L N y y 8 o X W >.9 9 9 8 i N T i i f n 9 !., , , ' ) / _ b ].].].].].. 7 y y y z z z Q T 7 i h T f y y y D N C & - = }.  - ",
"d e W f z z y v y P 0 g i i f f %...i f n ;.V L ] ) ) ) ^ _ } A ].].].].].].+ N y y z z z z 8 %.B N f y y z ;.V   * > > > & . |.",
"1 c + :.z z z z E '.o f f f j i p g q q Q (.~.: ( ^ ^ ^ / : 4 4 $ ].].].].].].1.Q y y z z z z z z y z z w 2.  ].].% , , > * b _ ",
"m G ].  3.D z E F :.N j n n n %...v f 3.  ].. $.[ 3 _ _ _ < 2 c L ].].].].].].].].% W :.f y z z z &.Q 2.  ].].].].. ' ) , k P 4 ",
"o <.].].]./.f E F z K f q n Y {.f ..4.].].].].W 2 5 [ < [ 5 c | c (.].].].].].].].].].].+ /.'.<.5.  ].].].].].].].].! ^ ) ~ C c ",
"9 p ].].].].!.w F F ;.C {.L | i 2.].].].].].].  $.| c 2 2 c | 1 h l ].].].].].].].].].].].].].].].].].].].].].].].].p _ ^ ) W 0 ",
"8 W ].].].].].1.7 E E ^.9 ,.f /.].].].].].].].].% d 1 e e e 1 h 0 h !.].].].].].].].].].].].].].].].].].].].].].].].W < : / T <.",
"i W ].].].].].].  +.y z u x 4.].].].].].].].].].].T h h h h h 0 9 t Y   ].].].].].].].].].].].].].].].].].].].].].].& 4 4 } _ L ",
"f V ].].].].].].].].2.Q V ].].].].].].].].].].].].].l 0 o o 9 t i i i C ].].].].].].].].].].].].].].].].].].].].].].@ 2 c 2 4 [ ",
"j P ].].].].].].].].].].].].].].].].].].].].].].].].  {.t i i i f f f Q ].].].].].].].].].].].].].].].].].].].].].].. Y 1 | c c ",
"q l ].].].].].].].].].].].].].].].].].].].].].].].].].  K i j j n n n x ].].].].].].].].].].].].].].].].].].].].].].].Y m h S e ",
"v +.].].].].].].].].].].].].].].].].].].].].].].].].].].].P ;.n q q u 3.].].].].].].].].].].].].].].].].].].].].].].].Y 9 o m h ",
"y <.].].].].].].].].].].].].].].].].].].].].].].].].].].].].1.C ..../.].].].].].].].].].].].].].].].].].].].].].].].].Q i i 8 w ",
"..(.].].].].].].].].].].].].].].].].].].].].].].].].].].].].].].].].].].].].].].].].].].].].].].].].].].].].].].].].].x n f f i ",
"].].].].].].].].].].].].].].].].].].].].].].].].].].].].].].].].].].].].].].].].].].].].].].].].].].].].].].].].].].].N q q n n ",
"].].].].].].].].].].].].].].].].].].].].].].].].].].].].].].].].].].].].].].].].].].].].].].].].].].].].].].].].].].].0 y v v q ",
"].].].].].].].].].].].].].].].].].].].].].].].].].].].].].].].].].].].].].].].].].].].].].].].].].].].].].].].].].].].0 y y y v ",
"].].].].].].].].].].].].].].].].].].].].].].].].].].].].].].].].].].].].].].].].].].].].].].].].].].].].].].].].].].].+.z z y u ",
"].].].].].].].].].].].].].].].].].].].].].].].].].].].].].].].].].].].].].].].].].].].].].].].].].].].].].].].].].].].1.Q f 0 <.",
"].].].].].].].].].].].].].].].].].].].].].].].].].].].].].].].].].].].].].].].].].].].].].].].].].].].].].].].].].].].].].].].].",
"].].].].].].].].].].].].].].].].].].].].].].].].].].].].].].].].].].].].].].].].].].].].].].].].].].].].].].].].].].].].].].].].",
"].].].].].].].].].].].].].].].].].].].].].].].].].].].].].].].].].].].].].].].].].].].].].].].].].].].].].].].].].].].].].].].].",
"].].].].].].].].].].].].].].].].].].].].].].].].].].].].].].].].].].].].].].].].].].].].].].].].].].].].].].].].].].].].].].].].",
"].].].].].].].].].].].].].].].].].].].].].].].].].].].].].].].].].].].].].].].].].].].].].].].].].].].].].].].].].].].].].].].]."};
