/* XPM */
static char *a32d42a0adcb45fcb2f33c82d526b5c6[] = {
/* columns rows colors chars-per-pixel */
"64 64 147 2 ",
"   c None",
".  c #000100",
"X  c #070903",
"o  c #0A0C04",
"O  c #0E1106",
"+  c #0C1509",
"@  c #111506",
"#  c #141906",
"$  c #121508",
"%  c #161B09",
"&  c #191E0A",
"*  c #192007",
"=  c #16220E",
"-  c #1D230C",
";  c #1F280F",
":  c #122413",
">  c #1B2610",
",  c #172E17",
"<  c #1D2B14",
"1  c #162D18",
"2  c #1A2F18",
"3  c #1E3017",
"4  c #1D331A",
"5  c #1F3A1F",
"6  c #20270D",
"7  c #232A0E",
"8  c #252D11",
"9  c #282F11",
"0  c #253115",
"q  c #2B3314",
"w  c #2F3817",
"e  c #243519",
"r  c #2B3618",
"t  c #263A1C",
"y  c #2C3C1C",
"u  c #303817",
"i  c #313C1A",
"p  c #223E21",
"a  c #283F20",
"s  c #2F401F",
"d  c #32411E",
"f  c #234224",
"g  c #2B4423",
"h  c #2D4926",
"j  c #224729",
"k  c #254B2B",
"l  c #2C4D2A",
"z  c #334522",
"x  c #344A25",
"c  c #344E29",
"v  c #26502F",
"b  c #2D512E",
"n  c #35532C",
"m  c #37582F",
"M  c #265130",
"N  c #2C5532",
"B  c #2E5B35",
"V  c #2D5D38",
"C  c #315731",
"Z  c #355B32",
"A  c #385F34",
"S  c #385E34",
"D  c #325F38",
"F  c #2F613A",
"G  c #2F633C",
"H  c #356036",
"J  c #386035",
"K  c #386237",
"L  c #386136",
"P  c #316139",
"I  c #34653C",
"U  c #35663C",
"Y  c #33643B",
"T  c #396338",
"R  c #396539",
"E  c #39663A",
"W  c #39653A",
"Q  c #35693E",
"!  c #3A683C",
"~  c #3A693C",
"^  c #3A6A3D",
"/  c #3A6B3E",
"(  c #3A6C3E",
")  c #3A6A3E",
"_  c #2F6840",
"`  c #326740",
"'  c #356940",
"]  c #346C42",
"[  c #346C43",
"{  c #396D40",
"}  c #3B6E41",
"|  c #367146",
" . c #367246",
".. c #3B7143",
"X. c #3C7243",
"o. c #397244",
"O. c #3A7345",
"+. c #3B7345",
"@. c #387346",
"#. c #3B7647",
"$. c #3C7444",
"%. c #3C7445",
"&. c #3C7646",
"*. c #3C7747",
"=. c #3B7445",
"-. c #367448",
";. c #377548",
":. c #387348",
">. c #3B7749",
",. c #38764A",
"<. c #397549",
"1. c #3D7949",
"2. c #3D7A4A",
"3. c #3D7C4B",
"4. c #3D7E4D",
"5. c #3E7E4D",
"6. c #3C7E4E",
"7. c #3C7B4B",
"8. c #3D7F50",
"9. c #3D804F",
"0. c #3F804E",
"q. c #3F804F",
"w. c #3F8250",
"e. c #3F8452",
"r. c #3F8554",
"t. c #3F8351",
"y. c #3F8955",
"u. c #408553",
"i. c #408754",
"p. c #408654",
"a. c #408955",
"s. c #418957",
"d. c #428957",
"f. c #408A56",
"g. c #428B57",
"h. c #408956",
"j. c #418C58",
"k. c #418F5A",
"l. c #428D59",
"z. c #42915C",
"x. c #44915C",
"c. c #44935D",
"v. c #48965F",
"b. c #479760",
"n. c #479760",
"m. c #489761",
"M. c #499962",
/* pixels */
"      r.k.e.I :.g.g.g.u.X.S n x y & X . . . . . . . . . . . . . . . . . . . . . . . . . . X o $ & - 7 r d n R } g i z x c n 4   ",
"      -.k.5.X.C ' | 5.t.&.S c z i i r - O X . . . . . . . . . . . . . . . . . . . . . . . X o $ & - 8 w z n h 8 0 u d x n Z g   ",
"        9.2.~ Z n z r f I R n d u 0 7 6 % o . . . . . . . . . . . . . . . . . . . . . . . X o $ - 8 w y e = - 7 0 u z c n n 3   ",
"        f O.~ n z u 0 7 * f Z x w 7 - % O X . . . . . . . . . . . . . . . . . . . . . . . X o # & & $ $ & & - 7 r d z g a <     ",
"            Z S s 0 t t e < < h z 0 - % o X . . . . . . . . . . . . . . . . . . . . . . . X X . X o O $ % & - 0 0 >             ",
"              b O.3.X.T n x z 0 < e 8 & O X . . . . . . . . . . . . . . . . . . . . . . X o $ & & # O $ % & 7 %                 ",
"            F g.t.&.R n x i r 0 - # % % O X . . . . . . . . . . . . . . . . . . . . . X o # % - 8 w z l f % 8 8 q r w z c g     ",
"            B >.&.~ n x z i r 0 6 & # o . . . . . . . . . . . . . . . . . . . . . . X o # & 6 8 r i z n ~ O.N r u u d x n n g   ",
"            f f P &.K c z i w 9 6 % O X . . . . . . . . . . . . . . . . . . . . . . X @ & 7 0 r u d z c Z n O.5.] D C b n n e   ",
"        >.c.k.r.#.N B K n d r 8 - % O X . . . . . . . . . . . . . . . . . . . . . . . . X # 6 r z z x n n K ( 2.p.c.b.g.>       ",
"        M.c.g.5.( b N h g x x w 7 % o X . . . . . . . . . . . . . . . . . . . . . . . . . . o @ = t n S S R ..3.p.c.v.V         ",
"        ] t.e.P Y O.K x d r 8 8 - % O X . . . . . . . . . . . . . . . . . . . . . . . . . . o $ - 7 7 0 b Q 5.g.r.-.v           ",
"          j Q 5...S n x z i r 7 & O # O X X . . . . . . . . . . . . . . . . . . . . . . . . o $ - 7 0 c T K K ] ,.g.N           ",
"      ] g.j.9.~ B ] P b g y e e e 8 % O X X . . . . . . . . . . . . . . . . . . . . . . . X o % - r x n Z R $.t.k.b.7.          ",
"      v.v.g.9.Q b.c.k.t.2.~ Z g 8 & # o X . . . . . . . . . . . . . . . . . . . . . . . . . X * r u i z n T &.p.c.v.N           ",
"      G r.k.g.[ v.k.t.&.R n z r 7 & # o X . . . . . . . . . . . . . . . . . . . . . . . o $ - 7 8 0 u z Z X.5.-.| k             ",
"              4 r.k.9...K n s r 8 & # o X . . . . . . . . . . . . . . . . . . . . . . . o $ & - 7 8 w n C p % #     e g n a     ",
"            - 8 0 I 5.&.~ S x s 8 % O X X . . . . . . . . . . . . . . . . . . . . . . . X O % - 7 r z e q i z z x x c n m t     ",
"        < d i u 0 7 & < e e > O X . . . . . . . . . . . . . . . . . . . . . . . . X X X X O % - 0 y - 7 7 0 r u i z x n c       ",
"        x x d u 0 7 & % $ $ o o X . . . . . . . . . . . . . . . . . . . . . . . . X o $ % & % - 8 & 6 7 7 7 0 r u z x x >       ",
"        z x z i r N r.I % O o X . . . . . . . . . . . . . . . . . . . . . . . . . X o $ & 7 r d g g g g l N e w d z t           ",
"                & -.z.p.#.k + X . . . . . . . . . . . . . . . . . . . . . . . . . X O $ & 6 8 u x K $.e.c.v.k.l P ] >.,.|       ",
"                  B k.9.$.~ Z g - X . . . . . . . . . . . . . . . . . . . . . . X o $ & - 7 0 w z m ~ 5.k.g.p.Z ( &.t.k.v.c.    ",
"          k 6.g.t.Q [ 5.( S n z i r - # X . . . . . . . . . . . . . . . . . . . . X # 7 0 r u d x S } 5.g.>.g Z R X.5.g.v.8.    ",
"          k.c.k.e.2.C I } Z x u 0 7 - % o X . . . . . . . . . . . . . . . . . . . . . . O - e t g l N l t z n Z ~ 3.6.] M       ",
"          t.k.k.p.2.! x l S c r 0 7 * $ o X . . . . . . . . . . . . . . . . . . . . . . . X $ & 6 8 r i d x Z S Q I             ",
"      8 0 r q g B #.} m z 0 g z r 7 - $ o X . . . . . . . . . . . . . . . . . . . . . . . X $ & 6 8 r i z z D t.b.M.N           ",
"    y x z d u r 6 p Q I Z h 0 % 8 q 7 & O X . . . . . . . . . . . . . . . . . . . . . . . X O % - - 8 r l ~ 5.g.c.v.p           ",
"    8 g ,.I 0 8 O.z.g.t.2.~ S g = O o O o X . . . . . . . . . . . . . . . . . . . . . . . X o % - 0 u z n S ( 5.g.I 4           ",
"      I c.g.#.l M.c.k.e.2.R n x z 8 o X . . . . . . . . . . . . . . . . . . . . . . . . X X O $ * 7 9 r z n R 2.P I t.g.k.|     ",
"      M k.e.&.H P [ 7.t.2.R n z d i w 8 # X X . . . . . . . . . . . . . . . . . . . . . . X o $ & - 8 r z m H h Z ~ &.2.e.b.[   ",
"        ] 9...K n x y e B ( Z x i r 8 7 - $ X . . . . . . . . . . . . . . . . . . . . . . X o $ & 7 r z z t w x n R &.p.z.m.P   ",
"          I X.S x i r 0 6 2 n n i 0 7 * $ o X . . . . . . . . . . . . . . . . . . . . . . X O & 7 8 8 8 7 q u z n } 9.k.y.]     ",
"            b K x q e t e 8 > t x r 7 & $ o X . . . . . . . . . . . . . . . . . . . . . . X X X o $ - 6 7 0 u x R P B           ",
"              5 ] 5.2.~ Z c z y 8 w w 7 % o X . . . . . . . . . . . . . . . . . . . . . X o @ O o O & - 7 0 z h                 ",
"            j x.c.p.&.K c i r 8 7 & - q 8 % o . . . . . . . . . . . . . . . . . . . . . X o $ - 7 0 0 8 7 r 0                   ",
"            :.M.v.g.2.R n d 0 7 - % $ o O O o . . . . . . . . . . . . . . . . . . . . . X O $ & 7 0 z n R &.9.g.c.]             ",
"              >.,.] P C n x u 8 - % O o X . . . . . . . . . . . . . . . . . . . . o $ * % O % - 7 0 u x S ..t.c.M.8.            ",
"                  t d 7 * % - - - % O X . . . . . . . . . . . . . . . . . . . . . X O - r r - - 0 r i x S } 9.k.g.k             ",
"              f n x 0 7 - & $ o X X o X . . . . . . . . . . . . . . . . . . . . . . X $ * 8 i t 0 z x n K Q I C g               ",
"        G ] O.~ c u 0 7 7 - % # # o X . . . . . . . . . . . . . . . . . . . . . . . X O & - 8 i c 4 O & - 7 r z Z ~ k           ",
"    | v.k.9.} Z x i r 8 e w r 7 & O X . . . . . . . . . . . . . . . . . . . . . . X o $ & 6 8 w z Z C < 0 r i x m ~ 2.N         ",
"    M.c.g.2.~ S n y h c d r 7 * $ O X . . . . . . . . . . . . . . . . . . . . . . X @ - 9 r r i z n R &.P g y c K ( 5.g.k       ",
"    k.k.>.5...Z n ~ Z z w 0 7 * $ O X . . . . . . . . . . . . . . . . . . . . . . . . . O 8 y d z n K &.t.g.k.e.D &.t.k.>.      ",
"      [ ,.#.P Q 5.( Z x i r 8 - & $ X . . . . . . . . . . . . . . . . . . . . . . . . . . X O e x n K $.9.g.c.b.D b t.c.,.-     ",
"            I k.e.&.~ S n i 8 * # o . . . . . . . . . . . . . . . . . . . . . . . . X o % & % # < l R &.9.g.g.I r z g D l n     ",
"            k.v.k.t.I h r 9 8 7 & O X . . . . . . . . . . . . . . . . . . . . . . . . o $ - 0 w e - 8 t l C l 8 u z c n n h     ",
"            p.m.>.C c z i u 0 6 % O X . . . . . . . . . . . . . . . . . . . . . . . . o $ & 7 0 r c g r n R 2.5.] D l =         ",
"            B D R n x z i q 7 * # X . . . . . . . . . . . . . . . . . . . . . . . . . o $ & 7 9 r z Z R h S &.t.g.c.b.`         ",
"      [ 6.e.2.~ S n y N I ~ H l t > + X . . . . . . . . . . . . . . . . . . . . . . X o % 6 8 r u z n R 2.B } 9.g.c.k.          ",
"    7.b.k.t.&.~ S h p.k.9...C t < $ o X . . . . . . . . . . . . . . . . . . . . . . . . X # 7 y x n S ~ 2.p.B o.| [             ",
"    ` v.c.g.5.&.( 2.p.z.e...n t = O X . . . . . . . . . . . . . . . . . . . . . . . . . . . . X = g I $.5.k.t.                  ",
"        G V N l g V k.g.9...C p = o X . . . . . . . . . . . . . . . . . . . . . . . . . . . . o O $ % b 5.k.g.l P ' | |         ",
"        & w i r 9 7 * & % # # % O X . . . . . . . . . . . . . . . . . . . . . . . . . . . X X o $ % - 7 e I N R 2.g.v.M.>.      ",
"      = d i u 0 7 7 6 - * % # O X X . . . . . . . . . . . . . . . . . . . . . . . . . . . + : 1 , 4 4 e e t l b B [ c.v.N       ",
"      y z d i w 0 7 - * * # % # o . . . . . . . . . . . . . . . . . . . . . . . . . . . . + : 2 p l C I ..9.y.z.z.r._ k         ",
"    % x z d w r 0 ; & % # 8 8 = O X . . . . . . . . . . . . . . . . . . . . . . . . . . . X % = 0 t h n I ..5.g.c.v.I           ",
"      y e       = g 8 - # 0 0 - O X . . . . . . . . . . . . . . . . . . . . . . . . . . . X # % - r y x m R &.e.k.>.V V         ",
"              N n d 0 7 - % * % O X . . . . . . . . . . . . . . . . . . . . . . . . . . . X $ q e 0 g x n S P B h l -.v.g.      ",
"      ] -.,.&.K x u 0 8 7 & % # o . . . . . . . . . . . . . . . . . . . . . . . . . . . . X O - i c , $ * 7 0 i x K Q I b.B     ",
"    g.v.g.3.~ m x i q e y i 8 & O . . . . . . . . . . . . . . . . . . . . . . . . . . . . X O * 0 x S b 7 r u d c S ..2.k       ",
"  ] M.c.e.2.~ Z x g n x u 0 6 & O . . . . . . . . . . . . . . . . . . . . . . . . . . . . X & 7 r d n ( #.B g g n R X.t.t.      ",
"    g.k.5.5.X.c g c g e 8 6 - - & O . . . . . . . . . . . . . . . . . . . . . . . . . . . X O 7 u z n R 2.p.k.k.e.D 2.p.c.I     ",
"      G [ Q l D } R Z x z d u 0 - O . . . . . . . . . . . . . . . . . . . . . . . . . . X o $ - 6 0 h R 2.t.g.c.c.l P y.c.I     "
};
