/* XPM */
static char *_69fdf19dc284e5ca1a37422f05b4b92[] = {
/* columns rows colors chars-per-pixel */
"64 64 143 2 ",
"   c None",
".  c #000000",
"X  c #070903",
"o  c #0A0D05",
"O  c #0E1106",
"+  c #0F1208",
"@  c #0F1A0A",
"#  c #111506",
"$  c #141907",
"%  c #121508",
"&  c #151A09",
"*  c #191E0A",
"=  c #14220F",
"-  c #1C220C",
";  c #0F2312",
":  c #142512",
">  c #1C2711",
",  c #172C16",
"<  c #1F2A12",
"1  c #1F3017",
"2  c #1A331C",
"3  c #1E391F",
"4  c #20270D",
"5  c #232B0E",
"6  c #252E11",
"7  c #282F11",
"8  c #253116",
"9  c #2B3313",
"0  c #2F3817",
"q  c #233419",
"w  c #2B3718",
"e  c #243A1D",
"r  c #2B3B1B",
"t  c #303817",
"y  c #313C1A",
"u  c #1E3D22",
"i  c #223F23",
"p  c #2E401F",
"a  c #32411E",
"s  c #244224",
"d  c #2C4524",
"f  c #244728",
"g  c #264A2A",
"h  c #2B4E2B",
"j  c #334521",
"k  c #344A25",
"l  c #344E29",
"z  c #2D522E",
"x  c #35542C",
"c  c #37582F",
"v  c #275230",
"b  c #2A5532",
"n  c #2D5A36",
"m  c #2D5E39",
"M  c #325730",
"N  c #365B32",
"B  c #385E34",
"V  c #2E603B",
"C  c #346037",
"Z  c #386137",
"A  c #386136",
"S  c #31663E",
"D  c #31633C",
"F  c #396338",
"G  c #396439",
"H  c #396539",
"J  c #3A673B",
"K  c #39663A",
"L  c #35683E",
"P  c #3A693D",
"I  c #3A6B3E",
"U  c #3A6D3F",
"Y  c #3A6B3E",
"T  c #356B42",
"R  c #356C42",
"E  c #396E41",
"W  c #3B6F41",
"Q  c #3A6E41",
"!  c #367246",
"~  c #3B7142",
"^  c #3B7143",
"/  c #3B7244",
"(  c #397547",
")  c #3C7545",
"_  c #3C7646",
"`  c #3D7747",
"'  c #3C7344",
"]  c #377448",
"[  c #377448",
"{  c #3C7748",
"}  c #3C7749",
"|  c #3B7648",
" . c #3D7848",
".. c #3D7949",
"X. c #3C784A",
"o. c #3E7B4B",
"O. c #3D7C4B",
"+. c #3E7D4C",
"@. c #3D7C4E",
"#. c #3C7E4E",
"$. c #3E7F4E",
"%. c #3D7B4B",
"&. c #3C7F50",
"*. c #3E804F",
"=. c #3F814F",
"-. c #3F814F",
";. c #3F8051",
":. c #3F8250",
">. c #3F8453",
",. c #3F8553",
"<. c #3F8351",
"1. c #408653",
"2. c #408755",
"3. c #438756",
"4. c #408654",
"5. c #408855",
"6. c #428856",
"7. c #408A56",
"8. c #408A57",
"9. c #418A56",
"0. c #408C58",
"q. c #418C58",
"w. c #418D58",
"e. c #448E5A",
"r. c #418D59",
"t. c #41905A",
"y. c #42915B",
"u. c #42915C",
"i. c #43935D",
"p. c #46905C",
"a. c #44935D",
"s. c #44945E",
"d. c #45955F",
"f. c #47965F",
"g. c #43935D",
"h. c #48935E",
"j. c #469660",
"k. c #479760",
"l. c #479760",
"z. c #489660",
"x. c #489660",
"c. c #499962",
"v. c #499962",
/* pixels */
"    T c.j.y.5.=...~ P F N s e.f.y.1...W F c k a y 9 8 5 4 - - * & O X . . . . . . . . . . . . . . . . . . . . . . . . . . . . . ",
"    b z.j.i.q.1.$...~ P M $.a...i.5.$.~ K c k a 0 8 5 4 - * & $ O o o X . . . . . . . . . . . . . . . . . . . . . . . . . . . . ",
"      s ] 2.q.5.<.=.` W z 2.h.f.f.q.:.` P B x j y 8 5 4 - * $ # o o X . . . . . . . . . . . . . . . . . . . . . . . . . . . . . ",
"              & < 8 6 5 4 s :.5.<.$.} / U K N l a 0 6 4 - & $ O o X . . . . . . . . . . . . . . . . . . . . . . . . . . . . . . ",
"            & w a y 0 8 5 4 * & & & & $ & - 8 e r y 8 5 - & $ o o X . . . . . . . . . . . . . . . . . . . . . . . . . . . . . . ",
"          - a a y t 9 7 5 4 4 - - - - * * $ $ 5 - $ & - - * $ o o X . . . . . . . . . . . . . . . . . . . . . . . . . . . . . . ",
"        - j a y y 0 8 8 5 5 4 4 - - - - # > y 8 4 - $ o X o O o o X . . . . . . . . . . . . . . . . . . . . . . . . . . . . . . ",
"      O j j a y y t 0 8 8 5 4 4 - - - # q a 0 4 - * $ O o X . X X X . . . . . . . . . . . . . . . . . . . . . . . . . . . . . . ",
"      6 k j j a y y y t 0 0 9 8 6 4 & d j 0 5 4 - * $ O o X . . . . . . . . . . . . . . . . . . . . . . . . . . . . . . . . . . ",
"      r k k j a w 8 8 6 8 8 8 6 - q x k 0 6 4 4 - * & O o X . . . . . . . . . . . . . . . . . . . . . . . . . . . . . . . . . . ",
"      q k j 6 O           . & f C Z l y 9 7 5 4 - - & $ o X . . . . . . . . . . . . . . . . . . . . . . . . . . . . . . . . . . ",
"      O -           2 b S ( O.` K x j y 0 8 5 4 4 4 - & O X X . . . . . . . . . . . . . . . . . . . . . . . . . . . . . . . . . ",
"                2 &.a.y.5.:.` K N k j y 0 8 9 8 6 4 & o X . . . . . . . . . . . . . . . . . . . . . . . . . . . . . . . . . . . ",
"              @ 5.j.i.q.<...U Z c l j a y y y 6 $ . . . . . . . . . . . . . . . . . . . . . . . . . . . . . . . . . . . . . . . ",
"              b c.f.y.5.=.` U Z N x l k k y - $ # o X X . . . . . . . . . . . . . . . . . . . . . . . . . . . . . . . . . . . . ",
"              b c.j.i.5.:...W K Z N N x r * 4 - & O X X . . . . . . . . . . . . . . . . . . . . . . . . . . . . . . . . . . . . ",
"                ! q.X.S D B C K P Z l < - 5 4 * $ O X . . . . . . . . . . . . . . . . . . . . . . . . . . . . . . . . . . . . . ",
"                = n [ <.2.$.R n d - * 8 6 4 - * $ o X . . . . . . . . . . . . . . . . . . . . . . . . . . . . . . . . . . . . . ",
"              S q.i.q.5.:.$.} ' W K h q * - - * $ o X . . . . . . . . . . . . . . . . . . . . . . . . . . . . . . . . . . . . . ",
"            T j.f.y.5.=...^ P K B N N N x r - # $ o X . . . . . . . . . . . . . . . . . . . . . . . . . . . . . . . . . . . . . ",
"          2 z.j.f.q.2.$.` W K Z N c x l k k k p 6 & X . . . . . . . . . . . . . . . . . . . . . . . . . . . . . . . . . . . . . ",
"      - 8 f z.z.f.i.5.:...~ B Z N x l k j a a y y y 8 4 & # o X . . . . . . . . . . . . . . . . . . . . . . . . . . . . . . . . ",
"  & p j j w 8 q q f V X.<.$.B h N x l k j a y y 0 8 6 4 - * $ o X . . . . . . . . . . . . . . . . . . . . . . . . . . . . . . . ",
"  q k j j a y t 0 8 5 u z T $.` K c l k j a y y 0 8 5 4 - & O o X . . . . . . . . . . . . . . . . . . . . . . . . . . . . . . . ",
"  < k k j a y y 0 0 8 ! i.! f T ..P N k j a y y 0 8 4 4 - & O o X . . . . . . . . . . . . . . . . . . . . . . . . . . . . . . . ",
"    - r j j a y y t 0 R i.q.:.B s B U B x j y 0 8 7 5 4 - & O o X . . . . . . . . . . . . . . . . . . . . . . . . . . . . . . . ",
"          O # $ # o   f y.5.=.} U z e z B N k a 0 8 5 4 - & O o X . . . . . . . . . . . . . . . . . . . . . . . . . . . . . . . ",
"                        T 5.$.` P Z c d 8 e d l k y 0 5 - & + o X . . . . . . . . . . . . . . . . . . . . . . . . . . . . . . . ",
"                        @ ! $.' K N x k a y 7 - < 8 8 8 5 - $ o X . . . . . . . . . . . . . . . . . . . . . . . . . . . . . . . ",
"              # - 4 4 - & & L ` P N l j y 0 8 5 4 - $ o o o X X . . . . . . . . . . . . . . . . . . . . . . . . . . . . . . . . ",
"          & r j a y y t 0 8 - z U Z x j y 0 8 4 4 - & + o X . . . . . . . . . . . . . . . . . . . . . . . . . . . . . . . . . . ",
"        & j j j a y y t 9 8 5 - < M N k y 0 8 4 - * & O o X . . . . . . . . . . . . . . . . . . . . . . . . . . . . . . . . . . ",
"        q k j j a y y t 8 6 4 4 - $ q l k a 0 5 4 - & O o X . . . . . . . . . . . . . . . . . . . . . . . . . . . . . . . . . . ",
"        < k j j a a y t 8 5 4 - - - * # < r a 0 6 - & # o X . . . . . . . . . . . . . . . . . . . . . . . . . . . . . . . . . . ",
"          # - 6 8 w y y 0 7 4 - - - * * * # & 4 6 5 - & O X . . . . . . . . . . . . . . . . . . . . . . . . . . . . . . . . . . ",
"                  X - 8 0 8 4 4 - * * & $ $ $ O o X O O o X . . . . . . . . . . . . . . . . . . . . . . . . . . . . . . . . . . ",
"                e v i = - 5 5 4 - * & $ $ O O o X X . . . . . . . . . . . . . . . . . . . . . . . . . . . . . . . . . . . . . . ",
"          i R <.q.5.2.$.( B s * * * & $ # O o o X . . . . . . . . . . . . . . . . . . . . . . . . . . . . . . . . . . . . . . . ",
"        R f.i.q.5.:...` W P K Z h 1 # # # O o o X . . . . . . . . . . . . . . . . . . . . . . . . . . . . . . . . . . . . . . . ",
"      S j.f.i.5.:...' P K B N c c c l e & o o o X . . . . . . . . . . . . . . . . . . . . . . . . . . . . . . . . . . . . . . . ",
"      e.c.f.i.5.:...~ P Z N c x k k k k j r 6 & o X . . . . . . . . . . . . . . . . . . . . . . . . . . . . . . . . . . . . . . ",
"      @.5.2.5.q.2.=.` U Z N c l k j j a y y 0 0 6 - * # o X . . . . . . . . . . . . . . . . . . . . . . . . . . . . . . . . . . ",
"              3 n ( :...U Z c l k j a y y 0 8 5 4 - * $ o X X . . . . . . . . . . . . . . . . . . . . . . . . . . . . . . . . . ",
"                  . s ! $.^ Z x k j a y y 0 8 5 4 - & # o X X . . . . . . . . . . . . . . . . . . . . . . . . . . . . . . . . . ",
"            3 V R ! R n h W ' K c k a y y 0 8 5 4 - & # o X . . . . . . . . . . . . . . . . . . . . . . . . . . . . . . . . . . ",
"          R f.f.y.5.1.$./ h s C K N k a y 0 8 5 4 - & # o X X . . . . . . . . . . . . . . . . . . . . . . . . . . . . . . . . . ",
"        f c.j.i.q.<.$.` W B q s e h N c k y 0 6 4 - & # o X . . . . . . . . . . . . . . . . . . . . . . . . . . . . . . . . . . ",
"        , a.j.i.5.:...K s b W P c r 4 q d k j y 8 4 * $ o X . . . . . . . . . . . . . . . . . . . . . . . . . . . . . . . . . . ",
"          u ! 5.q...h n ..` K c k j a y 8 - - < 6 4 - & O X . . . . . . . . . . . . . . . . . . . . . . . . . . . . . . . . . . ",
"              X u n $.$.~ Z c k k j y y y 0 7 4 - $ X O * * $ O X . . . . . . . . . . . . . . . . . . . . . . . . . . . . . . . ",
"          : n ! <.:...U N x k k k j a y y 0 6 - & 6 w y 8 5 - * $ o X . . . . . . . . . . . . . . . . . . . . . . . . . . . . . ",
"      ; ] a.i.5.:...P s m R D z s q 6 4 6 6 e d k y 0 7 4 - * $ O o X . . . . . . . . . . . . . . . . . . . . . . . . . . . . . ",
"      D c.j.i.5.=...h 5.j.f.y.q.2.=...~ K B x j 0 6 4 4 - * & + o X X . . . . . . . . . . . . . . . . . . . . . . . . . . . . . ",
"      m c.j.i.5.<.( ( c.f.y.5.<.$.` U Z c k y 0 8 5 4 - - * $ O o X . . . . . . . . . . . . . . . . . . . . . . . . . . . . . . ",
"        n 2.f.y.q.( ! j.i.q.1.$.` P Z c k a y 0 8 5 4 - - & $ o X X . . . . . . . . . . . . . . . . . . . . . . . . . . . . . . ",
"            2 g b h i a.i.q.<...W K B c k a y 0 8 5 4 4 - & $ o X . . . . . . . . . . . . . . . . . . . . . . . . . . . . . . . ",
"                      g 5.q.1.$.~ K c x k w a y 0 0 8 5 - * $ o X . . . . . . . . . . . . . . . . . . . . . . . . . . . . . . . ",
"                O - 4 6 q T :.=.} W K B c r k a 0 5 - * & $ # o X . . . . . . . . . . . . . . . . . . . . . . . . . . . . . . . ",
"            & w y y y 0 8 4 > i h z x l d e < # . . . . . . . . . . . . . . . . . . . . . . . . . . . . . . . . . . . . . . . . ",
"          < j j a y 0 8 5 4 - * & $ # O o o O o o X . . . . . . . . . . . . . . . . . . . . . . . . . . . . . . . . . . . . . . ",
"        O j k j j y t 8 5 4 - * & $ $ # O o o o X X . . . . . . . . . . . . . . . . . . . . . . . . . . . . . . . . . . . . . . ",
"        - k k k j a y 0 8 > m m : $ $ O O o o X X . . . . . . . . . . . . . . . . . . . . . . . . . . . . . . . . . . . . . . . ",
"          r k j j y y 0 6 R f.q.:.h O O o o o X . . . . . . . . . . . . . . . . . . . . . . . . . . . . . . . . . . . . . . . . ",
"              O     o # O $.i.q.1.=.L e o o X X . . . . . . . . . . . . . . . . . . . . . . . . . . . . . . . . . . . . . . . . "
};
