/* XPM */
static char *d17b504bf7cd467f8e8a02df54ff16d3[] = {
/* columns rows colors chars-per-pixel */
"64 64 144 2 ",
"   c None",
".  c #020101",
"X  c #090606",
"o  c #0A0807",
"O  c #0E0B09",
"+  c #120E0C",
"@  c #15110F",
"#  c #171210",
"$  c #1C1613",
"%  c #1F1815",
"&  c #201715",
"*  c #211A17",
"=  c #251D1A",
"-  c #281F1B",
";  c #27201C",
":  c #2A221E",
">  c #2E2521",
",  c #302722",
"<  c #342A25",
"1  c #382C27",
"2  c #372C28",
"3  c #392E29",
"4  c #3D312C",
"5  c #41342E",
"6  c #443631",
"7  c #463933",
"8  c #493B36",
"9  c #4A3B36",
"0  c #493A35",
"q  c #4A3C35",
"w  c #493C36",
"e  c #4A3C36",
"r  c #4B3C36",
"t  c #4A3D36",
"y  c #4B3D36",
"u  c #4B3C37",
"i  c #4A3D37",
"p  c #4B3D37",
"a  c #4C3C36",
"s  c #4C3C37",
"d  c #4C3D37",
"f  c #4D3D37",
"g  c #4C3E37",
"h  c #4D3E37",
"j  c #493B35",
"k  c #4B3D38",
"l  c #4C3D38",
"z  c #4C3E38",
"x  c #4D3E38",
"c  c #4C3F38",
"v  c #4D3F38",
"b  c #4D3E39",
"n  c #4D3F39",
"m  c #4E3E38",
"M  c #4E3F38",
"N  c #4E3E39",
"B  c #4E3F39",
"V  c #4F3F39",
"C  c #4E3F3A",
"Z  c #4C3E38",
"A  c #4D4039",
"S  c #4E4039",
"D  c #4E403A",
"F  c #4F403A",
"G  c #4F413A",
"H  c #4F413B",
"J  c #4E403A",
"K  c #50403A",
"L  c #50413A",
"P  c #50413B",
"I  c #51413B",
"U  c #50423B",
"Y  c #51423B",
"T  c #51433B",
"R  c #51413C",
"E  c #50423C",
"W  c #51423C",
"Q  c #51433C",
"!  c #51433D",
"~  c #52423C",
"^  c #52433C",
"/  c #53433C",
"(  c #52433D",
")  c #53433D",
"_  c #53433E",
"`  c #52443D",
"'  c #53443D",
"]  c #53443E",
"[  c #53453E",
"{  c #54443D",
"}  c #54443E",
"|  c #54453E",
" . c #55453E",
".. c #54453F",
"X. c #55453F",
"o. c #56453F",
"O. c #55463F",
"+. c #56463F",
"@. c #56473F",
"#. c #50413B",
"$. c #564640",
"%. c #574640",
"&. c #564740",
"*. c #574740",
"=. c #574741",
"-. c #584741",
";. c #574841",
":. c #584841",
">. c #584842",
",. c #584942",
"<. c #594942",
"1. c #594943",
"2. c #5A4943",
"3. c #5A4A43",
"4. c #5A4A44",
"5. c #5B4A44",
"6. c #5B4B45",
"7. c #5C4B45",
"8. c #5D4C45",
"9. c #5C4C46",
"0. c #5D4C46",
"q. c #5D4D47",
"w. c #5E4C46",
"e. c #5E4D47",
"r. c #5F4D48",
"t. c #5F4E48",
"y. c #604E49",
"u. c #604F49",
"i. c #614F49",
"p. c #614F4A",
"a. c #61504A",
"s. c #61504B",
"d. c #62504B",
"f. c #63514B",
"g. c #63514C",
"h. c #64514C",
"j. c #64524C",
"k. c #64524D",
"l. c #66534E",
"z. c #66544F",
"x. c #67544F",
"c. c #675550",
"v. c #685450",
"b. c #685550",
/* pixels */
"          . < ] | | | | | | | | | | | | | | | | | | -.-.:.6.7.w.t.u.s.k.k.x.v.v.v.c.c.x.k.k.s.u.w.w.7.6.:.:.:.:.:.:.:.:.:.:.:.:.",
"          . 3 ] | | | | | | | | | | | | | | | | | | -.-.:.6.w.t.u.s.s.s.g.g.s.s.u.u.u.t.w.7.:.:.:.-.%.%.%.%.%.%.%.;.:.%.%.| | K ",
"          . 3 ] | | | | | | | | | | | | | | | | | %.%.:.:.6.w.t.t.t.t.w.w.7.6.:.:.%.%.| ] ^ ^ ^ ^ ^ ^ | | | | | | ] K G p j 6 6 ",
"          . < ] | | | | | | ^ ^ ^ | | | | | | | | | %.-.:.:.:.:.:.%.| | | | ^ ^ ^ ^ ^ ^ K K G K K K K K ^ K G z p 0 6 5 4 4 4 4 ",
"          . > ^ | ] ] ^ ^ ^ K K K K ^ ^ ] ] | | | | | ] ] | ^ ] ^ K K K K K K G G G z z z z z z z z z z p j 7 6 5 4 4 3 3 3 3 3 ",
"          . - G ^ K K G G K K K K K K K ^ ^ ^ ^ ^ K K K K G G z z z z z z z z z f p p p j j p p p j 0 6 5 4 4 4 4 3 3 3 3 3 3 3 ",
"          . % k K G z z G G K K G G K G G G G G G G z z z z z f f f p p p p p j j j j j j 7 0 7 6 6 5 4 4 3 3 3 3 3 3 3 3 3 3 3 ",
"          . $ 7 z z z z z G G K G G G z z z z p p p p p p j j j j j j j j 7 7 7 7 7 7 6 6 6 5 5 4 3 3 3 3 3 3 3 2 1 2 3 3 3 3 3 ",
"          . @ 5 z f z z z z z K G z G z z p p j j j j j j j j 7 7 7 7 7 6 6 6 6 6 6 5 5 4 4 3 3 3 3 3 3 2 1 < < < < < < 2 2 3 3 ",
"          . + 4 p f z z z G z K G z G z p f j j 0 7 0 7 7 7 7 7 7 6 6 6 6 6 6 5 4 4 3 3 3 3 2 2 1 < < < < < , , < < < < 1 1 3 3 ",
"          . @ 4 p z z z z z z z z G z p p j j 7 7 7 6 6 6 6 6 6 6 6 6 5 4 4 3 3 3 3 2 1 < < < < < , , , , , , , , < < < < 1 3 3 ",
"          . @ 4 f z z z z z z G z z f p j j 7 6 6 6 6 6 6 6 6 6 6 5 4 4 3 3 2 < < < < < < < , , > > > > > > > , , < < < < < 2 3 ",
"          . # 6 f z z z z z z z z f p j j 7 6 6 6 6 6 6 6 6 6 6 4 4 3 2 < < < < < < < < , > > > > > > > > > > , , , < < < < < 2 ",
"          . $ 7 f z z z z z z z f j j j 7 6 6 6 6 6 6 6 6 5 5 4 3 1 < < < < < < < < , > > > > > > > > > > > > > , , , < < < < < ",
"          . = j z f z z z z z z p j j 0 7 6 6 6 6 6 6 5 5 4 3 < < < < < < < < < < , > > > > > > > > > > > > > > > , , < < < < < ",
"          . : p f f z z z z z p j j 0 7 7 6 6 6 6 5 4 3 3 < < < < < < < < < < , > > > > > > > > > > > > > > > > > , , < < < 2 3 ",
"          . < f f f f f f z p j 0 7 7 7 6 6 6 5 4 3 2 < < < , , , , , < < , , > > > > : : : : > > > > > > > > > > , < < 2 3 4 4 ",
"        . . 3 f f f z f f p j j 0 7 7 7 6 6 5 4 3 < < , , , > , , , , < < , > > : : : : : : > > : > > > > > > > , < 2 3 4 6 7 0 ",
"        . . 5 p p f f f p j 7 7 7 7 7 7 6 4 3 1 < < , , > > > > > , , , , > > > : : : : : : : : : : > > > > > , 2 4 6 j z z p j ",
"        . . 7 p p f f p p j 7 7 7 7 6 6 4 3 < < , , > > > > > > > > , , > > > : : : : : : : : : : : : > : > < 4 7 z K ^ G p j 0 ",
"        . . j p p p f p j 0 7 7 7 7 6 5 3 < < , > > > > > > > > > > > > > > : : : : : : : : : : : : : : : < 7 z ^ ] ^ G p j 7 7 ",
"        . . j p p p p p j 7 7 7 7 6 6 4 3 < < , > > > > > > > > > > > > > > : : : : : : : : : > : : : : < 7 G G ^ ^ G p 0 7 6 6 ",
"        . . j p j j p j 0 7 7 7 7 6 5 3 < < , , > > > > > > > > > > > > : : : : : : : : : : : : : : : < 6 z G G K G p 7 6 6 5 4 ",
"        . . j j j j j j 7 7 7 7 6 5 4 < < , > > > > > > > > > > > > : : : : : : : : : : : : : : : : < 4 j k z z z j 6 5 4 4 4 3 ",
"        . . j j j j j j 7 6 6 6 5 4 3 < , , , > > > > > > > > > : > : : : : : : : : : : : : : : : , 4 7 p p p j 7 5 4 3 3 3 3 3 ",
"        . . j j j j j 0 7 7 6 5 4 3 < , , , > > > > > > > > > > : : : : : : : : : : : : : ; ; : , 3 6 0 0 7 6 5 4 3 3 3 3 3 3 3 ",
"        . . 7 j j j j 7 6 6 5 4 3 < < , > > > > > > > > > > : : : : : : : : : : ; : : : - - : , 3 4 6 6 6 4 4 3 3 1 1 1 1 3 3 3 ",
"        . . 7 j j j 7 7 6 5 4 3 < < , , > > > > > > > > > > : : : : : : : : : : ; ; ; - ; : , 2 4 5 6 4 4 3 2 1 1 1 1 1 1 1 1 1 ",
"        . . 7 j j 7 7 6 5 4 3 < < , , > > > > > > > > > > > > : : : : : : : : : ; ; ; - : > 2 4 4 4 4 3 1 < < < 1 1 1 < < 1 1 1 ",
"        . . 7 j 7 7 7 5 4 3 < < , , > > > > > > > > > > : : : : : : : : : ; ; - - - - : > < 3 4 4 3 1 < < < < < < < 1 < < < < 1 ",
"        . . 7 0 7 6 6 4 3 < < < , , , > > > > > > > > > : : : : : : : : : : ; ; - ; : > < 3 3 3 2 < < < < < < < < < < < < < < < ",
"        . . 7 7 7 6 5 3 1 < < , , > > > > > > : : : : : : : : : : : : : : ; ; - ; : > < 3 3 3 1 < < < < < < < < < < < < < < < < ",
"        . . 6 7 6 5 4 3 < , , , > > > > > : : : : : : : : : : : : : : : ; = = - : > < 2 3 1 < < < < < < < < < < < < < < < < < < ",
"        . . 6 6 6 5 3 < < , , > > > > > : : : : : : : : : : : : : ; ; ; = - ; : > < < 3 < < < < < < < < < < < < < < < < < < < < ",
"        . . 6 6 5 4 3 < , , > > > > > : : : : : : : : : : : : : ; ; - - = - : > , < 2 < < < < < , < < < < < < < < < < < < < < < ",
"        . . 5 5 4 3 1 < , > > > > > : : : : : : : : : : : : : : ; = - - - : > , < < 1 < < < < < , , < < < < < < < < < < < < < < ",
"        . . 4 4 4 3 < , , > > > : : : : : : ; : : : : : : : : : = = ; ; : : , < < < < < < < < < < , < < < < < < < < < < < < < < ",
"        . . 3 3 3 3 < < , > > : : : : : : : : : : : : : : : : : ; - - : > > < < < < < , , < < < < < < < < < < < < < < < < , , , ",
"        . . 3 3 3 1 < < , , > : : : : : : : - - : : : : = ; ; : : : : > > < < < , , , , , , < < < < < < < < < < , , , , , , , , ",
"        . . 2 3 3 3 1 < < , > > : : : : : : - = : : : - = = - - : : : : > , , , , , , , , , , < < < < < < , , , , , , , > > > > ",
"        . . < 3 3 3 1 < < , , > : : : : : : - = : : - : = = = = = : : : : : > > > > > , , , , , < < < , , , , > > > > > > : : : ",
"        . . < 3 3 1 3 < < < , > : : : : : : : : : - - - = = = - = = = - : : : : : > > , , , , , , , , , , > : : : : : : : : : : ",
"        . . , 3 3 1 1 < < < , > : : : : : : : : - - - - = = = = = = = = = : : : : : > > > , , , , , > > > : : : : : : : : : : : ",
"        . . > 3 3 3 1 < < < , , : : : : : : : : - - - - = = = = = = = = = = : : : : : > > > > > > > > : : : : : : : : - - - : : ",
"        . . : 2 2 2 1 < < < , , : : : : : : - : - - = = = = = = = = = = = = : : : : : : : : : : : : : : : : : : - = = = = = = = ",
"          . - 1 1 1 1 < < , , > : : : : : : : : - - - = = = = = = = = = = = - : : : : : : : : : : : : : - = = - = = = = = = = = ",
"          . = 1 1 1 1 < < , , > : : : : : : : : : - - - = = = = = = = = = = = - : : : : : : : : : : : - = = - = = = = = = = = * ",
"          . * < 1 1 < < < , , > : : : : : : : : : : : - = = = = = = = = = = = = = : : : : : : : : : : - = = - = = = = = = = * * ",
"          . $ < 2 1 < < , , , > : : : : : : : : : : : : : : = = = = = = = = = = = = = - - - - - - - - = = = = = = = = = * * * * ",
"          . $ < 2 1 1 < , , > > : : : : : : : > > > > : : : : - = = = = = = = = = = = = = = = = = = = = = * * * * * * * * * * * ",
"          . @ , 1 1 1 < , > > : : : : : : : > > , , , , > : : : = = = = = = = = = = = = = = * * * * * * & % % % * * * * * * * * ",
"          . + , 1 1 < < , > : : : : : : : : > > , , < , , > : : : : = = = = = = = * * * * * * * * % % % $ $ $ $ % % * * * * * * ",
"          . O > 1 1 1 < , : : : : : : : : > > , , , , , , > : : : : : - = = = = = = * * * * * % * % * * $ $ $ $ $ $ $ % % % $ % ",
"          . O > 1 1 1 < > : : : : : : : : > > , , , , , > : : : : ; = = - = = = = = = * * * * * * % * * $ $ $ $ $ $ $ $ $ $ $ $ ",
"          . X : 1 1 1 < > : : : : : : : > > , , , , , > : : : : - = = = = = = = = = = = = * * * * % * * $ $ $ $ $ $ $ $ $ $ $ $ ",
"          . . = < < < < > : : : : : : : > > , > , > > : : : : = = = = = = = = = = = = = = = * * * * * * % $ $ $ $ $ $ $ $ $ $ $ ",
"            . $ < < < < > : : : : : : > > > > , > > : : : = = = = = = = = = = = = = = = = = = = * * * * % $ $ $ $ $ $ $ $ $ $ $ ",
"            . + > < < < > > : : : : > > > > > , : : : - - = = = = = = = = = = = = = = = = = = * * * * * % % % $ $ $ $ $ $ $ $ # ",
"            . o - < < < , : : : : : : : : > > : : : - = = = = = = = = = = = = = = = = = = = = * * * * * * % % $ $ $ $ $ $ $ # # ",
"            . . * < < < > : : : : : : : : > : : : - = = = = = = = = = = = = = = = * * * = * * * * * * * * * % % % $ $ $ # # # # ",
"              . $ , < < > > : : : : : : : : : : - = = = = = = = = = = = = * * = * * * * * * * * * * * * % % % % $ $ $ # # # @ @ ",
"              . + > < < > > > : : : : : : : : - = = = = = = = = = = * = = * * * * * * * * * * * * * % % % % % $ $ $ # # # # # @ ",
"              . X : < < > > : : : : : : : : - = = = = = = = = = = = = * * = * * * * * * * * * * % % % % $ $ $ $ $ # # # @ @ @ @ ",
"              . . * < < > : : : : : : : : - = = = = = = = = = * = * * * * * * * * * * * * * * % % % % % $ $ $ $ # @ @ @ @ @ @ @ "
};
