/* XPM */
static char * bnse_xpm[] = {
"64 64 100 2",
"  	c #444945",
". 	c #356B42",
"+ 	c #499962",
"@ 	c #469660",
"# 	c #42915B",
"$ 	c #408855",
"% 	c #3F814F",
"& 	c #3D7949",
"* 	c #3B7142",
"= 	c #3A693D",
"- 	c #396338",
"; 	c #365B32",
"> 	c #244224",
", 	c #448E5A",
"' 	c #47965F",
") 	c #408653",
"! 	c #3B6F41",
"~ 	c #37582F",
"{ 	c #344A25",
"] 	c #32411E",
"^ 	c #313C1A",
"/ 	c #2B3313",
"( 	c #253116",
"_ 	c #232B0E",
": 	c #20270D",
"< 	c #1C220C",
"[ 	c #191E0A",
"} 	c #151A09",
"| 	c #0E1106",
"1 	c #070903",
"2 	c #000000",
"3 	c #2A5532",
"4 	c #489660",
"5 	c #43935D",
"6 	c #418C58",
"7 	c #3E7F4E",
"8 	c #325730",
"9 	c #44935D",
"0 	c #39663A",
"a 	c #2F3817",
"b 	c #141907",
"c 	c #0A0D05",
"d 	c #377448",
"e 	c #408755",
"f 	c #3F8351",
"g 	c #3D7747",
"h 	c #2D522E",
"i 	c #48935E",
"j 	c #3F8250",
"k 	c #385E34",
"l 	c #35542C",
"m 	c #334521",
"n 	c #111506",
"o 	c #1F2A12",
"p 	c #252E11",
"q 	c #3C7749",
"r 	c #3B7244",
"s 	c #3A6D3F",
"t 	c #344E29",
"u 	c #2B3718",
"v 	c #243A1D",
"w 	c #2B3B1B",
"x 	c #303817",
"y 	c #282F11",
"z 	c #1C2711",
"A 	c #233419",
"B 	c #2C4524",
"C 	c #244728",
"D 	c #346037",
"E 	c #386137",
"F 	c #1A331C",
"G 	c #31663E",
"H 	c #397547",
"I 	c #3D7C4B",
"J 	c #3C7F50",
"K 	c #0F1A0A",
"L 	c #367246",
"M 	c #3C784A",
"N 	c #31633C",
"O 	c #14220F",
"P 	c #2D5A36",
"Q 	c #356C42",
"R 	c #3C7344",
"S 	c #2B4E2B",
"T 	c #3B7143",
"U 	c #2E401F",
"V 	c #2E603B",
"W 	c #1E3D22",
"X 	c #0F1208",
"Y 	c #35683E",
"Z 	c #275230",
"` 	c #223F23",
" .	c #1F3017",
"..	c #3D7C4E",
"+.	c #1E391F",
"@.	c #172C16",
"#.	c #142512",
"$.	c #0F2312",
"%.	c #2D5E39",
"&.	c #264A2A",
"    . + @ # $ % & * = - ; > , ' # ) & ! - ~ { ] ^ / ( _ : < < [ } | 1 2 2 2 2 2 2 2 2 2 2 2 2 2 2 2 2 2 2 2 2 2 2 2 2 2 2 2 2 2 ",
"    3 4 @ 5 6 ) 7 & * = 8 7 9 & 5 $ 7 * 0 ~ { ] a ( _ : < [ } b | c c 1 2 2 2 2 2 2 2 2 2 2 2 2 2 2 2 2 2 2 2 2 2 2 2 2 2 2 2 2 ",
"      > d e 6 $ f % g ! h e i ' ' 6 j g = k l m ^ ( _ : < [ b n c c 1 2 2 2 2 2 2 2 2 2 2 2 2 2 2 2 2 2 2 2 2 2 2 2 2 2 2 2 2 2 ",
"              } o ( p _ : > j $ f 7 q r s 0 ; t ] a p : < } b | c 1 2 2 2 2 2 2 2 2 2 2 2 2 2 2 2 2 2 2 2 2 2 2 2 2 2 2 2 2 2 2 ",
"            } u ] ^ a ( _ : [ } } } } b } < ( v w ^ ( _ < } b c c 1 2 2 2 2 2 2 2 2 2 2 2 2 2 2 2 2 2 2 2 2 2 2 2 2 2 2 2 2 2 2 ",
"          < ] ] ^ x / y _ : : < < < < [ [ b b _ < b } < < [ b c c 1 2 2 2 2 2 2 2 2 2 2 2 2 2 2 2 2 2 2 2 2 2 2 2 2 2 2 2 2 2 2 ",
"        < m ] ^ ^ a ( ( _ _ : : < < < < n z ^ ( : < b c 1 c | c c 1 2 2 2 2 2 2 2 2 2 2 2 2 2 2 2 2 2 2 2 2 2 2 2 2 2 2 2 2 2 2 ",
"      | m m ] ^ ^ x a ( ( _ : : < < < n A ] a : < [ b | c 1 2 1 1 1 2 2 2 2 2 2 2 2 2 2 2 2 2 2 2 2 2 2 2 2 2 2 2 2 2 2 2 2 2 2 ",
"      p { m m ] ^ ^ ^ x a a / ( p : } B m a _ : < [ b | c 1 2 2 2 2 2 2 2 2 2 2 2 2 2 2 2 2 2 2 2 2 2 2 2 2 2 2 2 2 2 2 2 2 2 2 ",
"      w { { m ] u ( ( p ( ( ( p < A l { a p : : < [ } | c 1 2 2 2 2 2 2 2 2 2 2 2 2 2 2 2 2 2 2 2 2 2 2 2 2 2 2 2 2 2 2 2 2 2 2 ",
"      A { m p |           2 } C D E t ^ / y _ : < < } b c 1 2 2 2 2 2 2 2 2 2 2 2 2 2 2 2 2 2 2 2 2 2 2 2 2 2 2 2 2 2 2 2 2 2 2 ",
"      | <           F 3 G H I g 0 l m ^ a ( _ : : : < } | 1 1 2 2 2 2 2 2 2 2 2 2 2 2 2 2 2 2 2 2 2 2 2 2 2 2 2 2 2 2 2 2 2 2 2 ",
"                F J 9 # $ j g 0 ; { m ^ a ( / ( p : } c 1 2 2 2 2 2 2 2 2 2 2 2 2 2 2 2 2 2 2 2 2 2 2 2 2 2 2 2 2 2 2 2 2 2 2 2 ",
"              K $ @ 5 6 f & s E ~ t m ] ^ ^ ^ p b 2 2 2 2 2 2 2 2 2 2 2 2 2 2 2 2 2 2 2 2 2 2 2 2 2 2 2 2 2 2 2 2 2 2 2 2 2 2 2 ",
"              3 + ' # $ % g s E ; l t { { ^ < b n c 1 1 2 2 2 2 2 2 2 2 2 2 2 2 2 2 2 2 2 2 2 2 2 2 2 2 2 2 2 2 2 2 2 2 2 2 2 2 ",
"              3 + @ 5 $ j & ! 0 E ; ; l w [ : < } | 1 1 2 2 2 2 2 2 2 2 2 2 2 2 2 2 2 2 2 2 2 2 2 2 2 2 2 2 2 2 2 2 2 2 2 2 2 2 ",
"                L 6 M G N k D 0 = E t o < _ : [ b | 1 2 2 2 2 2 2 2 2 2 2 2 2 2 2 2 2 2 2 2 2 2 2 2 2 2 2 2 2 2 2 2 2 2 2 2 2 2 ",
"                O P d f e 7 Q P B < [ ( p : < [ b c 1 2 2 2 2 2 2 2 2 2 2 2 2 2 2 2 2 2 2 2 2 2 2 2 2 2 2 2 2 2 2 2 2 2 2 2 2 2 ",
"              G 6 5 6 $ j 7 q R ! 0 S A [ < < [ b c 1 2 2 2 2 2 2 2 2 2 2 2 2 2 2 2 2 2 2 2 2 2 2 2 2 2 2 2 2 2 2 2 2 2 2 2 2 2 ",
"            . @ ' # $ % & T = 0 k ; ; ; l w < n b c 1 2 2 2 2 2 2 2 2 2 2 2 2 2 2 2 2 2 2 2 2 2 2 2 2 2 2 2 2 2 2 2 2 2 2 2 2 2 ",
"          F 4 @ ' 6 e 7 g ! 0 E ; ~ l t { { { U p } 1 2 2 2 2 2 2 2 2 2 2 2 2 2 2 2 2 2 2 2 2 2 2 2 2 2 2 2 2 2 2 2 2 2 2 2 2 2 ",
"      < ( C 4 4 ' 5 $ j & * k E ; l t { m ] ] ^ ^ ^ ( : } n c 1 2 2 2 2 2 2 2 2 2 2 2 2 2 2 2 2 2 2 2 2 2 2 2 2 2 2 2 2 2 2 2 2 ",
"  } U m m u ( A A C V M f 7 k S ; l t { m ] ^ ^ a ( p : < [ b c 1 2 2 2 2 2 2 2 2 2 2 2 2 2 2 2 2 2 2 2 2 2 2 2 2 2 2 2 2 2 2 2 ",
"  A { m m ] ^ x a ( _ W h . 7 g 0 ~ t { m ] ^ ^ a ( _ : < } | c 1 2 2 2 2 2 2 2 2 2 2 2 2 2 2 2 2 2 2 2 2 2 2 2 2 2 2 2 2 2 2 2 ",
"  o { { m ] ^ ^ a a ( L 5 L C . & = ; { m ] ^ ^ a ( : : < } | c 1 2 2 2 2 2 2 2 2 2 2 2 2 2 2 2 2 2 2 2 2 2 2 2 2 2 2 2 2 2 2 2 ",
"    < w m m ] ^ ^ x a Q 5 6 j k > k s k l m ^ a ( y _ : < } | c 1 2 2 2 2 2 2 2 2 2 2 2 2 2 2 2 2 2 2 2 2 2 2 2 2 2 2 2 2 2 2 2 ",
"          | n b n c   C # $ % q s h v h k ; { ] a ( _ : < } | c 1 2 2 2 2 2 2 2 2 2 2 2 2 2 2 2 2 2 2 2 2 2 2 2 2 2 2 2 2 2 2 2 ",
"                        . $ 7 g = E ~ B ( v B t { ^ a _ < } X c 1 2 2 2 2 2 2 2 2 2 2 2 2 2 2 2 2 2 2 2 2 2 2 2 2 2 2 2 2 2 2 2 ",
"                        K L 7 R 0 ; l { ] ^ y < o ( ( ( _ < b c 1 2 2 2 2 2 2 2 2 2 2 2 2 2 2 2 2 2 2 2 2 2 2 2 2 2 2 2 2 2 2 2 ",
"              n < : : < } } Y g = ; t m ^ a ( _ : < b c c c 1 1 2 2 2 2 2 2 2 2 2 2 2 2 2 2 2 2 2 2 2 2 2 2 2 2 2 2 2 2 2 2 2 2 ",
"          } w m ] ^ ^ x a ( < h s E l m ^ a ( : : < } X c 1 2 2 2 2 2 2 2 2 2 2 2 2 2 2 2 2 2 2 2 2 2 2 2 2 2 2 2 2 2 2 2 2 2 2 ",
"        } m m m ] ^ ^ x / ( _ < o 8 ; { ^ a ( : < [ } | c 1 2 2 2 2 2 2 2 2 2 2 2 2 2 2 2 2 2 2 2 2 2 2 2 2 2 2 2 2 2 2 2 2 2 2 ",
"        A { m m ] ^ ^ x ( p : : < b A t { ] a _ : < } | c 1 2 2 2 2 2 2 2 2 2 2 2 2 2 2 2 2 2 2 2 2 2 2 2 2 2 2 2 2 2 2 2 2 2 2 ",
"        o { m m ] ] ^ x ( _ : < < < [ n o w ] a p < } n c 1 2 2 2 2 2 2 2 2 2 2 2 2 2 2 2 2 2 2 2 2 2 2 2 2 2 2 2 2 2 2 2 2 2 2 ",
"          n < p ( u ^ ^ a y : < < < [ [ [ n } : p _ < } | 1 2 2 2 2 2 2 2 2 2 2 2 2 2 2 2 2 2 2 2 2 2 2 2 2 2 2 2 2 2 2 2 2 2 2 ",
"                  1 < ( a ( : : < [ [ } b b b | c 1 | | c 1 2 2 2 2 2 2 2 2 2 2 2 2 2 2 2 2 2 2 2 2 2 2 2 2 2 2 2 2 2 2 2 2 2 2 ",
"                v Z ` O < _ _ : < [ } b b | | c 1 1 2 2 2 2 2 2 2 2 2 2 2 2 2 2 2 2 2 2 2 2 2 2 2 2 2 2 2 2 2 2 2 2 2 2 2 2 2 2 ",
"          ` Q f 6 $ e 7 H k > [ [ [ } b n | c c 1 2 2 2 2 2 2 2 2 2 2 2 2 2 2 2 2 2 2 2 2 2 2 2 2 2 2 2 2 2 2 2 2 2 2 2 2 2 2 2 ",
"        Q ' 5 6 $ j & g ! = 0 E S  .n n n | c c 1 2 2 2 2 2 2 2 2 2 2 2 2 2 2 2 2 2 2 2 2 2 2 2 2 2 2 2 2 2 2 2 2 2 2 2 2 2 2 2 ",
"      G @ ' 5 $ j & R = 0 k ; ~ ~ ~ t v } c c c 1 2 2 2 2 2 2 2 2 2 2 2 2 2 2 2 2 2 2 2 2 2 2 2 2 2 2 2 2 2 2 2 2 2 2 2 2 2 2 2 ",
"      , + ' 5 $ j & * = E ; ~ l { { { { m w p } c 1 2 2 2 2 2 2 2 2 2 2 2 2 2 2 2 2 2 2 2 2 2 2 2 2 2 2 2 2 2 2 2 2 2 2 2 2 2 2 ",
"      ..$ e $ 6 e % g s E ; ~ t { m m ] ^ ^ a a p < [ n c 1 2 2 2 2 2 2 2 2 2 2 2 2 2 2 2 2 2 2 2 2 2 2 2 2 2 2 2 2 2 2 2 2 2 2 ",
"              +.P H j & s E ~ t { m ] ^ ^ a ( _ : < [ b c 1 1 2 2 2 2 2 2 2 2 2 2 2 2 2 2 2 2 2 2 2 2 2 2 2 2 2 2 2 2 2 2 2 2 2 ",
"                  2 > L 7 T E l { m ] ^ ^ a ( _ : < } n c 1 1 2 2 2 2 2 2 2 2 2 2 2 2 2 2 2 2 2 2 2 2 2 2 2 2 2 2 2 2 2 2 2 2 2 ",
"            +.V Q L Q P S ! R 0 ~ { ] ^ ^ a ( _ : < } n c 1 2 2 2 2 2 2 2 2 2 2 2 2 2 2 2 2 2 2 2 2 2 2 2 2 2 2 2 2 2 2 2 2 2 2 ",
"          Q ' ' # $ ) 7 r S > D 0 ; { ] ^ a ( _ : < } n c 1 1 2 2 2 2 2 2 2 2 2 2 2 2 2 2 2 2 2 2 2 2 2 2 2 2 2 2 2 2 2 2 2 2 2 ",
"        C + @ 5 6 f 7 g ! k A > v S ; ~ { ^ a p : < } n c 1 2 2 2 2 2 2 2 2 2 2 2 2 2 2 2 2 2 2 2 2 2 2 2 2 2 2 2 2 2 2 2 2 2 2 ",
"        @.9 @ 5 $ j & 0 > 3 ! = ~ w : A B { m ^ ( : [ b c 1 2 2 2 2 2 2 2 2 2 2 2 2 2 2 2 2 2 2 2 2 2 2 2 2 2 2 2 2 2 2 2 2 2 2 ",
"          W L $ 6 & S P & g 0 ~ { m ] ^ ( < < o p : < } | 1 2 2 2 2 2 2 2 2 2 2 2 2 2 2 2 2 2 2 2 2 2 2 2 2 2 2 2 2 2 2 2 2 2 2 ",
"              1 W P 7 7 * E ~ { { m ^ ^ ^ a y : < b 1 | [ [ b | 1 2 2 2 2 2 2 2 2 2 2 2 2 2 2 2 2 2 2 2 2 2 2 2 2 2 2 2 2 2 2 2 ",
"          #.P L f j & s ; l { { { m ] ^ ^ a p < } p u ^ ( _ < [ b c 1 2 2 2 2 2 2 2 2 2 2 2 2 2 2 2 2 2 2 2 2 2 2 2 2 2 2 2 2 2 ",
"      $.d 9 5 $ j & = > %.Q N h > A p : p p v B { ^ a y : < [ b | c 1 2 2 2 2 2 2 2 2 2 2 2 2 2 2 2 2 2 2 2 2 2 2 2 2 2 2 2 2 2 ",
"      N + @ 5 $ % & S $ @ ' # 6 e % & * 0 k l m a p : : < [ } X c 1 1 2 2 2 2 2 2 2 2 2 2 2 2 2 2 2 2 2 2 2 2 2 2 2 2 2 2 2 2 2 ",
"      %.+ @ 5 $ f H H + ' # $ f 7 g s E ~ { ^ a ( _ : < < [ b | c 1 2 2 2 2 2 2 2 2 2 2 2 2 2 2 2 2 2 2 2 2 2 2 2 2 2 2 2 2 2 2 ",
"        P e ' # 6 H L @ 5 6 ) 7 g = E ~ { ] ^ a ( _ : < < } b c 1 1 2 2 2 2 2 2 2 2 2 2 2 2 2 2 2 2 2 2 2 2 2 2 2 2 2 2 2 2 2 2 ",
"            F &.3 S ` 9 5 6 f & ! 0 k ~ { ] ^ a ( _ : : < } b c 1 2 2 2 2 2 2 2 2 2 2 2 2 2 2 2 2 2 2 2 2 2 2 2 2 2 2 2 2 2 2 2 ",
"                      &.$ 6 ) 7 * 0 ~ l { u ] ^ a a ( _ < [ b c 1 2 2 2 2 2 2 2 2 2 2 2 2 2 2 2 2 2 2 2 2 2 2 2 2 2 2 2 2 2 2 2 ",
"                | < : p A . j % q ! 0 k ~ w { ] a _ < [ } b n c 1 2 2 2 2 2 2 2 2 2 2 2 2 2 2 2 2 2 2 2 2 2 2 2 2 2 2 2 2 2 2 2 ",
"            } u ^ ^ ^ a ( : z ` S h l t B v o n 2 2 2 2 2 2 2 2 2 2 2 2 2 2 2 2 2 2 2 2 2 2 2 2 2 2 2 2 2 2 2 2 2 2 2 2 2 2 2 2 ",
"          o m m ] ^ a ( _ : < [ } b n | c c | c c 1 2 2 2 2 2 2 2 2 2 2 2 2 2 2 2 2 2 2 2 2 2 2 2 2 2 2 2 2 2 2 2 2 2 2 2 2 2 2 ",
"        | m { m m ^ x ( _ : < [ } b b n | c c c 1 1 2 2 2 2 2 2 2 2 2 2 2 2 2 2 2 2 2 2 2 2 2 2 2 2 2 2 2 2 2 2 2 2 2 2 2 2 2 2 ",
"        < { { { m ] ^ a ( z %.%.#.b b | | c c 1 1 2 2 2 2 2 2 2 2 2 2 2 2 2 2 2 2 2 2 2 2 2 2 2 2 2 2 2 2 2 2 2 2 2 2 2 2 2 2 2 ",
"          w { m m ^ ^ a p Q ' 6 j S | | c c c 1 2 2 2 2 2 2 2 2 2 2 2 2 2 2 2 2 2 2 2 2 2 2 2 2 2 2 2 2 2 2 2 2 2 2 2 2 2 2 2 2 ",
"              |     c n | 7 5 6 ) % Y v c c 1 1 2 2 2 2 2 2 2 2 2 2 2 2 2 2 2 2 2 2 2 2 2 2 2 2 2 2 2 2 2 2 2 2 2 2 2 2 2 2 2 2 "};
