/* XPM */
static char *a22f2464f5bb48e49920e4e49f6b1f98[] = {
/* columns rows colors chars-per-pixel */
"64 64 161 2 ",
"   c None",
".  c #010101",
"X  c #090706",
"o  c #0D0A09",
"O  c #110E0C",
"+  c #15110E",
"@  c #18120F",
"#  c #171210",
"$  c #1A1411",
"%  c #1E1915",
"&  c #211A16",
"*  c #241D1A",
"=  c #281F1C",
"-  c #27201D",
";  c #29221E",
":  c #2E2522",
">  c #2D2622",
",  c #2E2622",
"<  c #2F2622",
"1  c #2E2722",
"2  c #2F2722",
"3  c #2E2623",
"4  c #2F2623",
"5  c #2E2723",
"6  c #2F2723",
"7  c #2D2521",
"8  c #2F2724",
"9  c #2C2421",
"0  c #302622",
"q  c #302722",
"w  c #302723",
"e  c #312723",
"r  c #302724",
"t  c #312724",
"y  c #302723",
"u  c #302823",
"i  c #312823",
"p  c #302824",
"a  c #312824",
"s  c #312924",
"d  c #302825",
"f  c #312825",
"g  c #302925",
"h  c #312925",
"j  c #322824",
"k  c #322924",
"l  c #332924",
"z  c #322825",
"x  c #332825",
"c  c #322925",
"v  c #332925",
"b  c #322A25",
"n  c #332A25",
"m  c #322926",
"M  c #332926",
"N  c #322A26",
"B  c #332A26",
"V  c #342A26",
"C  c #342B26",
"Z  c #352B26",
"A  c #342B27",
"S  c #352B27",
"D  c #342C27",
"F  c #352C27",
"G  c #362C27",
"H  c #322926",
"J  c #352B28",
"K  c #352C28",
"L  c #352D28",
"P  c #362C28",
"I  c #372C28",
"U  c #362D28",
"Y  c #372D28",
"T  c #372C29",
"R  c #372D29",
"E  c #372E29",
"W  c #372D2A",
"Q  c #352C29",
"!  c #382D28",
"~  c #382D29",
"^  c #382E29",
"/  c #392E29",
"(  c #382D2A",
")  c #382E2A",
"_  c #392E2A",
"`  c #382F2A",
"'  c #392F2A",
"]  c #3A2F2A",
"[  c #3A2F2B",
"{  c #382F2A",
"}  c #39302B",
"|  c #3A302A",
" . c #3A302B",
".. c #3B302B",
"X. c #3B312B",
"o. c #3B302C",
"O. c #3B312C",
"+. c #3C302C",
"@. c #3C312C",
"#. c #3C312D",
"$. c #3C322C",
"%. c #3C322D",
"&. c #3D322D",
"*. c #3D332D",
"=. c #3E322D",
"-. c #3D322E",
";. c #3D332E",
":. c #3E322E",
">. c #3E332E",
",. c #3F332E",
"<. c #3E332F",
"1. c #3F332F",
"2. c #3E342E",
"3. c #3F342E",
"4. c #3E342F",
"5. c #3F342F",
"6. c #3C322C",
"7. c #3F3530",
"8. c #40342F",
"9. c #40352F",
"0. c #40352F",
"q. c #403530",
"w. c #413530",
"e. c #403531",
"r. c #413531",
"t. c #423530",
"y. c #413630",
"u. c #413631",
"i. c #413731",
"p. c #423630",
"a. c #423631",
"s. c #423731",
"d. c #433731",
"f. c #423632",
"g. c #423732",
"h. c #433732",
"j. c #443732",
"k. c #403530",
"l. c #433832",
"z. c #433833",
"x. c #443832",
"c. c #443833",
"v. c #453833",
"b. c #443933",
"n. c #453933",
"m. c #463933",
"M. c #453834",
"N. c #443934",
"B. c #453934",
"V. c #463934",
"C. c #453A34",
"Z. c #463A34",
"A. c #473A34",
"S. c #463A35",
"D. c #473A35",
"F. c #463B35",
"G. c #473B35",
"H. c #473B36",
"J. c #483A35",
"K. c #483B37",
"L. c #4B3F39",
/* pixels */
"( R R R R R A B B B B B B B B B B B B B B B B B r r B r w w w w w w i B B B B A R ( %.q.j.Z.Z.Z.Z.Z.Z.Z.Z.Z.x.Z.L.%.X           ",
"R R R R A A B B r r r B B B B B B B B B r 6 w 6 6 6 6 6 6 6 6 6 6 w w r B B R ( %.9.q.x.x.Z.Z.Z.Z.Z.Z.Z.Z.Z.Z.Z.J.R .           ",
"R R R J A B B B B r B B r w w w 6 6 6 6 6 6 6 6 6 6 6 6 6 6 6 6 6 6 w B A R %.%.q.q.q.x.Z.Z.Z.Z.Z.Z.Z.Z.Z.Z.Z.Z.Z.A .           ",
"R J A B B B B B w 6 6 6 6 6 6 6 6 6 6 6 6 6 6 6 6 6 6 6 6 6 6 6 6 i B F ( %.%.9.q.q.q.x.x.Z.Z.Z.Z.Z.Z.Z.Z.Z.Z.Z.Z.B .           ",
"B B B B B B 8 8 6 6 6 6 6 6 6 6 6 6 6 9 6 6 6 6 6 6 6 6 6 6 6 6 B A R ( $.%.%.5.q.q.q.z.x.Z.Z.Z.Z.Z.Z.Z.Z.Z.Z.Z.Z.B .           ",
"B B g B 6 6 6 6 6 6 6 6 9 6 6 6 9 6 6 6 6 6 9 6 6 6 6 6 6 6 6 B A ( X.$.%.%.%.%.5.q.q.q.x.Z.Z.J.J.J.Z.Z.Z.Z.Z.Z.Z.r .           ",
"r r B 6 6 6 6 9 9 9 ; ; 9 9 6 6 9 9 9 9 6 6 6 9 9 9 6 6 6 6 w A R ( X.%.%.%.%.%.9.q.q.q.q.Z.Z.Z.Z.Z.Z.Z.Z.Z.Z.Z.Z.6 .           ",
"8 r 6 6 6 6 9 9 9 ; ; ; ; ; 6 6 9 9 9 9 6 6 9 9 9 6 6 6 6 6 i A R ( X.%.%.%.%.q.q.q.q.q.q.x.Z.Z.Z.Z.Z.Z.Z.Z.Z.Z.Z.6 .           ",
"g w 6 6 9 9 ; ; ; ; ; ; ; 9 9 9 9 9 9 6 6 9 9 6 ; ; 6 6 6 w w B A ( ( $.%.%.%.9.q.q.q.q.x.x.Z.Z.Z.Z.Z.Z.Z.Z.Z.Z.Z.; .           ",
"8 6 6 9 9 ; ; ; ; ; ; ; ; ; 9 9 9 9 9 9 9 9 9 9 ; ; 6 6 6 6 6 w B A ( $.%.%.%.9.q.q.q.q.z.x.Z.Z.Z.Z.Z.Z.Z.Z.Z.Z.Z.* .           ",
"6 6 9 9 ; ; ; ; ; ; ; ; ; ; 9 9 9 9 9 9 9 9 9 9 ; 6 6 6 6 6 6 w w B A R X.%.%.5.q.q.q.z.x.x.Z.Z.Z.Z.Z.Z.Z.Z.Z.Z.x.% .           ",
"9 9 9 ; ; ; ; ; ; ; ; ; ; ; ; 9 9 9 9 9 9 9 9 9 ; 9 6 6 6 6 6 6 w i B A R ( %.%.9.q.q.q.q.x.x.Z.Z.Z.Z.Z.Z.Z.Z.Z.q.$ .           ",
"; ; ; ; ; ; ; ; ; ; ; ; ; ; ; ; ; ; ; ; ; ; ; 9 9 6 6 6 6 6 6 6 6 i i B A R ( $.%.%.q.q.q.q.x.x.x.x.x.x.Z.x.x.x.q.+ .           ",
"- - - - - ; - - ; - - ; ; ; ; ; ; ; ; ; ; ; ; 9 6 9 9 6 6 6 6 6 6 6 w w B A R ( %.%.5.q.q.q.q.x.x.x.Z.x.x.x.x.z.5.o .           ",
"* * * - - - - - - - - - - ; ; ; ; ; ; ; ; ; ; 9 9 9 9 9 9 9 9 9 6 6 6 6 w i B R ( $.%.%.9.q.q.q.q.q.z.x.x.z.z.z.X.X .           ",
"* * * * * - - - - - - - - ; - - ; ; ; ; ; ; ; ; ; 9 ; ; ; ; ; ; 9 ; 6 6 6 6 w B F ( X.%.%.%.9.q.q.q.q.q.q.q.q.q.6 .             ",
"* * * * * - - - - - - - - - ; ; ; ; ; ; ; ; ; ; ; ; 9 9 9 9 9 9 9 ; 9 6 6 6 6 6 i A ( X.%.%.%.5.q.q.q.q.q.q.q.q.* .             ",
"* * * * * * * * * * * * - - - - - - - ; ; ; ; ; ; ; 9 9 9 9 9 ; ; ; ; 9 9 6 6 6 6 6 B F R ( X.%.%.%.%.%.5.%.9.9.% .             ",
"* * * * * * * * * * * * - - - - - - - - ; ; ; ; ; ; ; ; ; ; ; ; ; ; ; ; ; ; ; 6 ; ; 6 i B A F R R ( ( ( X.%.9.5.# .             ",
"* * * * * * * * * * * * * * * * * - - - ; ; ; ; ; ; ; ; ; ; ; ; ; ; ; ; ; ; ; ; ; ; ; 6 6 w B B A F R ( X.5.q.q.+ .             ",
"* * * * * * * * * * * * * * * * * * - - - - - - ; ; ; ; - - - - - - ; ; ; ; ; ; ; 9 ; 6 6 r B A R ( $.%.q.x.Z.x.# .             ",
"* * * * * * * * * * * * * * * * * * * - * * * * * - = * * * * * = * = = ; ; ; ; ; ; 6 B A R ( X.%.q.z.Z.Z.Z.Z.Z.% .             ",
"* * * * * * * * * * * * * * * * * * * * * * * * * * * * * * * * * * * * * - ; ; 6 6 B ( X.%.5.q.q.Z.Z.Z.Z.Z.Z.Z.* .             ",
"& * * * * * * * * * * * * * * * * * * * - - * * * * * * * * * * * * * * * - ; 6 B A ( %.5.q.q.q.q.Z.Z.Z.Z.Z.Z.Z.B .             ",
"& & & & * * * * * * * * * * * * * * * * * * * * * * * * * * * * * * * * * ; 6 i A ( %.%.%.9.9.q.q.x.Z.Z.Z.Z.Z.Z.R X             ",
"% & & & & & * * * * * * * * * * * * * * * * * * * * * * * * * * * * * * * 6 B F ( X.%.%.%.9.q.q.q.x.Z.Z.Z.Z.Z.Z.F X             ",
"% % % & & & * * * * * * * * * - * * * * * * * * * * * * * * * * * * * * * 6 R ( %.%.%.5.9.q.q.q.q.x.Z.Z.Z.Z.Z.Z.i X             ",
"% % % & & * * * * * * * * - * * * * * * * * * * * * * * * * * * * * * * * ; B ( $.%.%.5.9.q.q.q.z.x.x.x.Z.Z.Z.Z.9 .             ",
"% % & * * * * * - - - - * * * * * * * * * * * * * * * * & & & * & & & * * * ; w R ( $.%.%.5.q.q.q.z.x.x.Z.Z.Z.x.* .             ",
"* * - ; 9 9 9 9 9 9 ; - * * * * * * * * * * * * * * * * & & & & & & & & * * * ; 6 B R X.%.%.%.5.q.q.q.x.Z.x.x.9.# .             ",
"6 8 B B B A B B B 8 6 6 9 ; * * * * * & & & % & & & * * & & & & & & & & & & & * * ; 6 B F R ( ( X.X.%.7.q.9.5.B o .             ",
"A R R R R J J A A B B B 6 9 ; - * * & & % % % % % % % % & & & % % & & & & & & & & & & * ; 6 6 6 6 6 i R ( ( ( ; X .             ",
"R R R R R R J J J B B r 8 6 6 ; - * * & % % % % % $ $ % % % % % % % % & % % % & % % & & & * * * * * * ; B A R * .               ",
"R J R R J J J J A B B B B 8 6 6 ; ; * * & % % % $ $ $ $ $ % % % % % % % % % % % % % % % & & & & & & * * ; B R & .               ",
"J R R J J J J J B B B B B B r 6 6 9 ; * * % % % $ $ $ $ $ $ $ % % % % % % % % % % % % % % % & & & & & * - w R * .               ",
"R R R R J J J J A B B B B r r 6 6 6 ; - * % % $ $ $ $ $ $ $ $ $ $ % % % % % % % % % % % % & & & & & & * * 6 R * X               ",
"R R R R J J A B B B B B r r 8 6 6 9 - * % $ $ $ $ $ $ $ $ $ $ $ $ $ % % % % % % % % % % % % % & & & & * - w ( ; X .             ",
"J J J J A A B B B B B B 8 r 6 9 ; * & % $ $ $ # # # # # $ $ $ $ $ $ $ $ % % % % % % % % % % % & & & & * ; A X.B o .             ",
"B B B B r B r 6 8 r r r 8 6 ; * * % $ # # # # + + + # + + $ $ $ $ $ $ $ % % % % % % % % % % & & & & & * 6 ( %.R + .             ",
"; ; ; ; ; ; 9 9 9 9 9 9 ; * & $ $ # + + # + + + + + + + + # $ $ $ $ $ $ % % % % % % % % % % & & & & * ; B X.%.%.% .             ",
"& & & & * * * * * * * & % $ # # + + + + + + + + + + + + + # # # $ $ $ $ $ $ $ $ $ $ % % % % & & & & * 6 F %.%.%.; X .           ",
"$ $ $ % % % % % % % % $ # + + + + + + + + + + + + + + + + + # + # # # $ $ $ $ $ $ $ $ $ % & % % & & * w ( %.%.5.R + .           ",
"$ $ $ $ $ $ $ $ $ $ # + + + + + + + + + + + + + + + + + + + + + + + + + $ $ $ $ $ $ $ $ % % % % & * ; B X.%.%.5.%.* .           ",
"$ $ $ $ $ $ $ # # + + + + + + + + + + + + + + + + + + + + + + + + + + + + $ $ $ $ $ $ $ % % % % & * ; A X.$.%.5.9.; .           ",
"$ $ $ $ $ + + + + + + + + + + + + + + + + + + + + + + + + + + + + + + + + + # $ $ $ $ $ % % % & & * ; F X.$.%.5.q.; .           ",
"$ $ $ $ $ @ + + + + + + + + + + + + + + + + + + + + + + + + + + + + + + + + + # $ $ $ $ $ % % % % * ; F X.$.%.5.5.; .           ",
"$ $ $ $ $ $ @ + + + + + + + + + + + + + + + + + + + + + + + + + + + + + + + + + # $ $ $ $ % % % & * ; R ( X.%.%.5.- .           ",
"$ $ $ $ $ $ $ $ $ + + + + + + + + + + + + + + + + + + + + + O + + + + + + + + + + $ $ $ $ $ % % & * ; R ( ( %.%.%.* .           ",
"$ $ $ $ $ $ $ $ $ $ + + + + + + + + + + + + + + + + + + + + + + + + + + + + + + + + $ $ $ $ % % & * ; A ( ( X.%.%.* .           ",
"$ $ $ $ $ $ @ $ $ @ $ $ + + + + + + + + + + + + + + + + + + + + + + + + + + + + + + + $ $ $ $ % & * ; F R ( X.%.$.* .           ",
"$ $ $ $ $ @ @ @ @ @ $ $ $ $ # + + + + + + + + + + + + + + + + + + + + + + + + + + + + + $ $ $ % % * ; A R R X.$.$.* .           ",
"$ $ $ $ @ @ @ @ @ @ $ $ $ $ $ $ + + + + + + + + + + + + + + + + + + + + + + + + + + + + $ $ $ $ % & ; A F F ( $.$.* .           ",
"$ $ $ @ $ $ $ $ $ $ $ $ $ $ @ @ @ @ + + + + + + + + + + + + + + + + + + + + + + + + + # $ $ $ % % & ; B F A R $.$.* .           ",
"$ $ $ @ $ $ $ $ $ $ $ $ @ + + @ @ + + + + + + + + + + + + + + + + + + + + + + + + + + + # # $ $ % & ; B A B R X.X.* .           ",
"$ $ @ @ @ $ $ $ $ $ $ @ + + @ @ @ @ + + + + + + + + + + + + + + + + + + + + + O + + + + # # $ $ $ % ; i B B A ( ( * .           ",
"$ $ $ @ $ $ $ $ $ $ @ + + + @ @ @ @ + + + + + + + + + + + + + + + + + + + + + + + + + + + # $ $ $ % * i B B B R ( & .           ",
"$ $ $ $ $ $ $ @ @ $ + + + + @ @ @ + + + + + + + + + + + + + + + + + + + + + + + + + + + + + $ $ $ $ * 6 B i i R ( & .           ",
"$ $ $ $ $ $ $ $ @ $ + + + + @ @ @ + + + @ @ @ @ @ @ + + + + + + + + + + + + + + + + + + + # # $ $ $ & ; w w w A R & .           ",
"$ $ $ $ $ $ $ $ $ $ + + + + + + + + @ @ + @ + + @ + + + + + + + + + + + + + + + + + + + + + # $ $ $ % ; 6 w 6 B R & .           ",
"% $ $ $ $ $ $ $ $ $ + + + + + + + @ @ @ + + + $ $ @ + + + + + + + + + + + + + + + + + + + + + # $ $ % * 6 6 6 i J & .           ",
"& % % $ $ $ $ $ $ $ + + + + + + @ @ @ @ @ $ $ $ $ $ $ + + + + + + + + + + + + + + + + + + + + # # $ $ & ; ; 6 6 A & .           ",
"& & & & & $ $ $ $ $ + + + + @ @ @ @ @ $ $ $ $ $ $ $ $ $ + + + + + + + + + + + + + + + + + + + + # # $ % * ; ; 6 B % .           ",
"& & & & & & & $ $ $ $ + + + @ @ @ @ $ $ $ $ $ $ $ $ $ $ $ + + + + + + + + + + + + + + + + + + + + # $ $ & * ; 6 i $ .           ",
"& & & & & & & & % $ $ $ $ @ @ @ @ @ $ $ $ $ $ $ $ $ $ $ $ $ @ + + + + + + + + + + + + + + + + + + # # $ % * * ; 6 O .           "
};
