/* XPM */
static char *f344b9c47f9e488787747d4e9490fcc9[] = {
/* columns rows colors chars-per-pixel */
"64 64 143 2 ",
"   c None",
".  c #000100",
"X  c #070903",
"o  c #0A0C05",
"O  c #0E1106",
"+  c #0F1208",
"@  c #0D1A0A",
"#  c #111606",
"$  c #141907",
"%  c #121508",
"&  c #161A09",
"*  c #191E0A",
"=  c #15220E",
"-  c #1D230C",
";  c #152612",
":  c #1B2610",
">  c #142915",
",  c #1D2C14",
"<  c #1A2F18",
"1  c #1F3117",
"2  c #1D331A",
"3  c #1F391F",
"4  c #20270D",
"5  c #232A0E",
"6  c #252D11",
"7  c #282F11",
"8  c #233216",
"9  c #2C3313",
"0  c #2F3817",
"q  c #243419",
"w  c #283619",
"e  c #243A1D",
"r  c #2B3B1B",
"t  c #303817",
"y  c #313C1A",
"u  c #1E3E23",
"i  c #223E21",
"p  c #283F20",
"a  c #2D401F",
"s  c #32411E",
"d  c #254325",
"f  c #2C4322",
"g  c #2E4926",
"h  c #264728",
"j  c #244B2C",
"k  c #2D4D2A",
"l  c #334521",
"z  c #344A25",
"x  c #344E28",
"c  c #2C512E",
"v  c #36542C",
"b  c #37582F",
"n  c #2A5532",
"m  c #2D5A35",
"M  c #2E5E38",
"N  c #365A32",
"B  c #385E34",
"V  c #315F38",
"C  c #2F623B",
"Z  c #356137",
"A  c #386136",
"S  c #316039",
"D  c #34653C",
"F  c #396338",
"G  c #39663A",
"H  c #396539",
"J  c #35693E",
"K  c #34683F",
"L  c #36693F",
"P  c #3A683B",
"I  c #38683C",
"U  c #3A6B3E",
"Y  c #3A6C3E",
"T  c #3A6A3D",
"R  c #356A40",
"E  c #366E43",
"W  c #346B42",
"Q  c #3B6E40",
"!  c #3B6F41",
"~  c #377145",
"^  c #3B7041",
"/  c #3B7042",
"(  c #3C7344",
")  c #3C7445",
"_  c #3C7546",
"`  c #3D7747",
"'  c #3C7445",
"]  c #397649",
"[  c #397749",
"{  c #3A7648",
"}  c #3D7848",
"|  c #3D7949",
" . c #3D7A4A",
".. c #3E7C4B",
"X. c #3B7E4F",
"o. c #3C7C4D",
"O. c #3D7C4D",
"+. c #3E7E4C",
"@. c #3E7E4D",
"#. c #3E7F4D",
"$. c #3E7F4E",
"%. c #3D7C4B",
"&. c #3F804F",
"*. c #3F814F",
"=. c #3F824F",
"-. c #3F814F",
";. c #3F8151",
":. c #3F8250",
">. c #3F8451",
",. c #3F8452",
"<. c #3F8351",
"1. c #3F8955",
"2. c #408653",
"3. c #408754",
"4. c #408553",
"5. c #408855",
"6. c #418856",
"7. c #408A56",
"8. c #418B57",
"9. c #428A57",
"0. c #408956",
"q. c #418C58",
"w. c #418D59",
"e. c #418E59",
"r. c #418E5A",
"t. c #418F5A",
"y. c #448C58",
"u. c #418D59",
"i. c #41905B",
"p. c #43935D",
"a. c #45905C",
"s. c #44945E",
"d. c #44945F",
"f. c #45955F",
"g. c #47945E",
"h. c #43935D",
"j. c #469660",
"k. c #479760",
"l. c #479760",
"z. c #499761",
"x. c #489861",
"c. c #499962",
"v. c #499962",
/* pixels */
". . . . . . . . . . . . . . . . . . . . . X X X O % $ * - - 4 5 5 7 9 t s z v N F Q ) ..*.4.5.q.h.s.c.y.k +.,.5.i.s.k.c.:.      ",
". . . . . . . . . . . . . . . . . . . . . X X o O % & * - - 5 5 5 9 y l v N F P (  .+.,.5.q.i.h.s.k.s.k P ..*.3.q.s.k.c.+.      ",
". . . . . . . . . . . . . . . . . . . . . X X o % $ * - - 5 5 9 0 s z v x f e e e e h n S E +.5.5.{ i k ) ..:.5.q.s.k.a.h       ",
". . . . . . . . . . . . . . . . . . . . X X o O $ * - 4 5 9 0 y l a 8 $ * 5 9 0 0 y y r r r q 8 8 f B /  .*.4.5.q.X.C >         ",
". . . . . . . . . . . . . . . . . . . . . X O % * - 5 7 9 0 0 6 # O - 5 9 9 0 y y s l l z x v v B F /  .:.4.{ n ;               ",
". . . . . . . . . . . . . . . . . . . . . . . X X O # $ # o . X % - 4 5 7 9 0 y y s l l z x v N P ( +.:.L 3 & .                 ",
". . . . . . . . . . . . . . . . . . . . . . . . . . X X o % * - - - * $ * 5 9 y y s l l z v B P  .+.R 2 q z v x f : .           ",
". . . . . . . . . . . . . . . . . . . . . . . . . . . X o % & - 5 9 y s l r , * 6 0 s z v A Q ) L i - s z x v v v N f .         ",
". . . . . . . . . . . . . . . . . . . . . . . . . . . X o O % * - 5 7 0 y z v v k e - r B Y V 2 4 0 s l z x v v v N N $         ",
". . . . . . . . . . . . . . . . . . . . . . . . . . . X o O % * - 4 5 7 9 0 y z v N A c 1 = # 0 y y l l z x v v v N N *         ",
". . . . . . . . . . . . . . . . . . . . . . . . . . . X o O % & - - 5 5 9 9 0 y s z v A P A i - 0 l z z x v v v N v q           ",
". . . . . . . . . . . . . . . . . . . . . . . . . . . X o O % & - - 5 5 9 9 0 y y s l v B P ) Q h - f z x x x g e #             ",
". . . . . . . . . . . . . . . . . . . . . . . . . . . X o O % & - - 5 5 9 0 t y y s l z x N P ) +.' d O O o                     ",
". . . . . . . . . . . . . . . . . . . . . . . . . . . X o O % & - 4 5 5 9 0 t y y s l l z v N F /  .:.~ d X                     ",
". . . . . . . . . . . . . . . . . . . . . . . . . . . X o + $ * - 4 5 7 9 0 t y y s l l z x v N F Y ) +.4. .M i #               ",
". . . . . . . . . . . . . . . . . . . . . . . . . . . X o % & - 5 5 9 0 0 t y y s s l z z x v N B F Y ) ..:.5.q.q.:.:.4.+.u     ",
". . . . . . . . . . . . . . . . . . . . . . . . . . . . . . . X o # - 7 y s l l l l l z x v v N B A P Q ) +.,.5.i.s.k.c.c.D     ",
". . . . . . . . . . . . . . . . . . . . . . . . . . . . . . . X X o O O O = w z x x x x v v v N B F P Q )  .*.5.q.h.k.c.z.u     ",
". . . . . . . . . . . . . . . . . . . . . . . . . . . . . . . X X o O % * - & # , g v N N N N B A F P /  .+.:.5.i.s.k.k.E       ",
". . . . . . . . . . . . . . . . . . . . . . . . . . . . . . . X X o O % * - - 5 5 - = e b F F P P / )  .+.,.5.q.h.s.s.E O       ",
". . . . . . . . . . . . . . . . . . . . . . . . . . . . . . . X X o O % * - 4 5 7 9 y 0 6 , k I ) ..+.,.3.5.q.i.q.{ d .         ",
". . . . . . . . . . . . . . . . . . . . . . . . . . . . . . . X X o % & * - 4 5 7 9 y s z v x d 8 h m R { { W c :               ",
". . . . . . . . . . . . . . . . . . . . . . . . . . . . . . . X o + & * - 4 5 5 9 0 y y l x N F Q V ; .                         ",
". . . . . . . . . . . . . . . . . . . . . . . . . . X X o O # O o o & 4 7 9 9 9 0 t y s l x v B P )  .V 2 X                     ",
". . . . . . . . . . . . . . . . . . . . . . . . . . . X o % * - 5 7 5 * * 7 y y y y y s l x v N F (  .:.:. .C j 1 *             ",
". . . . . . . . . . . . . . . . . . . . . . . . . . . X o O % * 4 7 0 y y q * 6 0 s s l l z v N F Q  .*.4.5.q.h.a.a.+.u         ",
". . . . . . . . . . . . . . . . . . . . . . . . . . . X X O % & - 4 5 9 y l z f : 6 s l z x v N F Q  .+.,.5.q.i.s.k.c.{         ",
". . . . . . . . . . . . . . . . . . . . . . . . . . . X X O % & * - 5 5 9 y l x v g - q z v v N F Q ` +.:.3.5.i.h.k.c.E         ",
". . . . . . . . . . . . . . . . . . . . . . . . . . . X X o % & * - 5 5 9 0 y s x N A k - g N A F Q ` +.:.4.5.q.h.s.3.<         ",
". . . . . . . . . . . . . . . . . . . . . . . . . . . X X o % & * - 5 5 9 9 0 y l v N P F e i F P ( ` +.:.4.5.q.h. .<           ",
". . . . . . . . . . . . . . . . . . . . . . . . . . . X o O % & - - 5 5 9 9 t y l x b F Q ) c 1 c A P '  . .] D h X             ",
". . . . . . . . . . . . . . . . . . . . . . . X X o # $ $ $ O O & - 5 9 9 0 y s l x v A P ) +.V X                               ",
". . . . . . . . . . . . . . . . . . . . . . . X X O & - 5 9 0 y r 8 - * 6 0 s l z v N A P ( +.4.V .                             ",
". . . . . . . . . . . . . . . . . . . . . . . X X o % & - 5 7 0 y l x v f 1 - r x v B F P ) +.4.5.n                             ",
". . . . . . . . . . . . . . . . . . . . . . . X X O % & * - 5 5 9 0 y l v N N k , e N P Q ) +.3.q.1.<                           ",
". . . . . . . . . . . . . . . . . . . . . . . X X o % & * - 5 5 7 9 0 y s z v A P V e i G  .*.5.q.h.C = q w r r a f r q : X     ",
". . . . . . . . . . . . . . . . . . . . . . . X X o % & * - 5 5 7 9 0 t y y l x N P ( L h d ' 5.i.s.%.q l l z x x v v v v x ,   ",
". . . . . . . . . . . . . . . . . . . . . . . X X o % & * - 5 5 7 9 0 y y s s l x v F ( ..' h c ,.s.o.7 y s l l z x v v v N N , ",
". . . . . . . . . . . . . . . . . . . . . . . X X o % & * - 5 5 7 9 0 y y s l l z x v A Q  .*.~ d m j 9 y y s l l x v v v N N e ",
". . . . . . . . . . . . . . . . . . . . . . . X X O % & - - 5 5 9 9 0 y y s l l z x v v A N I +.,.{ n , 4 9 0 y l z x v v N b = ",
". . . . . . . . . . . . . . . . . . . . . . . X X O % * - 5 7 9 9 0 t y y s l l z x v v N v k Q  .:.3.5.+.~ R L R j r v v g =   ",
". . . . . . . . . . . . . . . . . . . . . . . . . X X X O $ - 9 y y s s s s l l z x v v N A F Y )  .*.3.q.h.s.k.c.a.6 , O       ",
". . . . . . . . . . . . . . . . . . . . . . . . . . . . . . . X O : r l x z z x x v v v N A F P /  .+.,.5.h.s.k.c.4..           ",
". . . . . . . . . . . . . . . . . . . . . . . . . . . . . . X X o O O # 6 g v v v v b N B A F Y )  .*.4.q.h.s.k.s.j             ",
". . . . . . . . . . . . . . . . . . . . . . . . . . . . . . X X o % & * * $ = f N A F F F P Q )  .+.,.5.q.h.s.s.M               ",
". . . . . . . . . . . . . . . . . . . . . . . . . . . . . . X X o % & * - 5 5 - * , k P ) ` ..+.:.3.5.q.h.h. .d                 ",
". . . . . . . . . . . . . . . . . . . . . . . . . . . . . . X X o % & * - 5 5 9 9 - # , e c I { *.5.,.{ M 8 X                   ",
". . . . . . . . . . . . . . . . . . . . . . . . . . . . . . X X o % & * 4 5 7 - = f N F P A N c c n n D +.q.m                   ",
". . . . . . . . . . . . . . . . . . . . . . . . . . . . . . X X O % * - 5 5 # r v N B A F P / ) +.,.5.i.s.k.z.u                 ",
". . . . . . . . . . . . . . . . . . . . . . . . . . . . . . X X O & - 5 * * s x v v v N B F P (  .:.5.q.h.k.c.W                 ",
". . . . . . . . . . . . . . . . . . . . . . . . . . . . . . X X X o o o 7 y l l z z x v N A P (  .:.5.i.s.k.c.n                 ",
". . . . . . . . . . . . . . . . . . . . . . . . . . . . . . . . . o - 9 y y y y s l x v N A P ) +.4.q.h.s.c.5.$                 ",
". . . . . . . . . . . . . . . . . . . . . . . . . . . . . . X # - 5 9 9 0 0 0 t y l z v N F /  .,.5.i.h.k.5.3                   ",
". . . . . . . . . . . . . . . . . . . . . . . . . . X X o % & - 5 5 5 7 7 9 9 0 y l z v A /  .:.5.5.:.~ m @                     ",
". . . . . . . . . . . . . . . . . . . . . . . . . . X X o % & - - 4 4 5 5 7 9 0 y l v A Q ) / S j ; X               = e 8       ",
". . . . . . . . . . . . . . . . . . . . . . . . . . X X o O % & * - - 4 5 5 9 0 y x B F c < X .               O : f v N v o     ",
". . . . . . . . . . . . . . . . . . . . . . . . . . . X X O % & * - - 5 5 5 9 y z N g = 6 w r r w q q q q r f x v v v N v O     ",
". . . . . . . . . . . . . . . . . . . . . . . . . . . X X O % & * - - 5 5 7 0 l x , - 0 y y s l l l z z z x x x v v v N v X     ",
". . . . . . . . . . . . . . . . . . . . . . X X . . . X X O % $ * - - 5 7 0 l l $ - 7 9 9 0 0 y y y y s l l z x v v v v r       ",
". . . . . . . . . . . . . . . . . . . . . . X X X X . X X O % $ * - 4 7 0 s r # - 5 5 5 5 7 9 9 0 t y y s l l z x v v v #       ",
". . . . . . . . . . . . . . . . . . . . . . X X o O % o X X O & * - 5 0 y 6 O - 4 5 5 5 5 7 9 9 0 0 y y y l l x v v v :         ",
". . . . . . . . . . . . . . . . . . . . . . X X o O % * - * # o # - 9 9 * # - - 4 5 5 5 5 5 7 9 9 0 t y y l z x v x ,           ",
". . . . . . . . . . . . . . . . . . . . . . X X o O % & - 5 5 9 7 6 * o O & * - - 4 5 5 5 5 7 9 9 0 y y s z x v z =             ",
". . . . . . . . . . . . . . . . . . . . . . X o o O % & - - 5 9 t s z x z f d e 8 , , 6 8 e , - 9 y y l l z l w #               "
};
