/* XPM */
static char *c46a9c058f7f420f91dc80c29bbb2bf6[] = {
/* columns rows colors chars-per-pixel */
"64 64 56 1 ",
"  c None",
". c black",
"X c #010000",
"o c #010100",
"O c #010101",
"+ c #020000",
"@ c #030000",
"# c #020100",
"$ c #030100",
"% c #020101",
"& c #020200",
"* c #030200",
"= c #030300",
"- c #020201",
"; c #030301",
": c #020202",
"> c #030202",
", c #030302",
"< c gray1",
"1 c #040202",
"2 c #040302",
"3 c #050302",
"4 c #040303",
"5 c #050303",
"6 c #060303",
"7 c #040402",
"8 c #050402",
"9 c #040403",
"0 c #050403",
"q c #050503",
"w c #060403",
"e c #060503",
"r c #040404",
"t c #050404",
"y c #050504",
"u c gray2",
"i c #060404",
"p c #060504",
"a c #070504",
"s c #060505",
"d c #070505",
"f c #070604",
"g c #070605",
"h c #080505",
"j c #080605",
"k c #080705",
"l c #080606",
"z c #090606",
"x c #090706",
"c c #090806",
"v c #090807",
"b c #0A0806",
"n c #0A0807",
"m c #0B0807",
"M c #0B0907",
"N c #0B0908",
/* pixels */
"NNnnnnxxxxxgggg00000ggg00ggg1ggg...0gg777.....100010011000000000",
"nnnnnxxxxxg000000000gg001111.ggg..70gg.........700....111101g000",
"nnnxxxxxxg0000000000grr11.....g<....ggr.<r0g....0gg..<.g1.10g000",
"nnxxxxxxg000000000011rr1............00...700...70gr..rrg..101001",
"xxggxxxg000000011111111...70....0007111170....07..00....00g01100",
"xxxggggg00000111111111.....0....7700111100..0.00..707...00gg..1g",
"gggggggg000011111111.77...g0g07.77....117...0000..0000..70....0g",
"ggggggg000011111111.7777..0gg0..777...11....1000..00007.7.....0g",
"ggggggg007..11111...0000.........11111.....111.....7..000000.010",
"ggggggg0....111.7...00............11........11........0000....11",
"gggggg001111111000..0.......................11..................",
"ggggg00111111.110...............................................",
"rrg0000111......................................................",
"1100111111......................................................",
"................................................................",
"................................................................",
"................................................................",
"................................................................",
"................................................................",
"................................................................",
"................................................................",
"................................................................",
"................................................................",
"................................................................",
"................................................................",
"................................................................",
"................................................................",
"................................................................",
"................................................................",
"................................................................",
"................................................................",
"................................................................",
"................................................................",
"................................................................",
"................................................................",
"................................................................",
"................................................................",
"................................................................",
"................................................................",
"................................................................",
"................................................................",
"................................................................",
"................................................................",
"................................................................",
".............................................................   ",
"..........................................................      ",
".......................................................         ",
".....................................................           ",
"...................................................             ",
"................................................                ",
".............................................                   ",
"..........................................                      ",
".........................................                       ",
".........................................                       ",
"........................................                        ",
"........................................                        ",
".......................................                         ",
"......................................                          ",
"......................................                          ",
".....................................                           ",
"....................................                            ",
"...................................                             ",
"...................................                             ",
"..................................                              "
};
