/* XPM */
static char * bnw_xpm[] = {
"64 64 146 2",
"  	c #010200",
". 	c #070903",
"+ 	c #0A0C04",
"@ 	c #0E1106",
"# 	c #111507",
"$ 	c #151B0A",
"% 	c #191E0A",
"& 	c #20270D",
"* 	c #253115",
"= 	c #2A3A1C",
"- 	c #1C220C",
"; 	c #252D11",
"> 	c #2A391A",
", 	c #2E3D1C",
"' 	c #121509",
") 	c #2B3719",
"! 	c #2E4221",
"~ 	c #293D1E",
"{ 	c #141907",
"] 	c #232A0E",
"^ 	c #2B3314",
"/ 	c #2F411F",
"( 	c #334B26",
"_ 	c #1C2B15",
": 	c #334E28",
"< 	c #0E1409",
"[ 	c #314723",
"} 	c #35532C",
"| 	c #274122",
"1 	c #33502A",
"2 	c #365931",
"3 	c #152A16",
"4 	c #1A2612",
"5 	c #202710",
"6 	c #282F11",
"7 	c #2C3719",
"8 	c #305630",
"9 	c #39653A",
"0 	c #213D22",
"a 	c #30411F",
"b 	c #386338",
"c 	c #36663B",
"d 	c #142312",
"e 	c #2D3B1C",
"f 	c #304321",
"g 	c #36582F",
"h 	c #376136",
"i 	c #3A6D3F",
"j 	c #315F38",
"k 	c #273418",
"l 	c #34512B",
"m 	c #386237",
"n 	c #3C7647",
"o 	c #2B5632",
"p 	c #303817",
"q 	c #243218",
"r 	c #334D27",
"s 	c #3B6E40",
"t 	c #3D7B4B",
"u 	c #285331",
"v 	c #2F3817",
"w 	c #313A19",
"x 	c #21341A",
"y 	c #23391D",
"z 	c #283E20",
"A 	c #355C33",
"B 	c #3E814F",
"C 	c #265434",
"D 	c #313D1B",
"E 	c #234225",
"F 	c #2A4C2A",
"G 	c #2C4524",
"H 	c #2D4A27",
"I 	c #3A6B3E",
"J 	c #3B7344",
"K 	c #3E8352",
"L 	c #32643C",
"M 	c #254B2C",
"N 	c #2B5D3A",
"O 	c #2D5935",
"P 	c #385F34",
"Q 	c #418654",
"R 	c #36784B",
"S 	c #1C331C",
"T 	c #32411E",
"U 	c #2D623D",
"V 	c #306742",
"W 	c #36693E",
"X 	c #428D59",
"Y 	c #3F8A56",
"Z 	c #324522",
"` 	c #192D19",
" .	c #1B3721",
"..	c #23452A",
"+.	c #244E31",
"@.	c #2F6540",
"#.	c #336C43",
"$.	c #367146",
"%.	c #44925D",
"&.	c #3C7B4C",
"*.	c #1D3C23",
"=.	c #324824",
"-.	c #17321E",
";.	c #2F6842",
">.	c #367449",
",.	c #408A56",
"'.	c #48935E",
").	c #1E4229",
"!.	c #3D7E51",
"~.	c #479660",
"{.	c #4C9B64",
"].	c #334A25",
"^.	c #458758",
"/.	c #15210E",
"(.	c #3A764A",
"_.	c #4A9661",
":.	c #3A6F41",
"<.	c #2C512E",
"[.	c #1E3017",
"}.	c #365730",
"|.	c #344E28",
"1.	c #121E10",
"2.	c #549E68",
"3.	c #55A26A",
"4.	c #5AA46D",
"5.	c #1E391F",
"6.	c #599B67",
"7.	c #0D1B0C",
"8.	c #61AA71",
"9.	c #5EA970",
"0.	c #213E22",
"a.	c #4B8F5D",
"b.	c #5C9F6A",
"c.	c #519D66",
"d.	c #519362",
"e.	c #376237",
"f.	c #60A16B",
"g.	c #444945",
"h.	c #1E4127",
"i.	c #152D18",
"j.	c #0E200F",
"k.	c #365B31",
"l.	c #365B32",
"m.	c #2E3B1B",
"n.	c #3F8B58",
"o.	c #0B0700",
"                                                              . + + @ # $ % & * = -           . + + + + + + @ @ @ + + + + + + + ",
"                                                            . . + + # # $ % - ; > , #     . . + + @ @ @ @ # ' ' ' ' # @ @ @ @ + ",
"                                                          . + + + @ # # $ % - ; ) ! ~   . + + @ # # ' ' ' { $ { { { $ { ' ' ' # ",
"                                                      . . + + + @ # # $ % - - ] ^ / ( _   + @ ' ' { $ $ $ % % $ $ % % $ $ $ $ { ",
"                                                        + @ @ # # # $ $ % - & ] ^ , ( : < @ ' $ $ % % - - - % % - - - - % % % % ",
"                                                          . # $ $ % $ % - & ] ; ^ , [ } | + % % - - - - - - - - - - - - - - - - ",
"                                                            . $ - - - - - ] ; ^ ^ > [ 1 2 3 % - & & ] ] ] & & & & & & ] ] ] ] & ",
"                                                                % 4 5 & ] ; 6 ^ 7 , [ : 2 8 @ ] ] ] ] ] ] ] ] ] ] ] ] ] ] ] ] ] ",
"                                                      . . . + .   % ; ; ; ; ^ ^ > , [ : 2 9 0 % ] ] ] ] ] ] ; ] ; ; 6 6 ^ ^ ^ ^ ",
"                                                    . . + + + + +   - * * ^ ^ 7 , a [ : 2 b c d ] ; ; ^ ^ ^ ^ ^ ^ ^ ^ ^ ^ ^ ^ ^ ",
"                                                . . . + + + @ @ # @ . ; ) ) ) e , f ( : g h i j ' ^ ^ ^ ^ ^ ^ ^ ^ ^ ^ ^ ^ ^ ^ ^ ",
"                                                . . + + + @ # # $ $ # # k = e , / [ ( l 2 m i n o % ^ ^ ^ ^ ^ ^ ^ p p p p p p p ",
"                                            . . . + + @ # # { $ - ; q { - ~ , / f ( r } 2 m s n t u - v v p p w w w w w w w w w ",
"                                          . . + + + @ # # $ % 4 x y z y @ k ! [ ( r 1 } A 9 i n t B C % v w w w D D D D D D D w ",
"                                        . . + + @ @ # # $ - x E F F G H x $ ! ( : 1 } 2 h I J t t K K L d ^ D D D D D D D D D v ",
"                                    . . . + + @ @ # $ % 4 0 M u C N O o H - ; : } } 2 P 9 i J t t K Q Q R S ; a a a T a T a w > ",
"                                  . . + + + @ ' d 4 3 S E M u O N U V W 2 H { ~ } 2 P h 9 J n t B K Q Q X Y C $ ) a Z Z f a ^ D ",
"                                . . + + @ < d `  . .E ..+.C N U @.#.$.R L j H $ G P 9 9 i J t t B K Y Q X %.%.&.*.- f =.[ [ D =.",
"                            . . + @ @ ' $ d -. .*...M +.C N U ;.#.>.R &.>.c c } $ G 9 i J n t t B K Y ,.X %.'.'.%.N ; [ =.=.=.=.",
"                          . . + @ < ' $ $ `  .*.).M C C N U ;.#.R &.!.K K J W I P _ x h J t t t K K Y Q X %.'.~.{.K $ [ =.=.=.=.",
"                          . + + < < $ $ d ` *.).M +.C N U V #.>.&.!.K Y Q Y R J J P # q G i t B K K Q X X %.'.~.{.L _ =.( ].].].",
"                          + + < < $ $ d d -.)...+.C N N @.V #.#.#.&.Q ^.X X X Y t I /.t W y H s B Q Q X %.%.'.%.(.d ! ( ].].].].",
"                        . + + < $ $ d d 3  ...+.C C N U N U L L #.K Q X X %.%.%.X R - Q '.'.&.F y o s t K B s F /.! ].].r ].].].",
"                        . + < ' $ d d 3 `  .M C C N N N N U V R K Q ^.X %._._.'.'.Q 3 t '.{.{.{.X :.<.y _ [.0 j t }.|.|.|.|.|.|.",
"                      . . @ ' $ d d d ` ` *.+.C N N U V #.R &.K Q ^.X %._.{._.~.'.Q /.B %.'._.{.{.{.{._._.'.~.{.{.X n 2 l l l |.",
"                    . . + ' $ 1.d 3 ` S S E C N N U V #.R !.K Q ^.X '.{.{._._.{._.R @ C %.%.%._.{.{.{.{.{.{.{.2.3.4.3.'.9 } } } ",
"                    . . + ' $ d 3 ` -.5. ...N N U V #.V V &.Q ^.X _.6.{._.{.{.{.{.L _ 7.U %.%.%.{.{.{.{.{.2.4.8.8.8.9.4.3.^.n J ",
"                  . . + @ $ d 4 ` -. . .0.+.N U V #.$.>.&.K ^.a.6.b.c._.{.{.{.{.{.M <.W ` C X %.'.{.{.{.{.{.3.8.9.4.4.4.4.9.9.4.",
"                . + + + # $ d 3 S  .*.E ..C U V #.>.&.!.Q ^.d.6.b.b.c.{.{.{.{.{.X 3 e.s c E ).^.'.'._.{.{.{.2.4.8.8.4.4.4.3.4.4.",
"              . . + + + { d 3 `  .*.E ..M N @.#.>.&.!.Q ^.a.6.b.f.3.c.{.{.2.{.{.#.7.F j 9 i o  .K '.'._.{.{.{.3.4.4.4.4.4.3.3.3.",
"              . . + + @ $ 4 ` 5.0 E ..M u U V >.(.&.!.Q ^.a.6.4.4.b.2.2.2.2.{.J S F E F j i J L 3 K '.'.~.{.{.{.3.3.3.3.3.3.3.3.",
"            . . + + @ # 4 3 S  .E ..M M C N V >.&.!.K Q a.d.6.b.3.3.2.2.2.{.t S W s s s J J t t $ < #.'.~.~.{.{.3.3.3.2.2.c.3.3.",
"            . + + + @ $ 3 S 5.0...M u C U V >.(.&.K ^.a._._.c.2.3.2.2.2.{.'.5.L t n n n n t B t _ g.  F X {.{.{.{.2.2.2.2.{.{.{.",
"            . + + @ # $ ` S y ..M u C U #.>.R &.K ^.X X X '._.c.2.2.2.2.{.$.h.K B t t t t B K K ; g.g.  3 t ~.{.{.{.{.{.{.{.{.{.",
"            + + @ # # 4 S y 0 M u O N V >.R &.K Q Q ^.X X %._.{.c.2.{.{.Q /.).R K K B B K Q Q K _ g.g.g.g.@ #._.{.{.{.{.{.{.{.{.",
"                . @ $ _ y 0 ..u C N U >.(.&.K K Q Q ^.X %.'._.c.2.{.{.^.S ; ; %  .U &.K Q Q X K $ g.g.g.g.g.  u _.{.{.{.{._.(.5.",
"                      < 4 y M C N U #.&.&.!.K Y Q ^.X X %._.{.{.{.{.X S ] ^ w a e _ d M V K X R + g.g.g.g.g.g.  i.L &.>.u j.  g.",
"                  + + + + + /.0 O L R &.!.K Y Q ^.X X %.%._._._.{.Q y 7.] ^ w a [ ].( ! _ d h.*.  g.g.g.g.g.g.g.g.g.g.g.g.g.g.g.",
"                  + + @ # $ % # ' 0 L &.K Y Q ^.X X %.%.%.%._.'.L *.J O { ^ ^ w a ].l } 2 2 } G S % +     g.g.g.g.g.g.g.g.g.g.g.",
"                  . + @ # $ - & & - ' *.V K ^.^.X X X %.'.'.J 0 <.K Q R + ; ^ ^ D [ r } 2 m 9 I J J s W L N o *.  g.g.g.g.g.g.g.",
"                  . + + # $ % - ; ^ ^ ; $ 0 $.Q X %.'.'.&.E E J Y Q Q Q 5.& ^ ^ w a =.|.} A 9 I J n t B K Q Q X U . g.g.g.g.g.g.",
"                  . + + # { $ - - ; ^ e , * % F Q Q #.0 5.W Y X X Q X X L { ^ ^ D a [ r } 2 m 9 s n t B K Q X %.%.U   g.g.g.g.g.",
"                  . + @ # ' $ % - ] ; ^ , [ ! ; $ { y W R t Q %.%.%.X X t @ ^ w D a =.|.} k.m 9 i n t B K Q X %.'.K . g.g.g.g.g.",
"                . + + @ # { % % - & ] ^ ^ , [ : ! $ 0 R Y t K %.%.%.%.X X E ; D a [ ].l } l.m 9 s n t B Y X %.%.'.$.  g.g.g.g.g.",
"                . + + @ # $ % - - - ] ; ^ 7 / ( } } x _ $.Y X X %.%.%.%.X #.% a [ ].|.} 2 m 9 i J t t K Q X %.'.X 0 g.g.g.g.g.g.",
"                . + @ # ' $ % - - & ] 6 ^ ^ m.[ : 2 P H /.L n.%.%.%.%.%.%.Y 7.[ l } } A m 9 i J n t K Q Q %.%.Q F g.g.g.g.g.g.g.",
"                . + @ # $ % % - - ] ; ; ^ ^ > a ( } P 9 2 _ F Y X X %.%.%.%.5.G A P m 9 I s J n t B K Q Q K L ` g.g.g.g.g.g.g.g.",
"            + + .   @ $ % - - - ] ] ; 6 ^ ^ m.a ( l 2 9 i 9 x H K X X X X %.0 /.x | H 2 h I s J J #.L o 0 $   g.g.g.g.g.g.g.g.g.",
"            + @ $ # . # - & ] ] ; ; ^ ^ ^ > D f ( l g h I n s x F Y X Q X %.0 E <.M h.-.d $ 1.1.d -.*.  g.g.g.g.g.g.g.g.g.g.g.g.",
"            + @ $ - - @ # ] ; ^ ^ ^ ^ > w D a [ r l g m I J t J _ O Q Q X '.0 o s n t t K K K n.X '.{.*.g.g.g.g.g.g.g.g.g.g.g.g.",
"              . # % ] ] # @ & ^ ^ > D a f [ =.( l } 2 m I J t B J 4 W Q %.'.*.o i n t B Q Q %.%.~.~.{...g.g.g.g.g.g.g.g.g.g.g.g.",
"                  . + @ $ @ . @ & > f [ ( r l l } 2 P 9 I J t B K L _ t '.~.0 o s n t K Q X %.'.~.{.%./.g.g.g.g.g.g.g.g.g.g.g.g.",
"                    . + @ ' $ % % # - > r } } 2 A m 9 9 i J t B Q Q G <.'.'.` j J t B Q Q %.%.'.~.~.u   g.g.g.g.g.g.g.g.g.g.g.g.",
"                  . + @ # $ % - ] * ^ - % ~ } P 9 9 I i J n t K Q X R _ Q Q d I n t Q Q X %.'.~.%.u   g.g.g.g.g.g.g.g.g.g.g.g.g.",
"                  . + @ { % - - & & - { +   % G b I s J n t t K Q X X F #.K ` n t K Y X X Y (.O 3   g.g.g.g.g.g.g.g.g.g.g.g.g.g.",
"                    . . + + .     . + # % - % + _ 2 J n t t K Q ,.%.%.W o K i.t t J L M _ o.  g.g.g.g.g.g.g.g.g.g.g.g.g.g.g.g.g.",
"                                + + # $ % - - - $ @ E J t B K Q X %.%.R <.Q 7.M 4   g.g.g.g.g.g.g.g.g.g.g.g.g.g.g.g.g.g.g.g.g.g.",
"              . . + +           . + @ ' $ % - - - - % 4 W K Y Q X %.'.J j %.7.g.g.g.g.g.g.g.g.g.g.g.g.g.g.g.g.g.g.g.g.g.g.g.g.g.",
"              . . + @ # @ .     . + @ ' { % - - - & ] ] { O K X %.%.'.O #.%.d g.g.g.g.g.g.g.g.g.g.g.g.g.g.g.g.g.g.g.g.g.g.g.g.g.",
"              . + + @ ' $ % % { +   . @ ' % - - - & ] ] ^ - M R Y X (._ Q X < g.g.g.g.g.g.g.g.g.g.g.g.g.g.g.g.g.g.g.g.g.g.g.g.g.",
"              . . + @ ' $ - - ] ] ] - $ + + # % - & ] ] ^ ( <.....M M (.'.K   g.g.g.g.g.g.g.g.g.g.g.g.g.g.g.g.g.g.g.g.g.g.g.g.g.",
"              . + + @ ' $ % - ] ] ^ ^ w D , * - # @ $ - ~ j #.#.R (.&.K K V   g.g.g.g.g.g.g.g.g.g.g.g.g.g.g.g.g.g.g.g.g.g.g.g.g.",
"              . + @ @ ' $ % - & ] ^ ^ w a ].l } g }.} <.G 0 5.5.*.*.*.....i.  g.g.g.g.g.g.g.g.g.g.g.g.g.g.g.g.g.g.g.g.g.g.g.g.g.",
"            . + + @ # ' $ % - - ] ] ^ ^ D [ r } 2 m I J n t K Q X %.'.{.{._.J < g.g.g.g.g.g.g.g.g.g.g.g.g.g.g.g.g.g.g.g.g.g.g.g."};
