/* XPM */
static char * Bs_xpm[] = {
"64 64 52 1",
" 	c #444945",
".	c #050403",
"+	c #080706",
"@	c #0D0B09",
"#	c #0A0807",
"$	c #110E0C",
"%	c #1A1512",
"&	c #211A17",
"*	c #2D2521",
"=	c #3C312D",
"-	c #473A35",
";	c #51433D",
">	c #554741",
",	c #594A44",
"'	c #5C4D47",
")	c #5F4F4A",
"!	c #483B38",
"~	c #443833",
"{	c #3F3430",
"]	c #392E2A",
"^	c #1E1815",
"/	c #362C29",
"(	c #4B3F39",
"_	c #534640",
":	c #51443E",
"<	c #2A221E",
"[	c #241D1A",
"}	c #4C3F3A",
"|	c #584943",
"1	c #493C37",
"2	c #4D403A",
"3	c #574842",
"4	c #62514C",
"5	c #65544F",
"6	c #695752",
"7	c #6D5A57",
"8	c #715D59",
"9	c #6A5854",
"0	c #665450",
"a	c #604F4A",
"b	c #5B4C47",
"c	c #332A25",
"d	c #171210",
"e	c #65534F",
"f	c #4F423D",
"g	c #302723",
"h	c #60504B",
"i	c #40342F",
"j	c #483C36",
"k	c #27201D",
"l	c #281F1B",
"m	c #15110E",
"                                                                ",
"                                                                ",
"                                                                ",
"                       .+@@..                  .++.             ",
"       .#@$%&%$#.+@%*=-;>,')>;!~{{=]*&$###$^*/(_,,:-/<&[[$      ",
"    #/}:>,,,|>;1~-(2;>333,,')4567888790a,3>3,,,,bbb,,,3:;}c.    ",
"   d(,,,,,,,33_;2(1---1(2:3,)a4567796e4)b,333>f(111(}2;;;;;g    ",
"  @2||||,,,,33>;2(1--------(f,h06977965a,:2(-~~===~~~~~-2f2($   ",
"  =33333,3333>:2(--------~~~~~-}>,)),_(--~~~=======i~~~~-2}}<   ",
" .2>>3:(-~~~==========={~~{~{{={{~~~~~======]]======i~~~~j(}c   ",
" $:::(==]/////]]]]]]]]]]]]]=======]]//cccccccccc/]=i~~~~~~1(c   ",
" d:;-==/cccccc////////////////////ccccccccggggg*gcc==~~~~~-1c   ",
" d;-~~~=cccccccc//////////]]//]]]//cccccccccgg****gc/=~~~~j}g   ",
" @1----~=]ccggggccccccccc//]]/]===]]]]]/////ccg*****gc==~~-(<   ",
" .~-----~~=cg*********gccc//]]]]========]]]//ccc*****g]==~~1<   ",
" .~----~~===/g***********ccc//]]=]========]]//ccg*<<**]==~~1<   ",
" .~----~~~==]c********<***ccc/]]==========]]//ccc*<<<*c==i~-[   ",
"  =----~~~==cg*******<<<<**ccc//]]=======]]]//ccc**<<<c]==~-[   ",
"  =-~-~~~=]cg****<<<<<<<<<<**gcc/]]]]]==]]///cccg**<<<*]==i~[   ",
"  c~~~~~=]c******<<<<<kkklllk<*gc/]]]]]]]]//cccg**<<[<*/===~[   ",
"  <~ii==/g**<***<<<<kkkkk[[[[[[l<*c]]]]]]//ccc***<[[[l<c]==~&   ",
"  [~=/cc*<<<<<<<<kkkk[[[[[[[[&&&&[l***c///ccc**<[[&&[<<*]]=i&   ",
"  <-~i=c*<<kllllkklll[[[[[[[[&&^^^^^^^[gcccg*<[&^^^&[<<*/]]=&   ",
"  g---~=]c<[[[[[[[[[[[[[[[&&&&&^^^%%%%%[**<[&^^^^^^&[k<<c]]=^   ",
"  c--~~i=]c[[[[[[[[[l[[[[&&^^^^^^%%ddddd%%%%%%%%%^&&[[<<*/]]^   ",
"  <-~~~==/<[[[[[[[[[llkk[[^^%%%%%%%ddddddddddd%%^^&&[[[<*//]%   ",
"  %==]]c*[&&&&&&&&&[l**ccc**[%%ddmmmmmmmmmmmdd%%^^^&[[[[<c/]%   ",
"  @c*[[[^^^^^^^^^^&l**c//////g[%mm$$m$$mmmmmdd%%^^^&&[[[<g//m   ",
"  $c[&&^^^^^^%%%%^l**ccc//////c<^d$$$$$$mmmmddd%%^^^&[[[<*cc$   ",
"  %]k&&^^^^^%%%ddd^l*gccc/////c**&d$$$$$$mmmmmd%%%^^&&[[k*cc#   ",
"  k=*&&^^^^%%%dddmmd^k*gggccccg**k^m$$$$$$$mmmmd%%^^^&[[[<c*.   ",
" ./=c[^^%%%%ddddmmm$md&*cg*******k^d$$$$$$$$mmmdd%%^^^&k[<g<    ",
" .==/[^^%%dddmmmmm$$$$$d^[[[[[&^^%dm$$@@$$$$$mmdd%%%^^&*l<g[    ",
" .==/[^%%ddmmmmmm$$$@$$$$$$$$$$$mmm$$$@@@@$$$$mmdd%%%^[c<<*^    ",
" .]=/[^%%ddmmm$$$$$@@@@@@@@@@$$$$$@@@@@@@@@@$$mmmd%%%%[cc<*d    ",
" .//c[%%%dmmm$$$$@@@@@@@@@@@@@@@@@@@@@@@@@@@@$$mmmd%%%k//<*d    ",
" .//c&%%ddmmm$$@@@@@@@##@@@@@@@@#@@@@@@@@@@@@$$$mmmd%%</]g*%    ",
" .ccg^%%dmmm$$@@@@@@@@@###@@######@@###@@@@@@@$$mmmmd%<c]cg%    ",
" .c**^%%dmm$$$@@@#########################@@@@$$$mmmd%<c//g&    ",
" .**<%%%dd%mm$@@@###+#++############+++###@@@@@$$$mmd%<c//c<    ",
"  <<[^%d%^^%dm$@@###++++###+++##++++#######@@@@@$$$mm%<c//c*.   ",
"  [<[^%%^^^^%%m$@##++++++++++++++++++++####@@@@@@$$mm%<cccc*.   ",
"  %k&%%%^^^^%%dm$@#++++++++++++++++++++######@@@@$$mm%<gcccg#   ",
"  d[^%%^&^^%%%dm$$#+++...+++..++++...++++++###@@@$$mmd[*cccc@   ",
"  m[^%%&&^^%%%dm$$@++....++..+++++++....+++###@@@$$$md[*cccc$   ",
"  m[^%%^&^^%%ddm$@@#+..........+........+++###@@@$$$md^*ccccd   ",
"  m[^%d^&^^%%dmm$$@#++..................+++###@@@$$$md^<gccc%   ",
"  m[^%d%^&^^%ddm$@@#+...................+++###@@@$$$md%<*ccc%   ",
"  %[^%mm%^^%%ddm$@@+++..................+++###@@@$$$md%[*cgg%   ",
"  %[^%m$m%^%%dm$@@#++...................+++###@@@$$$md%&*g**%   ",
"  m[^%m$$$d%dm$@@#+++....................+++###@@$$$md%^<*<*%   ",
"  $&^%m$$$$m$@@##+++++....................++##@@@$$$md%^l<<*%   ",
"  @&^%m$$@@@@@@##++++...................++++##@@@$$$md%%[[[*%   ",
"  #^%%m$$@@@@@###+++++..................++++##@@@$$$md%%&[[*%   ",
"  .%%dm$$@@@@####+++....................+++###@@@$$$md%%^&[*%   ",
"   d%mm$$@@@@###++++....................+++###@@@$$$md%%^^k*d   ",
"   d%m$$$$@@@###++++++..................+++###@@@$$$md%%%^<*m   ",
"   d%m$$$$@@@###+++++...................+++###@@@$$$md%%%&<*$   ",
"  .^^m$$$@@@@###+++++...................+++###@@@@$$mdd%%&<*$   ",
"  #l&d$$@@@@@###++++.....................+++##@@@@$$mdd%%[<*$   ",
"  d<[%$$@@@@@###++++......................++##@@@@$$mdd%%[<<$   ",
"  ^*l^m$@@@@@###++++......................++##@@@@$$mdd%%&<<$   ",
"  %*<&m$@@@@@###++++......................+++##@@@$$mdd%%&[<m   ",
"  d*<[%$@@@@@###++++......................+++##@@@$$mdd%%&[<m   "};
