/* XPM */
static char *_2676f939d8d46c5ba9b9d68e371920a[] = {
/* columns rows colors chars-per-pixel */
"64 64 165 2 ",
"   c None",
".  c #010101",
"X  c #090706",
"o  c #0B0807",
"O  c #0F0C09",
"+  c #120E0B",
"@  c #16110D",
"#  c #18120F",
"$  c #171311",
"%  c #1B1512",
"&  c #1E1814",
"*  c #1F1818",
"=  c #201714",
"-  c #221B16",
";  c #251D19",
":  c #281F1B",
">  c #27201C",
",  c #2C221D",
"<  c #30261F",
"1  c #2D2521",
"2  c #2F2925",
"3  c #312621",
"4  c #342A24",
"5  c #382C26",
"6  c #362D29",
"7  c #3A2E29",
"8  c #3D312C",
"9  c #3D3532",
"0  c #41342E",
"q  c #433631",
"w  c #453A34",
"e  c #493D36",
"r  c #443B38",
"t  c #4C3E39",
"y  c #4E413B",
"u  c #52443E",
"i  c #53483F",
"p  c #4E4442",
"a  c #554541",
"s  c #594744",
"d  c #564942",
"f  c #5A4B45",
"g  c #554A48",
"h  c #5D4B49",
"j  c #5D5047",
"k  c #5E5149",
"l  c #604C4B",
"z  c #614C4B",
"x  c #604C4A",
"c  c #614C4C",
"v  c #604D4C",
"b  c #614D4C",
"n  c #624C4C",
"m  c #624D4C",
"M  c #634D4D",
"N  c #604E4C",
"B  c #614E4C",
"V  c #604F4C",
"C  c #614E4D",
"Z  c #604F4D",
"A  c #624E4C",
"S  c #624E4D",
"D  c #634E4D",
"F  c #614F4E",
"G  c #634E4E",
"H  c #634F4E",
"J  c #624F4F",
"K  c #644E4E",
"L  c #644F4E",
"P  c #654F4F",
"I  c #604B4B",
"U  c #60504B",
"Y  c #60514B",
"T  c #60524A",
"R  c #60534A",
"E  c #60524B",
"W  c #61524B",
"Q  c #60534B",
"!  c #61534B",
"~  c #60544B",
"^  c #61544B",
"/  c #60504C",
"(  c #60514C",
")  c #60504D",
"_  c #61504D",
"`  c #61524C",
"'  c #61534C",
"]  c #61524D",
"[  c #62534C",
"{  c #61514F",
"}  c #62504F",
"|  c #62524E",
" . c #62534E",
".. c #65504F",
"X. c #62554C",
"o. c #62544D",
"O. c #63574C",
"+. c #63564D",
"@. c #63574D",
"#. c #63544E",
"$. c #63564E",
"%. c #64554D",
"&. c #65564D",
"*. c #64574D",
"=. c #65574D",
"-. c #67564D",
";. c #66574D",
":. c #67574D",
">. c #64564E",
",. c #65564E",
"<. c #61554B",
"1. c #68574D",
"2. c #69574D",
"3. c #6B574D",
"4. c #68574F",
"5. c #6A564E",
"6. c #6A574E",
"7. c #6B574F",
"8. c #6C574D",
"9. c #6C574E",
"0. c #6C574F",
"q. c #6C584E",
"w. c #635251",
"e. c #655150",
"r. c #665050",
"t. c #665150",
"y. c #675150",
"u. c #665151",
"i. c #675151",
"p. c #655251",
"a. c #675251",
"s. c #665252",
"d. c #675252",
"f. c #675353",
"g. c #635651",
"h. c #675450",
"j. c #675750",
"k. c #625651",
"l. c #685252",
"z. c #685352",
"x. c #685353",
"c. c #695353",
"v. c #6A5551",
"b. c #685453",
"n. c #695453",
"m. c #6B5753",
"M. c #6C5750",
"N. c #6C5751",
"B. c #6C5652",
"V. c #6C5752",
"C. c #6C5753",
"Z. c #685454",
"A. c #695554",
"S. c #695555",
"D. c #6A5554",
"F. c #6A5555",
"G. c #6B5555",
"H. c #6A5655",
"J. c #6B5655",
"K. c #6B5656",
"L. c #6C5755",
"P. c #6C5656",
"I. c #6C5756",
"U. c #6C5757",
"Y. c #6C5857",
/* pixels */
"                                                            . . . & t f.Z.Z.l.f.L L v v v v I I I h h h h h h h h h h h h h h h ",
"                                                            . . * t f.U.Z.l.f.f.L v v v v z I I I h h h h h h h h h h h h h h h ",
"                                                        . . . - t f.U.Z.b.f.f.L L v v v z I I I h h h h h h h h h h h h h h h h ",
"                                                      . . . - t f.U.Z.Z.l.f...L L v v v I I I h h h h h h h h h h h f f s s s s ",
"                                                    . . . ; t f.U.U.Z.b.f...L L L L v z I I h h h h h h h h h s s s s s f f f f ",
"                                                  . . . ; t Z.U.U.U.Z.l.l...L v L v v z z h h h h h h h s s s s a a a s s s s s ",
"                                                . . . 1 a b.U.U.U.U.Z.l.l...L v L v v z z h h h h h h s s a u u a a a a a s s s ",
"                                              . . . 1 a Z.Y.U.U.U.U.Z.l.f.f.L v v v v z z h h h h h s a a u u u u a a a a a s s ",
"                                            . . . 3 s Z.U.U.U.U.U.N.b.j.f.w.) v v v v v v v h h h f a a u u u u u a a a a a a s ",
"                                          . . X 6 f Z.U.U.U.U.U.N.6.,.,.@.) ) ) ) ) v v ) R h f f a u u u u u u u u a a a a s s ",
"                                        . . o 7 h Z.U.U.N.N.N.b.j.,.@.@.@.@.) ) ) R R ) k h f f a u u u u u u u u u a a a a a a ",
"                                      . . o q h Z.U.N.0.0.q.6.,.@.@.@.@.@.@.) R R R R k f f d a u y y y y u u u u a a a a a a a ",
"                                    . . + 9 h Z.N.N.0.0.6.,.,.@.@.@.@.^ ^ ^ R R R R k h f d u y y y t y y u u u a a a a a a a a ",
"                                  . . $ q h ,.6.6.0.6.,.,.@.@.@.@.@.^ ^ ^ R R R R k f f a u y t t t y t y u u u a a a a a a a a ",
"                                . . % r k g.@.@.6.,.,.@.@.@.@.@.@.^ R R R R R R k f f a u t t t t t t t u u a a a a a a a a a a ",
"                              . . % r k k.g.@.@.@.@.@.@.@.@.@.^ ^ R R R R k k h f f a y t e e t t t t t u a a a a a a a a a a a ",
"                            . . % q k @.@.@.@.@.@.@.@.^ ^ ^ R R k k k k k k f f d u t e w w e e e e t u u u u u u u u u u u u a ",
"                          . . % q j @.@.@.@.@.@.@.@.^ ^ ^ R R k k k h f f f f a u e e w w w e e e t y u u u y y y y y y u u u a ",
"                        . . $ r k @.@.@.@.@.@.@.^ ^ ^ R R k k k k f f f f f a u e w w w w w e e t t y y y t t t t t t y y y y y ",
"                      . . @ 9 k g.@.@.@.@.@.^ ^ R R R k k k j f f f f f f a t e w w w w w w e t t y y t t e e e e t t t t t y y ",
"                    . . + 9 h g.g.^ ^ ^ R ^ R k k k k k j f f f f f f d u t w w w w w w w e e t t t e e e e e e e e e e e e t t ",
"                  . . o 9 f g.g.@.^ ^ R R R k k k k f f f f f f f d d u t w q q w w w w w e t t e e w e w w e e e e e e e e e t ",
"                . . X 9 g @.@.@.^ R R k k k k k f f f f f f f f d d u e w q q q q q w w e e e w w w w w w w w w w w w e e e e e ",
"              . . X 6 d k ^ ^ R k k k k k j f f f f f f f f f d a y e w q q q q q q w w e w w q q q q q q q w w w w w w w w w e ",
"            . . . 2 g k ^ R R R k k k j j f f f f f f d d d d a y w q q q q q q q w w w q q q q q q 0 0 0 q q q q q q q w w w w ",
"          . . . 1 p k k k k k k k j j j f f f f f d d d d a u y w q q q q q q q q w q q 0 0 0 0 0 0 0 0 0 0 0 0 0 0 0 0 0 q q w ",
"          . . - t k k k k k j f f f f f f f f f d d d d a u t w q 0 q q 0 q q q q q 0 0 0 0 0 8 8 8 8 8 8 8 8 8 8 0 0 0 0 0 0 0 ",
"        . . % r f k k j j j f f f f f f d d d d a a a a u t w 0 q q q 0 0 q q q 0 0 8 8 8 8 8 8 8 8 8 8 8 8 8 8 8 8 8 8 8 0 0 0 ",
"      . . @ 9 f k k k f f f f f f d d d d d a a a a u u t w 0 0 0 0 0 0 0 0 0 0 0 8 8 8 8 8 8 8 8 8 8 8 8 8 8 8 8 8 8 8 8 8 8 8 ",
"    . . O 6 g k j j f f f f d d d d d d d a a u u u u e w 0 0 8 8 0 0 0 8 8 8 8 8 8 8 8 8 8 8 8 8 8 8 8 8 8 8 8 8 8 8 8 8 8 8 8 ",
"  . . X 2 a f f f f f d d d d d d d d a a a u u u y e w 0 8 8 8 8 8 8 8 8 8 8 8 8 8 8 8 8 8 8 8 8 8 8 8 8 8 8 8 8 8 8 8 8 8 8 8 ",
". . . > y f f f f d d d d d d d a d a a a a u u y e w 0 8 8 8 8 8 8 8 8 8 8 8 8 8 7 7 7 7 7 7 7 7 7 7 7 7 7 7 7 7 7 7 7 7 7 7 8 ",
". . % q g f f g d d d d d a a a u u u u u u u y e q 8 8 8 8 8 8 8 8 8 8 8 8 8 7 7 7 7 7 7 7 5 5 5 5 5 5 5 7 7 7 7 7 7 7 7 7 7 7 ",
". + 8 d d d d d d d d i u u u u u u u u u y t e q 8 8 8 8 8 8 7 7 7 7 7 7 7 7 7 5 5 6 6 6 4 4 4 4 4 4 4 5 5 5 5 5 5 5 4 6 5 5 5 ",
"X 4 u d d d d a i i u u u u u u u u u y y e w q 8 8 7 7 7 7 7 7 7 7 7 7 7 5 6 4 4 4 4 4 4 4 3 3 3 4 4 4 4 4 4 4 4 4 4 4 4 6 6 5 ",
"; t d d d u u u u u u u u u u u u u y y e w 0 8 8 7 7 7 7 7 7 5 5 7 7 5 5 6 4 4 3 3 3 3 3 3 3 3 3 3 3 3 3 4 4 4 4 4 4 4 4 4 6 5 ",
"q a d u u u y y y y y y y y y y y y t e w 8 8 8 7 7 7 7 7 6 4 4 4 4 5 4 4 4 3 3 3 3 3 3 3 3 3 3 3 3 3 3 3 3 4 4 4 3 3 4 4 4 4 4 ",
"y u y y y y y y y y y y y y y y y e e w 0 8 7 7 6 6 4 4 4 4 4 4 4 4 4 4 4 3 3 3 3 3 3 3 1 , , , , , , < < 3 3 3 3 3 3 3 3 3 4 4 ",
"y y y y y y y y y y y t t t t t t e w 8 8 7 5 6 4 4 4 4 4 4 4 4 4 4 4 4 3 3 1 1 3 1 1 1 , , , , , , , , 1 3 3 3 3 3 3 3 3 3 3 3 ",
"y y y t t t t y y t t t t t t e e w 8 7 7 6 4 4 4 4 4 4 4 4 4 4 3 3 3 3 3 3 < , , , , , , , , , , , , , 3 3 3 3 3 3 3 3 3 3 3 3 ",
"y t t t t t t e e e e e e e e e w 0 8 6 4 4 4 4 4 3 4 3 3 3 3 3 3 3 3 3 3 < , , , , , , , , , , , , , < < 3 3 3 3 3 3 3 3 3 3 3 ",
"e e e e e e e e e e e e e e w q 0 8 6 4 4 4 3 3 3 3 3 3 3 3 3 3 3 3 3 3 < < , , , , , < < < < < , , < < < < , < < < 3 3 3 3 < < ",
"e e e e w w w w w w w w w w q 8 8 6 4 4 3 3 3 3 1 3 3 3 3 1 1 1 3 3 < < , , , , , , , , < < < < , , , , , , , , , , , , , , , , ",
"e e e e w w q q q q q q q 9 8 7 6 4 3 1 1 1 1 1 , 1 , , , , , , , , , , , , , , , , , , , , , , , , , , , , , , , , , , , , , , ",
"w w w q q 9 8 8 8 8 8 8 8 8 7 4 4 1 1 1 1 1 1 1 , , , , , , , , , , , , , , , > , , , , , , , , , , , , , , , , , > > , , , , , ",
"q q q 8 8 7 7 7 6 6 6 7 8 7 6 3 1 1 1 1 , , , , , , , , , , , , , , > > > > : : > > > > > > > , , , , , , , > > > > > > , , , , ",
"q 9 8 6 6 4 4 4 4 4 4 6 7 4 3 1 , , , , , , , , , , , , > > : : : : ; ; ; ; ; ; ; ; ; ; ; : ; : > > > > : : : : : : : : > : : : ",
"8 8 4 4 4 4 3 3 3 3 4 4 4 3 , , , , , , , , > > : : : : : ; ; ; ; ; ; ; ; ; ; ; ; ; ; ; ; ; ; ; ; ; ; ; ; ; : : : : ; ; > ; ; ; ",
"6 4 3 3 1 1 1 1 1 1 4 4 1 , , , , , > > ; ; ; ; ; ; ; ; ; ; ; ; ; ; ; ; ; ; ; ; ; ; ; ; ; ; ; ; ; ; ; ; ; ; ; ; ; ; ; ; ; ; ; ; ",
"2 1 1 1 1 1 1 1 1 1 1 1 , , , , : : ; ; ; ; ; ; ; ; ; ; ; ; ; ; ; ; ; ; ; - ; - - - - - ; ; ; - - - - - ; ; ; ; ; ; ; ; ; ; ; ; ",
"1 1 1 1 1 1 1 , 1 1 1 , > > ; ; ; ; ; ; ; ; ; ; - - - - - - - - - ; - - - - - - - - - - - = = = = = = = = = - - - - - - - - - - ",
", , , , , , , , 1 1 > ; ; ; ; ; ; ; ; ; ; - - - - - - - - - - - - - - - - - - - - - * & & & & & & & & & & = = = = = - - = = = = ",
", , , , , ; ; ; ; ; ; ; ; ; ; ; ; ; ; - - - - - - - - - - - - - - - - - - - - = * * & & & % % % & & & & % & & & & & & & = = - - ",
", , ; ; ; ; ; ; ; ; ; - - - - - - - - - - - - - - - - - - - - - - - - - & & * * % % % % % % % % % % % % % % % % % % % % & & & & ",
"> ; ; ; ; ; ; - - - - - - - - - - - - - - - - - - - & = - - - - - = = % % % % % % % % % % % % % % % # # # # # # # % % % % % % % ",
"; ; - - - - * * - - - - - - - - * * * * * * * * * * & & * & & & % % % % % % % % % % % $ $ $ $ $ $ % # # # # # # # # % % % % % % ",
"; - - - - * * * * * * * * * * * * & & & & & & * & & * * * % % % % % % % % % % $ $ $ # # # # # # # # # # # # @ @ @ @ @ # # # # # ",
"- - - * * * * * * * * * * * * & & % & & & % % % % % % % % % % % % % % % $ $ $ # # # @ @ @ @ @ # @ @ @ @ @ @ @ @ @ @ @ @ @ @ @ @ ",
"- - * * * * * * * * & & * * & % % % % % % % % % % % % % % % % % % $ # # @ @ @ @ @ @ @ @ @ @ @ @ @ @ @ @ @ @ @ @ @ @ @ @ @ @ @ @ ",
"* * * & & & & % % % % % % % % % % % % % % % % % % % % % % $ % $ # # @ @ @ @ @ @ @ @ @ @ + + + + + + + + + + + + + + + + + + + + ",
"& & & & % % % % % % % % % % % % % % % % % % % % # # $ # # # # @ @ @ @ @ @ + + + + + + + + + + + + + + + + + + + + + + + + + + + ",
"& % % % % % % % % % % % % % % % % % % % % $ $ @ @ @ @ @ @ @ @ @ @ @ + + + + + + + + + + + + + + + + + + + + + + + + + + + + + + ",
"% % % % % $ $ $ $ $ $ $ $ $ $ $ $ $ $ $ @ @ @ @ @ @ @ @ @ @ @ @ + + + + + + + + + + + + + + + + + + + + + + + + + + + + + + + + ",
"% $ $ $ $ $ $ $ $ @ $ @ $ @ @ @ @ @ @ @ @ @ @ + + + + + + + + + + + + + + + + + + + + O O O O O O O O O O O O O O O + + + + + + "
};
