/* XPM */
static char * bse_xpm[] = {
"64 64 170 2",
"  	c #444945",
". 	c #295230",
"+ 	c #4A9962",
"@ 	c #4B9B64",
"# 	c #45955F",
"$ 	c #43935D",
"% 	c #418F5A",
"& 	c #418956",
"* 	c #3F8350",
"= 	c #3D7D4C",
"- 	c #3D7647",
"; 	c #3B7041",
"> 	c #3B6C3B",
", 	c #3A6334",
"' 	c #345D31",
") 	c #33542B",
"! 	c #344B26",
"~ 	c #334521",
"{ 	c #313C1A",
"] 	c #2B3413",
"^ 	c #232A0E",
"/ 	c #20270D",
"( 	c #1A240A",
"_ 	c #1A1E0A",
": 	c #131C09",
"< 	c #101606",
"[ 	c #121508",
"} 	c #0C1304",
"| 	c #090D04",
"1 	c #060A02",
"2 	c #010200",
"3 	c #274B2B",
"4 	c #408151",
"5 	c #468E5A",
"6 	c #3F8452",
"7 	c #3D7849",
"8 	c #3C7344",
"9 	c #3B6F41",
"0 	c #396539",
"a 	c #395E33",
"b 	c #33431F",
"c 	c #14240A",
"d 	c #152B0B",
"e 	c #223014",
"f 	c #233D1B",
"g 	c #2B4622",
"h 	c #344E28",
"i 	c #303817",
"j 	c #1B330C",
"k 	c #1D3C0A",
"l 	c #0D1A04",
"m 	c #0F2205",
"n 	c #22440D",
"o 	c #1C3A07",
"p 	c #152B05",
"q 	c #132306",
"r 	c #061302",
"s 	c #295415",
"t 	c #224413",
"u 	c #254C14",
"v 	c #0E1A09",
"w 	c #111C06",
"x 	c #163109",
"y 	c #1F410B",
"z 	c #275114",
"A 	c #6A9B5E",
"B 	c #649359",
"C 	c #192E12",
"D 	c #244B0E",
"E 	c #639659",
"F 	c #6EA062",
"G 	c #6B9D5F",
"H 	c #46773E",
"I 	c #0D1509",
"J 	c #173105",
"K 	c #6C9E60",
"L 	c #679A5C",
"M 	c #5C9053",
"N 	c #1C3413",
"O 	c #264923",
"P 	c #4A7F42",
"Q 	c #4A8042",
"R 	c #477D40",
"S 	c #41753B",
"T 	c #35642C",
"U 	c #1F3A13",
"V 	c #2C591A",
"W 	c #2B5817",
"X 	c #193406",
"Y 	c #4E7945",
"Z 	c #5E9255",
"` 	c #52854A",
" .	c #53894D",
"..	c #4D8549",
"+.	c #3A6C33",
"@.	c #437A3E",
"#.	c #336127",
"$.	c #1E4007",
"%.	c #5A8D52",
"&.	c #4B7E45",
"*.	c #366532",
"=.	c #4A8245",
"-.	c #3D7135",
";.	c #376833",
">.	c #274A1B",
",.	c #578D51",
"'.	c #2D5529",
").	c #182C07",
"!.	c #1A2C0A",
"~.	c #213D15",
"{.	c #386A2E",
"].	c #2B531C",
"^.	c #3E733B",
"/.	c #294A14",
"(.	c #284612",
"_.	c #233A0C",
":.	c #20340B",
"<.	c #325C2A",
"[.	c #436B3B",
"}.	c #2A4D22",
"|.	c #315D25",
"1.	c #2E5A23",
"2.	c #24451A",
"3.	c #547D4A",
"4.	c #77A969",
"5.	c #87BA78",
"6.	c #89BD7A",
"7.	c #82B574",
"8.	c #6B9B5F",
"9.	c #527B47",
"0.	c #2C5423",
"a.	c #294E1C",
"b.	c #98CF8A",
"c.	c #96CE88",
"d.	c #93CB84",
"e.	c #8FC580",
"f.	c #7FB071",
"g.	c #719C65",
"h.	c #9AD08B",
"i.	c #91C782",
"j.	c #8DC37E",
"k.	c #7AAC6C",
"l.	c #496D40",
"m.	c #76A768",
"n.	c #4C7642",
"o.	c #0E2008",
"p.	c #486D3E",
"q.	c #82BA75",
"r.	c #72A465",
"s.	c #629658",
"t.	c #1D341A",
"u.	c #6A975E",
"v.	c #619356",
"w.	c #608F54",
"x.	c #58864D",
"y.	c #172B13",
"z.	c #87C078",
"A.	c #78B36C",
"B.	c #6FAB65",
"C.	c #65A45E",
"D.	c #5C9C57",
"E.	c #5E9356",
"F.	c #549550",
"G.	c #4D8D49",
"H.	c #478442",
"I.	c #457C42",
"J.	c #417640",
"K.	c #2F592A",
"L.	c #142510",
"M.	c #1E3A19",
"                                                . + @ + + # $ % & * = - ; > , ' ) ! ~ { ] ] ^ ^ / ( _ : : < [ } | | 1 1 1 2 2 2 ",
"                                                2 3 4 5 5 & 6 = = 7 - 8 9 > 0 a ) ) ! b { ] ] ^ ^ ( _ : [ < [ } | | 1 1 2 2 2 2 ",
"                                                  2 1 : : < < } | < ( c d e f g ! h ! ~ { i ] ] ^ ( ( : [ < } | | | 1 1 2 2 2 2 ",
"                                2 j k l 2                     2 m n k o p q l r | < d e ] ] ] ] ^ / ( _ [ < } | | 1 1 2 2 2 2 2 ",
"                                l s s s t p 2 2             r k u o c v q q q w l l } | 1 r : ( ^ / ( _ : < [ | | 1 1 2 2 2 2 2 ",
"                                | s s s s s u k j x x x j y z z k ) A B C q q w l l l l } | 1 2 1 } : : : < [ | | 1 1 2 2 2 2 2 ",
"                                2 k t t t u s s s s s z z s s D d E F G H l q w w l l l } | 1 1 1 2 2 1 | [ I | | 1 1 2 2 2 2 2 ",
"                                  r d x d l q y u z s s s s u J a F K L M N q w w l l l } | 1 1 1 1 2 2 2 2 | | | 1 1 2 2 2 2 2 ",
"                                O H P Q R S T U q u V W s z X l Y G L E Z , l q w < l l l } | 1 1 2 2 2 2 2 2 2 2 2 2 2 2 2 2 2 ",
"                              N `  ...R +.R @.S #.j t V s D $.r ` L E Z %.&.q q q q w l r 1 1 1 | r } } | | 1 1 1 2 2 2 2 2 2 2 ",
"          1 x j x r 2       2 *. .` =.Q @.S S S -.;.>.d n D $.r ` E Z ,. ...'.q q l | | q ).j j !.!.( : < } | 1 1 2 2 2 2 2 2 2 ",
"          k s s s s y m       ~.....=.P @.S S -.+.+.{.].q k n l Y Z &. ...=.^.l l x t /.(.n _.:.!.( : < l } | 1 1 2 2 2 2 2 2 2 ",
"          k s s s s s s p     1 <.Q Q R @.S -.+.+.{.T T ].q X l H ` [.=.R R S }.t ].s /.n _.j ( q : < < } | 1 1 2 2 2 2 2 2 2 2 ",
"          k s s s s s s z l     r |.R @.S S -.+.;.T T #.|.].m | >  ...P @.^.^.;.d /.(._.:.j ( ( q < < l } | 1 1 2 2 2 2 2 2 2 2 ",
"          j s s s s s s s n l     r <.@.S -.+.+.{.T #.1.1.].u l ) ..=.@.^.+.+.;.2.x _.j j !.( q w < l } } | 1 1 2 2 2 2 2 2 2 2 ",
"          p s s s u u u s s l       r <.S -.+.{.T #.|.1.].W s k 2.=.R ^.+.;.T #.|.q o j !.( q q w < l } | | 1 1 2 2 2 2 2 2 2 2 ",
"          | u j l l d m q x l         l T +.;.{.T |.1.].s u u t m @.@.^.;.T |.1.1.t q j !.( q q w < l } | | 1 1 2 2 2 2 2 2 2 2 ",
"          2 C 3.4.5.6.7.8.9.}.m         j {.;.T #.1.].s u u u t l ;.S +.T |.1.0.0.a.q ).).).q q < l l } | | 1 1 2 2 2 2 2 2 2 2 ",
"          ) 5.b.c.d.e.5.7.7.f.A [.N     2 a.{.T |.1.s u u t t n p 2.^.;.|.0.].a.>.>.~.r !.).q q < < } } | | 1 1 1 2 2 2 2 2 2 2 ",
"        2 g.h.c.d.i.j.6.6.7.k.k.k.8.[.l   l |.#.1.].a.u t n n k j m ;.;.0.].>.>.t t ~.( w ( q q w < l } | | 1 1 1 2 2 2 2 2 2 2 ",
"          l.d.d.i.j.6.5.7.k.4.m.4.m.F n.o.2 2.|.1.s u t n y k o o r 0.T 0.a.2.t ~.U U j r q ).q w < l } | | 1 1 1 2 2 2 2 2 2 2 ",
"          | p.q.e.j.5.7.k.m.r.r.r.F K G n.l m 1.].a.u n $.k o o o p d <.0.>.t ~.j j x !.d | ( q w < l } | | 1 1 1 2 2 2 2 2 2 2 ",
"            q g m.6.5.f.4.r.K G A E E E s.[.r t ].u t n k o o X X ).r >.0.2.~.j j !.( ( ( w | r | 1 1 2 2 2 2 2 2 2 2 2 2 2 2 2 ",
"            x t t.u.7.k.r.F L E Z %.%.%.%.%., q s u n k o o X X p p l d a.2.U j !.( q q q q | 1 } r } | 1 1 1 2 2 2 2 2 2 2 2 2 ",
"r           x s t N A k.r.G E Z  . .` ..`  ...}.x u n k X X X p p p q | ~.2.N !.( q w w < < l 1 } } r | 1 1 1 2 2 2 2 2 2 2 2 2 ",
"v.1         x s s t f 8.r.G s.%. ...Q R R R =.R N j y o p p p p p q q r q ~.N ( q w w l l l } | 2 | | 1 1 1 1 2 2 2 2 2 2 2 2 2 ",
"d.<.        k s s s j a F G s. ...Q @.@.S ^.S @.T l j o X p p p q q q w 1 !.N d q < l l } r | | 1 2 1 1 1 1 2 2 2 2 2 2 2 2 2 2 ",
"d.%.      2 n s s W s q 3.G Z ` R @.S -.+.+.+.+.+.2.l X p p q q q q w w r l !.c w < } r r | | 1 1 1 2 1 1 2 2 2 2 2 2 2 2 2 2 2 ",
"j.w.      1 z s V s z t t.x.}.C t.y.T +.+.T T T ;.T d q p q q q l l l l l 1 l c w l r | | 1 1 1 1 1 2 2 1 2 2 2 2 2 2 2 2 2 2 2 ",
"z.x.      x s s z D D D p c n.A G %.f T T #.|.|.<.#.0.r q q w l l } r } } r 1 : l l | | 1 1 1 1 2 2 2 2 2 2 2 2 2 2 2 2 2 2 2 2 ",
"q.Y     2 t s u k n n n q l.K F r.r.3.a.#.|.1.0.0.0.1.N r w l l } r r r r r 1 1 l } | 1 1 1 1 2 2 2 2 2 2 2 2 2 2 2 2 2 2 2 2 2 ",
"A.n.  2 j s u $.o $.$.o f A K F F F v.t |.1.0.].].a.}.>.l r l } r r | | | | 1 2 | | | 1 1 1 2 2 2 2 2 2 2 2 2 2 2 2 2 2 2 2 2 2 ",
"B.S 2 m D D $.o o o o m [.G A G G G E ~.1.0.].a.>.2.2.2.N 1 r r r | | 1 1 1 1 1 2 | 1 1 1 2 2 2 2 2 2 2 2 2 2 2 1 2 2 2 2 2 2 2 ",
"C.S l D n o o o o o o r ` E E E E E E }.a.].a.>.2.t ~.~.~.l | r | 1 1 1 1 2 2 2 2 2 1 1 2 2 2 2 2 2 2 2 2 2 2 2 2 1 1 1 1 2 2 2 ",
"D.+.X n o X J J X X X 1 %.E.Z Z Z Z Z 0 U ].>.2.t U U N N C 1 1 1 1 1 1 2 2 2 2 2 2 2 1 2 2 2 2 2 2 2 2 2 2 2 2 2 2 2 1 1 1 2 2 ",
"F.-.p o J p p p p p p } Z %.%.%.,.,.,.&.m >.2.t ~.U j j !.C : 2 1 1 1 2 2 2 2 2 2 2 2 2 2 2 2 2 2 2 2 2 2 2 2 2 2 2 2 2 2 2 2 2 ",
"G.-.q ).p p p p p p p y.,. . . . . . ...N U t ~.U j j d d c c | 2 1 2 2 2 2 2 2 2 2 2 2 2 2 2 2 2 2 2 2 2 2 2 2 2 2 2 2 2 2 2 2 ",
"H.-.l p q q q q p p q t.............=.&.) q U U N j !.( c c : v 2 2 2 2 2 2 2 2 2 2 2 2 2 2 2 2 2 2 2 2 2 2 2 2 2 2 2 2 2 2 2 2 ",
"@.-.l q q q q q q q q t.=.=.=.=.&.P I.R > c j N j !.d q : l l I } 2 2 2 2 2 2 2 2 2 2 2 2 2 2 2 2 2 2 2 2 2 2 2 2 2 2 2 2 2 2 2 ",
"-.-.q w q q q q q q q y.P R I.I.I.I.J.S > O r j !.d ( c l l l } } 1 2 2 2 2 2 2 2 2 2 2 2 2 2 2 2 2 2 2 2 2 2 2 2 2 2 2 2 2 2 2 ",
"{.{.j l w w l w q q l c I.@.^.^.^.^.> > *.' c l d ( c < l l r | | 1 2 2 2 2 2 2 2 2 2 2 2 2 2 2 2 2 2 2 2 2 2 2 2 2 2 2 2 2 2 2 ",
"#.T t r l l l w w q r l ^.^.^.> +.;.*.*.' K.O | c c w l l r | | 1 1 1 2 2 2 2 2 2 2 2 2 2 2 2 2 2 2 2 2 2 2 2 2 2 2 2 2 2 2 2 2 ",
"|.|.a.| l l l l w w r w ;.+.+.;.;.T <.K.'.'.3 t.| w l l r | 1 1 1 1 1 2 2 2 2 2 2 2 2 2 2 2 2 2 2 2 2 2 2 2 2 2 2 2 2 2 2 2 2 2 ",
"].].].r l l l l l l q !.'.;.;.T <.K.'.}.O O O f v | l } | | 1 1 1 1 2 2 2 2 2 2 2 2 2 2 2 2 2 2 2 2 2 2 2 2 2 2 2 2 2 2 2 2 2 2 ",
"/./.a.q | } } l l | j j 2.T <.K.0.}.O 2.2.L.M.t.C 1 | r | 1 1 1 1 2 2 2 2 2 2 2 2 2 2 2 2 2 2 2 2 2 2 2 2 2 2 2 2 2 2 2 2 2 2 2 ",
"n (.(.x 1 | } } l 1 _._.d <.K.0.}.>.2.~.M.t.y.C y.: 2 | 1 1 1 1 2 2 2 2 2 2 2 2 2 2 2 2 2 2 2 2 2 2 2 2 2 2 2 2 2 2 2 2 2 2 2 2 ",
"_._.n _.1 | | | | r _._.r }.0.}.>.2.~.U t.N C L.L.c l 2 1 1 1 1 2 2 2 2 2 2 2 2 2 2 2 2 2 2 2 2 2 2 2 2 2 2 2 2 2 2 2 2 2 2 2 2 ",
":.:._._.r 1 1 1 1 l _.j w j }.>.2.~.U N C d c c : v v 1 2 1 1 2 2 2 2 2 2 2 2 2 2 2 2 2 2 2 2 2 2 2 2 2 2 2 2 2 2 2 2 2 2 2 2 2 ",
"!.:.:.:.w 2 1 1 1 w :.( q | ~.2.2.~.N C d c c : v I I } 1 2 2 2 2 2 2 2 2 2 2 2 2 2 2 2 2 2 2 2 2 2 2 2 2 2 2 2 2 2 2 2 2 2 2 2 ",
"( !.!.!.q 2 2 1 2 q !.( : l l ~.~.N N !.d c : : l } } } | 2 2 2 2 2 2 2 2 2 2 2 2 2 2 2 2 2 2 2 2 2 2 2 2 2 2 2 2 2 2 2 2 2 2 2 ",
"( ( ( ( ( 1 2 2 2 q ( : < l | c ~.N C d c : : I } | | | | 1 2 2 2 2 2 2 2 2 2 2 2 2 2 2 2 2 2 2 2 2 2 2 2 2 2 2 2 2 2 2 2 2 2 2 ",
": : c ( c l 2 2 2 w : < l l } 1 c N !.c c : l l } | | 1 1 1 2 2 2 2 2 2 2 2 2 2 2 2 2 2 2 2 2 2 2 2 2 2 2 2 2 2 2 2 2 2 2 2 2 2 ",
"< < < : : < 2 2 2 < < } } } } | 1 d d c : < l } | | 1 1 1 1 1 2 2 2 2 2 2 2 2 2 2 2 2 2 2 2 2 2 2 2 2 2 2 2 2 2 2 2 2 2 2 2 2 2 ",
"< < < < < < 1 2 2 } } } | | | | 1 | c c : < } } | 1 1 1 1 1 1 2 2 2 2 2 2 2 2 2 2 2 2 2 2 2 2 2 2 2 2 2 2 2 2 2 2 2 2 2 2 2 2 2 ",
"l } } l l l } 2 2 | | | 1 1 1 1 1 2 l c : l } | 1 1 1 1 1 1 1 1 2 2 2 2 2 2 2 2 2 2 2 2 2 2 2 2 2 2 2 2 2 2 2 2 2 2 2 2 2 2 2 2 ",
"} } } } } } } 1 2 | 1 1 1 1 1 1 1 1 2 : : l | | 1 1 1 1 2 1 1 1 2 2 2 2 2 2 2 2 2 2 2 2 2 2 2 2 2 2 2 2 2 2 2 2 2 2 2 2 2 2 2 2 ",
"} | | | | | | 1 2 1 1 1 1 2 2 2 2 2 2 } : } | | 1 1 1 2 2 2 2 1 1 2 2 2 2 2 2 2 2 2 2 2 2 2 2 2 2 2 2 2 2 2 2 2 2 2 2 2 2 2 2 2 ",
"| | | 1 1 1 1 1 2 1 1 2 2 2 2 2 2 2 2 2 < } | 1 1 1 1 2 2 2 2 2 1 1 2 2 2 2 2 2 2 2 2 2 2 2 2 2 2 2 2 2 2 2 2 2 2 2 2 2 2 2 2 2 ",
"1 1 1 1 1 1 1 2 2 2 2 2 2 2 2 2 2 2 2 2 | } | 1 1 1 2 2 2 2 2 2 2 1 2 2 2 2 2 2 2 2 2 2 2 2 2 2 2 2 2 2 2 2 2 2 2 2 2 2 2 2 2 2 ",
"1 1 1 1 2 2 2 2 2 2 2 2 2 2 2 2 2 2 2 2 1 } | 1 1 2 2 2 2 2 2 2 2 2 2 2 2 2 2 2 2 2 2 2 2 2 2 2 2 2 2 2 2 2 2 2 2 2 2 2 2 2 2 2 ",
"1 2 2 2 2 2 2 2 2 2 2 2 2 2 2 2 2 2 2 2 2 | | 1 1 2 2 2 2 2 2 2 2 2 2 2 2 2 2 2 2 2 2 2 2 2 2 2 2 2 2 2 2 2 2 2 2 2 2 2 2 2 2 2 ",
"2 2 2 2 2 2 2 2 2 2 2 2 2 2 2 2 2 2 2 2 2 1 1 1 2 2 2 2 2 2 2 2 2 2 2 2 2 2 2 2 2 2 2 2 2 2 2 2 2 2 2 2 2 2 2 2 2 2 2 2 2 2 2 2 ",
"2 2 2 2 2 2 2 2 2 2 2 2 2 2 2 2 2 2 2 2 2 1 1 1 2 2 2 2 2 2 2 2 2 2 2 2 2 2 2 2 2 2 2 2 2 2 2 2 2 2 2 2 2 2 2 2 2 2 2 2 2 2 2 2 ",
"2 2 2 2 2 2 2 2 2 2 2 2 2 2 2 2 2 2 2 2 2 2 1 2 2 2 2 2 2 2 2 2 2 2 2 2 2 2 2 2 2 2 2 2 2 2 2 2 2 2 2 2 2 2 2 2 2 2 2 2 2 2 2 2 "};
