/* XPM */
static char *c383c0930d64437496e726042845f788[] = {
/* columns rows colors chars-per-pixel */
"64 64 149 2 ",
"   c None",
".  c #010101",
"X  c #080605",
"o  c #0B0807",
"O  c #0D0A09",
"+  c #120F0E",
"@  c #14110F",
"#  c #161210",
"$  c #1A1513",
"%  c #1E1916",
"&  c #1F1B18",
"*  c #201A17",
"=  c #231D1A",
"-  c #27201D",
";  c #2A221E",
":  c #2D2521",
">  c #302723",
",  c #332A26",
"<  c #362C29",
"1  c #392E2A",
"2  c #3C312D",
"3  c #3F3430",
"4  c #413631",
"5  c #453935",
"6  c #483C37",
"7  c #473A38",
"8  c #4B3E39",
"9  c #4E413B",
"0  c #52433E",
"q  c #544641",
"w  c #584743",
"e  c #574843",
"r  c #5A4A45",
"t  c #5B4A45",
"y  c #5A4B45",
"u  c #5B4B45",
"i  c #5A4A44",
"p  c #584846",
"a  c #594946",
"s  c #5A4A46",
"d  c #5B4A46",
"f  c #5A4B46",
"g  c #5B4B46",
"h  c #5B4B47",
"j  c #594944",
"k  c #5C4B46",
"l  c #5C4B47",
"z  c #5B4D47",
"x  c #5C4C46",
"c  c #5C4C47",
"v  c #5D4C47",
"b  c #5D4D47",
"n  c #584943",
"m  c #5D4D48",
"M  c #5D4D49",
"N  c #5E4D48",
"B  c #5F4D48",
"V  c #5E4D49",
"C  c #5F4D49",
"Z  c #5C4E48",
"A  c #5D4E48",
"S  c #5D4E49",
"D  c #5E4E48",
"F  c #5E4E49",
"G  c #5F4E49",
"H  c #5F4F49",
"J  c #5F4E4A",
"K  c #5F4F4A",
"L  c #5F4F4B",
"P  c #604E49",
"I  c #604F49",
"U  c #604F4A",
"Y  c #614F4A",
"T  c #604E4B",
"R  c #604F4B",
"E  c #614F4B",
"W  c #60504A",
"Q  c #60504B",
"!  c #61504B",
"~  c #61514B",
"^  c #61504C",
"/  c #61504D",
"(  c #62504C",
")  c #62514C",
"_  c #63514C",
"`  c #62514D",
"'  c #63514D",
"]  c #63524D",
"[  c #63524E",
"{  c #64514D",
"}  c #64524D",
"|  c #64524E",
" . c #65524E",
".. c #64534E",
"X. c #65534E",
"o. c #64524F",
"O. c #64534F",
"+. c #65534F",
"@. c #66534F",
"#. c #65544F",
"$. c #66544F",
"%. c #655351",
"&. c #665450",
"*. c #675450",
"=. c #665550",
"-. c #675550",
";. c #665551",
":. c #675551",
">. c #675652",
",. c #685551",
"<. c #685651",
"1. c #695651",
"2. c #685652",
"3. c #695652",
"4. c #685752",
"5. c #695752",
"6. c #695653",
"7. c #695753",
"8. c #6A5752",
"9. c #6A5753",
"0. c #6B5754",
"q. c #6A5853",
"w. c #6B5853",
"e. c #6C5853",
"r. c #6B5854",
"t. c #6C5854",
"y. c #6C5855",
"u. c #6C5955",
"i. c #6D5955",
"p. c #6E5956",
"a. c #6C5A56",
"s. c #6D5A56",
"d. c #6D5A57",
"f. c #6E5A56",
"g. c #6E5A57",
"h. c #6F5A57",
"j. c #6F5B57",
"k. c #6F5B58",
"l. c #715C58",
"z. c #705C59",
"x. c #715C59",
"c. c #715D59",
"v. c #725D59",
"b. c #725D5A",
"n. c #735F5A",
"m. c #735E5B",
"M. c #735F5B",
"N. c #745F5B",
"B. c #745E5C",
/* pixels */
"                                                                                                                                ",
"                                                                                                                                ",
"                                                                                                                                ",
"                                        . . . . . . . . . . . . . . . .                                                         ",
"                            . . . . . . X O + $ % = : : : : = % $ @ + X . . . . . . .                                           ",
"                  . . . . . . X @ % = : 4 q K ,.e.g.g.g.g.g.g.g.,.| t 7 1 < > : = # + o X X X . . . . . . . . . . . . . .       ",
". . . . . . . . . X o + % ; , 2 5 9 e c K U ( ( | | $.,.,.,.,.r.g.g.g.g.k.b.k.,.U e q 8 8 8 8 8 7 7 5 5 4 3 1 , : = % + X . . . ",
"2 < : = = - : > < 2 2 4 5 8 q e e t t t t c K K K K U U ( ( ( ( | | | &.,.,.,.g.g.g.b.b.b.b.N.B.b.b.b.b.g.g.,.%.( K t e 0 9 8 8 ",
"t e 0 9 8 8 8 8 8 8 8 8 9 9 0 0 q e e t t t t c c K K K U U ! ( ( | ( | | &.,.,.,.g.g.g.b.b.b.b.b.b.b.k.g.g.g.r.,.&.&.| ( ( ( U ",
"U K K c t n e 0 9 9 8 8 8 8 8 8 9 9 0 e e e t t c c K K K U U ( ( ( | | | $.| &.,.,.r.r.g.g.g.g.g.g.g.r.,.,.&.&.| ( ( ( U K K K ",
"U U U K K K c t t e e 0 9 8 8 8 6 8 8 8 9 9 0 e e t t k K K U U ! ( ( ( | | | &.,.,.,.,.,.0.q.r.,.,.,.,.&.$.| | ( ( ! ! K K K K ",
"U U U K K K K c c t t n e 0 0 9 9 8 8 6 6 6 6 8 8 9 0 e n t c K K U ( ( ( | $.&.,.,.,.,.,.,.,.q.,.,.,.,.&.&.| | ( ( ( ( ! U U K ",
"U U K K K K K K c c t t t n e e 0 0 9 9 8 8 6 5 5 5 6 8 8 9 0 e t k K U ( | $.&.,.,.,.,.,.q.,.q.q.,.q.,.,.,.,.&.&.$.$.$.$.| | | ",
"U K K K c K K c c t k t t t n e e e q 0 0 9 8 8 6 5 5 5 5 5 5 5 6 8 0 q e t K ! ( | &.,.,.,.,.,.,.,.,.,.,.,.,.q.,.,.q.q.,.q.,.&.",
"K K K c c k c c k k t t t t t w e e e q 0 0 9 9 8 8 6 5 5 5 5 4 4 4 5 5 8 9 0 e e t z K K K K U ! ! ( ( ( ( ( | ( ( ( ( ( ! U K ",
"t t t t n n n n n t n t n e e e e e e e 0 0 0 9 9 8 8 6 6 5 5 5 4 4 4 4 4 5 5 6 8 9 9 9 0 0 0 q e e e e e e q q q 0 0 0 9 9 8 8 ",
"0 0 9 9 9 9 9 9 9 0 0 0 0 q q 0 0 e 0 0 0 0 0 9 9 8 8 8 6 5 5 5 5 5 5 4 4 4 4 4 4 4 4 5 5 5 5 5 5 6 6 6 6 6 6 6 6 5 5 5 4 4 4 4 ",
"5 5 5 4 4 4 4 4 4 5 5 6 6 8 8 8 9 9 8 9 9 9 9 8 8 8 8 6 5 5 5 5 5 5 5 4 4 4 4 4 4 4 4 4 4 4 4 4 4 4 4 4 4 4 4 4 4 4 4 4 4 3 3 3 ",
"2 2 2 2 2 2 2 2 2 2 2 2 2 2 2 4 4 4 5 5 5 6 6 6 5 5 5 5 5 4 4 4 4 4 4 4 4 4 4 4 4 4 4 4 4 4 4 4 4 4 4 4 4 4 4 4 4 4 4 3 4 3 2 2 ",
"2 2 2 2 2 2 2 2 2 2 2 2 2 1 2 2 1 2 1 2 2 2 2 2 4 3 2 2 2 2 2 2 2 2 2 3 3 3 3 3 3 3 3 3 4 4 3 4 4 4 4 4 4 3 4 2 2 2 2 2 2 2 2 2 ",
"2 2 2 2 2 2 2 2 1 1 1 1 1 2 1 1 1 1 1 1 1 1 2 2 2 2 2 2 2 2 2 2 2 2 2 2 2 2 2 2 2 2 2 2 2 2 2 3 2 2 2 2 2 2 2 2 2 2 1 1 1 1 1 < ",
"2 2 2 2 2 2 2 2 2 1 1 1 2 1 1 2 1 1 2 1 1 2 1 1 1 2 1 2 2 2 2 2 2 2 2 2 2 2 2 2 2 2 2 2 2 2 2 2 2 2 2 1 1 1 < < < < < < < < < < ",
"2 2 2 2 2 2 2 1 1 1 1 1 1 1 1 1 1 1 1 1 1 1 1 1 1 1 1 1 2 2 2 2 2 2 2 2 2 2 2 1 1 1 1 1 1 1 1 2 1 1 < < < < < < < < < < < , , , ",
"1 1 1 2 2 2 2 1 1 1 1 1 1 1 1 1 1 1 1 1 1 1 1 1 1 1 1 1 1 1 1 2 1 1 1 1 1 1 1 1 1 < < < < < 1 < < < < < < < < < < < < < < < < < ",
"1 1 1 1 2 2 1 1 1 1 1 1 1 1 1 1 1 1 1 1 1 1 1 1 1 1 1 1 < < < < < < < < < < < < < < < < < < < < < < < < < < < < < < < < < < , < ",
"1 1 1 1 1 1 1 1 1 1 1 1 1 1 1 1 1 1 1 1 1 1 1 1 < 1 1 < < < < < < < < < < < < < < < < < < < < < < < < < < < , < < < < < < < , , ",
"1 < 1 1 1 1 1 1 1 1 1 < < < < < 1 1 < < < < < < < < < < < < < < < < < < < < < < < < , , < < < < < < < < < < , , < < < < < < < < ",
"< 1 < 1 1 1 1 1 1 1 < < < < < < < < < < < < < < < < < < < < < < < < < < < < < < , , , , , < , < , < < < < < < < < < 1 1 1 1 1 1 ",
"< < < < < 1 < < < < < < < < < < < < < < < < < < < < < < < < < < < , , , , , , , , , , , , , , , , , < < < < < < 1 1 1 2 1 2 2 2 ",
"< < < < < < < < < < < < < < < < < < < < < , , , , , , , , , , , , , , , , , , , , , , , , , , , , , < < < 1 1 1 1 1 1 1 2 2 2 2 ",
"< < < < < < < < , , , , , , , , , , , , < , < , , , , > , , , , , , , , > , , , , , , , , , , , < < < < < 1 1 1 1 1 1 1 2 1 2 2 ",
", , < < , , , , > > > , , > > > > > > , , , , , , , > > > > > > > > > : : > , , , , , , , , < < < < < < < < < 1 1 1 1 1 1 1 2 2 ",
", , , , , , , , , , > > > : > : : : : > : : : : > : : : : : : : > : > > > , , , , , , < , < < , < < < < < < < < < < < < 1 1 1 2 ",
", , , , , , , , , , > : > : : : : : : : : : : : : : : : : : : : : : > > > , , , , < < < < < , , , , < < < < < < < < < 1 < 1 1 1 ",
", , , , , , , , > > > > > : : : : : : : : : : : : : : : : : : : : > , , , , , , , , , , , , , , , , , < < < < 1 1 1 1 1 1 1 1 1 ",
", , , , , , , , > > > > > : : : : : : : : : : : : : : : : : : : : : : : : , , , , , , , , > , , , , , , < < < < < 1 1 1 1 1 1 1 ",
", , , > > > , > : > : : : : : : : : : : : : : : : : : : : : : : : : : : : : : : : > , , , , , , , , , , , < < < < < < < < < < < ",
", , , , > > > > : : : : : : : : : : : : : : : : : : : : ; ; ; ; ; ; ; ; ; : : : : : : : : : > , , > , , , , , < , , < < < < < < ",
", , , , : > : : : : : : : : : : : : : : : : ; ; : ; ; ; ; ; ; ; ; ; - - - - ; ; ; ; ; : : : : : : > , , , , , , , , , , , , , , ",
", , > > : : : : : : : : : : : : : : : : ; ; ; ; ; ; ; ; - ; ; - = - = = = = = = = = = = = ; ; : : : : > , , , , , , , , < < < < ",
", , > > : : : : : : : : : : : : : : : : ; ; ; ; ; ; ; - - - = = = = = = = = = = = = = = = = = = = = - ; : : : > > > , , > > > > ",
": : : : : : : : : : : : : : : : : : : : : ; ; ; ; ; ; ; - - = = = = = = = = = = = = = = * * * * * % * * = = = = = - ; ; ; : : : ",
": : : : : ; : ; ; : ; ; ; ; : ; : : ; : : : : : : : : : : ; - ; - = = = = = = = = = = = * * * * % % % % % % % % % % * % % % = = ",
": ; ; ; ; ; ; ; ; ; ; ; ; ; ; : : : : : : : : : : : : : : : : : ; ; ; - - = = = = = * * % % % % % % % % % % % % % % % % % % % % ",
"; ; ; ; ; ; ; ; ; ; ; : : : : : : : : : , , , < < < < < , , : : : : : : : - - - = = = * * % % % % % % % % % % % % % % % % % % % ",
"; ; ; ; ; ; ; ; ; : : : : : : : : > , , , < < < < < < < < < , , , , > : : : : : ; - = = = * % % % % % % % % % % % % % % % % % % ",
"; ; ; ; ; ; ; ; ; ; : : : : : > , , , , , < < < < < < < < < < , , , , , : : : : : ; - = = = = & % % % % % % % $ $ $ $ % $ % % $ ",
"; ; ; - ; - - - ; ; ; : : : : : , , , , , < < < < < < < < < < < , , , , , : : : ; ; ; - - = = = = & % % % % $ $ $ $ $ $ % $ $ $ ",
"= = = = = = = = = = = - ; ; ; : : : : > , , < < < < < < < < < < < , , , , > : ; ; ; ; = = = = = = = = % % % $ % $ $ $ $ $ $ $ $ ",
"= = = = = = = = = = = = = = = = - - ; : : : , , < < < < < < < < , , , , , : : ; ; ; = = = = = = = = = & % % $ $ $ $ $ $ $ $ $ $ ",
"= = = = = = = = = = = = = = = = = = = = = = - ; : : : > , , , , , , , > : : ; ; - = = = = = = = = = = = % % % % $ $ $ $ $ $ $ $ ",
"= = = = = = = = = = = = * * * * % % % % * % = = = = = = = - ; ; ; ; ; ; ; - = = = = = = = = = = & & & % % % % $ $ $ $ $ $ $ $ $ ",
"= = = = = = = = = = = = * % * % % % % % % % % % % % % % = = = = = = = = = = & * % % % % % % % % % % % % % % $ $ $ $ $ $ $ $ $ $ ",
"= = = = = = = = = * % % % % % % % % % % % % % % % % % % % % % % % % % % % % $ $ $ $ $ $ $ $ $ $ $ $ $ $ $ $ $ $ $ $ $ $ $ $ $ $ ",
"= = = * * * * * * * % % % % % % % % % % % % $ $ $ $ $ $ % % % $ $ $ $ $ $ $ $ $ $ $ $ $ $ $ $ $ $ $ $ $ # # $ # # $ # # # $ # # ",
"= = * * * * % % % % % % % % % % % % % $ $ $ $ $ $ $ $ $ $ $ $ $ $ $ $ $ $ $ $ $ $ $ $ $ $ # # # # # # # # # # # # # # # # # # # ",
"= = * % % * % % % % % % % % % % % % $ $ $ $ $ $ $ $ $ $ $ $ $ $ $ $ $ $ $ $ $ $ $ $ $ # # # # # # # # # # # # # # # # # # # # # ",
"* % % % % % % % % % % % % % $ $ $ $ $ $ $ $ $ $ $ $ $ $ $ $ $ $ # # # # # # # # # # # # # # # # # # # # # # # # # # # # # # # # ",
"* * % % % % % % $ $ $ % $ $ $ $ $ $ $ $ $ $ $ $ $ $ $ # # # # # # # # # # # # # # # # @ @ @ @ @ @ @ @ @ @ @ @ @ @ @ @ @ @ @ @ @ ",
"* % % % % % % % $ $ $ $ $ $ $ $ $ $ $ $ $ $ # # # # # # # # # # # # # # # # # # # # # @ @ @ @ @ @ @ @ @ @ @ @ @ @ @ @ @ @ @ @ @ ",
"* % % % % % % % $ $ $ $ $ $ $ $ $ $ # # # $ $ # # # # # # # # # # # # # # # # # # # # @ @ @ @ @ @ @ @ @ @ @ @ @ @ @ @ @ @ @ @ @ ",
"= = = * % % % $ $ $ $ $ $ $ $ $ $ # # # # # # # # # # # # # # # # # @ @ @ @ @ @ @ @ @ @ @ @ @ @ @ @ @ @ @ @ @ @ @ @ @ @ @ @ @ @ ",
"= = = = = * % % $ $ $ $ $ $ # # # # # # # # # # # # # # # # # # # # @ @ @ @ @ @ @ @ @ @ @ @ @ @ @ @ @ @ @ @ @ @ @ @ @ @ @ @ @ @ ",
"= = = = = = = % % $ $ $ $ $ $ # # # # # # # @ @ @ # @ @ @ @ @ @ @ @ @ @ @ @ @ @ @ @ @ + + + + + + + + + + + + + + + + + + + + + "
};
