/* XPM */
static char * bsew_xpm[] = {
"64 64 158 2",
"  	c #444945",
". 	c #3B5D33",
"+ 	c #3B6333",
"@ 	c #152B0D",
"# 	c #6AA661",
"$ 	c #6EAA63",
"% 	c #598B4F",
"& 	c #22391C",
"* 	c #59844F",
"= 	c #34512B",
"- 	c #294B23",
"; 	c #1B3513",
"> 	c #6C9661",
", 	c #8ABE7B",
"' 	c #557D4A",
") 	c #559651",
"! 	c #64A25C",
"~ 	c #2C5323",
"{ 	c #406537",
"] 	c #5B8551",
"^ 	c #4B6E41",
"/ 	c #93C784",
"( 	c #B8F4A7",
"_ 	c #ADEB9C",
": 	c #618C55",
"< 	c #A7E496",
"[ 	c #9AD48A",
"} 	c #B0EF9F",
"| 	c #ADED9C",
"1 	c #709E64",
"2 	c #142206",
"3 	c #1C330B",
"4 	c #25461C",
"5 	c #639E5A",
"6 	c #5E9D59",
"7 	c #44733C",
"8 	c #A3E092",
"9 	c #ACEB9B",
"0 	c #9FDA8F",
"a 	c #AAE999",
"b 	c #98D187",
"c 	c #152209",
"d 	c #507347",
"e 	c #83BB74",
"f 	c #79AA6B",
"g 	c #93CC83",
"h 	c #A9E798",
"i 	c #162E10",
"j 	c #609C57",
"k 	c #437C3B",
"l 	c #0D1B05",
"m 	c #325C2B",
"n 	c #5B9A55",
"o 	c #53934D",
"p 	c #000000",
"q 	c #A8E697",
"r 	c #A2DE91",
"s 	c #6A975E",
"t 	c #81B572",
"u 	c #A5E294",
"v 	c #A4E193",
"w 	c #2A4324",
"x 	c #9DD78C",
"y 	c #3B6D33",
"z 	c #36642B",
"A 	c #4D8C49",
"B 	c #4C8A46",
"C 	c #6E9C61",
"D 	c #8CC47C",
"E 	c #97D087",
"F 	c #152610",
"G 	c #142906",
"H 	c #376831",
"I 	c #1E3B14",
"J 	c #498542",
"K 	c #49833F",
"L 	c #315C23",
"M 	c #527648",
"N 	c #4C7441",
"O 	c #72A363",
"P 	c #060903",
"Q 	c #5C8C51",
"R 	c #3E7438",
"S 	c #528E4B",
"T 	c #417936",
"U 	c #2D541B",
"V 	c #274221",
"W 	c #7CB56E",
"X 	c #87C078",
"Y 	c #7FB871",
"Z 	c #2F5A25",
"` 	c #3E7434",
" .	c #3C702E",
"..	c #76B16A",
"+.	c #74AF68",
"@.	c #72AC66",
"#.	c #629456",
"$.	c #659459",
"%.	c #46813E",
"&.	c #37682B",
"*.	c #274C1D",
"=.	c #407734",
"-.	c #396C2D",
";.	c #366927",
">.	c #385C2D",
",.	c #4C7B43",
"'.	c #416638",
").	c #7EB770",
"!.	c #68A55F",
"~.	c #55824B",
"{.	c #6A9B5E",
"].	c #346325",
"^.	c #2F5A1D",
"/.	c #0F2505",
"(.	c #233C13",
"_.	c #58904F",
":.	c #5B9553",
"<.	c #2F5629",
"[.	c #458141",
"}.	c #4D8648",
"|.	c #376730",
"1.	c #305B1F",
"2.	c #1F4011",
"3.	c #1F3B1A",
"4.	c #071602",
"5.	c #446E3C",
"6.	c #1E3B09",
"7.	c #295315",
"8.	c #517B47",
"9.	c #24420D",
"0.	c #264B13",
"a.	c #244A0D",
"b.	c #1B3407",
"c.	c #447E40",
"d.	c #254313",
"e.	c #66A561",
"f.	c #192C07",
"g.	c #2F5A29",
"h.	c #2B4D1A",
"i.	c #121B06",
"j.	c #2A4413",
"k.	c #2A4B15",
"l.	c #243A0D",
"m.	c #305520",
"n.	c #23340C",
"o.	c #29471A",
"p.	c #0D1206",
"q.	c #1A2409",
"r.	c #1D2B0A",
"s.	c #151C08",
"t.	c #30501F",
"u.	c #090D04",
"v.	c #293C11",
"w.	c #253711",
"x.	c #212E0C",
"y.	c #111607",
"z.	c #181F09",
"A.	c #121708",
"                                                                        . + @                                                   ",
"                                                                      + # $ %                                             & * = ",
"        - ;                       > , '                               ) ! ! ! ~                       { ] ^ @             / ( _ ",
"      : _ < ]                     [ } | 1           2 3             4 5 6 6 6 7                     ; 8 | 9 [ ]         * | | | ",
"    & 0 a a b c     d e f c       g h h < '       i ) j k l         m n o o o k p                     g h q < r s       t q u v ",
"    ] v r r r ^   w x < < s       g r r r ,       m n n n y         z o A B y C f .                   ] r r 0 0 x :     D 0 [ b ",
"    C x b E b s   : 0 0 r g F   G g b b b [ .     H o o o o I       z B J K L g r x M                   D b g g g g N   D g D D ",
"    O g D D D t P f g g b [ .   + D D D D g Q     R S A A A m       z K k T U E x x g =   w C : V       C D e e e D W @ e D e e ",
"    O X Y W Y e . e D D D g M   Q e W W e D O     k J J J J z       Z k `  .U g g g g s - D [ x D .     ' e W ....W e + W W +.@.",
"    #.# $ $ @.W $.#.W W e D ' l @...@.@...e +.  ; %.%.k k k &.      *.=.-.;.>.D D D D e ,.g g g g e l   '.).@.# !.$ ..,.@.@.! ! ",
"    + $.~.7 6 # +.+ # $ +.W ,.{ ..!.! ! # ..{.p Z T T T T T z       I -.].^.N e W W e e 7 e X X D D '.  m ..! 6 n n ! ,.5 ! n ) ",
"/.% X D D {.z n # % 7 5 ! @.+ 5 ! n o o 6 # % l -.`  . . . .Z       - ,.N (.#.+.$ $ ..W ~.@.W W ).e '   ~ $ 6 o S S ) ,._.n o A ",
"7 e e e e e { J ) ! m S n ) y !.) A B B o ! 7 U -.;.].].].;.U   ; Q W e e y $ !.! ! # +.Q ! $ $ @...:.  <.# o B J K J [.,.o J %.",
"$ ......W ).* y J n }.|.o m ) ) J %.k %.B n ~ ].].^.^.^.1.].2.3.j @.....j ,.! n ) ) 6 # }.:.6 6 ! # 5 4.m 5 A k T T T Z 5.7 *.-.",
"$ # # # $ ..~.z ` J ) - T z ) J T ` ` T %.A 6.^.7.7.7.7.7.U I :.! ! ! # m 6 o B B A o 5 7 o o o o n ! 4 m n J `  . .].8.e Y # *.",
"! 6 6 6 ! $ 5.].&.` J R l J J ` -.-.-. .k y 9.0.a.a.a.a.0.3 J ) ) ) n J 7 n z ` k %.B n m A J J J B ) H <.o T -.&.&.U # ..Q @.:.",
") S o ) 6 ! m ].].].` T *.J ` ].].].].-.T 4 9.9.9.9.9.9.b.H A B B B A ~ ) B &.` ` T [.A ~ J k T ` T J c.- B ` ].].].0.5 @.# ! # ",
"B [.J B ) n *.L L L ].~ y ` ].L L ].].&.y G 6.6.6.6.6.6.I [.k T T %.y y A T y -.-.` k k m k ` -.-.-.` %.4 T &.L L L d.:.e.e.! ! ",
"k R T k B o I ^.^.U U I ` ].^.^.^.^.L z ~ f.b.b.b.b.6.G &.` -.-.y ` 4 [.T -.z z z -.T <.*.` -.].].].].y z *.].^.^.^.d.S 6 n ) ) ",
"y -.y R [.J b.U U U 0.~ &.U U U U U ^.z @ f.f.f.b.b.b.(.-.].L ].z L g.k &.L L L ].z R @ 2 -.&.L ^.U U L -.4 h.U U U (.}.) A A A ",
"z ].z z ` c.b.h.h.h.b.L L h.h.h.h.h.U U l 2 2 G f.b.2 L L U U U L (.R -.L 1.1.L L z m i.i.h.].L U h.h.h.U L 3 0.h.h.3 [.B [.c.[.",
"].L L L -.R f.0.0.0.f.].h.j.0.0.k.k.U (.i.2 2 2 f.f.3 L h.k.k.h.U 4 y L U U U U L z d.2 2 2 U U h.d.9.9.9.U U G j.0.b.k k R R R ",
"(.h.U U L y @ 9.9.l.(.m.j.9.9.d.d.j.U i.i.i.i.2 f.2 h.U j.9.9.j.(.Z z h.h.h.h.h.U L l 2 2 2 3 h.0.l.l.n.n.l.k.h.2 9.3 R y -.z -.",
"h.k.k.k.h.z I l.l.f.o.k.l.l.l.l.l.j.d.p.l l l i.2 i.h.j.l.l.l.9.q.z U k.k.k.k.k.U 4 l i.i.2 l (.j.l.n.n.b.b.l.k.(.2 ; z z L L L ",
"k.j.j.j.j.m.o.q.n.2 h.j.n.n.n.n.n.l.3 p.p.p.l l i.r.j.l.n.n.n.l.(.L o.j.j.j.j.k.U @ l i.i.i.s.l l.l.n.r.r.r.b.l.j.2 (.L m.h.h.t.",
"j.l.l.l.l.o.~ i.r.2 j.n.r.r.r.r.n.l.i.u.u.u.u.l p.l.l.r.r.r.r.r.o.t.v.v.v.v.v.j.k.u.p.p.p.p.i.u.f.l.b.r.q.q.q.r.n.q.o.t.k.j.j.k.",
"v.l.n.n.n.l.h.r.q.2 l.r.r.r.r.r.r.n.u.P P P P u.p.n.r.q.q.q.r.s.h.j.n.n.l.l.l.j.w.P u.u.u.u.p.P p.n.r.q.q.q.q.q.r.i.o.o.v.l.v.j.",
"v.n.x.x.x.n.j.(.p.2 r.q.c c c c q.q.P P P P P P i.r.q.c s.c q.s.o.w.n.n.n.n.n.v.c P P P P P P P p q.r.q.c s.s.s.c s.v.v.n.n.n.v.",
"n.x.r.r.r.r.w.j.u.i.c s.s.s.s.s.s.s.p p p p p p i.q.i.i.i.i.i.q.v.n.r.r.r.r.n.n.u.P P P P P P p p i.q.s.i.y.y.i.l q.n.n.x.x.n.v.",
"x.x.q.q.q.r.n.v.2 y.i.l l l l l y.y.p p p p p p y.y.p.p.p.p.l r.n.r.q.q.q.r.r.x.p p p p p p p p p u.i.y.l p.p.p.u.r.x.r.q.r.x.n.",
"r.q.q.q.q.q.r.n.q.u.p.u.u.u.u.p.p.u.p p p p p p p.p.u.u.u.u.u.q.r.q.q.q.q.q.q.q.p p p p p p p p p P p.p.u.u.u.u.u.q.q.q.q.q.r.n.",
"z.s.s.s.z.z.q.x.q.P P P P P P P P P p p p p p p P P P P P P P q.z.s.s.s.s.s.s.i.p p p p p p p p p p P P P P P P y.s.s.s.s.z.q.x.",
"A.A.y.A.s.s.z.q.q.p P P P P P P P p p p p p p p P p p p p p p s.A.l l l l l y.p.p p p p p p p p p p P P p p p p y.s.y.A.s.s.q.x.",
"p.p.p.p.p.y.s.q.s.p p p p p p p p p p p p p p p p p p p p p p p.p.u.u.u.u.u.p.u.p p p p p p p p p p p p p p p P p.p.p.p.l A.s.r.",
"P P P u.u.p.y.s.p.p p p p p p p p p p p p p p p p p p p p p p P P P P P P P P P p p p p p p p p p p p p p p p P u.u.u.u.p.p.s.q.",
"P P P P P u.u.p.P p p p p p p p p p p p p p p p p p p p p p p P P P P P P P P p p p p p p p p p p p p p p p P P P P P P P u.A.p.",
"p p p p P P P u.p p p p p p p p p p p p p p p p p p p p p p p p p p p p p p p p p p p p p p p p p p p p p p p p p p P P P u.p.P ",
"p p p p p p P P p p p p p p p p p p p p p p p p p p p p p p p p p p p p p p p p p p p p p p p p p p p p p p p p p p p p P P P p ",
"p p p p p p p p p p p p p p p p p p p p p p p p p p p p p p p p p p p p p p p p p p p p p p p p p p p p p p p p p p p p p P p p ",
"p p p p p p p p p p p p p p p p p p p p p p p p p p p p p p p p p p p p p p p p p p p p p p p p p p p p p p p p p p p p p p p p ",
"p p p p p p p p p p p p p p p p p p p p p p p p p p p p p p p p p p p p p p p p p p p p p p p p p p p p p p p p p p p p p p p p ",
"p p p p p p p p p p p p p p p p p p p p p p p p p p p p p p p p p p p p p p p p p p p p p p p p p p p p p p p p p p p p p p p p ",
"p p p p p p p p p p p p p p p p p p p p p p p p p p p p p p p p p p p p p p p p p p p p p p p p p p p p p p p p p p p p p p p p ",
"p p p p p p p p p p p p p p p p p p p p p p p p p p p p p p p p p p p p p p p p p p p p p p p p p p p p p p p p p p p p p p p p ",
"p p p p p p p p p p p p p p p p p p p p p p p p p p p p p p p p p p p p p p p p p p p p p p p p p p p p p p p p p p p p p p p p ",
"p p p p p p p p p p p p p p p p p p p p p p p p p p p p p p p p p p p p p p p p p p p p p p p p p p p p p p p p p p p p p p p p ",
"p p p p p p p p p p p p p p p p p p p p p p p p p p p p p p p p p p p p p p p p p p p p p p p p p p p p p p p p p p p p p p p p ",
"p p p p p p p p p p p p p p p p p p p p p p p p p p p p p p p p p p p p p p p p p p p p p p p p p p p p p p p p p p p p p p p p ",
"p p p p p p p p p p p p p p p p p p p p p p p p p p p p p p p p p p p p p p p p p p p p p p p p p p p p p p p p p p p p p p p p ",
"p p p p p p p p p p p p p p p p p p p p p p p p p p p p p p p p p p p p p p p p p p p p p p p p p p p p p p p p p p p p p p p p ",
"p p p p p p p p p p p p p p p p p p p p p p p p p p p p p p p p p p p p p p p p p p p p p p p p p p p p p p p p p p p p p p p p ",
"p p p p p p p p p p p p p p p p p p p p p p p p p p p p p p p p p p p p p p p p p p p p p p p p p p p p p p p p p p p p p p p p ",
"p p p p p p p p p p p p p p p p p p p p p p p p p p p p p p p p p p p p p p p p p p p p p p p p p p p p p p p p p p p p p p p p ",
"p p p p p p p p p p p p p p p p p p p p p p p p p p p p p p p p p p p p p p p p p p p p p p p p p p p p p p p p p p p p p p p p ",
"p p p p p p p p p p p p p p p p p p p p p p p p p p p p p p p p p p p p p p p p p p p p p p p p p p p p p p p p p p p p p p p p ",
"p p p p p p p p p p p p p p p p p p p p p p p p p p p p p p p p p p p p p p p p p p p p p p p p p p p p p p p p p p p p p p p p ",
"p p p p p p p p p p p p p p p p p p p p p p p p p p p p p p p p p p p p p p p p p p p p p p p p p p p p p p p p p p p p p p p p ",
"p p p p p p p p p p p p p p p p p p p p p p p p p p p p p p p p p p p p p p p p p p p p p p p p p p p p p p p p p p p p p p p p ",
"p p p p p p p p p p p p p p p p p p p p p p p p p p p p p p p p p p p p p p p p p p p p p p p p p p p p p p p p p p p p p p p p ",
"p p p p p p p p p p p p p p p p p p p p p p p p p p p p p p p p p p p p p p p p p p p p p p p p p p p p p p p p p p p p p p p p ",
"p p p p p p p p p p p p p p p p p p p p p p p p p p p p p p p p p p p p p p p p p p p p p p p p p p p p p p p p p p p p p p p p ",
"p p p p p p p p p p p p p p p p p p p p p p p p p p p p p p p p p p p p p p p p p p p p p p p p p p p p p p p p p p p p p p p p ",
"p p p p p p p p p p p p p p p p p p p p p p p p p p p p p p p p p p p p p p p p p p p p p p p p p p p p p p p p p p p p p p p p ",
"p p p p p p p p p p p p p p p p p p p p p p p p p p p p p p p p p p p p p p p p p p p p p p p p p p p p p p p p p p p p p p p P "};
