/* XPM */
static char * Bsw_xpm[] = {
"64 64 66 1",
" 	c #725F58",
".	c #725F57",
"+	c #6F5D55",
"@	c #6D5B54",
"#	c #6B5952",
"$	c #695750",
"%	c #64524B",
"&	c #614F47",
"*	c #5B4B44",
"=	c #564740",
"-	c #53443D",
";	c #574842",
">	c #5F4E48",
",	c #5F5047",
"'	c #4A3C35",
")	c #1E1916",
"!	c #050101",
"~	c #444945",
"{	c #6E5B53",
"]	c #67564F",
"^	c #615049",
"/	c #4E413A",
"(	c #27201D",
"_	c #0B0403",
":	c #68554E",
"<	c #2D2520",
"[	c #322621",
"}	c #0F0806",
"|	c #614F49",
"1	c #372E29",
"2	c #140C0A",
"3	c #3E312B",
"4	c #16100D",
"5	c #1D1411",
"6	c #65534C",
"7	c #584740",
"8	c #463932",
"9	c #261C18",
"0	c #5F5247",
"a	c #2D221D",
"b	c #615449",
"c	c #352923",
"d	c #5E4F48",
"e	c #392C26",
"f	c #64544B",
"g	c #3B2E29",
"h	c #67584E",
"i	c #171310",
"j	c #443631",
"k	c #58473F",
"l	c #64564C",
"m	c #69594F",
"n	c #4C3E39",
"o	c #41342E",
"p	c #624E4A",
"q	c #5D4D49",
"r	c #44382F",
"s	c #291E1A",
"t	c #31241F",
"u	c #241A16",
"v	c #211613",
"w	c #1A110E",
"x	c #180F0C",
"y	c #110907",
"z	c #100706",
"A	c #3F3430",
" .....++@#$%&*=---==;**********>>,')!!~~~~~~~~~~~~~~~~~~~~~~~~~~",
"........+@{#]^>*--=;;***********>>,/(_!~~~~~~~~~~~~~~~~~~~~~~~~~",
".........+{{#:^>*=-==*************>>-<_!~~~~~~~~~~~~~~~~~~~~~~~~",
".........+++{#:%&*;==;*************>>-[}!!~~~~~~~~~~~~~~~~~~~~~~",
".......+.+++@##:]|>*===;************>>;12!!~~~~~~~~~~~~~~~~~~~~~",
"@++++.+++++++{{##]^>*====;***********>>*34!!~~~~~~~~~~~~~~~~~~~~",
"@@{++++++++++{{{#$]^>*=======;********>>*35!!~~~~~~~~~~~~~~~~~~~",
"#{{{{{{@+++@@{{{###]6|*;-==--==7*******>>>8)!!~~~~~~~~~~~~~~~~~~",
"#######{{{{{{{{{####:]^>==--======******>>>'9_!~~~~~~~~~~~~~~~~~",
"$$$######{{{{{{{####$]]^>*=-----===******>>0/a_!~~~~~~~~~~~~~~~~",
"]]]:::::############::]]^>*=-------;*****>>,^-<_!~~~~~~~~~~~~~~~",
"]]]]]]]]]:::#######:::]]%^>*-------=;******>^b-c}!~~~~~~~~~~~~~~",
"%%66666%6]6]]::$::::::]]6^d*=--------;*****>|^];e2!~~~~~~~~~~~~~",
"|^^^^%^^^^^^%]]]]::]:]]]6^|>*--------=******>^^f*g2!!~~~~~~~~~~~",
">>>|^^^^^^|^^^^6]]]]]]]6%^^>**--------=****>>>^f],34!!~~~~~~~~~~",
"*>>*>>>|^||>|^^^^%6]]]]6^^^>**--------=*****>>^^fh,3i!!~~~~~~~~~",
"*****>>>>>>>>>>&|^^^%6%^^^^>**=-------==****>>|^%]]bj5!!~~~~~~~~",
"*7-k7;*****>>>>>>>&^^^^^^^^>>*=--------=;****>d^^]]hl8)!!~~~~~~~",
"----------=********>>>>|&^|>**---------=;*****d^b]]]m]')!!~~~~~~",
"''''nnnnnn--------==**********---------=*****>||^f]]hhh/)_!~~~~~",
"ojjjjj88j8'''nn//--------===------------*****dd||^]]hmmh/9_!~~~~",
"333oooooooooj8888'''nnnnn/-------/------;****dd||%6]]hmm]/9_!~~~",
"gggg3333333ooooojjjj888'''''nnnnnn//-----****ddd||^66]]hhh-(_!~~",
"gggggggg333333ooooooojjjj8888'''nn///----*****>ddd|%66]]hhh-(_!~",
"gggggggggggg333333ooooooojjjj88''nnn//---k*****>dd||666]]hmhka_!",
"eggggggggggggg3333333ooooooooj88''nnn/----k****>>dddp%66]hhmm;<_",
"eeggggggeeeegggg33333333ooooooj8'''nnn----k******>dd||%6]]hmmm;<",
"eeeeeeeeeeeeeggggg3333333ooooooj8''nnn/----**;****>ddd|p6]]]mmm*",
"cceeeeeeeeeeeegggggg3333333ooooj88''nn//---**********dd||6]]hmmm",
"[cccccccceccceeeegggg333333oooooj88''nn/----kk;*******qdd|p6]hhm",
"[[[[[ccccccccccceegggg33333ooooorr88'''n/----k;;*******qdd|p6]hh",
"aaaa[[[[[[ccccccceeeeggg333ooooorr88'''n/------;;;*****q*ddd|6]]",
"saaaaaaatt[[[[[ccccceeeggg333oooooj8888''n/--------=;*****qqqd^]",
"sssssaaaaaaatt[[[ccccceeggg333ooooj88j8j8''n---------;******qd|^",
"sssssssaaaaaaaat[[[ccccceeggg333ooorjooooj8'n/---------k;;***qq|",
"999999ssssaaaaaaaa[[[cccceeeegg33ooooo33ooo8'n/--------k=;;;*qqd",
"u99999999sssssaaaaaattt[ccceeeg33ooooo33oooj8''n/---------;;;*qq",
"vuuuu99999ssssssaaaaattt[ccceeeg333o333333ooj88''/---------=;**q",
"vvvvvvu999999ssssssaaaaa[[[[cceegg33o333333oooj8''n/--------=;;;",
"555vvvvvvu99999sssssaaaaaa[[[[ceeeg33o3333oooooj88'n/--------=;;",
"55555555vvuuuu99999sssaaaaa[[[[ccee333o333333oooj88'//--------=;",
"www55w5555vvvuuu9999sssaaaaatt[[[cee333oo3333ooooj8''/---------;",
"xwwwwwwwwww555vvvuu9999sssaaaaaa[cccegg33333333oooo8'n/---------",
"xxxxwwwwwwwww5555vvvu999sssaaaaaa[[cccee33333333ooo8''n//-------",
"xxxxxxxxwwwwwww55555vvu999sssaaaaaa[[cceggg333333oo8'''''/------",
"xxxxxxxxwwwwwwwwww5555vvu999sssssaaatttcceegg333ooo8''''''n///--",
"222xx2xxxxxxxxxwwwww555vvvu9999sssaaaat[[ccegg333oj8888''''n////",
"yyyy22xxxxxxxxxxxwwwww5555vvu999ssssaaaa[[[ccegg33ooj88'''''n///",
"yy222222222xxx2xxxxxxxww555vvvu9999sssaaaaa[[ccegg3ooor8888'''nn",
"}}yyyyy2yyy2222222xxxxxwww555vvuu9999ssasaaaa[[ccgg3ooj88888''''",
"}}}yzzyyy}yy2222222xxxxxxxww5555vvu9999ssssaaat[[cegg3oooo888888",
"_}}}}}}}}zz}y2y22222xxxxxwwwww555vvvuu9999sssaaa[[ccegg33ooj8888",
"_____}}}}}}}zzzzyyyy2xxxxxxxwww55555vuuu99999ssaaa<[[ccg333ojjjj",
"_______}}}}}}zzzyyyyy222xxxxxwwww5555vvvuu9999ssaaaa[[ccgg33ojjj",
"_________}}}}}}}}}}}}}yy2xxxxxwwww555555vuuu99999ssaaa<[ceeg333A",
"__________}}}}}}}}}}}}}yy22xxxxxxxwwww5555vvuuuu999ssaaa<[[ceg33",
"______________}}}}}}}}}}yy222xxxxxxwwwww55555vuuuu9999ssaaa[[eeg",
"__________________}}}}}}}yyy2222xxxxx4wwwww5555vvvuuuu99ssaa<[cc",
"!!___!__________________}}}}yy222xxxxxx4wwww55555vvuuuu9999saa<[",
"!!!!____________________}}}}y}}}222xxxxxx4www5555555)vuuuu999aaa",
"!!!!!!__!!______________}}}}}}}}}222222xxxxxwwww5555555vuuuu99sa",
"!!!!!!__!!____!___________}}}}}}}}y22222xxxxx44ww55555555uuuuu99",
"!!!!!___!!!!!!_____________}}}}}}}}}yy2222xxxx444www5555555vuuuu",
"!!!!!!!!!!!!!!!________________}}}}}}}}}222222xxxxwwww5555555)uu"};
