/* XPM */
static char * bsw_xpm[] = {
"64 64 186 2",
"  	c #010100",
". 	c #060A02",
"+ 	c #090D04",
"@ 	c #0C1305",
"# 	c #101507",
"$ 	c #131608",
"% 	c #141B09",
"& 	c #191E0A",
"* 	c #1B230A",
"= 	c #21270D",
"- 	c #232B0E",
"; 	c #2B3314",
"> 	c #313C1A",
", 	c #32411E",
"' 	c #334925",
") 	c #34542C",
"! 	c #355C33",
"~ 	c #39653A",
"{ 	c #3B7445",
"] 	c #3C7C4C",
"^ 	c #3D814F",
"/ 	c #3E8552",
"( 	c #418E59",
"_ 	c #43925D",
": 	c #44935C",
"< 	c #489760",
"[ 	c #499962",
"} 	c #4B9B64",
"| 	c #418452",
"1 	c #444945",
"2 	c #282F11",
"3 	c #334E29",
"4 	c #396334",
"5 	c #3A6E41",
"6 	c #3B7748",
"7 	c #071303",
"8 	c #252D12",
"9 	c #324522",
"0 	c #3B6B3E",
"a 	c #408955",
"b 	c #479660",
"c 	c #2D532C",
"d 	c #16300A",
"e 	c #234414",
"f 	c #295415",
"g 	c #254D14",
"h 	c #2A3619",
"i 	c #213E26",
"j 	c #1A2D14",
"k 	c #122405",
"l 	c #1A3406",
"m 	c #3A5E35",
"n 	c #2B4D2A",
"o 	c #82B474",
"p 	c #8BBE7C",
"q 	c #537748",
"r 	c #192D07",
"s 	c #1F400D",
"t 	c #243314",
"u 	c #34693E",
"v 	c #1E3B1C",
"w 	c #4A6E41",
"x 	c #93CB84",
"y 	c #97CF89",
"z 	c #5D8352",
"A 	c #1C2712",
"B 	c #2C3B1C",
"C 	c #356E42",
"D 	c #2A5A35",
"E 	c #1E4124",
"F 	c #13230B",
"G 	c #639658",
"H 	c #8FC581",
"I 	c #1D3D0B",
"J 	c #2C4322",
"K 	c #253519",
"L 	c #223C1C",
"M 	c #22430D",
"N 	c #275013",
"O 	c #1C351B",
"P 	c #7FB171",
"Q 	c #90C782",
"R 	c #6D9D61",
"S 	c #446D3C",
"T 	c #87BA78",
"U 	c #8DC37D",
"V 	c #719D64",
"W 	c #7EAF71",
"X 	c #152B0B",
"Y 	c #244523",
"Z 	c #1B340C",
"` 	c #1B3413",
" .	c #0D1B04",
"..	c #366333",
"+.	c #173006",
"@.	c #1C3B07",
"#.	c #4A7341",
"$.	c #7BAC6D",
"%.	c #2B4B23",
"&.	c #0F2208",
"*.	c #477740",
"=.	c #345C2B",
"-.	c #152B12",
";.	c #152B05",
">.	c #234B0D",
",.	c #73A566",
"'.	c #75AC69",
").	c #315C24",
"!.	c #4E8549",
"~.	c #52854A",
"{.	c #3B6D33",
"].	c #35653B",
"^.	c #377345",
"/.	c #143019",
"(.	c #0E2105",
"_.	c #608E54",
":.	c #6EA262",
"<.	c #6A9C5E",
"[.	c #427A3C",
"}.	c #4B8344",
"|.	c #2D421A",
"1.	c #224B2B",
"2.	c #659A5A",
"3.	c #24451A",
"4.	c #2C5422",
"5.	c #457C41",
"6.	c #478241",
"7.	c #2D603A",
"8.	c #598E51",
"9.	c #5C9154",
"0.	c #619356",
"a.	c #3D7239",
"b.	c #4A7C42",
"c.	c #325630",
"d.	c #3F8A56",
"e.	c #41753C",
"f.	c #3E7235",
"g.	c #1C3C21",
"h.	c #538A4C",
"i.	c #1E3A13",
"j.	c #588A4F",
"k.	c #37682C",
"l.	c #315623",
"m.	c #386A2E",
"n.	c #2B4C1B",
"o.	c #142410",
"p.	c #35642B",
"q.	c #0E1A0A",
"r.	c #2C531C",
"s.	c #336126",
"t.	c #265633",
"u.	c #1D4428",
"v.	c #264A1B",
"w.	c #2D581F",
"x.	c #2E5A24",
"y.	c #264A22",
"z.	c #131B06",
"A.	c #49723F",
"B.	c #547D4A",
"C.	c #43653A",
"D.	c #97D087",
"E.	c #0A1308",
"F.	c #578D50",
"G.	c #83BB74",
"H.	c #2F5A29",
"I.	c #71AB66",
"J.	c #7BB56F",
"K.	c #69A45F",
"L.	c #6DAA63",
"M.	c #63A25C",
"N.	c #599954",
"O.	c #5E9D58",
"P.	c #52924E",
"Q.	c #4E8D4A",
"R.	c #4B8B47",
"S.	c #233C13",
"T.	c #2B4315",
"U.	c #46813F",
"V.	c #407837",
"W.	c #1C2B0B",
"X.	c #30591F",
"Y.	c #2A4B15",
"Z.	c #243B0D",
"`.	c #23330D",
" +	c #2B3C15",
".+	c #304F1F",
"      .       . . + + @ # $ % & * * = - - ; ; > , ' ) ! ~ ~ { ] ^ / ( _ : < [ } |   1 1 1 1 1 1 1 1 1 1 1 1 1 1 1 1 1 1 1 1 1 1 ",
"  . + # % * * % + . + @ $ % & & * = = - 2 ; ; > , ' 3 ) 4 ~ 5 6 ] | ( _ : [ [ } ] . 1 1 1   7 . 1 1 1 1 1 1 1 1 1 1 1 1 1 1 1 1 ",
"  . . @ % * - ; ; 8 % + @ % & * * = - - ; ; ; > , 9 3 ) ! ~ 0 { ] / a _ : b [ : c 1 1 . d e f g 7 1 1 1 1 1 1 1 1 1 1 1 1 1 1 1 ",
"    . + @ % * - ; > > h & @ % * - - - ; ; ; ; > , ' 3 ) ! ~ 0 { ] / a ( _ b / i j . k e f f f f l 1 1 1 1 1 1 1 1 1 1 1 1 1 1 1 ",
"    . . + @ % * - ; ; > > h % $ * 2 ; ; ; > > > 9 ' ) ! m ~ 5 { ] / a ( _ ( n o p q r g f f f f s   1 1 1 1 1 1 1 1 1 1 1 1 1 1 ",
"      . . + # $ & * - ; ; > , t $ * h , , 9 9 ' 3 ) ) m ~ 0 { ] ] / / ^ u v w x y x z r f f f f s 1 1 1 1 1 1 1 1 1 1 1 1 1 1 1 ",
"      . . + + # % & * - 8 ; > 9 9 A % B ' 3 ) ) ) ! 4 ~ ~ { { { C D E F l d G x x x H m e f f f I 1 1 1 1 1 1 1 1 1 1 1 1 1 1 1 ",
"      . . + + @ $ % & * = 8 ; > 9 3 J $ % * 8 t K K L L L L j * l M g f N O P H H Q x R r f f f r 1 1 1 1 1 1 1 1 1 1 1 1 1 1 1 ",
"      . . + + @ $ % & * * - 8 ; > ' ) ) j   + # $ % & * * - e f f f f f s S T p U V W o X g f e 1 1 1 1 1 1 1 1 1 1 1 1 1 1 1 1 ",
"      . . + + @ $ % & * * = - ; ; , ' ) ! Y @ @ % * * - Z I s g f f f g ` V T T T R o o L g g  .1 1     1 1 1 1 1 1 1 1 1 1 1 1 ",
"      . . + + @ $ % & * * = - 2 ; B 9 ' ) ..! O + * r +.l @.@.M g f f Z #.$.$.$.o o V o %.I &.1 1  .4 *.=.F 1 1 1 1 1 1 1 1 1 1 ",
"      . . + + # $ % & * * = 8 2 ; B B 9 3 ! ~ u D -. .;.l @.I M >.N s %.R ,.,.,.'.$.o P %.. 1 1 1 ).!.~.~.{. .1 1 1 1 1 1 1 1 1 ",
"      . + + # $ % & * * = - 8 ; ; B B J ' ) ! ].5 ^.D /.(.l I M >.M ` _.:.R <.:.,.'.$.'.%.1 1 1 r [.}.!.!.}.e 1 1 1 1 1 1 1 1 1 ",
"    . + + # % & * * = - - - 8 2 h h B |.9 3 ) m ~ { ] ] C 1.-.&.k  .#.<.2.G G 2.<.,.'.,.3.1 1 1 4.5.6.}.6.}.=.1 1 1 1 1 1 1 1 1 ",
"    . . . + @ % * 8 8 8 8 8 8 ; ; h B B J ' ) ! ].5 u 7.^ / / ] C D O Y #.8.9.0.2.R ,.R ` 1 1 X a.[.[.5.5.b.{. .1 1 1 1 1 1 1 1 ",
"                  . % A t t t t ; h B B J %.3 c...u u C ] / a d.( ( _ ] E ) ~.8.0.<.:.0. .1 . 4.e.e.e.[.[.[.f.F 1 1 1 1 1 1 1 1 ",
"                        . % 8 K h h B B J %.3 c.m ].{ 6 C ] / a ( _ : b : g.0 h.9.2.R S 1 1 i.{.f.f.f.f.f.e.{.k 1 1 1 1 1 1 1 1 ",
"                      . + @ + F K K B B J J n ) ! ].5 { ] / / d.( _ : b : C ) !.j.G 0.L 1 X k.{.{.{.{.{.f.f.).&.1 1 1 1 1 1 1 1 ",
"                    . + + @ @ @ + A K B B J n ) ! ].C { ] ^ / d.( _ : : : 7...}.h.9.S . &.l.m.m.m.{.{.{.{.{.n.1 1 1 1 1 1 1 1 1 ",
"                    . . . + @ @ @ . @ o.K J %.c ! ].C 6 ] / / d.( _ : : ] v a.5.~.~.` &.4.p.k.k.k.k.m.m.k.{.O 1 1 1 1 1 1 1 1 1 ",
"            . .       . . . + + . X ` -.q.% O Y D ].C { ] / / a ( _ / 7.` k.f.5.!.=.k r.).).).).s.p.p.p.p.p.X 1 1 1 1 1 1 1 1 1 ",
"                      . . . . . q.j ` ` O O ` o.-.-.g.1.t.D D t.u.O ` v.).k.f.5.e.X v.r.r.r.r.w.x.).).).s.v.1 1 1 1 1 1 1 1 1 1 ",
"                        . . . . F X -.j ` ` v Y y.n n n L 7 X i.3.v.r.4.x.p.{.a.O I g g g N f f r.r.x.x.x.d 1 1 1 1 1 1 1 . i.v.",
"                          .   q.F F F F -.j ` v Y n c c F X i.e 3.v.v.r.x.p.{.3.;.e e e e g g g g f r.r.v. .1 1 1 1 1   ` <.U x ",
"                            + q.q.z.z.F F -.j O L Y Y F F ` i.i.e e 3.v.4.p.%. .@.I I I s M M e g g f f d 1 @ j ) A.~.B.C.z x D.",
"                          . @ @ q.q.q.q.z.F -.-.O v F 7 X X ` ` i.i.e v.4.4. .;.l l @.@.I I s M M g g I . O C.j.G <.<.:.:.B.$.x ",
"                          + @ @ @ @ @ @ q.q.F -.j o.. F * X X d d ` i.3.v.F (.;.;.+.+.l l @.I I M s ;.X 4 !.8.9.9.G 2.<.<.S ,.U ",
"                        . + . + + + @ @ E.q.q.o.F . @ z.F F * X X d O 3.F 7 k k ;.;.;.+.+.l @.I l  .y.[.}.!.~.h.F.9.9.0.b.C.G.G.",
"                      . . . . . . . + + @ @ q.q.. . @  . .z.F F * X ` X .  . .k k ;.;.;.;.+.l ;. .H.a.5.5.5.6.}.!.h.F.S S I.J.J.",
"                    . . . . . . . . . . + @ E.+   + @ @ @ @  .z.F X F . @  . . .k k k ;.;.;.k &.H.{.a.a.a.a.[.5.}.}.4 *.K.L.'.'.",
"                                . . . . . + +   . . . . @ @ @  .z.z.. . @ @ @  . .k k k ;. .&.4.k.k.k...{.{.a.[.5.p.*.2.M.M.M.K.",
"                                      . . .     . . . . . . @ @  ..   . . + @ 7  . .k k  .&.%.H.x.x.x.).p.k.{.a.H.e.N.N.N.N.N.O.",
"                                        .         . . . . . + @ .   . . . . + @ @  .z.7  .3.L e n.n.r.4.x.p...4.` h.P.Q.Q.Q.P.P.",
"                                                        . . . .         . . . + 7  .@ 7 O e i.e e 3.v.r.4.H.4.Z 3.Q.R.6.6.6.6.R.",
"                                                            .             . . . @ @ . X ` ` Z i.S.e T.v.r.v.r l v.}.6.[.e.e.[.U.",
"                                                                              . .   z.X X X r Z Z i.S.T.3.;.Z +.v.U.e.f.f.f.f.V.",
"                                                                              .   @ z.F k k k ;.r Z i.L k l l ;.v.e.f.k.p.k.k.m.",
"                                                                                  @ @  . .z.z.k ;.r Z F  .l r k 3.f.k.s.).).).s.",
"                                                                                . + @ @ 7 @  .z.k W.k 3.` k ;.k e m.s.X.r.r.r.X.",
"                                                                                . . . . + @ @  .z.k F a.{.7 k  .L k.).r.Y.Y.Y.f ",
"                                                                                . . . . . + @ @  .@ 4.f.e.%.+ @ i.s.r.Y.Y.e >.Y.",
"                                                                                      . . . + @ + -.).k.{.{.X . d ).r.Y.M M Z.M ",
"                                                                                          . . . @ 3.4.l.p.m.).. X l.n.T.Z.Z.Z.Z.",
"                                                                                            .   ` 3.n.r.l.).k.3.@ r.Y.M Z.Z.`.Z ",
"                                                                                              @ S.e T.n.n.r.l.=.X S.Y.Z.`.Z Z Z ",
"                                                                                              X S.S. +e T.n.r.l.4.z.Z.Z.`.W.r r ",
"                                                                                            @ X ` S.S.S.S. +T.n.l.S.& `.W.W.W.* ",
"                                                                                            z.X X W.`.`.`.Z.S.T.n..+* * W.W.* * ",
"                                                                                            @ F * X W.- `.`.`.`.S.n. +@ * * * & ",
"                                                                                              z.F * * W.W.W.W.`.Z.T.n.* z.% % z.",
"                                                                                              @ % * * * * * W.W.- `.T. +@ z.z.$ ",
"                                                                                                z.% % & * * * * W.`. +|.X @ $ @ ",
"                                                                                                @ % % & % * * * * W.`. + +@ @ @ ",
"                                                                                                . z.% z.z.& % % * * -  +|.* . + ",
"                                                                                                  $ z.$ $ $ z.z.% % * `.h t . . ",
"                                                                                                  @ @ @ @ @ $ $ $ z.* - t ; @ . ",
"                                                                                                  . @ @ @ @ @ @ @ @ % * - `.*   ",
"                                                                                                  . + + + + + + + + @ % * * *   ",
"                                                                                                  . . . . . . . . . + @ % & *   ",
"                                                                                                    . . . . . . . . . + @ $ % . ",
"                                                                                                    . .     .     . . . + + @ . ",
"                                                                                                                    . . . + +   ",
"                                                                                                                    .     . .   ",
"                                                                                                                            .   "};
