/* XPM */
static char *_2230b9631fd49b8be7d807dacf7f058[] = {
/* columns rows colors chars-per-pixel */
"64 64 152 2 ",
"   c None",
".  c #030202",
"X  c #080706",
"o  c #0A0807",
"O  c #0D0B09",
"+  c #110E0D",
"@  c #14110F",
"#  c #161210",
"$  c #1A1513",
"%  c #1E1916",
"&  c #1F1A18",
"*  c #201A17",
"=  c #241D1A",
"-  c #281F1C",
";  c #27201D",
":  c #2A221E",
">  c #2D2521",
",  c #302723",
"<  c #332A26",
"1  c #362C28",
"2  c #392E2A",
"3  c #3C312C",
"4  c #3F3430",
"5  c #40342F",
"6  c #423631",
"7  c #463934",
"8  c #483B36",
"9  c #4E3F3B",
"0  c #4E3F3A",
"q  c #4C3E39",
"w  c #4B3D38",
"e  c #4D403B",
"r  c #4E403A",
"t  c #4E403B",
"y  c #4F403B",
"u  c #4E413B",
"i  c #4F413B",
"p  c #4D403C",
"a  c #4F403C",
"s  c #4F413C",
"d  c #4F413D",
"f  c #50413C",
"g  c #50413D",
"h  c #50423C",
"j  c #51423C",
"k  c #50423D",
"l  c #51423D",
"z  c #50433D",
"x  c #51433D",
"c  c #52423D",
"v  c #52433D",
"b  c #51423E",
"n  c #51433E",
"m  c #52433E",
"M  c #53433E",
"N  c #52433F",
"B  c #53433F",
"V  c #51443E",
"C  c #52443E",
"Z  c #53443E",
"A  c #52443F",
"S  c #53443F",
"D  c #52453F",
"F  c #53453F",
"G  c #54443F",
"H  c #54453F",
"J  c #54463F",
"K  c #544440",
"L  c #544540",
"P  c #554540",
"I  c #544541",
"U  c #554541",
"Y  c #544640",
"T  c #554640",
"R  c #544641",
"E  c #554641",
"W  c #564640",
"Q  c #564641",
"!  c #564741",
"~  c #574741",
"^  c #554642",
"/  c #564642",
"(  c #564742",
")  c #574742",
"_  c #564643",
"`  c #564743",
"'  c #574842",
"]  c #574843",
"[  c #584842",
"{  c #584843",
"}  c #594843",
"|  c #584943",
" . c #594943",
".. c #584844",
"X. c #594844",
"o. c #584944",
"O. c #594944",
"+. c #594945",
"@. c #5A4944",
"#. c #5A4945",
"$. c #594A44",
"%. c #594A45",
"&. c #594B45",
"*. c #5A4A44",
"=. c #5A4A45",
"-. c #5B4A45",
";. c #5B4B45",
":. c #5A4A46",
">. c #5B4A46",
",. c #5B4B46",
"<. c #5C4B46",
"1. c #5C4B47",
"2. c #5C4C47",
"3. c #5D4C47",
"4. c #5D4D47",
"5. c #5D4C48",
"6. c #5D4D48",
"7. c #5D4C49",
"8. c #5E4C48",
"9. c #5E4D48",
"0. c #5E4D49",
"q. c #5F4D49",
"w. c #5F4E49",
"e. c #5F4E4A",
"r. c #604E4A",
"t. c #604F4A",
"y. c #614F4A",
"u. c #604F4B",
"i. c #614F4B",
"p. c #624F4B",
"a. c #61504A",
"s. c #61504B",
"d. c #62504B",
"f. c #61504C",
"g. c #62504C",
"h. c #62514C",
"j. c #63514C",
"k. c #63514D",
"l. c #63524D",
"z. c #63514E",
"x. c #64514D",
"c. c #64524D",
"v. c #64534D",
"b. c #64524E",
"n. c #65524E",
"m. c #65534E",
"M. c #65534F",
"N. c #66534F",
"B. c #65544F",
"V. c #66544F",
"C. c #665450",
"Z. c #675450",
/* pixels */
"                                                                                                                                ",
"                                                                                                                                ",
"                                                                                                                                ",
"            . . . . . . . X + $ $ # o . . . . . .                                                                               ",
". . X X O @ = < 4 6 8 ( w.u.z.b.b.b.V.b.&.w 2 > & X . . . . .         . . . . . . . . . . . .                                   ",
"u.z.z.b.b.z.z.b.b.z.z.z.a.u.u.u.u.u.u.u.w.w.<.&.( C 8 < ; & $ @ + O + @ $ = - > , , > > - = = & $ @ + o . . .                   ",
"V.Z.Z.Z.b.b.b.b.z.z.u.u.u.u.u.u.w.w.w.w.w.2.&.&.] ( C N t q w 8 7 7 8 w q q q q t N ( { &.<.<.&.&.] ( ( ( q # . .               ",
"b.b.b.b.b.b.b.b.z.a.u.u.u.u.u.u.w.w.w.w.2.&.&.&.( ( C N N C N N N N t q w 8 w t N ( ( { &.&.&.&.&.<.<.2.w.u.2.3 O .             ",
"b.b.V.V.b.b.b.z.a.u.u.u.u.u.w.w.w.w.w.2.&.&.&...{ ( ( ( ( ( N N q w 8 7 7 8 q N ( ( { { { { &.&.&.&.&.&.&.&.&.( 8 # . .         ",
"b.b.Z.Z.b.b.b.z.z.u.u.w.w.w.w.w.w.w.2.<.&.&.&.&.&.&.&.&.( N q q 8 7 7 7 8 q N C ( ( ( ( ( { { { { &.{ &.{ { ] ( ( w $ .         ",
"b.b.b.b.b.z.z.a.w.w.w.2.w.w.w.w.w.w.2.<.<.&.&.&.&.&.&.( N q 8 7 7 6 6 8 q N N C ( ( ( ( ( ( ] { { { { { { ] ( ( ( C 8 O .       ",
"2.&.{ ( ( ( ( ( ( ( ] &.&.&.&.<.<.<.<.&.&.&.&.&.&.&.( N w 7 6 6 6 6 7 w t N N C N G ( ( ( ( ( ( ( ] ] ( ] ( ( G C C C 3 .       ",
"8 7 7 7 7 6 6 7 q d N ( ( { &.&.&.&.&.&.&.&.&.{ ( ( N w 7 6 5 5 6 7 8 q t N N N N N C C G ( ( ( ( ( ( ( ( ( G C C C C d # .     ",
"6 6 6 6 6 6 6 6 7 7 w d N N N ( ( ( ( ( ( ( C N t w 7 6 3 3 3 6 7 8 8 q t d N N N N N N N N G ( ( ( ( ( ( G C C C C C C , .     ",
"6 6 4 6 6 4 4 4 4 4 6 6 7 7 8 w w w q w w 8 7 7 6 3 3 3 3 3 5 6 7 7 8 w q t d t d d t t t t t N N N N N C C C N N N C C 8 .     ",
"3 3 3 3 3 3 3 3 3 3 3 3 3 3 3 4 6 6 6 6 6 3 3 3 3 3 3 3 3 3 3 6 6 6 7 8 w w q q q q q q q q q q t t t t t d N N N N N C t X     ",
"2 3 3 3 3 3 3 3 3 3 3 3 3 3 3 3 2 2 3 3 3 2 2 2 2 3 3 3 3 3 3 3 3 5 6 6 7 7 8 8 7 7 8 w q q q q q q q q q w q t N d N N N #     ",
"1 1 1 1 1 2 2 2 2 1 1 1 2 3 3 2 2 2 2 2 2 2 2 2 2 3 3 3 3 3 3 3 3 3 3 3 3 3 5 5 6 6 7 8 w q w w w w w w 8 w 8 8 w q q q q #     ",
"< 1 1 1 1 1 1 1 1 1 1 1 1 1 1 1 1 2 2 2 1 2 2 2 2 3 3 3 2 3 3 3 2 2 2 2 2 2 2 2 3 6 6 7 8 8 8 8 8 8 8 8 7 6 6 6 5 6 6 6 7 @     ",
"< < < < < 1 1 1 1 1 1 1 1 1 1 1 1 1 1 1 1 1 2 2 2 3 3 2 2 2 3 2 2 2 2 2 2 2 2 2 2 2 3 3 6 6 6 6 6 6 3 3 3 3 3 3 2 3 3 3 5 +     ",
"< , , , , , , < < < < 1 1 1 1 1 1 1 1 1 1 1 1 2 2 2 3 2 2 2 2 2 2 2 2 2 2 2 2 1 1 1 2 2 2 2 3 3 3 2 2 2 2 2 2 2 2 2 2 3 3 +     ",
", , , , , , < , , , , , , , , , < < < < < < 1 1 1 1 2 2 2 2 2 2 2 2 2 2 2 2 2 1 1 1 1 1 1 1 1 1 1 1 1 1 1 1 1 2 2 2 2 2 3 o     ",
"< , , , , , , , , , , , , , , , , , , , < < < 1 < 1 1 1 2 2 2 2 2 2 2 2 2 2 1 1 1 1 1 1 1 1 < 1 1 < < < < 1 1 1 2 2 2 2 3 .     ",
"1 1 < , , , , , , , , , , , , , , , , , , , , , , , < < 1 1 1 1 1 2 2 2 2 1 1 1 1 1 1 1 1 < < < < < < < < < 1 1 1 2 2 2 2 .     ",
"< < , < < < < , , , , , > > > > > > > > > > > > , , , , < < < 1 1 1 1 2 2 2 1 1 2 1 1 1 < < < < < < < < < < 1 1 1 2 2 3 3 .     ",
"< , , , , < , , , , , , > > > > > > > > > > > > > > , , , , < < 1 < 1 1 1 1 1 1 2 1 1 1 < < < < < < < < < < 1 1 2 2 3 3 3 .     ",
", , , , , , , , , > > > > > > > > > > > > > > > > > > > , , , , , , , < < < 1 1 1 1 1 1 < < < < < < < < < < 1 2 3 3 6 7 7 .     ",
", , , , , , > > > > > > ; ; ; ; > > > > > > > > > > > > , , , , , , , , < < < < < < < < < < < , < < < , < < 2 3 6 7 7 7 7 .     ",
"> > > > > > ; ; ; ; ; ; ; ; ; ; ; ; > ; ; > > > > > > > > > > > , , , , , , , , , , , , < < , , , , , , , < 3 6 7 8 8 8 7 .     ",
"; ; - = = = - = = - - - - - ; ; ; ; ; ; ; ; > > > > > > > > > > > , , , , , , , , > , , , , , , , , , , , , 6 8 8 8 8 8 7 .     ",
"& * * * = = = = = = = = = - - ; ; ; ; ; ; > > > > > > > > > > > > > > > , , , , , > > > > > > > , , > , , , 3 8 8 8 8 8 7 .     ",
"& * * * = = = = = = = - ; ; ; > > > > > > > > > : ; ; ; ; ; ; ; : > > > > > > > > > > > > > > > > , > > > , < 7 8 8 8 8 7 .     ",
"& & & & * = = = - ; ; > > > > > , , < , , > > > > > > > : ; ; ; ; ; ; ; ; ; ; > > > > > > > > > > > > > > > , 3 8 8 8 8 7 .     ",
"& & & * = = ; ; > > > , , , < 1 1 1 1 1 1 < , , > > > > > > ; ; ; ; ; ; ; ; ; ; : : > > > > > > > > > > > > , < 6 7 7 8 7 .     ",
"= = = = - ; ; ; > , , , < < < < < 1 < < , , > > > ; ; ; ; ; - - - ; - ; ; ; ; ; ; ; ; ; ; ; > > > > > > > > > , 2 6 7 7 6 .     ",
"& & & & = = = = = = - - - - = = = = = = & & & & & * & = = = = = = = = = = = = = = = ; ; ; ; ; ; ; : > > > > > > , 3 6 6 3 .     ",
"# # # # # $ $ $ $ $ $ $ $ $ $ $ $ $ $ $ $ $ $ $ $ $ & & & & & & * * * = = = = = = = = = - ; ; ; ; : : > > > > > > , 3 5 2 .     ",
"@ @ @ @ @ @ @ @ @ @ @ # # # # # # # # $ $ $ $ $ $ $ $ $ $ $ $ $ $ $ & & = = = = = - ; ; ; ; ; ; ; ; : : : > > > > , , 2 1 .     ",
"+ + + + + @ @ @ @ @ @ @ @ @ # @ @ # @ @ @ # # # # # $ $ $ $ $ & = = = = = = ; ; ; ; ; ; > > > > > > > ; ; ; : > > , , , , .     ",
"O O O + + + + + + + + + + + + @ @ @ @ @ @ @ @ @ @ # # $ $ $ & & * * = = = = = = - ; ; ; ; : : : > > ; ; ; ; ; > > > , , , .     ",
"O O O O O O O O O O O O + + + + + + + + + + + @ @ @ # # # # # $ $ $ $ & & & * = = = - - - = = = = = = = = = ; > > > > > > .     ",
"O O O O O O O O O O O O O O O O O + + + + + + + + + @ @ @ @ @ @ @ # # # $ $ $ $ $ $ $ $ $ & & & & * * = = = ; : > > > > > .     ",
"o o o o O O o O O O O O O O O O O O O O O O O + + + + + + + @ @ @ @ @ # # # # $ $ $ $ $ $ $ $ $ & & * * * * = ; ; ; : : > X     ",
"o o o o o o o o o o o o o o o o O O O O O O O O O O O + + + + + + + @ @ @ # # # # # # # $ $ $ $ $ $ $ & & * = = = = ; > , X     ",
"X o X X X o X o o o o o o o o o o o o O O O O O O O O O + + + + + + @ @ @ @ # # @ # # # # # $ $ $ $ $ $ $ $ & * * - , < < X     ",
"X X X X X X X X X X X X o X o o o o o o o o O O O O O O O O O O O O + + + + + + + @ @ @ # @ # # # # $ $ $ $ $ * - , , , , .     ",
"X X X X X X X X X X X X X X X X X X X X X X o o o o o o o o o O O O O O O O + + + + + + + @ @ @ @ @ @ @ # $ & = > , , , , .     ",
"X X X X . . . . X X X X X X X X X X X X X X X X X X o o o o o O O O O O O O O O + + + + + + + + + + + + @ # & ; , , , , > .     ",
". . . . . . . . . . . . X X X X X X X X X X X X X X X X X o o o o o o o o O o o O O O O O O + + + O O O + # ; , , , , , ; .     ",
". . . . . . . . . . . . X X X X X . . . X X X X X X X X X X X X X o o o o o o o o o O O O O O O O O O O O @ = > , , , , $ .     ",
"X . . . . . . . . . . . . . . . . . . . . . . . . X X X X X X X X X X X X X X o o o o o O O O O O o o o o o O & : > , , + .     ",
"X X X X X X X X X X . . . . . . . . . . . . . . . . . . . X X X X X X X X X X X X o o o o o o o o o o o o o o o + = : > O .     ",
"X X X X . . . . . . . . . . . . . . . . . . . . . . . . . . . . X X X X X X X X X X X X X X X X X o o o o o X X o O + $ X       ",
". . . . . . . . . . . . . . . . . . . . . . . . . . . . . . . . . . . . X X X X X X X X X X X X X X X X o X X X X o o O .       ",
". . . . . . . . . . . . . . . . . . . . . . . . . . . . . . . . . . . . . . X X X X X X X X X X X X X X X X X X X X o X .       ",
". . . . . . . . . . . . . . . . . . . . . . . . . . . . . . . . . . . . . . . . . . . X X X X X X X X X X X X X X X X . .       ",
". . . . . . . . . . . . . . . . . . . . . . . . . . . . . . . . . . . . . . . . . . . . . . . . X X X X X X X X X X X . .       ",
". . . . . . . . . . . . . . . . . . . . . . . . . . . . . . . . . . . . . . . . . . . . . . . . . . . . X X X X X X . .         ",
". . . . . . . . . . . . . . . . . . . . . . . . . . . . . . . . . . . . . . . . . . . . . . . . . . . . . . . . . . . .         ",
". . . . . . . . . . . . . . . . . . . . . . . . . . . . . . . . . . . . . . . . . . . . . . . . . . . . . . . . . . .           ",
". . . . . . . . . . . . . . . . . . . . . . . . . . . . . . . . . . . . . . . . . . . . . . . . . . . . . . . . .               ",
". . . . . . . . . . . . . . . . . . . . . . . . . . . . . . . . . . . . . . . . . . . . . . . . . . . . .                       ",
". . . . . . . . . . . . . . . . . . . . . . . . . . .                                                                           ",
"            . . . . . . . . . . . . . .                                                                                         "
};
