/* XPM */
static char *_264e0b855b049bfa0eb6c398091e7ae[] = {
/* columns rows colors chars-per-pixel */
"100 50 86 1 ",
"  c #72751B",
". c #737621",
"X c #747725",
"o c #757829",
"O c #76792D",
"+ c #777A31",
"@ c #787B34",
"# c #797C37",
"$ c #7A7D3A",
"% c #7B7E3C",
"& c #7D7F41",
"* c #7F8249",
"= c #81844C",
"- c #838550",
"; c #858652",
": c #868856",
"> c #878959",
", c #888A5B",
"< c #8A8C5E",
"1 c #8B8D61",
"2 c #8C8E62",
"3 c #8D8F64",
"4 c #8F9167",
"5 c #90926A",
"6 c #959773",
"7 c #979975",
"8 c #989976",
"9 c #9A9B7A",
"0 c #9D9F7F",
"q c #9E9F80",
"w c #9FA081",
"e c #A2A386",
"r c #A3A487",
"t c #A6A78C",
"y c #A6A88D",
"u c #A8AA90",
"i c #AAAC93",
"p c #AAAD94",
"a c #ACAE95",
"s c #AEAF98",
"d c #AEB099",
"f c #B0B19B",
"g c #B1B29C",
"h c #B3B49F",
"j c #B6B7A3",
"k c #B7B8A5",
"l c #B8B8A6",
"z c #BBBCAA",
"x c #BEBFAF",
"c c #BFC0AF",
"v c #BFC0B0",
"b c #C0C1B1",
"n c #C3C4B5",
"m c #C5C6B7",
"M c #C6C6B8",
"N c #C8C9BB",
"B c #C9C9BC",
"V c #CBCCBF",
"C c #CDCDC1",
"Z c #CFCFC4",
"A c #D1D1C6",
"S c #D2D3C8",
"D c #D3D4CA",
"F c #D4D4CA",
"G c #D6D6CD",
"H c #D7D8CE",
"J c #D8D9D0",
"K c #DBDCD4",
"L c #DFE0D9",
"P c #E2E2DB",
"I c #E2E2DC",
"U c #E4E5DF",
"Y c #E6E7E1",
"T c #E7E8E2",
"R c #E8E8E3",
"E c #EBEBE6",
"W c #ECEDE9",
"Q c #EFF0EC",
"! c #F1F1EE",
"~ c #F3F3F1",
"^ c #F4F4F1",
"/ c #F6F6F4",
"( c #F8F8F7",
") c #FAFBFA",
"_ c #FCFCFB",
"` c white",
/* pixels */
"````````````````````````````````````````````````````````````````````````````````````````````````````",
"````````````````````````````````````````````````````````````````````````````````````````````````````",
"````````````````````````````````````````````````````````````````````````````````````````````````````",
"````````````````````````````````````````````````````````````````````````````````````````````````````",
"````````````````````````````````````````````````````````````````````````````````````````````````````",
"````````````````````````````````````````````````````````````````````````````````````````````````````",
"````````````````````````````````````````````````````````````````````````````````````````````````````",
"````````````````````````````````````````````````````````````````````````````````````````````````````",
"````````````````````````````````````````````````````````````````````````````````````````````````````",
"````````````````````````````````````````````````````````````````````````````````````````````````````",
"````````````````````````````````````````````````````````````````````````````````````````````````````",
"````````````````````````````````````````````````````````````````````````````````````````````````````",
"````````````````````````````````````````````````````````````````````````````````````````````````````",
"`````W l/j;$0I``````Ef>+<l~``)+e```_# J```D H```````````````````````````````````````````````````````",
"`````W p2    XT````GX     =W``eO)``U  l```g ~```````````````````````````````````````````````````````",
"`````W  0Y)~h d```Q+,J/`~n r``N P``mot1```;5````````````````````````````````````````````````````````",
"`````W =/```)%,```c R`````a /`Y b``qwD !`W z````````````````````````````````````````````````````````",
"`````W p`````6@```0 ooXX.   E``%9`)oMQ F`Z K````````````````````````````````````````````````````````",
"`````W l`````9o```4         R``u./L U`<g`i./````````````````````````````````````````````````````````",
"`````W l`````9o```9 ^``````````C Kv#``j-`&8`````````````````````````````````````````````````````````",
"`````W l`````9o```x M``````````E z7y``H A b`````````````````````````````````````````````````````````",
"`````W l`````9o```WO.xW)(EVs````=: C``^ : P`````````````````````````````````````````````````````````",
"`````W l`````9o````J+      7````d  E```5 o)`````````````````````````````````````````````````````````",
"`````W l`````9o`````Wk3@:qB~````S *````z w``````````````````````````````````````````````````````````",
"````````````````````````````````````````````````````````````````````````````````````````````````````",
"````````````````````````````````````````````````````````````````````````````````````````````````````",
"````````````````````````````````````````````````````````````````````````````````````````````````````",
"````````````````````````````````````````````````````````````````````````````````````````````````````",
"````````````````````````````````````````````````````````````````````````````````````````````````````",
"````````````````````````````````````````````````````````````````````````````````````````````````````",
"````````````````````````````````````````````````````````````````````````````````````````````````````",
"````````````````````````````````````````````````````````````````````````````````````````````````````",
"````````````````````````````````````````````````````````````````````````````````````````````````````",
"````````````````````````````````````````````````````````````````````````````````````````````````````",
"````````````````````````````````````````````````````````````````````````````````````````````````````",
"````````````````````````````````````````````````````````````````````````````````````````````````````",
"````````````````````````````````````````````````````````````````````````````````````````````````````",
"````````````````````````````````````````````````````````````````````````````````````````````````````",
"````````````````````````````````````````````````````````````````````````````````````````````````````",
"````````````````````````````````````````````````````````````````````````````````````````````````````",
"````````````````````````````````````````````````````````````````````````````````````````````````````",
"````````````````````````````````````````````````````````````````````````````````````````````````````",
"````````````````````````````````````````````````````````````````````````````````````````````````````",
"````````````````````````````````````````````````````````````````````````````````````````````````````",
"````````````````````````````````````````````````````````````````````````````````````````````````````",
"````````````````````````````````````````````````````````````````````````````````````````````````````",
"````````````````````````````````````````````````````````````````````````````````````````````````````",
"````````````````````````````````````````````````````````````````````````````````````````````````````",
"````````````````````````````````````````````````````````````````````````````````````````````````````",
"````````````````````````````````````````````````````````````````````````````````````````````````````"
};
