/* XPM */
static char *_5c738ba3ff847978fdf29ae77856e22[] = {
/* columns rows colors chars-per-pixel */
"64 64 10 1 ",
"  c None",
". c black",
"X c #1C0D00",
"o c #2B1400",
"O c #3A1B03",
"+ c #572905",
"@ c #673001",
"# c #763701",
"$ c #944501",
"% c #B06D00",
/* pixels */
"                                                                ",
"                                                                ",
"                                                                ",
"                            @    +                              ",
"                  @@       @$@  +                               ",
"                 @$$@      @$@ ++                               ",
"           +    @$##@       @$@+                                ",
"           +@   @##@        @$$@                                ",
"           @$@  @##@        @#$@           +                    ",
"            @$@ @##@         @#$@         +                     ",
"            @$$@@##$@        @#$@    +   ++                     ",
"             @$$#@#$@         @#$@    + ++                      ",
"              @##@#$$@        @#$$@   @@$+        @@            ",
"               @@+##$@         @#$$@@@$$@        @$$@           ",
"                 @##$$@    +    @#$@#$$@        @$$@            ",
"                  @##$$@   +    @##@+#@        @$$@             ",
"                   @#$$$@ ++  @  @##@@     +   @$@              ",
"                   @##$$$@+    @@#####@    +  @$$@              ",
"                    @##$$$@     @#####@    ++ @$#@              ",
"                +    @##$$@      @#####@    + @$@               ",
"                ++   @###$$@      @####@    ++$$@               ",
"                 +@   @###$@      @##$##@    @$#@               ",
"                 @#@  @###$$@      @#$##@    @$#@               ",
"                  @#@@#@###$@      @#$$#@   @$$@  @@@           ",
"                   @####@##$$@    @##$$##@  @$#@ @#@            ",
"                    @@##@###$$@   @#$$$$#@ @$#@#@#@             ",
"                      @@+###$$$@ @##$$$$#@@$#@###@              ",
"                        @@###$$$@@@#$$$#@@$$#@##@               ",
"                         @@###$$$@+@#$#@@$$$#+@@                ",
"             +            @@###$$$@@@@@+@$$#@@                  ",
"             ++       +    @###$$$@+@@+@$$$#@                   ",
"              +@     +     @@###$$@@++@#$$#@@                   ",
"              @#@@  ++      @###$#@+@@+#$#@@                    ",
"               @#$@@+       @####@+@$@@@##@@                    ",
"                @#$$$@@     @@@#@+@$##@+@+@  +                  ",
"                 @@##$$@@@   @+@+@#####@@@@++                   ",
"                   @@@#$$$@@ +@+@$####.#@#@+                    ",
"                      @@#$$$@+$@#####..##@@                     ",
"                        @##$#@+####@..X#@@                      ",
"                         @####@###@+%.##@@                      ",
"                          @##@@##@+.%X@#@@                      ",
"                           +@+.##@$.X$@@#@@                     ",
"                           @+@..@+#X###@@@+                     ",
"                            @#X..$#####$@@@+                    ",
"                            @##.%#######$@@@++                  ",
"                             @#X%.#######.$@@++                 ",
"                             @##X.######..##@@++                ",
"                             @###X.###+.%X##@@@+                ",
"                       oo    @####X##+@.%##o#@@++ o             ",
"                      oOOo    @###@##@$.X#o+o@@@+o+o            ",
"                     oOOOOo   @###@#+@#X##oO+o@@oOO+o           ",
"                    oOOOOOOo  @###@+@$###oOOO+ooOOOO+o          ",
"                   oOOOOoOOOo  @###@$####oOoOO+oOooOO+o         ",
"                  oOOOoo ooOOo @@#@@###@oOOooOO+oo oOOo         ",
"                 oOOoo    ooOOo@@@@@###@oOoo@oOOo   oO+o        ",
"                oOOo       oooo+@@+@@##ooOoo++oO+o   oOo        ",
"                oOo         oooo+++@@@@oooo+++ oOoo   O+o       ",
"               ooo           oooo++++@ooooo++   o+o   oOo       ",
"               oo             ooooo+++oooo+      ooo   o+o      ",
"               o                  ooo             oo   oOo      ",
"                                  oo               oo   oo      ",
"                                 oo                oo   oo      ",
"                                 o                  o    o      ",
"                                 o                  o    o      "
};
