/* XPM */
static char *cd8bdf6277c04a84b88603f8e50ce2f9[] = {
/* columns rows colors chars-per-pixel */
"64 64 2 1 ",
"  c None",
". c white",
/* pixels */
"                                                                ",
"                                                                ",
"                                                                ",
"                                                                ",
"                            .    .                              ",
"                  ..       ...  .                               ",
"                 ....      ... ..                               ",
"           .    .....       ....                                ",
"           ..   ....        ....                                ",
"           ...  ....        ....           .                    ",
"            ... ....         ....         .                     ",
"            .........        ....    .   ..                     ",
"             ........         ....    . ..                      ",
"              ........        .....   ....        ..            ",
"               .......         ..........        ....           ",
"                 ......    .    ........        ....            ",
"                  ......   .    .......        ....             ",
"                   ...... ..  .  .....     .   ...              ",
"                   ........    ........    .  ....              ",
"                    .......     .......    .. ....              ",
"                .    ......      .......    . ...               ",
"                ..   .......      ......    .....               ",
"                 ..   ......      .......    ....               ",
"                 ...  .......      ......    ....               ",
"                  ...........      ......   ....  ...           ",
"                   ...........    ........  .... ...            ",
"                    ...........   ........ ........             ",
"                      .......... .................              ",
"                        .........................               ",
"                         .......................                ",
"             .            ....................                  ",
"             ..       .    ..................                   ",
"              ..     .     ..................                   ",
"              ....  ..      ................                    ",
"               ......       ................                    ",
"                .......     ...............  .                  ",
"                 .........   ................                   ",
"                   ......... ...............                    ",
"                      .....................                     ",
"                        ..................                      ",
"                         .................                      ",
"                          ................                      ",
"                           ................                     ",
"                           ................                     ",
"                            ................                    ",
"                            ..................                  ",
"                             ..................                 ",
"                             ...................                ",
"                      ....   ...................   .            ",
"                    .......  .................... ...           ",
"                  ..........  ........................          ",
"                 ............ ........................          ",
"                .......  ..............................         ",
"               .....      ......................... ...         ",
"              ....         ........................  ...        ",
"             ...            ........................ ...        ",
"                            ................... ..... ...       ",
"                             .................    .......       ",
"                              ...............       .. ...      ",
"                               ............          .....      ",
"                                  ...                 . ..      ",
"                                 ...                    ..      ",
"                                ...                      .      ",
"                               ..                        .      "
};
