/* XPM */
static char *_e03b542dc3c4bd2b68be94da5222db7[] = {
/* columns rows colors chars-per-pixel */
"64 64 10 1 ",
"  c None",
". c black",
"X c #1C0D00",
"o c #2B1400",
"O c #3A1B03",
"+ c #572905",
"@ c #673001",
"# c #763701",
"$ c #944501",
"% c #B06D00",
/* pixels */
"                                                                ",
"                                                                ",
"                                                                ",
"                               +    @                           ",
"                                +  @$@       @@                 ",
"                                ++ @$@      @$$@                ",
"                                 +@$@       @##$@    +          ",
"                                 @$$@        @##@   @+          ",
"                     +           @$#@        @##@  @$@          ",
"                      +         @$#@         @##@ @$@           ",
"                      ++   +    @$#@        @$##@@$$@           ",
"                       ++ +    @$#@         @$#@#$$@            ",
"             @@        +$@@   @$$#@        @$$#@##@             ",
"            @$$@        @$$@@@$$#@         @$##+@@              ",
"             @$$@        @$$#@$#@    +    @$$##@                ",
"              @$$@        @#+@##@    +   @$$##@                 ",
"               @$@   +     @@##@  @  ++ @$$$#@                  ",
"               @$$@  +    @#####@@    +@$$$##@                  ",
"               @#$@ ++    @#####@     @$$$##@                   ",
"                @$@ +    @#####@      @$$##@    +               ",
"                @$$++    @####@      @$$###@   ++               ",
"                @#$@    @##$##@      @$###@   @+                ",
"                @#$@    @##$#@      @$$###@  @#@                ",
"            @@@  @$$@   @#$$#@      @$###@#@@#@                 ",
"             @#@ @#$@  @##$$##@    @$$##@####@                  ",
"              @#@#@#$@ @#$$$$#@   @$$###@##@@                   ",
"               @###@#$@@#$$$$##@ @$$$###+@@                     ",
"                @##@#$$@@#$$$#@@@$$$###@@                       ",
"                 @@+#$$$@@#$#@+@$$$###@@                        ",
"                   @@#$$@+@@@@@$$$###@@            +            ",
"                    @#$$$@+@@+@$$$###@    +       ++            ",
"                    @@#$$#@++@@$$###@@     +     @+             ",
"                     @@#$#+@@+@#$###@      ++  @@#@             ",
"                     @@##@@@$@+@####@       +@@$#@              ",
"                   +  @+@+@##$@+@#@@@     @@$$$#@               ",
"                    ++@@@@#####@+@+@   @@@$$##@@                ",
"                     +@#@#.####$@+@+ @@$$$#@@@                  ",
"                      @@##..#####@$+@$$$#@@                     ",
"                       @@#X..@####+@#$##@                       ",
"                       @@##.%+@###@####@                        ",
"                       @@#@X%.+@##@@##@                         ",
"                      @@#@@$X.$@##.+@+                          ",
"                      +@@@###X#+@..@+@                          ",
"                     +@@@$#####$..X#@                           ",
"                   ++@@@$#######%.##@                           ",
"                  ++@@$.#######.%X#@                            ",
"                 ++@@##..######.X##@                            ",
"                 +@@@##X%.+###.X###@                            ",
"             o  ++@@o###%.@+##X####@   oo                       ",
"            o+o +@@o+o##X.$@##@###@   oOOo                      ",
"           o+OOo+@o+Oo###X#@+#@###@  oOOOOo                     ",
"          o+OOOOoo+OOOo####$@+@###@ oOOOOOOo                    ",
"         o+OOooOo+OOoOo#####$@###@ oOOOoOOOOo                   ",
"         oOOo oo+OOooOOo#@###@@#@@oOOoo ooOOOo                  ",
"        o+Oo   oOOo+ooOo@@###@@@@oOOoo    ooOOo                 ",
"        oOo   o+Oo++ooOoo@##@@+@@oooo       oOOo                ",
"       o+O   ooOo  ++oooo@@@@@++oooo         oOo                ",
"       oOo   o+o    +ooooo@@+++oooo           ooo               ",
"      o+o   ooo       oooo+++ooooo             oo               ",
"      oOo   oo              ooo                 o               ",
"      oo   oo                oo                                 ",
"      oo   oo                 oo                                ",
"      o    o                   o                                ",
"      o    o                   o                                "
};
