/* XPM */
static char *_49aa325ee6b4049ab72e793f1c0d096[] = {
/* columns rows colors chars-per-pixel */
"64 64 2 1 ",
"  c None",
". c white",
/* pixels */
"                                                                ",
"                                                                ",
"                                                                ",
"                                                                ",
"                              .    .                            ",
"                               .  ...       ..                  ",
"                               .. ...      ....                 ",
"                                ....       .....    .           ",
"                                ....        ....   ..           ",
"                    .           ....        ....  ...           ",
"                     .         ....         .... ...            ",
"                     ..   .    ....        .........            ",
"                      .. .    ....         ........             ",
"            ..        ....   .....        ........              ",
"           ....        ..........         .......               ",
"            ....        ........    .    ......                 ",
"             ....        .......    .   ......                  ",
"              ...   .     .....  .  .. ......                   ",
"              ....  .    ........    ........                   ",
"              .... ..    .......     .......                    ",
"               ... .    .......      ......    .                ",
"               .....    ......      .......   ..                ",
"               ....    .......      ......   ..                 ",
"               ....    ......      .......  ...                 ",
"           ...  ....   ......      ...........                  ",
"            ... ....  ........    ...........                   ",
"             ........ ........   ...........                    ",
"              ................. ..........                      ",
"               .........................                        ",
"                .......................                         ",
"                  ....................            .             ",
"                   ..................    .       ..             ",
"                   ..................     .     ..              ",
"                    ................      ..  ....              ",
"                    ................       ......               ",
"                  .  ...............     .......                ",
"                   ................   .........                 ",
"                    ............... .........                   ",
"                     .....................                      ",
"                      ..................                        ",
"                      .................                         ",
"                      ................                          ",
"                     ................                           ",
"                     ................                           ",
"                    ................                            ",
"                  ..................                            ",
"                 ..................                             ",
"                ...................                             ",
"            .   ...................   ....                      ",
"           ... ....................  .......                    ",
"          ........................  ..........                  ",
"          ........................ ............                 ",
"         ..............................  .......                ",
"         ... .........................      .....               ",
"        ...  ........................         ....              ",
"        ... ........................            ...             ",
"       ... ..... ...................                            ",
"       .......    .................                             ",
"      ... ..       ...............                              ",
"      .....          ............                               ",
"      .. .                 ...                                  ",
"      ..                    ...                                 ",
"      .                      ...                                ",
"      .                        ..                               "
};
