/* XPM */
static char *_02cf45a6aea460d85daecaa23cb9df0[] = {
/* columns rows colors chars-per-pixel */
"64 64 10 1 ",
"  c None",
". c black",
"X c #0D0600",
"o c #1C0D00",
"O c #1C0D01",
"+ c #2B1401",
"@ c #2B1402",
"# c #3A1B01",
"$ c #492201",
"% c #B06D00",
/* pixels */
"                                                                ",
"                                                                ",
"                                                                ",
"                        +    O                                  ",
"              ++       +$+  O                                   ",
"             +$$+      +$+ OO                                   ",
"       O    +$##+       +$+O                                    ",
"       O+   +##+        +$$+                                    ",
"       +$+  +##+        +#$+           O                        ",
"        +$+ +##+         +#$+         O                         ",
"        +$$++##$+        +#$+    O   OO                         ",
"         +$$#+#$+         +#$+    O OO                          ",
"          +##+#$$+        +#$$+   ++$O        ++                ",
"           ++O##$+         +#$$+++$$+        +$$+               ",
"             +##$$+    O    +#$+#$$+        +$$+                ",
"              +##$$+   O    +##+O#+        +$$+                 ",
"               +#$$$+ OO  +  +##++     O   +$+                  ",
"               +##$$$+O    ++#####+    O  +$$+                  ",
"                +##$$$+     +#####+    OO +$#+                  ",
"            O    +##$$+      +#####+    O +$+                   ",
"            OO   +###$$+      +####+    OO$$+                   ",
"             O+   +###$+      +##$##+    +$#+                   ",
"             +#+  +###$$+      +#$##+    +$#+                   ",
"              +#++#+###$+      +#$$#+   +$$+  +++               ",
"               +####+##$$+    +##$$##+  +$#+ +#+                ",
"                ++##+###$$+   +#$$$$#+ +$#+#+#+                 ",
"                  ++O###$$$+ +##$$$$#++$#+###+                  ",
"                    ++###$$$+++#$$$#++$$#+##+                   ",
"                     ++###$$$+O+#$#++$$$#O++                    ",
"         O            ++###$$$+++++O+$$#++                      ",
"         OO       O    +###$$$+O++O+$$$#+                       ",
"          O+     O     ++###$$++OO+#$$#++                       ",
"          +#++  OO      +###$#+O++O#$#++                        ",
"           +#$++O       +####+O+$+++##++                        ",
"            +#$$$++     +++#+O+$##+O+O+  O                      ",
"             ++##$$+++   +O+O+#####++++OO                       ",
"               +++#$$$++ O+O+$####.#+#+O                        ",
"                  ++#$$$+O$+#####..##++                         ",
"                    +##$#+O####+..O#++                          ",
"                     +####+###+O%.##++                          ",
"                      +##++##+O.%O+#++                          ",
"                       O+O.##+$.O$++#++                         ",
"                       +O+..+O#O###+++O                         ",
"                        +#O..$#####$+++O                        ",
"                        +##.%#######$+++OO                      ",
"                         +#O%.#######.$++OO                     ",
"                         +##O.######..##++OO                    ",
"                      X  +###O.###O.%O##+++O                    ",
"                     X+X +####O##O+.%##X+++OO   XXX             ",
"                     XOOX +###+##+$.O#X+X+++OXXX+++X            ",
"                    X+OOOX+###+#O+#O##XO+X++OXXOOOO+X           ",
"                    XOOOOOX###+O+$###XOOOX++OXOOOXOO+X          ",
"                   X+OOXOXX+###+$####XOOO+XOOXXXX XOO+X         ",
"                   XOOX XXX++#++###+#XOXOOXOOXX    XOO+X        ",
"                   XOOX  XX+++++###++XOXOOXO        XOO+X       ",
"                   XOX    XO++O++##+OXXXXO+X         XOO+X      ",
"                  X+OX     XOOO+++++OXXXXOOX          XOOX      ",
"                  XOX        OOOO++OOOXXXOOX           XO+X     ",
"                  XOX        XXXOOOOOOO  XOX            XOX     ",
"                  XX         XX          XOX             XOX    ",
"                  XX         XX           XX              XX    ",
"                  X          X            XX              XX    ",
"                  X          X             X               X    ",
"                                           X               X    "
};
