/* XPM */
static char *_a6ba0ab5a7f46e38b2f98497f1244f7[] = {
/* columns rows colors chars-per-pixel */
"64 64 10 1 ",
"  c None",
". c black",
"X c #0D0600",
"o c #1C0D00",
"O c #1C0D01",
"+ c #2B1401",
"@ c #2B1402",
"# c #3A1B01",
"$ c #492201",
"% c #B06D00",
/* pixels */
"                                                                ",
"                                                                ",
"                                  O    +                        ",
"                                   O  +$+       ++              ",
"                                   OO +$+      +$$+             ",
"                                    O+$+       +##$+    O       ",
"                                    +$$+        +##+   +O       ",
"                        O           +$#+        +##+  +$+       ",
"                         O         +$#+         +##+ +$+        ",
"                         OO   O    +$#+        +$##++$$+        ",
"                          OO O    +$#+         +$#+#$$+         ",
"                ++        O$++   +$$#+        +$$#+##+          ",
"               +$$+        +$$+++$$#+         +$##O++           ",
"                +$$+        +$$#+$#+    O    +$$##+             ",
"                 +$$+        +#O+##+    O   +$$##+              ",
"                  +$+   O     ++##+  +  OO +$$$#+               ",
"                  +$$+  O    +#####++    O+$$$##+               ",
"                  +#$+ OO    +#####+     +$$$##+                ",
"                   +$+ O    +#####+      +$$##+    O            ",
"                   +$$OO    +####+      +$$###+   OO            ",
"                   +#$+    +##$##+      +$###+   +O             ",
"                   +#$+    +##$#+      +$$###+  +#+             ",
"               +++  +$$+   +#$$#+      +$###+#++#+              ",
"                +#+ +#$+  +##$$##+    +$$##+####+               ",
"                 +#+#+#$+ +#$$$$#+   +$$###+##++                ",
"                  +###+#$++#$$$$##+ +$$$###O++                  ",
"                   +##+#$$++#$$$#+++$$$###++                    ",
"                    ++O#$$$++#$#+O+$$$###++                     ",
"                      ++#$$+O+++++$$$###++            O         ",
"                       +#$$$+O++O+$$$###+    O       OO         ",
"                       ++#$$#+OO++$$###++     O     +O          ",
"                        ++#$#O++O+#$###+      OO  ++#+          ",
"                        ++##+++$+O+####+       O++$#+           ",
"                      O  +O+O+##$+O+#+++     ++$$$#+            ",
"                       OO++++#####+O+O+   +++$$##++             ",
"                        O+#+#.####$+O+O ++$$$#+++               ",
"                         ++##..#####+$O+$$$#++                  ",
"                          ++#O..+####O+#$##+                    ",
"                          ++##.%O+###+####+                     ",
"                          ++#+O%.O+##++##+                      ",
"                         ++#++$O.$+##.O+O                       ",
"                         O+++###O#O+..+O+                       ",
"                        O+++$#####$..O#+                        ",
"                      OO+++$#######%.##+                        ",
"                     OO++$.#######.%O#+                         ",
"                    OO++##..######.O##+                         ",
"                    O+++##O%.O###.O###+  X                      ",
"             XXX   OO+++X##%.+O##O####+ X+X                     ",
"            X+++XXXO+++X+X#O.$+##+###+ XOOX                     ",
"           X+OOOOXXO++X+OX##O#+O#+###+XOOO+X                    ",
"          X+OOXOOOXO++XOOOX###$+O+###XOOOOOX                    ",
"         X+OOX XXXXOOX+OOOX####$+###+XXOXOO+X                   ",
"        X+OOX    XXOOXOOXOX#+###++#++XXX XOOX                   ",
"       X+OOX        OXOOXOX++###+++++XX  XOOX                   ",
"      X+OOX         X+OXXXXO+##++O++OX    XOX                   ",
"      XOOX          XOOXXXXO+++++OOOX     XO+X                  ",
"     X+OX           XOOXXXOOO++OOOO        XOX                  ",
"     XOX            XOX  OOOOOOOXXX        XOX                  ",
"    XOX             XOX          XX         XX                  ",
"    XX              XX           XX         XX                  ",
"    XX              XX            X          X                  ",
"    X               X             X          X                  ",
"    X               X                                           ",
"                                                                "
};
