/* XPM */
static char *ba847b99f22147768f668ce0ec1413de[] = {
/* columns rows colors chars-per-pixel */
"64 64 5 1 ",
"  c None",
". c #444945",
"X c #3012B4",
"o c #580AFF",
"O c #9A2FFF",
/* pixels */
"................................................................",
"................................................................",
"................................ ...............................",
"...............................  ...............................",
"...............................   ..............................",
"............................... ................................",
"................................ ...............................",
"................................ ......................  .......",
"................................ .....................   .......",
"......................................................  ........",
"................................ .................... ..........",
"................................ ................... ...........",
"...........................oooooooooo...........................",
".............  .........ooooOooOooXXoooo.......... .............",
".............   ......ooXXXooooooOOoXoXXoo....... ..............",
"............... ......XXoooXXXoXoooOOXoooX......................",
"................ ....oooXXXXXXXXXXXoOoXXooo.... ................",
"................. ..oooXXXXXXXXXXXXXoOXXXXoo....................",
"...................oXoXXXXXXXXXXXXXXXOooXXXoo...................",
"..................XXoXXXXXXX.XXXXXXXXoooXXXXoo..................",
".................oooXXXXXXX.XX..XXXXXXoOoXXXXoo.................",
".................ooXXXXX..XXX.XX...XXXXooXXXXXo.................",
".................XXXXXXXXX.X....XX...XXoOXXXXXX.................",
"................oXXXXXXXXX...........XXXoXXXXXXo................",
"................oXXXXX.X.............XXXXoXXXXXo................",
"................XXXXXX................XXXoXXXXXo................",
"...............oXXXXXXO.XX..............XoXXXXXoo...............",
"...............oXXXXXO....................XXXXXXo...............",
"...............oXXXXOOX...................X.XXXXo...............",
"...............oXXXoOX.....................XXXXXo...............",
".....  ........XXooOXX.....................XXXXXo...............",
".... .   . . . oXoOXXX.....................XXXXoo..........  ...",
"...............oXoOXXX.....................XXXXXo.. . .    .  ..",
"...............ooOXXXX......................XXXoo...............",
"...............oXOXXXX.....................XXXXoO...............",
"...............ooXXXXX....................XXXXXoo...............",
"...............ooXXXXX.X...................XXXXoo...............",
"...............ooOXXXXX..............X...XXXXXXOo...............",
"...............ooXXXXX.X.............X..X.XXXXooo...............",
"................ooXXXX.X..X...........XX.XXXXXoo................",
"................oOXXXXX.............XXXXXXXXoOOo................",
"................oooXXXXX..X...XX.XXXXXXXXXXoOooo................",
".................ooOXXXXXXXXX..XoOOXXXoXooOooXX.................",
".................ooooXXXXXX.XX...XXooOOOOOooXoo.................",
".................oooXoXXXXXX.XXX..XXXoXoooXXXoo.................",
"..................oooXoXXXXXXXXXXXXXXXXXXXoXoo..................",
"...................oooooXXXXXXXXXXXXXXXXooXoo. .................",
"....................ooXXoooXXXXXXXXXXXoooXoo... ................",
".....................oooXXXoooXXXXXoooooooo....  ...............",
".............. .......XXooooXXooooooooXXXX......................",
"......................oXXXXoooXXXXXXXXXXoo......................",
"............ ...........oooXXooooXXXoooo........................",
"........... ...............ooXoXooooo...........................",
"................................................................",
"......... ......................................................",
"........ .......................................................",
"....... ........................................................",
"...... .........................................................",
"...   ..........................................................",
"...   ..........................................................",
"...  ...........................................................",
".. .............................................................",
"................................................................",
"................................................................"
};
