/* XPM */
static char *_d53bf0aeeda49368a8fb0c633f76556[] = {
/* columns rows colors chars-per-pixel */
"64 64 6 1 ",
"  c None",
". c #444945",
"X c #3012B4",
"o c #4A0DE5",
"O c #580AFF",
"+ c #9A2FFF",
/* pixels */
"................................O...............................",
"................................O...............................",
"...............................OO...............................",
".................................O..............................",
"................................O.........................OO....",
"........................................................OOO.....",
"................................O......................OO O.....",
"................................O......................O.O......",
".......................................................O........",
".........OO...........................................O.........",
".........OO..........................................O..........",
"...........O............................OO..........O...........",
"............O.............XXXOXOOOOXXX..OO......................",
".............O..........XOXOXXOOOO+OOOXoO.........O.............",
"......................XXXXOXOOOOOOO+OOOOOX......................",
"...............O.....XXOOOOOXXXXXXXOOOOXOOX.....................",
"................O....XXOXXXXXXXXXXXXXO+OOOO.....................",
"....................OOOXXXXXXXXXXXXXXOO+XXOO....................",
"...................XOOXXXXXXXXXXXXXXXXX++OXXO...................",
"..................OXXXXXXXXXXXX..XXXXXXO+OXOOX..................",
".................XOXXXXXXXX..X.XXXXXXXXX++XOOXO.................",
".................XXXXXXXXXXX..X..X.XXXXXO+OXXOO.................",
".................OXXXXXXXXXX.X....X..XXXXOOXXXO.................",
"................XXXXXXXXX..........XX.XXXO+XXXXO................",
"................XXXXXX+.+X..........X.XXXXOXXXXO................",
"................XXXXX+++..X............XXXOXXXXO................",
"...............XOXXOX+XXX..............XXXXXXXXXO...............",
"...............XOXO+OXXX...............X.XXXXXXXO...............",
"...............XOOO+XXX.................XXX.XXXXO...............",
"...............XOO+XXXX...................XXXXXXX...............",
"...OOO.........OOO+XXX....................X.XXXXX...............",
"..O...OO.OO....OOXXXX......................XXXXXX...............",
"........O......OOXXXXX.....................X.XXXO........OO..OO.",
"...............OO+XXXX......................XXXXX.....O....OO...",
"...............OOXXXXX.X....................XXXXX...............",
"...............OOXXXX.X....................XXXXXX...............",
"...............OOXXXX.X...................XXXXXXO...............",
"...............XOOXXX.X.....................XXXOO...............",
"...............XO+XXXX.................X..XXXXXXO...............",
"................OOXXXX..X................X.XXXXO................",
"................OOOXXXXXX..X............XX.XXXX+................",
"................XOXOXXXXXXX.X........X...XXXXXXO................",
".................OOXOXXXX.X..O.XXXX...XXXXXXXXO.................",
".................OOXOXXXXX.X..O+++XXXXXXXXXXO+O.................",
".................XOOXXXXXXXXX..XXXOXXOXXXXXXO+O.................",
"..................OXOOOOXXXXXX.XXXX+++XOXXO++O..................",
"...................XXXXXOXXXXXXXXXXOX++++OOOO...................",
"....................XOOOOOXXXXXXXXXXXOOXOOXX...O................",
".....................XXXOXOXXXXXXXXXXXXOXXX.....................",
".....................OOXOOOOOXXOOOXOOXOXOXO......O..............",
"......................XXXOXXXOOOOOOOOOXOOO........O.............",
"........................OOOOOXXXXXOXXOOO...........OO...........",
"...........O..............XOOXXOOOXXXX.............OO...........",
"..........O...................OOO...............................",
"...............................O................................",
"........O.......................................................",
"................................................................",
"......O.........................................................",
".....O..........................................................",
"................................................................",
"..OO............................................................",
"..O.............................................................",
".O..............................................................",
"O..............................................................."
};
