/* XPM */
static char *b40630d2f66441cea7280530914493a1[] = {
/* columns rows colors chars-per-pixel */
"64 64 5 1 ",
"  c None",
". c #444945",
"X c #3012B4",
"o c #580AFF",
"O c #9A2FFF",
/* pixels */
".................................o..............................",
"................................o............................oo.",
"............................................................oOo.",
"............................................................O...",
"....oo..........................o..........................o....",
"....oOo.........................................................",
"......O..................................................o......",
".......o..................................oo............o.......",
"..........................................oo...........o........",
".........o...........oo...................o.....................",
"..........o..........oo..................o...........o..........",
"......................oo.................o......................",
"......................oo...XXXXXXXXXX...........................",
".............o.........oXXXXXoXooXooXXXXo.......................",
"......................XXXXXooXooooXooooXXX......................",
"......................XXoXXXXoXoXXooXOoooX......................",
".....................XXXXXXXXXXXXXXXXooOooX.....................",
"....................ooXXXoXXXXXXXXXoXXooOooX....................",
"...................ooXXXXX XX  XXXX  XoXoOXoo...................",
"..................XoXXXXXX X      XX X  oOoXoo..................",
".................XooXX  X    . .   . XXXoooooXo.................",
".................ooXX      .    . .       OXXoo.................",
".................XoXX    O.... .  . .  XX OooXX.................",
".............oo.XXX X  oOOOO  ......   XXXoOXXoo.o..............",
"..............ooXX XXoOOooooO .... . .   XOooXXXooo.............",
"................XoXXoOoo X..oO.......     oOoooX................",
"...............XooooOo   ..... ... ..  .  ooXoXoX...............",
"...............XoooOoX   .......... ..  . oOXo XX...............",
"...............oXooOX .. ................ XOo XXo...............",
"...............XooOXX .... .............. Xooo Xo...............",
"...............ooo XX ............ .... .. oO  XX...............",
"o.o..o..o......oo XXX  .................. XoOX Xo...............",
"...oo..........XXXXX  . ..................XO.  XX.......o..oO.O.",
"...............XooXX ..... ...............Oo   XX............o.O",
"...............ooOXXX  ............... ...oo.  XX...............",
"...............ooXXX   .. ................     XX...............",
"...............XooXX  .. .............. ..     Xo...............",
"...............XXXXXX . ...............  . ..  XX...............",
"...............XoXoXX   ...................    Xo...............",
".............ooooXXoX .. ........... .. ..    XXooo.............",
"............ooo.XooXXX  . . .  ... .. ..      Xo.ooo............",
".............o..XXXoXX    .O.. ......  . ..   Xo..o.............",
".................XooXo   . oO. ...... .      XX.................",
".................XoXXX X   .oOO  .. ..  . XXXXX.................",
".................XoooXXX  ...ooO  .. ..   XXXoo.................",
"..................XXXooXX   .oXoXX        XoXo..................",
"...................oXXXoXX    oXOoo    XXXXXo...................",
"....................XooXXXXX   ooOOXoXXXXoOo....................",
".....................XoXXoo XX XooOOOXXooXO.....................",
"......................ooXoXXXX  XoooXOoXOO......................",
"......................XoooXoXoXXoXXXooXooo......................",
"........................ooXXoXoooXooXXoo...........o............",
"...........................oooooooXoo...........................",
"...............................o.....................o..........",
"................................................................",
"...............................o.......................oo.......",
".......o.......................o........................oo......",
"..............................oO........................o.......",
"..............................oOo...............................",
"....o..........................o................................",
"...o............................................................",
"................................................................",
".o..............................................................",
"o..............................................................."
};
