/* XPM */
static char *_8e202fc68ed4619b37cf1795483c2e8[] = {
/* columns rows colors chars-per-pixel */
"64 64 16 1 ",
"  c None",
". c #444945",
"X c #3012B4",
"o c #3C10CB",
"O c #511BCB",
"+ c #460EDE",
"@ c #6B22DE",
"# c #4C0CE8",
"$ c #500CF0",
"% c #550BF9",
"& c #580AFF",
"* c #6C15FF",
"= c #7926E8",
"- c #8529F0",
"; c #8624FF",
": c #9A2FFF",
/* pixels */
"&................&&...........................&................&",
".................&:..........................&..................",
"..................&:............................................",
"...................&............................................",
"...................&............................................",
"....................&......................&....................",
"................................................................",
".....................&..........................................",
"................................................................",
"................................................................",
"......................&.........................................",
"................................................................",
"...........................X#X#######...........................",
"........................##X&&XoXoXX#X##X........................",
"......................###&&&XXXXXXXooX###X......................",
"......................#Xo&#XXXXX+X+XXoX&X#......................",
".....................#Xo=&###X#XXXXXXo+oXXX.....................",
"....................##;====##$$#XXXXXX+XoX#X....................",
"....&..............X#&&X$-X$X$$$X XXXXX+Xoo#X...............&...",
"...&&&............&##&&X ooXoXX#X$XXXXXXX+o#;X............&&&...",
"....&&&..........##&&&@oOOo@+XXXXX# .XXXXXo&&&X..........&&&....",
"........&........=&&&oO+X+++&@@@ X.  XXXX+Xo*&#........&........",
".........&.......#&&&oOXXX&XX&&+...  . XXXXXo&#.....&...........",
".............&..##OoXXXXXX   .XX:  ...X XXooo*&X................",
"................#ooXXXXXX  . .X.&: .. X XXXoX&;#................",
"................XoooXXXXX .... .&&:..... XXXX*;&................",
"...............##oXOXXXX  .......:.. ...  XXXO;&X...............",
"...............#&oXXXXX. .... ...:.... . XXoo&*&#...............",
"...............o#XXXXX ... ......:......  XXX*&&#...............",
"...............X&XoXXX .............. ..  XXX*&&#...............",
"...............XoXoXX   ... .........  ..XXX#-*&#...............",
"...............#oXoXXX ..  ........... XXXX$#-o##...............",
"...............oXoXXXX. ............ ..  XX=;;###...............",
"...............XXoXXXX ............. ...  X-&*&&#...............",
"...............XooXXXX  ...............   :&&O&X#...............",
"...............&oXXXX  ...:............ XX$ooX&o#...............",
"...............#XXXXX   .:...........   X&$+Oo#o#...............",
"...............#XX+XX X .: .........: ::&&X@o#$##...............",
"...............#XoX+X=X .:. ........:$:XXX@oo&X#X...............",
"................oX+XX=XX&:   .......  .X XX&&#X#................",
".............&..X++XX=XX&.X.... .....:::@@X&#$XX...&............",
"..........&.....XoXXX#XX.::X... . ...X.  +X$#X#X.....&&.........",
"......&&&........oXX&#XX+&+X .....   X XXX&XXX#........&&&......",
"....&&:..........oXX##XXXX@X X.. .X..   XX$XXX#..........::&....",
"....&:&..........&oXX#XX+X@XX .. XX   XXXXXX##X...........&:....",
"..................%XX#-XX+OXX  XX   XXXX&$###X..................",
"................&&.&+&;XXXo++XXX  XXX$$$$X#XX...................",
"...............&&&..#&#X=XoooXXXXXX $$&X#XXX....................",
"...............&&....&&#;++OoXXXX$XX$$$#X#X.....................",
"......................&&#+;oOoXX$$X#XXX###......................",
"......................#&&&=#;oX#XXX##X&X#X......................",
".......................&###&#&O*Xo&*X##X&&......................",
"......................&....######X#XX...&&&.....................",
"........................................&&......................",
".....................&..........................................",
".....................&..........................................",
"....................&&..........................................",
"....................&...........................................",
"..........................................................&.....",
"...............................&................................",
"............................................................&...",
".............................................................&..",
"...............................&..............................&.",
"...............................&...............................&"
};
