/* XPM */
static char *f48e8b86a82e486aa4e8101bc9557701[] = {
/* columns rows colors chars-per-pixel */
"64 64 17 1 ",
"  c None",
". c #444945",
"X c #3012B4",
"o c #3711C2",
"O c #4317C2",
"+ c #430ED8",
"@ c #6320D8",
"# c #4E0CEC",
"$ c #510BF1",
"% c #540BF7",
"& c #560AFA",
"* c #580AFF",
"= c #6411FF",
"- c #872AF1",
"; c #8F2CF7",
": c #8E28FF",
"> c #9A2FFF",
/* pixels */
".................*..............................................",
"..................*.............................................",
"................................................................",
"................................................................",
"...................*............................................",
"................................................................",
"................................................................",
"................................................................",
"................................................................",
"................................................................",
"................................................................",
"................................................................",
"...........................$$$X$$X$$X...........................",
"........................X$$$XX*$**$X$$$X........................",
"......................XX$$oXoo$oX$XoX$$$$X......................",
"......................$$$$::$:XXXXXXXXXX$X......................",
".....................$:$$:*$;;-$$XXXXXXoXXX...**................",
"*...................$$**o$+X%X%$-%$XXXXXoX$$.***...............*",
".**................$$$*oO@+@oOO%;%%XXXXXXX$$X**..............**.",
"..................$$$$*O+ooO@o+oX%;$XXXXXoXo$#.............*....",
".....*...........$X*oXXXo++X++@+OXXX%XXXXXXX$$X.................",
"........*........X$*oOXXXXXX*X**@@X XXXXXX+XX*X........*........",
".................$$oooXXXXX  XXX*@@+XXX XXXXX$$.................",
"................$$oOoXXXXXXX .  X*>*.   XXXXoX*X................",
"................XXoXXXXXXX  ... XX*>*   XXXXXo$X................",
"................$ooXXXXX . ........>*.. . X+XXo*................",
"...............$$oXX+X X..........**>..   XXXXo$X...............",
"...............X*oXo*X X... ... ...*>..   XXXoX$$...............",
"...............X$XoXXX  ...........>* ... XXXoo*X...............",
"...............XXooXXX  .... .....*>...... XXo$:*...............",
"...............&oX+XXX.. . ......>>*.... . XXXX*$...............",
"..............*$oXXXXX X........>*....... XXoX;**.*.............",
"...............XXXXXX;  ...>>>........ ..XXXXo:o**.*............",
"...............XXX+X ; ..****.........X.. XXX$:X*.*.............",
"...............oX+XX;;  *>>......... ...XXXXX;=**...............",
"...............Xo+X+-X. *>*.....>... ... XX%$$%$*...............",
"...............XX+X--X .>> .....>.....    %-:XO$X...............",
"...............XXXX$-XX*>*......*>....   *;;*o$$X...............",
"...............$oXX$XX**>*. .....>*..  XX>**o=*$X...............",
"................*+$-XXX>>* ......*>..>X*>Xoo=***................",
"................$X$--X+>*> ... ..**>*>X*XXoO$*$$................",
"................XX$$XX+@@XX.. ... ++=ooXXoO**$$X......*.........",
"........*........+$--XX@@+ .. .....**>@@+@o*$XX.................",
".....**..........$o$oX+O@   .. .  .+X++ @X*$oX$..........**.....",
".................$o$XXXO++X...X.    X+ ++$*$XX$............*..*.",
"***...............***-ooO++X  XXX.   XoXX*XX$$..............****",
"**.................$*$+oOooXX    XX XXX%%X$*$................***",
"................*...**:ooOoXXXXXXXXX%** XX$$....................",
".....................*-$oOoXoXXXX%X%%*XX$X$.....................",
"..............*.......$*$**X%X*X%%%$Xo$$$*......................",
"............**........$$*$oOo$X$X$$$$$$oXX......................",
"...........**...........$$$**=***oXooX*X*.......................",
"..........***..............$$X*Ooo=o$....*......................",
"...........*....................................................",
"..........................................*.....................",
".....................*....................**....................",
"..........................................***...................",
"..........................................***...................",
"...........................................*....................",
"...................*............................................",
"...................*............................................",
"................................................................",
"..................*.............................................",
".................**............*...............................*"
};
