/* XPM */
static char *f38feea343004453b7300563a5b77010[] = {
/* columns rows colors chars-per-pixel */
"32 32 104 2 ",
"   c #180E0E",
".  c #231919",
"X  c #312828",
"o  c #452A0A",
"O  c #4D300A",
"+  c #593709",
"@  c #51390A",
"#  c #5D3909",
"$  c #663F09",
"%  c #403737",
"&  c #524A0A",
"*  c #594C0A",
"=  c #5E571F",
"-  c #6D4307",
";  c #6B4209",
":  c #714607",
">  c #6B6509",
",  c #797408",
"<  c #5B442A",
"1  c #665F2A",
"2  c #634E36",
"3  c #6E5331",
"4  c #695135",
"5  c #6D6636",
"6  c #746E35",
"7  c #7B7631",
"8  c #4E4646",
"9  c #5A5353",
"0  c #655E5E",
"q  c #706969",
"w  c #8D5D14",
"e  c #925F10",
"r  c #8B6607",
"t  c #9F6303",
"y  c #A26403",
"u  c #AC6B02",
"i  c #AD6C02",
"p  c #AB7D03",
"a  c #B67102",
"s  c #B87202",
"d  c #827D2C",
"f  c #C17801",
"g  c #CD7F02",
"h  c #908207",
"j  c #BFAE03",
"k  c #B9B60B",
"l  c #AAA614",
"z  c #B1AE10",
"x  c #CF8100",
"c  c #D08100",
"v  c #D58500",
"b  c #D88600",
"n  c #D78A02",
"m  c #DF8B01",
"M  c #D59101",
"N  c #D89D00",
"B  c #DF9C00",
"V  c #E28D00",
"C  c #E79000",
"Z  c #E99100",
"A  c #E29D00",
"S  c #F09500",
"D  c #F59900",
"F  c #F59E00",
"G  c #FB9D00",
"H  c #CCAD02",
"J  c #DABF02",
"K  c #F4A900",
"L  c #FBAD00",
"P  c #FFAF00",
"I  c #E2B500",
"U  c #F5B901",
"Y  c #C5C303",
"T  c #D7D602",
"R  c #E1CC02",
"E  c #F4CA00",
"W  c #F1D400",
"Q  c #F0D900",
"!  c #FADA00",
"~  c #FFDC00",
"^  c #E6E502",
"/  c #F4E200",
"(  c #F5E600",
")  c #FBF500",
"_  c #949075",
"`  c #8F8A8A",
"'  c #978C80",
"]  c #9C9780",
"[  c #9F958C",
"{  c #9E9999",
"}  c #A39F8C",
"|  c #ABA7A7",
" . c #ACA8A8",
".. c #B6B3B3",
"X. c #BAB7B7",
"o. c #C1BEBE",
"O. c #C8C5C5",
"+. c #CBC9C9",
"@. c #CFCDCD",
"#. c #E3E2E2",
"$. c #E7E5E5",
"%. c #EAE9E9",
"&. c #FBFBFB",
"*. c white",
/* pixels */
"*.*.*.*.*.*.*.*.*.*.*.*. .%     8 X.*.*.*.*.*.*.*.*.*.*.*.*.*.*.",
"*.*.*.*.*.*.*.*.*.*.$.+.] 1 & & 5 } @.%.*.*.*.*.*.*.*.*.*.*.*.*.",
"*.*.*.*.*.*.*.*.*.*...0 7 z Y Y l 6 q o.*.*.*.*.*.*.*.*.*.*.*.*.",
"*.*.*.*.*.*.*.*.*.*.{ X > T ) ( j * %  .*.*.*.*.*.*.*.*.*.*.*.*.",
"*.*.*.*.*.*.*.*.*.*.{ X > T / I p @ %  .*.*.*.*.*.*.*.*.*.*.*.*.",
"*.*.*.*.*.*.*.*.*.*.{ X > T Q N y O %  .*.*.*.*.*.*.*.*.*.*.*.*.",
"*.*.*.*.*.*.*.*.*.*.{ X > T Q N y O %  .*.*.*.*.*.*.*.*.*.*.*.*.",
"*.*.*.*.*.*.*.*.#.O._ = h R E A a : < ' +.$.*.*.*.*.*.*.*.*.*.*.",
"*.*.*.*.*.*.*.*.| 9 d k J U L F m s e 3 0 ..*.*.*.*.*.*.*.*.*.*.",
"*.*.*.*.*.*.*.&.` . , ^ ~ P G D Z v i + X { *.*.*.*.*.*.*.*.*.*.",
"*.*.*.*.*.*.*.&.` . , ^ ~ P D V v c i + X { *.*.*.*.*.*.*.*.*.*.",
"*.*.*.*.*.*.*.&.` . , ^ ~ P S b g g i + X { *.*.*.*.*.*.*.*.*.*.",
"*.*.*.*.*.*.*.&.` . , ^ ~ P S b g g i + X { *.*.*.*.*.*.*.*.*.*.",
"*.*.*.*.*.*.*.&.` . , ^ ~ P S b g g i + X { *.*.*.*.*.*.*.*.*.*.",
"*.*.*.*.*.*.*.&.` . , ^ ~ P S b g g i + X { *.*.*.*.*.*.*.*.*.*.",
"*.*.*.*.*.*.*.&.` . , ^ ~ P S b g g i + X { *.*.*.*.*.*.*.*.*.*.",
"*.*.*.*.*.*.*.&.` . , ^ ~ P S b g g i + X { *.*.*.*.*.*.*.*.*.*.",
"*.*.*.*.*.*.*.&.` . , ^ ~ P S b g g i + X { *.*.*.*.*.*.*.*.*.*.",
"*.*.*.*.*.*.*.&.` . , ^ ~ P S b g g i + X { *.*.*.*.*.*.*.*.*.*.",
"*.*.*.*.*.*.*.&.` . , ^ ~ P S b g g i + X { *.*.*.*.*.*.*.*.*.*.",
"*.*.*.*.*.*.*.&.` . , ^ ~ P S b g g i + X { *.*.*.*.*.*.*.*.*.*.",
"*.*.*.*.*.*.*.&.` . , ^ ! K C v g g i + X { *.*.*.*.*.*.*.*.*.*.",
"*.*.*.*.*.*.*.&.` . , ^ W B v x g g i + X { *.*.*.*.*.*.*.*.*.*.",
"*.*.*.*.*.*.*.*.| 9 d k H M v x f u e 3 0 ..*.*.*.*.*.*.*.*.*.*.",
"*.*.*.*.*.*.*.*.#.O._ = r n C v u - < ' +.$.*.*.*.*.*.*.*.*.*.*.",
"*.*.*.*.*.*.*.*.*.*.{ X ; v S b y O %  .*.*.*.*.*.*.*.*.*.*.*.*.",
"*.*.*.*.*.*.*.*.*.*.{ X ; v S b y O %  .*.*.*.*.*.*.*.*.*.*.*.*.",
"*.*.*.*.*.*.*.*.*.*.{ X $ g C v y O %  .*.*.*.*.*.*.*.*.*.*.*.*.",
"*.*.*.*.*.*.*.*.*.*.{ X # s v x y O %  .*.*.*.*.*.*.*.*.*.*.*.*.",
"*.*.*.*.*.*.*.*.*.*...0 3 e t t w 4 q o.*.*.*.*.*.*.*.*.*.*.*.*.",
"*.*.*.*.*.*.*.*.*.*.$.+.' < o o 2 [ @.%.*.*.*.*.*.*.*.*.*.*.*.*.",
"*.*.*.*.*.*.*.*.*.*.*.*. .%     8 X.*.*.*.*.*.*.*.*.*.*.*.*.*.*."
};
