/* XPM */
static char * Icon2_xpm[] = {
"32 32 199 2",
"  	c #72751B",
". 	c #9E9999",
"+ 	c #312828",
"@ 	c #180E0E",
"# 	c #403737",
"$ 	c #ACA8A8",
"% 	c #E3E2E2",
"& 	c #C8C5C5",
"* 	c #949090",
"= 	c #5E5757",
"- 	c #524A4A",
"; 	c #524A37",
"> 	c #524A19",
", 	c #655E5E",
"' 	c #9C9797",
") 	c #CBC9C9",
"! 	c #E7E5E5",
"~ 	c #ABA7A7",
"{ 	c #5A5353",
"] 	c #827D7D",
"^ 	c #B9B6B6",
"/ 	c #C5C3C3",
"( 	c #C5C38A",
"_ 	c #C5C330",
": 	c #B1AEAE",
"< 	c #7B7676",
"[ 	c #B6B3B3",
"} 	c #DFDEDE",
"| 	c #C3C1C1",
"1 	c #8D8888",
"2 	c #575050",
"3 	c #9B9696",
"4 	c #ECEBEB",
"5 	c #FFF6E8",
"6 	c #FFEBCA",
"7 	c #FFEE99",
"8 	c #FFF95E",
"9 	c #DFC6A0",
"0 	c #886E4B",
"a 	c #533B1F",
"b 	c #8F8275",
"c 	c #A09C9C",
"d 	c #544D4C",
"e 	c #8A8585",
"f 	c #C0BDBD",
"g 	c #FAFAFA",
"h 	c #FFE5BA",
"i 	c #FFC361",
"j 	c #FFCC66",
"k 	c #FFEEA1",
"l 	c #EEA835",
"m 	c #C18119",
"n 	c #97600B",
"o 	c #72552C",
"p 	c #DAD9D4",
"q 	c #817B7B",
"r 	c #1C1212",
"s 	c #888383",
"t 	c #F7F6F6",
"u 	c #FFF5E4",
"v 	c #FFEAC6",
"w 	c #FFD691",
"x 	c #FFBF56",
"y 	c #FFC566",
"z 	c #FFDCA1",
"A 	c #FFB439",
"B 	c #F49800",
"C 	c #DF8B00",
"D 	c #B87302",
"E 	c #643E08",
"F 	c #231919",
"G 	c #FFE1AE",
"H 	c #FFC86E",
"I 	c #FFDFA9",
"J 	c #FFD999",
"K 	c #FFC25E",
"L 	c #FFB131",
"M 	c #FFA613",
"N 	c #DCDADA",
"O 	c #BCB9B9",
"P 	c #868181",
"Q 	c #A69683",
"R 	c #F7E0BA",
"S 	c #FFD389",
"T 	c #FFBC4E",
"U 	c #FFD16E",
"V 	c #FFF3A9",
"W 	c #FFEA86",
"X 	c #FFC82D",
"Y 	c #FFB100",
"Z 	c #FFA700",
"` 	c #F99B00",
" .	c #E69000",
"..	c #C97D01",
"+.	c #835106",
"@.	c #4B3113",
"#.	c #877969",
"$.	c #5B5454",
"%.	c #918C8C",
"&.	c #E1BD83",
"*.	c #FCB846",
"=.	c #FFCB76",
"-.	c #FFE2B1",
";.	c #FFF091",
">.	c #FFFB56",
",.	c #FFF82D",
"'.	c #FFED0F",
").	c #FFD600",
"!.	c #FFB400",
"~.	c #FF9F00",
"{.	c #E99100",
"].	c #C37A01",
"^.	c #9B6207",
"/.	c #775628",
"(.	c #726C6C",
"_.	c #2A211C",
":.	c #96926F",
"<.	c #FFFDBC",
"[.	c #FFDC81",
"}.	c #FFF07B",
"|.	c #FFFB21",
"1.	c #FBF500",
"2.	c #F5E600",
"3.	c #F5D000",
"4.	c #FBB200",
"5.	c #E18C00",
"6.	c #6F4507",
"7.	c #1B100E",
"8.	c #2A2112",
"9.	c #969229",
"0.	c #FFFF42",
"a.	c #FFF37E",
"b.	c #FFE8B9",
"c.	c #FFD129",
"d.	c #FFF30B",
"e.	c #F4E200",
"f.	c #E2B500",
"g.	c #E29F00",
"h.	c #F49F00",
"i.	c #FFBC15",
"j.	c #FFD100",
"k.	c #FFF300",
"l.	c #F0D900",
"m.	c #D89D00",
"n.	c #D98700",
"o.	c #F29700",
"p.	c #FFCB25",
"q.	c #FFE207",
"r.	c #FFFB00",
"s.	c #FFD063",
"t.	c #FFA309",
"u.	c #FFBD00",
"v.	c #FFDF00",
"w.	c #FFFD3F",
"x.	c #FFD021",
"y.	c #FFA303",
"z.	c #FFA900",
"A.	c #2A210D",
"B.	c #969206",
"C.	c #FFFD00",
"D.	c #FFC100",
"E.	c #FFEE00",
"F.	c #FAB600",
"G.	c #F4D400",
"H.	c #E7C200",
"I.	c #D59500",
"J.	c #F19F00",
"K.	c #DF9F00",
"L.	c #CF8600",
"M.	c #FA9C00",
"N.	c #5B5445",
"O.	c #918C24",
"P.	c #C6C203",
"Q.	c #E1BD02",
"R.	c #FCB800",
"S.	c #FFAD00",
"T.	c #BCB9B4",
"U.	c #86815E",
"V.	c #544D0A",
"W.	c #A69605",
"X.	c #FFC900",
"Y.	c #544C49",
"Z.	c #8A8528",
"`.	c #C0BD07",
" +	c #D8B002",
".+	c #ED9C00",
"++	c #E48E01",
"@+	c #BD7502",
"#+	c #8D8869",
"$+	c #575013",
"%+	c #8B6406",
"&+	c #CA8001",
"*+	c #7A4C07",
"=+	c #9F6303",
"-+	c #925F10",
";+	c #6E5331",
">+	c #452A0A",
",+	c #5B442A",
"'+	c #978C80",
"                    . + @ @ @ @ @ @ # $                         ",
"                % & * = - - ; > > ; , ' ) !                     ",
"                ~ { ] ^ / / ( _ _ ( : < , [                     ",
"            } | 1 2 3 4 5 6 7 8 8 7 9 0 a b & %                 ",
"            c d e f } g h i j k k j l m n o { ~                 ",
"          p q r s t u v w x y z w A B C D E F 1                 ",
"          p q r s t G x H I J K L M B C D E F 1                 ",
"        N O P d Q R S T U V W X Y Z `  ...+.@.#.| }             ",
"        * $.%./ &.*.=.-.;.>.,.'.).!.~.B {.].^./.- c             ",
"        (._.:.<.[.*.=.-.}.|.1.2.3.4.~.~.` 5.].6.7.q             ",
"        (.8.9.0.a.b.S T c.d.e.f.g.h.~.~.` 5.].6.7.q             ",
"        (.8.9.0.a.b.U i.j.k.l.m.n.o.~.~.` 5.].6.7.q             ",
"        (._.:.<.[.*.p.q.k.r.l.m.n.o.~.~.` 5.].6.7.q             ",
"        (._.:.<.s.t.u.v.k.r.l.m.n.o.~.~.` 5.].6.7.q             ",
"        (.8.9.w.x.y.z.!.j.k.l.m.n.o.~.~.` 5.].6.7.q             ",
"        (.A.B.C.j.y.~.~.D.E.l.m.n.o.~.~.` 5.].6.7.q             ",
"        (.A.B.C.j.y.~.~.D.E.l.m.n.o.~.~.` 5.].6.7.q             ",
"        (.A.B.C.j.y.~.~.D.E.l.m.n.o.~.~.` 5.].6.7.q             ",
"        (.A.B.C.j.y.~.~.D.E.l.m.n.o.~.~.` 5.].6.7.q             ",
"        (.A.B.C.j.y.~.~.D.E.l.m.n.o.~.~.` 5.].6.7.q             ",
"        (.A.B.C.j.y.~.~.D.E.l.m.n.o.~.~.` 5.].6.7.q             ",
"        (.A.B.C.j.y.~.~.F.G.H.I.n.o.~.~.` 5.].6.7.q             ",
"        (.A.B.C.j.y.~.~.J.K.I.L.n.o.~.~.` 5.].6.7.q             ",
"        (.A.B.C.j.y.~.~.o.C n.n.5.B ~.~.` 5.].6.7.q             ",
"        (.A.B.C.j.y.~.~.M.B o.o.B M.~.~.` 5.].6.7.q             ",
"        * N.O.P.Q.R.S.y.~.~.~.~.~.~.~.B {.].^./.- c             ",
"        N T.U.V.W.e.X.Z ~.~.~.~.~.~.`  ...+.@.#.| }             ",
"            c Y.Z.`. +.+o.o.o.o.o.o.++@+n o { ~                 ",
"            } | #+$+%+&+n.n.n.n.n.n.@+*+a b & %                 ",
"                ~ { o n =+=+=+=+=+=+-+;+, [                     ",
"                % & b a >+>+>+>+>+>+,+'+) !                     ",
"                    . + @ @ @ @ @ @ # $                         "};
