/* XPM */
static char *_cbfe045e12f4c0a9ba98733637c659e[] = {
/* columns rows colors chars-per-pixel */
"32 32 211 2 ",
"   c #180E0E",
".  c #1B100F",
"X  c #1C120E",
"o  c #1B1111",
"O  c #1C1212",
"+  c #231919",
"@  c #2A210D",
"#  c #312828",
"$  c #4B3113",
"%  c #483219",
"&  c #533B1F",
"*  c #643E08",
"=  c #403737",
"-  c #524A0A",
";  c #544D0A",
":  c #575013",
">  c #5E571F",
",  c #6F4507",
"<  c #4E4137",
"1  c #665F2A",
"2  c #755426",
"3  c #775628",
"4  c #72552C",
"5  c #7B7631",
"6  c #524A4A",
"7  c #544C49",
"8  c #544C4C",
"9  c #5B5445",
"0  c #575050",
"q  c #5A5353",
"w  c #5E5757",
"e  c #665F5F",
"r  c #726C6C",
"t  c #7B7676",
"y  c #835106",
"u  c #886E07",
"i  c #9B6207",
"p  c #97600B",
"a  c #B87302",
"s  c #827D2C",
"d  c #A87930",
"f  c #C37A01",
"g  c #C97D01",
"h  c #827364",
"j  c #877969",
"k  c #817B7B",
"l  c #827D7D",
"z  c #888307",
"x  c #9B8C06",
"c  c #969206",
"v  c #A69605",
"b  c #B9B60B",
"n  c #B1AE10",
"m  c #8A8528",
"M  c #918C24",
"N  c #C18102",
"B  c #CF8600",
"V  c #D88600",
"C  c #DF8B00",
"Z  c #D88C0F",
"A  c #D59500",
"S  c #D89D00",
"D  c #DF9F00",
"F  c #D98E13",
"G  c #E18C00",
"H  c #E69000",
"J  c #E99100",
"K  c #E29F00",
"L  c #F19600",
"P  c #F49800",
"I  c #F19F00",
"U  c #F49F00",
"Y  c #F99B00",
"T  c #FA9C00",
"R  c #FF9F00",
"E  c #FB9F07",
"W  c #C0BD07",
"Q  c #DEBE02",
"!  c #DEBE1D",
"~  c #EEA801",
"^  c #FFA300",
"/  c #FFA700",
"(  c #FFA800",
")  c #FFAD00",
"_  c #FFA30B",
"`  c #E2B500",
"'  c #E1BD02",
"]  c #FBB200",
"[  c #FFB300",
"{  c #FAB600",
"}  c #FFB700",
"|  c #F9B800",
" . c #FCB800",
".. c #FFBD00",
"X. c #FEA615",
"o. c #FFA817",
"O. c #D8972D",
"+. c #D99931",
"@. c #D0983D",
"#. c #E99F25",
"$. c #FFAB21",
"%. c #F0A62D",
"&. c #FFAE29",
"*. c #F2AC39",
"=. c #FFB335",
"-. c #F9B839",
";. c #C5C303",
":. c #DFC602",
">. c #E7C200",
",. c #FFC100",
"<. c #FFC900",
"1. c #ECD601",
"2. c #F5D000",
"3. c #F4D400",
"4. c #FFD000",
"5. c #FFD600",
"6. c #F0D900",
"7. c #FFDB00",
"8. c #FFDF00",
"9. c #F7E000",
"0. c #F5E600",
"q. c #FFE700",
"w. c #FFEE00",
"e. c #F4F401",
"r. c #FFF300",
"t. c #FBF500",
"y. c #FFFB00",
"u. c #FFFD00",
"i. c #86815E",
"p. c #9B8C57",
"a. c #8D8869",
"s. c #8F8275",
"d. c #908274",
"f. c #9B8C7C",
"g. c #949075",
"h. c #FFB945",
"j. c #F9B84E",
"k. c #FEBB4E",
"l. c #E2B05E",
"z. c #F5B956",
"x. c #FFBF55",
"c. c #E2B56D",
"v. c #E9BD76",
"b. c #FFC361",
"n. c #FBC366",
"m. c #F8C46F",
"M. c #FFC86E",
"N. c #FFCC79",
"B. c #888383",
"V. c #8A8585",
"C. c #8D8888",
"Z. c #9C9780",
"A. c #959191",
"S. c #9C9797",
"D. c #9E9999",
"F. c #A09C9C",
"G. c #BAA68A",
"H. c #ABA7A7",
"J. c #ACA8A8",
"K. c #B1AEAE",
"L. c #B6B3B3",
"P. c #B9B6B6",
"I. c #BCB9B4",
"U. c #DEBE8B",
"Y. c #DABF94",
"T. c #C0BDBD",
"R. c #F0C886",
"E. c #F8CE89",
"W. c #FFD184",
"Q. c #E9C790",
"!. c #F2CE92",
"~. c #FFD691",
"^. c #F4D299",
"/. c #FFDB9E",
"(. c #E1CCAB",
"). c #ECD6AB",
"_. c #F5D6A1",
"`. c #FFDFA9",
"'. c #ECD6B2",
"]. c #E8D5B7",
"[. c #FBDFB1",
"{. c #FFE1AE",
"}. c #FFE5BA",
"|. c #C3C1C0",
" X c #C5C3C3",
".X c #C8C5C5",
"XX c #CBC9C9",
"oX c #DCDADA",
"OX c #DFDEDE",
"+X c #F4E2C6",
"@X c #FFEAC6",
"#X c #F5E6CE",
"$X c #FFEBCA",
"%X c #FFEED2",
"&X c #F8ECDA",
"*X c #FFF0D6",
"=X c #FFF3DE",
"-X c #E3E2E2",
";X c #E7E5E5",
":X c #EDECEC",
">X c #FFF5E4",
",X c #FBF4EA",
"<X c #FFF6E8",
"1X c #FBF5EC",
"2X c #F1F1F1",
"3X c #F7F6F6",
"4X c #FFF9F0",
"5X c #FFFBF4",
"6X c gray98",
"7X c #FEFBF8",
"8X c white",
/* pixels */
"8X8X8X8X8X8X8X8X8X8XD.#             = J.8X8X8X8X8X8X8X8X8X8X8X8X",
"8X8X8X8X8X8X8X8X-X.Xg.> - - - - - - 1 Z.XX;X8X8X8X8X8X8X8X8X8X8X",
"8X8X8X8X8X8X8X8XH.q s b ;.;.;.;.;.;.n 5 e L.8X8X8X8X8X8X8X8X8X8X",
"8X8X8X8X8X6XOX|.a.: x 1.q.q.q.q.q.q.:.u & s..X-X8X8X8X8X8X8X8X8X",
"8X8X8X8X8X2XF.7 m W Q | } } } } } } ~ N p 4 q H.8X8X8X8X8X8X8X8X",
"8X8X8X8X8X:Xk X z e.5.( R R R R R R P C a * + C.6X8X8X8X8X8X8X8X",
"8X8X8X8X8X:Xk X z e.5.( R R R R R R P C a * + C.6X8X8X8X8X8X8X8X",
"8X8X8X3XoXI.i.; v 9.<./ ( [ } } [ / Y H g y $ j |.OX6X8X8X8X8X8X",
"8X8X8X;XA.9 M ;.'  .) ^  .7.q.q.5.} R P J f i 3 6 F.2X8X8X8X8X8X",
"8X8X8XOXr @ c u.4.^ R R ,.w.t.0.2.] R R Y G f , . k :X8X8X8X8X8X",
"8X8X8XOXr @ c u.4.^ R R ,.w.9.` K U R R Y G f , . k :X8X8X8X8X8X",
"8X8X8XOXr @ c u.4.^ ( } 4.r.6.S V L R R Y G f , . k :X8X8X8X8X8X",
"8X8X8XOXr @ c u.4.^ ..8.r.y.6.S V L R R Y G f , . k :X8X8X8X8X8X",
"8X8X8XOXr @ c u.4.^ ..8.r.y.6.S V L R R Y G f , . k :X8X8X8X8X8X",
"8X8X8XOXr @ c u.4.^ ( } 4.r.6.S V L R R Y G f , . k :X8X8X8X8X8X",
"8X8X8XOXr @ c u.4.^ R R ,.w.6.S V L R R Y G f , . k :X8X8X8X8X8X",
"8X8X8XOXr @ c u.4.^ R R ,.w.6.S V L R R Y G f , . k :X8X8X8X8X8X",
"8X8X8XOXr @ c u.4.^ R R ,.w.6.S V L R R E #.@.2 . k :X8X8X8X8X8X",
"8X8X8XOXr @ c u.4.^ R R ,.w.6.S V L R R X.m.].h o k :X8X8X8X8X8X",
"8X8X8XOXr @ c u.4.^ R R ,.w.6.S V L _ &.x.{.3XB.O k :X8X8X8X8X8X",
"8X8X8XOXr @ c u.4.^ R R ,.w.6.S V L $.N.@X>X3XB.O k :X8X8X8X8X8X",
"8X8X8XOXr @ c u.4.^ R R { 3.>.A Z %.b.}.7X&X].h o k :X8X8X8X8X8X",
"8X8X8XOXr @ c u.4.^ R R I D A B O.R.$X<X,XQ.@.2 . k :X8X8X8X8X8X",
"8X8X8XOXr @ c u.4.^ R R L C F +.c.+X5X*X[.v.@.2 . k :X8X8X8X8X8X",
"8X8X8XOXr @ c u.4.^ R R T P *.!.#X1X=XW.k.E.].h o k :X8X8X8X8X8X",
"8X8X8X;XA.9 M ;.'  .) ^ o.=.N.%X4X%X`.M.j.U.T.V.8 F.2X8X8X8X8X8X",
"8X8X8X3XoXI.i.; v 9.<./ h./.%X4X%XN.x.~.'.f.0 C.|.OX6X8X8X8X8X8X",
"8X8X8X8X8X2XF.7 m W ! -.W.=X1X#X_.n.z.Y.P.l q H.8X8X8X8X8X8X8X8X",
"8X8X8X8X8X6XOX|.a.: p.).*X5X+Xc.l.^.(.d.w A..X-X8X8X8X8X8X8X8X8X",
"8X8X8X8X8X8X8X8XH.q l P. X XG.d d G.K.t e L.8X8X8X8X8X8X8X8X8X8X",
"8X8X8X8X8X8X8X8X-X.XA.w 6 6 < % % < e S.XX;X8X8X8X8X8X8X8X8X8X8X",
"8X8X8X8X8X8X8X8X8X8XD.#             = J.8X8X8X8X8X8X8X8X8X8X8X8X"
};
