/* XPM */
static char *_e1699db152c42fb96afe06285fa5e55[] = {
/* columns rows colors chars-per-pixel */
"32 32 204 2 ",
"   c #180E0E",
".  c #41270A",
"X  c #452A0A",
"o  c #483118",
"O  c #543C20",
"+  c #4D440A",
"@  c #524A0A",
"#  c #524A18",
"$  c #684619",
"%  c #705713",
"&  c #796D08",
"*  c #796F16",
"=  c #55462D",
"-  c #605820",
";  c #7A5725",
":  c #634F3B",
">  c #6C653B",
",  c #796E36",
"<  c #4D4444",
"1  c #524A45",
"2  c #524A4A",
"3  c #6D5B47",
"4  c #6D5D4E",
"5  c #725E48",
"6  c #645D5D",
"7  c #736C49",
"8  c #787147",
"9  c #746455",
"0  c #7F6F5E",
"q  c #7F7953",
"w  c #6C6565",
"e  c #786E67",
"r  c #746D6D",
"t  c #7C7575",
"y  c #885405",
"u  c #925A04",
"i  c #945F0E",
"p  c #845A1C",
"a  c #9F6303",
"s  c #96600B",
"d  c #A66909",
"f  c #AE7207",
"g  c #9B6B22",
"h  c #C57B02",
"j  c #CC7F01",
"k  c #87796A",
"l  c #98941F",
"z  c #9F9B1B",
"x  c #B69D04",
"c  c #A5A105",
"v  c #B7A505",
"b  c #B4B206",
"n  c #918C24",
"m  c #D48606",
"M  c #D98700",
"N  c #DE8B00",
"B  c #E38E00",
"V  c #EB9300",
"C  c #E89600",
"Z  c #F29700",
"A  c #F59900",
"S  c #FE9E00",
"D  c #F49E0D",
"F  c #ED9C17",
"G  c #C7B707",
"H  c #C5B714",
"J  c #FFA401",
"K  c #FBA405",
"L  c #FEAA01",
"P  c #FFAC0A",
"I  c #E9BC02",
"U  c #FEB600",
"Y  c #FEBC01",
"T  c #FBBC04",
"R  c #FFA613",
"E  c #FFA913",
"W  c #FFAC1E",
"Q  c #FFB717",
"!  c #FFB419",
"~  c #D9982D",
"^  c #E09B28",
"/  c #FFAD24",
"(  c #F6AA2C",
")  c #E9BC29",
"_  c #FFB225",
"`  c #FFB232",
"'  c #FFB439",
"]  c #FFBA39",
"[  c #C5C303",
"{  c #D3C003",
"}  c #D3C011",
"|  c #EFCB01",
" . c #FFC300",
".. c #F0CE01",
"X. c #FFCA00",
"o. c #EBD901",
"O. c #F2DF01",
"+. c #FBD609",
"@. c #FFC71B",
"#. c #FFDA1A",
"$. c #FFE700",
"%. c #FFE900",
"&. c #FFED0F",
"*. c yellow",
"=. c #FFE219",
"-. c #C5C32B",
";. c #FFC82E",
":. c #FFD323",
">. c #FFF82D",
",. c #FFEC3D",
"<. c #86815E",
"1. c #B1A06D",
"2. c #DEAB58",
"3. c #FFB945",
"4. c #FCBE4B",
"5. c #E2B365",
"6. c #E8BD75",
"7. c #FFC751",
"8. c #FFC25C",
"9. c #FFE745",
"0. c #FFF346",
"q. c #FFF352",
"w. c #FFF35D",
"e. c #C5C37E",
"r. c #FEC462",
"t. c #FFCB65",
"y. c #FBC46A",
"u. c #FFC86E",
"i. c #FFD368",
"p. c #FFCB75",
"a. c #F1C47A",
"s. c #FECD7B",
"d. c #FFFA62",
"f. c #FFFB6F",
"g. c #8A8585",
"h. c #8B8585",
"j. c #918C8C",
"k. c #959191",
"l. c #9C9898",
"z. c #A69683",
"x. c #A09C9C",
"c. c #A8A099",
"v. c #ABA899",
"b. c #BCAA91",
"n. c #ABA7A7",
"m. c #ADA9A5",
"M. c #B2AFA2",
"N. c #B4AFAC",
"B. c #BBB4A7",
"V. c #B4B1B1",
"C. c #BCB8B6",
"Z. c #C4B38F",
"A. c #E1BD83",
"S. c #CABAA3",
"D. c #F2CA86",
"F. c #F7CE89",
"G. c #FFD183",
"H. c #FFD48B",
"J. c #F1CD91",
"K. c #FFD692",
"L. c #FFD897",
"P. c #F5D49D",
"I. c #FFDA9D",
"U. c #FFEA86",
"Y. c #FFFF85",
"T. c #FFE591",
"R. c #FFE992",
"E. c #FFED9C",
"W. c #FFFF97",
"Q. c #C5C3B5",
"!. c #ECD0A2",
"~. c #FADAA5",
"^. c #E5D2B4",
"/. c #FFEDA0",
"(. c #FFE1AE",
"). c #FFFBA5",
"_. c #FAE1B7",
"`. c #FFE5BA",
"'. c #FFFAB6",
"]. c #C5C3C3",
"[. c #CCCACA",
"{. c #D9D7D7",
"}. c #DDDBDB",
"|. c #E0DEDE",
" X c #FFEAC5",
".X c #F8E6C9",
"XX c #FFFEC6",
"oX c #FFFECD",
"OX c #FFEED2",
"+X c #FAEFDE",
"@X c #FFF0D6",
"#X c #FFFFD5",
"$X c #FFF1DA",
"%X c #FFFEDB",
"&X c #E3E1E1",
"*X c #E8E7E7",
"=X c #F6EEE3",
"-X c #FFF4E3",
";X c #FFFAE5",
":X c #FFF7E9",
">X c #FFFCEC",
",X c #F4F3F3",
"<X c #F8F7F7",
"1X c white",
/* pixels */
"1X1X1X1X1X1X1X].2     @ [ *.*.*.*.*.*.[ @     2 ].1X1X1X1X1X1X1X",
"1X1X1X1X1X,X{.v.> + + & { %.%.%.%.%.%.} , < < w n.{.,X1X1X1X1X1X",
"1X1X1X1X1X{.h.8 z b b G I Y Y Y Y Y Y ) Z.V.V.l.r h.{.1X1X1X1X1X",
"1X1X1X,X}.M.7 * G O.O...U L L L L P _ r..X=X.XS.e r N.}.,X1X1X1X",
"1X1X1X}.k.q l v I  . .Y L S S S S / p.`.-X$XH.6.b.k.t k.}.1X1X1X",
"1X<X&XB.7 * G ..U L L L J J L P W 8.`.-X$X(.r.r.!.Z.5 4 N.&X<X1X",
"1X|.x.<.n v I  .L S S S S L  .:.i.~.-X$XL.s.G.G.s.2.g ; 0 x.|.1X",
"1X[.6 - b o.T L J S S J L T =.q.'.-X+X_.r.r.~.L.3.F m s O 6 [.1X",
"1X].2 @ [ $.U S S S S L  .#.w.W.%X=X!.D.s.s.G.r./ Z M a X 2 ].1X",
"1X].2 @ [ $.U S S J L T #.0.).%X;X_.5.5.P.L.4.W K Z M a X 2 ].1X",
"1X].2 @ [ $.U S S L Y #.q.W.%X-X(.F.6.6.F.u./ S S Z M a X 2 ].1X",
"1X].2 @ [ $.U S S U +.0.).%X;X Xu.r.~.P.4./ K S S Z M a X 2 ].1X",
"1X].2 @ [ $.U S S Q 9.Y.#X:X`.K.u.y.J.a.( S S S S Z M a X 2 ].1X",
"1X].2 @ [ $.U J K ] E.#X>X Xu.r.I.P.2.^ D S S S S Z M a X 2 ].1X",
"1X].2 @ [ $.U R ' s.OX>XXXE.t.r.L.D.~ M Z S S S S Z M a X 2 ].1X",
"1X].2 @ [ $.Y ` K.OX>XoXf.w.E.I.8.( m M Z S S S S Z M a X 2 ].1X",
"1X].2 @ [ &.;.u.OX>XOX/.d.d.E.H.` Z M M Z S S S S Z M a X 2 ].1X",
"1X].2 @ [ >.U. X>XOXs.t.E.E.t.' R Z M M Z S S S S Z M a X 2 ].1X",
"1X].2 # -.d.XX:XOX~.r.t.E.R.] K J Z M M Z S S S S Z M a X 2 ].1X",
"1X].2 = e.'.>X@XG.u.K.T.f.9.Q S S Z M M Z S S S S Z M a X 2 ].1X",
"1X].2 1 Q.;X$X(.r.r.I.R.,.+.L A A V N N A S S S S Z M a X 2 ].1X",
"1X].2 2 ].$XK.p.H.H.p.7.@.T C B B B V V S S S S S Z M a X 2 ].1X",
"1X[.w 6 V.^.y.r.I.L.3.E P K B M M B Z S S S S S A B h i = w [.1X",
"1X&Xn.h.h.z.A.G.s.8.W S S A V B B V A S S S S A V h y ; k n.&X1X",
"1X<X*XC.r e B.!.4.! P L J S S A A S S S S A A V j d $ 9 C.*X<X1X",
"1X1X1X|.x.h.j.1.) X.X. .L S S S S S S A V V V j u ; 0 x.|.1X1X1X",
"1X1X1X<X&XV.r , H o.o.| L S S S S S S V m h h d $ 4 N.&X<X1X1X1X",
"1X1X1X1X1X}.k.q l c c x N V V V V V V m a y y p 9 k.}.1X1X1X1X1X",
"1X1X1X1X1X,X}.M.7 # # % f j j j j j j d $ o o 3 m.}.,X1X1X1X1X1X",
"1X1X1X1X1X1X1X{.h.6 6 3 p u u u u u u p 3 6 6 h.{.1X1X1X1X1X1X1X",
"1X1X1X1X1X1X1X,X{.[.[.c.: . . . . . . : c.[.[.{.,X1X1X1X1X1X1X1X",
"1X1X1X1X1X1X1X1X1X1X1X].2             2 ].1X1X1X1X1X1X1X1X1X1X1X"
};
