/* XPM */
static char *_b6faa4bbad04e01970d787b2fce3460[] = {
/* columns rows colors chars-per-pixel */
"32 32 200 2 ",
"   c #180E0E",
".  c #1B100E",
"X  c #1C1212",
"o  c #231919",
"O  c #2A210D",
"+  c #2A2112",
"@  c #2A211C",
"#  c #312828",
"$  c #452A0A",
"%  c #4B3113",
"&  c #533B1F",
"*  c #643E08",
"=  c #403737",
"-  c #544D0A",
";  c #524A19",
":  c #575013",
">  c #6F4507",
",  c #7A4C07",
"<  c #5B442A",
"1  c #524A37",
"2  c #775628",
"3  c #72552C",
"4  c #6E5331",
"5  c #524A4A",
"6  c #544C49",
"7  c #544D4C",
"8  c #5B5445",
"9  c #575050",
"0  c #5A5353",
"q  c #5B5454",
"w  c #5E5757",
"e  c #655E5E",
"r  c #726C6C",
"t  c #7B7676",
"y  c #835106",
"u  c #925F10",
"i  c #8B6406",
"p  c #9F6303",
"a  c #9B6207",
"s  c #97600B",
"d  c #B87302",
"f  c #BD7502",
"g  c #C37A01",
"h  c #C97D01",
"j  c #886E4B",
"k  c #877969",
"l  c #817B7B",
"z  c #827D7D",
"x  c #969206",
"c  c #A69605",
"v  c #8A8528",
"b  c #918C24",
"n  c #969229",
"m  c #CA8001",
"M  c #CF8600",
"N  c #D98700",
"B  c #DF8B00",
"V  c #D59500",
"C  c #D89D00",
"Z  c #DF9F00",
"A  c #C18119",
"S  c #E18C00",
"D  c #E48E01",
"F  c #E69000",
"G  c #E99100",
"H  c #E29F00",
"J  c #ED9C00",
"K  c #F29700",
"L  c #F49800",
"P  c #F19F00",
"I  c #F49F00",
"U  c #F99B00",
"Y  c #FA9C00",
"T  c #FF9F00",
"R  c #C0BD07",
"E  c #D8B002",
"W  c #FFA303",
"Q  c #FFA700",
"!  c #FFA900",
"~  c #FFAD00",
"^  c #FFA309",
"/  c #E2B500",
"(  c #E1BD02",
")  c #FBB200",
"_  c #FFB100",
"`  c #FAB600",
"'  c #FFB400",
"]  c #FCB800",
"[  c #FFBD00",
"{  c #FFA613",
"}  c #FFBC15",
"|  c #EEA835",
" . c #FFB131",
".. c #FFB439",
"X. c #C6C203",
"o. c #E7C200",
"O. c #FFC100",
"+. c #FFC900",
"@. c #F5D000",
"#. c #F4D400",
"$. c #FFD100",
"%. c #FFD600",
"&. c #F0D900",
"*. c #FFDF00",
"=. c #F4E200",
"-. c #F5E600",
";. c #FFE207",
":. c #FFEE00",
">. c #FFED0F",
",. c #FFF300",
"<. c #FBF500",
"1. c #FFFB00",
"2. c #FFFD00",
"3. c #FFF30B",
"4. c #C5C330",
"5. c #FFCB25",
"6. c #FFC82D",
"7. c #FFD021",
"8. c #FFD129",
"9. c #FFFB21",
"0. c #FFF82D",
"q. c #FFFD3F",
"w. c #86815E",
"e. c #8D8869",
"r. c #96926F",
"t. c #8F8275",
"y. c #FCB846",
"u. c #FFBC4E",
"i. c #FFBF56",
"p. c #FFC25E",
"a. c #FFFF42",
"s. c #FFFB56",
"d. c #FFF95E",
"f. c #FFC361",
"g. c #FFC566",
"h. c #FFCC66",
"j. c #FFC86E",
"k. c #FFD063",
"l. c #FFD16E",
"z. c #FFCB76",
"x. c #FFF07B",
"c. c #FFF37E",
"v. c #868181",
"b. c #888383",
"n. c #8A8585",
"m. c #8D8888",
"M. c #978C80",
"N. c #918C8C",
"B. c #949090",
"V. c #9B9696",
"C. c #9C9797",
"Z. c #9E9999",
"A. c #A69683",
"S. c #A09C9C",
"D. c #ABA7A7",
"F. c #ACA8A8",
"G. c #B1AEAE",
"H. c #B6B3B3",
"J. c #B9B6B6",
"K. c #BCB9B4",
"L. c #BCB9B9",
"P. c #E1BD83",
"I. c #C0BDBD",
"U. c #C5C38A",
"Y. c #FFDC81",
"T. c #FFD389",
"R. c #FFD691",
"E. c #FFD999",
"W. c #FFEA86",
"Q. c #FFEE99",
"!. c #FFF091",
"~. c #DFC6A0",
"^. c #FFDCA1",
"/. c #FFDFA9",
"(. c #FFEEA1",
"). c #FFE1AE",
"_. c #FFF3A9",
"`. c #FFE2B1",
"'. c #F7E0BA",
"]. c #FFE5BA",
"[. c #FFE8B9",
"{. c #FFFDBC",
"}. c #C3C1C1",
"|. c #C5C3C3",
" X c #C8C5C5",
".X c #CBC9C9",
"XX c #DCDADA",
"oX c #DFDEDE",
"OX c #FFEAC6",
"+X c #FFEBCA",
"@X c #E3E2E2",
"#X c #E7E5E5",
"$X c #ECEBEB",
"%X c #EDECEC",
"&X c #FFF5E4",
"*X c #FFF6E8",
"=X c #F1F1F1",
"-X c #F7F6F6",
";X c gray98",
":X c white",
/* pixels */
":X:X:X:X:X:X:X:X:X:XZ.#             = F.:X:X:X:X:X:X:X:X:X:X:X:X",
":X:X:X:X:X:X:X:X@X XB.w 5 5 1 ; ; 1 e C..X#X:X:X:X:X:X:X:X:X:X:X",
":X:X:X:X:X:X:X:XD.0 z J.|.|.U.4.4.U.G.t e H.:X:X:X:X:X:X:X:X:X:X",
":X:X:X:X:X;XoX}.m.9 V.$X*X+XQ.d.d.Q.~.j & t. X@X:X:X:X:X:X:X:X:X",
":X:X:X:X:X=XS.7 n.I.oX;X].f.h.(.(.h.| A s 3 0 D.:X:X:X:X:X:X:X:X",
":X:X:X:X:X%Xl X b.-X&XOXR.i.g.^.R...L B d * o m.;X:X:X:X:X:X:X:X",
":X:X:X:X:X%Xl X b.-X).i.j./.E.p. .{ L B d * o m.;X:X:X:X:X:X:X:X",
":X:X:X-XXXL.v.7 A.'.T.u.l._.W.6._ Q U F h y % k }.oX;X:X:X:X:X:X",
":X:X:X#XB.q N.|.P.y.z.`.!.s.0.>.%.' T L G g a 2 5 S.=X:X:X:X:X:X",
":X:X:XoXr @ r.{.Y.y.z.`.x.9.<.-.@.) T T U S g > . l %X:X:X:X:X:X",
":X:X:XoXr + n a.c.[.T.u.8.3.=./ H I T T U S g > . l %X:X:X:X:X:X",
":X:X:XoXr + n a.c.[.l.} $.,.&.C N K T T U S g > . l %X:X:X:X:X:X",
":X:X:XoXr @ r.{.Y.y.5.;.,.1.&.C N K T T U S g > . l %X:X:X:X:X:X",
":X:X:XoXr @ r.{.k.^ [ *.,.1.&.C N K T T U S g > . l %X:X:X:X:X:X",
":X:X:XoXr + n q.7.W ! ' $.,.&.C N K T T U S g > . l %X:X:X:X:X:X",
":X:X:XoXr O x 2.$.W T T O.:.&.C N K T T U S g > . l %X:X:X:X:X:X",
":X:X:XoXr O x 2.$.W T T O.:.&.C N K T T U S g > . l %X:X:X:X:X:X",
":X:X:XoXr O x 2.$.W T T O.:.&.C N K T T U S g > . l %X:X:X:X:X:X",
":X:X:XoXr O x 2.$.W T T O.:.&.C N K T T U S g > . l %X:X:X:X:X:X",
":X:X:XoXr O x 2.$.W T T O.:.&.C N K T T U S g > . l %X:X:X:X:X:X",
":X:X:XoXr O x 2.$.W T T O.:.&.C N K T T U S g > . l %X:X:X:X:X:X",
":X:X:XoXr O x 2.$.W T T ` #.o.V N K T T U S g > . l %X:X:X:X:X:X",
":X:X:XoXr O x 2.$.W T T P Z V M N K T T U S g > . l %X:X:X:X:X:X",
":X:X:XoXr O x 2.$.W T T K B N N S L T T U S g > . l %X:X:X:X:X:X",
":X:X:XoXr O x 2.$.W T T Y L K K L Y T T U S g > . l %X:X:X:X:X:X",
":X:X:X#XB.8 b X.( ] ~ W T T T T T T T L G g a 2 5 S.=X:X:X:X:X:X",
":X:X:X-XXXK.w.- c =.+.Q T T T T T T U F h y % k }.oX;X:X:X:X:X:X",
":X:X:X:X:X=XS.6 v R E J K K K K K K D f s 3 0 D.:X:X:X:X:X:X:X:X",
":X:X:X:X:X;XoX}.e.: i m N N N N N N f , & t. X@X:X:X:X:X:X:X:X:X",
":X:X:X:X:X:X:X:XD.0 3 s p p p p p p u 4 e H.:X:X:X:X:X:X:X:X:X:X",
":X:X:X:X:X:X:X:X@X Xt.& $ $ $ $ $ $ < M..X#X:X:X:X:X:X:X:X:X:X:X",
":X:X:X:X:X:X:X:X:X:XZ.#             = F.:X:X:X:X:X:X:X:X:X:X:X:X"
};
