/* XPM */
static char * Icon4_xpm[] = {
"32 32 209 2",
"  	c #72751B",
". 	c #9E9999",
"+ 	c #312828",
"@ 	c #180E0E",
"# 	c #403737",
"$ 	c #ACA8A8",
"% 	c #E3E2E2",
"& 	c #C8C5C5",
"* 	c #949075",
"= 	c #5E571F",
"- 	c #524A0A",
"; 	c #665F2A",
"> 	c #9C9780",
", 	c #CBC9C9",
"' 	c #E7E5E5",
") 	c #ABA7A7",
"! 	c #5A5353",
"~ 	c #827D2C",
"{ 	c #B9B60B",
"] 	c #C5C303",
"^ 	c #B1AE10",
"/ 	c #7B7631",
"( 	c #665F5F",
"_ 	c #B6B3B3",
": 	c #DFDEDE",
"< 	c #C3C1C0",
"[ 	c #8D8869",
"} 	c #575013",
"| 	c #9B8C06",
"1 	c #ECD601",
"2 	c #FFE700",
"3 	c #DFC602",
"4 	c #886E07",
"5 	c #533B1F",
"6 	c #8F8275",
"7 	c #A09C9C",
"8 	c #544C49",
"9 	c #8A8528",
"0 	c #C0BD07",
"a 	c #DEBE02",
"b 	c #F9B800",
"c 	c #FFB700",
"d 	c #EEA801",
"e 	c #C18102",
"f 	c #97600B",
"g 	c #72552C",
"h 	c #DAD9D4",
"i 	c #817B7B",
"j 	c #1C120E",
"k 	c #888307",
"l 	c #F4F401",
"m 	c #FFD600",
"n 	c #FFA800",
"o 	c #FF9F00",
"p 	c #F49800",
"q 	c #DF8B00",
"r 	c #B87302",
"s 	c #643E08",
"t 	c #231919",
"u 	c #8D8888",
"v 	c #DCDADA",
"w 	c #BCB9B4",
"x 	c #86815E",
"y 	c #544D0A",
"z 	c #A69605",
"A 	c #F7E000",
"B 	c #FFC900",
"C 	c #FFA700",
"D 	c #FFB300",
"E 	c #F99B00",
"F 	c #E69000",
"G 	c #C97D01",
"H 	c #835106",
"I 	c #4B3113",
"J 	c #877969",
"K 	c #959191",
"L 	c #5B5445",
"M 	c #918C24",
"N 	c #E1BD02",
"O 	c #FCB800",
"P 	c #FFAD00",
"Q 	c #FFA300",
"R 	c #FFDB00",
"S 	c #E99100",
"T 	c #C37A01",
"U 	c #9B6207",
"V 	c #775628",
"W 	c #524A4A",
"X 	c #726C6C",
"Y 	c #2A210D",
"Z 	c #969206",
"` 	c #FFFD00",
" .	c #FFD000",
"..	c #FFC100",
"+.	c #FFEE00",
"@.	c #FBF500",
"#.	c #F5E600",
"$.	c #F5D000",
"%.	c #FBB200",
"&.	c #E18C00",
"*.	c #6F4507",
"=.	c #1B100F",
"-.	c #E2B500",
";.	c #E29F00",
">.	c #F49F00",
",.	c #FFF300",
"'.	c #F0D900",
").	c #D89D00",
"!.	c #D88600",
"~.	c #F19600",
"{.	c #FFBD00",
"].	c #FFDF00",
"^.	c #FFFB00",
"/.	c #FB9F07",
"(.	c #E99F25",
"_.	c #D0983D",
":.	c #755426",
"<.	c #FEA615",
"[.	c #F8C46F",
"}.	c #E8D5B7",
"|.	c #827364",
"1.	c #1B1111",
"2.	c #FFA30B",
"3.	c #FFAE29",
"4.	c #FFBF55",
"5.	c #FFE1AE",
"6.	c #F7F6F6",
"7.	c #888383",
"8.	c #1C1212",
"9.	c #FFAB21",
"0.	c #FFCC79",
"a.	c #FFEAC6",
"b.	c #FFF5E4",
"c.	c #FAB600",
"d.	c #F4D400",
"e.	c #E7C200",
"f.	c #D59500",
"g.	c #D88C0F",
"h.	c #F0A62D",
"i.	c #FFC361",
"j.	c #FFE5BA",
"k.	c #FEFBF8",
"l.	c #F8ECDA",
"m.	c #F19F00",
"n.	c #DF9F00",
"o.	c #CF8600",
"p.	c #D8972D",
"q.	c #F0C886",
"r.	c #FFEBCA",
"s.	c #FFF6E8",
"t.	c #FBF4EA",
"u.	c #E9C790",
"v.	c #D98E13",
"w.	c #D99931",
"x.	c #E2B56D",
"y.	c #F4E2C6",
"z.	c #FFFBF4",
"A.	c #FFF0D6",
"B.	c #FBDFB1",
"C.	c #E9BD76",
"D.	c #FA9C00",
"E.	c #F2AC39",
"F.	c #F2CE92",
"G.	c #F5E6CE",
"H.	c #FBF5EC",
"I.	c #FFF3DE",
"J.	c #FFD184",
"K.	c #FEBB4E",
"L.	c #F8CE89",
"M.	c #FFA817",
"N.	c #FFB335",
"O.	c #FFEED2",
"P.	c #FFF9F0",
"Q.	c #FFDFA9",
"R.	c #FFC86E",
"S.	c #F9B84E",
"T.	c #DEBE8B",
"U.	c #C0BDBD",
"V.	c #8A8585",
"W.	c #544C4C",
"X.	c #FFB945",
"Y.	c #FFDB9E",
"Z.	c #FFD691",
"`.	c #ECD6B2",
" +	c #9B8C7C",
".+	c #575050",
"++	c #DEBE1D",
"@+	c #F9B839",
"#+	c #F5D6A1",
"$+	c #FBC366",
"%+	c #F5B956",
"&+	c #DABF94",
"*+	c #B9B6B6",
"=+	c #827D7D",
"-+	c #9B8C57",
";+	c #ECD6AB",
">+	c #E2B05E",
",+	c #F4D299",
"'+	c #E1CCAB",
")+	c #908274",
"!+	c #5E5757",
"~+	c #C5C3C3",
"{+	c #BAA68A",
"]+	c #A87930",
"^+	c #B1AEAE",
"/+	c #7B7676",
"(+	c #4E4137",
"_+	c #483219",
":+	c #9C9797",
"                    . + @ @ @ @ @ @ # $                         ",
"                % & * = - - - - - - ; > , '                     ",
"                ) ! ~ { ] ] ] ] ] ] ^ / ( _                     ",
"            : < [ } | 1 2 2 2 2 2 2 3 4 5 6 & %                 ",
"            7 8 9 0 a b c c c c c c d e f g ! )                 ",
"          h i j k l m n o o o o o o p q r s t u                 ",
"          h i j k l m n o o o o o o p q r s t u                 ",
"        v w x y z A B C n D c c D C E F G H I J < :             ",
"      ' K L M ] N O P Q O R 2 2 m c o p S T U V W 7             ",
"      : X Y Z `  .Q o o ..+.@.#.$.%.o o E &.T *.=.i h           ",
"      : X Y Z `  .Q o o ..+.A -.;.>.o o E &.T *.=.i h           ",
"      : X Y Z `  .Q n c  .,.'.).!.~.o o E &.T *.=.i h           ",
"      : X Y Z `  .Q {.].,.^.'.).!.~.o o E &.T *.=.i h           ",
"      : X Y Z `  .Q {.].,.^.'.).!.~.o o E &.T *.=.i h           ",
"      : X Y Z `  .Q n c  .,.'.).!.~.o o E &.T *.=.i h           ",
"      : X Y Z `  .Q o o ..+.'.).!.~.o o E &.T *.=.i h           ",
"      : X Y Z `  .Q o o ..+.'.).!.~.o o E &.T *.=.i h           ",
"      : X Y Z `  .Q o o ..+.'.).!.~.o o /.(._.:.=.i h           ",
"      : X Y Z `  .Q o o ..+.'.).!.~.o o <.[.}.|.1.i h           ",
"      : X Y Z `  .Q o o ..+.'.).!.~.2.3.4.5.6.7.8.i h           ",
"      : X Y Z `  .Q o o ..+.'.).!.~.9.0.a.b.6.7.8.i h           ",
"      : X Y Z `  .Q o o c.d.e.f.g.h.i.j.k.l.}.|.1.i h           ",
"      : X Y Z `  .Q o o m.n.f.o.p.q.r.s.t.u._.:.=.i h           ",
"      : X Y Z `  .Q o o ~.q v.w.x.y.z.A.B.C._.:.=.i h           ",
"      : X Y Z `  .Q o o D.p E.F.G.H.I.J.K.L.}.|.1.i h           ",
"      ' K L M ] N O P Q M.N.0.O.P.O.Q.R.S.T.U.V.W.7             ",
"        v w x y z A B C X.Y.O.P.O.0.4.Z.`. +.+u < :             ",
"            7 8 9 0 ++@+J.I.H.G.#+$+%+&+*+=+! )                 ",
"            : < [ } -+;+A.z.y.x.>+,+'+)+!+K & %                 ",
"                ) ! =+*+~+~+{+]+]+{+^+/+( _                     ",
"                % & K !+W W (+_+_+(+( :+, '                     ",
"                    . + @ @ @ @ @ @ # $                         "};
