/* XPM */
static char *bc7dafab26d04f7db8c0d1051b91d3b0[] = {
/* columns rows colors chars-per-pixel */
"29 29 13 1 ",
"  c #747065",
". c #7F7C72",
"X c #878579",
"o c #8D8B7F",
"O c #8D8B80",
"+ c #8E8C81",
"@ c #95938B",
"# c #97958D",
"$ c #99978E",
"% c #9A988F",
"& c #9A9890",
"* c #9D9B92",
"= c #A2A09A",
/* pixels */
".=++XXXXXXXXXXXXXoooXXXXXXXXX",
".*++XXXXXXXXXXXXXXXXXXXXXXXXX",
" &++XXXXXXXXXXXXXXXXXXXXXXXXX",
" &++++XXXXXXXXXXXXXXXXXXXXXXX",
" %XX++XXXXXXXXXXXXXXXXXXXXXXX",
" $XX++XXXXXXXXXXXXXXXXXXXXXXX",
" #XXXXXXXXXXXXXXXXXXXXXXXXXXX",
" #XXXXXXXXXXXXXXXXXXXXXXXXXXX",
" #XXXXXXXXXXXXXXXXXXXXXXXXXXX",
" #XXXXXXXXXXXXXXXXXXXXXXXXXXX",
" #XXXXXXXXXXXXXXXXXXXXXXXXXXX",
" #XXXXXXXXXXXXXXXXXXXXXXXXXXX",
" #XXXXXXXXXXXXXXXXXXXXXXXXXXX",
" #XXXXXXXXXXXXXXXXXXXXXXXXXXX",
" #XXXXXXXXXXXXXXXXXXXXXXXXXXX",
" #XXXXXXXXXXXXXXXXXXXXXXXXXXX",
" #OOXXXXXXXXXXXXXXXXXXXXXXXXX",
" #OOooXXXXXXXXXXXXXXXXXXXXXXX",
" #OoooXXXXXXXXXXXXXXXXXXXXXXX",
" #OoXXXXXXXXXXXXXXXXXXXXXXXXX",
" #OoXXXXXXXXXXXXXXXXXXXXXXXXX",
" #OoXXXXXXXXXXXXXXXXXXXXXXXXX",
" #OoXXXXXXXXXXXXXXXXXXXXXXXXX",
" #OooooXXXXXXXXXXXXXXXXXXXXXX",
" #XXoooXXXXXXXXXXXXXXXXXXXXXX",
" #XXoooXXXXXXXXXXXXXXXXXXXXXX",
" #XXXXXXXXXXXXXXXXXXXXXXXXXXX",
" @XXXXXXXXXXXXXXXXXXXXXXXXXXX",
" @XXXXXXXXXXXXXXXXXXXXXXXXXXX"
};
