/* XPM */
static char *_6c88c00b6f0494eab838e5816e7a3e8[] = {
/* columns rows colors chars-per-pixel */
"64 64 10 1 ",
"  c None",
". c black",
"X c #0D0600",
"o c #1C0D00",
"O c #1C0D01",
"+ c #2B1401",
"@ c #2B1402",
"# c #3A1B01",
"$ c #492201",
"% c #B06D00",
/* pixels */
"                                                                ",
"                           +    O                               ",
"                 ++       +$+  O                                ",
"                +$$+      +$+ OO                                ",
"          O    +$##+       +$+O                                 ",
"          O+   +##+        +$$+                                 ",
"          +$+  +##+        +#$+           O                     ",
"           +$+ +##+         +#$+         O                      ",
"           +$$++##$+        +#$+    O   OO                      ",
"            +$$#+#$+         +#$+    O OO                       ",
"             +##+#$$+        +#$$+   ++$O        ++             ",
"              ++O##$+         +#$$+++$$+        +$$+            ",
"                +##$$+    O    +#$+#$$+        +$$+             ",
"                 +##$$+   O    +##+O#+        +$$+              ",
"                  +#$$$+ OO  +  +##++     O   +$+               ",
"                  +##$$$+O    ++#####+    O  +$$+               ",
"                   +##$$$+     +#####+    OO +$#+               ",
"               O    +##$$+      +#####+    O +$+                ",
"               OO   +###$$+      +####+    OO$$+                ",
"                O+   +###$+      +##$##+    +$#+                ",
"                +#+  +###$$+      +#$##+    +$#+                ",
"                 +#++#+###$+      +#$$#+   +$$+  +++            ",
"                  +####+##$$+    +##$$##+  +$#+ +#+             ",
"                   ++##+###$$+   +#$$$$#+ +$#+#+#+              ",
"                     ++O###$$$+ +##$$$$#++$#+###+               ",
"                       ++###$$$+++#$$$#++$$#+##+                ",
"                        ++###$$$+O+#$#++$$$#O++                 ",
"            O            ++###$$$+++++O+$$#++                   ",
"            OO       O    +###$$$+O++O+$$$#+                    ",
"             O+     O     ++###$$++OO+#$$#++                    ",
"             +#++  OO      +###$#+O++O#$#++                     ",
"              +#$++O       +####+O+$+++##++                     ",
"               +#$$$++     +++#+O+$##+O+O+  O                   ",
"                ++##$$+++   +O+O+#####++++OO                    ",
"                  +++#$$$++ O+O+$####.#+#+O                     ",
"                     ++#$$$+O$+#####..##++                      ",
"                       +##$#+O####+..O#++                       ",
"                        +####+###+O%.##++                       ",
"                         +##++##+O.%O+#++                       ",
"                          O+O.##+$.O$++#++                      ",
"                          +X+..+O#O###+++O X                    ",
"                          X+XO..$#####$+++X+X                   ",
"                         X+OX#.%#######$++X+X                   ",
"                        X+OOX#O%.#######.X+OXO                  ",
"                       X+OOXX##O.######..XOOXOO                 ",
"                      X+OOXXX###O.###O.%OXOO+XO                 ",
"                      XOOX XX####O##O+.%X+OO+XOO                ",
"                     X+OX  XX+###+##+$.OXOXO+XOO                ",
"                     XOX    X+###+#O+#O#XOXO+XOO  X             ",
"                    X+OX    X+###+O+$##XOOXXOXOOXX+X            ",
"                    XOX      X+###+$###XOXXXOXOOX+O+X           ",
"                    XOX      X++#++###+XXXXXOXOOXXOO+X          ",
"                    XX        +++++###XXXXXXOXXXXXXOO+X         ",
"                    XX        O++O++##XXXXXXOX XXX XOO+X        ",
"                    X          OOO++++XXXXOOXX      XOO+X       ",
"                    X           OOOO+++XXOOOX        XOOX       ",
"                                 XOOOOOOOO  X         XO+X      ",
"                                 XXXX                  XOX      ",
"                                 XXX                    X+X     ",
"                                 XXX                    XOX     ",
"                                 XX                      XX     ",
"                                 XX                      XX     ",
"                                 X                        X     ",
"                                 X                        X     "
};
