/* XPM */
static char *_978236bb4e940418644cb470059ac02[] = {
/* columns rows colors chars-per-pixel */
"64 64 11 1 ",
"  c None",
". c black",
"X c #0D0600",
"o c #1C0D00",
"O c #1C0D01",
"+ c #2B1401",
"@ c #2B1402",
"# c #3A1B01",
"$ c #492201",
"% c #B06D00",
"& c white",
/* pixels */
"                                                                ",
"                                                                ",
"                                    O    +                      ",
"                                     O  +$+       ++            ",
"                                     OO +$+      +$$+           ",
"                                      O+$+       +##$+    O     ",
"                                      +$$+        +##+   +O     ",
"                          O           +$#+        +##+  +$+     ",
"                           O         +$#+         +##+ +$+      ",
"                           OO   O    +$#+        +$##++$$+      ",
"                            OO O    +$#+         +$#+#$$+       ",
"                  ++        O$++   +$$#+        +$$#+##+        ",
"                 +$$+        +$$+++$$#+         +$##O++         ",
"                  +$$+        +$$#+$#+    O    +$$##+           ",
"                   +$$+        +#O+##+    O   +$$##+            ",
"                    +$+   O     ++##+  +  OO +$$$#+             ",
"                    +$$+  O    +#####++    O+$$$##+             ",
"                    +#$+ OO    +#####+     +$$$##+              ",
"                     +$+ O    +#####+      +$$##+    O          ",
"                     +$$OO    +####+      +$$###+   OO          ",
"                     +#$+    +##$##+      +$###+   +O           ",
"                     +#$+    +##$#+      +$$###+  +#+           ",
"                 +++  +$$+   +#$$#+      +$###+#++#+            ",
"                  +#+ +#$+  +##$$##+    +$$##+####+             ",
"                   +#+#+#$+ +#$$$$#+   +$$###+##++              ",
"                    +###+#$++#$$$$##+ +$$$###O++                ",
"                     +##+#$$++#$$$#+++$$$###++                  ",
"                      ++O#$$$++#$#+O+$$$###++                   ",
"                        ++#$$+O+++++$$$###++            O       ",
"                         +#$$$+O++O+$$$###+    O       OO       ",
"                         ++#$$#+OO++$$###++     O     +O        ",
"                          ++#$#O++O+#$###+      OO  ++#+        ",
"                          ++##+++$+O+####+       O++$#+         ",
"                        O  +O+O+##$+O+#+++     ++$$$#+          ",
"                         OO++++#####+O+O+   +++$$##++           ",
"                          O+#+#.####$+O+O ++$$$#+++             ",
"                           ++##..#####+$O+$$$#++                ",
"                            ++#O..+####O+#$##+                  ",
"                            ++##.%O+###+####+                   ",
"                            ++#+O%.O+##++##+                    ",
"                           ++#++$O.$+##.O+O                     ",
"                           O+++###O#O+..+O+                     ",
"                          O+++$#####$..O#+                      ",
"                        OO+++$#######%.##+                      ",
"                       OO++$.#######.%O#+                       ",
"                      OO++##..######.O##+                       ",
"                      O+++##O%.O###.O###+     &                 ",
"                     OO+++###%.+O##O##XX+      &         &      ",
"               XX    OO++++##O.$+##+#X++X      X          &     ",
"              X++XX  OOO+++###O#+O#XX+OO+X   XX+X         &     ",
"             X+OO++XXOOO++++####$XX++OOOO+XXXO+O+X              ",
"            X+OOOOXXXOOOO+++###XX++OOOXXOO+XXXOO&+X             ",
"           X+OOOXXXXXOOOO++++XXOOOOOXXXXXOOXXXXX&O+X      &     ",
"          X+OOXX   XXXOOOO+XXXXOOOXXX++XXXO+X  &&OO+X     &     ",
"         X+OXX       XXOOOXXXXXXXXXO++OXXXOOX  &&XOOX    &&     ",
"        X+OX           XOOXXXXXXX++OOOXXX XOX &&&XXO+X   &&     ",
"       X+OX            XXOXXXXX++OOOO     XO+&&&& XXOX  &&&     ",
"       XOX             XXX XXOOOOOO        XOX&&&  XX+X&&&&     ",
"      XOX             XXX                  XOX&&    XXX&&&      ",
"      XX              XX                    XX&&     XXX&&      ",
"     XX               XX                    XX&       XX&       ",
"     X                X                      X         X        ",
"     X                X                      X         X        ",
"                                                                "
};
