/* XPM */
static char *_fb9f6b2595c479793cf4000b693fae0[] = {
/* columns rows colors chars-per-pixel */
"64 64 10 1 ",
"  c None",
". c black",
"X c #0D0600",
"o c #1C0D00",
"O c #1C0D01",
"+ c #2B1401",
"@ c #2B1402",
"# c #3A1B01",
"$ c #492201",
"% c #B06D00",
/* pixels */
"                ++       +$+  O                                 ",
"               +$$+      +$+ OO                                 ",
"         O    +$##+       +$+O                                  ",
"         O+   +##+        +$$+                                  ",
"         +$+  +##+        +#$+           O                      ",
"          +$+ +##+         +#$+         O                       ",
"          +$$++##$+        +#$+    O   OO                       ",
"           +$$#+#$+         +#$+    O OO                        ",
"            +##+#$$+        +#$$+   ++$O        ++              ",
"             ++O##$+         +#$$+++$$+        +$$+             ",
"               +##$$+    O    +#$+#$$+        +$$+              ",
"                +##$$+   O    +##+O#+        +$$+               ",
"                 +#$$$+ OO  +  +##++     O   +$+                ",
"                 +##$$$+O    ++#####+    O  +$$+                ",
"                  +##$$$+     +#####+    OO +$#+                ",
"              O    +##$$+      +#####+    O +$+                 ",
"              OO   +###$$+      +####+    OO$$+                 ",
"               O+   +###$+      +##$##+    +$#+                 ",
"               +#+  +###$$+      +#$##+    +$#+                 ",
"                +#++#+###$+      +#$$#+   +$$+  +++             ",
"                 +####+##$$+    +##$$##+  +$#+ +#+              ",
"                  ++##+###$$+   +#$$$$#+ +$#+#+#+               ",
"                    ++O###$$$+ +##$$$$#++$#+###+                ",
"                      ++###$$$+++#$$$#++$$#+##+                 ",
"                       ++###$$$+O+#$#++$$$#O++                  ",
"           O            ++###$$$+++++O+$$#++                    ",
"           OO       O    +###$$$+O++O+$$$#+                     ",
"            O+     O     ++###$$++OO+#$$#++                     ",
"            +#++  OO      +###$#+O++O#$#++                      ",
"             +#$++O       +####+O+$+++##++                      ",
"              +#$$$++     +++#+O+$##+O+O+  O                    ",
"               ++##$$+++   +O+O+#####++++OO                     ",
"                 +++#$$$++ O+O+$####.#+#+O                      ",
"                    ++#$$$+O$+#####..##++                       ",
"                      +##$#+O####+..O#++                        ",
"                       +####+###+O%.##++                        ",
"         XXXXX          +##++##+O.%O+#++                        ",
"          X+++XXX        O+O.##+$.O$++#++                       ",
"           XXO+++XXX     +O+..+O#O#XXX++O                       ",
"             XXOO+++XXX   +#O..XXXX+++X++O                      ",
"               XXOOO+++XX +#XXX++++OOOX+++OO                    ",
"                 XXOOOO+X XX+++OOOOOOO+X$++OO                   ",
"                   XXOXXXX++OOXXXXXXOO+X##++OO                  ",
"                     XXX++OXXXXO.##XXOOX##+++O                  ",
"                      X+OXXX####O##XXOO+X#+++OO                 ",
"                     XXXXXXX+###+##+XOOOX++++OO                 ",
"                        XXXX+###+#O+XXOOX+++OOO                 ",
"                         XXX+###+O+$#XXOXX++OOO                 ",
"                          XXX+###+$##XXXXX+OOOOXX               ",
"                           XX++#++###+XXXX+OOOOXXXX             ",
"                            X+++++###+XXXXXOOOXXXX+X            ",
"                             O++O++##+XXXXXOOXXXXOO+X           ",
"                              OOO++++++XXXXO   XXOOO+X          ",
"                               OOOO+++OOXXO      XXOO+X         ",
"                                 OOOOOOOO          XOO+X        ",
"                                  XXXX              XOO+X       ",
"                                  XXXX               XOOX       ",
"                                   XXX                XO+X      ",
"                                   XXX                 XOX      ",
"                                   XXX                  X+X     ",
"                                   XXX                  XOX     ",
"                                    XX                   XX     ",
"                                    XX                   XX     ",
"                                    X                     X     "
};
