/* XPM */
static char *_1c09cc1a01c4616bb68f03bc569cc26[] = {
/* columns rows colors chars-per-pixel */
"64 64 11 1 ",
"  c None",
". c black",
"X c #0D0600",
"o c #1C0D00",
"O c #1C0D01",
"+ c #2B1401",
"@ c #2B1402",
"# c #3A1B01",
"$ c #492201",
"% c #B06D00",
"& c white",
/* pixels */
"                                                                ",
"                                                                ",
"                                                                ",
"                     +    O                                     ",
"           ++       +$+  O                                      ",
"          +$$+      +$+ OO                                      ",
"    O    +$##+       +$+O                                       ",
"    O+   +##+        +$$+                                       ",
"    +$+  +##+        +#$+           O                           ",
"     +$+ +##+         +#$+         O                            ",
"     +$$++##$+        +#$+    O   OO                            ",
"      +$$#+#$+         +#$+    O OO                             ",
"       +##+#$$+        +#$$+   ++$O        ++                   ",
"        ++O##$+         +#$$+++$$+        +$$+                  ",
"          +##$$+    O    +#$+#$$+        +$$+                   ",
"           +##$$+   O    +##+O#+        +$$+                    ",
"            +#$$$+ OO  +  +##++     O   +$+                     ",
"            +##$$$+O    ++#####+    O  +$$+                     ",
"             +##$$$+     +#####+    OO +$#+                     ",
"         O    +##$$+      +#####+    O +$+                      ",
"         OO   +###$$+      +####+    OO$$+                      ",
"          O+   +###$+      +##$##+    +$#+                      ",
"          +#+  +###$$+      +#$##+    +$#+                      ",
"           +#++#+###$+      +#$$#+   +$$+  +++                  ",
"            +####+##$$+    +##$$##+  +$#+ +#+                   ",
"             ++##+###$$+   +#$$$$#+ +$#+#+#+                    ",
"               ++O###$$$+ +##$$$$#++$#+###+                     ",
"                 ++###$$$+++#$$$#++$$#+##+                      ",
"                  ++###$$$+O+#$#++$$$#O++                       ",
"      O            ++###$$$+++++O+$$#++                         ",
"      OO       O    +###$$$+O++O+$$$#+                          ",
"       O+     O     ++###$$++OO+#$$#++                          ",
"       +#++  OO      +###$#+O++O#$#++                           ",
"        +#$++O       +####+O+$+++##++                           ",
"         +#$$$++     +++#+O+$##+O+O+  O                         ",
"          ++##$$+++   +O+O+#####++++OO                          ",
"            +++#$$$++ O+O+$####.#+#+O                           ",
"               ++#$$$+O$+#####..##++                            ",
"                 +##$#+O####+..O#++                             ",
"                  +####+###+O%.##++                             ",
"      &&           +##++##+O.%O+#++                             ",
"     &&             O+O.##+$.O$++#++                            ",
"    &&             &&O+..+O#O###+++O                            ",
"    &&            && +#O..$#####$+++O                           ",
"   &&&           &&& +##.%#######$+++OO                         ",
"   &&&          &&&   +#O%.#######.$++OO                        ",
"   &&&         &&&&   +##O.######..##++OO                       ",
"  &&&&&        &&&    +###O.###O.%O##+++O                       ",
"  &&&&&       &&&&    +XX##O##O+.%###+++OO                      ",
"  &&&&&&      &&&&    X++X#+##+$.O##++++OO    XX                ",
"  &&&&&&     &&&&&   X+OO+XX#O+#O###+++OOO  XX++X               ",
"  &&&&&&&    &&&&&&XX+OOOO++XX$####++++OOOXX++OO+X              ",
"   &&&&&&&  X&&&&&&X+OOXXOOO++XX###+++OOOOXXXOOOO+X             ",
"   &&&&&&&&X+&&&&&XXOOXXXXXOOOOOXX++++OOOOXXXXXOOO+X            ",
"   &&&&&&&&&O&&&&&X+OXXX++XXXOOOXXXX+OOOOXXX   XXOO+X           ",
"    &&&&&&&OO&&&&&XOOXXXO++OXXXXXXXXXOOOXX       XXO+X          ",
"    &&&&&&+OXX&&&&XOX XXXOOO++XXXXXXXOOX           XO+X         ",
"     &&&&&OXX &&&X+OX     OOOO++XXXXXOXX            XO+X        ",
"     &&&&+XX   &&XOX        OOOOOOXX XXX             XOX        ",
"      &&&XX    &&XOX                  XXX             XOX       ",
"       &XX      &XX                    XX              XX       ",
"       XX        XX                    XX               XX      ",
"       X         X                      X                X      ",
"       X         X                      X                X      "
};
