/* XPM */
static char *_c8b339923ac462f82fadaf4af4e2c13[] = {
/* columns rows colors chars-per-pixel */
"64 64 10 1 ",
"  c None",
". c black",
"X c #0D0600",
"o c #1C0D00",
"O c #1C0D01",
"+ c #2B1401",
"@ c #2B1402",
"# c #3A1B01",
"$ c #492201",
"% c #B06D00",
/* pixels */
"                                                                ",
"                                                                ",
"                                                                ",
"                              O    +                            ",
"                               O  +$+       ++                  ",
"                               OO +$+      +$$+                 ",
"                                O+$+       +##$+    O           ",
"                                +$$+        +##+   +O           ",
"                    O           +$#+        +##+  +$+           ",
"                     O         +$#+         +##+ +$+            ",
"                     OO   O    +$#+        +$##++$$+            ",
"                      OO O    +$#+         +$#+#$$+             ",
"            ++        O$++   +$$#+        +$$#+##+              ",
"           +$$+        +$$+++$$#+         +$##O++               ",
"            +$$+        +$$#+$#+    O    +$$##+                 ",
"             +$$+        +#O+##+    O   +$$##+                  ",
"              +$+   O     ++##+  +  OO +$$$#+                   ",
"              +$$+  O    +#####++    O+$$$##+                   ",
"              +#$+ OO    +#####+     +$$$##+                    ",
"               +$+ O    +#####+      +$$##+    O                ",
"               +$$OO    +####+      +$$###+   OO                ",
"               +#$+    +##$##+      +$###+   +O                 ",
"               +#$+    +##$#+      +$$###+  +#+                 ",
"           +++  +$$+   +#$$#+      +$###+#++#+                  ",
"            +#+ +#$+  +##$$##+    +$$##+####+                   ",
"             +#+#+#$+ +#$$$$#+   +$$###+##++                    ",
"              +###+#$++#$$$$##+ +$$$###O++                      ",
"               +##+#$$++#$$$#+++$$$###++                        ",
"                ++O#$$$++#$#+O+$$$###++                         ",
"                  ++#$$+O+++++$$$###++            O             ",
"                   +#$$$+O++O+$$$###+    O       OO             ",
"                   ++#$$#+OO++$$###++     O     +O              ",
"                    ++#$#O++O+#$###+      OO  ++#+              ",
"                    ++##+++$+O+####+       O++$#+               ",
"                  O  +O+O+##$+O+#+++     ++$$$#+                ",
"                   OO++++#####+O+O+   +++$$##++                 ",
"                    O+#+#.####$+O+O ++$$$#+++                   ",
"                     ++##..#####+$O+$$$#++                      ",
"                      ++#O..+####O+#$##+                        ",
"                      ++##.%O+###+####+                         ",
"                      ++#+O%.O+##++##+                          ",
"                     ++#++$O.$+##.O+O                           ",
"                     O+++###O#O+..+O+                           ",
"                    O+++$#####$..O#+                            ",
"                  OO+++$#######%.##+                            ",
"                 OO++$.#######.%O#+                             ",
"                OO++##..######.O##+                             ",
"                O+++##O%.O###.O###+                             ",
"            X  OO++X###%.+O##O####+    X                        ",
"           X+X OO+X+X##O.$+##+###+    X+X                       ",
"          X+OOXOOX+OX###O#+O#+###+   XOO+X                      ",
"         X+OOOOXX+OOOX####$+O+###+  XOOOO+X                     ",
"        X+OOXXOX+OOXOX#####$+###+  XOOXXOO+X                    ",
"       X+OOX XX+OOXXOOX#+###++#++ XOOXX XOO+X                   ",
"      X+OOX   XOOXOXXOX++###+++++XOOXX   XOOX                   ",
"      XOOX   X+OXOOXXOXX+##++O++XXXXX     XO+X                  ",
"     X+OX    XOX  OOXXXX+++++OOOXXXX       XOX                  ",
"     XOX    X+OX   OXXXXX++OOOOXXXX        XO+X                 ",
"    X+X     XOX      XXXXXXXOXXXXX          XOX                 ",
"    XOX     XOX            XXX              XOX                 ",
"    XX      XX              XX               XX                 ",
"    XX      XX              XX               XX                 ",
"    X       X                X                X                 ",
"    X       X                X                X                 "
};
