/* XPM */
static char *_00bdfd42547477aa8890e34c810f208[] = {
/* columns rows colors chars-per-pixel */
"64 64 10 1 ",
"  c None",
". c black",
"X c #0D0600",
"o c #1C0D00",
"O c #1C0D01",
"+ c #1A1000",
"@ c #2B1401",
"# c #2B1402",
"$ c #3A1B01",
"% c #492201",
/* pixels */
"                                                                ",
"                                                                ",
"                                                                ",
"                                                                ",
"                                                                ",
"                                                                ",
"                                                                ",
"                                                                ",
"                                                                ",
"                                                                ",
"                                                                ",
"                                                                ",
"                                                                ",
"                                                                ",
"                                                                ",
"                                                                ",
"                                                                ",
"                                                                ",
"                                                                ",
"                                                                ",
"                                                                ",
"                                                                ",
"                                                                ",
"                                                                ",
"                                                                ",
"                                                                ",
"                                                                ",
"                                                                ",
"                                O                               ",
"                               O                                ",
"                              OO                                ",
"                     @    @   O                                 ",
"                    @%@   %@     O                              ",
"         O   O      @%@   %@                                    ",
"         O@    @     @%  @$%@            O                      ",
"         @%@   @     @%@$%%@@   O       O                       ",
"          @%@ @@%%@  @$ @$%%@@   O  @% OO                       ",
"          @%  %$$%@ O@@  @$%@    @ @%%OO O                      ",
"              $$$%%@O%%@ @$$@  @@%@$%%$O                        ",
"          O   @@O@%OO$$@  @$$@@$@@O$%$@                         ",
"            @$$%%%@O$$@ @@$$$$$@%@@@$$@$@O                      ",
"             @$$%%%@$$@  @$$$$@%$$@O@O@$@O@ @                   ",
"         O    @$$%%@$$@ O @$$@$$$$$@@@@$@OO O                   ",
"         OO   @$$$%%@$%@O%%@$%$$$$.$@$@$$@OO@    O              ",
"          O@   @$$$%@@O%@%%%@$$$$..$$@@%$@OO%%     @@           ",
"          @$@  @$$$%%@@O$$%%%$$@..O$@@%%$@ @%$@   @%%@          ",
"           @$@@$@$$$%@@@$$$%%$@O+.$$@@%$@@ @%$@  @%%@           ",
"         O  @$$$$@$$%%@@$$$%%@O.+O@$@@$@@ @%%@  @%%@            ",
"             @@$$@$$$%O@@$$$%@%.O%@@$@@O  @%$@ @@%@             ",
"       O       @@O$$$O@.@$$$%O$O$$$@@@O@O@%$@$@$%%@             ",
"       OO   O    @@$ @$O@$$$$%$$$$$%@@@O@%$@$$$@%$@             ",
"        O@       O       @@$@O$$$$$$.O$$@%$@$$@ %@              ",
"        @$@@    OO     O @$$$O.$$$O.+O$$@%$O@@                  ",
"         @$%  @@O        @$$$$O$$O@.+$$$@$@@O                   ",
"          XX  %%%@@       @$$$@$$@%.O$$@XOOOO  X                ",
"         XOOXX@$$%%@      @$$$@$O@$O$$$@@XOOOX @X               ",
"      XX XXXOOX@@@$%      @$$$@O@%$$$$@XO@XOOOXO@X              ",
"     XOX    XXX   @@ XXXX  @$$$@%$$$$$@XOO@XOOOOO@X             ",
"    XXX         XXXXXOOOXX @@$@@$$$@$@OOXOO@O OXOO              ",
"   XX          XOOOOOOOXXX @@@@@$$$@@XOOOXOO@OX XOOO            ",
"              XOOOOOOXXXX  O@@O@@$$@@XOXOOXOOO X OO@O           ",
"              XXXXXXX       OOO@@@@@XXOXOO   XOX  OOOOO         ",
"                             OOOO@@@XXXXO    XO@X XOOOOX        ",
"                              OOOOOXXXXX      XX     XOX        "
};
