/* XPM */
static char *_c773254fc274f29a82289ab7863bb2d[] = {
/* columns rows colors chars-per-pixel */
"64 64 10 1 ",
"  c None",
". c black",
"X c #0D0600",
"o c #1C0D00",
"O c #1C0D01",
"+ c #1A1000",
"@ c #2B1401",
"# c #2B1402",
"$ c #3A1B01",
"% c #492201",
/* pixels */
"                                                                ",
"                                                                ",
"                                                                ",
"                                                                ",
"                                                                ",
"                                                                ",
"                                                                ",
"                                                                ",
"                                                                ",
"                                                                ",
"                                                                ",
"                                                                ",
"                                                                ",
"                                                                ",
"                                                                ",
"                                                                ",
"                                                                ",
"                                                                ",
"                                                                ",
"                                                                ",
"                                                                ",
"                                                                ",
"                                                                ",
"                                                                ",
"                                                                ",
"                                                                ",
"                                                                ",
"                                                                ",
"                                                                ",
"                                                                ",
"                                                                ",
"                                                                ",
"                                                                ",
"                                                                ",
"                                                                ",
"                                                                ",
"                                                                ",
"                                                                ",
"                                                                ",
"                                                                ",
"                                                                ",
"                                                                ",
"                                                                ",
"                                                                ",
"                                                                ",
"                                                                ",
"                                                                ",
"                                                                ",
"                                                                ",
"                                                                ",
"                                                                ",
"                   @                                            ",
"                  @@ O        OO       @ O                      ",
"                  %@ O       OO$OO    @% O                      ",
"                  %%OOO @  %$%$%$@$ .@%% OO                     ",
"                 @%%@OO@@% $$%O%$O@ @%%%$$O@ % @@ @             ",
"           @@   @$%%%@@@@%@$$$$%%@@%@%%$$$@%%%$%% @             ",
"          @%%@  @@$%%$@@%%@$%O$$$@$$%@$$$@@%%$$@$%@ O O         ",
"           @%%@  @@$%$@@%$@@$%O$$$$$$$@$@@%%$$$@@$$OO@O         ",
"            @%%@ @@$$@@@$$@@$%@$@.$$$$%$@@%$$$@O $@O@%@ O       ",
"             @X@O$@O@OOO$O@@$%%$$..$$$XXXXXXXX@O@@$@%@ OO       ",
"            OO@OOOO@@@OOXO@$@@%O.O..@XOOOOOOOOXX@$@%%XXO X      ",
"           O@OOOXOX$@OOXXXXX@$$$O$.+XXXOOOOOOOOOX@@XXOOXXOX     ",
"         OOOOOOXXXO@OOXOXXXXX$$$$@O+XXXXXXXXXXXXX%XOOXXX XXX    "
};
