/* XPM */
static char * deathR3_xpm[] = {
"64 64 7 1",
" 	c #444945",
".	c #1C0D01",
"+	c #2B1401",
"@	c #492201",
"#	c #3A1B01",
"$	c #000000",
"%	c #0D0600",
"                                                                ",
"                                                                ",
"                                                                ",
"                                                                ",
"                                                                ",
"                                                                ",
"                                                                ",
"                                                                ",
"                                                                ",
"                                                                ",
"                                                                ",
"                                                                ",
"                                                                ",
"                                                                ",
"                                                                ",
"                                                                ",
"                                  .                             ",
"                                   .                            ",
"                                   ..                           ",
"                         .          .+   +                      ",
"                                    +@  +@+                     ",
"                     .           +@@#+  +@+                     ",
"                      .      .  +@@#+#+ @+                      ",
"                      ..    .   +@#+@#+ .+                      ",
"                       ..   +   +##+#+  .+     +                ",
"                       .@+  @+++##+  +  .. +  +@@               ",
"              ++        +@  @+#####++    .+@@@##+               ",
"             +@@+        +  ++#####+     +@@@##+#       .       ",
"              +@@+          +#####+      +@@##+#   .   +.       ",
"               +@@+    .    +####+    . +@@###+   .+  +@+       ",
"                +@+ +  .   +##@##+      +@###+   +.+ +@+        ",
"                +@@ + .. + +##@#+      +@@###+  +#+++@@+        ",
"                +#@ + .  @ +#@@#+      +@###+#++#++#@@+         ",
"           .     +@@@..  @+##@@##+    +@@##+####+  ##+          ",
"                  +#@+ . @+#@@@@#+   +@@###+##++   ++           ",
"                  +#@+ +#@+#@@@@##+ +@@@###.++                  ",
"              +++  +@@+++#++#@@@#+++@@@###++      .             ",
"               +#+ +#@+ ++#++#@#+.+@@@###++                     ",
"                +#+#+#@+++##.+++++@@@###++  .        .          ",
"                 +###+#@ +.+..++.+@@@###+                       ",
"                  +##+#@.++++#..++@@###++ ++   .      .         ",
"                   ++.#@.+#+#$##.+#@###+++@@         ..         ",
"                     ++# ++##$$##.+####+@@@#        +.          ",
"                          ++#.$$+#.+#++#@##+      ++#+          ",
"                          ++##$$.+###+####+  .    @#+           ",
"                          ++#+.$$.+##++##+    .   #+            ",
"                         ++#++@.$@+##$.+.     ..                ",
"                         .+++###.#.+$$+.+      .++              ",
"                        .+++@#####@$$.#+     ++@@@              ",
"                      ..+++@#######$$##+    +@@##++ .           ",
"                     ..%+@$#######$$.#+     @#%%+               ",
"                %   ..%+##$$######$.##+     %%.% %%%            ",
"               %+ % .%+.%#.$$.###$.###+   %%...%%...%%          ",
"              %+.%..%+..%##$$+.##.####+ %%....% %%%...%%        ",
"             %+.....+..%+##.$@+##+###+%%....%%     %%%%.%       ",
"              ..%. +..%...##.#+.#+###+%%%.%%           %%%      ",
"            .. % %...%.+..%###@+.+###+%%%%               %%     ",
"           %+..   ......%.%####@+###+%%%                        ",
"          %+...  % .....%.%%+###++#++                           ",
"          %..%   %. ....%%%%+###+++++                           ",
"         %+.%   %+.% ...%%%%%##++.++.                           ",
"        %%.%    %.%   ...%%%%++++...                            ",
"        %+%     %.%    .....+++....                             ",
"        %.%     %%       .........                              "};
