/* XPM */
static char * deathL5_xpm[] = {
"64 64 8 1",
" 	c #444945",
".	c #2B1401",
"+	c #492201",
"@	c #1C0D01",
"#	c #3A1B01",
"$	c #000000",
"%	c #1A1000",
"&	c #0D0600",
"                                                                ",
"                                                                ",
"                                                                ",
"                                                                ",
"                                                                ",
"                                                                ",
"                                                                ",
"                                                                ",
"                                                                ",
"                                                                ",
"                                                                ",
"                                                                ",
"                                                                ",
"                                                                ",
"                                                                ",
"                                                                ",
"                                                                ",
"                                                                ",
"                                                                ",
"                                                                ",
"                                                                ",
"                                                                ",
"                                                                ",
"                                                                ",
"                                                                ",
"                                                                ",
"                                                                ",
"                                                                ",
"                                                                ",
"                                                                ",
"                                                                ",
"                                                                ",
"                                                                ",
"                                                                ",
"                                                                ",
"                                                                ",
"                                                                ",
"                                                                ",
"                                                                ",
"                                                                ",
"                                                                ",
"                                                                ",
"                                                                ",
"                                                                ",
"                                                                ",
"                                                                ",
"                              .          +                      ",
"                        @   ..@         #+                      ",
"                            +..         #   .                   ",
"                        .#   #.  @     ..## .                   ",
"                     @   .#####  @@   +.@.@.  @                 ",
"             @          .+####$ @@@@ $##....@@                  ",
"              .. @    @ .####$$#@#@#..###.#.@    @              ",
"              ++.. @.@@ +##.$$@##@.#..####...                   ",
"              #+++.@+@@ +#.@%$#$@+..#...#..@++                  ",
"             ..##+++.@##+.@$%@.@###...@..@@.+#.                 ",
"             . .##+++.###+++.+#####+...@.@@.+#.    ..           ",
"         @ @ .+ .##++..###+++.#.+##+#.++.@.++.    .++.          ",
"         @.@@## .###++..###+++..##++###+.@.+#.   .++.           ",
"       @ .+.@.# @.###+..###+++..##+++###..+#.#. .++.            ",
"       @@ .+.#..@.&&&&&&&&##++@##++++#@#@@..###@.&.             ",
"      & @&&++.#.&&@@@@@@@@&#+#..#+++.#@&@@..#@@@@.@@            ",
"     &@&&@@&&..&@@@@@@@@@@&&#.@@.#+#&&&&&@@..&@&@@@.@           ",
"    &&& &&&@@&+&&&&&&&&&&&&&.@@....&&&&&@&@@.@&&&@@@@@@         "};
