/* XPM */
static char *cb33ade0ab3e48cfa0453b33cb49be3e[] = {
/* columns rows colors chars-per-pixel */
"64 64 10 1 ",
"  c None",
". c black",
"X c #0D0600",
"o c #1C0D00",
"O c #1C0D01",
"+ c #1A1000",
"@ c #2B1401",
"# c #2B1402",
"$ c #3A1B01",
"% c #492201",
/* pixels */
"                                                                ",
"                                                                ",
"                                                                ",
"                                                                ",
"                                                                ",
"                                                                ",
"                                                                ",
"                                                                ",
"                                                                ",
"                                                                ",
"                                                                ",
"                                                                ",
"                                                                ",
"                                                                ",
"                                                                ",
"                                                                ",
"                                                                ",
"                                                                ",
"                                                                ",
"                                                                ",
"                                                                ",
"                                                                ",
"                                                                ",
"                                                                ",
"                                                                ",
"                                                                ",
"                                                                ",
"                                                                ",
"                                                                ",
"                                                                ",
"                                                                ",
"                                                                ",
"                                                                ",
"                                                                ",
"                                                                ",
"                                                                ",
"                                                                ",
"                                                                ",
"                                                                ",
"                                                                ",
"                                                                ",
"                                                                ",
"                                                                ",
"                                                                ",
"                                                                ",
"                                                                ",
"                                                                ",
"                                                                ",
"                                                                ",
"                                                                ",
"                                                                ",
"                                            @                   ",
"                      O @       OO        O @@                  ",
"                      O %@    OO$OO       O @%                  ",
"                     OO %%@. $@$%$%$%  @ OOO%%                  ",
"             @ @@ % @O$$%%%@ @O$%O%$$ %@@OO@%%@                 ",
"             @ %%$%%%@$$$%%@%@@%%$$$$@%@@@@%%%$@   @@           ",
"         O O @%$@$$%%@@$$$@%$$@$$$O%$@%%@@$%%$@@  @%%@          ",
"         O@OO$$@@$$$%%@@$@$$$$$$$O%$@@$%@@$%$@@  @%%@           ",
"       O @%@O@$ O@$$$%@@$%$$$$.@$@%$@@$$@@@$$@@ @%%@            ",
"       OO @%@$@@O@XXXXXXXX$$$..$$%%$@@O$OOO@O@$O@X@             ",
"      X OXX%%@$@XXOOOOOOOOX@..O.O%@@$@OXOO@@@OOOO@OO            ",
"     XOXXOOXX@@XOOOOOOOOOXXX+.$O$$$@XXXXXOO@$XOXOOO@O           ",
"    XXX XXXOOX%XXXXXXXXXXXXX+O@$$$$XXXXXOXOO@OXXXOOOOOO         "
};
