/* XPM */
static char *d5a06e377d704646b307ba258ec9a3cc[] = {
/* columns rows colors chars-per-pixel */
"64 64 10 1 ",
"  c None",
". c black",
"X c #0D0600",
"o c #1C0D00",
"O c #1C0D01",
"+ c #1A1000",
"@ c #2B1401",
"# c #2B1402",
"$ c #3A1B01",
"% c #492201",
/* pixels */
"                                                                ",
"                                                                ",
"                                                                ",
"                                                                ",
"                                                                ",
"                                                                ",
"                                                                ",
"                                                                ",
"                                                                ",
"                                                                ",
"                                                                ",
"                                                                ",
"                                                                ",
"                                                                ",
"                                                                ",
"                                                                ",
"                                                                ",
"                                                                ",
"                                                                ",
"                                                                ",
"                                                                ",
"                                                                ",
"                                                                ",
"                                                                ",
"                                                                ",
"                                                                ",
"                                                                ",
"                                                                ",
"                               O                                ",
"                                O                               ",
"                                OO                              ",
"                                 O   @    @                     ",
"                              O     @%   @%@                    ",
"                                    @%   @%@      O   O         ",
"                      O            @%$@  %@     @    @O         ",
"                       O       O   @@%%$@%@     @   @%@         ",
"                       OO %@  O   @@%%$@ $@  @%%@@ @%@          ",
"                      O OO%%@ @    @%$@  @@O @%$$%  %@          ",
"                        O$%%$@%@@  @$$@ @%%O@%%$$$              ",
"                         @$%$O@@$@@$$@  @$$OO%@O@@   O          ",
"                      O@$@$$@@@%@$$$$$@@ @$$O@%%%$$@            ",
"                   @ @O@$@O@O@$$%@$$$$@  @$$@%%%$$@             ",
"                   O OO@$@@@@$$$$$@$$@ O @$$@%%$$@    O         ",
"              O    @OO@$$@$@$.$$$$%$@%%O@%$@%%$$$@   OO         ",
"           @@     %%OO@$%@@$$..$$$$@%%%@%O@@%$$$@   @O          ",
"          @%%@   @$%@ @$%%@@$O..@$$%%%$$O@@%%$$$@  @$@          ",
"           @%%@  @$%@ @@$%@@$$.+O@$%%$$$@@@%$$$@$@@$@           ",
"            @%%@  @%%@ @@$@@$@O+.O@%%$$$@@%%$$@$$$$@  O         ",
"             @%@@ @$%@  O@@$@@%O.%@%$$$@@O%$$$@$$@@             ",
"             @%%$@$@$%@O@O@@@$$$O$O%$$$@.@O$$$O@@       O       ",
"             @$%@$$$@$%@O@@@%$$$$$%$$$$@O$@ $@@    O   OO       ",
"              @% @$$@$%@$$O.$$$$$$O@$@@       O       @O        ",
"                  @@O$%@$$O+.O$$$.O$$$@ O     OO    @@$@        ",
"                   O@@$@$$$+.@O$$O$$$$@        O@@  %$@         ",
"                X  OOOOX@$$O.%@$$@$$$@       @@%%%  XX          ",
"               X@ XOOOX@@$$$O$@O$@$$$@      @%%$$@XXOOX         ",
"              X@OXOOOX@OX@$$$$%@O@$$$@      %$@@@XOOXXX XX      ",
"             X@OOOOOX@OOX@$$$$$%@$$$@  XXXX @@   XXX    XOX     ",
"              OOXO O@OOXOO@$@$$$@@$@@ XXOOOXXXXX         XXX    ",
"            OOOX XO@OOXOOOX@@$$$@@@@@ XXXOOOOOOOX          XX   ",
"           O@OO X OOOXOOXOX@@$$@@O@@O  XXXXOOOOOOX              ",
"         OOOOO  XOX   OOXOXX@@@@@OOO       XXXXXXX              ",
"        XOOOOX X@OX    OXXXX@@@OOOO                             ",
"        XOX     XX      XXXXXOOOOO                              "
};
