/* XPM */
static char *_40a9bc7f8b84a458fbd7d30474d902c[] = {
/* columns rows colors chars-per-pixel */
"64 64 115 2 ",
"   c #060606",
".  c gray5",
"X  c #161616",
"o  c #1A1616",
"O  c #1B1B1B",
"+  c #231717",
"@  c #261B1B",
"#  c #291919",
"$  c #361A1A",
"%  c #232323",
"&  c #2C2C2C",
"*  c #333333",
"=  c #3C3C3C",
"-  c #411A1A",
";  c #6D0000",
":  c #6D0E0E",
">  c #700505",
",  c #720909",
"<  c #6E1212",
"1  c #711414",
"2  c #741B1B",
"3  c #791F1F",
"4  c #762222",
"5  c #792525",
"6  c #762828",
"7  c #7C2C2C",
"8  c #7D3131",
"9  c #7E3A3A",
"0  c #444444",
"q  c #4B4B4B",
"w  c gray33",
"e  c #5B5B5B",
"r  c #636363",
"t  c #6C6C6C",
"y  c #737373",
"u  c #7D7D7D",
"i  c #813434",
"p  c #843B3B",
"a  c #883F3F",
"s  c #854242",
"d  c #8A4545",
"f  c #8D4C4C",
"g  c #914F4F",
"h  c #8C5252",
"j  c #925454",
"k  c #955959",
"l  c #985D5D",
"z  c #976464",
"x  c #9B6464",
"c  c #9F6868",
"v  c #A16C6C",
"b  c #A47373",
"n  c #A87676",
"m  c #A77979",
"M  c #AA7C7C",
"N  c #838383",
"B  c #8C8C8C",
"V  c #929292",
"C  c #9C9C9C",
"Z  c #AE8383",
"A  c #B18686",
"S  c #B48B8B",
"D  c #B88F8F",
"F  c #B79292",
"G  c #B99595",
"H  c #BD9B9B",
"J  c #A4A4A4",
"K  c #ABABAB",
"L  c #BFA1A1",
"P  c #B3B4B4",
"I  c #B7B8B8",
"U  c #BBBBBB",
"Y  c #C19E9E",
"T  c #C4A3A3",
"R  c #C7ABAB",
"E  c #C9ACAC",
"W  c #CEB3B3",
"Q  c #D1B7B7",
"!  c #D3BBBB",
"~  c #C4C4C4",
"^  c #C8C7C7",
"/  c #CCCCCC",
"(  c #D7C1C1",
")  c #D9C4C4",
"_  c #DDCACA",
"`  c #D4D4D4",
"'  c #D8D7D7",
"]  c #DCDCDC",
"[  c #DEDDDD",
"{  c #E0CECE",
"}  c #E3D2D2",
"|  c #E4D4D4",
" . c #E5D5D5",
".. c #E7DADA",
"X. c #E4DCDC",
"o. c #EBDFDF",
"O. c #E1E1E1",
"+. c #E4E2E2",
"@. c #E6E4E4",
"#. c #EBE2E2",
"$. c #ECE0E0",
"%. c #E9E7E7",
"&. c #EEE5E5",
"*. c #E9E8E8",
"=. c #EFEBEB",
"-. c #EFECEC",
";. c #F1E7E7",
":. c #F0EBEB",
">. c #F2EEEE",
",. c #F4EEEE",
"<. c #F2F0F0",
"1. c #F4F2F2",
"2. c #F7F6F6",
"3. c #F8F5F5",
"4. c #FBFBFB",
/* pixels */
"< < < < < < < < < < < < < < < < < < < < < < < < < < < < < < < < < < < < < < < < < < < < < < < < < < < < < < < < < < < < < < < < ",
"< < < < < < < < < < < < < < < < < < < < < < < < < < < < < < < < < < < < < < < < < < < < < < < < < < < < < < < < < < < < < < < < ",
"< < < < < < < < < < < < < < 1 2 3 3 3 3 1 < < < < < < < < < < < < < < < < 1 2 1 < < < < < < < < < < < < < < < < < < < < < < < < ",
"< < < < < < < < < < < < < 1 l Y ! ! W T Z k d i 5 1 < < < < < < < < < 5 j A D b d 3 < < < < < < < < < < < < < < < < < < < < < < ",
"< < < < < < < < < < < < < i W ,.2.2.1.>.&..._ E D v j s 7 2 1 1 4 8 j D _ &.&.o.! b 8 < < < < < < < < < < < < < < < < < < < < < ",
"< < < < < < < < < < < < < d _ -.P V V J ^ O.*.-.>.$._ W H m z x Z T _ &.%.^ U ' >...F a 1 < < < < < < < < < < < < < < < < < < < ",
"< < < < < < < < < < < < : a _ *.y O O * q t N J ^ ' @.1.1.$.}  .;.>.O.^ V w 0 y U -.&.T k 3 < < < < < < < < < < < < < < < < < < ",
"< < < < < < < < < < < < : i ! -.N O X X X O % * q r N C I ^ [ O./ K u w & O X % w J *.,._ A i < < < < < < < < < < < < < < < < < ",
"< < < < < < < < < < < < < 5 T :.K * X X X X X X O O % & = w r t w * % O X X X X O = N ` 2.&.E k 4 < < < < < < < < < < < < < < < ",
"< < < < < < < < < < < < < 1 v ..[ u & X X X X X X X X X X X X O X X X X X X X X X X % w K @.1._ n 7 < < < < < < < < < < < < < < ",
"< < < < < < < < < < < < < < p T :.` N = O X X X X X X X X X X X X X X X X X X X X X X X * u ^ =...M 4 < < < < < < < < < < < < < ",
"< < < < < < < < < < < < < < 1 j W :.O.I N w = & O X X X X X X X X X X X X X X X X X X X X & t ~ 1.) p : < < < < < < < < < < < < ",
"< < < < < < < < < < < < < < < 2 j T #.1.@.` U C t 0 % X X X X X X X X X X X X X X X X X % t J ' 2.) p < < < < < < < < < < < < < ",
"< < < < < < < < < < < < < < < < 1 p n R _ #.=.=.[ I t & X X X X X X X X X X X X X X X X 0 ^ <.>.} M 4 < < < < < < < < < < < < < ",
"< < < < < < < < < < < < < < < < < < 1 i g v S W o.<.` u % X X X X X X X X X X X X X X X w ' &.H l 7 < < < < < < < < < < < < < < ",
"< < < < < < < < < < < < < < < < < < < < < 1 3 p n ) 2./ w O X X X X X X X X X X X X X X e [ } l 1 < < < < < < < < < < < < < < < ",
"< < < < < < < < < < < < < < < < < < < < < < < < 3 x  .>.V % X X X X X X X X X X X X X X r [ _ j 1 < < < < < < < < < < < < < < < ",
"< < < < < < < < < < < < < < < < < < < < < < < < < 4 E 2.U & X X X X X X X X X X X X X O y X.) f < < < < < < < < < < < < < < < < ",
"< < < < < < < < < < < < < < < < < < < < < < < < < ; H 3.^ * X X X X X X X X X X X X X O N +.! d < < < < < < < < < < < < < < < < ",
"< < < < < < < < < < < < < < < < < < < < < < < < < ; G 2./ * X X X X X X X X X X X X X O B %.W p < < < < < < < < < < < < < < < < ",
"< < < < < < < < < < < < < < < < < < < < < < < < < ; G 3./ * X X X X X X X X X X X X X O C =.R 7 < < < < < < < < < < < < < < < < ",
"< < < < < < < < < < < < < < < < < < < < < < < < < ; H 3./ * X X X X X X X X X X X X X O P <.Y 5 < < < < < < < < < < < < < < < < ",
"< < < < < < < < < < < < < < < < < < < < < < < < < ; H 3.^ * X X X X X X X X X X X X X % U 1.G 2 < < < < < < < < < < < < < < < < ",
"< < < < < < < < < < < < < < < < < < < < < < < < < ; H 2.^ * X X X X X X X X X X X X X * ^ :.A 1 < < < < < < < < < < < < < < < < ",
"< < < < < < < < < < < < < < < < < < < < < < < < < ; H 2.~ & X X X X X X X X X X X X X 0 / $.n 1 < < < < < < < < < < < < < < < < ",
"< < < < < < < < < < < < < < < < < < < < < < < < < ; L 2.~ & X X X X X X X X X X X X X e ' ..c 1 < < < < < < < < < < < < < < < < ",
"< < < < < < < < < < < < < < < < < < < < < < < < < > T 2.U & X X X X X X X X X X X X . t [ } k 1 < < < < < < < < < < < < < < < < ",
"< < < < < < < < < < < < < < < < < < < < < < < < < , T 1.U & X X X X X X X X X X X X . u @._ f < < < < < < < < < < < < < < < < < ",
"< < < < < < < < < < < < < < < < < < < < < < < < < 1 T 1.I & X X X X X X X X X X X X   B -.) p < < < < < < < < < < < < < < < < < ",
"< < < < < < < < < < < < < < < < < < < < < < < < < 2 R 1.K & X X X X X X X X X X X X   C 1.! 5 < < < < < < < < < < < < < < < < < ",
"< < < < < < < < < < < < < < < < < < < < < < < < < 5 W <.J % X X X X X X X X X X X X O K 1.R 5 < < < < < < < < < < < < < < < < < ",
"< < < < < < < < < < < < < < < < < < < < < < < < < 7 W <.C % X X X X X X X X X X X X & I >.H 4 < < < < < < < < < < < < < < < < < ",
"< < < < < < < < < < < < < < < < < < < < < < < < < i ! <.V % X X X X X X X X X X X X = U :.S 3 < < < < < < < < < < < < < < < < < ",
"< < < < < < < < < < < < < < < < < < < < < < < < < a ( >.B % X X X X X X X X X X X X q ^ &.M 2 < < < < < < < < < < < < < < < < < ",
"< < < < < < < < < < < < < < < < < < < < < < < < : d ) >.N O X X X X o + o X X X X X e ' $.v 1 < < < < < < < < < < < < < < < < < ",
"< < < < < < < < < < < < < < < < < < < < < < < < : f _ -.y O X X X X # - # X X X X X t O.o.k 1 < < < < < < < < < < < < < < < < < ",
"< < < < < < < < < < < < < < < < < < < < < < < < : j  .-.t O X X X X @ $ + X X X X X u *. .f < < < < < < < < < < < < < < < < < < ",
"< < < < < < < < < < < < < < < < < < < < < < < < : z o.-.r O X X X X X o X X X X X X N -._ s < < < < < < < < < < < < < < < < < < ",
"< < < < < < < < < < < < < < < < < < < < < < < < : b =.*.w X X X X X X X X X X X X % V -.! p < < < < < < < < < < < < < < < < < < ",
"< < < < < < < < < < < < < < < < < < < < < < < < 1 Z >.[ q X X X X X X X X X X X X & C >.R i < < < < < < < < < < < < < < < < < < ",
"< < < < < < < < < < < < < < < < < < < < < < < < 4 F 1./ 0 X X X X O O X X X X X X * K >.Y 7 < < < < < < < < < < < < < < < < < < ",
"< < < < < < < < < < < < < < < < < < < < < < < < 7 T 3.U = X X X X 0 e % X X X X X = I >.F 5 < < < < < < < < < < < < < < < < < < ",
"< < < < < < < < < < < < < < < < < < < < < < < < 9 W 4.K * X X X % u C = X X X X X 0 ~ 1.A 4 < < < < < < < < < < < < < < < < < < ",
"< < < < < < < < < < < < < < < < < < < < < < < < s ) 4.V % X X X * J ^ r O X X X X q ^ 1.Z 2 < < < < < < < < < < < < < < < < < < ",
"< < < < < < < < < < < < < < < < < < < < < < < < h { 4.u O X X X 0 ~ *.u O X X X X q / 1.M 1 < < < < < < < < < < < < < < < < < < ",
"< < < < < < < < < < < < < < < < < < < < < < < 1 z ..@.t O X X X e ` 4.V % X X X X q / 1.m 1 < < < < < < < < < < < < < < < < < < ",
"< < < < < < < < < < < < < < < < < < < < < < < 2 M &./ w X X X O e ' 4.C & X X X X q / 1.M 1 < < < < < < < < < < < < < < < < < < ",
"< < < < < < < < < < < < < < < < < < < < < < < 6 Y 3.I = X X X X w / 4.J * X X X X q ^ 1.A 8 1 < < < < < < < < < < < < < < < < < ",
"< < < < < < < < < < < < < < < < < < < < < < < a ! 2.C % X X X X 0 ^ 4.K * X X X X 0 ~ 4. .E v 5 < < < < < < < < < < < < < < < < ",
"< < < < < < < < < < < < < < < < < < < < < < < l } @.u O X X X X = I 4.K * X X X X 0 U 4.4.3.) j 1 < < < < < < < < < < < < < < < ",
"< < < < < < < < < < < < < < < < < < < < < < 1 M :.' e O X X X X * J 2.K * X X X X 0 U 4.@.-.$.m 2 < < < < < < < < < < < < < < < ",
"< < < < < < < < < < < < < < < < < < < < < < 5 T >.U * X X X X X % B -.K * X X X X * J @.J U =.R s 1 < < < < < < < < < < < < < < ",
"< < < < < < < < < < < < < < < < < < < < < : d ) -.V % X X X X X O u @.K * X X X X O r V e y ' o.A 8 < < < < < < < < < < < < < < ",
"< < < < < < < < < < < < < < < < < < < < < 1 n o.O.r X X X X X X X r ' J * X X X X X O & % = C @. .M 4 < < < < < < < < < < < < < ",
"< < < < < < < < < < < < < < < < < < < : 1 k ! 1.U = X X X X X X X = K V * X X X X X X X X O q K -.} k 1 < < < < < < < < < < < < ",
"< < < < < < < < < < < < < < < < 1 5 i k S ) 1.[ y O X X X X X X X O e w % X X X X X X X X X O e ^ 1.E 5 < < < < < < < < < < < < ",
"< < < < < < < < < < < < < < 7 b T ! )  .>.3.O.B * X X X X X X X X X O O O X X X X X X X X X X O N @.o.j 1 < < < < < < < < < < < ",
"< < < < < < < < < < < < < 1 x  .4.4.<.*.[ U y & X X X X X X X X X X X X X X X X X X X X X X X X w / :.M 1 < < < < < < < < < < < ",
"< < < < < < < < < < < < < 3 A :.[ P C N e * O X O O O O O O O O % & = w e * O X X X X X X O % q B [ :.b 1 < < < < < < < < < < < ",
"< < < < < < < < < < < < < 3 D =.~ r q 0 0 q w r y N V V C J J K P U ~ / / C 0 O X X O & 0 y J ^ O.>.) d < < < < < < < < < < < < ",
"< < < < < < < < < < < < < 2 M &.-.' ` ` ` ` ' [ O.@.*.=.-.>.<.<.2.2.>.#.>.@.J e = q t C ^ [ -.&._ T z 3 < < < < < < < < < < < < ",
"< < < < < < < < < < < < < 1 j Q &.>.>.>.:.$. ._ ( ! Q W E E E R T H A n H o.*.~ P ~ X.=.=.} E Z j 8 1 < < < < < < < < < < < < < ",
"< < < < < < < < < < < < < < 3 d c b b b v x k g d d p i i i i 7 5 3 2 1 i S  .:.:.&. .W A k i 3 1 < < < < < < < < < < < < < < < ",
"< < < < < < < < < < < < < < < < 1 1 1 1 1 1 1 < < < < < < < < < < < < < < 8 v G H Z l p 3 1 < < < < < < < < < < < < < < < < < < "
};
