/* XPM */
static char *_086eefbbafa41e3b025f706cb194034[] = {
/* columns rows colors chars-per-pixel */
"64 64 112 2 ",
"   c #070707",
".  c #0C0C0C",
"X  c #161616",
"o  c #1C1616",
"O  c #1B1B1B",
"+  c #251616",
"@  c #311515",
"#  c #232323",
"$  c #2B2B2B",
"%  c #302D2D",
"&  c #333333",
"*  c #3C3C3C",
"=  c #431414",
"-  c #6D0E0E",
";  c #6E1212",
":  c #711515",
">  c #731B1B",
",  c #762222",
"<  c #7A2626",
"1  c #772828",
"2  c #7B2A2A",
"3  c #7D3333",
"4  c #434343",
"5  c #4D4646",
"6  c #4B4B4B",
"7  c #5D4A4A",
"8  c #535353",
"9  c #5B5B5B",
"0  c #6D5454",
"q  c #646464",
"w  c #6C6C6C",
"e  c #757575",
"r  c #7B7474",
"t  c #7C7C7C",
"y  c #802F2F",
"u  c #813434",
"i  c #853C3C",
"p  c #883F3F",
"a  c #854242",
"s  c #8A4444",
"d  c #8D4D4D",
"f  c #904D4D",
"g  c #8F5252",
"h  c #925454",
"j  c #955B5B",
"k  c #985D5D",
"l  c #976060",
"z  c #9C6464",
"x  c #9E6A6A",
"c  c #907878",
"v  c #A26E6E",
"b  c #A47373",
"n  c #A97777",
"m  c #A77878",
"M  c #AB7D7D",
"N  c #848484",
"B  c #8C8C8C",
"V  c #929292",
"C  c #9B9B9B",
"Z  c #AE8383",
"A  c #B18585",
"S  c #B38A8A",
"D  c #B79292",
"F  c #BA9494",
"G  c #B29999",
"H  c #BD9999",
"J  c #A5A5A5",
"K  c #A7A8A8",
"L  c #ACABAB",
"P  c #B5B5B5",
"I  c #BBBBBB",
"U  c #C19E9E",
"Y  c #C4A4A4",
"T  c #C7AAAA",
"R  c #C9ABAB",
"E  c #CEB4B4",
"W  c #D1B7B7",
"Q  c #D4BCBC",
"!  c #C5C5C5",
"~  c #CCCCCC",
"^  c #D6C1C1",
"/  c #D9C4C4",
"(  c #DECBCB",
")  c #D3D3D3",
"_  c #D8D7D7",
"`  c #DCDBDB",
"'  c #E0CFCF",
"]  c #E3D3D3",
"[  c #E5D7D7",
"{  c #E6D8D8",
"}  c #E3DCDC",
"|  c #E8DBDB",
" . c #EADEDE",
".. c #E2E0E0",
"X. c #E5E4E4",
"o. c #EBE0E0",
"O. c #EDE2E2",
"+. c #EAE7E7",
"@. c #EEE5E5",
"#. c #EAEAEA",
"$. c #EEECEC",
"%. c #EEEEEE",
"&. c #F0E7E7",
"*. c #F0E8E8",
"=. c #F3EDED",
"-. c #F4EEEE",
";. c gray95",
":. c #F7F2F2",
">. c #F6F4F4",
",. c #F8F7F7",
"<. c #FAF8F8",
"1. c #FBFBFB",
/* pixels */
"; ; ; ; ; ; ; ; ; ; ; ; ; ; ; ; : : > > ; ; ; ; ; ; ; ; ; ; ; ; ; ; ; ; ; ; ; ; ; ; ; ; ; ; ; ; ; ; ; ; ; ; ; ; ; ; ; ; ; ; ; ; ",
"; ; ; ; ; ; ; ; ; : > , 2 i d j z x b b k a 2 , , , , , , , , , , , , , , , , , > ; ; ; ; ; ; ; ; ; ; ; ; ; ; ; ; ; ; ; ; ; ; ; ",
"; ; ; ; ; - : < i h v A H E ^ ' { O.&.@.] E F S S S S S S S S S S S S S S S S S m d > ; ; ; ; ; ; ; ; ; ; ; ; ; ; ; ; ; ; ; ; ; ",
"; ; ; ; > s b H Q ' | *.:.=.X.` ) ~ ! ~ ` =.-.*.*.*.*.*.*.*.*.*.*.*.*.*.*.*.*.*.o.W h : ; ; ; ; ; ; ; ; ; ; ; ; ; ; ; ; ; ; ; ; ",
"; ; ; 1 n Q o.=.>.$.) I J V t w q 8 6 6 w V K K K L L L L L L L L L L L L L K P ` -.E h 1 > ; ; ; ; ; ; ; ; ; ; ; ; ; ; ; ; ; ; ",
"; ; ; d ( >.X.I V w 9 4 & # # O O O X O O $ & & & & & & & & & & & & & & & & & * N ..:.( Y M j a > ; ; ; ; ; ; ; ; ; ; ; ; ; ; ; ",
"; ; ; k  .` N * # X X X X X X X X X X X X X X X X X X X .   X X X X X X X X X X $ B ) ;.,.*.| Q S d : ; ; ; ; ; ; ; ; ; ; ; ; ; ",
"; ; ; d ( #.C 4 $ & * 6 9 9 6 $ O X X X X X X O O $ 4 q t B w $ X X X X X X X X X # 9 V P ) #.:.*./ n < ; ; ; ; ; ; ; ; ; ; ; ; ",
"; ; ; 2 F @.X.~ ! ! ~ ) ) ) ~ P e & X O * 9 e B K I ~ ) X.$.) t 8 $ X X X X X X X X O # * 9 e J ) ;. .A < ; ; ; ; ; ; ; ; ; ; ; ",
"; ; ; : a H ] *.-.@. .{ [ { O.=.` N # 9 P ` ..+.=.=.O.[  .<.;.! I t $ X $ 4 % O X X X X X O O & q P ;.[ z : ; ; ; ; ; ; ; ; ; ; ",
"; ; ; ; : 2 k Z S M b z z z n Q :.! q P =. ./ E Y S n z U =.#.J ! ) e # q c 7 O X X X X X X X X O 8 ~ -.U < ; ; ; ; ; ; ; ; ; ; ",
"; ; ; ; ; ; : : : : : : : : : n *.#.! $.] M d i < > : > M @.;.! ) >.~ 9 t G 0 O X X X X X X X X X O V $.^ s ; ; ; ; ; ; ; ; ; ; ",
"; ; ; ; ; ; ; ; ; ; ; ; ; ; - h ] <.>. .Z 2 : ; ; ; ; ; s T *.>.>.<.>.L q r 5 O X X X X X X X X X X q } ] l : ; ; ; ; ; ; ; ; ; ",
"; ; ; ; ; ; ; ; ; ; ; ; ; ; ; 2 S  .{ S 3 ; ; ; ; ; ; ; > a v F W [ >...t $ O X X X X X X X X X X X 8 `  .x : ; ; ; ; ; ; ; ; ; ",
"; ; ; ; ; ; ; ; ; ; ; ; ; ; ; ; < s s < ; ; ; ; ; ; ; ; ; ; ; > u h ^ :.P 4 X X X X X X X X X X X X 6 ) O.b > ; ; ; ; ; ; ; ; ; ",
"; ; ; ; ; ; ; ; ; ; ; ; ; ; ; ; ; - - ; ; ; ; ; ; ; ; ; ; ; ; ; ; > b  .` e # X X X X X X X X X X X w }  .x : ; ; ; ; ; ; ; ; ; ",
"; ; ; ; ; ; ; ; ; ; ; ; ; ; ; ; ; ; ; ; ; ; ; ; ; ; ; ; ; ; ; ; ; ; a Q $.C $ X X X X X X X X X X * P =.Q s ; ; ; ; ; ; ; ; ; ; ",
"; ; ; ; ; ; ; ; ; ; ; ; ; ; ; ; ; ; ; ; ; ; ; ; ; ; ; ; ; ; ; ; ; > k ( =.C & X X X X X X X X X # V #. .b > ; ; ; ; ; ; ; ; ; ; ",
"; ; ; ; ; ; ; ; ; ; ; ; ; ; ; ; ; ; ; ; ; ; ; ; ; ; ; ; ; ; ; ; : g W =.~ w # X X X X X X X X O w ) :.H 2 ; ; ; ; ; ; ; ; ; ; ; ",
"; ; ; ; ; ; ; ; ; ; ; ; ; ; ; ; ; ; ; ; ; ; ; ; ; ; ; ; ; ; ; : j E -.) t $ X X X X X X X X X & J ;.] f : ; ; ; ; ; ; ; ; ; ; ; ",
"; ; ; ; ; ; ; ; ; ; ; ; ; ; ; ; ; ; ; ; ; ; ; ; ; ; ; ; ; ; : j Q -.` N $ X X X X X X X X X X & K >.| b > ; ; ; ; ; ; ; ; ; ; ; ",
"; ; ; ; ; ; ; ; ; ; ; ; ; ; ; ; ; ; ; ; ; ; ; ; ; ; ; ; ; ; 2 H -...B 6 * $ O X X X X X X X X O w ) ,.Q y ; ; ; ; ; ; ; ; ; ; ; ",
"; ; ; ; ; ; ; ; ; ; ; ; ; ; ; ; ; ; ; ; ; ; ; ; ; ; ; ; ; ; 3 Y :.;.) ~ P q O X X X X X X X # 9 J X.<./ 2 ; ; ; ; ; ; ; ; ; ; ; ",
"; ; ; ; ; ; ; ; ; ; ; ; ; ; ; ; ; ; ; ; ; ; ; ; ; ; ; ; ; ; > n { <.<.<.! 8 O X X X X X X O q ! $.-.] n > ; ; ; ; ; ; ; ; ; ; ; ",
"; ; ; ; ; ; ; ; ; ; ; ; ; ; ; ; ; ; ; ; ; ; ; ; ; ; : > 2 s v Y  .<.>.~ e $ X X X X X X X 4 P =.( D k < ; ; ; ; ; ; ; ; ; ; ; ; ",
"; ; ; ; ; ; ; ; ; ; ; ; ; ; ; ; ; ; ; : > > 1 u s h z A T (  .=.$.) J q $ X X O # & $ O O e ` { b 2 : ; ; ; ; ; ; ; ; ; ; ; ; ; ",
"; ; ; ; ; ; ; ; ; ; ; ; ; : 1 3 a d j z b M F T ^ [ o.@.$.#.) P V 9 & O X X O & 9 w 4 O # B +.Q i ; ; ; ; ; ; ; ; ; ; ; ; ; ; ; ",
"; ; ; ; ; ; ; ; ; ; ; ; > d F E Q ^ ( [ O.*.$.+...` ) P C t 9 * # O X X X X O * 8 6 # X O B +./ d - ; ; ; ; ; ; ; ; ; ; ; ; ; ; ",
"; ; ; ; ; ; ; ; ; ; ; ; 3 H @.,.;.X.` ~ ! P K V t q 8 * $ O O X X X X X X X O O O O X X O q ) *.Y j > ; ; ; ; ; ; ; ; ; ; ; ; ; ",
"; ; ; ; ; ; ; ; ; ; ; ; a W $.P B e w 9 6 * & $ # O O X X X X X X X X X X X X X X X X X X & V ..=.] H h 1 ; ; ; ; ; ; ; ; ; ; ; ",
"; ; ; ; ; ; ; ; ; ; ; ; d / } e $ O O O X X X X X X X X X X X X X X X X X X X X X X X X X X & N ) ;.:.] U h , ; ; ; ; ; ; ; ; ; ",
"; ; ; ; ; ; ; ; ; ; ; ; d ( ` e # X X X X X X X X X X X X X X X X X X X X X X X X X X X X X X # 6 C ) $.=./ b 1 ; ; ; ; ; ; ; ; ",
"; ; ; ; ; ; ; ; ; ; ; ; a W +.C * # # # $ $ $ & * 6 8 9 q w e t N N N t w 4 + X X X X X X X X X X # 8 V ~ =./ k : ; ; ; ; ; ; ; ",
"; ; ; ; ; ; ; ; ; ; ; ; 2 S o.` L C C J K P I ! ~ ~ ) ) ` ` ....X.X.X.X.` L 9 O X X X X X X X X X X O $ w ! =.H 2 ; ; ; ; ; ; ; ",
"; ; ; ; ; ; ; ; ; ; ; ; : s Y o.$.$.$.$.=.=.:.=.@. .[ ' ( / ^ Q Q Q Q ^ @.;.C # X X X X X X X X X X X O 6 P ;.R u ; ; ; ; ; ; ; ",
"; ; ; ; ; ; ; ; ; ; ; ; ; : i n H T Y H H S A M b x z h h d s s i i i f Q ,.K $ X X X X X X X X X X X # N .. .M , ; ; ; ; ; ; ; ",
"; ; ; ; ; ; ; ; ; ; ; ; ; ; ; > < u 2 < < > : : : : : : : : ; ; ; ; ; 2 E ;.C # X X X X X X X X X X X & J $.Y i ; ; ; ; ; ; ; ; ",
"; ; ; ; ; ; ; ; ; ; ; ; ; ; ; ; ; ; ; ; ; ; ; ; ; ; ; ; ; ; ; ; ; ; ; g ( X.t O X X X X X X X X X X X & J @.H 2 ; ; ; ; ; ; ; ; ",
"; ; ; ; ; ; ; ; ; ; ; ; ; ; ; ; ; ; ; ; ; ; ; ; ; ; ; ; ; ; ; ; ; ; : Z *.~ 8 O X X X X O O X X X X X & J $.H 2 ; ; ; ; ; ; ; ; ",
"; ; ; ; ; ; ; ; ; ; ; ; ; ; ; ; ; ; ; ; ; ; ; ; ; ; ; ; ; ; ; ; ; ; i E =.J & X X X X & 9 4 O X X X X & J $.H 2 ; ; ; ; ; ; ; ; ",
"; ; ; ; ; ; ; ; ; ; ; ; ; ; ; ; ; ; ; ; ; ; ; ; ; ; ; ; ; ; ; ; ; > b o.` e # X X X O q V 8 O X X X X & J $.H 2 ; ; ; ; ; ; ; ; ",
"; ; ; ; ; ; ; ; ; ; ; ; ; ; ; ; ; ; ; ; ; ; ; ; ; ; ; ; ; ; ; ; ; 3 E =.P 4 O X X X & t e $ X X X X X & J $.H 2 ; ; ; ; ; ; ; ; ",
"; ; ; ; ; ; ; ; ; ; ; ; ; ; ; ; ; ; ; ; ; ; ; ; ; ; ; ; ; ; ; ; ; d [ X.N # X X X X * e 4 O X X X # # & J $.H 2 ; ; ; ; ; ; ; ; ",
"; ; ; ; ; ; ; ; ; ; ; ; ; ; ; ; ; ; ; ; ; ; ; ; ; ; ; ; ; ; ; ; ; z o.` q O X X X X # * O X X X & e B w L $.H 2 ; ; ; ; ; ; ; ; ",
"; ; ; ; ; ; ; ; ; ; ; ; ; ; ; ; ; ; ; ; ; ; ; ; ; ; ; ; ; ; ; ; ; n *.~ 8 O X X X X X X X X X O w ) #.~ ) *.H 2 ; ; ; ; ; ; ; ; ",
"; ; ; ; ; ; ; ; ; ; ; ; ; ; ; ; ; ; ; ; ; ; ; ; ; ; ; ; ; ; ; ; ; F :.! * X X X o o X X X X X # B $.<.<.<.*.A 1 ; ; ; ; ; ; ; ; ",
"; ; ; ; ; ; ; ; ; ; ; ; ; ; ; ; ; ; ; ; ; ; ; ; ; ; ; ; ; ; ; ; ; Y <.I $ X X X @ = + X X X X # V $.@. .O.R d > ; ; ; ; ; ; ; ; ",
"; ; ; ; ; ; ; ; ; ; ; ; ; ; ; : ; ; ; ; ; ; ; ; ; ; ; ; ; ; ; ; , E >.K # X X X + @ o X X X X # B $.^ k s u > ; ; ; ; ; ; ; ; ; ",
"; ; ; ; ; ; - - - - ; ; : u h h h d a i 2 2 < < < < < < < < < < s ^ ;.V O X X X X o X X X X X $ C ;.E 3 - ; ; ; ; ; ; ; ; ; ; ; ",
"; ; ; ; ; > u s p i u 2 d Y ( ' ( / ^ Q Q E E E E E E E E E E E Q *.$.t O X X X X X X O # 4 q B ) :.S 1 ; ; ; ; ; ; ; ; ; ; ; ; ",
"; ; ; ; 1 b W ( / Q E Y Q $.#.} X.$.;.:.>.,.,.,.,.,.,.,.<.,.,.,.,.<.` 9 O X X X X X O 4 B I _ +.=.Q g : ; ; ; ; ; ; ; ; ; ; ; ; ",
"; ; ; ; h ^ :.;.$.$.$.$.$.` V e e N N B B V V V B B B V V V V V V B e & X X X X X X $ B ..=.o.Q F h > ; ; ; ; ; ; ; ; ; ; ; ; ; ",
"; ; ; > n @.) B e N B V B q & O O O O O O O O O O O O O O O O O O O O O X X X X X X 9 ) *.T z s < : ; ; ; ; ; ; ; ; ; ; ; ; ; ; ",
"; ; ; > n @.` e # O # # # O X X X X X X X X X X X X X X X X X X X . . . . . . . . & K ;./ h : ; ; ; ; ; ; ; ; ; ; ; ; ; ; ; ; ; ",
"; ; ; ; d ^ :.` K w * $ # O X X X X X X X O # $ * 6 8 9 9 4 O * e N N N N N N N N L #.@.Z , ; ; ; ; ; ; ; ; ; ; ; ; ; ; ; ; ; ; ",
"; ; ; ; , x ^ *.=...~ L B w 9 6 4 * 4 6 9 e V P ~ ) ) ~ P w 4 C ` #.#.#.#.#.#.#.#.;.=.Y u ; ; ; ; ; ; ; ; ; ; ; ; ; ; ; ; ; ; ; ",
"; ; ; ; ; > s Z E ] @.$.+...) ! P P P ! ` X.=.>.` I P C w * N ` @.( ^ ^ ^ ^ ^ ^ ^ Q F i ; ; ; ; ; ; ; ; ; ; ; ; ; ; ; ; ; ; ; ; ",
"; ; ; ; ; ; ; > u j M H R / ] {  .o.o. . .[ *.>.C * # O # q ~ $.Y h i i i i i i i u > ; ; ; ; ; ; ; ; ; ; ; ; ; ; ; ; ; ; ; ; ; ",
"; ; ; ; ; ; ; ; ; : > 2 i d k v M A Z n x x Q :.V # X O 8 P $.Q h > ; ; ; ; ; ; ; ; ; ; ; ; ; ; ; ; ; ; ; ; ; ; ; ; ; ; ; ; ; ; ",
"; ; ; ; ; ; ; ; ; ; ; ; ; ; : > , 1 , > > 3 R =.V # O 6 L $.] v > ; ; ; ; ; ; ; ; ; ; ; ; ; ; ; ; ; ; ; ; ; ; ; ; ; ; ; ; ; ; ; ",
"; ; ; ; ; ; ; ; ; ; ; ; ; ; ; ; ; ; ; ; ; 3 R =.V $ 9 L #. .A 2 ; ; ; ; ; ; ; ; ; ; ; ; ; ; ; ; ; ; ; ; ; ; ; ; ; ; ; ; ; ; ; ; ",
"; ; ; ; ; ; ; ; ; ; ; ; ; ; ; ; ; ; ; ; ; 3 T :.I C ~ ;. .S 2 ; ; ; ; ; ; ; ; ; ; ; ; ; ; ; ; ; ; ; ; ; ; ; ; ; ; ; ; ; ; ; ; ; ",
"; ; ; ; ; ; ; ; ; ; ; ; ; ; ; ; ; ; ; ; ; 2 H -.>.;.:.' M 3 ; ; ; ; ; ; ; ; ; ; ; ; ; ; ; ; ; ; ; ; ; ; ; ; ; ; ; ; ; ; ; ; ; ; ",
"; ; ; ; ; ; ; ; ; ; ; ; ; ; ; ; ; ; ; ; ; > h Y / Q F h 1 ; ; ; ; ; ; ; ; ; ; ; ; ; ; ; ; ; ; ; ; ; ; ; ; ; ; ; ; ; ; ; ; ; ; ; "
};
