/* XPM */
static char *deb8e4bcca5646cca1bb34f6320faef2[] = {
/* columns rows colors chars-per-pixel */
"64 64 117 2 ",
"   c #060606",
".  c #0C0C0C",
"X  c #0F1010",
"o  c #161616",
"O  c #1A1A1A",
"+  c #242424",
"@  c #2C2525",
"#  c #2A2A2A",
"$  c #342A2A",
"%  c #353535",
"&  c #3B3636",
"*  c #3A3A3A",
"=  c #6B0101",
"-  c #6D0C0C",
";  c #700E0E",
":  c #6E1212",
">  c #711515",
",  c #741B1B",
"<  c #781F1F",
"1  c #502424",
"2  c #762323",
"3  c #792525",
"4  c #772828",
"5  c #7B2B2B",
"6  c #7E3232",
"7  c #434343",
"8  c #4B4B4B",
"9  c #535353",
"0  c #5B5B5B",
"q  c #6E4A4A",
"w  c #7B4A4A",
"e  c #625E5E",
"r  c #725252",
"t  c #7F5353",
"y  c #646363",
"u  c #6B6B6B",
"i  c #747474",
"p  c #7C7C7C",
"a  c #802E2E",
"s  c #813535",
"d  c #843B3B",
"f  c #883E3E",
"g  c #874040",
"h  c #8A4444",
"j  c #8C4B4B",
"k  c #924E4E",
"l  c #8F5151",
"z  c #925353",
"x  c #955B5B",
"c  c #995E5E",
"v  c #9A6262",
"b  c #9D6B6B",
"n  c #997272",
"m  c #A16C6C",
"M  c #A57272",
"N  c #A87676",
"B  c #A57979",
"V  c #AA7B7B",
"C  c #828282",
"Z  c #8C8C8C",
"A  c #939393",
"S  c #9B9B9B",
"D  c #A38080",
"F  c #AE8282",
"G  c #B18686",
"H  c #B48B8B",
"J  c #B79191",
"K  c #BA9595",
"L  c #BE9A9A",
"P  c #9FA0A0",
"I  c gray64",
"U  c #AAAAAA",
"Y  c #B3B3B3",
"T  c #BBBCBC",
"R  c #C09E9E",
"E  c #C4A3A3",
"W  c #C6A9A9",
"Q  c #C9ABAB",
"!  c #CEB5B5",
"~  c #D2B7B7",
"^  c #D4BCBC",
"/  c #C4C4C4",
"(  c #C8C7C7",
")  c #CCCCCC",
"_  c #D6C1C1",
"`  c #D9C4C4",
"'  c #D0CFCF",
"]  c #DDCBCB",
"[  c #D4D4D4",
"{  c #D9D7D7",
"}  c #DCDBDB",
"|  c #E0CECE",
" . c #E3D4D4",
".. c #E6D8D8",
"X. c #E7DBDB",
"o. c #E8DCDC",
"O. c #EADFDF",
"+. c #E1E1E1",
"@. c #E4E4E4",
"#. c #E7E7E7",
"$. c #EBE0E0",
"%. c #EDE3E3",
"&. c #E8E7E7",
"*. c #EBE9E9",
"=. c #EDE9E9",
"-. c #EEEEEE",
";. c #F0E7E7",
":. c #F0E8E8",
">. c #F3EDED",
",. c #F0EFEF",
"<. c #F2F1F1",
"1. c #F4F2F2",
"2. c #F5F4F4",
"3. c #F7F4F4",
"4. c #F8F5F5",
"5. c #FAF8F8",
"6. c #FCFCFC",
/* pixels */
": : : : : : : : : : : : : : : : : : : : : : : : : : : : : : : : : : : : : : : : : : : : : : : : : : : : : : : : : : : : : : : : ",
": : : : : : : : : : : : : : : : : : : : : : : : : : : : : : : : : : : : : : : : : : : : : : : : : : : : : : : : : : : : : : : : ",
": : : : : : : : : : : : : : : : : : : : : : : : : : : : : : : : : : : : : : : : : : : : : : : : : : : : : : : : : : : : : : : : ",
": : : : : : : : : : : : : : : : : : : : : : : : : : : : : : : : : : : : : : : : : : : : : : : : : : : : : : : : : : : : : : : : ",
": : : : : : : : : : : : : : : : : : : : : : : : : : : : : : : : : : : : : : : : : : : : : : : : : : : : : : : : : : : : : : : : ",
": : : : : : : : : : : : : : : : : : : : : : : : : : : : : : : : : : : : : : : : : : : : : : : : : : : : : : : : : : : : : : : : ",
": : : : : : : : : : : : : : : : : : : : : : : : : : : : : : : : : : : : : : : : : : : : : : : : : : : : : : : : : : : : : : : : ",
": : : : : : : : : : : : : : : : : : : : : : : : : : : : : : : : : : : : : : : : : : : : : : : : : : : : : : : : : : : : : : : : ",
": : : : : : : : : : : : : : : : : : : : : : : : : : : : : : : : : : : : : : : : : : : : : : : : : : : : : : : : : : : : : : : : ",
": : : : : : : > > > > > > > > > > > > > > > > : : : : : : : : : : : : : > > > < 2 4 6 d g h j l z x c v v c z h 4 > : : : : : : ",
": : : : < h c v v v v v v v v v c c v v v v v x g < - : : : : : : : < h v M F H L W ! ^ ^ _ ` ]  ...O.O.O...| _ E v 2 : : : : : ",
": : : 4 F ] O.O.O.O.O.O.O.O.O.O.O.O.O.O.O.O.O...` J x 4 : : : : : : m ] O.$.:.,.1.4.4.-.#.} [ ) ( ( / / / / ) #.1...F 4 : : : : ",
": : 3 F O.,.) / / / / / / / / / / / / / / / / ' *.,...E z > : : : < W 5.#.( Y U S Z p i u 0 9 8 8 7 7 7 7 7 8 u Y -...b > : : : ",
": : j ] 2.I 7 * * * * & * * * * * * * * * * * 7 C / #.2.^ f : : : > E 4.( 9 % # + o o o o o o o o o o o o o o o * U ,.E 3 : : : ",
": : j ] 2.A # o o o o o o o o o o o o o o o o o O * A -.;.z : : : - v $.#.p O o o o o o o o o o o o o o o o O + + i *.` 6 : : : ",
": : 3 J :.&.I 0 # o o o o o o o o o o o o o o o + 9 Y 1.^ d : : : : , R ,.Y * o o o o o o o o o o o o + 8 i A Y / [ 5.` s : : : ",
": : : s J ..,.) S 0 # o o o o o o o o o o o * i S ( ,.] c > : : : : : l ..} y o o o o o o o o o o o # p / #.=.:.:.;. .G 2 : : : ",
": : : : 4 b Q $.-.[ U u & o o o o o o o o * U +.<.:._ b < : : : : : : 5 W =.A + o o o o o o o o o + Z } %._ R G V b x 5 : : : : ",
": : : : : > s M Q O.,.} C O o o o o o o o y } :.! F j > : : : : : : : > F :.Y % o o o o o o o o o i } %.K h 4 < > > : : : : : : ",
": : : : : : : > s b ^ 1.I + o o o o o o o u +.] k , : : : : : : : : : : v O.( 7 o o o o o o o o * T 1.W s : : : : : : : : : : : ",
": : : : : : : : : , K 1.U + o o o o o o o u +._ f : : : : : : : : : : : j ] { 0 o o o o o o o o y +.=.x > : : : : : : : : : : : ",
": : : : : : : : : ; H 1.Y + o o o o o o o u +._ f : : : : : : : : : : : d ` #.u o o o o o o o O C -.` 5 : : : : : : : : : : : : ",
": : : : : : : : : = G 1.T + o o o o o o o u +._ d : : : : : : : : : : : 5 ^ *.i o o o o o o o + A <.Q 3 : : : : : : : : : : : : ",
": : : : : : : : : = F 2./ # o o o o o o o i +._ d : : : : : : : : : : : 3 ^ ,.p o o o o o o o + S 2.L < : : : : : : : : : : : : ",
": : : : : : : : : = V ,.( % o o o o o o o i #._ d : : : : : : : : : : : < ! 1.C o o o o o o o # I 2.H < : : : : : : : : : : : : ",
": : : : : : : : : - M :.( * o o o o o o o i #.^ s : : : : : : : : : : : < ! <.C o o o o o o o # I 2.J < : : : : : : : : : : : : ",
": : : : : : : : : - m %.) 7 o o o o o o o i #.^ s : : : : : : : : : : : 3 ^ -.p o o o o o o o + S 2.R 2 : : : : : : : : : : : : ",
": : : : : : : : : - v O.' 8 o o o o o o o i #.^ s : : : : : : : : : : : 5 ^ -.i o o o o o o o + Z <.Q 3 : : : : : : : : : : : : ",
": : : : : : : : : - x ..[ 8 o o o o o o o i #.] m l d > = = = = = = = = z ] *.i o o o o o o o O C -.^ 5 : : : : : : : : : : : : ",
": : : : : : : : : - z ..[ 9 o o o o o o o i #.4.$...] ^ W K H H H H H K ] 1.) 9 o o o o o o o o i *.] s : : : : : : : : : : : : ",
": : : : : : : : : - j  .} 0 o o o o o o o 0 Y [ } #.-.<.2.<.,.,.,.,.,.,.-.( u + o o o o o o o o u #.O.s : : : : : : : : : : : : ",
": : : : : : : : : : h ] +.y o o o o o o o o # 7 0 u C A I U Y Y Y Y Y U Z 8 O o o o o o o o o o 0 +.:.g : : : : : : : : : : : : ",
": : : : : : : : : : f ` #.u o o o o o o o o o o o o O O + # & & & & & % + o o o o o o o o o o o 9 } ,.z : : : : : : : : : : : : ",
": : : : : : : : : : s _ *.i o o o o o o o o o o o o o o o o o o o o o o o o o o o o o o o o o o 8 ) ,.c > : : : : : : : : : : : ",
": : : : : : : : : : 5 ^ <.i o o o o o o o o o o o o o o o o o o o o o o o o o o o o X o o o o o 7 ( ,.m > : : : : : : : : : : : ",
": : : : : : : : : : 4 ^ 2.C o o o o o o o o o o o o o o o o o o o o o o o o o o o + y e + o o o y } ,.M > : : : : : : : : : : : ",
": : : : : : : : : : 2 ! 6.S 0 0 0 0 0 0 0 0 0 0 0 0 0 0 0 0 0 0 0 0 0 0 0 * o o o $ w t $ o o * T 5.$.z : : : : : : : : : : : : ",
": : : : : : : : : : , R 4.-.#.#.#.#.#.#.#.#.#.#.#.#.#.#.#.#.#.#.#.#.#.+.[ C + o o @ q r $ o o * T 6.~ a : : : : : : : : : : : : ",
": : : : : : : : : : : v ^ ..........................................:.6.[ 0 o o o o & & O o o + C *.%.F 3 : : : : : : : : : : : ",
": : : : : : : : : : : , s g g g g f f f f f g g g g g g g g g g g d L 1./ & o o o o o o o o o o * U <...b > : : : : : : : : : : ",
": : : : : : : : : : : : : : : : : : : : : : : : : : : : : : : : : = J 4.T # o o o o o o o o o o o u } 2.J 2 : : : : : : : : : : ",
": : : : : : : : : : : : : : : : : : : : : : : : : : : : : : : : : = J 4.T # % # o o + O o o o o # U <.:.F < : : : : : : : : : : ",
": : : : : : : : : : : : : : : : : : : : : : : : : : : : : : : : : = G 1.) Z U y o O 0 9 o o o o * ( 1.L d : : : : : : : : : : : ",
": : : : : : : : : : : : : : : : : : : : : : : : : : : : : : : : : > J 1.2.-.*.i o + A C O o o o 7 ( ,.m > : : : : : : : : : : : ",
": : : : : : : : : : : : : : : : : : : : : : : : : : : : : : : : 2 V  .,.6.6.<.p o # I A + o o o * ( ,.m > : : : : : : : : : : : ",
": : : : : : : : : : : : : : : : : : : : : : : : : : : : : : : : j ^ W b ! 4.2.C o # I A + o o o & T ,.V > : : : : : : : : : : : ",
": : : : : : : : : : : : : : : : : : : : : : : : : : : : : : : : c ^ n 1 B ;.2.C o + A Z O o o o + Y 1.J , : : : : : : : : : : : ",
": : : : : : : : : : : : : : : : : : : : : : : : : : : : : : : : j ~ ! D ! 4.2.C o + i u O o o o o S 2.Q 3 : : : : : : : : : : : ",
": : : : : : : : : : : : : : : : : : : : : : : : : : : : : : : : 3 G  ..._ O.2.C o o & & o o o o . C -.] f : : : : : : : : : : : ",
": : : : : : : : : : : : : : : : : : : : : : : : : : : : : : : : : 4 z c k ^ 1.C o o o o o o o o o 9 } $.b > : : : : : : : : : : ",
": : : : : : : : : : : : : : : : : : : : : : : : : : : : : : : : : : : : 3 ^ ,.p o o o o o o o o o O Y ,.L 4 : : : : : : : : : : ",
": : : : : : : : : : : : : : : : : : : : : : : : : : : : : : : : : : : : s _ &.i o o o o o o o o o o i #.| z > : : : : : : : : : ",
": : : : : : : : : : : : : : : : : : : : : : : : : : : : : : : : : > < j G O.} 0 o o o o o o o o o o * T ,.Q f : : : : : : : : : ",
": : : : : : : : : : : : : : : : : : : : : : : : : : : : : : > 4 h N Q | :.-.U * o o o o o o o o o o O u [ :.E j 2 : : : : : : : ",
": : : : : : : : : : : : : : : : : : : : : : : : : : : > 5 l N E | %.-.} T Z 8 O o o o o o o o o o o o + C } ,.] K V c 6 > : : : ",
": : : : : : : : : : : : : : : : : : : : : : : : : 3 l V Q ] %.&.{ T A y * O o o o o o o o o o o o o o o # i / &.1.:. .K 5 : : : ",
": : : : : : : : : : : : : : : : : : : : : : : : d K  .;.,.} Y Z y * + o o o o o o o o o o o o o o o o o o + 8 p I ( 2...z : : : ",
": : : : : : : : : : : : : : : : : : : : : : : > M O.4.[ A u 7 # O o o o o o o o o o o o o o o o o o o o o + & 8 y T 2.` g : : : ",
": : : : : : : : : : : : : : : : : : : : : : : > b O.6.-.[ / Y U S Z p y 9 & o o o o o o o o o .   + 7 u C S Y ( } 2.O.m , : : : ",
": : : : : : : : : : : : : : : : : : : : : : : : 6 K O.,.,.,.<.<.<.<.-.+.[ ( U 0 # + # # & 8 u Z U T ) +.,.<.,.,.,...N 3 : : : : ",
": : : : : : : : : : : : : : : : : : : : : : : : : 4 g z b N H L Q ^ ]  ...:.<.[ U P U T ) } +.=.1.,.O. ._ E G m z g < : : : : : ",
": : : : : : : : : : : : : : : : : : : : : : : : : : : : > > , < < 3 a g x V ! O.%.%.%.%.$...] ! R F v h 5 < > > : : : : : : : : ",
": : : : : : : : : : : : : : : : : : : : : : : : : : : : : : : : : : : : > , d v F H G V b x j d 3 > > : : : : : : : : : : : : : ",
": : : : : : : : : : : : : : : : : : : : : : : : : : : : : : : : : : : : : : : > < 2 2 , > : : : : : : : : : : : : : : : : : : : "
};
