/* XPM */
static char *_068882089fa4ab1a06775f37a75c211[] = {
/* columns rows colors chars-per-pixel */
"64 64 116 2 ",
"   c #0D0D0D",
".  c #161616",
"X  c #1B1B1B",
"o  c #232323",
"O  c #2C2C2C",
"+  c #332F2F",
"@  c #333232",
"#  c #3C3C3C",
"$  c #6D0E0E",
"%  c #6E1212",
"&  c #711515",
"*  c #731C1C",
"=  c #533E3E",
"-  c #742222",
";  c #792323",
":  c #762929",
">  c #7B2B2B",
",  c #7E3232",
"<  c #7E3939",
"1  c #444444",
"2  c #4D4D4D",
"3  c #534040",
"4  c #555555",
"5  c #5C5555",
"6  c #5C5C5C",
"7  c #605959",
"8  c #636363",
"9  c #686767",
"0  c #6B6B6B",
"q  c #736565",
"w  c #747474",
"e  c #7B7B7B",
"r  c #823535",
"t  c #833B3B",
"y  c #864242",
"u  c #894545",
"i  c #864A4A",
"p  c #8C4C4C",
"a  c #904F4F",
"s  c #8F5252",
"d  c #925454",
"f  c #955B5B",
"g  c #995E5E",
"h  c #9B6262",
"j  c #926D6D",
"k  c #9D6B6B",
"l  c #927171",
"z  c #9F7070",
"x  c #A16D6D",
"c  c #A57474",
"v  c #A97676",
"b  c #A77A7A",
"n  c #AA7B7B",
"m  c #848484",
"M  c #8B8B8B",
"N  c #939393",
"B  c #9C9C9C",
"V  c #AF8484",
"C  c #AE8989",
"Z  c #B18484",
"A  c #B48C8C",
"S  c #B99393",
"D  c #BE9B9B",
"F  c #A4A4A4",
"G  c #ABABAB",
"H  c #B0AFAF",
"J  c #B3B3B3",
"K  c #BCBCBC",
"L  c #C19E9E",
"P  c #C3A3A3",
"I  c #C7A8A8",
"U  c #CAADAD",
"Y  c #CDB2B2",
"T  c #D0B5B5",
"R  c #D4BCBC",
"E  c #BFC0C0",
"W  c #C3C3C3",
"Q  c #C8C7C7",
"!  c #CBCBCB",
"~  c #D7C1C1",
"^  c #D9C5C5",
"/  c #D0CFCF",
"(  c #DECDCD",
")  c #CFD0D0",
"_  c #D5D5D5",
"`  c #DAD5D5",
"'  c #D7D8D8",
"]  c #D8D8D8",
"[  c #DADBDB",
"{  c #DDDDDD",
"}  c #E0CFCF",
"|  c #E2D2D2",
" . c #E3D4D4",
".. c #E6D9D9",
"X. c #E6DADA",
"o. c #E9DCDC",
"O. c #E9DDDD",
"+. c #E2E1E1",
"@. c #E3E2E2",
"#. c #E7E6E6",
"$. c #EBE1E1",
"%. c #ECE2E2",
"&. c #E8E6E6",
"*. c #EFE4E4",
"=. c #EBE9E9",
"-. c #EEE8E8",
";. c #ECECEC",
":. c #EFEEEE",
">. c #F1E8E8",
",. c #F3EFEF",
"<. c #F3F1F1",
"1. c #F5F2F2",
"2. c #F6F4F4",
"3. c #F7F4F4",
"4. c #F8F5F5",
"5. c #FCF9F9",
/* pixels */
"% % % % % % % % % % % % % % % % % % % % % % % % % % % % % % % % % % % % % % % % % % % % % % % % % % % % % % % % % % % % % % % % ",
"% % % % % % % % % % % % % % % % % % % % % % % % % % % % % % % % % % % % % % % % % % % % % % % % % % % % % % % % % % % % % % % % ",
"% % % % % % % % % % % % % % % % % % % % % % % % % % % % % % % % % % % % % % % % % % % % % & & & % % % % % % % % % % % % % % % % ",
"% % % % % % % % % $ $ $ $ $ $ $ $ $ $ $ $ $ $ $ $ $ $ $ $ $ $ $ $ $ $ $ $ $ $ % % * : r p x V c t * % % % % % % % % % % % % % % ",
"% % % % % % * t f h h h h h h h h h h h h h h h h h h h h h h h h h h h h h h h x Z P R | o.*.$.Y f * % % % % % % % % % % % % % ",
"% % % % % % p I ..*.*.*.*.*.*.*.*.*.*.*.*.*.*.*.*.*.*.*.*.*.*.*.*.*.*.*.*.*.*.*.*.-.-.:.=.] Q ] ,.R u % % % % % % % % % % % % % ",
"% % % % % * b *.:.] _ _ _ _ _ _ _ _ _ _ _ _ _ _ _ _ _ _ _ _ _ _ _ _ _ _ _ _ _ _ _ W F M w 6 2 e _ ,.Z & % % % % % % % % % % % % ",
"% % % % % * n >.! 9 2 2 2 2 2 2 2 2 2 2 2 2 2 2 2 2 2 2 2 2 2 2 2 2 2 2 2 2 2 2 2 1 @ o X . . @ G <.I * % % % % % % % % % % % % ",
"% % % % % * k o.! 4 X . . . . . . . . . . . . . . . . . . . . . . . . . . . . . . . . . . . . O F <.P * % % % % % % % % % % % % ",
"% % % % % & f ( ] 9 X . . . . . . . . . . . . . . . . . . . . . . . . . . . . . . . . . . . . # J <.A & % % % % % % % % % % % % ",
"% % % % % % i R &.e X . . . . . . . . . . . . . . . . . . . . . . . . . . . . . . . . . . . X 9 _ *.h % % % % % % % % % % % % % ",
"% % % % % % < Y 1.M X . . . . . . . . . . . . . . . . . . . . . . . . . o O O o X . . . . . # F :.Y r % % % % % % % % % % % % % ",
"% % % % % % : P 1.B O . . . . . . . . . . o O @ @ @ @ @ @ @ @ @ @ @ @ # e B B N e 4 o . . X 0 _ 1.D : % % % % % % % % % % % % % ",
"% % % % % % - A >.J # . . . . . . . . . X 6 B F F F F F F F F F F F F J { ,.:.-.#.W 6 X . X 8 W <...g & % % % % % % % % % % % % ",
"% % % % % % * v $.! 1 . . . . . . . . . o M #.<.-.-.-.-.-.-.-.-.-.-.-.-.>.} R R o.<.M X . . O w ] 3.n & % % % % % % % % % % % % ",
"% % % % % % & h ..+.4 . . . . . . . . . o M =.| D A A A A A A A A A A A V g t a R 1.N X . . @ B =.%.g % % % % % % % % % % % % % ",
"% % % % % % $ p ( <.9 . . . . . . . . . o M &.U y - - - - - - - - - - - * & % > I 1.J # X X 9 _ >.S : % % % % % % % % % % % % % ",
"% % % % % % $ t R 1.m X . . . . . . . . o M &.U t % % % % % % % % % % % % % % & n *.=.G m e F :.R u % % % % % % % % % % % % % % ",
"% % % % % % % > I ,.B o . . . . . . . . o M &.U t % % % % % % % % % % % % % % % t D %.,.=.=.<.3.P > % % % % % % % % % % % % % % ",
"% % % % % % % * S ,.K O . . . . . . . . o M &.U t % % % % % % % % % % % % % % % % t n P R ^ ( U h * % % % % % % % % % % % % % % ",
"% % % % % % % & n >._ # . . . . . . . . o M &.Y u : : : : : : : - * * & % % % % % % - , t y u t - % % % % % % % % % % % % % % % ",
"% % % % % % % $ x %.+.2 . . . . . . . . o M -...U P P P P D D S A n x g i < - & $ % % % % % % % % % % % % % % % % % % % % % % % ",
"% % % % % % % $ f | &.9 X . . . . . . . o M <.5.5.5.5.5.5.4.3.1.,.*.o.| ^ Y S v d ; $ % % % % % % % % % % % % % % % % % % % % % ",
"% % % % % % % $ u ~ -.m X . . . . . . . X 6 N B B B B B B B F G H K ! +.1.4.,.*.} U n y * % % % % % % % % % % % % % % % % % % % ",
"% % % % % % % % > Y <.F o . . . . . . . . X o o o o o o o o O O @ # 2 6 0 M K +.<.3.>.( S p - % % % % % % % % % % % % % % % % % ",
"% % % % % % % % * L 4.K O . . . . . . . . . . . . . . . . . . . . . . . . X O 2 e K { <.,.^ V y * % % % % % % % % % % % % % % % ",
"% % % % % % % % % A 1.! # . . . . . . . . . . . . . . . . . . . . . . . . . . . X O 8 B ! :.*.Y h * % % % % % % % % % % % % % % ",
"% % % % % % % % % v *._ 4 X . . . . . . . . . . . . . . . . . . . . . . . . . . . . X O 6 B { <.( x - % % % % % % % % % % % % % ",
"% % % % % % % % % g ..{ 9 X . . . . . . . . . . . . . . . . . . . . . . . . . . . . . . X # e ! ,.| v - % % % % % % % % % % % % ",
"% % % % % % % % % i ( :.e X . . . . . . . . . . . . . . . . . . . . . . . . . . . . . . . . o 9 K ,.| k * % % % % % % % % % % % ",
"% % % % % % % % % < R 5.G 2 .                         . . . . . . . . . . . . . . . . . . . . X 6 W 1.^ d * % % % % % % % % % % ",
"% % % % % % % % % : S 1.:.W F N M m m m m m m m e e w 0 8 6 2 @ O X . . . . . . . . . . . . . . X 8 _ 1.U t % % % % % % % % % % ",
"% % % % % % % % % % t D o.4.4.3.<.,.,.,.,.,.,.:.:.=.=.#...] _ ! J M 8 # X . . . . . . . . . . . . o m #.%.c * % % % % % % % % % ",
"% % % % % % % % % % % * g D R ^ ( ( ( ( ( ( ( ` | |  . .....%.,.1.-.{ J m 1 X . . . . . . . . . . . # G ,.Y t % % % % % % % % % ",
"% % % % % % % % % % % % & * ; , t y y y y y u u p p d d f h c A D R %.,.#.K w O X . . . . . . . . . . 9 _ $.v * % % % % % % % % ",
"% % % % % % % % % % % % % % % % % % % % % % % % % % & & & & * * : u x P ..,._ M # X . . . . . . . . . O F :.U r % % % % % % % % ",
"% % % % % % % % % % % % % % % % % % % % % % % % % % % % % % % % % % * > x R >.+.N # X . . . . . . . . . 0 { | f & % % % % % % % ",
"% % % % % % % % % % % % % % % % % % % % % % % % % % % % % % % % % % % % * p D o.+.N O . . . . . . . . . # W &.n * % % % % % % % ",
"% % % % % % % % % % % % % % % % % % % % % % % % % % % % % % % % % % % % % & t D *.{ e X . . . . . . . . O B &.L , % % % % % % % ",
"% % % % % % % % % % % % % % % % % % % % % % % % % % % % % % % % % % % % % % % y Y 1./ 4 X . . . . . . . X e #.~ u % % % % % % % ",
"% % % % % % % % % % % % % % % % % % % % % % % % % % % % % % % % % % % % % % % & f } 3.F O . . . . . . . . 8 {  .f & % % % % % % ",
"% % % % % % % % % % % % % % % % % % % % % % % % % % % % % % % % % % % % % % % % * A ,.' 8 X . . . . + 5 # 4 )  .h * % % % % % % ",
"% % % % % % % % % % % % % % % % % % % % % % % % % % % % % % % % % % % % % % % % % i ( <.N O . . . X 3 l q 4 W  .k * % % % % % % ",
"% % % % % % % % % % % % % % % % % % % % % % % % % % % % % % % % % % % % % % % % % : D ,.K 1 . . . X = j q 4 K ..c * % % % % % % ",
"% % % % % % % % % % % % % % % % % % % % % % % % % % % % % % % % % % % % % % % % % & k %.{ 9 X . . . @ 7 1 1 K o.n * % % % % % % ",
"% % % % % % % % % % % % % % * : * $ $ % % % % % % % % % % % % % % % % % % % % % % % i ^ -.M o . . . X X X 1 K o.n * % % % % % % ",
"% % % % % % % % % % % % & p S I L V d * % % % % % % % % % % % % % % % % % % % % % % : P ,.G O . . . . . . 2 W ..x * % % % % % % ",
"% % % % % % % % % % % % : U ,.1.1.,.| P g > & % % % % % % % % % % % % % % % % % % % $ C ,.W # . . . . . . 4 _  .h * % % % % % % ",
"% % % % % % % % % % % % u | :.J F _ :.1.o.I h , & % % % % % % % % % % % % % % % % % $ z $._ 4 . . . . . X 9 +.} s & % % % % % % ",
"% % % % % % % % % % % * V *.] 9 o 1 m K #.,. .I k > & % % % % % % % % % % % % % % % $ f  .{ 0 X . . . . o M &.Y t % % % % % % % ",
"% % % % % % % % % % % k  .1.K 2 . . X 1 e J +.,...U x r * % % % % % % % % % % % % % & b $.+.w X . . . . # K *.A - % % % % % % % ",
"% % % % % % % % % % : P ,.! w o . . . X o 1 e J { ,.o.T n p > * % % % % % % % % % & d ~ ,.J 1 X . . . X w +.| g & % % % % % % % ",
"% % % % % % % % % % < Y :.M O . . . . . . . o # w G ] -.%.~ L c p , * $ $ $ $ % $ t I ,.! 6 X . . . . 1 K -.L > % % % % % % % % ",
"% % % % % % % % % % y R -.e X . . . . . . . . . X @ 8 B W ..>.o.^ I V h p u t t i S *.+.e o . . . . O N &.| g & % % % % % % % % ",
"% % % % % % % % % % i ^ :.e X . . . . . . . . . . . X O 2 e F ! :.1.>.o.( ^ R R ^ *.:.B @ . . . . O m { *.A : % % % % % % % % % ",
"% % % % % % % % % % i ( :.w X . . . . X X X . . . . . . X X @ 2 w B ! #.<.1.1.1.1.=.F # X . . . @ m { 1.U t % % % % % % % % % % ",
"% % % % % % % % % % i ( :.w X . . . O 9 e e w 9 4 1 @ o . . . . . o @ 2 8 w m M m 6 O . . . X 2 B +.1.R s & % % % % % % % % % % ",
"% % % % % % % % % % y ~ :.m o . . O M _ :.:.#.{ ! K J F N m 0 6 1 @ o X X X X X X . . X o # e E =.>.U p & % % % % % % % % % % % ",
"% % % % % % % % % % : I 1.J 1 X @ M { 1.o. . ...o.$.*.,.,.=.{ _ ! W J B M w 8 4 2 2 6 w N W +.-.( A y & % % % % % % % % % % % % ",
"% % % % % % % % % % & b %.#.F m F +.,.Y g i p f h v A L U R ^ } ..*.,.:.&.+.{ { ] ] ] +.=.*.( D f : % % % % % % % % % % % % % % ",
"% % % % % % % % % % % , D o.:.-.,.$.I p & % % & & * * ; ; r u f h n A I R ( o.%.%.o.| ~ U Z d > & % % % % % % % % % % % % % % % ",
"% % % % % % % % % % % % t n I R U n t & % % % % % % % % % % % & & & * > y p f h h g d u r * & % % % % % % % % % % % % % % % % % ",
"% % % % % % % % % % % % % - , t , - % % % % % % % % % % % % % % % % % % % % & & & % % % % % % % % % % % % % % % % % % % % % % % ",
"% % % % % % % % % % % % % % % % % % % % % % % % % % % % % % % % % % % % % % % % % % % % % % % % % % % % % % % % % % % % % % % % "
};
