/* XPM */
static char *_5a90725d16a4ced9b463c9e01645a33[] = {
/* columns rows colors chars-per-pixel */
"64 64 125 2 ",
"   c #0E0E0E",
".  c #161616",
"X  c #181717",
"o  c #171818",
"O  c #1B1B1B",
"+  c #211F1F",
"@  c #232323",
"#  c #292727",
"$  c #2C2C2C",
"%  c #332D2D",
"&  c #343434",
"*  c #3B3535",
"=  c #3B3A3A",
"-  c #6B0303",
";  c #6D0D0D",
":  c #700E0E",
">  c #6E1212",
",  c #711414",
"<  c #731B1B",
"1  c #413C3C",
"2  c #4C3C3C",
"3  c #523F3F",
"4  c #762323",
"5  c #792525",
"6  c #7A2B2B",
"7  c #7E3434",
"8  c #444444",
"9  c #4C4C4C",
"0  c #534242",
"q  c #524949",
"w  c #5D4D4D",
"e  c #545454",
"r  c #5E5555",
"t  c #5B5B5B",
"y  c #6A4F4F",
"u  c #744E4E",
"i  c #645656",
"p  c #6C5353",
"a  c #7A5555",
"s  c #705D5D",
"d  c #646464",
"f  c #6A6363",
"g  c gray42",
"h  c #7B6B6B",
"j  c gray45",
"k  c #7B7B7B",
"l  c #813535",
"z  c #833B3B",
"x  c #864242",
"c  c #894444",
"v  c #854848",
"b  c #8D4C4C",
"n  c #845454",
"m  c #8F5353",
"M  c #8F5A5A",
"N  c #915454",
"B  c #965D5D",
"V  c #9A5E5E",
"C  c #976161",
"Z  c #9A6363",
"A  c #946D6D",
"S  c #9D6A6A",
"D  c #967C7C",
"F  c #A16D6D",
"G  c #A57373",
"H  c #A87676",
"J  c #A67979",
"K  c #AB7C7C",
"L  c #848484",
"P  c #8C8C8C",
"I  c #908080",
"U  c #939393",
"Y  c #9C9C9C",
"T  c #AE8383",
"R  c #B18686",
"E  c #B48B8B",
"W  c #B79090",
"Q  c #BA9494",
"!  c #BD9B9B",
"~  c #A4A4A4",
"^  c #ACACAC",
"/  c #B3B3B3",
"(  c #BBBBBB",
")  c #C09E9E",
"_  c #C4A4A4",
"`  c #C6AAAA",
"'  c #CAAEAE",
"]  c #CDB3B3",
"[  c #D0B6B6",
"{  c #D3BBBB",
"}  c #C5C5C5",
"|  c #C7C8C8",
" . c #CCCCCC",
".. c #D7C1C1",
"X. c #DAC5C5",
"o. c #DECCCC",
"O. c #D3D3D3",
"+. c #DCDCDC",
"@. c #E0CFCF",
"#. c #E3D4D4",
"$. c #E5DBDB",
"%. c #E8DADA",
"&. c #E9DEDE",
"*. c #EADFDF",
"=. c #E2E2E2",
"-. c #E5E4E4",
";. c #E6E6E6",
":. c #EBE2E2",
">. c #EDE3E3",
",. c #EBE4E4",
"<. c #ECE4E4",
"1. c #E7E8E8",
"2. c gray91",
"3. c #EDEBEB",
"4. c #EEEEEE",
"5. c #F1E7E7",
"6. c #F1EBEB",
"7. c #F3ECEC",
"8. c #F5EEEE",
"9. c #F1F1F1",
"0. c #F6F0F0",
"q. c #F7F6F6",
"w. c #F8F6F6",
"e. c #FBF8F8",
"r. c #FBFAFA",
/* pixels */
"> > > > > > > > > > > > > > > > > > > > > > > > > > > > > > > > > > > > > > > > > > > > > > > > > > > > > > > > > > > > > > > > ",
"> > > > > > > > > > > > > > > > > > > > > > > > > > > > > > > > > > > > > > > > > > > > > : < 5 , > > > > > > > > > > > > > > > ",
"> > > > > > > > > > > > > > > > > > > > > > > > > > > > > > > > > > > > > > > > > > > , c E ' { ) c > > > > > > > > > > > > > > ",
"> > > > > > > > > > > > > > > > > > > > > > > > > > > > > > > > > > > > > > > > > > < Z ..8.9.9.0.{ z > > > > > > > > > > > > > ",
"> > > > > > > > > > > > > > > > > > > > > > > > > > > > > > > > > > > > > > > > > ; C @.9. .U P O.0.! 4 > > > > > > > > > > > > ",
"> > > > > > > > > > > > > > , 4 7 l 4 > > > > > > > > > > > > > > > > > > > > > > c ..9./ e @ @ P 4.X.l > > > > > > > > > > > > ",
"> > > > > > > > > > > > > < N Q ..X.W 6 > > > > > > > > > > > > > > > > > > > > 5 ! 0. .e o .   j 2.X.l > > > > > > > > > > > > ",
"> > > > > > > > > > > > > m { 3.;.9.>.N > > ; ; - - - - - - - - - - - - - - - ; Z #.4.k O . . . P q.{ 6 > > > > > > > > > > > > ",
"> > > > > > > > > > > > 4 Q 6.} L  .0.F < 6 c B F G G G G G G G G G G G G G G K { 0.^ & . . . # ~ 0.! < > > > > > > > > > > > > ",
"> > > > > > > > > > > , v { 3.L = / 9.' ) [ o.%.5.8.0.0.8.8.8.8.8.8.8.8.8.8.8.8.e.+.d o . . . 8 | 7.G , > > > > > > > > > > > > ",
"> > > > > > > > > > < S { 0.4.k # U 9.w.e.0.=.O. .| | | | | | | | | | | | | | | | P $ . . . . d +.,.c > > > > > > > > > > > > > ",
"> > > > > > > > > > m o.w.9.;.P O e / } ~ L d 9 = $ $ $ $ $ $ $ $ $ $ $ $ $ $ $ $ @ . . . . o k 2.X.6 > > > > > > > > > > > > > ",
"> > > > > > > > > < J 5. .d 9 = o o & = # o . . . . . . o @ & = = = & $ O o . . . . . . . . $ Y 9.) < > > > > > > > > > > > > > ",
"> > > > > > > > > < E 7.~ @ . . . . . . . . . . . . . $ g Y / ( ( ( / ~ U j 8 @ . . . . . . & ( q.H : > > > > > > > > > > > > > ",
"> > > > > > > > > 4 E 8.~ @ . . . . . . . . . . . . & Y +.7.3.*.*.:.<.7.9.=.} P 8 O . . X o = ( q.G ; > > > > > > > > > > > > > ",
"> > > > > > > > > 4 W 8.~ @ . . . . . . . . . . . # P 2.6.' K F F G K E ` o.6.2.( t O . = t & Y 9.! < > > > > > > > > > > > > > ",
"> > > > > > > > , b [ w.~ @ . . . . . . . . . . o t O.0.! l , , , , , , 6 b E o.7.( 9 . 8 f $ k 2.X.5 > > > > > > > > > > > > > ",
"> > > > > > > > b { 0.e.~ @ . . . . . . . . . . @ P 4...z > > > > > > > > , 4 Z o.9.L O O # $ U 4...5 > > > > > > > > > > > > > ",
"> > > > > > > 4 _ 7.O.O.Y @ . . . . . . . . . . & ^ q.T , > > > > > > > > > > 4 W 8./ $ . & P +.0.T , > > > > > > > > > > > > > ",
"> > > > > > > c o.;.L ( Y @ o 1 i * o . . . . . 8 } <.Z > > > > > > > > > > > > S >.+.8 = Y ;.0._ l > > > > > > > > > > > > > > ",
"> > > > > > > b o.;.} 2.~ @ + y n 0 O . . . . . e O.#.b > > > > > > > > > > > > x ..q.( } 2.6.] b , > > > > > > > > > > > > > > ",
"> > > > > > > l { w.e.e.Y @ O w a 2 O . . . . . d +.X.x > > > > > > > > > > > > < K %.7.7.o.R x < > > > > > > > > > > > > > > > ",
"> > > > > > , N X.e.4. .j o . $ 1 # . . . . . . g ;.{ 7 > > > > > > > > > > > > > 5 S ! E N < > > > > > > > > > > > > > > > > > ",
"> > > > > > x ] 7.O.P e $ . . . o . . . . . . . k 4.] 6 > > > > > > > > > > > > > > < 6 4 , > > > > > > > > > > > > > > > > > > ",
"> > > > > > E 6. .d # o . . . . . . . . . . . . L 9.' 4 > > > > > > > > > > > > > > > > > > > > > > > > > > > > > > > > > > > > ",
"> > > > > 7 X.;.L @ . . . . . . . . . . . . . O U 4.! , - - - - - - - - - - - - ; > > > > > > > > > > > > > > > > > > > > > > > ",
"> > > > - Z >. .9 . . . . . . . . . . . . . . $ ~ 0.#.] ' ' ' ' ' ' ' ' ' ' ` E N 4 , > > > > > > > > > > > > > > > > > > > > > ",
"> > > > - T 7.( $ . . . . . . . . . . . . . . & / 9.q.q.q.q.q.q.q.q.q.q.q.q.q.7.%.] K b 6 , > > > > > > > > > > > > > > > > > > ",
"> > > > - ! q.^ @ . . . . . . . . . . . . . . $ k Y Y Y Y Y Y Y Y Y Y Y Y Y ~ / O.,.6.o.) S l < > > > > > > > > > > > > > > > > ",
"> > > > - _ q.~ @ . . . . . . . . . . . . . . . O O O + O O O O O @ O O O O @ & t L ( +.7.*.{ K z < > > > > > > > > > > > > > > ",
"> > > > - _ w.~ @ . . . . . . . . . . . . . . . . . . . . . . . . . . . . . . . o @ = d ~ O.4.<.{ K x < > > > > > > > > > > > > ",
"> > > > - _ e.^ O @ @ . . . . . . . . . . . . . . . . . . . . . . . . . . . . . . . . o $ e U  .7.<.[ Z , > > > > > > > > > > > ",
"> > > > - ! w.( j Y e o . . . . . . . . . . . . . . . . . . . . . . . . . . . . . . . . . o $ e U +.w.#.K 5 > > > > > > > > > > ",
"> > > > - E 0.4.2.=.d . . o . . . . . . . . . . . . . . . . . . . . . . . . . . . . . . . . . . # t ( 9.:.R 6 > > > > > > > > > ",
"> > > > ; b X.e.e.} 8 o # i q @ . . . . . . . . o o . . . . . . . . . . . . . . . . . . . . . . . . = Y =.*.T 5 > > > > > > > > ",
"> > > > > , G <.=.j O . * n a % . . . . . . . . 8 L L L k j g t 9 8 & $ @ o . . . . . . . . . . . . . & P $.#.Z < > > > > > > > ",
"> > > > > > F <. .t @ . % u y # . . . . . . . . k =.4.2.2.;.;.=.+. .( ~ P j t 8 $ o . . . . . . . . . . & Y ,.{ b > > > > > > > ",
"> > > > > > S >.2.^ 8 . O * & o . . . . . . . O P 9.*.......X.#.%.*.*.<.7.1.O.( Y j 8 O . . . . . . . . . 9 } 6.E < > > > > > > ",
"> > > > > > x { e.| 8 . . o . . . . . . . . . # Y 3.! c x x x b N Z G R ) { #.7.9.=.| P 9 @ . . . . . . . O L 2.{ 7 > > > > > > ",
"> > > > > > l { 7.U # . . . . . . . . . . . . $ ^ <.T < > > > > > , < < 4 l N G _ %.7.4. .L = . . . . . . . e O.#.N > > > > > > ",
"> > > > > > m *.O.t . . . . . . . . . . . . . = ( :.F < > > > > > > > > > > > , 4 c T X.7.2.~ = . . . . . . = ( >.S > > > > > > ",
"> > > > > > M >. .8 . . . . . . O # O . . . . 8  .:.B , > > > > > > > > > > > > > > < x W >.3.Y & . . . . . $ ^ 7.J > > > > > > ",
"> > > > > > b #.O.9 . . . . . o q I r o o o . 9 +.*.b > > > > > > > > > > > > > > > > > 6 R >.O.t o . . . . $ ^ 0.K > > > > > > ",
"> > > > > > l { ;.k O . . . . O w S p O = t @ t +.#.c > > > > > > > > > > > > > > > > > > z { 2.k o . . . . $ / 0.K > > > > > > ",
"> > > > > > 4 E 6.( 8 . . . . o 1 h q . d ~ & g =.X.z > > > > > > > > > > > > > > > > > > b X.=.j o . . . . = ( <.G > > > > > > ",
"> > > > > > > m o.2.P $ . . . . O $ O   j  .8 j =.{ l > > > > > > > > > > > > > > > > > 4 W 3.( 8 o o . . . 9  .%.B > > > > > > ",
"> > > > > > > < R <.O.d o . . . . . .   j  .8 j ;.{ l > > > > > > > > > > > > > > > > , S #.$.k @ O $ o . . d =.o.c > > > > > > ",
"> > > > > > > > l ' 9.~ & . . . . . . . d ~ & g =.X.z > > > > > > > > > > > > > > > > c ..7.~ & . & 9 O . o L 4.{ 6 > > > > > > ",
"> > > > > > > > , Z #.;.j . . . . . . . & 8 $ L 2.o.b , > > > > > > > > > > > > > > 6 ) 7.| 9 . . 8 g $ . & / 7.E < > > > > > > ",
"> > > > > > > > > 4 W 6.| 8 . . . . . . . o 8 / q.7.] G x < , > > > > > > > > > > < R <.+.j O . . 9 L = . 9 O.7.F , > > > > > > ",
"> > > > > > > > > > b X.9.U @ . . . . . . . $ g ^ $.0.<.o._ K V b z l 6 5 4 4 4 6 K *.2.P $ # = $ 8 Y e . = ( 7._ 6 > > > > > > ",
"> > > > > > > > > > , R 7.O.9 . . . . . . . . O & g ~ O.4.7.<.>.%.X.[ ` ) Q Q Q _ %.4.~ & o 0 D f 8 Y t . o j +.#.m > > > > > > ",
"> > > > > > > > > > ; c #.4.k o . . . . . . . . . o $ e k Y ( O.+.=.;.,.,.,.,.,.,.=.~ = . o 3 A s # 9 & . . 8 | :.Z > > > > > > ",
"> > > > > > > > > > > < [ q.U # O o o . . . . . . . . o O $ = 9 t g k L L L L L L j = o . . % w 1 o o . . . 8 | *.Z > > > > > > ",
"> > > > > > > > > > > > ) w.O.^ ~ P g 9 # . . . . . . . . . . . o o O O O @ @ @ @ O . . . . o O o . . . . . e O.#.m > > > > > > ",
"> > > > > > > > > > > > S #.e.e.w.9.;. .Y 9 . . . . . . . . . . . . . . . . . . . . . . . . . . . . . @ o . j 2.X.l > > > > > > ",
"> > > > > > > > > > > > 4 B T E ! ' #.8.9.| d O . . . . . . . . . . . . . . . . . . . o @ O . . . o g ~ t # Y 7.` 4 > > > > > > ",
"> > > > > > > > > > > > > > > < 4 6 c R #.0. .g $ # # # # # # # # # # # # # # $ & 8 t j U t o . @ g  .q.} j | 6.K < > > > > > > ",
"> > > > > > > > > > > > > > > > > > > < B { 7. .~ ~ ~ ~ ~ ~ ~ ~ ~ ~ ~ ~ ~ ~ ~ ~ / } O.2.4.~ & O g  .0.6.9.+.4.%.b > > > > > > > ",
"> > > > > > > > > > > > > > > > > > > > , N ] 7.q.q.q.q.q.q.q.q.q.q.q.q.q.q.q.7.<.%.o...<.=.U P O.9.] K ..0.0._ 6 > > > > > > > ",
"> > > > > > > > > > > > > > > > > > > > > < c K E E E E E E E E E E E E E E R K G Z b z ! <.4.4.7.] c < b K K c , > > > > > > > ",
"> > > > > > > > > > > > > > > > > > > > > > > , , , , , , , , , , , , , , , , , , , > > z E ] ] E z , > > , , > > > > > > > > > ",
"> > > > > > > > > > > > > > > > > > > > > > > > > > > > > > > > > > > > > > > > > > > > > 4 6 6 4 > > > > > > > > > > > > > > > ",
"> > > > > > > > > > > > > > > > > > > > > > > > > > > > > > > > > > > > > > > > > > > > > > > > > > > > > > > > > > > > > > > > "
};
