/* XPM */
static char *_9b109369f7b4d5e9a41d6d7f5d10ea3[] = {
/* columns rows colors chars-per-pixel */
"64 64 120 2 ",
"   c #0C0C0C",
".  c #0F1111",
"X  c #161616",
"o  c #1B1B1B",
"O  c #232323",
"+  c #292626",
"@  c #2B2B2B",
"#  c #322D2D",
"$  c #3D2B2B",
"%  c #333333",
"&  c #3C3636",
"*  c #3C3C3C",
"=  c #6D0707",
"-  c #6D0D0D",
";  c #700D0D",
":  c #6E1212",
">  c #711515",
",  c #721A1A",
"<  c #403737",
"1  c #403C3C",
"2  c #762323",
"3  c #792424",
"4  c #7B2C2C",
"5  c #7E3333",
"6  c #444444",
"7  c #4B4B4B",
"8  c #534545",
"9  c #594444",
"0  c #524E4E",
"q  c #535353",
"w  c #5C5C5C",
"e  c #614848",
"r  c #694D4D",
"t  c #635A5A",
"y  c #646464",
"u  c #6C6C6C",
"i  c #737373",
"p  c #7B7B7B",
"a  c #813434",
"s  c #843C3C",
"d  c #854141",
"f  c #894545",
"g  c #8D4C4C",
"h  c #8E5151",
"j  c #925454",
"k  c #965B5B",
"l  c #995E5E",
"z  c #856060",
"x  c #8C6060",
"c  c #9B6464",
"v  c #9E6A6A",
"b  c #897D7D",
"n  c #9D7676",
"m  c #A16D6D",
"M  c #A47373",
"N  c #A87777",
"B  c #A77B7B",
"V  c #AB7D7D",
"C  c #7F8080",
"Z  c #848484",
"A  c #8B8B8B",
"S  c #939393",
"D  c #9C9C9C",
"F  c #AE8282",
"G  c #B18686",
"H  c #B48B8B",
"J  c #A29797",
"K  c #A89090",
"L  c #A29F9F",
"P  c #AD9898",
"I  c #B69393",
"U  c #B99393",
"Y  c #BE9B9B",
"T  c #A4A4A4",
"R  c #ACA6A6",
"E  c #ACACAC",
"W  c #B3B3B3",
"Q  c #BBBBBB",
"!  c #C19E9E",
"~  c #C4A4A4",
"^  c #C7A9A9",
"/  c #CAADAD",
"(  c #CDB2B2",
")  c #D0B6B6",
"_  c #D3BBBB",
"`  c #C3C3C3",
"'  c #CCCCCC",
"]  c #D6C1C1",
"[  c #D9C4C4",
"{  c #DDCBCB",
"}  c #D4D3D3",
"|  c #DBD3D3",
" . c #DBDBDB",
".. c #E0CECE",
"X. c #E4D4D4",
"o. c #E6D7D7",
"O. c #E7D9D9",
"+. c #E5DADA",
"@. c #E8DCDC",
"#. c gray88",
"$. c #E5E3E3",
"%. c #E6E5E5",
"&. c #EBE1E1",
"*. c #EDE2E2",
"=. c #E8E7E7",
"-. c #EEE6E6",
";. c #EAE9E9",
":. c #ECEBEB",
">. c #EEEEEE",
",. c #F0E6E6",
"<. c #F1E9E9",
"1. c #F0EFEF",
"2. c #F4EEEE",
"3. c #F1F0F0",
"4. c #F4F0F0",
"5. c #F7F4F4",
"6. c #F6F6F6",
"7. c #F9F7F7",
"8. c #FAF8F8",
"9. c #FEFCFC",
/* pixels */
": : : : : : : : : : : : : : : : : : : : : : : : : : : : : : : : : : : : : : : : : : : : : : : : : : : : : : : : : : : : : : : : ",
": : : : : : : : : : : : : : : : : : : : : : : : : : : : : : : : : : : : : : : : : : : : : : : : : : : : : : : : : : : : : : : : ",
": : : : : : : : : : : : : : : : : : : : : : : : : : : : : : : : : : : : : : : : : : : : : : : : : : : : : : : : : : : : : : : : ",
": : : : : : : : : : : : : : : : : : : : : : : : : : : : : : : : : : : : : : : : : : : : : : : : : : : : : : : : : : : : : : : : ",
": : : : : : : - : : : : : : : : : : : - - : : : : : : : : : : : : : : : : : : : : : : : : : : : : : : : : : : : : : : : : : : : ",
": : : : : , s g f s 4 > ; ; - : : , f c j 3 : : : : : : : : : : : : : : : : : : : : : : : : : : : : : : : : : : : : : : : : : : ",
": : : : 4 U [ { { [ ] ( U m g a 5 M ( [ [ ! s : : : : : : : : : : : : : : : : : : : : : : : : : : : : : : : : : : : : : : : : : ",
": : : : k O.6.=.%.;.3.4.<.&.o._ / .._ n I o.B , : : : : : : : : : : : : : : : : : : : : : : : : : : : : : : : : : : : : : : : : ",
": : : - c *.#.S p Z S T W '  .;.1.7.| b P *.^ g 5 2 > - - : : : : : : : : : : : : : - - - - : > , 4 5 s s d f g g g 5 > : : : : ",
": : : : j O. .u o o o + * q u A T ` ' Q $.9.*.[ / U M k f a , > ; = = = ; > > , 2 4 s f h l v B H Y / _ ] ] [ [ { [ ^ g : : : : ",
": : : : s [ 1.S @ X X X X o o + & 7 y p D Q } >.4.1.*.o.[ ( ! U H H G H H U U Y ~ / _ [ o.@.&.-.<.2.6.8.8.6.1.>.:.4.2.^ d : : : ",
": : : : , G <.} u O X X X X X X X X o O + * w i S Q  .>.1.1.3.4.4.4.4.4.4.4.4.3.1.1.1.1.>.%.} ` E D S Z p i u u i Q 7.1.^ d : : ",
": : : : : d ( 4.` w o X X X X X X X X X X X X X O % 6 w p D E Q ` ' ' ' ` ` Q W T S Z i w 7 * & @ + o o X X X X 6 T } >.2.V , : ",
": : : : : > k [ 1.Q 7 o X X X X X X X X X X X X X X X X o o O + + + + + + + + O O o o X X X X X X X X X X X o * S A 0 E 4.^ 4 : ",
": : : : : : , v ..:.T * o X X X X X X X X X X X X X X X X X o o O o X X X X X X X X X X X X X X X X X X X + q T #.D 6 L 3.^ 4 : ",
": : : : : : : 2 N o.#.Z + X X X X X X X X X X X X X X o O * w p i & X X X X X X X X X X X X X X X X X O 6 Z ` >.8. .W  .2.H 2 : ",
": : : : : : : : 5 U <.` 7 X X X X X X o + % @ o X o & w Z E ' %.` q o X X X X X X X X X X X X X X o 6 p W %.<.{ { &.:.-.) g > : ",
": : : : : : : : > j { >.i X X X X o 7 p D E D y w Z W } %.3.<.7.} y o X X X X X X X o @ o X X X + u W #.4.o.Y l j V U F g , : : ",
": : : : : : : : : 5 / 7.A o X X + u Q %.>.3.>.} } ;.3.1.{ ! H @.#.u o X X X X X X X 6 A * X X % Z } 1.@.^ c 5 , > 2 4 2 > : : : ",
": : : : : : : : : 4 ^ 6.S o X o y ' 1.@._ { -.:.-.o.^ M f 3 a [ =.C O X X X X X X + A Q * X O i } <./ l 4 , : : : : : : : : : : ",
": : : : : : : : : s _ 7.Z o X % T >._ c 4 s v m l f 3 > : : 4 ^ =.S + X X o + o X w ' T + X 6 W 1./ d : : : : : : : : : : : : : ",
": : : : : : : : , c o.#.y X X 7 } *.N , : : > > > : : : : : 4 / =.S + X O y 7 o @ D  .u X O A %.o.c , : : : : : : : : : : : : : ",
": : : : : : : : 4 Y 1.Q 6 o X u #.{ h : : : : : : : : : : > l o.%.p O O u S 7 o y } Q 6 X w ' :.U 4 : : : : : : : : : : : : : : ",
": : : : : : : : j { $.D i + o A =.( s : : : : : : : : : : d ( 1.` q o * S p + * T #.A + % E >._ g > : : : : : : : : : : : : : : ",
": : : : : : : , H :.` u i @ o T 1.~ 4 : : : : : : : : : 4 Y <. .p + X + q % o u } ' w o p #.@.N , : : : : : : : : : : : : : : : ",
": : : : : : : a _ >.S & + o & ` 1.G , : : : : : : : : 2 B @.;.S % X X o o X & E %.D & 7 ` 4.^ a : : : : : : : : : : : : : : : : ",
": : : : : : : k O. .y o X X u  .o.c > : : : : : : : > c ..6.W 6 o X X X X o u  . .u % S >.o.k > : : : : : : : : : : : : : : : : ",
": : : : : : > F -.` 6 X X 6 W 1./ a : : : : : : : - f _ 7.' w o X X . X X & W >.E * y } 2.H 3 : : : : : : : : : : : : : : : : : ",
": : : : : : > U 1.W * & u W >.o.c , : : : : : : : 5 ! 2.#.p O X X + t q o Z %.#.i * E 4.] f : : : : : : : : : : : : : : : : : : ",
": : : : : : > U 1.#.` '  .3.@.F 4 : : : : : : : 3 F @.;.A + X X X $ K R q ` 6.W * Z #.*.M , : : : : : : : : : : : : : : : : : : ",
": : : : : : > c { 1.1.*.o.) M 4 : : : : : : : , c { :.T * X X X X < J D D ;.#.i w ` 1.~ 4 : : : : : : : : : : : : : : : : : : : ",
": : : : : : : 3 c H G M k 4 , : : : : : : : : g ) :.Q u 6 o X X X O 6 y ' 6.E 7 D ;.{ j : : : : : : : : : : : : : : : : : : : : ",
": : : : : : : : > > > > > : : : : : : : : : a ~ :.} S S 7 X X X X X + S 3. .u u } &.V 2 : : : : : : : : : : : : : : : : : : : : ",
": : : : : : : : : : : : : : : : : : : : : 2 H *.#.E Q A @ X X X X X w } 6.T q E :./ d : : : : : : : : : : : : : : : : : : : : : ",
": : : : : : : : : : : : : : : : : : : : , M o.:.W Q ` w o O O X X % T 3. .y Z $.o.v , : : : : : : : : : : : : : : : : : : : : : ",
": : : : : : : : : : : : : : : : : : : : h [ 4.Q T  .D % & p q o X y } 8.` w ' 1.Y 4 : : : : : : : : : : : : : : : : : : : : : : ",
": : : : : : : : : : : : : : : : : : : 5 ^ 4.' A ' ' y o u T q o + D >.8.` E 1.{ j > : : : : : : : : : : : : : : : : : : : : : : ",
": : : : : : : : : : : : : : : : : : 2 G -.#.Z D  .D % o 6 w + o q ` 8.9.%.;.-.V , : : : : : : : : : : : : : : : : : : : : : : : ",
": : : : : : : : : : : : : : : : : , c o.>.L y ' ` w o X o o X O Z #.4.4.7.1.^ a : : : : : : : : : : : : : : : : : : : : : : : : ",
": : : : : : : : : : : : : : : : : g ) 1.Q 7 L } p + X X X X X * E 1.) ! ( Y g > : : : : : : : : : : : : : : : : : : : : : : : : ",
": : : : : : : : : : : : : : : : 4 U ,.} y w Q S & X X X X X o y  .O.m 5 s 4 , : : : : : : : : : : : : : : : : : : : : : : : : : ",
": : : : : : : : : : : : : : : , v o.$.Z @ i A * o X X X X X + D :.) d : : : : : : : : : : : : : : : : : : : : : : : : : : : : : ",
": : : : : : : : : : : : : : : f ) :.E 6 + q & o X X X X X X 7 ' -.G 3 : : : : : : : : : : : : : : : : : : : : : : : : : : : : : ",
": : : : : : : : : : : : : : , Y <.' y o o o X X X X X X X X A ;.{ j > : : : : : : : : : : : : : : : : : : : : : : : : : : : : : ",
": : : : : : : : : : : : : > v O.%.Z + X X X X X X X X X X & Q 1.Y 3 : : : : : : : : : : : : : : : : : : : : : : : : : : : : : : ",
": : : : : : : : : : : : : f _ 1.E * X X X X X X X X X X X i #.@.c > : : : : : : : : : : : : : : : : : : : : : : : : : : : : : : ",
": : : : : : : : : : : : 3 I <.' y o X X X X X X X X X X @ E 1.( a : : : : : : : : : : : : : : : : : : : : : : : : : : : : : : : ",
": : : : : : : : : : : : c o.;.A + X X X X X X X X X X o w } -.N , : : : : : : : : : : : : : : : : : : : : : : : : : : : : : : : ",
": : : : : : : : : : : s ( 4.Q 7 o X X X X X X X X X X + S >.[ f : : : : : : : : : : : : : : : : : : : : : : : : : : : : : : : : ",
": : : : : : : : : : , G -.#.u o X X X X X X X X X X X 7 ` 4.H 3 : : : : : : : : : : : : : : : : : : : : : : : : : : : : : : : : ",
": : : : : : : = ; 4 v { 4.T + X X X X X X X X X X X o Z ;.o.k : : : : : : : : : : : : : : : : : : : : : : : : : : : : : : : : : ",
": : : : : : 4 M ~ _ O.7.' 7 X X X X X X X X X X X X 6 ` 4.~ 4 : : : : : : : : : : : : : : : : : : : : : : : : : : : : : : : : : ",
": : : > 5 M _ *.4.1.>.#.p o X X X X X X X X X X X o Z ;.@.j > : : : : : : : : : : : : : : : : : : : : : : : : : : : : : : : : : ",
": : > g Y @.3. .Q S p u % X X X X X X X X X X X X * Q 4.~ 2 : : : : : : : : : : : : : : : : : : : : : : : : : : : : : : : : : : ",
": > g ( <.%.W i * 1 0 % o X X X X X X X X X X X X 7 ' 7./ c s 2 > : : : : : : : : : : : : : : : : : : : : : : : : : : : : : : : ",
": a ! <. .A 6 o O e z 9 o X X X X X X X X X X X X 6 W 3.1.O._ U g , : : : : : : : : : : : : : : : : : : : : : : : : : : : : : : ",
": l o.O.Z @ o X O r x 9 o X X X X X X X X X X X X + w A W  .1.<.^ s : : : : : : : : : : : : : : : : : : : : : : : : : : : : : : ",
"> M ,.` 6 X X X o & 8 # o X X X X X X X X X X X X X o O * i ' 6.{ j > : : : : : : : : : : : : : : : : : : : : : : : : : : : : : ",
", N <.' y +     X X o X X X X X X X X X X X X X X X X + i Q ;.4.^ s : : : : : : : : : : : : : : : : : : : : : : : : : : : : : : ",
": c o.3. .Q T Z y 7 * % % % % % % % % % % % % % % % w E #.8.<.~ g > : : : : : : : : : : : : : : : : : : : : : : : : : : : : : : ",
": 4 M [ -.4.4.;.#. .} ' ' ' ' ' ' ' ' ' ' ' ' ' ' '  .6.9.9.[ g : : : : : : : : : : : : : : : : : : : : : : : : : : : : : : : : ",
": : , f M U ^ _ { @.<.<.1.1.1.1.1.1.1.1.1.1.1.2.1.1.<.<.<.o.H 4 : : : : : : : : : : : : : : : : : : : : : : : : : : : : : : : : ",
": : : : > , 2 a h v N B B B B B B B B B B B B B B B B B N c 5 : : : : : : : : : : : : : : : : : : : : : : : : : : : : : : : : : ",
": : : : : : : : : > , , , , , , , , , , , , , , , , , , , > : : : : : : : : : : : : : : : : : : : : : : : : : : : : : : : : : : "
};
