/* XPM */
static char *_c9189d64d604bdab3fc4f01e61f84b8[] = {
/* columns rows colors chars-per-pixel */
"64 64 114 2 ",
"   c gray6",
".  c #161616",
"X  c #171818",
"o  c #1A1A1A",
"O  c #232323",
"+  c #2C2C2C",
"@  c #312E2E",
"#  c #333333",
"$  c #3B3B3B",
"%  c #6C0606",
"&  c #6D0E0E",
"*  c #6E1212",
"=  c #711515",
"-  c #731B1B",
";  c #4C3B3B",
":  c #752222",
">  c #792424",
",  c #7C2D2D",
"<  c #7E3232",
"1  c #7F3838",
"2  c #434343",
"3  c #4B4B4B",
"4  c #534444",
"5  c #504C4C",
"6  c #545454",
"7  c #5B5353",
"8  c #5C5C5C",
"9  c #605E5E",
"0  c #656565",
"q  c #6B6B6B",
"w  c #737373",
"e  c #7B7B7B",
"r  c #813535",
"t  c #843C3C",
"y  c #864242",
"u  c #894444",
"i  c #8D4D4D",
"p  c #904F4F",
"a  c #8E5151",
"s  c #925353",
"d  c #965B5B",
"f  c #995D5D",
"g  c #8C6A6A",
"h  c #9B6464",
"j  c #9F6B6B",
"k  c #8D7C7C",
"l  c #A16D6D",
"z  c #A57373",
"x  c #A87777",
"c  c #A77979",
"v  c #AA7C7C",
"b  c #848484",
"n  c #878888",
"m  c #8B8B8B",
"M  c #949494",
"N  c #9E9292",
"B  c #9C9C9C",
"V  c #AE8383",
"C  c #A38888",
"Z  c #B18585",
"A  c #B48B8B",
"S  c #B69191",
"D  c #BA9494",
"F  c #BE9B9B",
"G  c #9FA0A0",
"H  c #A3A3A3",
"J  c #AAAAAA",
"K  c #BEA0A0",
"L  c #AFB0B0",
"P  c #B4B4B4",
"I  c #B7B8B8",
"U  c #BBBBBB",
"Y  c #C19E9E",
"T  c #C4A3A3",
"R  c #C7AAAA",
"E  c #CAACAC",
"W  c #CDB3B3",
"Q  c #C0BFBF",
"!  c #D0B5B5",
"~  c #D3BBBB",
"^  c #C4C4C4",
"/  c #C7C8C8",
"(  c #CCCCCC",
")  c #D7C1C1",
"_  c #DAC5C5",
"`  c #D0CFCF",
"'  c #DDCACA",
"]  c #D3D3D3",
"[  c #DCDCDC",
"{  c #E0CFCF",
"}  c #E3D4D4",
"|  c #E5DADA",
" . c #E9DDDD",
".. c #E3E3E3",
"X. c #E4E3E3",
"o. c #E7E4E4",
"O. c #EBE1E1",
"+. c #ECE1E1",
"@. c #EBE7E7",
"#. c #EFE6E6",
"$. c #EAEAEA",
"%. c #EEE9E9",
"&. c #EFECEC",
"*. c #F1E7E7",
"=. c #F0EBEB",
"-. c #F2EDED",
";. c #F4EFEF",
":. c #F1F0F0",
">. c #F6F2F2",
",. c #F6F4F4",
"<. c #F7F4F4",
"1. c #FAF7F7",
"2. c #F8F8F8",
"3. c #FBFAFA",
/* pixels */
"* * * * * * * * * * * * * * * * * * * * * * * * * * - - > > , , , > - * * * * * * * * * * * * * * * * * * * * * * * * * * * * * ",
"* * * * * * * * * * * * * * * * * = > < r < , < u f z Z F T W ~ ~ F x f i u t u i i s i , * * * * * * * * * * * * * * * * * * * ",
"* * * * * * * * * * * * * * * * = i Z T T Y F T _  .#.#.%.%.&.:.-.%.+. .' ~ ! ~ _ } | ' A < * * * * * * * * * * * * * * * * * * ",
"* * * * * * * * * * * * * * * & t T +.@.@.#.%.%.$.o.[ ^ P H M M B U ( [ o.@.@.o.X...o.:. .V y - * * * * * * * * * * * * * * * * ",
"* * * * * * * * * * * & % = , i D O.o.J B H L J M e 0 6 $ # O o + 2 6 q e m M n e w w U :. .W V i , = & * * * * * * * * * * * * ",
"* * * * * * * * * * - u z D R _ #.-.H 3 # # $ $ + O o . . . . . . . . o O + + O O o O 0 ^ >.1.+.) R S h > * * * * * * * * * * * ",
"* * * * * * * * - i A _ #.>.,.,.X.H 3 o . . . . . . . . . . . . . . . . . . . . . . . O 6 b ^ -.,.,.>.| Y u = * * * * * * * * * ",
"* * * * * * * : h ! =.>.$.[ I n 8 # o . . . . . . . . . O O o . . . . . . . . . . . . . . O 2 0 m U [ :.;.~ s = * * * * * * * * ",
"* * * * * * - h _ -.[ J w 2 + o . . . . . . . . . . $ 6 e M n w 8 2 # # O . . o o X . . . . . . O # 8 H ..>.E t * * * * * * * * ",
"* * * * * * u W =.^ w # o . . . . . . . . . . . . $ M P ] :.$.[ ( U H H q O O 5 7 @ . . . . . . . . . # M $.+.v - * * * * * * * ",
"* * * * * = c  .] w O . . . . . . . . . . . . . # n ] P ^ 2.1.+. .-.&.:.U 6 $ k g ; o . . . . . . . . . 2 U -.R r * * * * * * * ",
"* * * * * > T -.P $ . . . . . . . . . . . . . O q ( $.P I :.O.S v R | >.:.B 6 N C 4 o . . . . . . . . . O n @._ s = * * * * * * ",
"* * * * * r W @.M + . . . . . . . . . . . . o 3 P :.2.&.&.>.~ i > t h R ;.[ e 9 0 # o . . . . . . . . . o 0 [ | h = * * * * * * ",
"* * * * * u ~ ..b O . . . . . . . . . . . . O n ..;.O.| } W h - * * = s _ ,.U 2 o o . . . . . . . . . . . 8 [  .l - * * * * * * ",
"* * * * * i _ | e O . . . . . . . . . . . . 3 ^ -.W l s u < - * * * * = v +.o.n o . . . . . . . . . . . . 6 [ +.z - * * * * * * ",
"* * * * * i _ o.n + . . . . . . . . . . . o b X.| l - * * * * * * * * * , W >.U $ . . . . . . . . . . . o w o. .j - * * * * * * ",
"* * * * * r R -.U 3 o . . . . . . . . . . + P :.E r * * * * * * * * * * & x +.] 0 o . . . . . . . . . . 3 U >.W u * * * * * * * ",
"* * * * * - l } @.M # . . . . . . . . . . 2 ^ ;.F > * * * * * * * * * * & s | ..w o . . . . . . . . . + B &. .z - * * * * * * * ",
"* * * * * * , D #.] q o . . . . . . . . . $ P -._ h : * * * * * * * * * & s | [ w o . . . . . . . . o w [ ;.F , * * * * * * * * ",
"* * * * * * = p ~ -.I $ . . . . . . . . . o q ^ %.) j : * * * * * * * * & s | [ w o . . . . . . . . $ J :.} s = * * * * * * * * ",
"* * * * * * * r R ,.[ 6 . . . . . . . . . . + w / -.' v , * * * * * * * & s | [ w o . . . . . . . . 2 U ,.| l - * * * * * * * * ",
"* * * * * * = l | >.U 2 . . . . . . . . . o O # w ( >. .h * * * * * * * & s | [ w o . . . . . . . . O n ..1.~ , * * * * * * * * ",
"* * * * * * > D -...m $ . . . . . . . . . + w m B ^ :.2.v - * * * * * * & f | [ q o . . . . . . . O 6 B o.2.) , * * * * * * * * ",
"* * * * * * - Z +.,.[ J 6 o . . . . . . . 6 ^ &.&.:.2.-.l = * * * * * * * i } o.m + . . . . . . O 0 U $.2. .V - * * * * * * * * ",
"* * * * * * * y S ' =.:.I 3 o . . . . .   b o.;.' ) ~ S t * * * * * * * * : Y -./ 8 o . . . . o 3 I -. .W c , * * * * * * * * * ",
"* * * * * * * = , s D  .&.n O . . . . . . B :. .Z f u > = * * * * * * * - < v +.$.m + o O o . O e |  .V t - * * * * * * * * * * ",
"* * * * * * * * * = t E ,.U $ . . . . . . n ..>.} T c f u , : : > t i h c T { >.[ n 2 6 8 # o + M $.W y = * * * * * * * * * * * ",
"* * * * * * * * * * = D >.( 2 . . . . . . 2 M ] $.-.*.} ! F Z V D R _ | #.#.o./ m 3 8 w 8 O . # B $.E t * * * * * * * * * * * * ",
"* * * * * * * * * & t E 1.^ $ . . . . . . o # 0 M U ] X.%.>.=.*.;.%.X.[ / J n 6 + O # + o . . O n o.} z > & * * * * * * * * * * ",
"* * * * * * * * - s F +.>.M + . . . . . . . . o + 2 0 b B P Q Q P B n q 6 $ O o . . o . . . . o 8 ^ -.} S s - * * * * * * * * * ",
"* * * * * * : s S ' =.:.I 3 o . . . . . . . . . . . o O + $ 3 3 $ # O o o . . . . . . . . . . . + q ^ -.-.' F a - * * * * * * * ",
"* * * * - y Z ' ;.,.o.H 3 o . . . . . . . . . . . . . . . . . . . . . . . . . . . . . . . . . . . O 6 H ..,.>._ v 1 = * * * * * ",
"* * * - d W #.:.[ P q # o . . . . . . . . . . . . . . . . . . . . . . . O # $ # o . . . . . . . . . o + 8 H ] &. .D t = * * * * ",
"* * * a ~ -.[ J q # o . . . . . . . . . . # w n n e q 8 3 # O o o o . O w J P H 0 O . . . . . . . . . . . + 0 J .. .Z > * * * * ",
"* * = D ;.[ n 2 o . . . . . . . . . . . # n ] $.o.[ [ ] / I H n w q 0 b ( :.:.&.U 8 o . . . . . . . . . . . o 3 P :.! t * * * * ",
"* * - T 1.] 8 o . . . . . . . . . . . . 0 ] -.| { } | O.=.>.&.o...[ [ X.>.| ~ +.o.n + . . . . . . . . . . . o 6 ^ >.E r * * * * ",
"* * * x +.$.B $ . . . . . . . . . . . o n o.} c d f l z Z F R ~ ' } | | ! l i T %.I 3 o . . . . . . . . . . O M @.| z - * * * * ",
"* * * r T -.^ 6 o . . . . . . . . . . + B %.W y = = - - - > r t p d f d u - - z  .[ w O . . . . . . . . . . + H -.E t * * * * * ",
"* * * - v #.^ 6 o . . . . . . . . . . 2 U >.D , * * * * * * * * * * * = * * * y W -.H # . . . . . . . . . . + J &.T , * * * * * ",
"* * * - v #.^ 6 o . . . . . . . . . . 8 ] -.v - * * * * * * * * * * * * * * * : Z +.] 8 o . . . . . . . . . + J &.T , * * * * * ",
"* * * - v #.^ 6 o . . . . . . . . . o w .. .h = * * * * * * * * * * * * * * * * s ' -.n O . 3 e 3 o . . . . + J &.T , * * * * * ",
"* * * - v #.^ 6 o . . . . . . . . . O m &._ i * * * * * * * * * * * * * * * * * , Y -.U $ o m B 2 o . . . . + J &.T , * * * * * ",
"* * * - v #.^ 6 o . . . . . . . . . # J ,.W < * * * * * * * * * * * * * * * * * = z  ...8 3 M q O . . . . . + J &.T , * * * * * ",
"* * * - v #.^ 6 o . . . . . . . . . 2 ^ 1.K : * * * * * * * * * * * * * * * * * & i _ -.n 8 w # . . . . . . + J &.T , * * * * * ",
"* * * - v #.^ 8 2 2 O . . . . . . . 3 / 1.T < * * * * * * * * * * * * * * * * * * , T -.P 2 $ o . . . # 0 w 8 J &.T , * * * * * ",
"* * * - c #.] B I U w O . . . . . . $ J :.| z : * * * * * * * * * * * * * * * * * u ! ,./ # o . . . o e ] ..^ ( -.Y , * * * * * ",
"* * * - z #.&.o.,.,.I $ . . . . . . o 8 / >.~ s = * * * * * * * * * * * * * * = y D #.,.] # . . . . + H :.2.,.,.;.D > * * * * * ",
"* * * * a ' 2.2.>.2.( 2 . . . . . . . O e [ ;.T t * * * * * * * * * * * * * - d R #.2.( ^ $ . . . . # J ,.#.+.=.' j - * * * * * ",
"* * * * : z W E ! -./ 2 . . . . . . . . + M o.+.Z > * * * * * * * * * * * > z _ ;.o.U n n # . . . . + H :.~ x v f > * * * * * * ",
"* * * * * - r t A %.U $ . . . . . . . . . 2 J &.} l - * * * * * * * - > u S | -.( n 2 # # o . . . . + H :.W r - = * * * * * * * ",
"* * * * * * * - V #.( 0 # O o . . . . . . o 6 Q -.~ l a i i i i s s z Y ) %.$.U q # o . . . o O $ 3 e / ,.T > * * * * * * * * * ",
"* * * * * * * = f { &.^ B e 8 + o . . . . . O w ` -. .' ' ' ' ' ' | +.%.&.[ B 3 O . . . . o 2 e H ^ [ -.} h - * * * * * * * * * ",
"* * * * * * * * < A } =.-...^ b # . . . . . . # b ^ [ | ............[ I M w # o . . . . . $ H [ %.O.} E l > * * * * * * * * * * ",
"* * * * * * * * = r l F ~ } -.] q O . . . . . o @ 6 q w e e e e e w 0 2 + o . . . . . . O n ..#.W V f t - * * * * * * * * * * * ",
"* * * * * * * * * * - , u j _ &.P 2 o . . . . . . o o O O O O O O o o o . . . . . . . . O B -._ s : = * * * * * * * * * * * * * ",
"* * * * * * * * * * * * * : c  ...n # + O O o . . . . . . . . . . . . . . . . . . . . . O B &.! t * * * * * * * * * * * * * * * ",
"* * * * * * * * * * * * * * t R -.] G M M b 8 # o . . . . O 3 3 O o o . . . . . . . . . 3 U -.T < * * * * * * * * * * * * * * * ",
"* * * * * * * * * * * * * * - h ) =.%.$.$.$.] J m w 6 # o $ e q $ 0 m b q 6 $ # + + 2 q J $.O.c : * * * * * * * * * * * * * * * ",
"* * * * * * * * * * * * * * * : h F W W ~ } =.-.&.[ I w $ O $ # 0 ^ &.o.] / U I P I ^ ] -.=.T y * * * * * * * * * * * * * * * * ",
"* * * * * * * * * * * * * * * * - < y y u h A W { =.X.n # o o 6 I &.+.| | #.>.,.,.>.-.O._ S i - * * * * * * * * * * * * * * * * ",
"* * * * * * * * * * * * * * * * * * * * * - > t f E =.^ q 2 0 P $.| Z h l Z F T T Y S x i , = * * * * * * * * * * * * * * * * * ",
"* * * * * * * * * * * * * * * * * * * * * * * * - h _ &.( I ( &. .A r - - - > > > > : - = * * * * * * * * * * * * * * * * * * * ",
"* * * * * * * * * * * * * * * * * * * * * * * * * : l ~ #.>.-.{ Z r = * * * * * * * * * * * * * * * * * * * * * * * * * * * * * ",
"* * * * * * * * * * * * * * * * * * * * * * * * * * - i V F S h > * * * * * * * * * * * * * * * * * * * * * * * * * * * * * * * "
};
