/* XPM */
static char *_974ee4e0a6241e1b1a9328ef79408e7[] = {
/* columns rows colors chars-per-pixel */
"64 64 138 2 ",
"   c #0C0C0C",
".  c #161616",
"X  c #181717",
"o  c #1B1B1B",
"O  c #241F1F",
"+  c #232323",
"@  c #2A2424",
"#  c #272828",
"$  c #2B2B2B",
"%  c #302626",
"&  c #343434",
"*  c #3C3030",
"=  c #3B3B3B",
"-  c #6D0505",
";  c #6E0C0C",
":  c #710303",
">  c #700F0F",
",  c #6E1212",
"<  c #711414",
"1  c #731B1B",
"2  c #413232",
"3  c #403F3F",
"4  c #762121",
"5  c #7A2424",
"6  c #772929",
"7  c #7C2C2C",
"8  c #7D3333",
"9  c #7D3939",
"0  c #3F4040",
"q  c #434343",
"w  c #4B4B4B",
"e  c #545353",
"r  c #585757",
"t  c #5B5B5B",
"y  c #7F4040",
"u  c #5F6060",
"i  c #646363",
"p  c #676868",
"a  c #6B6B6B",
"s  c #716F6F",
"d  c #747373",
"f  c #777878",
"g  c #7C7C7C",
"h  c #813535",
"j  c #843B3B",
"k  c #854343",
"l  c #894545",
"z  c #834A4A",
"x  c #8B4B4B",
"c  c #855050",
"v  c #8E5353",
"b  c #8F5858",
"n  c #925555",
"m  c #945C5C",
"M  c #985E5E",
"N  c #976464",
"B  c #9A6565",
"V  c #9D6B6B",
"C  c #817E7E",
"Z  c #9F7070",
"A  c #A16F6F",
"S  c #A37474",
"D  c #A67D7D",
"F  c #A97B7B",
"G  c #848383",
"H  c #898787",
"J  c #8B8A8A",
"K  c #908D8D",
"L  c #959494",
"P  c #999696",
"I  c #9B9A9A",
"U  c #AD8383",
"Y  c #AD8A8A",
"T  c #B18787",
"R  c #B38C8C",
"E  c #B88F8F",
"W  c #A29E9E",
"Q  c #A89E9E",
"!  c #B49696",
"~  c #B99494",
"^  c #B79E9E",
"/  c #BB9B9B",
"(  c #A4A2A2",
")  c #AAA4A4",
"_  c #ACABAB",
"`  c #B4A4A4",
"'  c #BBA2A2",
"]  c #B2ADAD",
"[  c #BDABAB",
"{  c #B4B2B2",
"}  c #BCB4B4",
"|  c #BBBABA",
" . c #C19E9E",
".. c #C2A5A5",
"X. c #C2A9A9",
"o. c #C1ABAB",
"O. c #C5ABAB",
"+. c #C2AFAF",
"@. c #C5ADAD",
"#. c #C9ACAC",
"$. c #C2B3B3",
"%. c #C5B2B2",
"&. c #C5B4B4",
"*. c #C4B7B7",
"=. c #CAB3B3",
"-. c #CCB3B3",
";. c #C3BABA",
":. c #C7BBBB",
">. c #C1BDBD",
",. c #C9BFBF",
"<. c #CCBCBC",
"1. c #D1BDBD",
"2. c #C4C2C2",
"3. c gray78",
"4. c #CAC2C2",
"5. c #CCC3C3",
"6. c #CDC7C7",
"7. c #CEC8C8",
"8. c #CECBCB",
"9. c #D3C4C4",
"0. c #D7C5C5",
"q. c #D0CBCB",
"w. c #D8C9C9",
"e. c #D9CECE",
"r. c #D4D3D3",
"t. c #D5D3D3",
"y. c #DCD3D3",
"u. c #DADADA",
"i. c #DFDFDF",
"p. c #E2DADA",
"a. c #E5DADA",
"s. c #E7DCDC",
"d. c #EADFDF",
"f. c #E5E4E4",
"g. c #E8E6E6",
"h. c #EAEAEA",
"j. c #EEEAEA",
"k. c #FBFAFA",
/* pixels */
", , , , , , , , , , , , , , , , , , , , , , , , , , , , , , , , , , , , , , , , , , , , , , , , , , , , , , , , , , , , , , , , ",
", , , , , , , , , , , , , , , , , , , , , , , , , , , , , , , , , , , , , , , , , , , , , , , , , , , , , , , , , , , , , , , , ",
", , , , , , , , , , , , , , , , , , , , , , , , , , , , , , , , , , , , , , , , , , , , , , , , , , , , , , , , , , , , , , , , ",
", , , , , , , , , , , , , , , , , , , , , , , , , , , , , , , , , , , , , , , , , , , , , , , , , , , , , , , , , , , , , , , , ",
", , , , , , , , , , , , ; < 1 5 7 h 7 1 < , , , , , , , , , , , , , , , , , , , , , , , , , , , , , , , , , , , , , , , , , , , ",
", , , , , , , ; ; < 4 j v N S F U R U V j 1 ; ; ; ; ; ; ; ; ; ; ; ; ; ; ; ; ; ; ; ; ; ; ; , , , , , , , , , , , , , , , , , , , ",
", , , , , < 7 l n N S R / ' ' ` ` ` [ ' ~ Z N N N N N N N N N N N N N N N N N N N N N N v 6 , , , , , , , , , , , , , , , , , , ",
", , , 1 8 m U ~ ^ ^ ' ` ) I J g a p g ( } ' ' ' ' ' ' ' ' ' ' ' ' ' ' ' ' ' ' ' ' ' ' ' ' A 6 , , , , , , , , , , , , , , , , , ",
", , , 8 U ' +.} ) L f u w = & + X X + w f L L L L L L L L L L L L L L L L L L L L L L W ;.-.V j 4 > ; , , , , , , , , , , , , , ",
", , 1 v w.>.J i w & + X . . . . . . . X # & & & & & & & & & & & & & & & & & & & & & & q g 4.@.R S m z 7 < , , , , , , , , , , , ",
", , 1 b p.] i = = q q w w q & o . . . . . . . . . . . . X & w = o . . . . . . . . . . o = g ] &.%.O.~ D v 6 < , , , , , , , , , ",
", , , k =.,.P H J K L P P K g r $ . . . . . . . . . . . o i P G q X . o + o . . . . . . X $ w d L ] ;.%./ V 8 , , , , , , , , , ",
", , , 4 M / %.:.,.&.o.o.@.<.6._ p + . . . . . . . . . . + g 8.3.g + . q r w o . o # o . . . o # = w t G ] ..A 7 , , , , , , , , ",
", , , , 4 j x n n v x x B ..s.i.I = . . . . . . . . . . + g t.g._ w + f _ P q o q p q X . . . . X X + & a ] ' M < , , , , , , , ",
", , , , , < 1 1 1 1 1 h U 0.j.h.{ e . . . . . . . . . . + g 8.a.4.J p _ p.q.J = d ` g + . . . . . . . X & G [ T 6 , , , , , , , ",
", , , , , , , , , , 1 B <.8.u.g.| r . . . . . . . . . . + g ;.o.=.5.6.5.o.@.:.d C | f + . . . . . . . . o r ` / k ; , , , , , , ",
", , , , , , , , , , 4 S w.f.g.g.| r . . . . . . . . . . + g $.U N U E S x S <.} r r = X . . . . . . . . X w Q / v ; , , , , , , ",
", , , , , , , , , , 1 l U  .#.0.{ r . . . . . . . . . . + g $.D 7 8 j 7 1 h / e.J + X . . . . . . . . . X q W ^ n - , , , , , , ",
", , , , , , , , , , , 1 8 k M ' ] r . . . . . . . . . . + g $.D 4 , , , , < N -.2.q X . . . . . . . . . X w ) ' n - , , , , , , ",
", , , , , , , , , , , , , < j ! ] r . . . . . . . . . . + g $.D 4 ; , , , , 7 ! t.f O . . . . . . . . . # d [ ~ j ; , , , , , , ",
", , , , , , , , , , , , , , j ! ] r . . . . . . . . . . + g $.D 4 , , , , , < U e.P + . . . . . . . . o e ) ..N 1 , , , , , , , ",
", , , , , , , , , , , , , , j ! ] r . . . . . . . . . . + g $.D 4 , , , , < m @.8.d o . . . . . . . X = L +.U 7 ; , , , , , , , ",
", , , , , , , , , , , , , , j ! ] r . . . . . . . . . . + g $.D 4 , , , > N =.6.J = X . . . . . . . + i } / x ; , , , , , , , , ",
", , , , , , , , , , , , , , j ! ] r . . . . X + $ + X . + g $.D 4 , , > M =.q.K & . . . . . . . . . + p ,...l ; , , , , , , , , ",
", , , , , , , , , , , , , , j ! ] r . . . X = a d = X . + g $.D 4 , , k ' e.W q # + . . . . . . . . o e ] <.F 5 , , , , , , , , ",
", , , , , , , , , , , , , , j ! ] r . . . # p _ L q X . + g $.D 4 , , x -.f.t.2.( q X . . . . . . o = J 2.0.T 7 ; , , , , , , , ",
", , , , , , , , , , , , , , j ! ] r . . . = L u.I q X . + g $.U 5 < < j ~ d.k.h.{ q X . . . . . o q I ,.1./ n 1 , , , , , , , , ",
", , , , , , , , , , , , , , j ! ] r . . X e _ g.P q X . + g :...S V S U o.t.u._ i . . . . X X X & g ,.O.V 8 < , , , , , , , , , ",
", , , , , , , , , , , , , , j ! ] r . . + t | f.J & . . + d >.9.&.%.+.} } { J w . . X o + & + o q ) O.M - ; , , , , , , , , , , ",
", , , , , , , , , , , , , , j ! ] r . . + i _ | p + . . o e J ( ( ( P G i = . . . . o = w q # o w ] / x ; , , , , , , , , , , , ",
", , , , , , , , , , , , , , j ! ] t . . + q d p & X . . . .           . . . . . . . + q r = o o q ) ..m < , , , , , , , , , , , ",
", , , , , , , , , , , , , , j ! ] t . . . . . O @ O X . . X o + + O o X . . . . . . . . . . . X & G $.R x 6 1 , , , , , , , , , ",
", , , , , , , , , , , , , , j ! ] r . . . . X # 2 % X . . + w p p i r w & + X . . . . . . . . . o w W } ! S v 8 1 , , , , , , , ",
", , , , , , , , , , , , , , j ! ] r . . . . X + $ + X . X = L } } ] Q L G i & . . . . . . . . . . o q J { &./ S l 4 < , , , , , ",
", , , , , , , , , , , , , , j ! ] r . . . . . . X . . . X w { 9.#.o.#.1.9.] d + . . . . . . . . . . X $ e J ] [ R n 5 , , , , , ",
", , , , , , , , , , , , , , j ! ] r . . . . . . . . . . o r } ~ l 8 k m U <.| = . . . . . . . . . . . . o $ e K } / n < , , , , ",
", , , , , , , , , , , , , , j ! ] t . . . X + + o X . . + a $.Y 6 , < 1 7 ^ 6.p X . . . . . . . . . . . . . + e ( &.F 1 , , , , ",
", , , , , , , , , , , , , , j ! ] t . . X $ e p q + . . + G $.D 1 , , , : Y 6.G X . . . . . . . . . . . . . + t ) @.B 1 , , , , ",
", , , , , , , , , , , , , , j ! ] t . . o w I 3.g & X . $ P o.V 1 , , , - S <.( X . . . . . . . . . . . . . $ G } ~ h , , , , , ",
", , , , , , , , , , , , , , j ! ] t . . o r { f.J & . X = ) ^ n < , , , ; N =.} + . . . . . . . . . . . . . & J ' D < , , , , , ",
", , , , , , , , , , , , , , j ! ] r . . o r _ 8.d # . o e { R k , , , , ; x O.2.$ . . . . . . X o X . . . . & J ' S > , , , , , ",
", , , , , , , , , , , , , , j ! ] r . . o w J L w o . + a } U 7 , , , , , j ' 6.q . . . . . o & w # . . . . & J ' S > , , , , , ",
", , , , , , , , , , , , , < j ! ] r . . o & r e $ X . # G +.S 4 , , , , , 5 / 8.r X . . . X & p a = . . . . & J ' S > , , , , , ",
", , , , , , , , , , , , 1 7 n ' ] t . . X + # # o . . $ L ..V 1 , , , , , h ' 8.i X . . . o q G t # . . . X & J ' S > , , , , , ",
", , , , , , , , , , , < j U #.9.{ r . . . . . X X . X & W ..N 1 , , , , 6 S &.} w X . . . + q a = X . . X X & J ' S > , , , , , ",
", , , , , , , , , , , 4 S <.e.8._ w . . . . . . . . X & ( / M < , , , 5 S @.} f + . . . . o & = o . . + w a d P ' S > , , , , , ",
", , , , , , , , , , < j ^ :.( L f $ . . . . . . . . X & ( / m < , , 5 S @.} g & . . . . . X o X . . X = P >.2.3.&.S ; , , , , , ",
", , , , , , , , , , 1 B %.( e = & X . . . . . . . . X & ( / m < , 5 A @.} G & . . X o X . . . . . . X e ;.w.w.y.&.N ; , , , , , ",
", , , , , , , , , < h / } g X . . . . . . . . . . . X & ( ' M < 4 V @.;.G & . . . + * @ X . . . . . X e &.#.R / U j ; , , , , , ",
", , , , , , , , , 4 S &.( w . . . . . . . . . . . . . $ P ..B 5 V O.;.H & . . . . @ 2 % X . . . . . X e } ~ l 7 7 1 , , , , , , ",
", , , , ; ; ; > 4 N o.} f o . . . . . . . . . . . . . # G &.E F @.;.J = . . . . . X O o . . . . . . + p $.E h ; , , , , , , , , ",
", , 1 h l l x N U ..$.J = . . . . . . . . . . . . . . + i { <.1.;.J = X . . . . . . . . . . . + q p G ( @.F 5 , , , , , , , , , ",
", 1 x E / / / ' &.} H q . . . . . . . . . . . . . . . X & g _ { G = X . . . . . . . . . . X & d P ] &.%.R k , , , , , , , , , , ",
", 8 U y.>.} ] I G e $ X . . . . . . . . . . . . . . . . X # & & # X . . . . . . . . . . + w G } ,.o.U M h < , , , , , , , , , , ",
", j ~ t.d = & & # o . . . . . . . . . . . . . . . . . . . . . . . . . . . . . . . . . # t P 5.#.V j 5 1 , , , , , , , , , , , , ",
", 6 S e.( d w & o . . . . . . . . . . X + & = = = $ o + & 0 q q q q q q q q q q q q w s _ 9...n 4 , , , , , , , , , , , , , , , ",
", < j R w.6.) G p e q & $ # # & = w r p d G J J g e & r G L P P P P P P P P P P P P ( ;.1.U k 1 , , , , , , , , , , , , , , , , ",
", , 1 8 M ~ <.e.q.| W J f d d C L _ 2.u.i.t.8.| L e t _ e.t.e.e.e.e.e.e.e.e.e.e.e.e.0...M 7 < , , , , , , , , , , , , , , , , , ",
", , , , 4 8 k N T O.9.e.t.t.t.t.y.y.e.t.| d e w = e I <.Y v z z z z z z z z z z z z k 9 1 , , , , , , , , , , , , , , , , , , , ",
", , , , , , , 1 8 y z b N V N m b c N ^ _ w o o q K 5.E k 1 , , , , , , , , , , , , , , , , , , , , , , , , , , , , , , , , , , ",
", , , , , , , , , , , < 1 4 1 1 , < l ! _ w + 3 J 4./ v 1 , , , , , , , , , , , , , , , , , , , , , , , , , , , , , , , , , , , ",
", , , , , , , , , , , , , , , , , , l ! _ e q G 4.O.M 4 , , , , , , , , , , , , , , , , , , , , , , , , , , , , , , , , , , , , ",
", , , , , , , , , , , , , , , , , < l ! | G P ,...N 6 , , , , , , , , , , , , , , , , , , , , , , , , , , , , , , , , , , , , , ",
", , , , , , , , , , , , , , , , , , j ~ y.e.&.R v 4 , , , , , , , , , , , , , , , , , , , , , , , , , , , , , , , , , , , , , , "
};
