/* XPM */
static char *feeeebc26a9049398f9cda2aa78acc33[] = {
/* columns rows colors chars-per-pixel */
"64 64 152 2 ",
"   c #070707",
".  c #0C0D0D",
"X  c #0F1010",
"o  c #161616",
"O  c #1A1717",
"+  c #171818",
"@  c #1B1B1B",
"#  c #231C1C",
"$  c #2E1A1A",
"%  c #331E1E",
"&  c #232323",
"*  c #282727",
"=  c #272828",
"-  c #2C2C2C",
";  c #322222",
":  c #352929",
">  c #2F3030",
",  c #333333",
"<  c #383737",
"1  c #3C3C3C",
"2  c #6E0E0E",
"3  c #700404",
"4  c #710D0D",
"5  c #6E1212",
"6  c #711515",
"7  c #741B1B",
"8  c #781F1F",
"9  c #403D3D",
"0  c #752222",
"q  c #792525",
"w  c #772B2B",
"e  c #7B2C2C",
"r  c #7C3434",
"t  c #7E3A3A",
"y  c #3F4040",
"u  c #444444",
"i  c #484747",
"p  c #4C4C4C",
"a  c #4F5050",
"s  c #545454",
"d  c #585757",
"f  c #575858",
"g  c #5B5B5B",
"h  c #605D5D",
"j  c #636363",
"k  c #6A6666",
"l  c #676868",
"z  c #6C6B6B",
"x  c #716F6F",
"c  c #747373",
"v  c #787676",
"b  c #777878",
"n  c #7C7B7B",
"m  c #802F2F",
"M  c #823535",
"N  c #833B3B",
"B  c #864343",
"V  c #894545",
"C  c #874949",
"Z  c #8B4B4B",
"A  c #904F4F",
"S  c #8E5353",
"D  c #925454",
"F  c #945B5B",
"G  c #985F5F",
"H  c #976262",
"J  c #9A6565",
"K  c #9D6C6C",
"L  c #807D7D",
"P  c #9E7272",
"I  c #A16D6D",
"U  c #A37474",
"Y  c #A87777",
"T  c #A67979",
"R  c #AA7C7C",
"E  c #848383",
"W  c #898686",
"Q  c #8C8B8B",
"!  c #918F8F",
"~  c #949393",
"^  c #9A9696",
"/  c #9D9B9B",
"(  c #A78282",
")  c #AD8484",
"_  c #AE8989",
"`  c #B18686",
"'  c #B38C8C",
"]  c #A39D9D",
"[  c #AA9F9F",
"{  c #B59393",
"}  c #B99696",
"|  c #B79B9B",
" . c #BB9C9C",
".. c #A6A2A2",
"X. c #ABA4A4",
"o. c #ACAAAA",
"O. c #B4A7A7",
"+. c #BDA3A3",
"@. c #B3ACAC",
"#. c #BBABAB",
"$. c #B9ADAD",
"%. c #BFAFAF",
"&. c #B5B2B2",
"*. c #B6B3B3",
"=. c #BBB3B3",
"-. c #BDB1B1",
";. c #BFB3B3",
":. c #BEBBBB",
">. c #C09F9F",
",. c #C0A2A2",
"<. c #C1A5A5",
"1. c #C2A6A6",
"2. c #C1A9A9",
"3. c #C5A8A8",
"4. c #C3ADAD",
"5. c #C4AFAF",
"6. c #C9ADAD",
"7. c #C1B0B0",
"8. c #C1B2B2",
"9. c #C4B1B1",
"0. c #C5B5B5",
"q. c #C8B3B3",
"w. c #C8B7B7",
"e. c #C5B8B8",
"r. c #C5BBBB",
"t. c #C1BDBD",
"y. c #C4BFBF",
"u. c #CBBABA",
"i. c #CDBABA",
"p. c #CDBCBC",
"a. c #CDBDBD",
"s. c #D1BDBD",
"d. c #C1C2C2",
"f. c #C4C2C2",
"g. c #CBC3C3",
"h. c #CFC5C5",
"j. c #CDC6C6",
"k. c #CDC9C9",
"l. c #CFC9C9",
"z. c #D3C3C3",
"x. c #D4C2C2",
"c. c #D8C7C7",
"v. c #D4CBCB",
"b. c #D7CBCB",
"n. c #DBCDCD",
"m. c #D4D2D2",
"M. c #DBD5D5",
"N. c #DDDBDB",
"B. c #E1D7D7",
"V. c #E4DCDC",
"C. c #E7E6E6",
"Z. c #E9E1E1",
/* pixels */
"5 5 5 5 5 5 5 5 5 5 5 5 5 5 5 5 5 5 5 5 5 5 5 5 5 5 5 5 5 5 5 5 5 5 5 5 5 5 5 5 5 5 5 5 5 5 5 5 5 5 5 5 5 5 5 5 5 5 5 5 5 5 5 5 ",
"5 5 5 5 5 5 5 5 5 5 5 5 5 5 5 5 5 5 5 5 5 5 5 5 5 5 5 5 5 5 5 5 5 5 5 5 5 5 5 5 5 5 5 5 5 5 5 5 5 5 5 5 5 5 5 5 5 5 5 5 5 5 5 5 ",
"5 5 5 5 5 5 5 5 5 5 5 5 5 5 5 5 5 5 5 5 5 5 5 5 5 5 5 5 5 5 5 5 5 5 5 5 5 5 5 5 5 5 5 5 5 5 5 5 5 5 5 5 5 5 5 5 5 5 5 5 5 5 5 5 ",
"5 5 5 5 5 2 2 2 2 2 2 2 2 2 5 5 5 5 5 5 5 5 5 5 5 5 5 5 5 5 5 5 5 5 5 5 5 5 5 5 5 5 5 5 5 5 5 5 5 5 5 5 5 5 5 5 5 5 5 5 5 5 5 5 ",
"5 5 5 7 M S F S S Z Z C B M M r e q 0 7 6 2 2 2 2 5 5 5 5 5 5 5 5 5 5 5 5 5 5 5 5 5 5 5 5 5 5 5 5 5 5 5 5 5 5 5 5 5 5 5 5 5 5 5 ",
"5 5 5 e ) ,. .} { ' _ ) ( R R R Y U K J F S Z C N M r r r r r r r r r r r r r r r q 6 5 5 5 5 5 5 5 5 5 5 5 5 5 5 5 5 5 5 5 5 5 ",
"5 5 6 C x.l.@.] ] ] ] [ X.O.#.7.9.5.4.2.+. .' _ ) R R R R R R R R R R R R R R R R J N 6 5 5 5 5 5 5 5 5 5 5 5 5 5 5 5 5 5 5 5 5 ",
"5 5 6 C n.t.v i p p s s f g j k c n E ! ^ ] ..X.O.#.%.7.0.w.u.p.p.p.p.p.p.p.p.p.p.q.` r 6 5 5 5 5 5 5 5 5 5 5 5 5 5 5 5 5 5 5 5 ",
"5 5 5 t 3.h.E & @ @ & & & & & = - < 1 u i s s f h j k k k x x c c c c c c c c c n O.i.Y r 0 5 5 5 5 5 5 5 5 5 5 5 5 5 5 5 5 5 5 ",
"5 5 5 q K b.@.g o o o + o o o o o o + + @ @ & & & & = = - - , , , , , , > - - - < c O.i.' D e 0 7 6 5 5 5 5 5 5 5 5 5 5 5 5 5 5 ",
"5 5 5 6 M  .h./ u o & - + o o o o o o o o o o o o o o + < s k z z z k j s < & + o < k ] r.q.} U A e 8 7 6 5 5 5 5 5 5 5 5 5 5 5 ",
"5 5 5 5 7 S 1.r.Q < f n 1 + o o o o o o o o o o o o & s ~ &.t.y.y.y.t.:.&.X.E p @ o = f W ] $.w.5.+.) H M 7 6 5 5 5 5 5 5 5 5 5 ",
"5 5 5 5 5 8 J q.t.Q ^ d.n - o o o o o o o + @ @ + + , E -.9.+.| | | | +.2.4.-...k @ o + - s n ^ ..O.4.5.+.) D q 6 5 5 5 5 5 5 5 ",
"5 5 5 5 5 5 0 ( z.m.m.C.o.u + o o o o o o & 1 i , & u / 2.R N e q e M V F U  .u.o.j o o o + & > p z Q ] O.4.+.Y r 6 5 5 5 5 5 5 ",
"5 5 5 5 5 5 5 M } c.n.M.h.j & o o o o o o = s v p = p X. .F 6 5 5 5 5 6 6 8 N } g.] < o o o o o + @ & 1 j ~ -.5.I e 5 5 5 5 5 5 ",
"5 5 5 5 5 5 5 6 V I Y { l.E , o o o o o o - j E f - s o.} Z 2 5 5 5 5 5 5 5 6 Z 5.t.k + o o o o o o o + @ 1 v =.1.S 7 5 5 5 5 5 ",
"5 5 5 5 5 5 5 5 7 8 e P u./ y o o o o o o = s v p = f @.} V 2 5 5 5 5 5 5 5 5 6 _ p./ & o o o o o o o o o + u Q p.R r 2 5 5 5 5 ",
"5 5 5 5 5 5 5 5 5 5 7 G 2.&.i o o o o o o & 1 u - & j $.{ B 2 5 5 5 5 5 5 5 5 6 H w.:.< + o o o o o o o o o = k 7.} C 2 5 5 5 5 ",
"5 5 5 5 5 5 5 5 5 5 6 S  .=.s o o o o o o + @ & + & j $.' N 2 5 5 5 5 5 5 5 5 5 M +.l.f @ o o o o o o o o o @ p / 5.J 7 5 5 5 5 ",
"5 5 5 5 5 5 5 5 5 5 6 Z { :.f + o o o o o o o o o & z $.' M 2 5 5 5 5 5 5 5 5 5 4 | b.n & o o o o o o o o o + < n u.) r 2 5 5 5 ",
"5 5 5 5 5 5 5 5 5 5 6 B ' :.f + + @ + o o o o o o * c $._ M 2 5 5 5 5 5 5 5 5 5 3 ) z...= o o o o o o o o o o = j =.} Z 2 5 5 5 ",
"5 5 5 5 5 5 5 5 5 5 6 N ) t.g & 1 s u & o o o o o = v #.) r 2 5 5 5 5 5 5 5 5 5 4 J i.f.< o o o o o o o o o o @ p / 1.J 6 5 5 5 ",
"5 5 5 5 5 5 5 5 5 5 6 N ) t.g - j / n - o o o o o = n #.) e 2 5 5 5 5 5 5 5 5 5 2 V 1.m.s @ o o o o o o o o o + < L 9.R q 2 5 5 ",
"5 5 5 5 5 5 5 5 5 5 6 B _ t.j , v &.~ - o o o o o - E #.R q 5 5 5 5 5 5 5 5 5 5 5 8 { M.E = o o o o o o o o o o = j 7.' B 2 5 5 ",
"5 5 5 5 5 5 5 5 5 5 6 B ' t.j , v o.W & o o o + + - W 2.R q 5 5 5 5 5 5 5 5 5 5 5 3 U z.&.u o o o o o o o o o o & s X. .F 2 5 5 ",
"5 5 5 5 5 5 5 5 5 5 6 B ' t.g , v o.E + o + & = & , Q 1.Y 0 5 5 5 5 5 5 5 5 5 5 5 2 C  .m.c = o o o o o o o o o @ u ~ 1.U 6 5 5 ",
"5 5 5 5 5 5 5 5 5 5 6 V ' t.g , c / n . o & < u , < ! +.U 8 5 5 5 5 5 5 5 5 5 5 5 5 6 P c.@.f & o o o o o o o o + , n 4.) e 2 5 ",
"5 5 5 5 5 5 5 5 5 5 6 V ' t.f - z ~ k   o & i j u 1 ~ +.I 8 5 5 5 5 5 5 5 5 5 5 5 5 5 N ' b.^ i o o o o o o o o o & j -.} V 2 5 ",
"5 5 5 5 5 5 5 5 5 5 6 Z { :.f = h b s . o = s v p u ^ | J 7 5 5 5 5 5 5 5 5 5 5 5 5 5 6 Z 1.b.L - o o o o o o o o @ s X.| F 2 5 ",
"5 5 5 5 5 5 5 5 5 5 6 Z { :.f = p s 1 o o - g n s i /  .H 6 5 5 5 5 5 5 5 5 5 5 5 5 5 5 0 H c.@.g   o + + o o o o @ u ^ +.I 6 5 ",
"5 5 5 5 5 5 5 5 5 5 6 Z { :.f & < , & o o - j E f p ]  .G 6 5 5 5 5 5 5 5 5 5 5 5 5 5 5 5 N  .l.n   + = - o o o o @ < E +.) q 5 ",
"5 5 5 5 5 5 5 5 5 5 6 Z { :.f @ # @ @ @ + , j W g s ..} F 6 5 5 5 5 5 5 5 5 5 5 5 5 5 5 6 M ` m.E @ & g j + o o + & 1 c #.{ N 5 ",
"5 5 5 5 5 5 5 5 5 5 6 Z { :.s + o @ , 9 , , j W g s ..} D 6 5 5 5 5 5 5 5 5 5 5 5 5 5 5 e I 6.M.W & , W ^ & o o @ 1 f k O. .Z 2 ",
"5 5 5 5 5 5 5 5 5 5 6 Z { :.s + o & s k s , j W g s X.{ S 4 5 5 5 5 5 5 5 5 5 5 5 5 5 2 S i.b.:.c & , ~ / & o o & s v k ..| D 2 ",
"5 5 5 5 5 5 5 5 5 5 6 Z } :.s o o & s k s , j W g f o.} S 2 5 5 5 5 5 5 5 5 5 5 5 5 5 4 K V.@.v u @ - v E # o + , j n l ] | F 2 ",
"5 5 5 5 5 5 5 5 5 5 6 Z } :.s o o @ < u 1 - j E g f o.} S 2 5 5 5 5 5 5 5 5 5 5 5 5 5 8 U V.E = . o & u i + o + < j z j ..| F 2 ",
"5 5 5 5 5 5 5 5 5 5 6 Z  .:.s o o o o o o - g E f s X.} D 2 5 5 5 5 5 5 5 5 5 5 5 5 5 e ( N.c & o o + o o o o @ , s p d ..| D 2 ",
"5 5 5 5 5 5 5 5 5 5 6 S  .=.p o o o o o o - f n s s X.} D 6 5 5 5 5 5 5 5 5 5 5 5 5 2 N { M.j + o o o o o o o + = 1 , f X. .Z 2 ",
"5 5 5 5 5 5 5 5 5 5 6 D  .&.p o o o o o o = s c p i ]  .G 6 5 5 5 5 5 5 5 5 5 5 5 5 2 Z ,.b.f o o o o O O + o o @ & = z #.{ N 2 ",
"5 5 5 5 5 5 5 5 5 5 6 F ,.&.i o @ + o o o & u g u u ^ | J 7 5 5 5 5 5 5 5 5 5 5 5 5 2 F q.:.p o o o + $ $ @ o o + & u ! +.R q 5 ",
"5 5 5 5 5 5 5 5 5 5 7 G 1.&.i & 1 - + o o @ , u - < ! +.U 0 5 5 5 5 5 5 5 5 5 5 5 5 3 P b./ 1 o o o O % % @ o + & u E $. .D 6 5 ",
"5 5 5 5 5 5 5 5 5 5 7 G 2.o.i 1 c s @ o o + & & @ - E #.R q 5 5 5 5 5 5 5 5 5 5 5 5 7 ( M.n - o o o + # # o + = s ^ r.2.I q 5 5 ",
"5 5 5 5 5 5 5 5 5 5 7 H 2...u i ~ c & o o o + @ @ - v %.) M 2 5 5 5 5 5 5 5 5 5 5 2 N } M.g & o o o o o o o + , z f.x.) M 5 5 5 ",
"5 5 5 5 5 5 5 5 5 5 7 J 5./ u i ~ z & o o o + # ; : k $.{ B 2 5 5 5 5 5 5 5 5 5 5 4 J w.:.u + o o o o o o o o = k f.6.H 4 5 5 5 ",
"5 5 5 5 5 5 5 5 5 5 7 K 0.~ 1 1 k p @ o o o + # % ; s o.} D 6 5 5 5 5 5 5 5 5 5 5 8 _ b.~ , o o o o o o o o + < c r.{ C 2 5 5 5 ",
"5 5 5 5 5 5 5 5 5 5 8 P u.Q < & , & o o o o o @ # # 1 ^ | K 7 5 5 5 5 5 5 5 5 5 2 S 1.l.g & o o o o o o o o & s ] 5.U q 2 5 5 5 ",
"5 5 5 5 5 5 5 5 5 5 8 U g.E , o o o o o o o o o o + = E O.) e 5 5 5 5 5 5 5 5 5 q ) p.o.< + o o o o o o o + 1 n 7.' C 6 5 5 5 5 ",
"5 5 5 5 5 5 5 5 5 5 8 T l.n - o o o o o o o o o o o & k O.} B 5 5 5 5 5 5 5 5 7 H 5.t.k & o o o o o o o o & j X.5.H 0 5 5 5 5 5 ",
"5 5 5 5 5 5 5 5 5 5 0 ( l.c = o o o o o o o o o o o @ a ..+.G 7 5 5 5 5 5 5 8 S +.p.^ : + o o o o o o o + u Q p.` t 5 5 5 5 5 5 ",
"5 5 5 5 5 5 5 5 5 5 e ) l.j & o o o o o o o o o o o + , ! %.) e 5 5 5 6 0 r F  .g.X.p + + & @ + o o o o = c =.6.D 7 5 5 5 5 5 5 ",
"5 5 5 5 5 5 5 5 5 5 M ' f.g & o o o o o o o o o o o o & z $.1.F t t t C F ) q.z.X.f & + - u - + o o o @ p ^ p.R e 5 5 5 5 5 5 5 ",
"5 5 5 5 5 5 5 5 5 6 V { d.s @ o o o o o o o o o o o o + u / p.6.} } +.q.s.b.y.^ f & o = u u & o o o o - L -. .B 7 5 5 5 5 5 5 5 ",
"5 5 5 5 5 5 5 5 5 6 S | :.i + o o o o o o o o o o o o o & k ] =.=.$.=.&...! c i & o o @ - = + o o o @ s ] q.H 0 5 5 5 5 5 5 5 5 ",
"5 5 5 5 5 5 5 5 6 8 H 2.&.u o o o o o o o o o o o o o o + < f z x x z k f y & + o o o o + + o o o o - Q 0.{ e 5 5 5 5 5 5 5 5 5 ",
"5 5 5 5 6 4 6 m D Y 1.p.^ , o o o o o o o o o o o o o o o o + + + + + + o o o o o o o o o o o o o @ f O.q.G 6 5 5 5 5 5 5 5 5 5 ",
"5 5 6 M J _ +.5.w.w.7...g & o o o o o o o o o o o o o o o o o o o o o o o o o o o o o o o X o > s n ..u.} q 5 5 5 5 5 5 5 5 5 5 ",
"5 r U +.i.p.g.t.=...E s @ o o o o o o o o o o o o o o o o o o o o o o o o o o o o . o < f n ~ ..&.f.z.1.H 5 5 5 5 5 5 5 5 5 5 5 ",
"0 J s.b.:.] E j u & + o o o o o o o o o o o o o o o o o o o o o & - & + o o o , s v Q / o.-.p.s.p.u. .H 8 5 5 5 5 5 5 5 5 5 5 5 ",
"q R B.@.s @ o o o . . . . . . . . . . . . . . . . . . . . o = s n ! W j < < j Q ..-.z.b.z. .R D r 0 7 6 5 5 5 5 5 5 5 5 5 5 5 5 ",
"6 J x.h.Q v v v v v v v v v v v v v v v v v v v v v v v v v E X.b.M.M.&.Q Q =.b.s. .Y F M w 0 7 5 5 5 5 5 5 5 5 5 5 5 5 5 5 5 5 ",
"5 e U c.V.Z.Z.Z.Z.Z.Z.Z.Z.Z.Z.Z.Z.Z.Z.Z.Z.Z.Z.Z.Z.Z.Z.Z.Z.Z.V.c.>.Y } c.V.V.c.' Z e q 7 5 5 5 5 5 5 5 5 5 5 5 5 5 5 5 5 5 5 5 5 ",
"5 5 e F ) ' ' ' ' ' ' ' ' ' ' ' ' ' ' ' ' ' ' ' ' ' ' ' ' ' Y F t w t S U K S r 7 5 5 5 5 5 5 5 5 5 5 5 5 5 5 5 5 5 5 5 5 5 5 5 ",
"5 5 5 7 e r r r r r r r r r r r r r r r r r r r r r r r r r w 7 5 5 5 6 q 0 6 5 5 5 5 5 5 5 5 5 5 5 5 5 5 5 5 5 5 5 5 5 5 5 5 5 ",
"5 5 5 5 2 2 2 2 2 2 2 2 2 2 2 2 2 2 2 2 2 2 2 2 2 2 2 2 2 2 5 5 5 5 5 5 5 5 5 5 5 5 5 5 5 5 5 5 5 5 5 5 5 5 5 5 5 6 8 0 0 0 8 8 "
};
