/* XPM */
static char *fce5dcea5f2f4f05b576d03e9675b5eb[] = {
/* columns rows colors chars-per-pixel */
"64 64 144 2 ",
"   c #050505",
".  c #0B0B0B",
"X  c #161616",
"o  c #181717",
"O  c #171818",
"+  c #1A1A1A",
"@  c #211B1B",
"#  c #242424",
"$  c #272828",
"%  c #2B2B2B",
"&  c #362929",
"*  c #343434",
"=  c #393737",
"-  c #373838",
";  c #3C3B3B",
":  c #6C0202",
">  c #6E0C0C",
",  c #700404",
"<  c #710E0E",
"1  c #6E1212",
"2  c #711414",
"3  c #731B1B",
"4  c #781F1F",
"5  c #432B2B",
"6  c #762323",
"7  c #792424",
"8  c #772929",
"9  c #7B2C2C",
"0  c #7E3434",
"q  c #7F3A3A",
"w  c #3F4040",
"e  c #444444",
"r  c #484747",
"t  c #474848",
"y  c #4C4C4C",
"u  c #504F4F",
"i  c #535353",
"p  c #575858",
"a  c #5C5B5B",
"s  c #7E4141",
"d  c #605E5E",
"f  c #5F6060",
"g  c #646363",
"h  c #696767",
"j  c #6B6A6A",
"k  c #706F6F",
"l  c #747373",
"z  c #7A7A7A",
"x  c #803232",
"c  c #833C3C",
"v  c #854141",
"b  c #894444",
"n  c #864D4D",
"m  c #8B4C4C",
"M  c #8B5252",
"N  c #8D5A5A",
"B  c #925454",
"V  c #945C5C",
"C  c #995F5F",
"Z  c #946262",
"A  c #9B6565",
"S  c #966B6B",
"D  c #9C6B6B",
"F  c #817E7E",
"G  c #9D7373",
"H  c #A16D6D",
"J  c #A37373",
"K  c #A67C7C",
"L  c #AA7C7C",
"P  c #848383",
"I  c #8A8585",
"U  c #8D8D8D",
"Y  c #928D8D",
"T  c #949292",
"R  c #9A9595",
"E  c #9D9A9A",
"W  c #A48282",
"Q  c #AC8282",
"!  c #AE8B8B",
"~  c #B18686",
"^  c #B48D8D",
"/  c #A29D9D",
"(  c #B59292",
")  c #B99595",
"_  c #B79D9D",
"`  c #BC9B9B",
"'  c #A4A2A2",
"]  c #ABA4A4",
"[  c #AEAAAA",
"{  c #B1A5A5",
"}  c #BCA3A3",
"|  c #B3ADAD",
" . c #BAABAB",
".. c #B5B2B2",
"X. c #BAB3B3",
"o. c #BCB9B9",
"O. c #C09D9D",
"+. c #C0A1A1",
"@. c #C2A7A7",
"#. c #C4A6A6",
"$. c #C3A9A9",
"%. c #C5ABAB",
"&. c #C3AEAE",
"*. c #C7AFAF",
"=. c #CAAFAF",
"-. c #C1B3B3",
";. c #C7B0B0",
":. c #C2B7B7",
">. c #C7B7B7",
",. c #C8B1B1",
"<. c #CAB1B1",
"1. c #C9B5B5",
"2. c #C4BBBB",
"3. c #C2BDBD",
"4. c #C7BEBE",
"5. c #CCB8B8",
"6. c #CCBBBB",
"7. c #CEBABA",
"8. c #D1BDBD",
"9. c #D3BFBF",
"0. c #C4C2C2",
"q. c #CAC3C3",
"w. c #CEC1C1",
"e. c #CDC5C5",
"r. c #CDCACA",
"t. c #D2C2C2",
"y. c #D3C5C5",
"u. c #D4C5C5",
"i. c #D9C7C7",
"p. c #D0CACA",
"a. c #D3CBCB",
"s. c #D7CCCC",
"d. c #DACCCC",
"f. c #DACECE",
"g. c #D4D1D1",
"h. c #DED0D0",
"j. c #DCD3D3",
"k. c #DDDBDB",
"l. c #E1D5D5",
"z. c #E3DCDC",
"x. c #DFE0E0",
"c. c #E9E6E6",
"v. c #ECECEC",
"b. c #F2EFEF",
/* pixels */
"1 1 1 1 1 1 1 1 1 1 1 1 1 1 1 1 1 1 1 1 1 1 1 1 1 1 1 1 1 1 1 1 1 1 1 1 1 1 1 1 1 1 1 1 1 1 1 1 1 1 1 1 1 1 1 1 1 1 1 1 1 1 1 1 ",
"1 1 1 1 1 1 1 1 1 1 1 1 1 1 1 1 1 1 1 1 1 1 1 1 1 1 1 1 1 1 1 1 1 1 1 1 1 1 1 1 1 1 1 1 1 1 1 1 1 1 1 1 1 1 1 1 1 1 1 1 1 1 1 1 ",
"1 1 1 1 1 1 1 1 1 1 1 1 1 1 1 1 1 1 1 1 1 1 1 1 1 1 1 1 1 1 1 1 1 1 1 1 1 1 1 1 1 1 1 1 1 1 1 1 1 1 2 2 3 3 3 1 1 1 1 1 1 1 1 1 ",
"1 1 1 1 1 1 1 1 1 1 1 1 1 1 1 1 1 1 1 1 1 1 1 1 1 1 1 1 1 1 1 1 1 1 1 1 1 1 1 1 1 1 1 1 1 1 1 1 2 3 c m V A B 9 1 1 1 1 1 1 1 1 ",
"1 1 1 1 1 1 1 1 1 1 1 1 1 1 1 1 1 1 1 1 1 1 1 1 1 1 1 1 1 1 1 1 1 1 1 1 1 1 1 1 1 1 1 1 1 1 2 6 v A ~ _ }  .$.J 9 1 1 1 1 1 1 1 ",
"1 1 1 1 1 1 1 1 1 1 1 1 1 1 1 1 1 1 1 1 1 1 1 1 1 1 1 1 1 1 1 1 1 1 1 1 1 1 1 1 1 1 1 1 1 3 v H ( } ] / T T ..;.G 2 1 1 1 1 1 1 ",
"1 1 1 1 1 1 1 1 1 1 3 9 x 6 1 1 1 1 1 1 1 1 1 1 1 1 1 1 1 1 1 1 1 1 1 1 1 1 1 1 1 1 1 2 9 C ( &.{ T l i e e F y.) 7 > 1 1 1 1 1 ",
"1 1 1 1 1 1 1 1 1 0 A Q ~ D 7 1 1 1 1 1 1 1 1 1 1 1 1 1 1 1 1 1 1 1 1 1 1 1 1 1 1 1 2 c J +.-.' l e + X X + i e.@.9 > 1 1 1 1 1 ",
"1 1 1 1 1 1 1 1 3 J @. .>.=.b 1 1 > > > > > > > > > > > > > > > > > > > > > > > > 2 v Q *.X.T i # X X X X + f e.` 4 1 1 1 1 1 1 ",
"1 1 1 1 1 1 1 1 c @.4.U [ h.H 7 9 c M Z Z Z Z Z Z Z Z Z Z Z Z Z Z Z Z Z Z Z Z Z Z A ^ 1...z ; + X X X X X # P w.! , 1 1 1 1 1 1 ",
"1 1 1 1 1 1 2 9 H 9...- U s.O.J K ~ ) } } _ _ _ _ _ _ _ _ _ _ _ _ _ _ _ _ _ _ _ _ } >.| l * + X X X X X X % ' 7.J : 1 1 1 1 1 1 ",
"1 1 1 1 1 2 c D +.f.[ # j o.y.&. . .[ ' T U U U U U U U U U U U U U U U U U U U U U I g % + X X X X X X + = 3.*.N : 1 1 1 1 1 1 ",
"1 1 1 1 1 3 J $.:.o.T % - z ' U l a y e - = = = = = = = = = = = = = = = = = = = = = * $ + X X X X X X X + y a.} c > 1 1 1 1 1 1 ",
"1 1 1 1 1 9 }  .z i e + + * e - % + + + O O + + + + + + # * ; t y y y e ; % # + O + + X X X X X X X X X # l s.( < 1 1 1 1 1 1 1 ",
"1 1 1 1 1 c *.' i + + X X + + + X X X X X X X X X X @ = i l T ' [ | ] / U l i * + X X X X X X X X X X X % T t.K : 1 1 1 1 1 1 1 ",
"1 1 1 1 2 c ,./ y X X X X X X X X X X X X X X X O $ y I ..q.y.7.*.@.@.*.7.4.| F t $ X X X X X X X X X X = X.,.Z : 1 1 1 1 1 1 1 ",
"1 1 1 1 2 c ,./ y X X X X X X X X X X X X X X + % a ' e.7.^ D C B M M V A ~ ,.4.E a $ X X X X X X X X + e a.+.v > 1 1 1 1 1 1 1 ",
"1 1 1 1 7 V 9.' y X X X X X X X X X X X X X X $ a [ w.` A v 7 3 3 3 3 3 7 c A ) 2./ a # X X X X X X X # g h.( 6 > 1 1 1 1 1 1 1 ",
"1 1 1 7 H ,.z.[ y X X X X X X X X X X X X X + y ] w.) M 3 2 1 1 1 1 1 1 1 2 6 m ( >.E t + X X X X X X % I f.W : 1 1 1 1 1 1 1 1 ",
"1 1 6 V =.4.g.' y X X + + X X X X X X X X + - R w.} M 2 1 1 1 1 1 1 1 1 1 1 1 2 m ` :.U % X X X X X X = ' 9.S : 1 1 1 1 1 1 1 1 ",
"1 1 9 Q 7./ o.E y X $ - = X X X X X X X X $ j 2.=.A 2 1 1 1 1 1 1 1 1 1 1 1 1 1 2 A *.| p + X X X X + - ..,.Z : 1 1 1 1 1 1 1 1 ",
"1 1 0 ^ e.o.g.' y X j E I $ X X X X X X + - ' 7.Q 9 1 1 1 1 1 1 1 1 1 1 1 1 1 1 1 9 ^ >.U % X X X X + ; o.=.N : 1 1 1 1 1 1 1 1 ",
"1 1 9 L f.c.v.[ t . F 3.] % X X X X X X # a 2.+.m : 1 1 1 1 1 1 1 1 1 1 1 1 1 1 1 < A *.| e + X X X + ; X.,.Z : 1 1 1 1 1 1 1 1 ",
"1 1 6 A f.b.x.T - X a U z + X X X X X + * U 7.Q 3 1 1 1 1 1 1 1 1 1 1 1 1 1 1 1 1 1 c ) 2.j # X X X X = [ 9.S : 1 1 1 1 1 1 1 1 ",
"1 3 m ) w.0.E a # X X X X X X X X X X + e X.%.V : 1 1 1 1 1 1 1 1 1 1 1 1 1 1 1 1 1 2 K ;.T % X X X X % Y f.W : 1 1 1 1 1 1 1 1 ",
"3 v ( 7./ a + X X X X X X X X X X X X # a w.) 0 > 1 1 1 1 1 1 1 1 1 1 1 1 1 1 1 1 1 > C @.| - + X X X # g h.( 7 > 1 1 1 1 1 1 1 ",
"9 J 7./ i + X X X X X X X X X X X X + % z 7.K 2 1 1 1 1 1 1 1 1 1 1 1 1 1 1 1 1 1 1 1 c ) 2.i + X o + # e a.%.m : 1 1 1 1 1 1 1 ",
"v ) X.g $ X X X X X X X X X X X X X + ; / 1.S : 1 1 1 1 1 1 1 1 1 1 1 1 1 1 1 1 1 1 1 4 Q 2.l $ X + & & = | 9.G : 1 1 1 1 1 1 1 ",
"B *.E y + X X X X X X X X X X X X X + e X.@.M : 1 1 1 1 1 1 1 1 1 1 1 1 1 1 1 1 1 1 1 , G >.E * + @ 5 5 = E s.W : 1 1 1 1 1 1 1 ",
"A ,.I ; + X X X X X X X X X X X X X + u e.` v > 1 1 1 1 1 1 1 1 1 1 1 1 1 1 1 1 1 1 1 > V @...; + X + * j 3.7.S : 1 1 1 1 1 1 1 ",
"A ,.F = X X X X X X X X X X X X X X # a s.^ 0 > 1 1 1 1 1 1 1 1 1 1 1 1 1 1 1 1 1 1 1 1 c ( q.a # X % l q.i.Q 9 > 1 1 1 1 1 1 1 ",
"A 1.z = X X X X X X X X X X X X X X % j u.Q 6 1 1 1 1 1 1 1 1 1 1 1 1 1 1 1 1 1 1 1 1 1 3 K 7.P % + u q.f.Q 0 1 1 1 1 1 1 1 1 1 ",
"A ,.F - + + X X X X X X X X X X X + * z u.J 2 1 1 1 1 1 1 1 1 1 1 1 1 1 1 1 1 1 1 1 1 1 < Z *.[ ; $ g h.( c 1 1 1 1 1 1 1 1 1 1 ",
"A ;.I e - $ + X X X X X X X X X X + = U t.S : 1 1 1 1 1 1 1 1 1 1 1 1 1 1 1 1 1 1 1 1 1 > c ^ 7.g * g f.L 7 1 1 1 1 1 1 1 1 1 1 ",
"C ,.' I U a + X X X X X X X X X X + - R 9.S : 1 1 1 1 1 1 1 1 1 1 1 1 1 1 1 1 1 1 1 1 1 1 3 A ,.[ h P h.K 6 1 1 1 1 1 1 1 1 1 1 ",
"M %.h.k.0.j + + $ $ + X X X X X X + ; / 7.Z : 1 1 1 1 1 1 1 1 1 1 1 1 1 1 1 1 1 1 1 1 1 1 2 c Q 7.7.w.9.V 2 1 1 1 1 1 1 1 1 1 1 ",
"0 Q f.c...a + % a d - X X X X X X + e ] ,.N : 1 1 1 1 1 1 1 1 1 1 2 3 9 x x x x 0 0 x x x x c B ^ 9.,.Q b x x 0 9 3 2 1 1 1 1 1 ",
"3 m %.e.P = + e Y R g X X X X X X + e [ %.N : 1 1 1 1 1 1 1 1 1 3 c A Q ^ ^ ^ ^ ^ ^ ^ ^ ( ^ ^ ( ` %.#.) ^ ^ ^ ^ L A c 6 1 1 1 1 ",
"2 v @.o.l % + ; I Y a X X X X X X + e | %.M : 1 1 1 1 1 1 1 1 3 c K }  . . . . . . . . . . . . . . . . . . . . . .} ( A 9 1 1 1 ",
"2 v +.a.' i + $ i i * X X X X X X + r | #.M : 1 1 1 1 1 1 1 1 9 A $.[ U z z z z z z z z z z z z z z z z z z z z P E X.@.J 2 1 1 ",
"1 9 L h.o.g + X X X X X X X X X X + t ..+.M : 1 1 1 1 1 1 1 1 q Q 2.z %                                         O t T 7.` 3 1 1 ",
"1 8 H 7.E y + X X X X X X X X X X + t ..+.M : 1 1 1 1 1 1 1 1 c Q 2.P e % + X X X X X X X X X X X X X X X X X + % y U :.` 6 1 1 ",
"1 0 ^ 2.l % X X X X X X X X X X X + r | @.M : 1 1 1 1 1 1 1 1 9 H *.{ Y l i ; $ + X X X X X X X X X X X X + % y l R  .$.J 2 1 1 ",
"1 v +.| g + X X X X X + $ % + X X + e | %.M : 1 1 1 1 1 1 1 1 3 c J +.-.{ R P g ; + X X X X X X X X X X + ; j R  .;.` H 0 1 1 1 ",
"1 c ` | g + X X X X X * a g % + + + e [ %.N : 1 1 1 1 1 1 1 1 1 2 9 m H ~ `  .] F e + X X X X X X X X + ; I | 1.) A v 6 1 1 1 1 ",
"1 0 ^ :.l % X X X X X i E ' e # * * e ] =.N : 1 1 1 1 1 1 1 1 1 1 1 3 3 9 b J @. .z % X X X X X X X + * P 4.%.H c 3 1 1 1 1 1 1 ",
"1 8 H 7.Y e + X X X X a ' | e * a g t ' 1.Z : 1 1 1 1 1 1 1 1 1 1 1 1 1 1 3 9 A *./ e X X X X X X X + i 0.=.A 7 1 1 1 1 1 1 1 1 ",
"1 3 m @...j % X X X X * a g % e P T i E 9.S : 1 1 1 1 1 1 1 1 1 1 1 1 1 1 1 2 b +.] i + X X X X X X % z h.Q 7 1 1 1 1 1 1 1 1 1 ",
"1 1 9 J 7.E i + X X X + $ $ + e U E i R 9.S : 1 1 1 1 1 1 1 1 1 1 1 1 1 1 1 2 b @.] i + X X + + X + - ' u.S : 1 1 1 1 1 1 1 1 1 ",
"1 1 3 v ) :.P = X X X X X X X ; P T y U t.S : 1 1 1 1 1 1 1 1 1 1 1 1 1 1 1 2 C *./ e X X X $ = + + e o.,.N : 1 1 1 1 1 1 1 1 1 ",
"1 1 1 6 V *.] g + X X X X X X * g j e T t.G : 1 1 1 1 1 1 1 1 1 1 1 1 1 1 1 3 L  .U % X X X = i $ + t q.#.n : 1 1 1 1 1 1 1 1 1 ",
"1 1 1 1 9 K ;.Y w X X X X X X # - e a o.f.J 2 1 1 1 1 1 1 1 1 1 1 1 1 1 1 2 c _ { j + X X X t l % + t r.+.n > 1 1 1 1 1 1 1 1 1 ",
"1 1 1 1 2 c ) | l + X X X X X X + $ i ..h.%.A x 3 2 1 1 1 1 1 1 1 1 1 1 1 3 A &.R e X X X X i U ; + e o.9.Z > 1 1 1 1 1 1 1 1 1 ",
"1 1 1 1 1 3 D >./ e X X X X X X X + = l ' :.;.` L B 9 2 < < < 2 2 2 2 2 2 c (  .z % + i l i a T i # * U h.! 9 > 1 1 1 1 1 1 1 1 ",
"1 1 1 1 1 1 x } X.l X X X X X X X X + $ t P /  .&.$.` ( ! K J A C V B B C ~ 1.R y + % I ..U i z i # + i r.%.M : 1 1 1 1 1 1 1 1 ",
"1 1 1 1 1 1 3 Q 7.T + X X X X X X X X X + $ e l T ' |  . .&.&.$.%.%.%.%.*.7.| l % X % U o.T - e = + + ; X.1.Z : 1 1 1 1 1 1 1 1 ",
"1 1 1 1 1 1 2 C 7.[ e $ + . X X X X X X X X X + % - i j P T E / ' ] ] [ [ ' l - o X + g I g # + + X + - X.,.Z : 1 1 1 1 1 1 1 1 ",
"1 1 1 1 1 1 2 b ,.e.' T U z f ; X X X X X X X X X X + + # # $ $ % % % % % $ # + X X X + # + X X X X + e r.%.M : 1 1 1 1 1 1 1 1 ",
"1 1 1 1 1 1 1 6 ( 9.u.y.y.q.| R j = + X X X X X X X X X X X X X X X X X X X X X X X X X X X X + % + + i h.` c > 1 1 1 1 1 1 1 1 ",
"1 1 1 1 1 1 1 1 9 m C J ~ @.9.s.3.I e + X X X X X X X X X X X X X X X X X X X X X + + X X X $ a P p * k z.! 3 1 1 1 1 1 1 1 1 1 ",
"1 1 1 1 1 1 1 1 1 3 3 6 7 9 v L 9.a.U ; O X X X X X X X X X X X X X X O + % - u g d ; + X $ a ] g.[ j E h.G : 1 1 1 1 1 1 1 1 1 ",
"1 1 1 1 1 1 1 1 1 1 1 1 1 1 2 7 V 7.a.U j h j j j j j j j j h h j j j j k z U ' q.o.z % $ a ' h.i.h.o.r.,.N : 1 1 1 1 1 1 1 1 1 ",
"1 1 1 1 1 1 1 1 1 1 1 1 1 1 1 1 7 A u.z.z.z.z.z.z.z.z.z.z.z.z.z.z.z.z.z.l.h.u.%.=.u.[ g j ] y.) V ( l.l.Q 9 > 1 1 1 1 1 1 1 1 1 ",
"1 1 1 1 1 1 1 1 1 1 1 1 1 1 1 1 1 8 C ~ ^ ^ ^ ^ ^ ^ ^ ^ ^ ^ ^ ^ ^ ^ ~ L D V n s m ) u.r.r.u.~ c 3 q D H q 1 1 1 1 1 1 1 1 1 1 1 "
};
