/* XPM */
static char *_7e2e91160b34c339395c0c34907b0c3[] = {
/* columns rows colors chars-per-pixel */
"64 64 135 2 ",
"   c #000000",
".  c #0C0D0D",
"X  c #161616",
"o  c #1A1A1A",
"O  c #232323",
"+  c #282727",
"@  c #2B2B2B",
"#  c #302F2F",
"$  c #2F3030",
"%  c #343434",
"&  c #3A3636",
"*  c #3B3B3B",
"=  c #6C0202",
"-  c #6D0C0C",
";  c #710D0D",
":  c #6E1212",
">  c #711515",
",  c #721A1A",
"<  c #752323",
"1  c #782525",
"2  c #762929",
"3  c #7A2B2B",
"4  c #7D3333",
"5  c #7D3E3E",
"6  c #434343",
"7  c #484747",
"8  c #4C4C4C",
"9  c #4F5050",
"0  c #535353",
"q  c #595757",
"w  c #5B5A5A",
"e  c #645E5E",
"r  c #636363",
"t  c #696464",
"y  c #6B6B6B",
"u  c #706F6F",
"i  c #757474",
"p  c #797777",
"a  c #7D7C7C",
"s  c #823737",
"d  c #833C3C",
"f  c #844343",
"g  c #894545",
"h  c #854C4C",
"j  c #8C4B4B",
"k  c #865252",
"l  c #8D5353",
"z  c #8B5959",
"x  c #915353",
"c  c #955B5B",
"v  c #995E5E",
"b  c #966363",
"n  c #9B6565",
"m  c #9C6B6B",
"M  c #817E7E",
"N  c #9D7070",
"B  c #A16D6D",
"V  c #A47474",
"C  c #A87676",
"Z  c #A67A7A",
"A  c #AB7C7C",
"S  c #848383",
"D  c #888585",
"F  c #8D8B8B",
"G  c #938F8F",
"H  c #8F9090",
"J  c #929292",
"K  c #9A9696",
"L  c #9D9B9B",
"P  c #A78282",
"I  c #AE8383",
"U  c #AD8888",
"Y  c #B18686",
"T  c #B48B8B",
"R  c #AB9696",
"E  c #A39E9E",
"W  c #B69292",
"Q  c #BA9595",
"!  c #B09F9F",
"~  c #BC9B9B",
"^  c #A4A2A2",
"/  c #AAA4A4",
"(  c #AEACAC",
")  c #B2A7A7",
"_  c #BDA2A2",
"`  c #B7ABAB",
"'  c #B3ACAC",
"]  c #B4AEAE",
"[  c #BBADAD",
"{  c #BBAEAE",
"}  c #B4B2B2",
"|  c #BAB0B0",
" . c #BCB3B3",
".. c #BBB4B4",
"X. c #BEB8B8",
"o. c #C09F9F",
"O. c #C0A3A3",
"+. c #C0A5A5",
"@. c #C2A4A4",
"#. c #C3A9A9",
"$. c #C5A9A9",
"%. c #C4ADAD",
"&. c #C4AFAF",
"*. c #C6AFAF",
"=. c #C8ABAB",
"-. c #C3B2B2",
";. c #C7B2B2",
":. c #C6B6B6",
">. c #C8B1B1",
",. c #C8B7B7",
"<. c #C2B9B9",
"1. c #C4B9B9",
"2. c #C3BCBC",
"3. c #C6BFBF",
"4. c #CBB8B8",
"5. c #CBB9B9",
"6. c #CDBBBB",
"7. c #CEBEBE",
"8. c #D3BDBD",
"9. c #D0BFBF",
"0. c #C5C2C2",
"q. c #CFC3C3",
"w. c #CBC4C4",
"e. c #CBC6C6",
"r. c #D2C3C3",
"t. c #D4CCCC",
"y. c #DACCCC",
"u. c #D6D0D0",
"i. c #DBD4D4",
"p. c #DED7D7",
"a. c #DED9D9",
"s. c #E3D6D6",
"d. c #E3DBDB",
"f. c #E8DDDD",
"g. c #E7E0E0",
/* pixels */
": : : : : : : : : : : : : : : : : : : : : : : : : : : : : : : : : : : : : : : : : : : : : : : : : : : : : : : : : : : : : : : : ",
": : : : : : : : : : : : : : : : : : : : : : : : : : : : : : : : : : : : : : : : : : : : : : : : : : : : : : : : : : : : : : : : ",
": : : : : : : : : : : : : : : : : : : : : : : : : : : : : : : : : : : : : : : : : : : : : : : : : : : : : : : : : : : : : : : : ",
": : : : : : : : : : : : : : : : : : : : : : : : : : : : : : : : : : : : : : : : : : : : : : : : : : : : : : : : : : : : : : : : ",
": : : : : : : : : : : : : : : : : : : : : : : : : : : : : : : : : : : : : : : : : : : : : : : : : : : : : : : : : : : : : : : : ",
": : : : : : : : : : : : : : : : : : : : : : : : : : : : : : : : : : : : : : : : : : : : : : : : : : : : : : : : : : : : : : : : ",
": : : : : : : : : : : : : : : : : : : : : : : : : : : : : : : : : : : : : : : : : : : : : : : : : : : : : : : : : : : : : : : : ",
": : : : : : : : : : : : : : : : : : : : : : : : : : : : : : : : : : : : : : : : : : : : : : : : : : : : : : : : : : : : : : : : ",
": : : : : : : : : : : : : : : : : : : : : : : : : : : : : : : : : : : : : : : : : : : : : : : : : : : : : : : : : : : : : : : : ",
": : : : : : : : : : : : : : : : : : : : : : : : : : : : : : : : : : : : : : : : : : : : : : : : : : : : : : : : : : : : : : : : ",
": : : : : : : : : : : : : : : : : : : : : : : : : : : : : : : : : : : : : : : > > , , , , , , , , , , , , , , , , > > : : : : : ",
": : : : : : > , , , , , , , , , , , , , , , , , , , , , , , > : : : : : , 1 4 s f g g j j j g g j j j j g g g g g f s 3 < > : : ",
": : : : : , s j j j j j j j j j j j j j j j j j j j j j x j s 1 , : : 1 x C Y W ~ _ _ _ _ _ _ ~ _ _ ~ ~ ~ _ _ _ ~ ~ Q Y n s , : ",
": : : : < c W _ +.+.+.+.+.+.+.+.+.+.+.+.+.+.+.+.+.+.+.+.#.+.W B f , > l O.4.' E K J G G G G G G G G G G G G G G J K / <.;.I d > ",
": : : > x $. .K F F F F F F F F F F F F F F F F F F F F F K ] ,.~ x < m 7.^ w 6 * * * * * * * * * * * * * * * * * * 8 y E ;.C 1 ",
": : : , Y q.F 6 % % % % % % % % % % % % % % % % % % % % % * r L 7.I 3 c %.^ 6 o o o o o o o o o o o X X o o o o o O @ * i | W s ",
": : : > C 9.K q * + o o X X X X X X X X X X X X X X o o @ 6 y / ,.V 1 d T 1.M * o X X X X X X X X X X X X X o + 6 w p F ^ 6.Q d ",
": : : : s W :.) F y 6 o X X X X X X X X X X X X X o + 7 u K ` _ B 4 > , x O.<.S * o X X X X X X X X X X X o % r K | 6.6.4.+.B 2 ",
": : : : > s B +.7.3.K 6 X X X X X X X X X X X X X O q L <.%.I j 1 : : : < c _ <.S % X X X X X X X X X X X % p ` ;.W B c j g 3 > ",
": : : : : : 1 d b =.e.r X X X X X X X X X X X X X % D 7.Y j 3 , : : : : : < x ~ <.p + X X X X X X X X X O y ] O.v 4 < , : : : : ",
": : : : : : : : < C i.p o X X X X X X X X X X X o 6 K $.j , : : : : : : : : , x O...w X X X X X X X X X * E >.n > : : : : : : : ",
": : : : : : : : > x p.F @ X X X X X X X X X X X o 8 E Q s : : : : : : : : : : , m 4.^ @ X X X X X X X o t { ~ 3 - : : : : : : : ",
": : : : : : : : : 4 p.L * X X X X X X X X X X X O w ) Y 2 : : : : : : : : : : : s ~ 0.w X X X X X X X O S %.C = : : : : : : : : ",
": : : : : : : : : 2 r.( 7 X X X X X X X X X X X + t | A < : : : : : : : : : : : ; P r.S X X X X X X X @ K %.b = : : : : : : : : ",
": : : : : : : : : 1 %.<.q X X X X X X X X X X X @ u -.V , : : : : : : : : : : : - m 4.L . X X X X X X @ E %.j - : : : : : : : : ",
": : : : : : : : : < Q t.r X X X X X X X X X X X @ p ;.n , : : : : : : : : : : : - n 4./ . X X X X X X @ / %.g - : : : : : : : : ",
": : : : : : : : : < Y u.y X X X X X X X X X X X % S >.x , : : : : : : : : : : : - b ,./ . X X X X X X $ / %.f - : : : : : : : : ",
": : : : : : : : : , C i.y X X X X X X X X X X o * G =.j : : : : : : : : : : : : - b >.^ . X X X X X X @ ) %.f - : : : : : : : : ",
": : : : : : : : : , n i.i X X X X X X X X X X o 6 K o.d : : : : : : : : : : : : - m ,.L . X X X X X X @ / %.j - : : : : : : : : ",
": : : : : : : : : , c i.p o X X X X X X X X X o 0 / W 4 : : : : : : : : : : : : - m ,.L . X X X X X X @ E $.l - : : : : : : : : ",
": : : : : : : : : > x p.a O X X X X X X X X X O w ` Y 1 : : : : : : : : : : : : ; m ,.J . X X X X X X @ K #.c = : : : : : : : : ",
": : : : : : : : : > j p.S + X X X X X X X X X + y  .A < > > > > > > > > > > > > d W 6.a X X X X X X X + G #.n = : : : : : : : : ",
": : : : : : : : : > f a.F @ X X X X X X X X X @ i q.Q n b b b b b b b b b b n Z ~ 6.( 8 X X X X X X X + F %.V = : : : : : : : : ",
": : : : : : : : : : s a.J % X X X X X X X X X @ i 0.1._ _ _ _ _ _ _ _ _ _ _ { -.<.L q X X X X X X X X O S -.A = : : : : : : : : ",
": : : : : : : : : : 4 a.J % X X X X X X X X X O 8 S F H J J J J J J J J J H F S r @ X X X X X X X X X O p -.U = : : : : : : : : ",
": : : : : : : : : : 4 a.K % X X X X X X X X X X X                               . X X X X X X X X X X o y { T ; : : : : : : : : ",
": : : : : : : : : : 4 a.L % X X X X X X X X X X X X X X X X X X X X X X X X X X X X X X X X o o X X X o r { W , : : : : : : : : ",
": : : : : : : : : : 4 p.L * X X X X X X X X X X X X X X X X X X X X X X X X X X X X X X X O 6 6 o X X O y  .W , : : : : : : : : ",
": : : : : : : : : : 4 y.L * X X X X X X X X X X X X X o @ * 6 6 6 6 6 6 6 6 6 6 6 % o X X 6 F J 6 X X * E 7.C > : : : : : : : : ",
": : : : : : : : : : 3 t.E * X X X X X X X X X X X X o 6 M / ) ` ` ) ` ` ` ` ` ....S + X X 8 K E 7 X o 7 | 4.x - : : : : : : : : ",
": : : : : : : : : : 3 r.^ 6 X X X X X X X X X X X o * D { $.O.O.O.O.O.O.O.O.=.y.a.F O X X @ w e @ X X * K ;.V < : : : : : : : : ",
": : : : : : : : : : 3 9./ 6 X X X X X X X X X X o % i { W x d s s s s s s s j ~ e.0 X X X X o o X X X o t ) $.n , : : : : : : : ",
": : : : : : : : : : 2 4.( 7 X X X X X X X X X X O q / +.x > - - - - - - - - 4 W 2.* X X X X o o X X X X % J r.W 3 - : : : : : : ",
": : : : : : : : : : 2 >.} 9 X X X X X X X X X o * F ;.C 2 : : : : : : : : : s Q 3.6 * % X X 6 8 X X X X * / r.A 1 : : : : : : : ",
": : : : : : : : : : 1 +.2.q X X o % * o X X o % p { W d : : : : : : : : : : 4 Q t.F K p X o a J   X X o q { $.f > : : : : : : : ",
": : : : : : : : : : 1 Q e.w X X @ w t @ X X o 8 ^ %.x , : : : : : : : : : , g O.g.u.t.K . O L (   X X o w ` Q , : : : : : : : : ",
": : : : : : : : : : < Y t.t X o + q e + X X O w ) Q 4 : : : : : : : : : : f I >.f.s.y.L . O L }   X X o q ` ~ < : : : : : : : : ",
": : : : : : : : : : , C u.y X X o % & o X X O w ) T 2 : : : : : : : : : > m $.R 4.y.r.^ . o L }   X X o 7 ` ~ 3 - : : : : : : : ",
": : : : : : : : : : , V u.y o X X o o X X X O w ) T 2 : : : : : : : : : > N 4.! %.9.4.^ . X S L   X X X * ) +.s - : : : : : : : ",
": : : : : : : : : : , B u.i o X X X X X X X O w ) T 2 : : : : : : : : : > j W +.~ W ,./ . X 0 w . X X X % E $.l - : : : : : : : ",
": : : : : : : : : : , b u.p o X X X X X X X O w ) T 2 : : : : : : : : : : < j b x n >./ . X O O X X X X @ G %.m = : : : : : : : ",
": : : : : : : : : : , n u.i o X X X X X X X O w ) T 2 : : : : : : : : : : : > , > b >.^ . X X X X X X X o u { Y , : : : : : : : ",
": : : : : : : : : : , C u.y X X X X X X X X O q ) T 2 : : : : : : : : : : : : : - m ,.L . X X X X X X X o 7 / _ j - : : : : : : ",
": : : : : : : : : : 3 +.2.w X X X X X X X X O q ) T 2 : : : : : : : : : : : : > > Z 7.F X X X X X X X X X @ S { A < : : : : : : ",
": : : : : : : : , 2 V t.J * X X X X X X X X O q ) Q 4 : : : : : : : : : > , 2 j V %.e.y X X X X X X X X X o 0 E +.n , : : : : : ",
": : > , < < 2 d B ~ r.( w o X X X X X X X X o 8 ^ r.A s , : : : : > , 2 j C O.4.7.| F % X X X X X X X X X X + y ) #.n 3 , , > : ",
": > g B Y Q $.4.r.3.K w + X X X X X X X X X o @ r E :.Q l , > , 3 j C O.4.r...L p r * o X X X X X X X X X X X @ u ) 4.O.I n s , ",
": s ~ r.q.../ K S y 6 O X X X X X X X X X X X o + 8 S { O.x g C +.9.r.X.L p r 6 @ o o X X X X X X X X X X X X o @ w F ) 6.r.W d ",
": g >.' p w 0 6 @ o o X X X X X X X X X X X X o o @ 8 G 4.T +.s.e.^ M r 6 @ o o X X X X X X X X X X X X X X X o o @ 6 r F e.O.g ",
": 1 ~ <.a * @ + + + + @ @ @ @ @ @ @ + o o o O * r S L X.9.Q 9.d.0.^ S y w 7 * % # @ O o X X X X X X o o + @ % * 0 y D ^ 2.,.C 2 ",
": > c %.r.} J a p p a S J K L E E K S w % % y } t.r.>.$.Y v T 9.y.i.i.u.t.t.e...^ J u 6 + O + @ % * 6 w p J ( e.t.t.r.4.~ m 4 : ",
": : < j I %.y.u.u.u.u.p.p.y.r.4.4.y.i.t.^ a ..%.V z h f 4 < 4 h z b m V C I Q $.r.p.u...a y p D E X.t.p.p.y.4.Q C b z k d 1 : : ",
": : : > 3 f k z z z z z z k k h h z n Q y.u.r.B 2 > : : : : : : : > , < 1 3 4 f h z V %.s.p.p.t.4.+.~ I m z h 4 1 , : : : : : : ",
": : : : : : : : : : : : : : : : : : , j o.f.>.j , : : : : : : : : : : : : : : : : : < f b b z k f 5 4 2 , : : : : : : : : : : : "
};
