/* XPM */
static char *_eac2bfbfd9b4ad5af1509dfe5d21123[] = {
/* columns rows colors chars-per-pixel */
"64 64 126 2 ",
"   c #050707",
".  c #070808",
"X  c #0C0D0D",
"o  c #161616",
"O  c #191717",
"+  c #171818",
"@  c #1B1B1B",
"#  c #241919",
"$  c #2C1C1C",
"%  c #321A1A",
"&  c #232323",
"*  c #2B2B2B",
"=  c #333434",
"-  c #3C3C3C",
";  c #6D0606",
":  c #6E0D0D",
">  c #700E0E",
",  c #6E1212",
"<  c #701515",
"1  c #731C1C",
"2  c #752424",
"3  c #7A2525",
"4  c #752C2C",
"5  c #7C2C2C",
"6  c #7D3131",
"7  c #7F3B3B",
"8  c #454545",
"9  c #4C4C4C",
"0  c #504F4F",
"q  c #545353",
"w  c #5B5B5B",
"e  c #605F5F",
"r  c #636363",
"t  c #6C6B6B",
"y  c #706E6E",
"u  c #6F7070",
"i  c #747373",
"p  c #787777",
"a  c #7E7D7D",
"s  c #813434",
"d  c #843B3B",
"f  c #883F3F",
"g  c #854343",
"h  c #894545",
"j  c #8D4C4C",
"k  c #8E5353",
"l  c #925252",
"z  c #945A5A",
"x  c #976262",
"c  c #9A6363",
"v  c #9D6A6A",
"b  c #807F7F",
"n  c #A16D6D",
"m  c #A47373",
"M  c #A67A7A",
"N  c #AA7D7D",
"B  c #858484",
"V  c #898787",
"C  c #878989",
"Z  c #8C8C8C",
"A  c #908F8F",
"S  c #959494",
"D  c #9A9797",
"F  c #9B9A9A",
"G  c #AD8383",
"H  c #AF8888",
"J  c #B08484",
"K  c #B28A8A",
"L  c #A19E9E",
"P  c #B49191",
"I  c #B99595",
"U  c #B79C9C",
"Y  c #BA9C9C",
"T  c #A5A2A2",
"R  c #A9A5A5",
"E  c #ACABAB",
"W  c #B7A3A3",
"Q  c #BCA4A4",
"!  c #B3ACAC",
"~  c #BCACAC",
"^  c #BFADAD",
"/  c #B4B2B2",
"(  c #B7B3B3",
")  c #BAB4B4",
"_  c #BDB4B4",
"`  c #BDB7B7",
"'  c #BAB8B8",
"]  c #BCB8B8",
"[  c #BBBCBC",
"{  c #C2A3A3",
"}  c #C1A7A7",
"|  c #C1AAAA",
" . c #C5ABAB",
".. c #C0ADAD",
"X. c #C6ADAD",
"o. c #CBAEAE",
"O. c #C2B1B1",
"+. c #C6B3B3",
"@. c #C3B4B4",
"#. c #C4B5B5",
"$. c #CAB3B3",
"%. c #CBB5B5",
"&. c #C4BBBB",
"*. c #C4BDBD",
"=. c #CBB9B9",
"-. c #C9BFBF",
";. c #CCBCBC",
":. c #D4BFBF",
">. c #C4C2C2",
",. c #C9C1C1",
"<. c #CEC0C0",
"1. c #CBCACA",
"2. c #D3C1C1",
"3. c #D2C4C4",
"4. c #D8C7C7",
"5. c #D4C8C8",
"6. c #D6CDCD",
"7. c #DBCECE",
"8. c #D4D4D4",
"9. c #DAD2D2",
"0. c #DDD1D1",
"q. c #DCDCDC",
"w. c #E6DCDC",
"e. c #E9DEDE",
"r. c #E3E1E1",
"t. c #E9E0E0",
/* pixels */
", , , , , , , , , , , , , , , , , , , , , , , , , , , , , , , , , , , , , , , , , , , , , , , , , , , , , , , , , , , , , , , , ",
", , , , , , , , , , , < < < < , , , , , , , , , , , , , , , , , , , , , , , , , , , , , , , , , , , , , , , , , , , , , , , , , ",
", , , , , , , , , , 2 d h h d 5 < < < < , , , , , , , , , , , < 1 5 5 1 < , , , , , , , , , , , , , , , , , , , , , , , , , , , ",
", , , , , , , , , 2 m I Y Y I G v v x l d 3 < > , , , , , < 2 h v G G m j 5 < , , , , , , , , , , , , , , , , , , , , , , , , , ",
", , , , , , , , 1 d $.<.~ ! ! W W |  .{ P N v z h d 5 s h z m P Q Q Q Q I m k d d d d d d d d d d d d d d d s 3 < , , , , , , , ",
", , , , , , , , 1 j 9.[ i r t a D E ` &.@.| Q Y K G N G K I Q ~ R C V L ~ | Y K K K K K K K K K K K K K K K J v d < , , , , , , ",
", , , , , , , , 1 h 6.E - + @ * - 9 w t a S T ! ~ ....~ ~ R A i q = = 9 p T ` #.#.#.#.#.#.+.+.+.#.#.#.#.#.=.2.o.v 1 , , , , , , ",
", , , , , , , , < s 5.' r o + + + @ @ & = - 9 q r t p i r 0 - * @ + + @ * 9 r t t t t t t t t t t t t t y V *.4.G 1 , , , , , , ",
", , , , , , , , , 5 } ,.Z * + + + + + + + + @ & & * = * & @ + + + + + + + @ & & * * & & * * * * * * * * 8 a *. .x < , , , , , , ",
", , , , , , , , , 1 v =.] i = & + + + + + + + + + + + + + + + + + + + + + + + + + + + + + + + + + + # - p ` $.m 5 , , , , , , , ",
", , , , , , , , , < 6 N +.` Z w = & @ @ + + + + + + + + + + + + + + + + + + + + + + + + + @ & & & = w Z ` %.M 7 , , , , , , , , ",
", , , , , , , , , , < d M Q #.( T A p w - @ + + + + + + + + + + + + + + + + + + + + + @ - r V D F T ( -.X.M d < , , , , , , , , ",
", , , , , , , , , , , < 5 x K Q Q O.` ! F i - + + + + + + + + + + + + + + + + + + + = t F ! ~ ....X.X.U n 6 < , , , , , , , , , ",
", , , , , , , , , , , , , 1 5 j n K Q ..#.! C 8 + + + + + + + + + + + + + + + + + = i ! =.| P N M m x d 1 , , , , , , , , , , , ",
", , , , , , , , , , , , , , , < 1 3 s l K +.) B = + + + + + + + + + + + + + + + + r R 2.P l 5 2 2 1 1 < , , , , , , , , , , , , ",
", , , , , , , , , , , , , , , , , , , 1 s n } ! w @ + + + + + + + + + + + + + + = C <.I h 1 , , , , , , , , , , , , , , , , , , ",
", , , , , , , , , , , , , , , , , , , , < d P @.a * + + + + + + + + + + + + + o w R ;.z 2 , , , , , , , , , , , , , , , , , , , ",
", , , , , , , , , , , , , , , , , , , , , 5 N Q Z * + + + + + + + + + + + + + + a @.{ d < , , , , , , , , , , , , , , , , , , , ",
", , , , , , , , , , , , , , , , , , , , , 3 m Q D = + + + + + + + + + + + + + * D =.m 3 , , , , , , , , , , , , , , , , , , , , ",
", , , , , , , , , , , , , , , , , , , , , 2 m Q D = + + + + + + + + + + + + + 9 R #.j 1 , , , , , , , , , , , , , , , , , , , , ",
", , , , , , , , , , , , , , , , , , , , , 3 m Q D = + + + + + + + + + + + + + t ! | s < , , , , , , , , , , , , , , , , , , , , ",
", , , , , , , , , , , , , , , , , , , , , 3 m Q D = + + + + + + + + + + + + + B ` I 5 , , , , , , , , , , , , , , , , , , , , , ",
", , , , , , , , , , , , , , , , , , , , , 3 m Q D = + + + + + + + + + + + + @ D O.N 3 , , , , , , , , , , , , , , , , , , , , , ",
", , , , , , , , , , , , , , , , , , , , , 3 m Q S = + + + + + + + + + + + + * L +.n 1 , , , , , , , , , , , , , , , , , , , , , ",
", , , , , , , , , , , , , , , , , , , , , 3 m Q S = + + + + + + + + + + + + 8 R ..l 1 , , , , , , , , , , , , , , , , , , , , , ",
", , , , , , , , , , , , , , , , , , , , , 3 m Q S = + + + + + + + + + + + + q ! Q d < , , , , , , , , , , , , , , , , , , , , , ",
", , , , , , , , , , , , , , , , , , , , < 3 m Q S = + + + + + + + + + + + @ r ) Q s , , , , , , , , , , , , , , , , , , , , , , ",
", , , , , , , , , , , , , , , , , , , , < 5 M Q S = + + + + + + + + + + + @ i ~ U 5 , , , , , , , , , , , , , , , , , , , , , , ",
", , , , , , , , , , , , , , , , , , , , , 5 M Q Z * + + + + + + + + + + + & b ~ P 3 , , , , , , , , , , , , , , , , , , , , , , ",
", , , , , , , , , , , , , , , , , , , , , 5 N ..Z * + + + + + + + + + + + & C ~ H 3 , , , , , , , , , , , , , , , , , , , , , , ",
", , , , , , , , , , , , , , , , , , , , , 5 G ~ V * + + + + + + + + + + + & S Q N 2 , , , , , , , , , , , , , , , , , , , , , , ",
", , , , , , , , , , , , , , , , , , , , , s G ~ B * + + + + + + + + + + + & F | m 1 , , , , , , , , , , , , , , , , , , , , , , ",
", , , , , , , , , , , , , , , , , , , , , s H ~ a * + + + + + + + + + + + * T | n 1 , , , , , , , , , , , , , , , , , , , , , , ",
", , , , , , , , , , , , , , , , , , , , , s K ~ p & + + + + + + + + + + + = T Q c 1 , , , , , , , , , , , , , , , , , , , , , , ",
", , , , , , , , , , , , , , , , , , , , , d P ) t & + + + + + O + + + + + - E Q z 1 , , , , , , , , , , , , , , , , , , , , , , ",
", , , , , , , , , , , , , , , , , , , , , d P ) r & + + + + # $ # + + + @ 8 E Q l < , , , , , , , , , , , , , , , , , , , , , , ",
", , , , , , , , , , , , , , , , , , , , < h I ( w & + + + @ $ % # + + + @ 9 ! Q j < , , , , , , , , , , , , , , , , , , , , , , ",
", , , , , , , , , , , , , , , , , , , , < j U ( q @ + + + + @ # + + + + @ 0 ! U h < , , , , , , , , , , , , , , , , , , , , , , ",
", , , , , , , , , , , , , , , , , , , , 1 z U E 9 + + + + + + + + + + + # q ( U f < , , , , , , , , , , , , , , , , , , , , , , ",
", , , , , , , , , , , , , , , , , , , , 1 v Q T - + + + + + + + + + + + # q ( U d , , , , , , , , , , , , , , , , , , , , , , , ",
", , , , , , , , , , , , , , , , , , , , 3 m Q F = + + + @ * * & + + + + & w ` U s , , , , , , , , , , , , , , , , , , , , , , , ",
", , , , , , , , , , , , , , , , , , , , 5 G Q Z & + + + * w w = + + + + & w ` U s , , , , , , , , , , , , , , , , , , , , , , , ",
", , , , , , , , , , , , , , , , , , , < s P ~ a @ + + @ 8 C V 9 + + + + & w ` U s , , , , , , , , , , , , , , , , , , , , , , , ",
", , , , , , , , , , , , , , , , , , , < d Y ! t + + + & w ( E r + + + + & e ` U s , , , , , , , , , , , , , , , , , , , , , , , ",
", , , , , , , , , , , , , , , , , , , < j Q ! w + + + & u 1.>.i & + + + & w ` U s , , , , , , , , , , , , , , , , , , , , , , , ",
", , , , , , , , , , , , , , , , , , , 1 z Q R 8 + + + & a 8.8.B * + + + & w ` U s , , , , , , , , , , , , , , , , , , , , , , , ",
", , , , , , , , , , , , , , , , , , , 3 n ~ F = + + + & a q.8.Z = + + + & q ( U h < , , , , , , , , , , , , , , , , , , , , , , ",
", , , , , , , , , , , , , , , , , , < s G ~ C @ + + + & p 8.8.S = + + + @ q ( Q l 3 1 , , , , , , , , , , , , , , , , , , , , , ",
", , , , , , , , , , , , , , , , , , 1 d Y ! i + + + + & t 1.8.D - + + + @ 9 ( 2.{ G h 1 , , , , , , , , , , , , , , , , , , , , ",
", , , , , , , , , , , , , , , , , , 1 j Q R w + + + + & w ' 1.F - + + + @ 9 ( e.e.:.G 5 , , , , , , , , , , , , , , , , , , , , ",
", , , , , , , , , , , , , , , , , , 3 v O.F - + + + + @ q E >.F - + + + @ 8 ( r.q.5.X.h 1 , , , , , , , , , , , , , , , , , , , ",
", , , , , , , , , , , , , , , , , < s K ~ C & + + + + @ 8 F ] F - + + + + = D ` T T -.m 5 , , , , , , , , , , , , , , , , , , , ",
", , , , , , , , , , , , , , , , , 1 h Q ! t X + + + + + = C ( D - + + + + & q r q p ) X.x 2 , , , , , , , , , , , , , , , , , , ",
", , , , , , , , , , , , , , , , , 2 x +.F 9 o + + + + + & p T Z = + + + + + & * & - V ,.{ k 1 , , , , , , , , , , , , , , , , , ",
", , , , , , , , , , , , , , < 1 3 l Y @.B * + + + + + + @ q a p = + + + + + + + + @ 0 D 3.K g : , , , , , , , , , , , , , , , , ",
", , , , , , , , , , , 1 2 3 6 h n } <.F q + + + + + + + + * 8 8 & + + + + + + + + + & r ! ;.v < , , , , , , , , , , , , , , , , ",
", , , , , , , , , , 1 j m K } ;.3.<.L r * + + + + + + + + + @ @ + + + + + + + + + + + = p 3.P d : , , , , , , , , , , , , , , , ",
", , , , , , , , , 1 c X.5.3.,.` T C w * + + + + + + + + + + + + + + + + + + + + + + + @ q >.{ k ; , , , , , , , , , , , , , , , ",
", , , , , , , , , 2 P 3.[ F C u 9 & X         . o & = 8 q w t p i 8 @ + + + + + + o & 9 V 1.Y k ; , , , , , , , , , , , , , , , ",
", , , , , , , , , 3 Y 5.( C Z Z Z Z Z A S D F L T R R E ( ` *.1.*.S 8 @ + + o + - t S E *.;.M 6 : , , , , , , , , , , , , , , , ",
", , , , , , , , , 2 N 2.6.<.3.3.3.3.3.5.5.6.7.0.7.7.3.3.2.2.2.2.3.&.Z 8 @ = r V L ` 3.3.+.M 7 : , , , , , , , , , , , , , , , , ",
", , , , , , , , , < d N Y { { { { { { { { { Y K M v l h 6 3 2 3 x { *.D V S ( 5.0.2.I z 5 1 , , , , , , , , , , , , , , , , , , ",
", , , , , , , , , , < 2 4 4 4 4 4 4 4 4 4 4 4 2 2 1 1 1 , , , , 3 v $.w.t.e.7. .m g 4 1 , , , , , , , , , , , , , , , , , , , , ",
", , , , , , , , , , , , , , , , , , , , , , , , , , , , , , , , , 4 j m J m z 7 2 < , , , , , , , , , , , , , , , , , , , , , , "
};
