/* XPM */
static char *_719a7d2c95f401a98f0cdaa7cb1ebe1[] = {
/* columns rows colors chars-per-pixel */
"64 64 110 2 ",
"   c #161616",
".  c #191717",
"X  c #1B1B1B",
"o  c #231D1D",
"O  c #232323",
"+  c #2B2B2B",
"@  c #322525",
"#  c #333333",
"$  c #3B3B3B",
"%  c #6E1212",
"&  c #701616",
"*  c #731A1A",
"=  c #433131",
"-  c #772121",
";  c #792525",
":  c #7D2B2B",
">  c #434343",
",  c #4B4B4B",
"<  c #545454",
"1  c #5C5C5C",
"2  c #646464",
"3  c #6A6A6A",
"4  c #737373",
"5  c #7B7B7B",
"6  c #802F2F",
"7  c #823333",
"8  c #863939",
"9  c #883E3E",
"0  c #8C4343",
"q  c #8F4848",
"w  c #924D4D",
"e  c #955252",
"r  c #985757",
"t  c #9B5C5C",
"y  c #9F6262",
"u  c #A16565",
"i  c #A56D6D",
"p  c #AA7575",
"a  c #AE7B7B",
"s  c #B07F7F",
"d  c #828282",
"f  c #888787",
"g  c #8D8C8C",
"h  c #939292",
"j  c #9A9797",
"k  c #9B9B9B",
"l  c #B38383",
"z  c #B68A8A",
"x  c #B98D8D",
"c  c #A19F9F",
"v  c #BD9494",
"b  c #BE9898",
"n  c #A3A2A2",
"m  c #AAA7A7",
"M  c #ABAAAA",
"N  c #B1AEAE",
"B  c #B5B3B3",
"V  c #B9B5B5",
"C  c #BEBBBB",
"Z  c #C29C9C",
"A  c #C4A3A3",
"S  c #C9A7A7",
"D  c #C6ADAD",
"F  c #C9ABAB",
"G  c #CCB3B3",
"H  c #C3BEBE",
"J  c #CEBBBB",
"K  c #D0B5B5",
"L  c #D2BCBC",
"P  c #C5C2C2",
"I  c #CEC2C2",
"U  c #CBC4C4",
"Y  c #CAC5C5",
"T  c #CEC6C6",
"R  c #CBCACA",
"E  c #CDC8C8",
"W  c #D2C2C2",
"Q  c #D7C0C0",
"!  c #D3C4C4",
"~  c #D3C7C7",
"^  c #DAC6C6",
"/  c #D4C8C8",
"(  c #D3CDCD",
")  c #D4CFCF",
"_  c #DBCBCB",
"`  c #D9CECE",
"'  c #D5D0D0",
"]  c #D4D2D2",
"[  c #D9D0D0",
"{  c #D9D1D1",
"}  c #DAD2D2",
"|  c #DCD7D7",
" . c #DCDADA",
".. c #DFDEDE",
"X. c #E4D5D5",
"o. c #E6D8D8",
"O. c #E2DFDF",
"+. c #E6DCDC",
"@. c #E8D9D9",
"#. c #E8DFDF",
"$. c #E6E3E3",
"%. c #E8E1E1",
"&. c #E9E3E3",
"*. c #EDE6E6",
"=. c gray93",
"-. c #F0E7E7",
";. c #F3EDED",
":. c #F5F3F3",
">. c #F6F2F2",
",. c #FBFAFA",
/* pixels */
"% % % % % % % % % % % % % % % % % % % % % % % % % % % % % % % % % % % % % % % % % % % % % % % % % % % % % % % % % % % % % % % % ",
"% % % % % % % % % % % % % % % % % % % % % % % % % % % % % % % % % % % % % % % % % % % % % % % % % % % % % % % % % % % % % % % % ",
"% % % % % % % % % % % % % % % % % % % % % % % % % % % % % % % ; 0 e 0 : % % % % & & & & % % % % % % % % % % % % % % % % % % % % ",
"% % % % % % % % % % % % % % % % % % % % % % % % % % % % % % ; i L U J p - % & : w y u 0 * % % % % % % % % % % % % % % % % % % % ",
"% % % % % % % % % % % % % % % % % % % % % % % % % % % % % & 8 A C 3 m K 9 & 9 l D H T F e * % % % % % % % % % % % % % % % % % % ",
"% % % % % % % % % % % % % % % % % % % % % % % % % % % % % & 0 F M $ g L w 0 b H h 3 4 V F e * % % % % % % % % % % % % % % % % % ",
"% % % % % % % % % % % % % % % % % % % % % % % % % % % % % % 7 v ' n P A w z U 5 +   X 1 C F w & % % % % % % % % % % % % % % % % ",
"% % % % % % % % % % % % % % % % % % % % & & & & & & & % % % * t X.,.o.a i L h #       X 3 P A 0 & % % % % % % % % % % % % % % % ",
"% % % % % % % % % % % % % % % % % % & * 8 e y i i y w 7 & & ; u ! ../ S L C <         . O 3 U Z 0 * % % % % % % % % % % % % % % ",
"% % % % % % % % % % % % % % % % % * 0 l S L W I I W L Z a e u G B 4 d V R d O             O 3 H A t ; & % % % % % % % % % % % % ",
"% % % % % % % % % % % % % % % % & t G ( n d 4 3 3 4 g N I J L V < X O > 1 $                 O 2 M J v 9 & * * * % % % % % % % % ",
"% % % % % % % % % % % % % % % & 9 Q P 3 # X       . O > 1 4 4 < X                             X > f ) A 0 a v a 7 % % % % % % % ",
"% % % % % % % % % % % % % % % * l O.1 .                   . X .                                   + f &.L { B ` v % % % % % % % ",
"% % % % % % % % % % % % % % % - F C O                                                             X 2 =.>.M , M @.& % % % % % % ",
"% % % % % % % % % % % % % % % ; Q M + O O X X . .                               .         . . X O # h &.*.M $ M #.& % % % % % % ",
"% % % % % % % % % % % % % % % - G | N c h d 3 < $ O X                         O + X   . O $ < 4 g B ! l A O.C  .Z % % % % % % % ",
"% % % % % % % % % % % % % % % & r v Z A J { ' E H N 5 +                     . @ = O . $ h H E ) W A y : 8 x Z x 7 % % % % % % % ",
"% % % % % % % % % % % % % % % % * : : 7 9 w y p l G E 3                       X o . O f ) A p w 0 7 * % % : : : % % % % % % % % ",
"% % % % % % % % % % % % % % % % % % % % % % & * ; e ! g                             + M A 0 * % % % % % % % % % % % % % % % % % ",
"% % % % % % % % % % % % % % % % % % % % % % % % % 9 ! g                           . $ C l ; % % % % % % % % % % % % % % % % % % ",
"% % % % % % % % % % % % % % % % % % % % % % % % & 9 / g                           . < P p * % % % % % % % % % % % % % % % % % % ",
"% % % % % % % % % % % % % % % % % % % % % % % % % 9 W h                           X 2 T t & % % % % % % % % % % % % % % % % % % ",
"% % % % % % % % % % % % % % % % % % % % % % % % % 8 J n                           X 4 / e % % % % % % % % % % % % % % % % % % % ",
"% % % % % % % % % % % % % % % % % % % % % % % % % 7 G M                           O g L 0 % % % % % % % % % % % % % % % % % % % ",
"% % % % % % % % % % % % % % % % % % % % % % % % % 7 S V                           + M S 7 % % % % % % % % % % % % % % % % % % % ",
"% % % % % % % % % % % % % % % % % % % % % % % % % : A C .                       . , H l ; % % % % % % % % % % % % % % % % % % % ",
"% % % % % % % % % % % % % % % % % % % % % % % % % : v P O                       O f ! e % % % % % % % % % % % % % % % % % % % % ",
"% % % % % % % % % % % % % % % % % % % % % % % % % ; z P +                     . > C Z 7 % % % % % % % % % % % % % % % % % % % % ",
"% % % % % % % % % % % % % % % % % % % % % % % % % ; l R #                     . , C i & % % % % % % % % % % % % % % % % % % % % ",
"% % % % % % % % % % % % % % % % % % % % % % % % % ; p R $                     . > V a - % % % % % % % % % % % % % % % % % % % % ",
"% % % % % % % % % % % % % % % % % % % % % % % % % * i ' ,                     . $ B l ; % % % % % % % % % % % % % % % % % % % % ",
"% % % % % % % % % % % % % % % % % % % % % % % % % * y ' <                     . # N z ; % % % % % % % % % % % % % % % % % % % % ",
"% % % % % % % % % % % % % % % % % % % % % % % % % & t ' 1                     . # N x : % % % % % % % % % % % % % % % % % % % % ",
"% % % % % % % % % % % % % % % % % % % % % % % % % & w  .3                     . # M v : % % % % % % % % % % % % % % % % % % % % ",
"% % % % % % % % % % % % % % % % % % % % % % % % % & w { 4                       # M Z : % % % % % % % % % % % % % % % % % % % % ",
"% % % % % % % % % % % % % % % % % % % % % % % % % & q ) 5                     . # N v : % % % % % % % % % % % % % % % % % % % % ",
"% % % % % % % % % % % % % % % % % % % % % % % % % & 0 ! d                     . # N x : % % % % % % % % % % % % % % % % % % % % ",
"% % % % % % % % % % % % % % % % % % % % % % % % % & 0 W g                     . $ B l ; % % % % % % % % % % % % % % % % % % % % ",
"% % % % % % % % % % % % & & & & & & % % % % % % % & 9 J k                     . > B s - % % % % % % % % % % % % % % % % % % % % ",
"% % % % % % % % % % % : e t t t r 8 & & % % % % % % 8 G n                     . , C p * % % % % % % % % % % % % % % % % % % % % ",
"% % % % % % % % % % ; s J ! W ! W Z u 8 & & % % % % 7 F M                     . < H i & % % % % % % % % % % % % % % % % % % % % ",
"% % % % % % % % % & e ` k 5 5 5 f M ! A i 7 & & % % 7 A V X           . . .   X 1 P u & % % % % % % % % % % % % % % % % % % % % ",
"% % % % % % % % % * z U >       . $ 4 M ! A i 8 & & ; l P $           X $ #   X 3 U t % % % % % % % % % % % % % % % % % % % % % ",
"% % % % % % % % % - S N #           . $ 4 M ! A i 9 ; y ( 3         . $ 5 1   X 5 G w % % % % % % % % % % % % % % % % % % % % % ",
"% % % % % % % % % : L k +               . $ 4 M ! A p i ! h         . < M 3   O f D 0 % % % % % % % % % % % % % % % % % % % % % ",
"% % % % % % % % % 7 Q f +                   X $ 4 M / Q +.B O       X 1 n 2   O j A 8 % % % % % % % % % % % % % % % % % % % % % ",
"% % % % % % % % & 0 ! 5 O                       X $ 4 V $.C $       . < f ,   # m v : % % % % % % % % % % % % % % % % % % % % % ",
"% % % % % % % % & w ^ 4 O                 . . X . . O > 5 k $       . , 1 + . > V l ; % % % % % % % % % % % % % % % % % % % % % ",
"% % % % % % % % & e _ 3 X                 O 1 4 1 $ O . O > +       . + + . X 1 P i & % % % % % % % % % % % % % % % % % % % % % ",
"% % % % % % % % & r _ 3 X               X 1 E ' U B d > X . .         . .   X 4 J t % % % % % % % % % % % % % % % % % % % % % % ",
"% % % % % % % % & t _ 3 + X             # C ^ u a v J B 1                   O g G 0 % % % % % % % % % % % % % % % % % % % % % % ",
"% % % % % % % % & w _ n M 2 X         X 4 &.y * ; 7 u ! k                   # n Z 7 % % % % % % % % % % % % % % % % % % % % % % ",
"% % % % % % % % % 7 ^ '  .5 O         O P X.t w w w i ` h                 . , V s * % % % % % % % % % % % % % % % % % % % % % % ",
"% % % % % % % % % ; K P 3 # .         O M &._ _ _ _ { P ,                 X 3 H u % % % % % % % % % % % % % % % % % % % % % % % ",
"% % % % % % % % % * l { 3 O           . # < 2 2 2 2 2 , X               . # h G w % % % % % % % % % % % % % % % % % % % % % % % ",
"% % % % % % % % % & 8 L P , .             . X X X X X .             . X > j ) z : % % % % % % % % % % % % % % % % % % % % % % % ",
"% % % % % % % % % % & t ` C > X                                   . O 1 V L i : & % % % % % % % % % % % % % % % % % % % % % % % ",
"% % % % % % % % % % % * i X.P 1 O .         . O O               . # d ( F w * % % % % % % % % % % % % % % % % % % % % % % % % % ",
"% % % % % % % % % % % % * y `  .g $ O .     # P h           . O , M &.S 0 & % % % % % % % % % % % % % % % % % % % % % % % % % % ",
"% % % % % % % % % % % % % & 8 Z #.' f > O O , >.P   . . X O > g ' X.z 6 & % % % % % % % % % % % % % % % % % % % % % % % % % % % ",
"% % % % % % % % % % % % % % % & 0 S *.&.C g 5 ..n # $ < 5 M  .X.v 0 & % % % % % % % % % % % % % % % % % % % % % % % % % % % % % ",
"% % % % % % % % % % % % % % % % % & 7 l ^ -.;.>.>.;.;.;.*._ a 6 % % % % % % % % % % % % % % % % % % % % % % % % % % % % % % % % ",
"% % % % % % % % % % % % % % % % % % % % % & 0 t i i r 0 ; % % % % % % % % % % % % % % % % % % % % % % % % % % % % % % % % % % % ",
"% % % % % % % % % % % % % % % % % % % % % % % % % % % % % % % % % % % % % % % % % % % % % % % % % % % % % % % % % % % % % % % % "
};
