/* XPM */
static char *cc6846e3f6e94a93be9e333f88227cd7[] = {
/* columns rows colors chars-per-pixel */
"64 64 140 2 ",
"   c #070909",
".  c #0D0E0E",
"X  c #161616",
"o  c #171818",
"O  c #1B1B1B",
"+  c #1F2020",
"@  c #242424",
"#  c #272828",
"$  c #2B2B2B",
"%  c #2F3030",
"&  c #343434",
"*  c #383737",
"=  c #373939",
"-  c #3C3C3C",
";  c #6D0303",
":  c #6F0C0C",
">  c #700707",
",  c #700D0D",
"<  c #6E1212",
"1  c #711515",
"2  c #731C1C",
"3  c #781E1E",
"4  c #762222",
"5  c #792525",
"6  c #752C2C",
"7  c #7B2B2B",
"8  c #7E3434",
"9  c #7E3B3B",
"0  c #434343",
"q  c #494747",
"w  c #474848",
"e  c #4B4B4B",
"r  c #545454",
"t  c #585757",
"y  c #5B5B5B",
"u  c #5F6161",
"i  c #646363",
"p  c #6B6B6B",
"a  c #6F7070",
"s  c #747474",
"d  c #787676",
"f  c #7C7B7B",
"g  c #803535",
"h  c #833B3B",
"j  c #854242",
"k  c #894545",
"l  c #874D4D",
"z  c #8B4B4B",
"x  c #8E5353",
"c  c #8E5A5A",
"v  c #915555",
"b  c #945C5C",
"n  c #966363",
"m  c #996363",
"M  c #9D6C6C",
"N  c #807F7F",
"B  c #9D7575",
"V  c #9F7A7A",
"C  c #A26F6F",
"Z  c #A37474",
"A  c #A57B7B",
"S  c #AA7D7D",
"D  c #828383",
"F  c #8A8787",
"G  c #878989",
"H  c #8C8B8B",
"J  c #938E8E",
"K  c #949393",
"L  c #999696",
"P  c #979898",
"I  c #9C9A9A",
"U  c #A58484",
"Y  c #AD8383",
"T  c #AE8B8B",
"R  c #B18484",
"E  c #B38C8C",
"W  c #AE9494",
"Q  c #A39E9E",
"!  c #B59393",
"~  c #B99595",
"^  c #B79C9C",
"/  c #BA9B9B",
"(  c #A5A3A3",
")  c #ABA5A5",
"_  c #ADAAAA",
"`  c #B1A2A2",
"'  c #B4A2A2",
"]  c #B0A5A5",
"[  c #B9A0A0",
"{  c #BDA1A1",
"}  c #BCA4A4",
"|  c #B1AAAA",
" . c #B7AAAA",
".. c #B3ACAC",
"X. c #B4ACAC",
"o. c #B8ABAB",
"O. c #BFA9A9",
"+. c #BBACAC",
"@. c #BEACAC",
"#. c #B2B3B3",
"$. c #B5B3B3",
"%. c #BBB5B5",
"&. c #BEBCBC",
"*. c #C0A3A3",
"=. c #C0A5A5",
"-. c #C2A5A5",
";. c #C0ADAD",
":. c #C4ACAC",
">. c #C8AEAE",
",. c #C0B1B1",
"<. c #C5B3B3",
"1. c #C2B6B6",
"2. c #CAB4B4",
"3. c #CCB6B6",
"4. c #C3BBBB",
"5. c #C6B9B9",
"6. c #C8BABA",
"7. c #CCBBBB",
"8. c #C8BCBC",
"9. c #D3BEBE",
"0. c #C4C2C2",
"q. c #CBC5C5",
"w. c #CCCBCB",
"e. c #D0C3C3",
"r. c #D4C3C3",
"t. c #D0C5C5",
"y. c #D5C7C7",
"u. c #D9C6C6",
"i. c #D2CCCC",
"p. c #DACCCC",
"a. c #D6D3D3",
"s. c #D9D2D2",
"d. c #DBD3D3",
"f. c #DBDADA",
"g. c #E1D5D5",
"h. c #E3DCDC",
"j. c #E2E2E2",
"k. c #EDEBEB",
"l. c #F1EEEE",
"z. c #F5F4F4",
/* pixels */
"< < < < < < < < < < < < < < < < < < < < < < < < < < < < < < < < < < < < < < < < < < < < < < < < < < < < < < < < < < < < < < < < ",
"< < < < < < < < < < < < < < < < < < < < < < < < < < < < < < < < < < < < < < < < < < < < < < < < < < < < < < < < < < < < < < < < ",
"< < < < < < < < < < < < < < < < < < < < < < < < < < < < < < < < < < < < < < < < < < < < < < < < < < < < < < < < < < < < < < < < ",
"< < < < < < < < < < < < < < < < < < < < < < < < < < < < < < < < < < < < < < < < < < < < < < < < < < < < < < < < < < < < < < < < ",
"< < < < < < < < < < < < < < < < < < < < < < < < < < < < < < < < < < < < < < < < < < < < < < < < < < < < < < < < < < < < < < < < ",
"< < < < < < < < < < < < < < < < < < < < < < < < < < < < < < < < < < < < < < < < < < < < < < < < < < < < < < < < < < < < < < < < ",
"< < < < < < < < < < < < < < < < < < < < < < < < < < < < < < < < < < < < < < < < < < < < < < < < < < < < < < < < < < < < < < < < ",
"< < < < < < < < < < < < < < < < < < < < < < < < < < < < < < < < < < < < < < < < < < < < < < < < < < < < < < < < < < < < < < < < ",
"< < < < < < < < < < < < < < < < < < < < < < < < < < < < < < < < < < < < < < < < < < < < < < < < < < < < < < < < < < < < < < < < ",
"< < < < < < < < < < < < < < < < < < < < < < < < < < < < < < < < < < < < < < < < < < < < < < < < < < < < < < < < < < < < < < < < ",
"1 7 k x x x l k j h h 8 7 4 1 1 < < < < < < < < < < < < < < < < < < < < < < < < < < < < < < < < < < < < < < < < < < < < < < < < ",
"5 M *.} [ [ ^ ! ! E E E Y Z m v k g 4 1 : : < < < < < < < < < < < < < < < < < < < < < < < < < < < < < < < < < < < < < < < < < < ",
"g ~ s.#.I I I I I Q ] o.+.@.;.:.{ E S M b z h 5 1 : : : : : < < < < < < < < < < : : : : : : : : : : : : : : : : : : : : < < < < ",
"7 Y e.Q r & & = - 0 e y p D P ) .. .o.O.O.=.~ Y Z M n b v z j 7 1 < < < < < < 7 v M M M M M M M M M M M M M M M M M M x 5 : < < ",
"1 k ~ 1.K r @ X X X X X X @ $ - e y s G L ( ) ` ' ' [ { { / ~ Y k < < < < < 2 m { ;.o.o.o.o.o.o.o.o.o.o.} o.o.o.o.o.O.{ Z 8 : < ",
"< 1 z ! ;.) f e @ X X X X X X X X X O @ & - e u s D F J L L X.e.Y : < < < < 4 S 5.( F D D D D D D D D D D D D D D D G | 3.Z 1 < ",
"< < 1 h Z { ,._ H i = O X X X X X X X X X X X o O @ $ % & t ) y.S : < < < < 2 M ;.I t % @ @ @ @ @ @ @ @ @ @ @ @ @ @ @ F t.E 1 < ",
"< < < 1 5 x U ~ O.+.( D r @ X X X X X X X X X X X X X o 0 L 6.E j < < < < < < h E 8.I r O X X X X X X X X X X X o = p _ 3.M : < ",
"< < < < < 1 5 k M Y ! O.| f $ X X X X X X X X X X X X $ d t.! h 1 < < < < < < 7 E t.( e o X X X X o O & w t p N L _ +./ Z 7 < < ",
"< < < < < < < < 1 7 k Z } ..y o X X X X X X X X X X X & H u.z < < < < < < < 7 Z <.) i # X X X o & i L _ %.4.4.;./ E A x 5 < < < ",
"< < < < < < < < < < 1 5 Z ;.F @ X X X X X X X X X X X & J r.8 < < < < < < 7 A <.) i @ X X o $ t I 4.<./ E U Z M v h 4 1 < < < < ",
"< < < < < < < < < < < < x *.) & X X X X X X X X X X X & J r.8 < < < < 1 8 S 3._ i $ X X O - F %.:.Y n k 8 5 3 1 1 < < < < < < < ",
"< < < < < < < < < < < < g ! X.r X X X X X X X X X X X & J r.8 < < < 1 h E 7.) i @ X o @ t ( q.! b 8 1 1 < < < < < < < < < < < < ",
"< < < < < < < < < < < < 3 S @.a O X X X X X X X X X X & J r.8 < < 3 k ~ q.( t @ X O & d %.7.Y j 2 < < < < < < < < < < < < < < < ",
"< < < < < < < < < < < < , M ;.F @ X X X X X X X X X X * J r.8 1 7 n =.q.K e @ O $ r I q.:.M 8 1 < < < < < < < < < < < < < < < < ",
"< < < < < < < < < < < < : b =.L # X X X X X X X X X o - I r.h k U 7.4.f = $ - r H w.h.:.v 5 < < < < < < < < < < < < < < < < < < ",
"< < < < < < < < < < < < : k *.) % X X X X X X X X X $ s i.u.Y 3.a.) y $ & p ( w.f.j.k.=.j 1 < < < < < < < < < < < < < < < < < < ",
"< < < < < < < < < < < < < h / | - X X X X X X X X @ p w.z.z.f.&.d & O O r _ 0.K p D 8.~ h < < < < < < < < < < < < < < < < < < < ",
"< < < < < < < < < < < < < 7 !  .r X X X X X X X o & ) f.f.&.f - O X X X O $ & & p %.:.b 1 < < < < < < < < < < < < < < < < < < < ",
"< < < < < < < < < < < < < 3 T o.i o X X X X X X X @ e y 0 @ o o o X X X X X $ p X.:.m 2 < < < < < < < < < < < < < < < < < < < < ",
"< < < < < < < < < < < < < 1 U @.p o X X X X X X X X o X X X o $ = @ X X X $ p | :.m 3 < < < < < < < < < < < < < < < < < < < < < ",
"< < < < < < < < < < < < < ; A @.f o X X X X X X X X X X X X o = r $ X X @ i | :.M 3 < < < < < < < < < < < < < < < < < < < < < < ",
"< < < < < < < < < < < < < : B ;.D O X X X X X X X X X X X X X X X X X o 0 ( e.S 3 < < < < < < < < < < < < < < < < < < < < < < < ",
"< < < < < < < < < < < < < : M ;.H + X X X X X X X X X X X X X X X X X o e Q 6.Y 8 < < < < < < < < < < < < < < < < < < < < < < < ",
"< < < < < < < < < < < < < : n :.K @ X X X X X X X X X X X X X X X X X X O r ) 2.M 1 < < < < < < < < < < < < < < < < < < < < < < ",
"< < < < < < < < < < < < < : b :.L @ X X X X X X X X X X O $ @ X X X X X X & I 7.S 3 < < < < < < < < < < < < < < < < < < < < < < ",
"< < < < < < < < < < < < < : x :.Q @ X X X X X X X X X O e I p o X X X X X - I 6.S 7 < < < < < < < < < < < < < < < < < < < < < < ",
"< < < < < < < < < < < < < : z :.( # X X X X X X X X X @ p a.K O X X X X X $ p ) } M 5 < < < < < < < < < < < < < < < < < < < < < ",
"< < < < < < < < < < < < < < k =.) $ X X X X X X X X X O t _ f $ @ X X X X X @ p _ =.M 7 < < < < < < < < < < < < < < < < < < < < ",
"< < < < < < < < < < < < < < j =.) & X X X X X X X X O - e t 0 0 & X X X X X X @ p ) =.M 7 1 < < < < < < < < < < < < < < < < < < ",
"< < < < < < < < < < < < < < h { ) = X X X X X X X o - ( $.H t = @ X X X X X X X @ i ) :.Z 8 1 < < < < < < < < < < < < < < < < < ",
"< < < < < < < < < < < < < < h / ) - X X X X X X X O y f.9.:. .f - O X X X X X X X @ i Q ;.Z g 1 < < < < < < < < < < < < < < < < ",
"< < < < < < < < < < < < < < h / ) - X X X X X X X $ f g.Z M ! @.L e O X X X X X X X @ y I ;.S h 1 < < < < < < < < < < < < < < < ",
"< < < < < < < < < < < < < < j *.) = X X X X X X X & I 9.9 4 j S ;.) t O X X X X X X X @ r K ,.E k 2 < < < < < < < < < < < < < < ",
"< < < < < < < < < < < < < : k :.) % X X X X X X X - %.:.6 < 1 8 S 3._ r O X X X X X X X O e F %.~ x 4 < < < < < < < < < < < < < ",
"< < < < < < < < < < < < < : v :.Q @ X X X X X X X 0 q.~ 6 < < 1 g S 6.( e X X X X X X X X O - N %.=.m 7 < < < < < < < < < < < < ",
"< < < < < < < < < < < < < : M <.K @ X X X X X X X 0 i.E 4 < < < 1 h E <.H & X X X X X X X X o = d %.:.C 7 1 < < < < < < < < < < ",
"< < < < < < < < < < < < < 1 A ,.f O X X X X X X X q s.R 4 < < < < 1 k ! X.p o X X X X X o $ $ @ & p ..3.S g 1 < < < < < < < < < ",
"< < < < < < < < < < < < < 5 E +.i o X o o X X X X q s.R 4 < < < < < 3 m O.K & @ @ o X X $ i D i = $ i ) 7.E h 1 < < < < < < < < ",
"< < < < < < < < < < < < < j / ) 0 X O 0 & X X X X q s.R 4 < < < < < < j / ..a p i = o X $ f &.0.F = @ r I 7.E j 1 < < < < < < < ",
"< < < < < < < < < < < < : b } L $ X 0 D y X X X X q s.R 4 < < < < < < g ! i.0.w.0.F - o o 0 I a.w.p @ O e K 6.~ k 1 < < < < < < ",
"< < < < < < < < < < < < 1 Z @.f O X t K i X X X X 0 i.E 5 < < < < < < 7 A 9.h.l.k.0.d $ X O 0 H &.D & o O - F 5./ x 1 < < < < < ",
"< < < < < < < : : < < < 7 T +.y o X $ = @ X X X X - 4.*.6 < < < < < < 1 8 v E t.w.w.( r O X o & r e @ X X o & N 4.=.b 1 < < < < ",
"< < < < < 1 h n n l 7 1 h ~ | 0 X X X X X X X X X & ( 9.9 < < < < < < < < 1 m @.I F ( s $ X X X o O o X X X X $ f 4.:.m 3 : < < ",
"< < < < 1 g Y 3.;.{ T M C :.) & X X X X X X X X X $ N g.U x h 3 < < < 1 4 z E %.D = p i $ X X X X X X X X X X X @ f 4.2.M 5 : < ",
"< < < < 1 v :.#.J ( +.} :.q.K $ X X X X X X X X X O t a.7.} ~ A h : 1 h Z } <.( t o @ $ O X X X X X X X X X X X X @ d &.3.Z 7 < ",
"< < < < 4 M <.f @ $ r D I L i O X X X X X X X X X X & F L I X.<.! h 5 Z ;._ D e @ X X X X X X X X X X X X X X X X X O p %.7.Z 3 ",
"< < < < 8 E X.t o X X X o X X X X X X X X X X X X X X X X O e L 7.Z g ! ..r X X X X X X X X X X X X X X X X X X X X X o p q.*.h ",
"< < < 1 v :.K & X X X X X X X X X X X X X X X X X X X X X X O i +./ j / _ - . X X X X X X X X X X X X X X X X .   o & e p 0.:.j ",
"< < < 4 Z 8.s @ X X X X X . . X @ & - 0 e e e e e e 0 = @ X o r ) *.h ! 8.F e e e e e e e 0 $ X X X X o & t f K _ %.&.8.q.p.E 7 ",
"< < < 7 Y %.y # $ = r p N K _ 4.q.q.q.q.q.q.q.q.q.q.q.q.0.$.K D  ./ 3 b =.t.q.q.q.q.q.q.q.q...p - r F _ 0.q.i.y.9.>.{ ! W U l 1 ",
"< < < 7 Y h.a.i.i.i.i.i.7.3.3.3.2.:.*./ ~ ~ ~ ~ ~ ~ / =.>.3.t.s.y.U : 3 x T ~ ~ ~ ~ ~ ~ ~ =.e.a.i.i.t.>./ ~ T A n j 7 > ; ; : < ",
"< < < 1 x ~ =.{ ~ ! T U B n c l j h 8 5 4 4 4 4 4 4 5 8 j x B ! Y j < < : 1 3 4 4 4 4 4 4 8 M ~ *.! V x 7 3 , ; ; : < < < < < < ",
"< < < < 1 7 8 8 7 3 , ; ; ; : : < 1 1 3 1 < < < < < < : : : : 4 5 < < < < < < < < < < < < < : 7 8 4 ; : < < < < < < < < < < < < "
};
