/* XPM */
static char *_9c997c6d68349449dc47bc7ffcae561[] = {
/* columns rows colors chars-per-pixel */
"64 64 140 2 ",
"   c #000000",
".  c #0C0C0C",
"X  c #161616",
"o  c #1B1B1B",
"O  c #232323",
"+  c #272828",
"@  c #2B2B2B",
"#  c #2F3030",
"$  c #333333",
"%  c #3B3B3B",
"&  c #6D0303",
"*  c #6D0B0B",
"=  c #710F0F",
"-  c #6E1212",
";  c #711515",
":  c #721B1B",
">  c #791E1E",
",  c #752424",
"<  c #7B2626",
"1  c #762929",
"2  c #7B2B2B",
"3  c #7D3434",
"4  c #7F3939",
"5  c #3F4040",
"6  c #434343",
"7  c #4B4B4B",
"8  c #535353",
"9  c #595757",
"0  c #5B5B5B",
"q  c #605F5F",
"w  c #646464",
"e  c #686767",
"r  c #6B6A6A",
"t  c #706E6E",
"y  c #6F7070",
"u  c #737373",
"i  c #797676",
"p  c #7C7B7B",
"a  c #822E2E",
"s  c #813636",
"d  c #833C3C",
"f  c #854444",
"g  c #894646",
"h  c #874A4A",
"j  c #8B4C4C",
"k  c #924F4F",
"l  c #8E5252",
"z  c #8E5B5B",
"x  c #925555",
"c  c #945B5B",
"v  c #985E5E",
"b  c #946262",
"n  c #9C6565",
"m  c #9C6B6B",
"M  c #817E7E",
"N  c #9E7171",
"B  c #A06D6D",
"V  c #A47373",
"C  c #A47B7B",
"Z  c #A97C7C",
"A  c #858484",
"S  c #8A8787",
"D  c #8C8A8A",
"F  c #928E8E",
"G  c #8F9090",
"H  c #959393",
"J  c #9A9696",
"K  c #9D9B9B",
"L  c #AE8383",
"P  c #AE8C8C",
"I  c #B18686",
"U  c #B28C8C",
"Y  c #A39E9E",
"T  c #B59292",
"R  c #B99696",
"E  c #B79A9A",
"W  c #BB9C9C",
"Q  c #9FA0A0",
"!  c #A4A2A2",
"~  c #ACA3A3",
"^  c #ACABAB",
"/  c #B2A6A6",
"(  c #B4A6A6",
")  c #B9A0A0",
"_  c #BFA2A2",
"`  c #BBA4A4",
"'  c #BDA4A4",
"]  c #BCA7A7",
"[  c #B4A8A8",
"{  c #B0ADAD",
"}  c #B3ACAC",
"|  c #BBACAC",
" . c #B5B2B2",
".. c #B8B0B0",
"X. c #BDB3B3",
"o. c #BAB5B5",
"O. c #BDB7B7",
"+. c #BEB9B9",
"@. c #BDBABA",
"#. c #C09D9D",
"$. c #C2A2A2",
"%. c #C2A6A6",
"&. c #C4ABAB",
"*. c #C0AFAF",
"=. c #C4ADAD",
"-. c #C8AEAE",
";. c #C3B2B2",
":. c #C1B6B6",
">. c #C6B4B4",
",. c #CBB3B3",
"<. c #CCB4B4",
"1. c #CCB6B6",
"2. c #C0B8B8",
"3. c #C3BBBB",
"4. c #C8B8B8",
"5. c #CEBABA",
"6. c #CBBDBD",
"7. c #D1BDBD",
"8. c #C6C2C2",
"9. c #C7C5C5",
"0. c #CCC3C3",
"q. c #C9C4C4",
"w. c #CEC7C7",
"e. c #CCCACA",
"r. c #D2C1C1",
"t. c #D5C3C3",
"y. c #D9C6C6",
"u. c #D5CBCB",
"i. c #D8CDCD",
"p. c #DACCCC",
"a. c #D5D2D2",
"s. c #DBD1D1",
"d. c #D8D3D3",
"f. c #DCD7D7",
"g. c #DDDADA",
"h. c #E5D7D7",
"j. c #E2E2E2",
"k. c #EAE5E5",
"l. c #F0EDED",
"z. c #F5F3F3",
/* pixels */
"- - - - - - - - - - - - - - - - - - - - - - - - - - - - - - - - - - - - - - - - - - - - - - - - - - - - - - - - - - - - - - - - ",
"- - - - - - - - - - - - - - - - - - - - - - - - - - - - - - - - - - - - - - - - - - - - - - - - - - - - - - - - - - - - - - - - ",
"- - - - - - - - - - - - - - - - - - - - - - - - - - - - - - - - - - - - - - - - - - - - - - - - - - - - - - - - - - - - - - - - ",
"- - - - - - - - - - - - - - - - - - - - - - - - - - - - - - - - - - - - - - - - - - - - - - - - - - - - - - - - - - - - - - - - ",
"- - - - - - - - - - - - - - - - - - - - - - - - - - - - - - - - - - - - - - - - - - - - - - - - - - - - - - - - - - - - - - - - ",
"- - - - - - - - - - - - - - - - - - - - - - - - - - - - - - - - - - - - - - - - - - - - - - - - - - - - - - - - - - - - - - - - ",
"- - - - - - - - - - - - - - - - - - - - - - - - - - - - - - - - - - - - - - - - - - - - - - - - - - - - - - - - - - - - - - - - ",
"- - - - - - - - - - - - - - - - - - - - - - - - - - - - - - - - - - - - - - - - - - - - - - - - - - - - - - - - - - - - - - - - ",
"- - - - - - - - - - - - - - - - - - - - - - - - - - - - - - - - - - - - - - - - - - - - - - - - - - - - - - - - - - - - - - - - ",
"- - - - - - - - - - - - - - - - - - - - - - - - - - - - - - - - - - - - - - - - - - - - - - - - - - - - - - - - - - - - - - - - ",
"- - - - - - - - - - - - - - - - - - - - - - - - - - - - - - - - - - - - - - - - - - - - - - - - - - - - - - - - - - - - - - - - ",
"- - - - - - - - - - - - - - - - - - - - - - - - - - - - - - - - - - - - - - - - - - - - - - - - - - - - - - - - - - - - - - - - ",
"- - - - - - - - - - - - - - - - - - - - - - - - - - - - - - - - - - - - - - - - - - - - - - - - - - - - - - - - - - - - - - - - ",
"- - - - - - - - - - - - - - - - - - - - - - - - - - - - - - - - - - - - - - - - - - - - - - - - - - - - - - - - - - - - - - - - ",
"- - - - - - - - - - - - - - - - - - - - - - - - - - - - - - - - - - - - - - - - - - - - - - - - - - - - - - - - - - - - - - - - ",
"- - - - - - - - - - - - - - - - - - - - - - - - - - - - - - - - - - - - - - - - - - - - - - - - - - - - - - - - - - - - - - - - ",
"- - - - - - - - - - ; : ; - - - - - - - - - - - - - - - - - - - - - - - - - - - - - - - - - - - - - - - - - - - - - - - - - - - ",
"- - - - - - - - - : v L B j , ; - - - - - - - - - - - - - - - - - - - - - - - - - - - - - - - - - - - - - - - - - - - - - - - - ",
"- - - - - - - - - 4 1.8.:.,.I j : - - - - - - - - - - - - - - - - - - - - - ; : ; - - - - - - - - - - - - - - - - - - ; ; : ; - ",
": 2 3 3 3 3 3 3 3 l i.D w K w.%.m 3 : : 3 j j d 2 ; - - - - - - - - - - - 3 l x j f d 4 3 2 2 1 , , , 2 2 2 3 4 d d f j x c j 2 ",
"g I E R R R R R R _ d.p . $ e ! *.U n v T ' ) E L g : - - - - - - - - - ; U =.' ) W E R T P L L Z V L I L L U T R E W ) ` ' &.V ",
"V r.o.! ! Y Y Y Y ! K 9 X X X % u ~ >.5...A i F / T j ; - - - - - - - - > 5.^ u u p A F J Y ~ / ( / [ / ~ Y J H D A p u e u { R ",
"n 4.Y 0 6 $ $ # $ $ @ O X X X X o 7 D ! e O X @ w ~ U 3 - - - - - - - - ; W O.w O o O @ @ $ % 6 7 8 7 5 % $ # @ O O o X X 8 / Z ",
"3 L 4.@.{ ! ! ! ! J r O X X X X X X @ % O X X X O i *.n : - - - - - - - - l -.9.K u 6 X X X X X X X X X X X X X X X @ 7 A { E g ",
"- 3 v Z R #.W W $.1.q.r . X X X X X X X X X X X X % Y W 3 - - - - - - - - > U f.p ! K $ X X X X X X X X X X X X @ q K 3.1.U j : ",
"- - : , 2 3 3 3 s l ,.o.X X X X X X X X X X X X X o p ,.k * - - - - - - - : Z i.7 ^ ^ $ X X X X X X X X X X X o q { %.B g 2 ; - ",
"- - - - - - - - - , L e.% X X X X X X X X X X X X X 0 X.B * - - - - - - - ; v u.{ e.K X X X X X X X X X X X X $ F &.j ; - - - - ",
"- - - - - - - - - ; m u.0 . X X X X X X X X X X X X 6 ~ I : - - - - - - - - 2 Z 6.g.p . X X X X X X X X X X X 7 [ L ; - - - - - ",
"- - - - - - - - - - b t.i . X X X X X X X X X X X X $ J W 2 - - - - - - - - - > U 8.8 X X X X 7 6 X X X X X X t ;.c * - - - - - ",
"- - - - - - - - - - z 6.A   X $ O X X X X X X X X X @ F %.s * - - - - - - - - 4 %. .o X X X O i i @ X X X X @ D $.s - - - - - - ",
"- - - - - - - - - - l 5.H   O 0 u X X X X X X X X X O A %.d * - - - - - - - - z r.D . X O X O i i @ X X X X % ! I : - - - - - - ",
"- - - - - - - - - - j 1.K   O p @.$ X X X X X X X X O i *.j * - - - - - - - : C e.7 X 7 A 8 o 8 7 X X X X X 7 [ V - - - - - - - ",
"- - - - - - - - - - h 1.K   O A j.A . X X X X X X X o e | n * - - - - - - - 3 &.o.X X  .k.@.O X X X X X X X 0 ;.n - - - - - - - ",
"- - - - - - - - - - h 1.K   O A z.@.% X X X X X X X X 7 ~ U , - - - - - - - j u.p . 0 f.1.a.7 X X X X X X X r ;.x - - - - - - - ",
"- - - - - - - - - - h 1.!   O A z.i.p . X X X X X X X $ H _ d - - - - - - : L e.% . ^ 5.n a.e o X X X X X o p %.g - - - - - - - ",
"- - - - - - - - - - h ,.!   O A h.,.^ % X X X X X X X O u ' n ; - - - - - 2 1.! o 6 e.U l g.J 8 X X X X X O D W d - - - - - - - ",
"- - - - - - - - - - f ,.!   O M y.L 3.y X X X X X X X X 7 ~ U 2 - - - - - c u.e X A t.b c l.e.e . X X X X @ J R 3 - - - - - - - ",
"- - - - - - - - - - f ,.!   O M t.k %.K $ X X X X X X X @ D ' l ; - - - ; R @.% @ { -.4 j y.a.r . X X X X $ K T 1 - - - - - - - ",
"- - - - - - - - - - f ,.^   O M t.a L ..9 X X X X X X X X 0 [ C , - - - d 5.D @ 0 6.P = : m w.e . X X X X $ Y U 1 - - - - - - - ",
"- - - - - - - - - - f ,.^   O M t.2 j >.D @ X X X X X X X $ J W g - - = Z 6.0 O A r.c * : V q.9 . X X X X % ~ U , - - - - - - - ",
"- - - - - - - - - - f ,.^   O M t.< , T ..7 X X X X X X X X e X.V , - 2 %.! % $ ! 1.< - 3 _  .$ X X X X X % ~ I , - - - - - - - ",
"- - - - - - - - - - f ,.^   O M t.< ; x 4.p o X X X X X X X $ K _ f ; n 4.p O 8 6.T & - l a.A X X X X X X 6 ~ L , - - - - - - - ",
"- - - - - - - - - - f ,.^   O M t.< - 2 E ^ % X X X X X X X X w :.V 3 R { 8 O i u.x * - j r.J % X X X X X 6 ~ L , - - - - - - - ",
"- - - - - - - - - - f ,.^   O M t.< - : n 3.t X X X X X X X X @ J =.V ;.F + $ Y 5.: - - 1 L 0.H $ X X X X 6 ~ L , - - - - - - - ",
"- - - - - - - - - - f ,.^   O M t.< - - d W ! @ X o % % o X X X 0 3.t.3.0 X 7 0.U & - - - 3 E @.8 X X X X 6 ~ L , - - - - - - - ",
"- - - - - - - - - - f ,.!   O M t.< - - > B X.e X $ D F % X X X @ D a.K @ o i u.j - - - - , P ..6 X X X X 6 ~ L , - - - - - - - ",
"- - - - - - - - - - f ,.!   O M t.< - - ; g W J @ 7 J D $ X X X X 7 A 8 X O ~ -., - - - - 3 W ! O X X X X 5 ~ L , - - - - - - - ",
"- - - - - - - - - - h ,.!   O M t.< - - - , C | r A H w @ X X X X o @ o X 6 w.Z ; - - - ; j %.H . X X X X % ~ I , - - - - - - - ",
"- - - - - - - - - - h 1.Q   O M t.< - - - : j ) ! J K A 8 X X X X X X X X A r.g - - - - ; b 4.i . X o O X % ~ U , - - - - - - - ",
"- - - - - - - - - - h 1.K   O M t.< - - - - 2 Z | D K 9.D @ X X X X X X @  .W 2 - - - - : m q.9 . X $ % X % ! U 1 - - - - - - - ",
"- - - - - - - - - - h 1.K   O p y.2 - - - - ; f U ' *.t.3.9 X X X X X X 0 0.B : - - - - : V e.6 X X @ @ X % ! U 1 - - - - - - - ",
"- - - - - - - - - - h 1.K   o r i.g * - - - - : f B m Z ;.e X X X X X o J =.j - - - - - : C e.7 X X X X X $ ! $.d ; - - - - - - ",
"- - - - - - - - - - l 6.G   X 9 t.V & - - - - - ; : , n *.w X X X X X 7 ..U 2 - - - - - : N a.p . X X X X $ ! i.R d - - - - - - ",
"- - - - - - - - - : m u.r . X 6 { $.; - - - - - - - : n ;.0 X X X X X p *.b : - - - - - ; j ;.K X X X X X O 8 J 4.v * - - - - - ",
"- - - - - - - - : j W 3.$ X X @ A 7.l * - - - - - - : n ;.0 . X X X % ! E 3 - - - - - - ; g '  .$ X X X X X o w ;.n * : < : - - ",
"- - - - - * ; d V =.6.p X X X o 9 X.R , - - - - - - : n ;.9 . X X o r | V ; - - - * , g N W 6.^ 6 X X X X X X q ;.V l C U n , - ",
"- - - - 2 n T &.6.{ u O X X X X @ A >.B : - - - - - : n ;.0 . X X % K _ d - - - > v E =.| ~ S 7 o X X X X X X q 0.7.,.:.w.$.d - ",
"- - - 3 R 4.[ J p 6 o X X X X X X 6 K 1.V 2 ; - - - : n *.w X X o e :.V ; - ; d T r.O.F e % o X X X X X X X X 6 D Y S e K &.j - ",
"- - ; c 4.p 7 $ o X X X X X X X X X 7 K t.,.L j : - : v *.e X X % ~ %.s - - d &.6.S 8 @ X X X X X X X X X X X o @ $ O X A &.j - ",
"- - : V 6.8 X X X X X X X X X X X X X % u { i.1.j * : c ' r X @ A 0.n ; - : L d.p 6 $ % 6 7 7 8 8 9 9 9 9 9 9 0 9 9 9 9 K &.g - ",
"- - ; x 1.Y r e e e e e e e e e e e e e r p { ,.j * ; j ' D $ u 3.U 2 - - : C i.3.! ! ^ ..3.0.w.u.i.d.d.d.d.i.d.d.d.d.d.d.R s - ",
"- - - , V 7.0.6.6.6.0.0.6.0.6.6.6.6.0.0.6.0.=.b ; - - 3 T 3.K 3.W d - - - - > n R 1.6.4.*.W T L V m m n n n n n n n n n v s ; - ",
"- - - - > c C C C C C C C C C C C C C C C N f ; - - - : c -.t.R f - - - - - - * & = ; & & & & & & & * * * * * & * * * * * - - - ",
"- - - - - * & & & & & & & & & & & & & & & & * - - - - - : h z 3 - - - - - - - - - - - - - - - - - - - - - - - - - - - - - - - - "
};
