/* XPM */
static char *_294d5e8fea04410b2b97c99802a2224[] = {
/* columns rows colors chars-per-pixel */
"64 64 134 2 ",
"   c #161616",
".  c #1B1717",
"X  c #1B1B1B",
"o  c #201717",
"O  c #221C1C",
"+  c #2A1A1A",
"@  c #1F2020",
"#  c #232323",
"$  c #292323",
"%  c #2B2B2B",
"&  c #302323",
"*  c #342C2C",
"=  c #333333",
"-  c #3C3B3B",
";  c #6E0D0D",
":  c #700F0F",
">  c #6E1212",
",  c #701515",
"<  c #731C1C",
"1  c #413F3F",
"2  c #762222",
"3  c #792525",
"4  c #772B2B",
"5  c #7C2B2B",
"6  c #7E3232",
"7  c #434242",
"8  c #4B4B4B",
"9  c #504F4F",
"0  c #535353",
"q  c #585656",
"w  c #5B5B5B",
"e  c #615F5F",
"r  c #626161",
"t  c #696767",
"y  c #6A6A6A",
"u  c #747373",
"i  c #797676",
"p  c #7C7B7B",
"a  c #813434",
"s  c #843C3C",
"d  c #883E3E",
"f  c #864242",
"g  c #8B4545",
"h  c #8D4B4B",
"j  c #904E4E",
"k  c #8D5151",
"l  c #915252",
"z  c #965B5B",
"x  c #985E5E",
"c  c #976060",
"v  c #9C6464",
"b  c #9E6A6A",
"n  c #827E7E",
"m  c #A16D6D",
"M  c #A57373",
"N  c #A97575",
"B  c #A77979",
"V  c #AB7E7E",
"C  c #7F8080",
"Z  c #858383",
"A  c #8B8686",
"S  c #8D8A8A",
"D  c #938D8D",
"F  c #998F8F",
"G  c #949292",
"H  c #9B9595",
"J  c #9D9A9A",
"K  c #AD8383",
"L  c #AE8989",
"P  c #B28585",
"I  c #B28C8C",
"U  c #A29696",
"Y  c #A49B9B",
"T  c #A99C9C",
"R  c #B69494",
"E  c #B99494",
"W  c #B59A9A",
"Q  c #BC9B9B",
"!  c #A6A2A2",
"~  c #ACA2A2",
"^  c #AEA4A4",
"/  c #ACA9A9",
"(  c #B0A1A1",
")  c #B4A4A4",
"_  c #B5A7A7",
"`  c #BDA1A1",
"'  c #BDA4A4",
"]  c #BDA7A7",
"[  c #B4A9A9",
"{  c #B6ADAD",
"}  c #B5AEAE",
"|  c #BBA8A8",
" . c #B9AAAA",
".. c #BAACAC",
"X. c #BFAEAE",
"o. c #B7B2B2",
"O. c #BBB1B1",
"+. c #BFB1B1",
"@. c #BCB3B3",
"#. c #BEBBBB",
"$. c #C19F9F",
"%. c #C4A3A3",
"&. c #C2A4A4",
"*. c #C2A6A6",
"=. c #C4A4A4",
"-. c #C1ABAB",
";. c #C2AAAA",
":. c #C1ACAC",
">. c #C4ADAD",
",. c #CAAEAE",
"<. c #CCAEAE",
"1. c #C7B0B0",
"2. c #C4B3B3",
"3. c #C3B6B6",
"4. c #C8B4B4",
"5. c #CBB4B4",
"6. c #C1BABA",
"7. c #C3BBBB",
"8. c #CABDBD",
"9. c #D1B6B6",
"0. c #D2BBBB",
"q. c #CFC0C0",
"w. c #CDC5C5",
"e. c #CFC5C5",
"r. c #CBCACA",
"t. c #CEC9C9",
"y. c #D4C3C3",
"u. c #D9C6C6",
"i. c #D6CCCC",
"p. c #DCCBCB",
"a. c #DCD2D2",
"s. c #E0CECE",
"d. c #E1D5D5",
"f. c #E4DADA",
/* pixels */
"> > > > > > > > > > > , , , , , , , , , , , , , , , , , , , , , , , , , , , , , , , , , > < 4 s j h a < > > > > > > > > > > > > ",
"> > > > > > > > , 3 s f g g g g g g g g g g g g g g g g g g g g g g g g g g g g g g g g g z N R ` Q K l 2 > > > > > > > > > > > ",
"> > > > > > > , 6 v I Q Q Q Q Q Q Q Q Q Q Q Q Q Q Q Q Q Q Q Q Q Q Q Q Q Q Q Q Q Q Q Q Q Q &.:.) ~ [  .L g < > > > > > > > > > > ",
"> > > > > > > < l Q 4.+. . . . . . . . . . . . . . . . . . . . . . . . . . . . . . . . . .{ ! Z t C { ` x < > > > > > > > > > > ",
"> > > > > > > 2 x >.{ Z y y y y y y y y y y y y y y y y y y y y y y y y y y y y y y y y y t 0 = # w !  .b < > > > > > > > > > > ",
"> > > > > > > < l ` U w X X X X X X X X X X X X X X X X X X X X X X X X X X X X X X X X X X X X % y o.2.M 5 , > > > > > > > > > ",
"> > > > > > > < f E ~ i = # X X                                           X                   X = i +.q.E z 6 < > > > > > > > > ",
"> > > > > > > , 5 N ] ! u 8 = % # X X                               X X # # X X               X % 0 Z ! +.Q v 6 < > > > > > > > ",
"> > > > > > > > < g L -.{ H p t 9 - % # X                         X # - 0 0 7 # X               X % 7 t D ) Q v 6 , > > > > > > ",
"> > > > > > > > > 2 k V Q ]  .^ H A u 0 = X                     X % q Z ! J y - X                     % 0 A ) Q x 4 > > > > > > ",
"> > > > > > > > > > < s x V I R W W ( G t % X                   # 8 A O.e.6.Z 7 # # # X                 # 8 S ..I h < > > > > > ",
"> > > > > > > > > > > > < 5 f l v V Q  .S 7 X                 X % y T 4.0.3.A 7 - w 0 - X                 # w J  .N 6 > > > > > ",
"> > > > > > > > > > > > > > > , < a N ] Y 0 X                 X = u ~ &.%. .A 0 r J G r #                   = u { R k , > > > > ",
"> > > > > > > > > > > > > > > > > 2 c W Y 0 X                 X % t Y -.,.X.S y G r.#.p %                   X 8 J ] M 3 > > > > ",
"> > > > > > > > > > > > > > > > > < x W Y 0 X                   X 8 D 3.p.8.J G +.f.t.S = X                   = p X.I s > > > > ",
"> > > > > > > > > > > > > > > > > < x W Y 0 X                   X = p 6.a.i.#.+.8.u.6.S - X                   # r { Q l ; > > > ",
"> > > > > > > > > > > > > > > > > < x W T 0 X                   X = p +.a.a.a.y.&.%.] A 7 X                   X 8 ! ` v , > > > ",
"> > > > > > > > > > > > > > > > > < x Q T 0 X                   X - Z  .4.9.0.&.N P W A 7 X                   X 7 J ] N < > > > ",
"> > > > > > > > > > > > > > > > > < z W T w X                   X - A ( E V V v h N W A 7 X                   X = S ] V 3 > > > ",
"> > > > > > > > > > > > > > > > > < z W T w X                   X 8 F W M d a 4 a N W Z - X                   X = A  .L 5 > > > ",
"> > > > > > > > > > > > > > > > > < l R T w X         X X       # 0 H R c 2 > > 6 V W n - X                   X = Z ] K 3 > > > ",
"> > > > > > > > > > > > > > > > > < l R T w X     X # % % X     # w U I l < > , a K W n =                     X = S ` B < > > > ",
"> > > > > > > > > > > > > > > > > < l R T w X     X 1 q 0 * X X % y T L g < > < f I T i %         X X         X - H W b , > > > ",
"> > > > > > > > > > > > > > > > > < l R ~ w X     $ e Z p 7 X X = i T K s > > 2 l Q Y y #       X # # X       # 0 ! Q z ; > > > ",
"> > > > > > > > > > > > > > > > > < l R ~ r X     # w n i 1 X X - Z T V a > < s M ` F 0 X     X % - % X       % y ..R h ; > > > ",
"> > > > > > > > > > > > > > > > > < j R ~ r #     X - 0 9 % X X - Z ( I j s h M Q T u - X     X = - = X     X 7 D  .K a > > > > ",
"> > > > > > > > > > > > > > > > > < l R ~ r O   X # % % # X   X = i ~ ` L K I W T n 9 #       X % = # X   X - u ) R z < > > > > ",
"> > > > > > > > > > > > > > > > > < l R ~ r O X % - - % X     X % w S Y T T T H p 0 % X         X X X   X = y Y ` M a > > > > > ",
"> > > > > > > > > > > > > > > > > < l R ~ r # X = 8 7 = X       X = 0 y u u y w - # X                 X = t H ] V g < > > > > > ",
"> > > > > > > > > > > > > > > > > < l R ~ r # X % - - # X         X # % = = % # X                   # 1 y H ] K h 2 > > > > > > ",
"> > > > > > > > > > > > > > > > > < l R ~ r # X X # # X               X X X X                   X % 8 i Y ( K h 3 > > > > > > > ",
"> > > > > > > > > > > > > > > > > < l R ~ r #     X                                         X % - r S ~ W N g 3 > > > > > > > > ",
"> > > > > > > > > > > > > > > > > < l R ~ r #                         X O o             X % - w Z ! ) I b s 2 > > > > > > > > > ",
"> > > > > > > > > > > > > > > > > < l R ~ r X                         O + + .     X # = 8 t A ! ) Q K z a < > > > > > > > > > > ",
"> > > > > > > > > > > > > > > > > < l R ~ w X                         X O + O % = 8 r p H ~ ) ` I m g 4 , > > > > > > > > > > > ",
"> > > > > > > > > > > > > > > > > < l R ~ w X                     X # % - 8 w u Z G T )  .` I M h 5 < > > > > > > > > > > > > > ",
"> > > > > > > > > > > > > > > > > < l R ~ w X                     # 7 t Z G Y ^ ..X.] R K v h 5 < > > > > > > > > > > > > > > > ",
"> > > > > > > > > > > > > > > > > < l R T w X   X X X             % t J +.2.:.` R V v h a 3 < > > > > > > > > > > > > > > > > > ",
"> > > > > > > > > > > > > > > > > < l R T w X X O $ O X         X - Z ) &.P m l g a 4 < , > > > > > > > > > > > > > > > > > > > ",
"> > > > > > > > > > > > > > > > > < z R T w X X $ * & O         X 7 D W V g 6 3 < , > > > > > > > > > > > > > > > > > > > > > > ",
"> > > > > > > > > > > > > > > > > < z W T 0 X X O $ $ X         X 8 F R v 3 , > > > > > > > > > > > > > > > > > > > > > > > > > ",
"> > > > > > > > > > > > > > > > > < x W Y 0 X   X X X           # w H R z < > > > > > > > > > > > > > > > > > > > > > > > > > > ",
"> > > > > > > > > > > > > > > > > < c W Y 0 X                 X % r U L j < > > > > > > > > > > > > > > > > > > > > > > > > > > ",
"> > > > > > > > > > > > > > > > > 2 v W J 8 X                 X % y T L g , > > > > > > > > > > > > > > > > > > > > > > > > > > ",
"> > > > > > > > > > > > > > > > > 2 b W H 8 X                 X = i T K s > > > > > > > > > > > > > > > > > > > > > > > > > > > ",
"> > > > > > > > > > > > > > > > > 2 M W G 7 X                 X - n T V a > > > > > > > > > > > > > > > > > > > > > > > > > > > ",
"> > > > > > > > > > > > > > > > > 3 N ( G - X                 X - Z W B 6 > > > > > > > > > > > > > > > > > > > > > > > > > > > ",
"> > > > > > > > > > > > > > > > > 5 V ( A - X                 X 7 S W N 5 > > > > > > > > > > > > > > > > > > > > > > > > > > > ",
"> > > > > > > > > > > > > > > > , a L W Z = X                 X 7 D W M 5 > > > > > > > > > > > > > > > > > > > > > > > > > > > ",
"> > > > > > > > > > > > > > > > < d I T u %                   X 7 D W M 5 > > > , 2 5 3 < > > < 5 5 2 , > > > > > > > > > > > > ",
"> > > > > > > > > > > > > > > > < j R T t @                   X - A W V a > > 2 f m V N l 6 s v K K x 5 , > > > > > > > > > > > ",
"> > > > > > > > > > > > > > > > 2 c ` Y 0 X                   X = u ~ Q v 5 < a m E &.` I N I ] 2.4.R l , > > > > > > > > > > > ",
"> > > > > > > > > > > ; ; ; , 2 s V :.H 8                       # 0 D  .Q V v b E ] ) X.2.<.4.{ ! #.] v < > > > > > > > > > > > ",
"> > > > > > > > > , 3 6 f k z b V &...Z -                       X % w G O.:.&.&.4.>. .2.u.p.6.p t Y W b < > > > > > > > > > > > ",
"> > > > > > > , 3 f v V I Q ` -.4.+.H w #                         X % 8 u H o.e.p.p.p.p.s.i.Y 0 0 Y W v < > > > > > > > > > > > ",
"> > > > > > < 6 z I >.8.8.+.! H A u 0 % X                           X # % 8 i o.i.f.f.f.d.e.A 7 0 T W c < > > > > > > > > > > > ",
"> > > > > , 6 v ` +.! D p y w 8 - = # X                                   # 8 p J ! / / ! G e = r ^ R l , > > > > > > > > > > > ",
"> > > > ; 3 z Q ) A r 7 = # X                                             X # 7 0 w w w w 8 = = u ) I g , > > > > > > > > > > > ",
"> > > > ; s K +.Z 8 X                                                       X X X X X X X X # 0 H ] B a > > > > > > > > > > > > ",
"> > > > : k Q / r @                                                   X X @ # % = - 7 8 0 r u G ..R z < > > > > > > > > > > > > ",
"> > > > , z &.{ p r r r r r r r r r r r r r r r r r r r r r r r r r r t y y u u p Z S G H Y ( X.` m a , > > > > > > > > > > > > ",
"> > > > , l Q 8.) T T T T T T T T T T T T T T T T T T T T T T T T T T ! ~ ~ ) ) [  .X. .] ` Q P c s < > > > > > > > > > > > > > ",
"> > > > > 6 m Q %.=.=.=.=.=.=.=.=.=.=.=.=.=.=.=.=.=.=.=.=.=.=.=.=.=.=.%.&.$.Q E I V M v z l g a 3 , > > > > > > > > > > > > > > ",
"> > > > > < 6 h l l l l l l l l l l l l l l l l l l l l l l l l l l l l j h g f s 6 4 3 2 < < , > > > > > > > > > > > > > > > > "
};
