/* XPM */
static char *_d04ac5cc5ae473888ca69bc6762acd6[] = {
/* columns rows colors chars-per-pixel */
"64 64 121 2 ",
"   c #161616",
".  c #1B1B1B",
"X  c #232323",
"o  c #272828",
"O  c #2B2B2B",
"+  c #343434",
"@  c #3B3C3C",
"#  c #6D0E0E",
"$  c #6E1212",
"%  c #711616",
"&  c #731B1B",
"*  c #762222",
"=  c #792525",
"-  c #772828",
";  c #7B2B2B",
":  c #7D3232",
">  c #444444",
",  c #474848",
"<  c #4C4B4B",
"1  c #4F5050",
"2  c #545454",
"3  c #585757",
"4  c #575858",
"5  c #5C5B5B",
"6  c #605F5F",
"7  c #646464",
"8  c #696767",
"9  c #666868",
"0  c #6C6B6B",
"q  c #706F6F",
"w  c #747373",
"e  c #797676",
"r  c #7C7B7B",
"t  c #813535",
"y  c #833B3B",
"u  c #864242",
"i  c #894545",
"p  c #8C4B4B",
"a  c #904E4E",
"s  c #8F5151",
"d  c #915353",
"f  c #945B5B",
"g  c #985D5D",
"h  c #9B6464",
"j  c #9E6969",
"k  c #817E7E",
"l  c #A26E6E",
"z  c #A47373",
"x  c #A77979",
"c  c #A97B7B",
"v  c #848282",
"b  c #8A8686",
"n  c #8C8B8B",
"m  c #928D8D",
"M  c #949191",
"N  c #9B9494",
"B  c #9D9999",
"V  c #AD8484",
"C  c #AE8A8A",
"Z  c #B08686",
"A  c #B38C8C",
"S  c #A29797",
"D  c #AC9393",
"F  c #A49C9C",
"G  c #AA9E9E",
"H  c #B49393",
"J  c #B79595",
"K  c #B99696",
"L  c #B49A9A",
"P  c #B79B9B",
"I  c #BB9B9B",
"U  c #B89F9F",
"Y  c #BD9C9C",
"T  c #A2A2A2",
"R  c #A4A2A2",
"E  c #ADA2A2",
"W  c #ADA3A3",
"Q  c #A8A5A5",
"!  c #AAA9A9",
"~  c #ADA9A9",
"^  c #AEADAD",
"/  c #B3A1A1",
"(  c #B6A2A2",
")  c #B1A6A6",
"_  c #B6A7A7",
"`  c #BBA2A2",
"'  c #BAA6A6",
"]  c #B3ACAC",
"[  c #BBA8A8",
"{  c #B8ABAB",
"}  c #BCABAB",
"|  c #BFAEAE",
" . c #B4B1B1",
".. c #BDB1B1",
"X. c #BCB2B2",
"o. c #B8B7B7",
"O. c gray72",
"+. c #C19E9E",
"@. c #C2A5A5",
"#. c #C3ABAB",
"$. c #C9AFAF",
"%. c #C0B1B1",
"&. c #C7B0B0",
"*. c #C4B4B4",
"=. c #CCB6B6",
"-. c #C3BABA",
";. c #C6BBBB",
":. c #C3BEBE",
">. c #D1BEBE",
",. c #C3C3C3",
"<. c gray77",
"1. c #CEC1C1",
"2. c #CCCCCC",
"3. c #D6CACA",
"4. c #DACDCD",
"5. c #D3D0D0",
"6. c #D8D7D7",
"7. c #DDD4D4",
"8. c #DDDDDD",
"9. c #E3DCDC",
"0. c #E3E2E2",
/* pixels */
"$ $ $ $ $ $ $ $ $ $ $ $ $ $ $ $ $ $ $ $ $ $ $ $ $ $ $ $ $ $ $ $ $ $ $ $ $ $ $ $ $ $ $ $ $ $ $ $ $ $ $ $ $ $ $ $ $ $ $ $ $ $ $ $ ",
"$ $ $ $ $ $ $ $ $ $ $ $ $ $ $ $ $ $ $ $ $ $ $ $ $ $ $ $ $ $ $ $ $ $ $ $ $ $ $ $ $ $ $ $ $ $ $ $ $ $ $ $ $ $ $ $ $ $ $ $ $ $ $ $ ",
"$ $ $ $ $ $ $ $ $ $ $ $ $ $ $ $ $ $ $ $ $ $ $ & * - ; : : : : ; = & % $ $ $ $ $ $ $ $ $ $ $ $ $ $ $ $ $ $ $ $ $ $ $ $ $ $ $ $ $ ",
"$ $ $ $ $ $ $ $ $ $ $ $ $ $ $ $ $ $ $ $ % * : p h z c C J Y A z l g u ; & % $ $ $ $ $ $ $ $ $ $ $ $ $ $ $ $ $ $ $ $ $ $ $ $ $ $ ",
"$ $ $ $ $ $ $ $ $ $ $ $ $ $ $ $ $ $ $ * y h V L ' ) F F o.6.:.E _ ` H x h u = % $ $ $ $ $ $ $ $ $ $ $ $ $ $ $ $ $ $ $ $ $ $ $ $ ",
"$ $ $ $ $ $ $ $ $ $ $ $ $ $ $ $ $ & t h A ` E m w 5 < > r <.M 2 5 w M G ( A j y & $ $ $ % % $ $ $ $ $ $ $ $ $ $ $ $ $ $ $ $ $ $ ",
"$ $ $ $ $ $ $ $ $ $ $ $ $ $ $ $ - s V ` ) n 5 + .     . 5 B 7 .   . + 2 k F ( C f ; - u d i - $ $ $ $ $ $ $ $ $ $ $ $ $ $ $ $ $ ",
"$ $ $ $ $ $ $ $ $ $ $ $ $ $ % : h J _ N 7 + .       . . o @ O           X < v G J z z J ` H g * $ $ $ $ $ $ $ $ $ $ $ $ $ $ $ $ ",
"$ $ $ $ $ $ $ $ $ $ $ $ $ & i c U F r > .   . + , < < , @ O . .             O 7 M { >.-.Q { A t # $ $ $ $ $ $ $ $ $ $ $ $ $ $ $ ",
"$ $ $ $ $ $ $ $ $ $ $ % ; g A / m 5 O     X 2 b B F F B M v q < o .           X < n :.^ r F I y # $ $ $ $ $ $ $ $ $ $ $ $ $ $ $ ",
"$ $ $ $ $ $ $ $ $ $ & y z L G r , X     o 7 B ` H C C C A L ' F r < X           . > r T ! ..A t # $ $ $ $ $ $ $ $ $ $ $ $ $ $ $ ",
"$ $ $ $ $ $ $ $ % - d C ( M 7 + .     o 7 F L z i : : y i f x I %.F 7 O .         . @ v :.>.l & $ $ $ $ $ $ $ $ $ $ $ $ $ $ $ $ ",
"$ $ $ $ $ & * ; i l J G k 2 o . .   X 6 F U h ; % $ $ $ $ & ; s C &.] w + .         . , m } x ; $ $ $ $ $ $ $ $ $ $ $ $ $ $ $ $ ",
"$ $ $ & : d h z A L M 8 @ . X @ + X 2 M U j ; $ $ $ $ $ $ $ $ & t l @.{ w +           X 2 M ` h * $ $ $ $ $ $ $ $ $ $ $ $ $ $ $ ",
"$ $ $ ; l U ( G m w < o . . > k 0 < k ( l ; % $ $ $ $ $ $ $ $ $ $ ; h @.) 8 X           o 7 G H p % $ $ $ $ $ $ $ $ $ $ $ $ $ $ ",
"$ $ $ u J ] e 3 > O .     . < m r 5 N H y % $ $ $ $ $ $ $ $ $ $ $ $ * h @.F 2 .         . + r ( x ; $ $ $ $ $ $ $ $ $ $ $ $ $ $ ",
"$ $ $ i L M @ . .         . O < , 2 F C ; $ $ $ $ $ $ $ $ $ $ $ $ $ $ - x } v + .         . < M I f & $ $ $ $ $ $ $ $ $ $ $ $ $ ",
"$ $ $ i L M +               . . X 2 F C ; $ $ $ $ $ $ $ $ $ $ $ $ $ $ $ y J E 6 X           o q / V t $ $ $ $ $ $ $ $ $ $ $ $ $ ",
"$ $ $ i L M +                   . 2 F C ; $ $ $ $ $ $ $ $ $ $ $ $ $ $ $ % h { b +           . , M U g & $ $ $ $ $ $ $ $ $ $ $ $ ",
"$ $ $ i L M +                   . 5 E V - $ $ $ $ $ $ $ $ $ $ $ $ $ $ $ $ t H E 2 .           X 0 / V y $ $ $ $ $ $ $ $ $ $ $ $ ",
"$ $ $ i L M +                   X 8 _ z * $ $ $ $ $ $ $ $ $ $ $ $ $ $ $ $ & l %.w X           . , M U f & $ $ $ $ $ $ $ $ $ $ $ ",
"$ $ $ i L M +                   o e ' h & $ $ $ $ $ $ $ $ $ $ $ $ $ $ $ $ $ a #.m + .           X q / x : $ $ $ $ $ $ $ $ $ $ $ ",
"$ $ $ i L M +                 . @ b U d & $ $ $ $ $ $ $ $ $ $ $ $ $ $ $ $ $ t K R < .           . < B J p & $ $ $ $ $ $ $ $ $ $ ",
"$ $ $ i L M +                 . , M H y $ $ $ $ $ $ $ $ $ $ $ $ $ $ $ $ $ $ * V { 5 .             O r ` j = $ $ $ $ $ $ $ $ $ $ ",
"$ $ $ i L M +                 . 2 F C ; $ $ $ $ $ $ $ $ $ $ $ $ $ $ $ $ $ $ & x ..7 .             . 5 G C y $ $ $ $ $ $ $ $ $ $ ",
"$ $ $ i L M +                 X 7 / z - $ $ $ $ $ $ $ $ $ $ $ $ $ $ $ $ $ $ & z ..8 .               @ M J p % $ $ $ $ $ $ $ $ $ ",
"$ $ $ i L M +                 O e ( g & $ $ $ $ $ $ $ $ $ $ $ $ $ $ $ $ $ $ & l } 0 .               + n I p % $ $ $ $ $ $ $ $ $ ",
"$ $ $ i L M +                 @ n L p % $ $ $ $ $ $ $ $ $ $ $ $ $ $ $ $ $ $ & l } 0 .               + b I p % $ $ $ $ $ $ $ $ $ ",
"$ $ $ i L M +               . < F A t $ $ $ $ $ $ $ $ $ $ $ $ $ $ $ $ $ $ $ & z | 7 .               + m I d & $ $ $ $ $ $ $ $ $ ",
"$ $ $ i L M +               . 2 E c ; $ $ $ $ $ $ $ $ $ $ $ $ $ $ $ $ $ $ $ & x | 6 .               + N $.l ; $ $ $ $ $ $ $ $ $ ",
"$ $ $ i J M @               . 7 / l - $ $ $ $ $ $ $ $ $ $ $ $ $ $ $ $ $ $ $ & V ] 5 .               @ B 1.K d & $ $ $ $ $ $ $ $ ",
"$ $ $ y H F <               X 0 U h * $ $ $ $ $ $ $ $ $ $ $ $ $ $ $ $ $ $ # * A E < .             . < N o.{ l - $ $ $ $ $ $ $ $ ",
"$ $ $ : x _ 0 X             X w U g & $ $ $ $ $ $ $ $ $ $ $ $ $ $ $ $ $ * t i K F , .             . 5 ~ ;.` h * $ $ $ $ $ $ $ $ ",
"$ $ $ & f U m @             o w U g & $ $ $ $ $ $ $ $ $ $ $ $ $ $ $ $ & h I +.=.N @               X w ..@.z t % $ $ $ $ $ $ $ $ ",
"$ $ $ % y C G 2 .           X 0 ( h * $ $ $ $ $ $ $ $ $ $ $ $ $ $ $ # y K 3.7.9.M +               + b U h ; % $ $ $ $ $ $ $ $ $ ",
"$ $ $ $ ; j ( r X           . 5 / x ; $ $ $ $ $ $ $ $ $ $ $ $ $ $ $ # f {  .,.0.n o             . < B C y % $ $ $ $ $ $ $ $ $ $ ",
"$ $ $ $ & s J M @           . < F A t $ $ $ $ $ $ $ $ $ $ $ $ $ $ $ % z { v n <.r X             X 0 L z ; $ $ $ $ $ $ $ $ $ $ $ ",
"$ $ $ $ % y V G 5 .           @ b L p % $ $ $ $ $ $ $ $ $ $ $ $ $ $ & C ) 7 < n 7 X             + b L f & $ $ $ $ $ $ $ $ $ $ $ ",
"$ $ $ $ $ = j ( r o           X 0 ( l * $ $ $ $ $ $ $ $ $ $ $ $ $ # : K G < X < @ .           . 5 G C y $ $ $ $ $ $ $ $ $ $ $ $ ",
"$ $ $ $ $ & d J M >           . 2 F A y $ $ $ $ $ $ $ $ $ $ $ $ $ # i U N @   X .             + v U j * $ $ $ $ $ $ $ $ $ $ $ $ ",
"$ $ $ $ $ $ y V G 7 .         . + v ' h & $ $ $ $ $ $ $ $ $ $ $ $ # g { n O                 . 5 G A u % $ $ $ $ $ $ $ $ $ $ $ $ ",
"$ $ $ $ $ $ * j ( v +           X 6 E H y $ $ $ $ $ $ $ $ $ $ $ $ & c { w .               . > m U h & $ $ $ $ $ $ $ $ $ $ $ $ $ ",
"$ $ $ $ $ $ % p H F 2 .         . @ v { z - $ $ $ $ $ $ $ $ $ $ # y I ) 2                 + e _ C t $ $ $ $ $ $ $ $ $ $ $ $ $ $ ",
"$ $ $ $ $ $ $ ; x ( e o           . 2 F ` h ; & & & & & & & & & & h #.M +               o 8 E U d % $ $ $ $ $ $ $ $ $ $ $ $ $ $ ",
"$ $ $ $ $ $ $ & d L M < . . + + X   o 0 E ` C x z z z z z z z z c @.{ 7 .             X 7 F ' h & $ $ $ $ $ $ $ $ $ $ $ $ $ $ $ ",
"$ $ $ $ $ $ $ $ ; x L w O O 0 M w @ . + 0 B / / / / / / / / / / _ ) k +           . + 0  .3.A y % $ $ $ $ $ $ $ $ $ $ $ $ $ $ $ ",
"$ $ $ $ $ $ $ $ % p H N 2 + v 2.2.n @ . X , 5 7 7 9 9 9 9 9 9 9 7 2 + .     . o , 0 M <.0.7.#.l ; $ $ $ $ $ $ $ $ $ $ $ $ $ $ $ ",
"$ $ $ $ $ $ $ $ $ * h L b < 0 O.8.,.0 X                                 X > 0 n R { $.4.5.T E J p $ $ $ $ $ $ $ $ $ $ $ $ $ $ $ ",
"$ $ $ $ $ $ $ $ $ $ : z L v 5 0 n n 5 X                             . > r F } ` A x l I ..w M I d % $ $ $ $ $ $ $ $ $ $ $ $ $ $ ",
"$ $ $ $ $ $ $ $ $ $ % y z U m 5 > @ o .                             + n *.Y x f y - : z *. .| J i $ $ $ $ $ $ $ $ $ $ $ $ $ $ $ ",
"$ $ $ $ $ $ $ $ $ $ $ % t l U G r 2 + X . X X .                     @ R $.h - & $ $ & p A #.I h * $ $ $ $ $ $ $ $ $ $ $ $ $ $ $ ",
"$ $ $ $ $ $ $ $ $ $ $ $ % ; f Z ` E m 7 < 8 0 @ .                   o n { j * $ $ $ $ & y p i = $ $ $ $ $ $ $ $ $ $ $ $ $ $ $ $ ",
"$ $ $ $ $ $ $ $ $ $ $ $ $ $ & t h K =.] B o.o.v @ .                   4 E Y d * $ $ $ $ $ $ $ $ $ $ $ $ $ $ $ $ $ $ $ $ $ $ $ $ ",
"$ $ $ $ $ $ $ $ $ $ $ $ $ $ $ $ & y l U #.@.$.{ r + .                 o e | J d ; & % % % % % % % % % % % % % % % % $ $ $ $ $ $ ",
"$ $ $ $ $ $ $ $ $ $ $ $ $ $ $ $ $ $ - i a i f I E 0 o                   + v ..Y z h f f f f f f f f f f f f f f f p ; % $ $ $ $ ",
"$ $ $ $ $ $ $ $ $ $ $ $ $ $ $ $ $ $ $ $ # $ & g ` S 2 X                 . + r E { ' ` ` ` ` ` ` ( ( ` ` ` ` ` ` ` J z y % $ $ $ ",
"$ $ $ $ $ $ $ $ $ $ $ $ $ $ $ $ $ $ $ $ $ $ $ * z ' n , .                   o 2 r n n n n n n n n n n n n n n M B ] #.l - $ $ $ ",
"$ $ $ $ $ $ $ $ $ $ $ $ $ $ $ $ $ $ $ $ $ $ $ $ t Z _ v 1 O X .               . X o O O O O O O O O O O + > 2 0 k ~ 1.A : $ $ $ ",
"$ $ $ $ $ $ $ $ $ $ $ $ $ $ $ $ $ $ $ $ $ $ $ $ % p A ( S v 0 2 @ o X .                             . @ 0 n M S L #.@.z ; $ $ $ ",
"$ $ $ $ $ $ $ $ $ $ $ $ $ $ $ $ $ $ $ $ $ $ $ $ $ & i z A L L S m r 8 2 @ O X X .                   X 5 ~ *.H x z l f y & $ $ $ ",
"$ $ $ $ $ $ $ $ $ $ $ $ $ $ $ $ $ $ $ $ $ $ $ $ $ $ % ; i g z c C D D S M n r 7 2 @ + o X . .       X 7  .#.g ; = & & % $ $ $ $ ",
"$ $ $ $ $ $ $ $ $ $ $ $ $ $ $ $ $ $ $ $ $ $ $ $ $ $ $ $ % & = : i d h x H U ( / F B m k 0 5 < , > > 2 r | H y $ $ $ $ $ $ $ $ $ ",
"$ $ $ $ $ $ $ $ $ $ $ $ $ $ $ $ $ $ $ $ $ $ $ $ $ $ $ $ $ $ $ $ % & * : i d h z Z I ' { _ E G F F F F L A f - $ $ $ $ $ $ $ $ $ ",
"$ $ $ $ $ $ $ $ $ $ $ $ $ $ $ $ $ $ $ $ $ $ $ $ $ $ $ $ $ $ $ $ $ $ $ $ % & & ; y p d h z c A A A A c h i = $ $ $ $ $ $ $ $ $ $ "
};
