/* XPM */
static char *a353d8d48ed14cf59278422728d75562[] = {
/* columns rows colors chars-per-pixel */
"64 64 127 2 ",
"   c #161616",
".  c #1A1717",
"X  c #1B1B1B",
"o  c #241D1D",
"O  c #281F1F",
"+  c #232323",
"@  c #292020",
"#  c #272828",
"$  c #2C2C2C",
"%  c #332D2D",
"&  c #2F3030",
"*  c #333333",
"=  c #3B3B3B",
"-  c #6E0D0D",
";  c #6E1212",
":  c #711515",
">  c #741C1C",
",  c #752121",
"<  c #792525",
"1  c #772828",
"2  c #7B2C2C",
"3  c #7D3232",
"4  c #434343",
"5  c #474848",
"6  c #4B4B4B",
"7  c #535353",
"8  c #585656",
"9  c #575858",
"0  c #5C5C5C",
"q  c #605F5F",
"w  c #646464",
"e  c #696767",
"r  c #6C6B6B",
"t  c #726F6F",
"y  c #747373",
"u  c #797676",
"i  c #7D7B7B",
"p  c #813636",
"a  c #833B3B",
"s  c #854242",
"d  c #8A4545",
"f  c #8C4B4B",
"g  c #904E4E",
"h  c #8D5151",
"j  c #925454",
"k  c #955C5C",
"l  c #995C5C",
"z  c #976262",
"x  c #9B6464",
"c  c #9E6A6A",
"v  c #827E7E",
"b  c #A26D6D",
"n  c #A47373",
"m  c #A87777",
"M  c #A77979",
"N  c #AA7C7C",
"B  c #858282",
"V  c #8A8585",
"C  c #8C8A8A",
"Z  c #938D8D",
"A  c #959292",
"S  c #9B9494",
"D  c #9D9999",
"F  c #AE8383",
"G  c #B08686",
"H  c #B48E8E",
"J  c #A19797",
"K  c #A39B9B",
"L  c #AA9C9C",
"P  c #B49393",
"I  c #B99595",
"U  c #B49B9B",
"Y  c #BA9B9B",
"T  c #A4A3A3",
"R  c #ACA3A3",
"E  c #ABA9A9",
"W  c #AFADAD",
"Q  c #B4A3A3",
"!  c #B1A7A7",
"~  c #BEA2A2",
"^  c #BCA5A5",
"/  c #BEA5A5",
"(  c #B2A8A8",
")  c #B4AAAA",
"_  c #B7AFAF",
"`  c #B9ABAB",
"'  c #BDABAB",
"]  c #B8AFAF",
"[  c #BFAEAE",
"{  c #B2B1B1",
"}  c #B7B1B1",
"|  c #BDB1B1",
" . c #BDB3B3",
".. c #B9B9B9",
"X. c #C09F9F",
"o. c #C2A2A2",
"O. c #C2ABAB",
"+. c #C5A9A9",
"@. c #C4ABAB",
"#. c #C0AEAE",
"$. c #C9ACAC",
"%. c #C2B3B3",
"&. c #C6B0B0",
"*. c #C2B4B4",
"=. c #C7B4B4",
"-. c #CAB2B2",
";. c #C9B5B5",
":. c #CDB7B7",
">. c #C5B9B9",
",. c #C2BCBC",
"<. c #C7BDBD",
"1. c #CABBBB",
"2. c #CDBEBE",
"3. c #D2B8B8",
"4. c #C6C6C6",
"5. c #CAC1C1",
"6. c #CCCBCB",
"7. c #D3C4C4",
"8. c #D6C7C7",
"9. c #D9C4C4",
"0. c #D6CFCF",
"q. c #D7D5D5",
"w. c #D8D3D3",
"e. c #DBD7D7",
"r. c #DDD8D8",
"t. c #E5E5E5",
"y. c #F0ECEC",
/* pixels */
"; ; ; ; ; ; ; ; ; ; ; ; ; ; ; ; ; ; ; ; ; ; ; ; ; ; ; ; ; ; ; ; ; ; ; ; ; ; ; ; ; ; ; ; ; ; ; ; ; ; ; ; ; ; ; ; ; ; ; ; ; ; ; ; ",
"; ; ; ; ; ; ; ; ; ; ; ; ; ; ; ; ; ; ; ; ; ; ; ; ; ; ; ; ; ; ; ; ; ; ; ; ; ; ; ; ; ; ; ; ; ; ; ; ; ; ; ; ; ; ; ; ; ; ; ; ; ; ; ; ",
"; ; ; ; ; ; ; ; ; ; ; ; ; ; ; ; ; ; ; ; ; ; ; ; ; ; ; ; ; ; ; ; ; ; ; ; ; ; ; ; ; ; ; ; ; ; ; ; ; ; ; ; ; ; ; ; ; ; ; ; ; ; ; ; ",
"; ; ; ; ; ; ; ; ; ; ; ; ; ; ; ; ; ; ; ; ; ; ; ; ; ; ; ; ; ; ; ; ; ; ; ; ; ; ; ; ; ; ; ; ; ; ; ; ; ; ; ; ; ; ; ; ; ; ; ; ; ; ; ; ",
"; ; ; ; ; ; ; ; ; ; ; ; ; ; ; ; ; ; ; ; ; ; ; ; ; ; ; ; ; ; ; ; ; ; ; ; ; ; ; ; ; ; ; ; ; ; ; ; ; ; ; ; ; ; ; ; ; ; ; ; ; ; ; ; ",
"; ; ; ; ; ; ; ; ; ; ; ; ; ; ; ; ; ; ; ; ; ; ; ; ; ; ; ; ; ; ; ; ; ; ; ; ; ; ; ; ; ; ; ; ; ; ; ; ; ; ; ; ; ; ; ; ; ; ; ; ; ; ; ; ",
"; ; ; ; ; ; ; ; ; ; ; ; ; ; ; ; ; ; ; ; ; ; ; ; ; ; ; ; ; ; ; ; ; ; ; ; ; ; ; ; ; ; ; ; ; ; ; ; ; ; ; ; ; ; ; ; ; ; ; ; ; ; ; ; ",
"; ; ; ; ; ; ; ; ; ; ; ; ; ; ; ; ; ; ; ; ; ; ; ; ; ; ; ; ; ; ; ; ; ; ; ; ; ; ; ; ; ; ; ; ; ; ; ; ; ; ; ; ; ; ; ; ; ; ; ; ; ; ; ; ",
"; ; ; ; ; ; ; ; ; ; ; ; ; ; ; ; ; ; ; ; ; ; ; ; ; ; ; ; ; ; ; ; ; ; ; ; ; ; ; ; ; ; ; ; ; ; ; ; ; ; ; ; ; ; ; ; ; ; ; ; ; ; ; ; ",
"; ; ; ; ; ; ; ; ; ; ; ; ; ; ; ; ; ; ; ; ; ; ; ; ; ; ; ; ; ; ; ; ; ; ; ; ; ; ; ; ; ; ; ; ; ; ; ; ; ; ; ; ; ; ; ; ; ; ; ; ; ; ; ; ",
"; ; ; ; ; ; ; ; ; ; ; ; ; ; ; ; ; ; ; ; ; ; ; ; ; ; ; ; ; ; ; ; ; ; ; ; ; ; ; ; ; ; ; ; ; ; ; ; ; ; ; ; ; ; ; ; ; ; ; ; ; ; ; ; ",
"; ; ; ; ; ; ; ; ; ; ; ; ; ; ; ; ; ; ; ; ; ; ; ; ; ; ; ; ; ; ; ; ; ; ; ; ; ; ; ; ; ; ; ; ; ; ; ; ; ; ; ; ; ; ; ; ; ; ; ; ; ; ; ; ",
"; ; ; ; ; ; ; ; ; ; ; ; ; ; ; ; ; ; ; ; ; ; ; ; ; ; ; ; ; ; ; ; ; ; ; ; ; ; ; ; ; ; ; ; ; ; ; ; ; ; ; ; ; ; ; ; ; ; ; ; ; ; ; ; ",
"; ; ; ; ; ; ; ; ; ; ; ; ; ; ; ; ; ; ; ; ; ; ; ; ; ; ; ; ; ; ; ; ; ; ; ; ; ; ; ; ; ; ; ; ; ; ; ; ; ; ; ; ; ; ; ; ; ; ; ; ; ; ; ; ",
"; ; ; ; ; ; ; ; ; ; ; ; ; ; ; ; ; ; ; ; ; ; ; ; ; ; ; ; ; ; ; ; ; ; ; ; ; ; ; ; ; ; ; ; ; ; ; ; ; ; ; ; ; ; ; ; ; ; ; ; ; ; ; ; ",
"; ; ; ; ; ; ; ; ; ; ; ; ; ; ; ; ; ; ; ; ; ; ; ; ; ; ; ; ; ; ; ; ; ; ; ; ; ; ; ; ; ; ; ; ; ; ; ; ; ; ; ; ; ; ; ; ; ; ; ; ; ; ; ; ",
"; ; ; ; ; ; ; ; ; ; ; ; ; ; ; ; ; ; ; ; ; : > > ; - ; ; ; ; ; ; ; ; ; ; ; ; ; ; ; ; ; ; ; ; ; ; ; ; ; ; ; ; ; ; ; ; ; ; ; ; ; ; ",
"; : < 2 2 < > > : - - - - - ; ; ; ; ; ; > d M M k d p 2 < > : - - - ; ; ; ; ; ; ; ; ; ; ; ; ; ; ; ; ; ; ; ; ; ; ; ; ; ; ; ; ; ; ",
": f H X.Y I H G N n x l j d a 2 < > > : < F 1.| ' O.+.o.Y H F b l f a < : ; ; ; ; ; ; ; ; ; ; ; ; ; ; ; ; ; ; ; ; ; ; ; ; ; ; ; ",
", F <.K S D D K R _ | *.=.-.+.Y I P H G H &.T r y B A K R } ,.5.2.:.+.Y F x f 2 > : ; ; ; ; ; ; ; ; ; ; ; ; ; ; ; ; ; ; ; ; ; ; ",
"> M ] r = * * = 4 7 0 r y v C S K T E W W D w + X + $ * 4 6 0 r y B S E | | ^ P n j 3 > ; ; ; ; ; ; ; ; ; ; ; ; ; ; ; ; ; ; ; ; ",
"; f ~ ( B q 6 = * $ + .   . + $ * * = = = * +                     X $ = 6 0 y A T Q H c p > ; ; ; ; ; ; ; ; ; ; ; ; ; ; ; ; ; ; ",
"; > j P ^ U K D A V i r 4 .                                                   $ 5 y S Q H j , ; ; ; ; ; ; ; ; ; ; ; ; ; ; ; ; ; ",
"; ; : 3 h x M F P Y Y #.D =             . O O . + 7 i i y r 0 6 = $ + . .         X = r K ^ z > ; ; ; ; ; ; ; ; ; ; ; ; ; ; ; ; ",
"; ; ; ; ; > , < 3 s f N [ r .           . O @ . $ C w.8.;.#.` ! K A v w 4 +           + 7 S ~ j : ; ; ; ; ; ; ; ; ; ; ; ; ; ; ; ",
"; ; ; ; ; ; ; ; ; ; ; a Y D =                   + i >.H l l x n N I O.[ J 0 X           . 6 J P p ; ; ; ; ; ; ; ; ; ; ; ; ; ; ; ",
"; ; ; ; ; ; ; ; ; ; ; > n ` e X                 . 7 R M > ; ; : > 2 f M -.C $             X w ! c > ; ; ; ; ; ; ; ; ; ; ; ; ; ; ",
"; ; ; ; ; ; ; ; ; ; ; ; f ^ B +                   = S P p ; ; ; ; ; - p I Z &               = D H 2 ; ; ; ; ; ; ; ; ; ; ; ; ; ; ",
"; ; ; ; ; ; ; ; ; ; ; ; s Y C $                   $ i U f ; ; ; ; ; ; p H Z &               + B U s ; ; ; ; ; ; ; ; ; ; ; ; ; ; ",
"; ; ; ; ; ; ; ; ; ; ; ; a Y Z $                   + t U j : ; ; ; ; ; p H Z &               X y U h ; ; ; ; ; ; ; ; ; ; ; ; ; ; ",
"; ; ; ; ; ; ; ; ; ; ; ; p Y Z $                   $ u U f : ; ; ; ; ; p H Z &               . w Q l : ; ; ; ; ; ; ; ; ; ; ; ; ; ",
"; ; ; ; ; ; ; ; ; ; ; ; p Y A *                 . 4 S P p ; ; ; ; ; ; p H Z &               . r ^ l : ; ; ; ; ; ; ; ; ; ; ; ; ; ",
"; ; ; ; ; ; ; ; ; ; ; ; 3 I S *                 $ i Q c > ; ; ; ; ; ; p H Z $               + i ^ h ; ; ; ; ; ; ; ; ; ; ; ; ; ; ",
"; ; ; ; ; ; ; ; ; ; ; ; 3 I D *               + w L N p ; ; ; ; ; ; ; p H J 6 $ X           * S Y a ; ; ; ; ; ; ; ; ; ; ; ; ; ; ",
"; ; ; ; ; ; ; ; ; ; ; ; 2 P J =             . 4 S H d : ; ; ; ; ; ; ; < N <.{ i $         X 0 ) F , ; ; ; ; ; ; ; ; ; ; ; ; ; ; ",
"; ; ; ; ; ; ; ; ; ; ; ; < H K =             X r Q x > ; ; ; ; ; ; ; : < b 9.w.B $       . 4 S O.f ; ; ; ; ; ; ; ; ; ; ; ; ; ; ; ",
"; ; ; ; ; ; ; ; ; ; ; ; < H K 4             + u Y j : ; ; ; : > , 2 d b Y *.S 6 X       = V [ n > ; ; ; ; ; ; ; ; ; ; ; ; ; ; ; ",
"; ; ; ; ; ; ; ; ; ; ; ; < F L 4             + r ! F j a p a f z n F P U D y 4 X     . 4 C ' N 2 ; ; ; ; ; ; ; ; ; ; ; ; ; ; ; ; ",
"; ; ; ; ; ; ; ; ; ; ; ; , F L 6 .           . 4 B L U P P P P L K S v e 4 # .     + 7 S [ F p ; ; ; ; ; ; ; ; ; ; ; ; ; ; ; ; ; ",
"; ; ; ; ; ; ; ; ; ; ; ; > M R 7 .             X = 0 y v B v t w 7 4 * + .     + 4 y E O.M p : ; ; ; ; ; ; ; ; ; ; ; ; ; ; ; ; ; ",
"; ; ; ; ; ; ; ; ; ; ; ; > n Q 7 .               . X + $ $ $ + X .   X X . X = r S ` I z 2 : ; ; ; ; ; ; ; ; ; ; ; ; ; ; ; ; ; ; ",
"; ; ; ; ; ; ; ; ; ; ; ; : c ! 0 .               + * * $ X           o o X = C ] Y n a > ; ; ; ; ; ; ; ; ; ; ; ; ; ; ; ; ; ; ; ; ",
"; ; ; ; ; ; ; ; ; ; ; ; ; x ) w X             X 0 A D C 7 X         . o X 6 R +.l < ; ; ; ; ; ; ; ; ; ; ; ; ; ; ; ; ; ; ; ; ; ; ",
"; ; ; ; ; ; ; ; ; ; ; ; - z ` r X             + i >.+.' Z 4 .             & B ^ x , ; ; ; ; ; ; ; ; ; ; ; ; ; ; ; ; ; ; ; ; ; ; ",
"; ; ; ; ; ; ; ; ; ; ; ; ; l ` r X             + i ^ x n Q u $             . 4 A U j > ; ; ; ; ; ; ; ; ; ; ; ; ; ; ; ; ; ; ; ; ; ",
"; ; ; ; ; ; ; ; ; ; ; ; ; j ` t X   X o .     + i Y f p F K 8 X             X 7 K P d : ; ; ; ; ; ; ; ; ; ; ; ; ; ; ; ; ; ; ; ; ",
"; ; ; ; ; ; ; ; ; ; ; ; ; j ^ y X   + % +     + i Y f > j U V =             + 4 y ) H p ; ; ; ; ; ; ; ; ; ; ; ; ; ; ; ; ; ; ; ; ",
"; ; ; ; ; ; ; ; ; ; ; ; ; f ^ u +   X @ X     + i Y f ; < n Q r +           = i D ..7.n < ; ; ; ; ; ; ; ; ; ; ; ; ; ; ; ; ; ; ; ",
"; ; ; ; ; ; ; ; ; ; ; ; ; f ^ i + $ 4 $ .     + i Y d ; ; a P D 4 .         $ y ..t.y.3.M p : ; ; ; ; ; ; ; ; ; ; ; ; ; ; ; ; ; ",
"; ; ; ; ; ; ; ; ; ; ; ; ; f ^ i $ w S w X     + i Y f ; ; > x ^ u +         . * i 6.y.e.2.b , ; ; ; ; ; ; ; ; ; ; ; ; ; ; ; ; ; ",
"; ; ; ; ; ; ; ; ; ; ; ; ; f ^ i $ r T w X     + i Y f ; ; ; p H J 6 .         . * i 4.q.r.$.c p ; ; ; ; ; ; ; ; ; ; ; ; ; ; ; ; ",
"; ; ; ; ; ; ; ; ; ; ; ; ; h ^ u $ r T r X     + i Y f ; ; ; > x Q y +           . * i 6.t.0.;.F 3 ; ; ; ; ; ; ; ; ; ; ; ; ; ; ; ",
"; ; ; ; ; ; ; ; ; ; ; ; ; k ` r + 0 C 0 X     + i Y f ; ; ; ; a H D 4 .             * i { A A %.n , ; ; ; ; ; ; ; ; ; ; ; ; ; ; ",
"; ; ; ; ; ; ; ; ; ; ; ; : c ! w X + * +       + i Y f ; ; ; ; , c Q t +               * Z T y K +.l > ; ; ; ; ; ; ; ; ; ; ; ; ; ",
"; ; ; ; ; ; ; ; ; ; ; ; , N T 6 .             + i Y f ; ; ; ; ; s P S 4 .             + B 4.E y ( o.f : ; ; ; ; ; ; ; ; ; ; ; ; ",
"; ; ; ; ; ; ; ; ; ; - - 2 P J =               + i ^ l 3 1 > ; ; > b Q r +               4 D T 6 w | Y f , ; ; ; ; ; ; ; ; ; ; ; ",
"; ; ; ; ; - > 3 s f f h x +.D *               X e ) ~ Y I n a > ; a P S =                 * 4 + X r ] +.F z f p < > : - - ; ; ; ",
"; ; ; : 3 l G o.^ ^ ^ ^ [ >.B $               . * e C K _ [ Y j > > b ! e X                       X 0 D ] %.+.+.Y H N c d > ; ; ",
"; ; , j Y %.( D V i y r r w 4 X                 . X $ = 6 r K P a ; a I S =                         . * 9 y B Z D L ( *.O.k : ; ",
"; , x ^ T y 6 * + + + + + + + + + + + $ $ % * = 4 4 6 6 7 0 C ^ l : > b ` y = * * * * * * * $ X         . X + $ * = 6 r T P p ; ",
"; f +.W r 6 6 6 6 7 7 7 0 0 w t y i B V Z S J K L R R ! ) ) *.~ g : ; p H [ K J J J J J J D Z r * .     X = 6 6 6 6 6 7 C ' f - ",
"; j -.>.! Q Q Q ! ! ) ! ! Q ! ^ ' ^ ~ Y Y Y I H G N m n b c z d , ; ; > d N I Y Y Y Y Y Y o.+.[ B &     6 S ! Q Q Q Q ! %.+.d - ",
"; < z F F F F F F F F M n c z j h f s p p 2 < , > : : : - - - - ; ; ; ; ; > < < < < < < < 3 f H *.C y i D &.I F F F F F N l , ; ",
"; ; > > , , , , , , , > > : : ; - - ; ; ; ; ; ; ; ; ; ; ; ; ; ; ; ; ; ; ; ; ; ; ; ; ; ; ; ; ; f Y +.+.+.o.n 3 , , , , , > > ; ; "
};
