/* XPM */
static char *_b862d38ead2457faaa17d6d8975225a[] = {
/* columns rows colors chars-per-pixel */
"64 64 106 2 ",
"   c #161616",
".  c #1B1B1B",
"X  c #242424",
"o  c #2C2C2C",
"O  c #333333",
"+  c #3B3B3B",
"@  c #6E1212",
"#  c #701616",
"$  c #731B1B",
"%  c #772121",
"&  c #792525",
"*  c #7D2B2B",
"=  c #444444",
"-  c #494747",
";  c #4C4C4C",
":  c #545454",
">  c #5B5B5B",
",  c #605F5F",
"<  c #646363",
"1  c #686767",
"2  c #6C6B6B",
"3  c #706F6F",
"4  c #737373",
"5  c #787777",
"6  c #7C7C7C",
"7  c #802F2F",
"8  c #823333",
"9  c #863A3A",
"0  c #893E3E",
"q  c #8C4343",
"w  c #8F4848",
"e  c #914C4C",
"r  c #965353",
"t  c #985757",
"y  c #9B5B5B",
"u  c #9E6161",
"i  c #807E7E",
"p  c #A16666",
"a  c #A56D6D",
"s  c #A77272",
"d  c #A97474",
"f  c #AE7C7C",
"g  c #B07F7F",
"h  c #838282",
"j  c #898787",
"k  c #8D8B8B",
"l  c #928F8F",
"z  c #949292",
"x  c #9A9696",
"c  c #9C9B9B",
"v  c #B28484",
"b  c #B68A8A",
"n  c #B98E8E",
"m  c #A19C9C",
"M  c #BC9494",
"N  c #BD9A9A",
"B  c #A5A2A2",
"V  c #ACA4A4",
"C  c #ADA9A9",
"Z  c #B4A6A6",
"A  c #BEA3A3",
"S  c #B3ACAC",
"D  c #BCABAB",
"F  c #B5B1B1",
"G  c #BCB4B4",
"H  c #BEBABA",
"J  c #C19C9C",
"K  c #C2A0A0",
"L  c #C2A2A2",
"P  c #C3A6A6",
"I  c #C6A7A7",
"U  c #C3ABAB",
"Y  c #C6ABAB",
"T  c #C0AEAE",
"R  c #C4ACAC",
"E  c #C8AEAE",
"W  c #CCACAC",
"Q  c #C3B0B0",
"!  c #C3B3B3",
"~  c #C0B4B4",
"^  c #C4B7B7",
"/  c #C9B0B0",
"(  c #CFB3B3",
")  c #C9B7B7",
"_  c #C3B9B9",
"`  c #C0BBBB",
"'  c #C1BEBE",
"]  c #C6BCBC",
"[  c #CCB8B8",
"{  c #CCBABA",
"}  c #CABFBF",
"|  c #D1B5B5",
" . c #D0BBBB",
".. c #D3BBBB",
"X. c #C5C0C0",
"o. c #C7C2C2",
"O. c #C8C1C1",
"+. c #CDC2C2",
"@. c #CEC9C9",
"#. c #D4C3C3",
"$. c #D1C4C4",
"%. c #D3CCCC",
"&. c #DCCCCC",
"*. c #D3D0D0",
"=. c #DDD2D2",
"-. c #E8DDDD",
/* pixels */
"@ @ @ @ @ @ @ @ @ @ @ @ @ @ @ @ @ @ @ @ @ @ @ @ @ @ @ @ @ @ @ @ @ @ @ @ @ @ @ @ @ @ @ @ @ @ @ @ @ @ @ @ @ @ @ @ @ @ @ @ @ @ @ @ ",
"@ @ @ @ @ @ @ @ @ @ @ @ @ @ @ @ @ @ @ @ @ @ @ @ @ @ @ @ @ @ @ @ @ @ @ @ @ @ @ @ @ @ @ @ @ @ @ @ @ @ @ @ @ @ @ @ @ @ @ @ @ @ @ @ ",
"@ @ @ @ @ @ @ @ @ @ @ @ @ @ @ @ @ @ @ @ @ @ @ @ @ @ @ @ @ @ @ @ @ @ @ @ @ @ @ @ @ @ @ $ & & # @ @ @ @ @ @ @ @ @ @ @ @ @ @ @ @ @ ",
"@ @ @ @ @ @ @ @ @ @ @ @ @ @ @ @ @ @ @ @ @ @ @ @ @ @ @ @ @ @ @ @ @ @ @ @ @ @ @ @ @ $ e n W J y & @ @ @ @ @ @ @ @ @ @ @ @ @ @ @ @ ",
"@ @ @ @ @ @ @ @ @ @ @ @ @ @ @ @ @ @ @ @ @ @ @ @ @ @ @ @ @ @ @ @ @ @ @ @ @ @ @ @ $ w L X.B F Y y $ @ @ @ @ @ @ @ @ @ @ @ @ @ @ @ ",
"@ @ @ @ @ @ @ @ @ @ @ @ @ @ @ @ @ @ @ @ @ @ @ @ @ @ @ @ @ @ @ @ @ @ @ @ @ @ @ @ * b O.5 O > S n 8 @ @ @ @ @ @ @ @ @ @ @ @ @ @ @ ",
"@ @ @ @ @ @ @ @ @ @ @ @ @ @ @ @ @ @ @ @ @ @ @ @ @ @ @ @ @ @ @ @ @ @ @ @ @ @ @ $ r / x +   O z P q @ @ @ @ @ @ @ @ @ @ @ @ @ @ @ ",
"@ @ @ @ @ @ @ @ @ @ @ @ @ @ @ @ @ @ @ @ @ @ @ @ @ @ @ @ @ @ @ @ @ @ @ @ @ @ @ * b ] < .   O k U e @ @ @ @ @ @ @ @ @ @ @ @ @ @ @ ",
"@ @ @ @ @ @ @ @ @ @ @ @ @ @ @ @ @ @ @ @ @ @ # $ $ $ $ $ $ $ # @ @ @ @ @ @ @ $ e E c +     o j P e @ @ @ @ @ @ @ @ @ @ @ @ @ @ @ ",
"@ @ @ @ @ @ @ @ @ @ @ @ @ @ @ @ @ @ @ @ $ * e a f b b f a y q * $ $ # @ @ @ & f ] 1 .     O j P e @ @ @ @ @ @ @ @ @ @ @ @ @ @ @ ",
"@ @ @ @ @ @ @ @ @ @ @ @ @ @ @ @ @ @ # * y n ( $.O.' H G ~ ) Y M v p e 7 % % e Y B +       O k L q @ @ @ @ @ @ @ @ @ @ @ @ @ @ @ ",
"@ @ @ @ @ @ @ @ @ @ @ @ @ @ @ @ @ $ q v [ ` x 5 < : : > < 4 j B G ^ Y N b v L ` 2 .       O l L q @ @ @ @ @ @ @ @ @ @ @ @ @ @ @ ",
"@ @ @ @ @ @ @ @ @ @ @ @ @ @ @ @ & y L ` z > O . . X + = = O O = : 1 h c S G H k +         + x N 9 @ @ @ @ @ @ @ @ @ @ @ @ @ @ @ ",
"@ @ @ @ @ @ @ @ @ @ @ @ @ @ @ & p / F 4 O .   . + 5 m C C m j > O . X O - : > + .       . = m M 8 @ @ @ @ @ @ @ @ @ @ @ @ @ @ @ ",
"@ @ @ @ @ @ @ @ @ @ @ @ @ @ $ y E S < X       O h } ( J J W  .G k ; X                   . : Z v & @ @ @ @ @ @ @ @ @ @ @ @ @ @ @ ",
"@ @ @ @ @ @ @ @ @ @ @ @ @ # q J G < X       X 4 ] M e 8 8 q y v R C < o .               X 1 D a $ @ @ @ @ @ @ @ @ @ @ @ @ @ @ @ ",
"@ @ @ @ @ @ @ @ @ @ @ @ @ * g ^ 6 o .     . > F L q # @ @ @ @ & r L G 3 o               o 6 ! y @ @ @ @ @ @ @ @ @ @ @ @ @ @ @ @ ",
"@ @ @ @ @ @ @ @ @ @ @ @ # e Y m = .     . = B / y $ @ @ @ @ @ @ $ e L G 1 X             O l Y e @ @ @ @ @ @ @ @ @ @ @ @ @ @ @ @ ",
"@ @ @ @ @ @ @ @ @ @ @ @ % d ! 4 X       . 4 +.v * @ @ @ @ @ @ @ @ $ e I F > .         . + m J 0 @ @ @ @ @ @ @ @ @ @ @ @ @ @ @ @ ",
"@ @ @ @ @ @ @ @ @ @ @ @ 8 M B - .       . 2 } f & @ @ @ @ @ @ @ @ @ $ y ) m = .       . ; C b * @ @ @ @ @ @ @ @ @ @ @ @ @ @ @ @ ",
"@ @ @ @ @ @ @ @ @ @ @ @ e P l O           = m P e $ @ @ @ @ @ @ @ @ @ & f } h o       X < D d $ @ @ @ @ @ @ @ @ @ @ @ @ @ @ @ @ ",
"@ @ @ @ @ @ @ @ @ @ @ @ y T 6 o           . < G M 9 # @ @ @ @ @ @ @ @ # 0 N G > .     X 5 T y @ @ @ @ @ @ @ @ @ @ @ @ @ @ @ @ @ ",
"@ @ @ @ @ @ @ @ @ @ @ $ p D 2 X             o 6 ~ f 8 # @ @ @ @ @ @ @ @ $ y / x +     o j P e @ @ @ @ @ @ @ @ @ @ @ @ @ @ @ @ @ ",
"@ @ @ @ @ @ @ @ @ @ @ $ a S < o X X .       . + k ! d * # @ @ @ @ @ @ @ @ * f ~ 4 X   O z J 0 @ @ @ @ @ @ @ @ @ @ @ @ @ @ @ @ @ ",
"@ @ @ @ @ @ @ @ @ @ @ $ a Z < - < ; X         . = z ! f 8 $ @ @ @ @ @ @ @ # q L C ; . + m M 8 @ @ @ @ @ @ @ @ @ @ @ @ @ @ @ @ @ ",
"@ @ @ @ @ @ @ @ @ @ @ # y Z 4 1 B 5 o           . = k D v e % @ @ @ @ @ @ @ $ p R k + - B b * @ @ @ @ @ @ @ @ @ @ @ @ @ @ @ @ @ ",
"@ @ @ @ @ @ @ @ @ @ @ @ r A i < k 1 X             . + 6 S N p 9 $ # @ @ @ @ # 8 f D j h G f % @ @ @ @ @ @ @ @ @ @ @ @ @ @ @ @ @ ",
"@ @ @ @ @ @ @ @ @ @ @ @ q A l - + o .               . o < x D M p 9 % @ @ @ @ # 0 v D ! Y y $ @ @ @ @ @ @ @ @ @ @ @ @ @ @ @ @ @ ",
"@ @ @ @ @ @ @ @ @ @ @ @ 7 b V : .                       X = 5 B D M p e q * # @ $ 8 u f u * @ @ @ @ @ @ @ @ @ @ @ @ @ @ @ @ @ @ ",
"@ @ @ @ @ @ @ @ @ @ @ @ $ y A h O .                       . o ; 6 B D U L d 8 # @ @ $ & % # @ @ @ @ @ @ @ @ @ @ @ @ @ @ @ @ @ @ ",
"@ @ @ @ @ @ @ @ @ @ @ @ @ 8 b S < X                           . o ; 5 z V ! v 8 # @ @ @ @ @ @ @ @ @ @ @ @ @ @ @ @ @ @ @ @ @ @ @ ",
"@ @ @ @ @ @ @ @ @ @ @ @ @ $ r P B : X                             . o + ; j D f 8 $ @ @ @ @ @ @ @ @ @ @ @ @ @ @ @ @ @ @ @ @ @ @ ",
"@ @ @ @ @ @ @ @ @ @ @ @ @ @ & a R c ; X                                 . + j ^ b 9 $ @ @ @ @ @ @ @ @ @ @ @ @ @ @ @ @ @ @ @ @ @ ",
"@ @ @ @ @ @ @ @ @ @ @ @ @ @ @ * d ! x : X                                 . = l [ b w 8 8 $ @ @ @ @ @ @ @ @ @ @ @ @ @ @ @ @ @ @ ",
"@ @ @ @ @ @ @ @ $ * 9 8 & # @ # 8 s U B < o .                               . = z [ I J v q # @ @ @ @ @ @ @ @ @ @ @ @ @ @ @ @ @ ",
"@ @ @ @ @ @ @ @ 8 d M n d e & # # * p P S 5 + .                               . = h V F [ v * @ @ @ @ @ @ @ @ @ @ @ @ @ @ @ @ @ ",
"@ @ @ @ @ @ @ $ y U S m Z N p * # @ & y N ! x > o .                             . O = > c Y r $ @ @ @ @ @ @ @ @ @ @ @ @ @ @ @ @ ",
"@ @ @ @ @ @ @ $ p D 6 - , m U p & @ @ $ q f R S h - X                               . X < D v * @ @ @ @ @ @ @ @ @ @ @ @ @ @ @ @ ",
"@ @ @ @ @ @ @ $ u D 4 o X : B A e $ @ @ $ * y M ^ C 5 = X                             . + z P q @ @ @ @ @ @ @ @ @ @ @ @ @ @ @ @ ",
"@ @ @ @ @ @ @ # y D 5 o   X 1 G v 8 @ @ @ @ $ 0 d P ` B 2 + .                           X 4 D p $ @ @ @ @ @ @ @ @ @ @ @ @ @ @ @ ",
"@ @ @ @ @ @ @ @ r D h o     + z T y $ @ @ @ @ # & q g / O.c < O .                       . : C v * @ @ @ @ @ @ @ @ @ @ @ @ @ @ @ ",
"@ @ @ @ @ @ @ @ e A k O     . < G v * @ @ @ @ @ @ $ * r n [ ] z : X                     . + m N 8 @ @ @ @ @ @ @ @ @ @ @ @ @ @ @ ",
"@ @ @ @ @ @ @ @ q N c +       + m P q # @ @ @ @ @ @ @ $ 8 y M [ F 5 O .                   O z L q @ @ @ @ @ @ @ @ @ @ @ @ @ @ @ ",
"@ @ @ @ @ @ @ @ 8 b V ; .     X 5 ! p $ @ @ @ @ @ @ @ @ @ $ 8 p L ] z = .                 o j P e @ @ @ @ @ @ @ @ @ @ @ @ @ @ @ ",
"@ @ @ @ @ @ @ @ % a D 2 X     . : F b * @ @ @ @ @ @ @ @ @ @ # $ q v [ m - .               o h U r @ @ @ @ @ @ @ @ @ @ @ @ @ @ @ ",
"@ @ @ @ @ @ @ @ # r U z +       + x A q # @ @ @ @ @ @ @ @ @ @ @ # * a [ x +               o i U r @ @ @ @ @ @ @ @ @ @ @ @ @ @ @ ",
"@ @ @ @ @ @ @ @ @ 8 b G < X     X 5 ! p $ @ @ @ @ @ @ @ @ @ @ @ @ @ * f } 5 X             o i U r @ @ @ @ @ @ @ @ @ @ @ @ @ @ @ ",
"@ @ @ @ @ @ @ @ @ $ r P S < o .   : S b * @ @ @ @ @ @ @ @ @ @ @ @ @ # 9 L B +             o h U r @ @ @ @ @ @ @ @ @ @ @ @ @ @ @ ",
"@ @ @ @ @ @ @ @ @ @ & u / B = .   O k U e $ @ @ @ @ @ @ @ @ @ @ @ @ @ $ n H :             O j P e @ @ @ @ @ @ @ @ @ @ @ @ @ @ @ ",
"@ @ @ @ @ @ @ @ @ @ @ 8 M C = .   . < G v & @ @ @ @ @ @ @ @ @ @ @ @ @ $ b G ;           . = m L q @ @ @ @ @ @ @ @ @ @ @ @ @ @ @ ",
"@ @ @ @ @ @ @ @ @ @ @ 9 J m +       O z R r $ @ @ @ @ @ @ @ @ @ @ @ # q E B +         . O i ` v * @ @ @ @ @ @ @ @ @ @ @ @ @ @ @ ",
"@ @ @ @ @ @ @ @ @ @ @ q L z O       . : S L r $ # 8 y p y q & # @ @ 0 J O.2 X         o 4 ] N 0 # @ @ @ @ @ @ @ @ @ @ @ @ @ @ @ ",
"@ @ @ @ @ @ @ @ @ @ @ e U j O         X 2 '  .v a J #.$.#.| J g u u L @.h o         X < H I e $ @ @ @ @ @ @ @ @ @ @ @ @ @ @ @ @ ",
"@ @ @ @ @ @ @ @ @ @ @ r T 6 o           o 1 F =.-.%.z 4 6 z F ' } &.@.h O         . : F ( y $ @ @ @ @ @ @ @ @ @ @ @ @ @ @ @ @ @ ",
"@ @ @ @ @ @ @ @ @ @ # u D 4 X X ; 5 h 4 = o = 4 h < o     X + : 2 6 < o         . - B [ p % @ @ @ @ @ @ @ @ @ @ @ @ @ @ @ @ @ @ ",
"@ @ @ @ @ @ @ @ @ @ $ a D < X + c %.=.%.h O .   . .                             X 2 O.L 0 @ @ @ @ @ @ @ @ @ @ @ @ @ @ @ @ @ @ @ ",
"@ @ @ @ @ @ @ @ @ @ & f Z > X < ~ M f E X.z 1 = X . .             . . X o X . o O : V I q @ @ @ @ @ @ @ @ @ @ @ @ @ @ @ @ @ @ @ ",
"@ @ @ @ @ @ @ @ @ @ * b V ; O k R r * r M #.@.C k 1 = o X X X X X + < k c h > 5 4 : c Y q @ @ @ @ @ @ @ @ @ @ @ @ @ @ @ @ @ @ @ ",
"@ @ @ @ @ @ @ @ @ @ 7 n V - : S M 8 @ # 8 y f J / ` S c z l l l z C ] [ | #.X.*.@.S O.M 8 @ @ @ @ @ @ @ @ @ @ @ @ @ @ @ @ @ @ @ ",
"@ @ @ @ @ @ @ @ @ @ * b S 1 h ! p & @ @ @ @ $ * e a M W | | | | | L g r q a L W W | J t $ @ @ @ @ @ @ @ @ @ @ @ @ @ @ @ @ @ @ @ ",
"@ @ @ @ @ @ @ @ @ @ $ p R F ' N 0 # @ @ @ @ @ @ @ # * 0 q q q q q 8 $ @ @ $ 8 0 q q 8 $ @ @ @ @ @ @ @ @ @ @ @ @ @ @ @ @ @ @ @ @ ",
"@ @ @ @ @ @ @ @ @ @ @ 8 f  . .a & @ @ @ @ @ @ @ @ @ @ @ @ @ @ @ @ @ @ @ @ @ @ @ @ @ @ @ @ @ @ @ @ @ @ @ @ @ @ @ @ @ @ @ @ @ @ @ ",
"@ @ @ @ @ @ @ @ @ @ @ @ * r r 7 # @ @ @ @ @ @ @ @ @ @ @ @ @ @ @ @ @ @ @ @ @ @ @ @ @ @ @ @ @ @ @ @ @ @ @ @ @ @ @ @ @ @ @ @ @ @ @ ",
"@ @ @ @ @ @ @ @ @ @ @ @ @ @ @ @ @ @ @ @ @ @ @ @ @ @ @ @ @ @ @ @ @ @ @ @ @ @ @ @ @ @ @ @ @ @ @ @ @ @ @ @ @ @ @ @ @ @ @ @ @ @ @ @ "
};
