/* XPM */
static char *e3b8bec87ef64b20a97b1ab1713c9abe[] = {
/* columns rows colors chars-per-pixel */
"64 64 116 2 ",
"   c #161616",
".  c #1B1B1B",
"X  c #211F1F",
"o  c #232323",
"O  c #2E2525",
"+  c #2B2B2B",
"@  c #352B2B",
"#  c #333333",
"$  c #3F3333",
"%  c #3C3B3B",
"&  c #6E1212",
"*  c #701616",
"=  c #731B1B",
"-  c #762020",
";  c #792424",
":  c #7D2B2B",
">  c #424242",
",  c #4C4C4C",
"<  c #504E4E",
"1  c #545454",
"2  c #595656",
"3  c #5B5B5B",
"4  c #615F5F",
"5  c #636363",
"6  c #696666",
"7  c #6C6C6C",
"8  c #716F6F",
"9  c #737373",
"0  c #787777",
"q  c #7D7D7D",
"w  c #802F2F",
"e  c #833434",
"r  c #863A3A",
"t  c #893E3E",
"y  c #8C4343",
"u  c #8F4848",
"i  c #914B4B",
"p  c #965454",
"a  c #985757",
"s  c #9B5B5B",
"d  c #9E6161",
"f  c #817E7E",
"g  c #A16565",
"h  c #A56C6C",
"j  c #A77070",
"k  c #AA7474",
"l  c #AE7B7B",
"z  c #B17F7F",
"x  c #848282",
"c  c #898686",
"v  c #8C8B8B",
"b  c #918E8E",
"n  c #939292",
"m  c #999696",
"M  c #9C9A9A",
"N  c #AF8080",
"B  c #B28383",
"V  c #B68A8A",
"C  c #B98D8D",
"Z  c #A39E9E",
"A  c #B79090",
"S  c #BC9494",
"D  c #BE9A9A",
"F  c #A4A2A2",
"G  c #ABA4A4",
"H  c #AEA9A9",
"J  c #B2A5A5",
"K  c #BDA4A4",
"L  c #B3ACAC",
"P  c #BCADAD",
"I  c #B4B2B2",
"U  c #BBB4B4",
"Y  c #BDBBBB",
"T  c #C29E9E",
"R  c #C4A3A3",
"E  c #C8A5A5",
"W  c #C4ACAC",
"Q  c #CAABAB",
"!  c #C4B2B2",
"~  c #C0B6B6",
"^  c #CAB3B3",
"/  c #CEB3B3",
"(  c #C9B6B6",
")  c #CCB7B7",
"_  c #C0BABA",
"`  c #C5B9B9",
"'  c #C2BFBF",
"]  c #C8B8B8",
"[  c #C9BABA",
"{  c #CFBABA",
"}  c #CBBFBF",
"|  c #D0B3B3",
" . c #D1B6B6",
".. c #D1B9B9",
"X. c #D3BEBE",
"o. c #D4BFBF",
"O. c #C4C0C0",
"+. c #C5C2C2",
"@. c #C6C5C5",
"#. c #CBC0C0",
"$. c #CEC2C2",
"%. c #CFC4C4",
"&. c #CBC9C9",
"*. c #CFCDCD",
"=. c #D6C0C0",
"-. c #D3C6C6",
";. c #D6C6C6",
":. c #D4C8C8",
">. c #DED1D1",
",. c #E2D4D4",
"<. c #E2DBDB",
"1. c #E1E1E1",
"2. c gray91",
"3. c #EEEBEB",
"4. c #F2ECEC",
"5. c #FDFDFD",
/* pixels */
"& & & & & & & & & & & & & & & & & & & & & & & & & & & & & & & & & & & & & & & & & & & & & & & & & & & & & & & & & & & & & & & & ",
"& & & & & & & & & & & & & & & & & & & & & & & & & & & & & & & & & & & & & & & & & & & & & & & & & & & & & & & & & & & & & & & & ",
"& & & & & & & & & & & & & & & & & & & & & & & & & & & & & & & & & & & & & & & & & & & & & & & & & & & & & & & & & & & & & & & & ",
"& & & & & & & & & & & & & & & & & & & & & & & & & & & & & & & & & & & & & & & & & & & & & & & & & & & & & & & & & & & & & & & & ",
"& & & & & & & & & & & & & & & & & & & & & & & & & & & & & & & & & & & & & & & & & & & & & & & & & & & & & & & & & & & & & & & & ",
"& & & & & & & & & & & & & & & & & & & & & & & & & & & & & & & & & & & & & & & & & & & & & & & & & & & & & & & & & & & & & & & & ",
"& & & & & & & & & & & & & & & & & & & & & & & & & & & & & & & & & & & & & & & & & & & & & & & & & & & & & & & & & & & & & & & & ",
"& = t d h h h g d a p u r : - * * * * & & & & & & & & & * y g h i - & & & & & & & & & & & & & & & & & & & & & & & & & & & & & & ",
"& r S ;.%.#.} } [ [ ) ) Q R S V l h s p p p p p p p p p h Q :.-./ a * & & & & & & & * e i p p p p p p p p p p p p p p p u ; * & ",
"& u / *.n 7 6 6 7 9 0 x v M G L L P P ^ ^ ( { X.o.o.o.o.>.' x x O.T e & & & & & & = p S ..o.o.o.o.o.o.o.o.o.o.o.o.o.o.=. .k : & ",
"& : B [ m , o .       . o + % > , 3 5 7 9 0 0 q q q q q q 2 o + x X.s & & & & & * i R _ n q q q q q q q q q q q q q q n @.R r & ",
"& * r B ( G 9 % o .                               . .         o 7 %.k * & & & & - h [ x +                           . , H S e & ",
"& & * w g D ! Z 7 % o .                         + % +     . o , F ( a * & & & & = s ^ m , + o .                   . % v ^ g - & ",
"& & & & = r h R ` F 8 > o .                     3 Z 3 . o > 0 L } k ; & & & & & * e l [ L b 7 > o .             . > v ` B e * & ",
"& & & & & & = u z / } Z 5 # .                   7 *.0 % 0 L -.Q g : & & & & & & & * r h T / ` F 5 +         . o 1 m } S y * & & ",
"& & & & & & & & ; i V ) U 0 # .                 % 6 , 3 I 3.| p = & & & & & & & & & & = e i l ^ G ,       . # 7 H } V y * & & & ",
"& & & & & & & & & * : a R ~ 9 +                 . . o % 7 I ^ p * & & & & & & & & & & & & & : z P 5 .   . % x U E k e * & & & & ",
"& & & & & & & & & & & = i T L 3 o                       o 2 L R y & & & & & & & & & & & & & - h P 6 o   + 0 P V i ; * & & & & & ",
"& & & & & & & & & & & & = a W m > .                       o 9 #.l = & & & & & & & & & & & & ; k P 5 . . , Z S y * & & & & & & & ",
"& & & & & & & & & & & & & : l [ q + .                       % G R e & & & & & & & & & & & & e S L 1 . + q K g - & & & & & & & & ",
"& & & & & & & & & & & & & & r S L 2 .                       o x { a & & & & & & & & & & & = a W n % . 1 G A r & & & & & & & & & ",
"& & & & & & & & & & & & & & * a W v # .                     . 5 ` k * & & & & & & & & & & e V P 5 o # x K d = & & & & & & & & & ",
"& & & & & & & & & & & & & & & : V L 3 o                     . > I C - & & & & & & & & & = p R m % o 3 G V e & & & & & & & & & & ",
"& & & & & & & & & & & & & & & * p W b # .                     # F E e & & & & & & & & & : B P 6 o # c K a = & & & & & & & & & & ",
"& & & & & & & & & & & & & & & & : V U 3 .                     o n  .u & & & & & & & & * i R M > o 3 G B e & & & & & & & & & & & ",
"& & & & & & & & & & & & & & & & * a ^ c +                     . c ..p & & & & & & & & : l U 9 o % v K p = & & & & & & & & & & & ",
"& & & & & & & & & & & & & & & & & e S H , .                   . q } s & & & & & & & * u R F > o 3 J N w & & & & & & & & & & & & ",
"& & & & & & & & & & & & & & & & & * h [ 0 o                   . 9 } g & & & & & & & ; k ! 0 + % v K p * & & & & & & & & & & & & ",
"& & & & & & & & & & & & & & & & & & y R M % .                 . 5 ' k & & & & & & * y D G , o 3 G B : & & & & & & & & & & & & & ",
"& & & & & & & & & & & & & & & & & & - B U 3 .                 . 2 Y B = & & & & & - h ! q + # c K p * & & & & & & & & & & & & & ",
"& & & & & & & & & & & & & & & & & & & a ( x o                 . > H S : & & & & * r D H 1 o 3 G B e & & & & & & & & & & & & & & ",
"& & & & & & & & & & & & & & & & & & & r R G > .                 + m / i & & & & - g ! x + # x K a * & & & & & & & & & & & & & & ",
"& & & & & & & & & & & & & & & & & & & = l ` 5 .                 o 0 $.h * & & * e S L 2 o 2 G V e & & & & & & & & & & & & & & & ",
"& & & & & & & & & & & & & & & & & & & & a { c o                 . , L D e & & = s W v # # x K s = & & & & & & & & & & & & & & & ",
"& & & & & & & & & & & & & & & & & & & & e R G % . . o X           + x [ g = & e V U 3 o 1 G S e & & & & & & & & & & & & & & & & ",
"& & & & & & & & & & & & & & & & & & & & = z _ 3 . X $ @           . , H R y = a W n # + q W g = & & & & & & & & & & & & & & & & ",
"& & & & & & & & & & & & & & & & & & & & & a { f o . @ O             + 0 ` l t B U 5 o , Z S t & & & & & & & & & & & & & & & & & ",
"& & & & & & & & & & & & & & & & & & & & & r R Z # . . .             . > Z ^ C W M % o 8 P h - & & & & & & & & & & & & & & & & & ",
"& & & & & & & & & & & & & & & & & & & & & - V U 2 .                 o > 0 ' ,._ 6 o % m R u & & & & & & & & & & & & & & & & & & ",
"& & & & & & & & & & & & & & & & & & & & & & d } 0 .               . < f 7 n &.m % o 5 L l : & & & & & & & & & & & & & & & & & & ",
"& & & & & & & & & & & & & & & & & & & & & & y Q M +               . 7 L 8 , 9 1 o # v W p * & & & & & & & & & & & & & & & & & & ",
"& & & & & & & & & & & & & & & & & & & & & & - V U ,               . , 0 , o o o . 1 G V e & & & & & & & & & & & & & & & & & & & ",
"& & & & & & & & & & & & & & & & & & & & & & & g } 9 .             . # 2 #       + q ! g * & & & & & & & & & & & & & & & & & & & ",
"& & & & & & & & & & & & & & & & & & & & & & & u / n o             . 3 b 2 .   . > Z D t & & & & & & & & & & & & & & & & & & & & ",
"& & & & & & & & & & & & & & & & & & & & & & & ; S I > . .         . 6 G 5 .   o 6 P k - & & & & & & & & & & & & & & & & & & & & ",
"& & & & & & & & & & & & & & & & & & & & & & & * h $.6 , , .       . % 4 % .   # n E i & & & & & & & & & & & & & & & & & & & & & ",
"& & & & & & & & & & & & & & & & & & & & & & & & i  .n v H >         . o .   . 1 L V : & & & & & & & & & & & & & & & & & & & & & ",
"& & & & & & & & & & & & & & & & & & & & & & & & ; S U Y 2.x o               o 0 [ g * & & & & & & & & & & & & & & & & & & & & & ",
"& & & & & & & & & & & & & & & & & & & & & & & & & h -.1.5.O.,             . % m R y & & & & & & & & & & & & & & & & & & & & & & ",
"& & & & & & & & & & & & & & & & & & & & & & & & & y Q 4.4.<.x o           . 3 P B ; & & & & & & & & & & & & & & & & & & & & & & ",
"& & & & & & & & & & & & & & & & & & & & & & & & & = p V l Q I >           o x ( s * & & & & & & & & & & & & & & & & & & & & & & ",
"& & & & & & & & & & & & & & & & & & & & & & & & & & * * * j $.7 .       . % Z R t & & & & & & & & & & & & & & & & & & & & & & & ",
"& & & & & & & & & & & & & & & & & & & & & & & & & & & & & y / m +       o 5 U l - & & & & & & & & & & & & & & & & & & & & & & & ",
"& & & & & & & & & & & & & & & & & & & & & & & & & & & & & - C U ,       + c { a & & & & & & & & & & & & & & & & & & & & & & & & ",
"& & & & & & & & & & & & & & & & & & & & & & & & & & & & & * h $.9 .   . > G T e & & & & & & & & & & & & & & & & & & & & & & & & ",
"& & & & & & & & & & & & & & & & & & & & & & & & & & & & & & u ) n +   . , H S e & & & & & & & & & & & & & & & & & & & & & & & & ",
"& & & & & & & & & & & & & & & & & & & & & & & & & & & & & & ; D I >     # v R i & & & & & & & & & & & & & & & & & & & & & & & & ",
"& & & & & & & & & & & & & & & & & & & & & & & & & & & & & & = C Y ,     o 8 W s & & & & & & & & & & & & & & & & & & & & & & & & ",
"& & & & & & & & & & & & & & & & & & & & & & & & & & & & & & t Q G %     o 9 W s & & & & & & & & & & & & & & & & & & & & & & & & ",
"& & & & & & & & & & & & & & & & & & & & & & & & & & & & & * l %.9 o   . # n E i & & & & & & & & & & & & & & & & & & & & & & & & ",
"& & & & & & & & & & & & & & & & & & & & & & & & & & & & & - S Y , . . # 9 ~ B : & & & & & & & & & & & & & & & & & & & & & & & & ",
"& & & & & & & & & & & & & & & & & & & & & & & & & & & & & - S @.0 1 5 v ' R u * & & & & & & & & & & & & & & & & & & & & & & & & ",
"& & & & & & & & & & & & & & & & & & & & & & & & & & & & & * g =.O.U _ X.T p = & & & & & & & & & & & & & & & & & & & & & & & & & ",
"& & & & & & & & & & & & & & & & & & & & & & & & & & & & & & : d V C B d r = & & & & & & & & & & & & & & & & & & & & & & & & & & "
};
