/* XPM */
static char *ada643fde5e043a48fbbb21617ded188[] = {
/* columns rows colors chars-per-pixel */
"64 64 125 2 ",
"   c #0E0E0E",
".  c #161616",
"X  c #1B1B1B",
"o  c #1F2020",
"O  c #232323",
"+  c #2A2A2A",
"@  c #302F2F",
"#  c #343434",
"$  c #383737",
"%  c #3B3C3C",
"&  c #6D0E0E",
"*  c #6E1212",
"=  c #711515",
"-  c #731C1C",
";  c #403F3F",
":  c #762323",
">  c #792525",
",  c #762929",
"<  c #7B2B2B",
"1  c #7D3131",
"2  c #444444",
"3  c #4C4C4C",
"4  c #545454",
"5  c #585656",
"6  c #5C5C5C",
"7  c #625F5F",
"8  c #646464",
"9  c #686666",
"0  c #676868",
"q  c #6C6B6B",
"w  c #706F6F",
"e  c #747373",
"r  c #797676",
"t  c #7C7A7A",
"y  c #813434",
"u  c #833B3B",
"i  c #883E3E",
"p  c #864141",
"a  c #894444",
"s  c #874848",
"d  c #8D4B4B",
"f  c #904E4E",
"g  c #8F5151",
"h  c #935454",
"j  c #955A5A",
"k  c #995E5E",
"l  c #9B6363",
"z  c #9E6969",
"x  c #817D7D",
"c  c #A16C6C",
"v  c #A57474",
"b  c #A87777",
"n  c #A77878",
"m  c #AA7B7B",
"M  c #848282",
"N  c #898686",
"B  c #8C8A8A",
"V  c #928E8E",
"C  c #998F8F",
"Z  c #959292",
"A  c #9B9494",
"S  c #9B9A9A",
"D  c #AE8383",
"F  c #AF8888",
"G  c #B18686",
"H  c #B38C8C",
"J  c #A19797",
"K  c #A39C9C",
"L  c #AB9D9D",
"P  c #B59494",
"I  c #B99595",
"U  c #B59B9B",
"Y  c #BA9B9B",
"T  c #A3A1A1",
"R  c #ACA4A4",
"E  c #ABAAAA",
"W  c #B2A4A4",
"Q  c #BBA3A3",
"!  c #BEA4A4",
"~  c #B2A8A8",
"^  c #B5A8A8",
"/  c #B5ABAB",
"(  c #B2ADAD",
")  c #B9A9A9",
"_  c #BBABAB",
"`  c #BCAAAA",
"'  c gray69",
"]  c #B7B0B0",
"[  c #BAB1B1",
"{  c #BEB0B0",
"}  c #BDB3B3",
"|  c #BCBCBC",
" . c #C2A4A4",
".. c #C3A7A7",
"X. c #C3AAAA",
"o. c #C4A8A8",
"O. c #C6ABAB",
"+. c #C2AFAF",
"@. c #C4AFAF",
"#. c #C8ACAC",
"$. c #C3B1B1",
"%. c #C3B2B2",
"&. c #C7B4B4",
"*. c #C8B3B3",
"=. c #C9B4B4",
"-. c #CEB7B7",
";. c #C2BBBB",
":. c #C5B8B8",
">. c #C3BCBC",
",. c #CBB8B8",
"<. c #CCBCBC",
"1. c #D0BCBC",
"2. c #C5C5C5",
"3. c #CAC4C4",
"4. c gray79",
"5. c #D0C3C3",
"6. c #D7C2C2",
"7. c #D3CACA",
"8. c #D5CCCC",
"9. c #D5D1D1",
"0. c #DCD3D3",
"q. c #DAD4D4",
"w. c #DBDADA",
"e. c #E4DADA",
"r. c #E1E0E0",
/* pixels */
"* * * * * * * * * * * * * * * * * * * * * * * * * * * * * * * * * * * * * * * * * * * * * * * * * * * * * * * * * * * * * * * * ",
"* * * * * * * * * * * * * * * * * * * * * * * * * * * * * * * * * * * * * * * * * * * * * * * * * * * * * * * * * * * * * * * * ",
"* * * * * * * * * * * * * * * * * * * * * * * * * * * * * * * * * * * * * * * * * * * * * * * * * * * * * * * * * * * * * * * * ",
"* * * * * * * * * * * * * * * * * * * * * * * * * * * * * * * * * * * * * * * * * * * * * * * * * * * * * * * * * * * * * * * * ",
"* * * * * * * * * * * * * * * * * * * * * * * * * * * * * * * * * * * * * * * * * * * * * * * * * * * * * * * * * * * * * * * * ",
"* * * * * * * * * * * * * * * * * * * * * * * * * * * * * * * * * * * * * * * * * * * * * * * * * * * * * * * * * * * * * * * * ",
"* * * * * * * * * * * * * * * * * * * * * * * * * * * * * * * * * * * * * * * * * * * * * * * * * * * * * * * * * * * * * * * * ",
"* * * * * * * * * * * * * * * * * * * * * * * * * * * * * * * * * * * * * * * * * * * * * * * * * * * * * * * * * * * * * * * * ",
"* * * * * * * * * * * * * * * * * * * * * * * * * * * * * * * * * * * * * * * * * * * * * * * * * * * * * * * * * * * * * * * * ",
"* * * * * * * * * * * * * * * * * * * * * * * * * * * * * * * * * * * * * * * * * * * * * * * * * * * * * * * * * * * * * * * * ",
"* * * * * * * * * * * * * * * * * * * * * * * * * * * * * * * * * * * * * * * * * * * * * * * * * * * * * * * * * * * * * * * * ",
"* * * * * * * * * * * * * * * * * * * * * * * * * * * * * * * * * * * * * * * * * * * * * * * * * * * * * * * * * * * * * * * * ",
"* * * * * * * * * * * * * * * * * * * * * * * * * * * * * * * * * * * * * * * * * * * * * * * * * * * * * * * * * * * * * * * * ",
"* > < > : - - = * * * * * * * * * * * * * * * * * * * * * * * * * * * * * * * * * * * * * * * * * * * * * * * * * * * * * * * * ",
"u G Y I H D b z j s < * * * * * * * * * * * * * * * * * * * * * * * * * * * * * * * * * * * * * * * * * * * * * * * * * * * * * ",
"l { S Z K R ^ ) ` =.D > * * * = > i u - * * * * * * : y u u u y y < > - = & & * * * * * * * * * * * * * * * * * * * * * * * * * ",
"v ^ 4 + # % 2 4 r 4.6.l f f f l H X...D a - * * * y m ..O.O.O.O...Y Y P D c h p , - = = * * * * = < d f f f f f f f f f f f d 1 ",
"d ! S 5 O . . X 2 ' q.,.*.*.&.:.T t N R Y v 1 * - v ) Z x t t x M B Z T ( { $...I D v j y = * * p H @.*.*.*.*.*.*.*.*.*.*.*.=.H ",
"- l O.^ 5 X . . O 3 8 q 0 8 8 5 # X X 2 V &.z = u Y A # . . . . . X O + % 3 6 e B S ~ ) I a * : D [ t 8 8 8 8 8 8 8 8 8 8 e R O.",
"* - c 5.V 3 + X . . . .       . . . . X 8 >.P < y Y ] t % X . . . . . . . . . . O % q T 7.D - 1 ! S +                   O q ~ n ",
"* = h *.&.~ B 3 O . . . . . . . . . . X 3 S @.l : h P +.Z 3 X . . . . . . . . . X 6 ~ $.1.m : , P R 3 X . . . . . X X + e W D u ",
"* * > h k b ..R 8 O . . . . . . . . . . + x $.c - = 1 c ! A 3 X . . . . . . . . O N ! k h y * = h ! A 3 X . . . X # 5 x W D y * ",
"* * * & & = d Y ^ 9 X . . . . . . . . X 6 ~ D 1 * * * - j Y V % X . . . . . . . + V P < & * * * - j ! A 3 X . . X 8 ^ ! b 1 * * ",
"* * * * * * * p I ^ 5 X . . . . . . . X 9 ) l = * * * * - z Q e O . . . . . . . + V P 1 * * * * * - h Y K 3 X . X t $.c > * * * ",
"* * * * * * * * d ..K 2 . . . . . . . X % J D > * * * * * y H J 2 X . . . . . . O N Y u * * * * * * - z $.e X . O B Y y * * * * ",
"* * * * * * * * - l $.M + . . . . . . . O t Q a * * * * * - l W 9 X . . . . . . X q Q g * * * * * * : n ^ 5 X . # A G : * * * * ",
"* * * * * * * * * : D { 8 . . . . . . . X 5 W l = * * * * * i P M + . . . . . . . 3 ~ b - * * * * * d X.B + . . 3 R v = * * * * ",
"* * * * * * * * * * u ! T % . . . . . . . % A G > * * * * * > D A % . . . . . . . + V Y y * * * * : H ^ 3 . . X 8 ) j & * * * * ",
"* * * * * * * * * * = l $.r O . . . . . . + x P u * * * * * - n L 2 . . . . . . . . 6 ) l = * * = j $.t X . . O t ! a * * * * * ",
"* * * * * * * * * * * < H R 2 . . . . . . X 8 U h = * * * * - b L 2 . . . . . . . . + S I < * * < P R 2 . . . # Z H < * * * * * ",
"* * * * * * * * * * * = h Q r O . . . . . . 3 L v - * * * * : D J % . . . . . . . . . 8 ) l = * j +.r o . . X 3 L b - * * * * * ",
"* * * * * * * * * * * * , F K 2 . . X X X X % C D , * * * * 1 H V # . . . . . . . . . $ K I < > D R 3 + X . X 7 U k * * * * * * ",
"* * * * * * * * * * * * = h ` r X X % # ; 4 % x P i * * * * d U e O . . . . . . . . . X r ` j p ! B 6 5 X . O t P p * * * * * * ",
"* * * * * * * * * * * * * > H R % X 0 t q B 3 q W k - * * - l L 6 X . . . . . . . . . . 3 R D c $.8 M e . . $ A F , * * * * * * ",
"* * * * * * * * * * * * * = h ` e O t E q 7 # 4 R Y h - * < D A % . . . . . . . . . . . O B O.O.E 2 q 4 . X 4 W z - * * * * * * ",
"* * * * * * * * * * * * * * , H K % 6 E q + X # q K P d - d U r O X X . . . . . . . . . . 6 3.e.B O # + . O x Q p * * * * * * * ",
"* * * * * * * * * * * * * * - l W 8 % t 8 + 2 # O 4 K D i m L 3 O 2 3 O . . . . . . . . . # ' r.8 . X O + 2 L D : * * * * * * * ",
"* * * * * * * * * * * * * * * u P B # # # # M t + O e Q P Q t + % Z E 0 O . . . . . . . . X B 2.3 . X 3 4 t ! h * * * * * * * * ",
"* * * * * * * * * * * * * * * : b L 3 X X + S | 0 O 3 R 8.K 2 O 0 R 3.] 5 X . . . . . . .   t E # . + B S ~ D > * * * * * * * * ",
"* * * * * * * * * * * * * * * = d Q e X . O N w.| 5 + e S 5 X % S ;.&.5.A % . . . . . . .   q B O . 4 >.7.Y a * * * * * * * * * ",
"* * * * * * * * * * * * * * * * < H A # . X 8 3.0.K 3 # % O X 6 [ ..b n Q e O . . . . . . . 4 6 . . t <.H d - * * * * * * * * * ",
"* * * * * * * * * * * * * * * * = z ^ 5 . X 2 K -.+.C % X . + M U f : , D K 3 X . . . . . . O O . O A Y y = * * * * * * * * * * ",
"* * * * * * * * * * * * * * * * * p Q N + 3 2 r Q I W 8 X . 2 A n > * * d Q t O . . . . . . . . . 2 ~ b = * * * * * * * * * * * ",
"* * * * * * * * * * * * * * * * * : D R 3 q 6 3 K -.) 8 X X 8 L j - * * , D K 2 X . . . . . . . . 6 +.h & * * * * * * * * * * * ",
"* * * * * * * * * * * * * * * * * = l ) 0 % # + t 9.{ 2 . O t P p * * * = k Q q O . . . . . . . X t ..i * * * * * * * * * * * * ",
"* * * * * * * * * * * * * * * * * * u Y B + X X 2 T Z # . % A D , * * * * u Y C @ . . . . . . . + S P > * * * * * * * * * * * * ",
"* * * * * * * * * * * * * * * * * * , D K 2 O # + 4 4 O . 5 L z - * * * * - m R 3 X . . . . . . % R D - * * * * * * * * * * * * ",
"* * * * * * * * * * * * * * * * * * - l W 8 # 8 2 X O X O r U d * * * * * * g ` e X . . . . . . 4 ) c * * * * * * * * * * * * * ",
"* * * * * * * * * * * * * * * * * * * d Y t % M r + . . # A H , * * * * * * < Y Z + . . . . . X 0 ! h * * * * * * * * * * * * * ",
"* * * * * * * * * * * * * * * * * * * 1 H Z % 0 N 2 . . 4 W c - * * * * * * = n ~ 2 . . . . . O M ! u * * * * * * * * * * * * * ",
"* * * * * * * * * * * * * * * * * * * - v R 3 + 2 + . O t Q d * * * * * * * & h $.0 . . . . . + A Y < * * * * * * * * * * * * * ",
"* * * * * * * * * * * * * * * * * * * = j Q 8 . . . . # A H < * * * * * * * * u ..M X . . . . % R D - * * * * * * * * * * * * * ",
"* * * * * * * * * * * * * * * * * * * * u U M O . . X 4 L c - * * * * * * * * : H K # . . . . 6 { l * * * * * * * * * * * * * * ",
"* * * * * * * * * * * * * * * * * * * * : D K % . . O r U d * * * * * * * * * * b ^ 3 . . . X M @.i * * * * * * * * * * * * * * ",
"* * * * * * * * * * * * * * * * * * * * - v ~ 3 . . % C F 1 * * * * * * * * * * l ` 6 X . . # R H - * * * * * * * * * * * * * * ",
"* * * * * * * * * * * * * * * * * * * * = h Q 8 . X 6 W z - * * * * * * * * * * d ! w X . . 0 ,.j & * * * * * * * * * * * * * * ",
"* * * * * * * * * * * * * * * * * * * * * i U t O + x U a * * * * * * * * * * * u Y M O . # K Y , * * * * * * * * * * * * * * * ",
"* * * * * * * * * * * * * * * * * * * * * < P B + 4 L n : * * * * * * * * * * * < P V + O e ` j * * * * * * * * * * * * * * * * ",
"* * * * * * * * * * * * * * * * * * * * * , D A 2 N U d * * * * * * * * * * * * , H A # 4 R D > * * * * * * * * * * * * * * * * ",
"* * * * * * * * * * * * * * * * * * * * * : m ~ N U z - * * * * * * * * * * * * > H K 8 K P i * * * * * * * * * * * * * * * * * ",
"* * * * * * * * * * * * * * * * * * * * * - z @.X.b , * * * * * * * * * * * * * > H ;.^ Y d = * * * * * * * * * * * * * * * * * ",
"* * * * * * * * * * * * * * * * * * * * * = 1 l j , * * * * * * * * * * * * * * - l #.I a = * * * * * * * * * * * * * * * * * * ",
"* * * * * * * * * * * * * * * * * * * * * * * = = * * * * * * * * * * * * * * * * , d y = * * * * * * * * * * * * * * * * * * * ",
"* * * * * * * * * * * * * * * * * * * * * * * * * * * * * * * * * * * * * * * * * * * * * * * * * * * * * * * * * * * * * * * * "
};
