/* XPM */
static char *_b732b6375314898b9c6c5532a1144ce[] = {
/* columns rows colors chars-per-pixel */
"64 64 120 2 ",
"   c #161616",
".  c #1B1B1B",
"X  c #1F2020",
"o  c #232323",
"O  c #292727",
"+  c #272828",
"@  c #2B2B2B",
"#  c #343434",
"$  c #3C3C3C",
"%  c #6D0E0E",
"&  c #6E1212",
"*  c #701515",
"=  c #721B1B",
"-  c #403F3F",
";  c #752222",
":  c #792626",
">  c #772C2C",
",  c #7B2C2C",
"<  c #7D3333",
"1  c #434343",
"2  c #4B4B4B",
"3  c #504F4F",
"4  c #525151",
"5  c #595757",
"6  c #5B5B5B",
"7  c #605F5F",
"8  c #646363",
"9  c #686767",
"0  c #6B6A6A",
"q  c #716F6F",
"w  c #737272",
"e  c #7A7676",
"r  c #7C7B7B",
"t  c #813535",
"y  c #843C3C",
"u  c #864141",
"i  c #894444",
"p  c #8D4B4B",
"a  c #904E4E",
"s  c #8F5050",
"d  c #925555",
"f  c #965B5B",
"g  c #995E5E",
"h  c #9C6464",
"j  c #9F6A6A",
"k  c #817E7E",
"l  c #A16D6D",
"z  c #A47373",
"x  c #A77979",
"c  c #AB7D7D",
"v  c #858282",
"b  c #8B8686",
"n  c #8D8B8B",
"m  c #928D8D",
"M  c #949292",
"N  c #9B9494",
"B  c #9D9B9B",
"V  c #AE8383",
"C  c #AF8A8A",
"Z  c #B08686",
"A  c #B38B8B",
"S  c #A19696",
"D  c #A49C9C",
"F  c #AB9E9E",
"G  c #B59393",
"H  c #B99595",
"J  c #B59C9C",
"K  c #BB9C9C",
"L  c #A3A2A2",
"P  c #ACA6A6",
"I  c #AEAAAA",
"U  c #B3A4A4",
"Y  c #BFA3A3",
"T  c #BBA4A4",
"R  c #B4AAAA",
"E  c #B0ACAC",
"W  c #BCABAB",
"Q  c #B8AFAF",
"!  c #BEADAD",
"~  c #B4B3B3",
"^  c #B6B3B3",
"/  c #BBB2B2",
"(  c #BFB2B2",
")  c #B8B4B4",
"_  c #BEB6B6",
"`  c #BBB8B8",
"'  c #BCBCBC",
"]  c #C09E9E",
"[  c #C2A3A3",
"{  c #C0A4A4",
"}  c #C3A5A5",
"|  c #C1ABAB",
" . c #C7ABAB",
".. c #C6AEAE",
"X. c #C8ABAB",
"o. c #CBAFAF",
"O. c #C3B3B3",
"+. c #C4B0B0",
"@. c #C1B7B7",
"#. c #C7B6B6",
"$. c #CAB3B3",
"%. c #CCB3B3",
"&. c #CAB4B4",
"*. c #C7BABA",
"=. c #CBBBBB",
"-. c #C8BCBC",
";. c #D1BEBE",
":. c #D6BFBF",
">. c #C3C3C3",
",. c #C4C1C1",
"<. c #CFC1C1",
"1. c #CDC9C9",
"2. c #CDCDCD",
"3. c #D4C3C3",
"4. c #D3C7C7",
"5. c #D6CACA",
"6. c #D2D2D2",
"7. c #DBD5D5",
"8. c #DBD9D9",
"9. c #E1D7D7",
/* pixels */
"& & & & & & & & & & & & & & & & & & & & & & & & & & & & & & & & & & & & & & & & & & & & & & & & & & & & & & & & & & & & & & & & ",
"& & & & & & & & & & & & & & & & & & & & & & & & & & & & & & & & & & & & & & & & & & & & & & & & & & & & & & & & & & & & & & & & ",
"& & & & & & & & & & & & & & & & & & & & & & & & & & & & & & & & & & & & & & & & & & & & & & & & & & & & & & & & & & & & & & & & ",
"& & & & & & & & & & & & & & & & & & & & & & & & & & & & & & & & & & & & & & & & & & & & & & & & & & & & & & & & & & & & & & & & ",
"& & & & & & & & & & & & & & & & & & & & & & & & & & & & & & & & & & & & & & & & & & & & & & & & & & & & & & & & & & & & & & & & ",
"& & & & & & & & * * & & & & & & & & & & & & & & & & & & & & & & & & & & & & & & & & & & & & & & & & & & & & & & & & & & & & & & ",
"& & & & & & ; y p p i y , ; ; = * = , y y : * & & & & & & & & & & & & & & & & & & & & & & & & & & & & & & & & & & & & & & & & & ",
"& & & & & = d H o. .[ K A V z f i p x K H j , & & & & & & & & & & & & & & & & & & & & & & & & & & & & & & & & & & & & & & & & & ",
"& & & & & , Z =.I m N D E _ *.&.{ X.;.@.( K d = & & & & & & & & & & & & & & & & & & & & & & & & & & & * * * * & & & & & & & & & ",
"& & & & & : Z ! r # $ 1 4 8 e m P ,.1.) _ $.V d y , ; = = * & & & & & & & & & * = = = ; ; ; > , , < < y y u u < = & & & & & & & ",
"& & & & & * l | M $     . o + # 2 8 r n P _ +.{ G V l f p y < < , , , , < < < y i p d g j z x c Z A G G H K K Z p = & & & & & & ",
"& & & & & % i K / w +             o + $ 4 9 k N E @.#...Y H A Z V c V V Z A G H K Y  .+.#.#.( Q E I P L D L ` 4.G p ; & & & & & ",
"& & & & & & = j ..I 6 o                 . o @ $ 4 0 k m L E ) ) ( ( ( / ) ) ^ I L B m v r w 0 7 4 4 2 2 1 4 n ,.=.H p & & & & & ",
"& & & & & & & , c +.B 2 .                       . o + # 1 4 6 6 8 8 8 8 6 6 4 4 1 $ # @ + o o . .   . . @ 6 n n D -.z & & & & & ",
"& & & & & & & & t V ! n $                                 o @ @ + o . . . . .                       o $ 0 L ^ r v @.x & & & & & ",
"& & & & & & & & & u G R e +                         . + $ 2 0 0 1 X                             o # 5 v U =.<.I R +.h & & & & & ",
"& & & & & & & & & = g Y D 2         . @ $ 1 $ # @ $ 3 0 v S _ E 0 @                         . @ 4 e S T Z z A  .{ V t & & & & & ",
"& & & & & & & & & & , Z U 0       + 2 q b N n e q v S U W [ %.#.r #               + + .   . $ 0 N U A h y ; y a p t * & & & & & ",
"& & & & & & & & & & * x T r o   + 6 m R | &.=.! U T K V h a l T v $             @ 4 2 +   $ e U Y z u ; & & & & & & & & & & & & ",
"& & & & & & & & & & * x T r +   2 N W Z j h x V z g i , = = p J m 2     . .   o 4 b 8 @ @ 0 P K g , * & & & & & & & & & & & & & ",
"& & & & & & & & & & , V U 0 . + r W V y = = , , ; = & & & & i G N 2 . + # @ o $ b B 6 @ 2 N T g : & & & & & & & & & & & & & & & ",
"& & & & & & & & & & p K P 6   $ N K f * & & & & & & & & & = a G m 2 + 2 6 $ @ 8 I B 2 $ r R x < * & & & & & & & & & & & & & & & ",
"& & & & & & & & & = x | B 4 o 4 F A u % & & & & & & & & * , l J r $ # 8 6 # 1 M ` v $ 6 D G p = & & & & & & & & & & & & & & & & ",
"& & & & & & & & % y K Q r 2 + 7 U C < % & & & & & & & & ; f G N 5 + @ 2 $ # 0 ^ ^ 8 2 b T j , & & & & & & & & & & & & & & & & & ",
"& & & & & & & & * h | B 2 O o w U c , & & & & & & & & = p Z F q #   . o o 1 B >.M 2 0 P Z y = & & & & & & & & & & & & & & & & & ",
"& & & & & & & & ; V W r o   # n T j = & & & & & & & = y c U k 1         @ w ' ` 0 6 N K f ; & & & & & & & & & & & & & & & & & & ",
"& & & & & & & % y H U 6   + 8 F G p * & & & & & & * < z J m 2 o   X . o 2 L 2.B 6 r U x t * & & & & & & & & & & & & & & & & & & ",
"& & & & & & & % i Y E 8 2 0 N K l : & & & & & & & : h J N 6 +   @ 4 4 1 r >.,.r 0 S G p = & & & & & & & & & & & & & & & & & & & ",
"& & & & & & & % u K O.N m F J x y & & & & & & & = d G F 0 #     1 v v w P 6.L 0 n U j , & & & & & & & & & & & & & & & & & & & & ",
"& & & & & & & % , z H G C V j y * & & & & & & = i V U r $       1 r n B 1.,.r e F V u = & & & & & & & & & & & & & & & & & & & & ",
"& & & & & & & & * , i p i t ; * & & & & & & * t x T m 2 o       + 2 r ^ 6.L w N J f ; & & & & & & & & & & & & & & & & & & & & & ",
"& & & & & & & & & & * * & & & & & & & & & & , j T L w 1 o         $ b 2.' v b U x t * & & & & & & & & & & & & & & & & & & & & & ",
"& & & & & & & & & & & & & & & & & & & & & = d K R M w 2 +       o 6 ^ 2.B r D G p = & & & & & & & & & & & & & & & & & & & & & & ",
"& & & & & & & & & & & & & & & & & & & & = i A Q D M r 2 o       $ n 2.` b m J j , & & & & & & & & & & & & & & & & & & & & & & & ",
"& & & & & & & & & & & & & & & & & & & * t c W P B B w $ # +   + 8 ' 6.B b P V i = & & & & & & & & & & & & & & & & & & & & & & & ",
"& & & & & & & & & & & & & & & & & & & : j Y I B I M 4 1 4 1 o $ M 8.6.L D J g : & & & & & & & & & & & & & & & & & & & & & & & & ",
"& & & & & & & & & & & & & & & & & & = d K R M P ^ r $ 1 6 $ + 6 R 9.7.,.! x t * & & & & & & & & & % % % & & & & & & & & & & & & ",
"& & & & & & & & & & & & & & & & & * y Z W M M ^ B 4 o # # + # r ! %.3.3.H p = & & & & & & & & & = < y < = & & & & & & & & & & & ",
"& & & & & & & & & & & & & & & & & , x W B r L P 0 @       . 2 N K x A A g , * & & & & & & & * , g V A V f : & & & & & & & & & & ",
"& & & & & & & & & & & & & & & & = f K P w r B r $         + 0 P V i y y : * & & & & & & & * t z K F D U G d = & & & & & & & & & ",
"& & & & & & & & & & & & & & & * y A R k 4 w e 2 .         $ n J h : * * & & & & & & & & & , l Y D w 6 v R c : & & & & & & & & & ",
"& & & & & & & & & & & & & & & : x W M 2 $ 4 1 o         o 6 D Z i = & & & & & & & & & & = d K P 0 # o 4 D H t & & & & & & & & & ",
"& & & & & & & & & & & & & & = d K F 8 + + + .           # r J l , & & & & & & & & & & & y V Q r #     1 N [ y & & & & & & & & & ",
"& & & & & & & & & & & & & & y Z U r #                 . 2 N G s = & & & & & & & & & & ; g Y N 2 .     1 N [ i & & & & & & & & & ",
"& & & & & & & & & & & & & ; l Y M 2                   + 0 J x < & & & & & & & & & & * y Z U 0 $ @ .   1 N [ y & & & & & & & & & ",
"& & & & & & & & & & & & * p K P 8 o                   - m J g ; & & & & & & & & & & ; h Y m 2 6 6 +   2 N K y & & & & & & & & & ",
"& & & & & & & & & & & & < V W v #                   o 8 F V u * & & & & & & & & & * y A U 8 1 r v # . 2 S K t & & & & & & & & & ",
"& & & & & & & & & & & = h Y B 2                     # b T j , & & & & & & & & & & ; j | m 1 2 M m $ . 4 D H t & & & & & & & & & ",
"& & & & & & & & & & & u G U 0 +                   . 6 D G p = & & & & & & & & & * y A R 9 + 2 M n # . 6 P G , & & & & & & & & & ",
"& & & & & & & & * : i V | m $                     # k T z , & & & & & & & & & & ; h | m 1 . 1 r w @ o 8 R Z : & & & & & & & & & ",
"& & & & & & = i j A X.3.I 6                     . 4 S G d = & & & & & & & & & & y A R 0 +   + 2 1 . o 0 Q V = & & & & & & & & & ",
"& & & & * t l K O.R P B 0 @                     + r T x < & & & & & & & & & & ; j | m 1 .     o .   + q / x = & & & & & & & & & ",
"& & & = p A +.P v 0 8 4 #                       # M +.c i t , ; = & & & & & = p K U 8 +             + e ! l = & & & & & & & & & ",
"& & * u A ( M 6 # 2 v e #                       $ N 5.:.X.] G Z x z j f p i p V ! v $               # k | h = & & & & & & & & & ",
"& & , x W m 1 .   6 P B 1                       + 8 m B D P R ^ ( O.O.|  .{  .O.M 3 o               $ m | a * & & & & & & & & & ",
"& % y G R 6       - q 9 @                         + # 1 2 4 6 8 0 w r k b m N v 4 +                 2 S K y & & & & & & & & & & ",
"& % u G Q q $ @ + + @ + . . . . . . . . . . . . . .   . . . o + + @ # # $ $ 1 # + . .             + 0 Q Z , & & & & & & & & & & ",
"& & , z | Q B b e 0 6 4 4 4 4 4 4 4 4 4 4 4 4 4 4 4 4 4 4 4 4 4 4 4 4 4 4 4 4 4 4 4 3 1 @ .       # v #.l = & & & & & & & & & & ",
"& & * y j Z [ ..#.@./ R I P P P P P P P P P P P P P P P P P P P P P P P P P P P P P P D r 2 + . o 6 P Y p * & & & & & & & & & & ",
"& & & * ; < p g l c V V c c c c c c c c c c c c c c c c c c c c c c c c c c c c c V Z K | S q 2 4 n ! z , & & & & & & & & & & & ",
"& & & & & & = = ; > > > > > > > > > > > > > > > > > > > > > > > > > > > > > > > > > < p x Y Q D D W V y * & & & & & & & & & & & ",
"& & & & & & & & & & & & & & & & & & & & & & & & & & & & & & & & & & & & & & & & & & & = < d V K G z u = & & & & & & & & & & & & ",
"& & & & & & & & & & & & & & & & & & & & & & & & & & & & & & & & & & & & & & & & & & & & & = < i u , = & & & & & & & & & & & & & ",
"& & & & & & & & & & & & & & & & & & & & & & & & & & & & & & & & & & & & & & & & & & & & & & & * & & & & & & & & & & & & & & & & "
};
